solid SIM_ICUB3_R_FOOT_REAR
  facet normal -7.625142e-01 -6.469641e-01 -3.089995e-03
    outer loop
      vertex 1.768058e+01 -6.875484e+01 -9.408248e+02
      vertex 1.509676e+01 -6.570954e+01 -9.408248e+02
      vertex 1.735951e+01 -6.835548e+01 -9.452105e+02
    endloop
  endfacet
  facet normal -8.778237e-01 -4.410522e-01 -1.868116e-01
    outer loop
      vertex 1.611415e+01 -6.546385e+01 -9.461856e+02
      vertex 1.735951e+01 -6.835548e+01 -9.452105e+02
      vertex 1.509676e+01 -6.570954e+01 -9.408248e+02
    endloop
  endfacet
  facet normal -9.016368e-02 -9.923979e-01 -8.376738e-02
    outer loop
      vertex 2.313057e+01 -6.925000e+01 -9.408248e+02
      vertex 1.768058e+01 -6.875484e+01 -9.408248e+02
      vertex 1.735951e+01 -6.835548e+01 -9.452105e+02
    endloop
  endfacet
  facet normal -7.403260e-02 -3.471291e-01 -9.348907e-01
    outer loop
      vertex 2.313057e+01 -6.625725e+01 -9.464466e+02
      vertex 1.735951e+01 -6.835548e+01 -9.452105e+02
      vertex 1.611415e+01 -6.546385e+01 -9.461856e+02
    endloop
  endfacet
  facet normal -9.378052e-02 -9.924521e-01 -7.901910e-02
    outer loop
      vertex 2.313057e+01 -6.886803e+01 -9.456222e+02
      vertex 2.313057e+01 -6.925000e+01 -9.408248e+02
      vertex 1.735951e+01 -6.835548e+01 -9.452105e+02
    endloop
  endfacet
  facet normal -9.434142e-02 -2.997787e-01 -9.493326e-01
    outer loop
      vertex 2.313057e+01 -6.625725e+01 -9.464466e+02
      vertex 2.313057e+01 -6.886803e+01 -9.456222e+02
      vertex 1.735951e+01 -6.835548e+01 -9.452105e+02
    endloop
  endfacet
  facet normal -7.625178e-01 -6.469672e-01 8.704304e-13
    outer loop
      vertex 1.509676e+01 -6.570954e+01 -9.404466e+02
      vertex 1.509676e+01 -6.570954e+01 -9.408248e+02
      vertex 1.768058e+01 -6.875484e+01 -9.408248e+02
    endloop
  endfacet
  facet normal -9.818870e-01 -2.673240e-02 -1.875722e-01
    outer loop
      vertex 1.485000e+01 -5.664607e+01 -9.408248e+02
      vertex 1.611415e+01 -6.546385e+01 -9.461856e+02
      vertex 1.509676e+01 -6.570954e+01 -9.408248e+02
    endloop
  endfacet
  facet normal -9.996296e-01 -2.721545e-02 -7.404884e-13
    outer loop
      vertex 1.485000e+01 -5.664607e+01 -9.404466e+02
      vertex 1.509676e+01 -6.570954e+01 -9.408248e+02
      vertex 1.509676e+01 -6.570954e+01 -9.404466e+02
    endloop
  endfacet
  facet normal -9.996296e-01 -2.721545e-02 1.055036e-14
    outer loop
      vertex 1.485000e+01 -5.664607e+01 -9.408248e+02
      vertex 1.509676e+01 -6.570954e+01 -9.408248e+02
      vertex 1.485000e+01 -5.664607e+01 -9.404466e+02
    endloop
  endfacet
  facet normal -9.048169e-02 -9.958981e-01 -8.499245e-16
    outer loop
      vertex 1.768058e+01 -6.875484e+01 -9.404466e+02
      vertex 1.768058e+01 -6.875484e+01 -9.408248e+02
      vertex 2.313057e+01 -6.925000e+01 -9.408248e+02
    endloop
  endfacet
  facet normal -7.625178e-01 -6.469672e-01 -7.162582e-15
    outer loop
      vertex 1.768058e+01 -6.875484e+01 -9.404466e+02
      vertex 1.509676e+01 -6.570954e+01 -9.404466e+02
      vertex 1.768058e+01 -6.875484e+01 -9.408248e+02
    endloop
  endfacet
  facet normal -3.717655e-02 3.543379e-14 -9.993087e-01
    outer loop
      vertex 2.313057e+01 -5.664607e+01 -9.464466e+02
      vertex 2.313057e+01 -6.625725e+01 -9.464466e+02
      vertex 1.611415e+01 -6.546385e+01 -9.461856e+02
    endloop
  endfacet
  facet normal -9.867521e-01 -4.707721e-02 -1.552548e-01
    outer loop
      vertex 1.567443e+01 -5.664607e+01 -9.460646e+02
      vertex 1.611415e+01 -6.546385e+01 -9.461856e+02
      vertex 1.485000e+01 -5.664607e+01 -9.408248e+02
    endloop
  endfacet
  facet normal -5.115810e-02 1.114544e-02 -9.986284e-01
    outer loop
      vertex 2.313057e+01 -5.664607e+01 -9.464466e+02
      vertex 1.611415e+01 -6.546385e+01 -9.461856e+02
      vertex 1.567443e+01 -5.664607e+01 -9.460646e+02
    endloop
  endfacet
  facet normal 5.888468e-15 -9.968453e-01 -7.936889e-02
    outer loop
      vertex 1.095222e+02 -6.886803e+01 -9.456222e+02
      vertex 2.313057e+01 -6.925000e+01 -9.408248e+02
      vertex 2.313057e+01 -6.886803e+01 -9.456222e+02
    endloop
  endfacet
  facet normal -9.048169e-02 -9.958981e-01 6.799396e-15
    outer loop
      vertex 2.313057e+01 -6.925000e+01 -9.404466e+02
      vertex 1.768058e+01 -6.875484e+01 -9.404466e+02
      vertex 2.313057e+01 -6.925000e+01 -9.408248e+02
    endloop
  endfacet
  facet normal 5.921762e-15 -1.000000e+00 -3.955561e-28
    outer loop
      vertex 1.095222e+02 -6.925000e+01 -9.408248e+02
      vertex 2.313057e+01 -6.925000e+01 -9.404466e+02
      vertex 2.313057e+01 -6.925000e+01 -9.408248e+02
    endloop
  endfacet
  facet normal 5.903026e-15 -9.968453e-01 -7.936889e-02
    outer loop
      vertex 1.095222e+02 -6.886803e+01 -9.456222e+02
      vertex 1.095222e+02 -6.925000e+01 -9.408248e+02
      vertex 2.313057e+01 -6.925000e+01 -9.408248e+02
    endloop
  endfacet
  facet normal -2.476627e-16 -3.011218e-01 -9.535857e-01
    outer loop
      vertex 1.095222e+02 -6.625725e+01 -9.464466e+02
      vertex 2.313057e+01 -6.886803e+01 -9.456222e+02
      vertex 2.313057e+01 -6.625725e+01 -9.464466e+02
    endloop
  endfacet
  facet normal 5.448595e-15 -3.011218e-01 -9.535857e-01
    outer loop
      vertex 1.095222e+02 -6.625725e+01 -9.464466e+02
      vertex 1.095222e+02 -6.886803e+01 -9.456222e+02
      vertex 2.313057e+01 -6.886803e+01 -9.456222e+02
    endloop
  endfacet
  facet normal 2.918590e-29 3.548580e-14 -1.000000e+00
    outer loop
      vertex 1.095222e+02 -6.625725e+01 -9.464466e+02
      vertex 2.313057e+01 -6.625725e+01 -9.464466e+02
      vertex 2.313057e+01 -5.664607e+01 -9.464466e+02
    endloop
  endfacet
  facet normal 2.321495e-16 -3.713488e-14 1.000000e+00
    outer loop
      vertex 1.129675e+02 -6.815916e+01 -9.404466e+02
      vertex 1.509676e+01 -6.570954e+01 -9.404466e+02
      vertex 1.768058e+01 -6.875484e+01 -9.404466e+02
    endloop
  endfacet
  facet normal 1.247768e-28 1.254341e-14 1.000000e+00
    outer loop
      vertex 1.148500e+02 -5.664607e+01 -9.404466e+02
      vertex 1.485000e+01 -5.664607e+01 -9.404466e+02
      vertex 1.509676e+01 -6.570954e+01 -9.404466e+02
    endloop
  endfacet
  facet normal 1.141172e-15 -1.641199e-17 1.000000e+00
    outer loop
      vertex 1.147246e+02 -6.536260e+01 -9.404466e+02
      vertex 1.148500e+02 -5.664607e+01 -9.404466e+02
      vertex 1.509676e+01 -6.570954e+01 -9.404466e+02
    endloop
  endfacet
  facet normal 1.143617e-15 -7.185818e-16 1.000000e+00
    outer loop
      vertex 1.129675e+02 -6.815916e+01 -9.404466e+02
      vertex 1.147246e+02 -6.536260e+01 -9.404466e+02
      vertex 1.509676e+01 -6.570954e+01 -9.404466e+02
    endloop
  endfacet
  facet normal 0.000000e+00 0.000000e+00 1.000000e+00
    outer loop
      vertex 1.129675e+02 -6.815916e+01 -9.404466e+02
      vertex 1.768058e+01 -6.875484e+01 -9.404466e+02
      vertex 2.313057e+01 -6.925000e+01 -9.404466e+02
    endloop
  endfacet
  facet normal 0.000000e+00 0.000000e+00 1.000000e+00
    outer loop
      vertex 1.095222e+02 -6.925000e+01 -9.404466e+02
      vertex 1.129675e+02 -6.815916e+01 -9.404466e+02
      vertex 2.313057e+01 -6.925000e+01 -9.404466e+02
    endloop
  endfacet
  facet normal 5.428282e-15 -1.000000e+00 -1.127200e-13
    outer loop
      vertex 1.095222e+02 -6.925000e+01 -9.408248e+02
      vertex 1.095222e+02 -6.925000e+01 -9.404466e+02
      vertex 2.313057e+01 -6.925000e+01 -9.404466e+02
    endloop
  endfacet
  facet normal 0.000000e+00 0.000000e+00 1.000000e+00
    outer loop
      vertex 3.272964e+01 -1.820134e+01 -9.404466e+02
      vertex 1.485000e+01 3.946575e+01 -9.404466e+02
      vertex 1.485000e+01 -5.664607e+01 -9.404466e+02
    endloop
  endfacet
  facet normal -1.000000e+00 -5.507692e-15 -9.393331e-15
    outer loop
      vertex 1.485000e+01 -5.664607e+01 -9.408248e+02
      vertex 1.485000e+01 -5.664607e+01 -9.404466e+02
      vertex 1.485000e+01 3.946575e+01 -9.404466e+02
    endloop
  endfacet
  facet normal 0.000000e+00 0.000000e+00 1.000000e+00
    outer loop
      vertex 7.761752e+01 -3.937626e+01 -9.404466e+02
      vertex 1.485000e+01 -5.664607e+01 -9.404466e+02
      vertex 1.148500e+02 -5.664607e+01 -9.404466e+02
    endloop
  endfacet
  facet normal 0.000000e+00 0.000000e+00 1.000000e+00
    outer loop
      vertex 3.272964e+01 -2.781252e+01 -9.404466e+02
      vertex 3.272964e+01 -1.820134e+01 -9.404466e+02
      vertex 1.485000e+01 -5.664607e+01 -9.404466e+02
    endloop
  endfacet
  facet normal 0.000000e+00 0.000000e+00 1.000000e+00
    outer loop
      vertex 3.272964e+01 -3.742370e+01 -9.404466e+02
      vertex 3.272964e+01 -2.781252e+01 -9.404466e+02
      vertex 1.485000e+01 -5.664607e+01 -9.404466e+02
    endloop
  endfacet
  facet normal 0.000000e+00 0.000000e+00 1.000000e+00
    outer loop
      vertex 4.087570e+01 -3.793213e+01 -9.404466e+02
      vertex 3.272964e+01 -3.742370e+01 -9.404466e+02
      vertex 1.485000e+01 -5.664607e+01 -9.404466e+02
    endloop
  endfacet
  facet normal 0.000000e+00 0.000000e+00 1.000000e+00
    outer loop
      vertex 7.761752e+01 -3.937626e+01 -9.404466e+02
      vertex 4.087570e+01 -3.793213e+01 -9.404466e+02
      vertex 1.485000e+01 -5.664607e+01 -9.404466e+02
    endloop
  endfacet
  facet normal 0.000000e+00 0.000000e+00 1.000000e+00
    outer loop
      vertex 1.138311e+02 4.575291e+01 -9.404466e+02
      vertex 1.634092e+01 4.626752e+01 -9.404466e+02
      vertex 1.485000e+01 3.946575e+01 -9.404466e+02
    endloop
  endfacet
  facet normal -9.768091e-01 2.141122e-01 -1.287185e-13
    outer loop
      vertex 1.485000e+01 3.946575e+01 -9.408248e+02
      vertex 1.485000e+01 3.946575e+01 -9.404466e+02
      vertex 1.634092e+01 4.626752e+01 -9.404466e+02
    endloop
  endfacet
  facet normal 0.000000e+00 0.000000e+00 1.000000e+00
    outer loop
      vertex 1.148500e+02 3.946575e+01 -9.404466e+02
      vertex 1.138311e+02 4.575291e+01 -9.404466e+02
      vertex 1.485000e+01 3.946575e+01 -9.404466e+02
    endloop
  endfacet
  facet normal 0.000000e+00 0.000000e+00 1.000000e+00
    outer loop
      vertex 6.152686e+01 2.024339e+01 -9.404466e+02
      vertex 1.148500e+02 3.946575e+01 -9.404466e+02
      vertex 1.485000e+01 3.946575e+01 -9.404466e+02
    endloop
  endfacet
  facet normal 0.000000e+00 0.000000e+00 1.000000e+00
    outer loop
      vertex 5.192779e+01 1.063221e+01 -9.404466e+02
      vertex 6.152686e+01 2.024339e+01 -9.404466e+02
      vertex 1.485000e+01 3.946575e+01 -9.404466e+02
    endloop
  endfacet
  facet normal 0.000000e+00 0.000000e+00 1.000000e+00
    outer loop
      vertex 4.759221e+01 4.395586e+00 -9.404466e+02
      vertex 5.192779e+01 1.063221e+01 -9.404466e+02
      vertex 1.485000e+01 3.946575e+01 -9.404466e+02
    endloop
  endfacet
  facet normal 0.000000e+00 0.000000e+00 1.000000e+00
    outer loop
      vertex 3.272964e+01 -1.820134e+01 -9.404466e+02
      vertex 4.759221e+01 4.395586e+00 -9.404466e+02
      vertex 1.485000e+01 3.946575e+01 -9.404466e+02
    endloop
  endfacet
  facet normal -1.000000e+00 -5.544657e-15 3.333299e-27
    outer loop
      vertex 1.485000e+01 3.946575e+01 -9.408248e+02
      vertex 1.485000e+01 -5.664607e+01 -9.408248e+02
      vertex 1.485000e+01 3.946575e+01 -9.404466e+02
    endloop
  endfacet
  facet normal 0.000000e+00 0.000000e+00 1.000000e+00
    outer loop
      vertex 1.095222e+02 4.775000e+01 -9.404466e+02
      vertex 2.313057e+01 4.775000e+01 -9.404466e+02
      vertex 1.634092e+01 4.626752e+01 -9.404466e+02
    endloop
  endfacet
  facet normal -2.133177e-01 9.769829e-01 -1.287197e-12
    outer loop
      vertex 1.634092e+01 4.626752e+01 -9.408248e+02
      vertex 1.634092e+01 4.626752e+01 -9.404466e+02
      vertex 2.313057e+01 4.775000e+01 -9.404466e+02
    endloop
  endfacet
  facet normal 0.000000e+00 0.000000e+00 1.000000e+00
    outer loop
      vertex 1.138311e+02 4.575291e+01 -9.404466e+02
      vertex 1.095222e+02 4.775000e+01 -9.404466e+02
      vertex 1.634092e+01 4.626752e+01 -9.404466e+02
    endloop
  endfacet
  facet normal -9.768091e-01 2.141122e-01 1.307919e-12
    outer loop
      vertex 1.634092e+01 4.626752e+01 -9.408248e+02
      vertex 1.485000e+01 3.946575e+01 -9.408248e+02
      vertex 1.634092e+01 4.626752e+01 -9.404466e+02
    endloop
  endfacet
  facet normal -5.428282e-15 1.000000e+00 -3.757332e-14
    outer loop
      vertex 2.313057e+01 4.775000e+01 -9.408248e+02
      vertex 2.313057e+01 4.775000e+01 -9.404466e+02
      vertex 1.095222e+02 4.775000e+01 -9.404466e+02
    endloop
  endfacet
  facet normal -2.133177e-01 9.769829e-01 2.540818e-14
    outer loop
      vertex 2.313057e+01 4.775000e+01 -9.408248e+02
      vertex 1.634092e+01 4.626752e+01 -9.408248e+02
      vertex 2.313057e+01 4.775000e+01 -9.404466e+02
    endloop
  endfacet
  facet normal 4.205094e-01 9.072882e-01 -2.661996e-14
    outer loop
      vertex 1.095222e+02 4.775000e+01 -9.408248e+02
      vertex 1.095222e+02 4.775000e+01 -9.404466e+02
      vertex 1.138311e+02 4.575291e+01 -9.404466e+02
    endloop
  endfacet
  facet normal -5.921762e-15 1.000000e+00 7.514665e-14
    outer loop
      vertex 1.095222e+02 4.775000e+01 -9.408248e+02
      vertex 2.313057e+01 4.775000e+01 -9.408248e+02
      vertex 1.095222e+02 4.775000e+01 -9.404466e+02
    endloop
  endfacet
  facet normal 9.871220e-01 1.599691e-01 -3.408417e-14
    outer loop
      vertex 1.138311e+02 4.575291e+01 -9.408248e+02
      vertex 1.138311e+02 4.575291e+01 -9.404466e+02
      vertex 1.148500e+02 3.946575e+01 -9.404466e+02
    endloop
  endfacet
  facet normal 4.205094e-01 9.072882e-01 1.244979e-15
    outer loop
      vertex 1.138311e+02 4.575291e+01 -9.408248e+02
      vertex 1.095222e+02 4.775000e+01 -9.408248e+02
      vertex 1.138311e+02 4.575291e+01 -9.404466e+02
    endloop
  endfacet
  facet normal 0.000000e+00 0.000000e+00 1.000000e+00
    outer loop
      vertex 9.992314e+01 -1.820134e+01 -9.404466e+02
      vertex 1.148500e+02 -5.664607e+01 -9.404466e+02
      vertex 1.148500e+02 3.946575e+01 -9.404466e+02
    endloop
  endfacet
  facet normal 1.000000e+00 5.322870e-15 -7.890398e-13
    outer loop
      vertex 1.148500e+02 3.946575e+01 -9.408248e+02
      vertex 1.148500e+02 3.946575e+01 -9.404466e+02
      vertex 1.148500e+02 -5.664607e+01 -9.404466e+02
    endloop
  endfacet
  facet normal 0.000000e+00 0.000000e+00 1.000000e+00
    outer loop
      vertex 9.032407e+01 1.021025e+00 -9.404466e+02
      vertex 9.032407e+01 -8.590157e+00 -9.404466e+02
      vertex 1.148500e+02 3.946575e+01 -9.404466e+02
    endloop
  endfacet
  facet normal 0.000000e+00 0.000000e+00 1.000000e+00
    outer loop
      vertex 9.992314e+01 -8.590157e+00 -9.404466e+02
      vertex 1.148500e+02 3.946575e+01 -9.404466e+02
      vertex 9.032407e+01 -8.590157e+00 -9.404466e+02
    endloop
  endfacet
  facet normal 0.000000e+00 0.000000e+00 1.000000e+00
    outer loop
      vertex 8.322177e+01 2.964365e+00 -9.404466e+02
      vertex 9.032407e+01 1.021025e+00 -9.404466e+02
      vertex 1.148500e+02 3.946575e+01 -9.404466e+02
    endloop
  endfacet
  facet normal 0.000000e+00 0.000000e+00 1.000000e+00
    outer loop
      vertex 8.072500e+01 1.063221e+01 -9.404466e+02
      vertex 8.322177e+01 2.964365e+00 -9.404466e+02
      vertex 1.148500e+02 3.946575e+01 -9.404466e+02
    endloop
  endfacet
  facet normal 0.000000e+00 0.000000e+00 1.000000e+00
    outer loop
      vertex 8.072500e+01 2.024339e+01 -9.404466e+02
      vertex 8.072500e+01 1.063221e+01 -9.404466e+02
      vertex 1.148500e+02 3.946575e+01 -9.404466e+02
    endloop
  endfacet
  facet normal 0.000000e+00 0.000000e+00 1.000000e+00
    outer loop
      vertex 7.112593e+01 2.024339e+01 -9.404466e+02
      vertex 8.072500e+01 2.024339e+01 -9.404466e+02
      vertex 1.148500e+02 3.946575e+01 -9.404466e+02
    endloop
  endfacet
  facet normal 0.000000e+00 0.000000e+00 1.000000e+00
    outer loop
      vertex 6.152686e+01 2.024339e+01 -9.404466e+02
      vertex 7.112593e+01 2.024339e+01 -9.404466e+02
      vertex 1.148500e+02 3.946575e+01 -9.404466e+02
    endloop
  endfacet
  facet normal 0.000000e+00 0.000000e+00 1.000000e+00
    outer loop
      vertex 9.992314e+01 -8.590157e+00 -9.404466e+02
      vertex 9.992314e+01 -1.820134e+01 -9.404466e+02
      vertex 1.148500e+02 3.946575e+01 -9.404466e+02
    endloop
  endfacet
  facet normal 9.871220e-01 1.599691e-01 -8.753005e-13
    outer loop
      vertex 1.138311e+02 4.575291e+01 -9.408248e+02
      vertex 1.148500e+02 3.946575e+01 -9.404466e+02
      vertex 1.148500e+02 3.946575e+01 -9.408248e+02
    endloop
  endfacet
  facet normal 9.998966e-01 -1.438021e-02 -2.620515e-14
    outer loop
      vertex 1.148500e+02 -5.664607e+01 -9.408248e+02
      vertex 1.148500e+02 -5.664607e+01 -9.404466e+02
      vertex 1.147246e+02 -6.536260e+01 -9.404466e+02
    endloop
  endfacet
  facet normal 0.000000e+00 0.000000e+00 1.000000e+00
    outer loop
      vertex 9.032407e+01 -2.781252e+01 -9.404466e+02
      vertex 7.761752e+01 -3.937626e+01 -9.404466e+02
      vertex 1.148500e+02 -5.664607e+01 -9.404466e+02
    endloop
  endfacet
  facet normal 0.000000e+00 0.000000e+00 1.000000e+00
    outer loop
      vertex 9.992314e+01 -1.820134e+01 -9.404466e+02
      vertex 9.032407e+01 -2.781252e+01 -9.404466e+02
      vertex 1.148500e+02 -5.664607e+01 -9.404466e+02
    endloop
  endfacet
  facet normal 1.000000e+00 8.427878e-15 1.493318e-26
    outer loop
      vertex 1.148500e+02 3.946575e+01 -9.408248e+02
      vertex 1.148500e+02 -5.664607e+01 -9.404466e+02
      vertex 1.148500e+02 -5.664607e+01 -9.408248e+02
    endloop
  endfacet
  facet normal 8.467243e-01 -5.320319e-01 3.998041e-14
    outer loop
      vertex 1.147246e+02 -6.536260e+01 -9.408248e+02
      vertex 1.147246e+02 -6.536260e+01 -9.404466e+02
      vertex 1.129675e+02 -6.815916e+01 -9.404466e+02
    endloop
  endfacet
  facet normal 9.998966e-01 -1.438021e-02 1.077534e-15
    outer loop
      vertex 1.148500e+02 -5.664607e+01 -9.408248e+02
      vertex 1.147246e+02 -6.536260e+01 -9.404466e+02
      vertex 1.147246e+02 -6.536260e+01 -9.408248e+02
    endloop
  endfacet
  facet normal 3.018543e-01 -9.533541e-01 0.000000e+00
    outer loop
      vertex 1.129675e+02 -6.815916e+01 -9.408248e+02
      vertex 1.129675e+02 -6.815916e+01 -9.404466e+02
      vertex 1.095222e+02 -6.925000e+01 -9.404466e+02
    endloop
  endfacet
  facet normal 8.467243e-01 -5.320319e-01 0.000000e+00
    outer loop
      vertex 1.129675e+02 -6.815916e+01 -9.408248e+02
      vertex 1.147246e+02 -6.536260e+01 -9.408248e+02
      vertex 1.129675e+02 -6.815916e+01 -9.404466e+02
    endloop
  endfacet
  facet normal 3.018543e-01 -9.533541e-01 -1.527083e-13
    outer loop
      vertex 1.129675e+02 -6.815916e+01 -9.408248e+02
      vertex 1.095222e+02 -6.925000e+01 -9.404466e+02
      vertex 1.095222e+02 -6.925000e+01 -9.408248e+02
    endloop
  endfacet
  facet normal 5.092779e-01 4.509278e-15 8.606021e-01
    outer loop
      vertex 8.305772e+01 -1.628012e+01 -9.361466e+02
      vertex 9.032407e+01 -8.590157e+00 -9.404466e+02
      vertex 9.032407e+01 1.021025e+00 -9.404466e+02
    endloop
  endfacet
  facet normal -1.921303e-15 4.292694e-01 9.031765e-01
    outer loop
      vertex 8.459722e+01 -1.763729e+01 -9.361466e+02
      vertex 9.992314e+01 -8.590157e+00 -9.404466e+02
      vertex 9.032407e+01 -8.590157e+00 -9.404466e+02
    endloop
  endfacet
  facet normal -2.388098e-02 4.414381e-01 8.969739e-01
    outer loop
      vertex 8.459722e+01 -1.763729e+01 -9.361466e+02
      vertex 9.032407e+01 -8.590157e+00 -9.404466e+02
      vertex 8.214754e+01 -1.776982e+01 -9.361466e+02
    endloop
  endfacet
  facet normal 7.603020e-01 -4.645368e-01 4.540335e-01
    outer loop
      vertex 8.305772e+01 -1.628012e+01 -9.361466e+02
      vertex 8.214754e+01 -1.776982e+01 -9.361466e+02
      vertex 9.032407e+01 -8.590157e+00 -9.404466e+02
    endloop
  endfacet
  facet normal 5.942930e-02 2.171954e-01 9.743173e-01
    outer loop
      vertex 8.305772e+01 -1.628012e+01 -9.361466e+02
      vertex 9.032407e+01 1.021025e+00 -9.404466e+02
      vertex 8.322177e+01 2.964365e+00 -9.404466e+02
    endloop
  endfacet
  facet normal 3.124708e-01 1.017455e-01 9.444627e-01
    outer loop
      vertex 6.874922e+01 7.495863e+00 -9.361466e+02
      vertex 8.322177e+01 2.964365e+00 -9.404466e+02
      vertex 8.072500e+01 1.063221e+01 -9.404466e+02
    endloop
  endfacet
  facet normal 2.654403e-16 -7.171928e-01 6.968748e-01
    outer loop
      vertex 8.072500e+01 1.021025e+00 -9.424466e+02
      vertex 8.322177e+01 2.964365e+00 -9.404466e+02
      vertex 7.112593e+01 1.021025e+00 -9.424466e+02
    endloop
  endfacet
  facet normal -6.096836e-03 -6.984996e-01 7.155844e-01
    outer loop
      vertex 6.874922e+01 7.495863e+00 -9.361466e+02
      vertex 7.112593e+01 1.021025e+00 -9.424466e+02
      vertex 8.322177e+01 2.964365e+00 -9.404466e+02
    endloop
  endfacet
  facet normal -6.251871e-01 -1.475438e-14 7.804749e-01
    outer loop
      vertex 8.072500e+01 -8.590157e+00 -9.424466e+02
      vertex 8.322177e+01 2.964365e+00 -9.404466e+02
      vertex 8.072500e+01 1.021025e+00 -9.424466e+02
    endloop
  endfacet
  facet normal -8.805407e-01 1.104924e-01 4.609116e-01
    outer loop
      vertex 8.305772e+01 -1.628012e+01 -9.361466e+02
      vertex 8.322177e+01 2.964365e+00 -9.404466e+02
      vertex 8.072500e+01 -8.590157e+00 -9.424466e+02
    endloop
  endfacet
  facet normal 3.525212e-01 -5.212291e-15 9.358038e-01
    outer loop
      vertex 6.931021e+01 9.345176e+00 -9.361466e+02
      vertex 8.072500e+01 1.063221e+01 -9.404466e+02
      vertex 8.072500e+01 2.024339e+01 -9.404466e+02
    endloop
  endfacet
  facet normal 3.611937e-01 -1.095669e-01 9.260314e-01
    outer loop
      vertex 6.931021e+01 9.345176e+00 -9.361466e+02
      vertex 6.874922e+01 7.495863e+00 -9.361466e+02
      vertex 8.072500e+01 1.063221e+01 -9.404466e+02
    endloop
  endfacet
  facet normal 1.358394e-14 3.670243e-01 9.302114e-01
    outer loop
      vertex 6.931021e+01 9.345176e+00 -9.361466e+02
      vertex 8.072500e+01 2.024339e+01 -9.404466e+02
      vertex 7.112593e+01 2.024339e+01 -9.404466e+02
    endloop
  endfacet
  facet normal 0.000000e+00 3.838172e-01 9.234091e-01
    outer loop
      vertex 6.145456e+01 9.898208e+00 -9.361466e+02
      vertex 7.112593e+01 2.024339e+01 -9.404466e+02
      vertex 6.152686e+01 2.024339e+01 -9.404466e+02
    endloop
  endfacet
  facet normal 2.557011e-02 3.632151e-01 9.313544e-01
    outer loop
      vertex 6.931021e+01 9.345176e+00 -9.361466e+02
      vertex 7.112593e+01 2.024339e+01 -9.404466e+02
      vertex 6.145456e+01 9.898208e+00 -9.361466e+02
    endloop
  endfacet
  facet normal -3.605966e-01 3.601423e-01 8.603881e-01
    outer loop
      vertex 6.145456e+01 9.898208e+00 -9.361466e+02
      vertex 6.152686e+01 2.024339e+01 -9.404466e+02
      vertex 5.192779e+01 1.063221e+01 -9.404466e+02
    endloop
  endfacet
  facet normal -3.798208e-01 2.640440e-01 8.865760e-01
    outer loop
      vertex 6.145456e+01 9.898208e+00 -9.361466e+02
      vertex 5.192779e+01 1.063221e+01 -9.404466e+02
      vertex 4.759221e+01 4.395586e+00 -9.404466e+02
    endloop
  endfacet
  facet normal 0.000000e+00 0.000000e+00 1.000000e+00
    outer loop
      vertex 3.272964e+01 -1.820134e+01 -9.404466e+02
      vertex 4.198169e+01 -8.532248e+00 -9.404466e+02
      vertex 4.759221e+01 4.395586e+00 -9.404466e+02
    endloop
  endfacet
  facet normal -4.435327e-01 1.924876e-01 8.753441e-01
    outer loop
      vertex 4.703252e+01 -1.644846e+01 -9.361466e+02
      vertex 4.759221e+01 4.395586e+00 -9.404466e+02
      vertex 4.198169e+01 -8.532248e+00 -9.404466e+02
    endloop
  endfacet
  facet normal 7.010709e-01 1.259684e-01 7.018772e-01
    outer loop
      vertex 5.192779e+01 -8.590157e+00 -9.424466e+02
      vertex 4.759221e+01 4.395586e+00 -9.404466e+02
      vertex 4.703252e+01 -1.644846e+01 -9.361466e+02
    endloop
  endfacet
  facet normal 4.188793e-01 -3.222260e-14 9.080419e-01
    outer loop
      vertex 5.192779e+01 1.021025e+00 -9.424466e+02
      vertex 4.759221e+01 4.395586e+00 -9.404466e+02
      vertex 5.192779e+01 -8.590157e+00 -9.424466e+02
    endloop
  endfacet
  facet normal -1.117668e-01 -6.089955e-01 7.852596e-01
    outer loop
      vertex 6.142913e+01 7.400713e+00 -9.361466e+02
      vertex 4.759221e+01 4.395586e+00 -9.404466e+02
      vertex 5.192779e+01 1.021025e+00 -9.424466e+02
    endloop
  endfacet
  facet normal -2.973615e-01 3.028143e-03 9.547602e-01
    outer loop
      vertex 6.145456e+01 9.898208e+00 -9.361466e+02
      vertex 4.759221e+01 4.395586e+00 -9.404466e+02
      vertex 6.142913e+01 7.400713e+00 -9.361466e+02
    endloop
  endfacet
  facet normal -3.224652e-01 3.085568e-01 8.948793e-01
    outer loop
      vertex 4.511207e+01 -1.773166e+01 -9.361466e+02
      vertex 4.198169e+01 -8.532248e+00 -9.404466e+02
      vertex 3.272964e+01 -1.820134e+01 -9.404466e+02
    endloop
  endfacet
  facet normal -2.313513e-01 3.462417e-01 9.091717e-01
    outer loop
      vertex 4.703252e+01 -1.644846e+01 -9.361466e+02
      vertex 4.198169e+01 -8.532248e+00 -9.404466e+02
      vertex 4.511207e+01 -1.773166e+01 -9.361466e+02
    endloop
  endfacet
  facet normal -3.280488e-01 -9.588094e-16 9.446608e-01
    outer loop
      vertex 4.511207e+01 -1.773166e+01 -9.361466e+02
      vertex 3.272964e+01 -1.820134e+01 -9.404466e+02
      vertex 3.272964e+01 -2.781252e+01 -9.404466e+02
    endloop
  endfacet
  facet normal -2.596927e-01 2.143118e-15 9.656913e-01
    outer loop
      vertex 4.871959e+01 -2.410738e+01 -9.361466e+02
      vertex 3.272964e+01 -2.781252e+01 -9.404466e+02
      vertex 3.272964e+01 -3.742370e+01 -9.404466e+02
    endloop
  endfacet
  facet normal -2.293449e-01 -1.297681e-01 9.646560e-01
    outer loop
      vertex 4.511207e+01 -1.773166e+01 -9.361466e+02
      vertex 3.272964e+01 -2.781252e+01 -9.404466e+02
      vertex 4.871959e+01 -2.410738e+01 -9.361466e+02
    endloop
  endfacet
  facet normal -1.795361e-02 -2.876515e-01 9.575669e-01
    outer loop
      vertex 4.871959e+01 -2.410738e+01 -9.361466e+02
      vertex 3.272964e+01 -3.742370e+01 -9.404466e+02
      vertex 4.087570e+01 -3.793213e+01 -9.404466e+02
    endloop
  endfacet
  facet normal 0.000000e+00 0.000000e+00 1.000000e+00
    outer loop
      vertex 7.761752e+01 -3.937626e+01 -9.404466e+02
      vertex 5.288501e+01 -3.775865e+01 -9.404466e+02
      vertex 4.087570e+01 -3.793213e+01 -9.404466e+02
    endloop
  endfacet
  facet normal 4.465487e-03 -3.091176e-01 9.510133e-01
    outer loop
      vertex 5.023728e+01 -2.456777e+01 -9.361466e+02
      vertex 4.087570e+01 -3.793213e+01 -9.404466e+02
      vertex 5.288501e+01 -3.775865e+01 -9.404466e+02
    endloop
  endfacet
  facet normal -7.756996e-02 -2.557139e-01 9.636355e-01
    outer loop
      vertex 5.023728e+01 -2.456777e+01 -9.361466e+02
      vertex 4.871959e+01 -2.410738e+01 -9.361466e+02
      vertex 4.087570e+01 -3.793213e+01 -9.404466e+02
    endloop
  endfacet
  facet normal 0.000000e+00 0.000000e+00 1.000000e+00
    outer loop
      vertex 6.152686e+01 -3.742370e+01 -9.404466e+02
      vertex 6.016076e+01 -3.320748e+01 -9.404466e+02
      vertex 5.288501e+01 -3.775865e+01 -9.404466e+02
    endloop
  endfacet
  facet normal 1.714366e-01 -2.740681e-01 9.463066e-01
    outer loop
      vertex 5.023728e+01 -2.456777e+01 -9.361466e+02
      vertex 5.288501e+01 -3.775865e+01 -9.404466e+02
      vertex 6.016076e+01 -3.320748e+01 -9.404466e+02
    endloop
  endfacet
  facet normal 0.000000e+00 0.000000e+00 1.000000e+00
    outer loop
      vertex 7.112593e+01 -3.742370e+01 -9.404466e+02
      vertex 6.152686e+01 -3.742370e+01 -9.404466e+02
      vertex 5.288501e+01 -3.775865e+01 -9.404466e+02
    endloop
  endfacet
  facet normal 0.000000e+00 0.000000e+00 1.000000e+00
    outer loop
      vertex 7.761752e+01 -3.937626e+01 -9.404466e+02
      vertex 7.112593e+01 -3.742370e+01 -9.404466e+02
      vertex 5.288501e+01 -3.775865e+01 -9.404466e+02
    endloop
  endfacet
  facet normal -1.944736e-01 -6.301155e-02 9.788818e-01
    outer loop
      vertex 7.878623e+01 -2.389127e+01 -9.361466e+02
      vertex 6.016076e+01 -3.320748e+01 -9.404466e+02
      vertex 6.152686e+01 -3.742370e+01 -9.404466e+02
    endloop
  endfacet
  facet normal 4.061266e-01 7.360257e-01 -5.415970e-01
    outer loop
      vertex 5.134190e+01 -2.870931e+01 -9.409466e+02
      vertex 5.023728e+01 -2.456777e+01 -9.361466e+02
      vertex 6.016076e+01 -3.320748e+01 -9.404466e+02
    endloop
  endfacet
  facet normal 1.102959e-01 3.208044e-01 9.407015e-01
    outer loop
      vertex 6.152686e+01 -2.781252e+01 -9.424466e+02
      vertex 5.134190e+01 -2.870931e+01 -9.409466e+02
      vertex 6.016076e+01 -3.320748e+01 -9.404466e+02
    endloop
  endfacet
  facet normal -3.933219e-01 4.054928e-01 8.251506e-01
    outer loop
      vertex 7.878623e+01 -2.389127e+01 -9.361466e+02
      vertex 6.152686e+01 -2.781252e+01 -9.424466e+02
      vertex 6.016076e+01 -3.320748e+01 -9.404466e+02
    endloop
  endfacet
  facet normal 0.000000e+00 -3.028344e-01 9.530432e-01
    outer loop
      vertex 7.878623e+01 -2.389127e+01 -9.361466e+02
      vertex 6.152686e+01 -3.742370e+01 -9.404466e+02
      vertex 7.112593e+01 -3.742370e+01 -9.404466e+02
    endloop
  endfacet
  facet normal -8.010187e-02 -2.663110e-01 9.605530e-01
    outer loop
      vertex 8.018494e+01 -2.463890e+01 -9.361466e+02
      vertex 7.112593e+01 -3.742370e+01 -9.404466e+02
      vertex 7.761752e+01 -3.937626e+01 -9.404466e+02
    endloop
  endfacet
  facet normal -1.256721e-01 -2.351160e-01 9.638086e-01
    outer loop
      vertex 8.018494e+01 -2.463890e+01 -9.361466e+02
      vertex 7.878623e+01 -2.389127e+01 -9.361466e+02
      vertex 7.112593e+01 -3.742370e+01 -9.404466e+02
    endloop
  endfacet
  facet normal 2.857198e-01 -3.139565e-01 9.054256e-01
    outer loop
      vertex 8.018494e+01 -2.463890e+01 -9.361466e+02
      vertex 7.761752e+01 -3.937626e+01 -9.404466e+02
      vertex 9.032407e+01 -2.781252e+01 -9.404466e+02
    endloop
  endfacet
  facet normal 2.527655e-01 -2.524470e-01 9.340129e-01
    outer loop
      vertex 8.459722e+01 -1.763729e+01 -9.361466e+02
      vertex 9.032407e+01 -2.781252e+01 -9.404466e+02
      vertex 9.992314e+01 -1.820134e+01 -9.404466e+02
    endloop
  endfacet
  facet normal 3.267431e-01 -2.059075e-01 9.224104e-01
    outer loop
      vertex 8.459722e+01 -1.763729e+01 -9.361466e+02
      vertex 8.018494e+01 -2.463890e+01 -9.361466e+02
      vertex 9.032407e+01 -2.781252e+01 -9.404466e+02
    endloop
  endfacet
  facet normal 2.701392e-01 0.000000e+00 9.628213e-01
    outer loop
      vertex 8.459722e+01 -1.763729e+01 -9.361466e+02
      vertex 9.992314e+01 -1.820134e+01 -9.404466e+02
      vertex 9.992314e+01 -8.590157e+00 -9.404466e+02
    endloop
  endfacet
  facet normal -9.878474e-01 -5.477275e-15 -1.554271e-01
    outer loop
      vertex 1.485000e+01 3.946575e+01 -9.408248e+02
      vertex 1.567443e+01 -5.664607e+01 -9.460646e+02
      vertex 1.485000e+01 -5.664607e+01 -9.408248e+02
    endloop
  endfacet
  facet normal -5.116128e-02 3.252355e-14 -9.986904e-01
    outer loop
      vertex 1.567443e+01 3.946575e+01 -9.460646e+02
      vertex 2.313057e+01 -5.664607e+01 -9.464466e+02
      vertex 1.567443e+01 -5.664607e+01 -9.460646e+02
    endloop
  endfacet
  facet normal -9.878474e-01 -5.533216e-15 -1.554271e-01
    outer loop
      vertex 1.485000e+01 3.946575e+01 -9.408248e+02
      vertex 1.567443e+01 3.946575e+01 -9.460646e+02
      vertex 1.567443e+01 -5.664607e+01 -9.460646e+02
    endloop
  endfacet
  facet normal -5.116128e-02 3.426180e-14 -9.986904e-01
    outer loop
      vertex 2.313057e+01 3.946575e+01 -9.464466e+02
      vertex 2.313057e+01 -5.664607e+01 -9.464466e+02
      vertex 1.567443e+01 3.946575e+01 -9.460646e+02
    endloop
  endfacet
  facet normal -1.315947e-16 3.430294e-14 -1.000000e+00
    outer loop
      vertex 1.095222e+02 -6.625725e+01 -9.464466e+02
      vertex 2.313057e+01 -5.664607e+01 -9.464466e+02
      vertex 2.313057e+01 3.946575e+01 -9.464466e+02
    endloop
  endfacet
  facet normal -9.654730e-01 2.116274e-01 -1.519067e-01
    outer loop
      vertex 1.634092e+01 4.626752e+01 -9.408248e+02
      vertex 1.567443e+01 3.946575e+01 -9.460646e+02
      vertex 1.485000e+01 3.946575e+01 -9.408248e+02
    endloop
  endfacet
  facet normal -5.109452e-02 5.106935e-02 -9.973872e-01
    outer loop
      vertex 2.313057e+01 4.692557e+01 -9.460646e+02
      vertex 2.313057e+01 3.946575e+01 -9.464466e+02
      vertex 1.567443e+01 3.946575e+01 -9.460646e+02
    endloop
  endfacet
  facet normal -9.802004e-01 1.718373e-01 -9.838217e-02
    outer loop
      vertex 1.677093e+01 4.583749e+01 -9.458603e+02
      vertex 1.567443e+01 3.946575e+01 -9.460646e+02
      vertex 1.634092e+01 4.626752e+01 -9.408248e+02
    endloop
  endfacet
  facet normal -3.870749e-02 3.868842e-02 -9.985013e-01
    outer loop
      vertex 2.313057e+01 4.692557e+01 -9.460646e+02
      vertex 1.567443e+01 3.946575e+01 -9.460646e+02
      vertex 1.677093e+01 4.583749e+01 -9.458603e+02
    endloop
  endfacet
  facet normal 3.610420e-15 5.113614e-02 -9.986917e-01
    outer loop
      vertex 1.095222e+02 4.692557e+01 -9.460646e+02
      vertex 2.313057e+01 3.946575e+01 -9.464466e+02
      vertex 2.313057e+01 4.692557e+01 -9.460646e+02
    endloop
  endfacet
  facet normal 1.315947e-15 3.548580e-14 -1.000000e+00
    outer loop
      vertex 1.095222e+02 3.946575e+01 -9.464466e+02
      vertex 1.095222e+02 -6.625725e+01 -9.464466e+02
      vertex 2.313057e+01 3.946575e+01 -9.464466e+02
    endloop
  endfacet
  facet normal 1.271756e-15 5.113614e-02 -9.986917e-01
    outer loop
      vertex 1.095222e+02 4.692557e+01 -9.460646e+02
      vertex 1.095222e+02 3.946575e+01 -9.464466e+02
      vertex 2.313057e+01 3.946575e+01 -9.464466e+02
    endloop
  endfacet
  facet normal -2.122241e-01 9.719740e-01 -1.011307e-01
    outer loop
      vertex 2.313057e+01 4.775000e+01 -9.408248e+02
      vertex 1.677093e+01 4.583749e+01 -9.458603e+02
      vertex 1.634092e+01 4.626752e+01 -9.408248e+02
    endloop
  endfacet
  facet normal -1.714307e-01 9.732234e-01 -1.531262e-01
    outer loop
      vertex 2.313057e+01 4.692557e+01 -9.460646e+02
      vertex 1.677093e+01 4.583749e+01 -9.458603e+02
      vertex 2.313057e+01 4.775000e+01 -9.408248e+02
    endloop
  endfacet
  facet normal -5.849797e-15 9.878474e-01 -1.554271e-01
    outer loop
      vertex 1.095222e+02 4.775000e+01 -9.408248e+02
      vertex 2.313057e+01 4.692557e+01 -9.460646e+02
      vertex 2.313057e+01 4.775000e+01 -9.408248e+02
    endloop
  endfacet
  facet normal -5.804957e-15 9.878474e-01 -1.554271e-01
    outer loop
      vertex 1.095222e+02 4.775000e+01 -9.408248e+02
      vertex 1.095222e+02 4.692557e+01 -9.460646e+02
      vertex 2.313057e+01 4.692557e+01 -9.460646e+02
    endloop
  endfacet
  facet normal 3.009884e-01 -9.506194e-01 -7.568838e-02
    outer loop
      vertex 1.129675e+02 -6.815916e+01 -9.408248e+02
      vertex 1.095222e+02 -6.925000e+01 -9.408248e+02
      vertex 1.095222e+02 -6.886803e+01 -9.456222e+02
    endloop
  endfacet
  facet normal 1.664388e-01 -2.969217e-01 -9.402849e-01
    outer loop
      vertex 1.140544e+02 -6.557514e+01 -9.458598e+02
      vertex 1.095222e+02 -6.886803e+01 -9.456222e+02
      vertex 1.095222e+02 -6.625725e+01 -9.464466e+02
    endloop
  endfacet
  facet normal 1.921729e-01 -3.311516e-01 -9.238010e-01
    outer loop
      vertex 1.140544e+02 -6.557514e+01 -9.458598e+02
      vertex 1.126998e+02 -6.817241e+01 -9.452105e+02
      vertex 1.095222e+02 -6.886803e+01 -9.456222e+02
    endloop
  endfacet
  facet normal 2.150991e-01 -9.765392e-01 -1.017665e-02
    outer loop
      vertex 1.129675e+02 -6.815916e+01 -9.408248e+02
      vertex 1.095222e+02 -6.886803e+01 -9.456222e+02
      vertex 1.126998e+02 -6.817241e+01 -9.452105e+02
    endloop
  endfacet
  facet normal 1.644234e-01 3.495902e-14 -9.863899e-01
    outer loop
      vertex 1.144680e+02 -5.664607e+01 -9.456222e+02
      vertex 1.095222e+02 -6.625725e+01 -9.464466e+02
      vertex 1.095222e+02 3.946575e+01 -9.464466e+02
    endloop
  endfacet
  facet normal 1.253362e-01 2.058664e-02 -9.919007e-01
    outer loop
      vertex 1.144680e+02 -5.664607e+01 -9.456222e+02
      vertex 1.140544e+02 -6.557514e+01 -9.458598e+02
      vertex 1.095222e+02 -6.625725e+01 -9.464466e+02
    endloop
  endfacet
  facet normal 1.011367e-01 5.087394e-02 -9.935709e-01
    outer loop
      vertex 1.134868e+02 4.539227e+01 -9.457396e+02
      vertex 1.095222e+02 3.946575e+01 -9.464466e+02
      vertex 1.095222e+02 4.692557e+01 -9.460646e+02
    endloop
  endfacet
  facet normal 1.644234e-01 3.475990e-14 -9.863899e-01
    outer loop
      vertex 1.144680e+02 3.946575e+01 -9.456222e+02
      vertex 1.144680e+02 -5.664607e+01 -9.456222e+02
      vertex 1.095222e+02 3.946575e+01 -9.464466e+02
    endloop
  endfacet
  facet normal 1.644186e-01 7.681211e-03 -9.863608e-01
    outer loop
      vertex 1.134868e+02 4.539227e+01 -9.457396e+02
      vertex 1.144680e+02 3.946575e+01 -9.456222e+02
      vertex 1.095222e+02 3.946575e+01 -9.464466e+02
    endloop
  endfacet
  facet normal 4.162892e-01 8.981827e-01 -1.413193e-01
    outer loop
      vertex 1.138311e+02 4.575291e+01 -9.408248e+02
      vertex 1.095222e+02 4.692557e+01 -9.460646e+02
      vertex 1.095222e+02 4.775000e+01 -9.408248e+02
    endloop
  endfacet
  facet normal 3.657965e-01 9.259786e-01 -9.357640e-02
    outer loop
      vertex 1.134868e+02 4.539227e+01 -9.457396e+02
      vertex 1.095222e+02 4.692557e+01 -9.460646e+02
      vertex 1.138311e+02 4.575291e+01 -9.408248e+02
    endloop
  endfacet
  facet normal -5.167224e-29 -1.783122e-14 1.000000e+00
    outer loop
      vertex 4.756404e+01 -1.773166e+01 -9.361466e+02
      vertex 4.511207e+01 -1.773166e+01 -9.361466e+02
      vertex 4.871959e+01 -2.410738e+01 -9.361466e+02
    endloop
  endfacet
  facet normal -5.723727e-15 -1.886860e-14 1.000000e+00
    outer loop
      vertex 4.756404e+01 -1.773166e+01 -9.361466e+02
      vertex 4.871959e+01 -2.410738e+01 -9.361466e+02
      vertex 5.023728e+01 -2.456777e+01 -9.361466e+02
    endloop
  endfacet
  facet normal 0.000000e+00 0.000000e+00 1.000000e+00
    outer loop
      vertex 4.703252e+01 -1.644846e+01 -9.361466e+02
      vertex 4.511207e+01 -1.773166e+01 -9.361466e+02
      vertex 4.756404e+01 -1.773166e+01 -9.361466e+02
    endloop
  endfacet
  facet normal 9.267104e-01 3.623878e-01 -9.941278e-02
    outer loop
      vertex 4.756404e+01 -1.773166e+01 -9.361466e+02
      vertex 5.023728e+01 -2.456777e+01 -9.361466e+02
      vertex 5.134190e+01 -2.870931e+01 -9.409466e+02
    endloop
  endfacet
  facet normal 8.227737e-01 3.510422e-02 5.672840e-01
    outer loop
      vertex 5.192779e+01 -1.820134e+01 -9.424466e+02
      vertex 4.756404e+01 -1.773166e+01 -9.361466e+02
      vertex 5.134190e+01 -2.870931e+01 -9.409466e+02
    endloop
  endfacet
  facet normal -1.046052e-16 1.413163e-01 9.899645e-01
    outer loop
      vertex 6.152686e+01 -1.820134e+01 -9.424466e+02
      vertex 5.192779e+01 -1.820134e+01 -9.424466e+02
      vertex 5.134190e+01 -2.870931e+01 -9.409466e+02
    endloop
  endfacet
  facet normal 1.457043e-01 -2.340474e-14 9.893282e-01
    outer loop
      vertex 6.152686e+01 -1.820134e+01 -9.424466e+02
      vertex 5.134190e+01 -2.870931e+01 -9.409466e+02
      vertex 6.152686e+01 -2.781252e+01 -9.424466e+02
    endloop
  endfacet
  facet normal 7.882272e-01 3.264944e-01 5.216313e-01
    outer loop
      vertex 4.703252e+01 -1.644846e+01 -9.361466e+02
      vertex 4.756404e+01 -1.773166e+01 -9.361466e+02
      vertex 5.192779e+01 -1.820134e+01 -9.424466e+02
    endloop
  endfacet
  facet normal 7.896396e-01 -1.593535e-14 6.135709e-01
    outer loop
      vertex 5.192779e+01 -8.590157e+00 -9.424466e+02
      vertex 4.703252e+01 -1.644846e+01 -9.361466e+02
      vertex 5.192779e+01 -1.820134e+01 -9.424466e+02
    endloop
  endfacet
  facet normal -1.970048e-29 -3.548580e-14 1.000000e+00
    outer loop
      vertex 8.072500e+01 -8.590157e+00 -9.424466e+02
      vertex 5.192779e+01 -8.590157e+00 -9.424466e+02
      vertex 5.192779e+01 -1.820134e+01 -9.424466e+02
    endloop
  endfacet
  facet normal 2.626731e-29 -3.548580e-14 1.000000e+00
    outer loop
      vertex 8.072500e+01 -8.590157e+00 -9.424466e+02
      vertex 5.192779e+01 -1.820134e+01 -9.424466e+02
      vertex 6.152686e+01 -1.820134e+01 -9.424466e+02
    endloop
  endfacet
  facet normal 1.970048e-29 -3.548580e-14 1.000000e+00
    outer loop
      vertex 6.152686e+01 1.021025e+00 -9.424466e+02
      vertex 5.192779e+01 1.021025e+00 -9.424466e+02
      vertex 5.192779e+01 -8.590157e+00 -9.424466e+02
    endloop
  endfacet
  facet normal -2.626731e-29 -3.548580e-14 1.000000e+00
    outer loop
      vertex 7.112593e+01 1.021025e+00 -9.424466e+02
      vertex 6.152686e+01 1.021025e+00 -9.424466e+02
      vertex 5.192779e+01 -8.590157e+00 -9.424466e+02
    endloop
  endfacet
  facet normal 1.313366e-29 -3.548580e-14 1.000000e+00
    outer loop
      vertex 8.072500e+01 1.021025e+00 -9.424466e+02
      vertex 7.112593e+01 1.021025e+00 -9.424466e+02
      vertex 5.192779e+01 -8.590157e+00 -9.424466e+02
    endloop
  endfacet
  facet normal -1.970048e-29 -3.548580e-14 1.000000e+00
    outer loop
      vertex 8.072500e+01 -8.590157e+00 -9.424466e+02
      vertex 8.072500e+01 1.021025e+00 -9.424466e+02
      vertex 5.192779e+01 -8.590157e+00 -9.424466e+02
    endloop
  endfacet
  facet normal 4.127897e-16 -7.026490e-01 7.115367e-01
    outer loop
      vertex 6.142913e+01 7.400713e+00 -9.361466e+02
      vertex 5.192779e+01 1.021025e+00 -9.424466e+02
      vertex 6.152686e+01 1.021025e+00 -9.424466e+02
    endloop
  endfacet
  facet normal 0.000000e+00 -2.365720e-14 1.000000e+00
    outer loop
      vertex 7.112593e+01 -1.820134e+01 -9.424466e+02
      vertex 6.152686e+01 -1.820134e+01 -9.424466e+02
      vertex 6.152686e+01 -2.781252e+01 -9.424466e+02
    endloop
  endfacet
  facet normal 1.184352e-14 -3.548580e-14 1.000000e+00
    outer loop
      vertex 7.112593e+01 -2.781252e+01 -9.424466e+02
      vertex 7.112593e+01 -1.820134e+01 -9.424466e+02
      vertex 6.152686e+01 -2.781252e+01 -9.424466e+02
    endloop
  endfacet
  facet normal -6.234454e-15 8.489810e-01 -5.284234e-01
    outer loop
      vertex 7.878623e+01 -2.389127e+01 -9.361466e+02
      vertex 7.112593e+01 -2.781252e+01 -9.424466e+02
      vertex 6.152686e+01 -2.781252e+01 -9.424466e+02
    endloop
  endfacet
  facet normal 0.000000e+00 -3.548580e-14 1.000000e+00
    outer loop
      vertex 7.112593e+01 -1.820134e+01 -9.424466e+02
      vertex 8.072500e+01 -8.590157e+00 -9.424466e+02
      vertex 6.152686e+01 -1.820134e+01 -9.424466e+02
    endloop
  endfacet
  facet normal -4.916218e-16 -6.973639e-01 7.167172e-01
    outer loop
      vertex 6.874922e+01 7.495863e+00 -9.361466e+02
      vertex 6.152686e+01 1.021025e+00 -9.424466e+02
      vertex 7.112593e+01 1.021025e+00 -9.424466e+02
    endloop
  endfacet
  facet normal 9.132116e-03 -7.025488e-01 7.115769e-01
    outer loop
      vertex 6.874922e+01 7.495863e+00 -9.361466e+02
      vertex 6.142913e+01 7.400713e+00 -9.361466e+02
      vertex 6.152686e+01 1.021025e+00 -9.424466e+02
    endloop
  endfacet
  facet normal -1.496686e-01 1.494800e-01 9.773715e-01
    outer loop
      vertex 8.214754e+01 -1.776982e+01 -9.408248e+02
      vertex 8.072500e+01 -8.590157e+00 -9.424466e+02
      vertex 7.112593e+01 -1.820134e+01 -9.424466e+02
    endloop
  endfacet
  facet normal -9.683868e-01 -1.105612e-01 2.236141e-01
    outer loop
      vertex 8.305772e+01 -1.628012e+01 -9.361466e+02
      vertex 8.072500e+01 -8.590157e+00 -9.424466e+02
      vertex 8.214754e+01 -1.776982e+01 -9.408248e+02
    endloop
  endfacet
  facet normal -6.295179e-01 -2.762820e-14 7.769860e-01
    outer loop
      vertex 7.890174e+01 -2.271845e+01 -9.361466e+02
      vertex 7.112593e+01 -1.820134e+01 -9.424466e+02
      vertex 7.112593e+01 -2.781252e+01 -9.424466e+02
    endloop
  endfacet
  facet normal -4.802564e-01 3.149991e-01 8.186143e-01
    outer loop
      vertex 8.214754e+01 -1.776982e+01 -9.361466e+02
      vertex 7.112593e+01 -1.820134e+01 -9.424466e+02
      vertex 7.890174e+01 -2.271845e+01 -9.361466e+02
    endloop
  endfacet
  facet normal -3.912242e-02 9.992344e-01 6.399941e-16
    outer loop
      vertex 8.214754e+01 -1.776982e+01 -9.408248e+02
      vertex 7.112593e+01 -1.820134e+01 -9.424466e+02
      vertex 8.214754e+01 -1.776982e+01 -9.361466e+02
    endloop
  endfacet
  facet normal -6.533239e-01 6.434677e-02 7.543390e-01
    outer loop
      vertex 7.890174e+01 -2.271845e+01 -9.361466e+02
      vertex 7.112593e+01 -2.781252e+01 -9.424466e+02
      vertex 7.878623e+01 -2.389127e+01 -9.361466e+02
    endloop
  endfacet
  facet normal -1.553285e-14 1.581768e-16 1.000000e+00
    outer loop
      vertex 6.874922e+01 7.495863e+00 -9.361466e+02
      vertex 6.145456e+01 9.898208e+00 -9.361466e+02
      vertex 6.142913e+01 7.400713e+00 -9.361466e+02
    endloop
  endfacet
  facet normal -1.416940e-14 4.298242e-15 1.000000e+00
    outer loop
      vertex 6.931021e+01 9.345176e+00 -9.361466e+02
      vertex 6.145456e+01 9.898208e+00 -9.361466e+02
      vertex 6.874922e+01 7.495863e+00 -9.361466e+02
    endloop
  endfacet
  facet normal -1.298435e-14 -2.429201e-14 1.000000e+00
    outer loop
      vertex 8.459722e+01 -1.763729e+01 -9.361466e+02
      vertex 7.878623e+01 -2.389127e+01 -9.361466e+02
      vertex 8.018494e+01 -2.463890e+01 -9.361466e+02
    endloop
  endfacet
  facet normal -4.376753e-14 4.310724e-15 1.000000e+00
    outer loop
      vertex 8.459722e+01 -1.763729e+01 -9.361466e+02
      vertex 7.890174e+01 -2.271845e+01 -9.361466e+02
      vertex 7.878623e+01 -2.389127e+01 -9.361466e+02
    endloop
  endfacet
  facet normal 2.577075e-15 -4.763703e-14 1.000000e+00
    outer loop
      vertex 8.459722e+01 -1.763729e+01 -9.361466e+02
      vertex 8.214754e+01 -1.776982e+01 -9.361466e+02
      vertex 7.890174e+01 -2.271845e+01 -9.361466e+02
    endloop
  endfacet
  facet normal -8.533279e-01 5.213747e-01 -2.202238e-15
    outer loop
      vertex 8.305772e+01 -1.628012e+01 -9.361466e+02
      vertex 8.214754e+01 -1.776982e+01 -9.408248e+02
      vertex 8.214754e+01 -1.776982e+01 -9.361466e+02
    endloop
  endfacet
  facet normal 8.725321e-01 -4.790462e-01 -9.592964e-02
    outer loop
      vertex 1.140544e+02 -6.557514e+01 -9.458598e+02
      vertex 1.147246e+02 -6.536260e+01 -9.408248e+02
      vertex 1.126998e+02 -6.817241e+01 -9.452105e+02
    endloop
  endfacet
  facet normal 8.456650e-01 -5.313663e-01 -5.000512e-02
    outer loop
      vertex 1.129675e+02 -6.815916e+01 -9.408248e+02
      vertex 1.126998e+02 -6.817241e+01 -9.452105e+02
      vertex 1.147246e+02 -6.536260e+01 -9.408248e+02
    endloop
  endfacet
  facet normal 9.912334e-01 -1.425562e-02 -1.313514e-01
    outer loop
      vertex 1.148500e+02 -5.664607e+01 -9.408248e+02
      vertex 1.147246e+02 -6.536260e+01 -9.408248e+02
      vertex 1.140544e+02 -6.557514e+01 -9.458598e+02
    endloop
  endfacet
  facet normal 9.958788e-01 -4.402495e-02 -7.929194e-02
    outer loop
      vertex 1.144680e+02 -5.664607e+01 -9.456222e+02
      vertex 1.148500e+02 -5.664607e+01 -9.408248e+02
      vertex 1.140544e+02 -6.557514e+01 -9.458598e+02
    endloop
  endfacet
  facet normal 9.968453e-01 8.323447e-15 -7.936889e-02
    outer loop
      vertex 1.144680e+02 3.946575e+01 -9.456222e+02
      vertex 1.148500e+02 -5.664607e+01 -9.408248e+02
      vertex 1.144680e+02 -5.664607e+01 -9.456222e+02
    endloop
  endfacet
  facet normal 9.968453e-01 8.401291e-15 -7.936889e-02
    outer loop
      vertex 1.148500e+02 3.946575e+01 -9.408248e+02
      vertex 1.148500e+02 -5.664607e+01 -9.408248e+02
      vertex 1.144680e+02 3.946575e+01 -9.456222e+02
    endloop
  endfacet
  facet normal 9.840873e-01 1.594773e-01 -7.835310e-02
    outer loop
      vertex 1.138311e+02 4.575291e+01 -9.408248e+02
      vertex 1.148500e+02 3.946575e+01 -9.408248e+02
      vertex 1.144680e+02 3.946575e+01 -9.456222e+02
    endloop
  endfacet
  facet normal 9.836034e-01 1.612569e-01 -8.074958e-02
    outer loop
      vertex 1.134868e+02 4.539227e+01 -9.457396e+02
      vertex 1.138311e+02 4.575291e+01 -9.408248e+02
      vertex 1.144680e+02 3.946575e+01 -9.456222e+02
    endloop
  endfacet
endsolid SIM_ICUB3_R_FOOT_REAR
