solid SIM_ICUB3_L_FOOT_REAR
  facet normal -9.647089e-01 -2.587521e-01 4.882761e-02
    outer loop
      vertex -1.122493e+02 -6.853028e+01 -9.404466e+02
      vertex -1.147500e+02 -5.920679e+01 -9.404466e+02
      vertex -1.125998e+02 -6.812241e+01 -9.452105e+02
    endloop
  endfacet
  facet normal -9.781020e-01 -1.860905e-01 -9.320276e-02
    outer loop
      vertex -1.142420e+02 -5.920679e+01 -9.457778e+02
      vertex -1.125998e+02 -6.812241e+01 -9.452105e+02
      vertex -1.147500e+02 -5.920679e+01 -9.404466e+02
    endloop
  endfacet
  facet normal -4.077608e-02 -9.957769e-01 -8.225424e-02
    outer loop
      vertex -9.589422e+01 -6.920000e+01 -9.404466e+02
      vertex -1.122493e+02 -6.853028e+01 -9.404466e+02
      vertex -1.125998e+02 -6.812241e+01 -9.452105e+02
    endloop
  endfacet
  facet normal -3.633629e-02 -7.012465e-02 -9.968762e-01
    outer loop
      vertex -9.589422e+01 -5.920679e+01 -9.464466e+02
      vertex -1.125998e+02 -6.812241e+01 -9.452105e+02
      vertex -1.142420e+02 -5.920679e+01 -9.457778e+02
    endloop
  endfacet
  facet normal -5.414632e-02 -9.978894e-01 -3.584681e-02
    outer loop
      vertex -9.589422e+01 -6.902709e+01 -9.452601e+02
      vertex -9.589422e+01 -6.920000e+01 -9.404466e+02
      vertex -1.125998e+02 -6.812241e+01 -9.452105e+02
    endloop
  endfacet
  facet normal -9.440598e-03 -1.199462e-01 -9.927355e-01
    outer loop
      vertex -9.589422e+01 -5.920679e+01 -9.464466e+02
      vertex -9.589422e+01 -6.902709e+01 -9.452601e+02
      vertex -1.125998e+02 -6.812241e+01 -9.452105e+02
    endloop
  endfacet
  facet normal 6.029282e-15 1.617161e-15 1.000000e+00
    outer loop
      vertex -9.589422e+01 -5.920679e+01 -9.404466e+02
      vertex -1.147500e+02 -5.920679e+01 -9.404466e+02
      vertex -1.122493e+02 -6.853028e+01 -9.404466e+02
    endloop
  endfacet
  facet normal -9.954907e-01 -3.262584e-15 -9.485971e-02
    outer loop
      vertex -1.147500e+02 2.914852e+01 -9.404466e+02
      vertex -1.142420e+02 -5.920679e+01 -9.457778e+02
      vertex -1.147500e+02 -5.920679e+01 -9.404466e+02
    endloop
  endfacet
  facet normal 1.004880e-14 -1.286701e-14 1.000000e+00
    outer loop
      vertex -9.589422e+01 -3.032517e-01 -9.404466e+02
      vertex -1.147500e+02 2.914852e+01 -9.404466e+02
      vertex -1.147500e+02 -5.920679e+01 -9.404466e+02
    endloop
  endfacet
  facet normal 6.029282e-15 -1.158031e-14 1.000000e+00
    outer loop
      vertex -9.589422e+01 -2.975502e+01 -9.404466e+02
      vertex -9.589422e+01 -3.032517e-01 -9.404466e+02
      vertex -1.147500e+02 -5.920679e+01 -9.404466e+02
    endloop
  endfacet
  facet normal 6.029282e-15 -1.158031e-14 1.000000e+00
    outer loop
      vertex -9.589422e+01 -5.920679e+01 -9.404466e+02
      vertex -9.589422e+01 -2.975502e+01 -9.404466e+02
      vertex -1.147500e+02 -5.920679e+01 -9.404466e+02
    endloop
  endfacet
  facet normal 1.326900e-14 -1.546681e-14 1.000000e+00
    outer loop
      vertex -1.863739e+01 -6.907464e+01 -9.404466e+02
      vertex -1.122493e+02 -6.853028e+01 -9.404466e+02
      vertex -9.589422e+01 -6.920000e+01 -9.404466e+02
    endloop
  endfacet
  facet normal 1.244444e-14 -9.636172e-15 1.000000e+00
    outer loop
      vertex -6.848756e+01 -5.920679e+01 -9.404466e+02
      vertex -9.589422e+01 -5.920679e+01 -9.404466e+02
      vertex -1.122493e+02 -6.853028e+01 -9.404466e+02
    endloop
  endfacet
  facet normal 1.244444e-14 -9.636172e-15 1.000000e+00
    outer loop
      vertex -4.108090e+01 -5.920679e+01 -9.404466e+02
      vertex -6.848756e+01 -5.920679e+01 -9.404466e+02
      vertex -1.122493e+02 -6.853028e+01 -9.404466e+02
    endloop
  endfacet
  facet normal 1.727048e-14 -4.647446e-14 1.000000e+00
    outer loop
      vertex -1.475000e+01 -5.920679e+01 -9.404466e+02
      vertex -4.108090e+01 -5.920679e+01 -9.404466e+02
      vertex -1.122493e+02 -6.853028e+01 -9.404466e+02
    endloop
  endfacet
  facet normal 1.332840e-14 -5.250662e-15 1.000000e+00
    outer loop
      vertex -1.863739e+01 -6.907464e+01 -9.404466e+02
      vertex -1.475000e+01 -5.920679e+01 -9.404466e+02
      vertex -1.122493e+02 -6.853028e+01 -9.404466e+02
    endloop
  endfacet
  facet normal -3.642596e-02 -4.015724e-15 -9.993364e-01
    outer loop
      vertex -1.142420e+02 2.914852e+01 -9.457778e+02
      vertex -9.589422e+01 -5.920679e+01 -9.464466e+02
      vertex -1.142420e+02 -5.920679e+01 -9.457778e+02
    endloop
  endfacet
  facet normal -9.954907e-01 -4.689201e-15 -9.485971e-02
    outer loop
      vertex -1.142420e+02 2.914852e+01 -9.457778e+02
      vertex -1.142420e+02 -5.920679e+01 -9.457778e+02
      vertex -1.147500e+02 2.914852e+01 -9.404466e+02
    endloop
  endfacet
  facet normal 4.440283e-15 -9.993554e-01 -3.589947e-02
    outer loop
      vertex -4.108090e+01 -6.902709e+01 -9.452601e+02
      vertex -9.589422e+01 -6.920000e+01 -9.404466e+02
      vertex -9.589422e+01 -6.902709e+01 -9.452601e+02
    endloop
  endfacet
  facet normal 1.244444e-14 4.926952e-13 1.000000e+00
    outer loop
      vertex -4.108090e+01 -6.920000e+01 -9.404466e+02
      vertex -1.863739e+01 -6.907464e+01 -9.404466e+02
      vertex -9.589422e+01 -6.920000e+01 -9.404466e+02
    endloop
  endfacet
  facet normal 3.957924e-15 -9.993554e-01 -3.589947e-02
    outer loop
      vertex -4.108090e+01 -6.902709e+01 -9.452601e+02
      vertex -4.108090e+01 -6.920000e+01 -9.404466e+02
      vertex -9.589422e+01 -6.920000e+01 -9.404466e+02
    endloop
  endfacet
  facet normal -4.071549e-15 -1.199515e-01 -9.927797e-01
    outer loop
      vertex -4.108090e+01 -5.920679e+01 -9.464466e+02
      vertex -9.589422e+01 -6.902709e+01 -9.452601e+02
      vertex -9.589422e+01 -5.920679e+01 -9.464466e+02
    endloop
  endfacet
  facet normal -5.615433e-15 -1.199515e-01 -9.927797e-01
    outer loop
      vertex -4.108090e+01 -5.920679e+01 -9.464466e+02
      vertex -4.108090e+01 -6.902709e+01 -9.452601e+02
      vertex -9.589422e+01 -6.902709e+01 -9.452601e+02
    endloop
  endfacet
  facet normal -3.642596e-02 -3.875116e-15 -9.993364e-01
    outer loop
      vertex -9.589422e+01 2.914852e+01 -9.464466e+02
      vertex -9.589422e+01 -5.920679e+01 -9.464466e+02
      vertex -1.142420e+02 2.914852e+01 -9.457778e+02
    endloop
  endfacet
  facet normal -4.148147e-15 -3.860102e-15 -1.000000e+00
    outer loop
      vertex -4.108090e+01 -5.920679e+01 -9.464466e+02
      vertex -9.589422e+01 -5.920679e+01 -9.464466e+02
      vertex -9.589422e+01 2.914852e+01 -9.464466e+02
    endloop
  endfacet
  facet normal 1.448017e-14 -1.448790e-14 1.000000e+00
    outer loop
      vertex -1.792273e+01 4.745389e+01 -9.404466e+02
      vertex -1.129758e+02 4.661583e+01 -9.404466e+02
      vertex -1.147500e+02 2.914852e+01 -9.404466e+02
    endloop
  endfacet
  facet normal -9.904402e-01 1.006028e-01 -9.437846e-02
    outer loop
      vertex -1.142420e+02 2.914852e+01 -9.457778e+02
      vertex -1.147500e+02 2.914852e+01 -9.404466e+02
      vertex -1.129758e+02 4.661583e+01 -9.404466e+02
    endloop
  endfacet
  facet normal 1.228716e-14 -2.887906e-15 1.000000e+00
    outer loop
      vertex -6.848756e+01 2.914852e+01 -9.404466e+02
      vertex -1.792273e+01 4.745389e+01 -9.404466e+02
      vertex -1.147500e+02 2.914852e+01 -9.404466e+02
    endloop
  endfacet
  facet normal 1.228716e-14 -1.143395e-14 1.000000e+00
    outer loop
      vertex -9.589422e+01 -3.032517e-01 -9.404466e+02
      vertex -6.848756e+01 2.914852e+01 -9.404466e+02
      vertex -1.147500e+02 2.914852e+01 -9.404466e+02
    endloop
  endfacet
  facet normal 1.451851e-14 -1.741742e-14 1.000000e+00
    outer loop
      vertex -4.108090e+01 4.780000e+01 -9.404466e+02
      vertex -9.589422e+01 4.780000e+01 -9.404466e+02
      vertex -1.129758e+02 4.661583e+01 -9.404466e+02
    endloop
  endfacet
  facet normal -6.914880e-02 9.974639e-01 1.685769e-02
    outer loop
      vertex -1.125998e+02 4.672241e+01 -9.452105e+02
      vertex -1.129758e+02 4.661583e+01 -9.404466e+02
      vertex -9.589422e+01 4.780000e+01 -9.404466e+02
    endloop
  endfacet
  facet normal 1.449157e-14 -1.578169e-14 1.000000e+00
    outer loop
      vertex -1.792273e+01 4.745389e+01 -9.404466e+02
      vertex -4.108090e+01 4.780000e+01 -9.404466e+02
      vertex -1.129758e+02 4.661583e+01 -9.404466e+02
    endloop
  endfacet
  facet normal -9.925363e-01 9.520791e-02 -7.620487e-02
    outer loop
      vertex -1.125998e+02 4.672241e+01 -9.452105e+02
      vertex -1.142420e+02 2.914852e+01 -9.457778e+02
      vertex -1.129758e+02 4.661583e+01 -9.404466e+02
    endloop
  endfacet
  facet normal -5.464048e-15 9.972877e-01 -7.360148e-02
    outer loop
      vertex -9.589422e+01 4.741803e+01 -9.456222e+02
      vertex -9.589422e+01 4.780000e+01 -9.404466e+02
      vertex -4.108090e+01 4.780000e+01 -9.404466e+02
    endloop
  endfacet
  facet normal -4.330062e-02 9.963524e-01 -7.353245e-02
    outer loop
      vertex -9.589422e+01 4.741803e+01 -9.456222e+02
      vertex -1.125998e+02 4.672241e+01 -9.452105e+02
      vertex -9.589422e+01 4.780000e+01 -9.404466e+02
    endloop
  endfacet
  facet normal 1.490310e-02 9.971770e-01 -7.359331e-02
    outer loop
      vertex -4.108090e+01 4.741803e+01 -9.456222e+02
      vertex -4.108090e+01 4.780000e+01 -9.404466e+02
      vertex -1.792273e+01 4.745389e+01 -9.404466e+02
    endloop
  endfacet
  facet normal -4.724139e-15 9.972877e-01 -7.360148e-02
    outer loop
      vertex -4.108090e+01 4.741803e+01 -9.456222e+02
      vertex -9.589422e+01 4.741803e+01 -9.456222e+02
      vertex -4.108090e+01 4.780000e+01 -9.404466e+02
    endloop
  endfacet
  facet normal 1.295286e-14 -1.017612e-14 1.000000e+00
    outer loop
      vertex -4.108090e+01 2.914852e+01 -9.404466e+02
      vertex -1.475000e+01 2.914852e+01 -9.404466e+02
      vertex -1.792273e+01 4.745389e+01 -9.404466e+02
    endloop
  endfacet
  facet normal 9.600901e-01 1.664050e-01 -2.248028e-01
    outer loop
      vertex -1.613197e+01 2.914852e+01 -9.463487e+02
      vertex -1.792273e+01 4.745389e+01 -9.404466e+02
      vertex -1.475000e+01 2.914852e+01 -9.404466e+02
    endloop
  endfacet
  facet normal 1.659259e-14 -1.478075e-14 1.000000e+00
    outer loop
      vertex -6.848756e+01 2.914852e+01 -9.404466e+02
      vertex -4.108090e+01 2.914852e+01 -9.404466e+02
      vertex -1.792273e+01 4.745389e+01 -9.404466e+02
    endloop
  endfacet
  facet normal 4.679664e-04 9.999592e-01 -9.022357e-03
    outer loop
      vertex -1.825177e+01 4.741106e+01 -9.452105e+02
      vertex -4.108090e+01 4.741803e+01 -9.456222e+02
      vertex -1.792273e+01 4.745389e+01 -9.404466e+02
    endloop
  endfacet
  facet normal 9.904249e-01 1.192930e-01 -6.948129e-02
    outer loop
      vertex -1.825177e+01 4.741106e+01 -9.452105e+02
      vertex -1.792273e+01 4.745389e+01 -9.404466e+02
      vertex -1.613197e+01 2.914852e+01 -9.463487e+02
    endloop
  endfacet
  facet normal 1.295286e-14 -1.158031e-14 1.000000e+00
    outer loop
      vertex -4.108090e+01 -3.032517e-01 -9.404466e+02
      vertex -1.475000e+01 -3.032517e-01 -9.404466e+02
      vertex -1.475000e+01 2.914852e+01 -9.404466e+02
    endloop
  endfacet
  facet normal 9.736655e-01 6.865468e-15 -2.279814e-01
    outer loop
      vertex -1.613197e+01 2.914852e+01 -9.463487e+02
      vertex -1.475000e+01 2.914852e+01 -9.404466e+02
      vertex -1.475000e+01 -3.032517e-01 -9.404466e+02
    endloop
  endfacet
  facet normal 1.295286e-14 -1.158031e-14 1.000000e+00
    outer loop
      vertex -4.108090e+01 2.914852e+01 -9.404466e+02
      vertex -4.108090e+01 -3.032517e-01 -9.404466e+02
      vertex -1.475000e+01 2.914852e+01 -9.404466e+02
    endloop
  endfacet
  facet normal 1.284289e-14 1.776456e-01 9.840945e-01
    outer loop
      vertex -4.866719e+01 -2.412375e+01 -9.361466e+02
      vertex -1.475000e+01 -3.032517e-01 -9.404466e+02
      vertex -4.108090e+01 -3.032517e-01 -9.404466e+02
    endloop
  endfacet
  facet normal 1.257726e-01 -1.086719e-14 9.920591e-01
    outer loop
      vertex -4.866719e+01 -2.412375e+01 -9.361466e+02
      vertex -1.475000e+01 -2.975502e+01 -9.404466e+02
      vertex -1.475000e+01 -3.032517e-01 -9.404466e+02
    endloop
  endfacet
  facet normal 9.736655e-01 7.333116e-15 -2.279814e-01
    outer loop
      vertex -1.613197e+01 2.914852e+01 -9.463487e+02
      vertex -1.475000e+01 -3.032517e-01 -9.404466e+02
      vertex -1.475000e+01 -2.975502e+01 -9.404466e+02
    endloop
  endfacet
  facet normal 1.564544e-01 -1.137635e-14 9.876852e-01
    outer loop
      vertex -6.822649e+01 7.452585e+00 -9.361466e+02
      vertex -4.108090e+01 -3.032517e-01 -9.404466e+02
      vertex -4.108090e+01 2.914852e+01 -9.404466e+02
    endloop
  endfacet
  facet normal 1.429170e-01 -4.787511e-02 9.885761e-01
    outer loop
      vertex -6.822649e+01 7.452585e+00 -9.361466e+02
      vertex -7.875863e+01 -2.398800e+01 -9.361466e+02
      vertex -4.108090e+01 -3.032517e-01 -9.404466e+02
    endloop
  endfacet
  facet normal 8.003106e-04 1.773987e-01 9.841387e-01
    outer loop
      vertex -4.866719e+01 -2.412375e+01 -9.361466e+02
      vertex -4.108090e+01 -3.032517e-01 -9.404466e+02
      vertex -7.875863e+01 -2.398800e+01 -9.361466e+02
    endloop
  endfacet
  facet normal 1.626967e-14 1.944123e-01 9.809199e-01
    outer loop
      vertex -6.822649e+01 7.452585e+00 -9.361466e+02
      vertex -4.108090e+01 2.914852e+01 -9.404466e+02
      vertex -6.848756e+01 2.914852e+01 -9.404466e+02
    endloop
  endfacet
  facet normal -2.020936e-01 1.880604e-01 9.611407e-01
    outer loop
      vertex -6.822649e+01 7.452585e+00 -9.361466e+02
      vertex -6.848756e+01 2.914852e+01 -9.404466e+02
      vertex -9.589422e+01 -3.032517e-01 -9.404466e+02
    endloop
  endfacet
  facet normal -1.535721e-01 -1.099445e-14 9.881374e-01
    outer loop
      vertex -6.822649e+01 7.452585e+00 -9.361466e+02
      vertex -9.589422e+01 -3.032517e-01 -9.404466e+02
      vertex -9.589422e+01 -2.975502e+01 -9.404466e+02
    endloop
  endfacet
  facet normal -2.433934e-01 -1.168942e-14 9.699276e-01
    outer loop
      vertex -7.875863e+01 -2.398800e+01 -9.361466e+02
      vertex -9.589422e+01 -2.975502e+01 -9.404466e+02
      vertex -9.589422e+01 -5.920679e+01 -9.404466e+02
    endloop
  endfacet
  facet normal -2.710263e-01 9.078987e-02 9.582807e-01
    outer loop
      vertex -6.822649e+01 7.452585e+00 -9.361466e+02
      vertex -9.589422e+01 -2.975502e+01 -9.404466e+02
      vertex -7.875863e+01 -2.398800e+01 -9.361466e+02
    endloop
  endfacet
  facet normal 1.233443e-14 -1.211939e-01 9.926288e-01
    outer loop
      vertex -7.875863e+01 -2.398800e+01 -9.361466e+02
      vertex -9.589422e+01 -5.920679e+01 -9.404466e+02
      vertex -6.848756e+01 -5.920679e+01 -9.404466e+02
    endloop
  endfacet
  facet normal 1.235211e-14 -1.216560e-01 9.925723e-01
    outer loop
      vertex -4.866719e+01 -2.412375e+01 -9.361466e+02
      vertex -6.848756e+01 -5.920679e+01 -9.404466e+02
      vertex -4.108090e+01 -5.920679e+01 -9.404466e+02
    endloop
  endfacet
  facet normal -5.474601e-04 -1.213512e-01 9.926095e-01
    outer loop
      vertex -4.866719e+01 -2.412375e+01 -9.361466e+02
      vertex -7.875863e+01 -2.398800e+01 -9.361466e+02
      vertex -6.848756e+01 -5.920679e+01 -9.404466e+02
    endloop
  endfacet
  facet normal 1.727048e-14 -1.158031e-14 1.000000e+00
    outer loop
      vertex -1.475000e+01 -5.920679e+01 -9.404466e+02
      vertex -1.475000e+01 -2.975502e+01 -9.404466e+02
      vertex -4.108090e+01 -5.920679e+01 -9.404466e+02
    endloop
  endfacet
  facet normal 1.092023e-01 -9.763061e-02 9.892134e-01
    outer loop
      vertex -4.866719e+01 -2.412375e+01 -9.361466e+02
      vertex -4.108090e+01 -5.920679e+01 -9.404466e+02
      vertex -1.475000e+01 -2.975502e+01 -9.404466e+02
    endloop
  endfacet
  facet normal 9.736655e-01 7.343066e-15 -2.279814e-01
    outer loop
      vertex -1.613197e+01 2.914852e+01 -9.463487e+02
      vertex -1.475000e+01 -2.975502e+01 -9.404466e+02
      vertex -1.475000e+01 -5.920679e+01 -9.404466e+02
    endloop
  endfacet
  facet normal 9.290008e-01 -3.659755e-01 5.495006e-02
    outer loop
      vertex -1.825177e+01 -6.881106e+01 -9.452105e+02
      vertex -1.475000e+01 -5.920679e+01 -9.404466e+02
      vertex -1.863739e+01 -6.907464e+01 -9.404466e+02
    endloop
  endfacet
  facet normal 9.463659e-01 -2.351377e-01 -2.215893e-01
    outer loop
      vertex -1.613197e+01 -5.920679e+01 -9.463487e+02
      vertex -1.475000e+01 -5.920679e+01 -9.404466e+02
      vertex -1.825177e+01 -6.881106e+01 -9.452105e+02
    endloop
  endfacet
  facet normal 9.736655e-01 3.583126e-15 -2.279814e-01
    outer loop
      vertex -1.613197e+01 2.914852e+01 -9.463487e+02
      vertex -1.475000e+01 -5.920679e+01 -9.404466e+02
      vertex -1.613197e+01 -5.920679e+01 -9.463487e+02
    endloop
  endfacet
  facet normal 5.581828e-03 -9.993398e-01 -3.589891e-02
    outer loop
      vertex -4.108090e+01 -6.902709e+01 -9.452601e+02
      vertex -1.863739e+01 -6.907464e+01 -9.404466e+02
      vertex -4.108090e+01 -6.920000e+01 -9.404466e+02
    endloop
  endfacet
  facet normal 9.566509e-03 -9.984696e-01 -5.446946e-02
    outer loop
      vertex -1.825177e+01 -6.881106e+01 -9.452105e+02
      vertex -1.863739e+01 -6.907464e+01 -9.404466e+02
      vertex -4.108090e+01 -6.902709e+01 -9.452601e+02
    endloop
  endfacet
  facet normal -3.638898e-02 4.505023e-02 -9.983218e-01
    outer loop
      vertex -9.589422e+01 4.741803e+01 -9.456222e+02
      vertex -9.589422e+01 2.914852e+01 -9.464466e+02
      vertex -1.142420e+02 2.914852e+01 -9.457778e+02
    endloop
  endfacet
  facet normal -2.606293e-02 3.468622e-02 -9.990584e-01
    outer loop
      vertex -9.589422e+01 4.741803e+01 -9.456222e+02
      vertex -1.142420e+02 2.914852e+01 -9.457778e+02
      vertex -1.125998e+02 4.672241e+01 -9.452105e+02
    endloop
  endfacet
  facet normal -6.408737e-15 4.508009e-02 -9.989834e-01
    outer loop
      vertex -4.108090e+01 4.741803e+01 -9.456222e+02
      vertex -9.589422e+01 2.914852e+01 -9.464466e+02
      vertex -9.589422e+01 4.741803e+01 -9.456222e+02
    endloop
  endfacet
  facet normal -8.296294e-15 -6.433504e-15 -1.000000e+00
    outer loop
      vertex -4.108090e+01 2.914852e+01 -9.464466e+02
      vertex -4.108090e+01 -5.920679e+01 -9.464466e+02
      vertex -9.589422e+01 2.914852e+01 -9.464466e+02
    endloop
  endfacet
  facet normal -8.346344e-15 4.508009e-02 -9.989834e-01
    outer loop
      vertex -4.108090e+01 4.741803e+01 -9.456222e+02
      vertex -4.108090e+01 2.914852e+01 -9.464466e+02
      vertex -9.589422e+01 2.914852e+01 -9.464466e+02
    endloop
  endfacet
  facet normal 3.895134e-03 -1.199506e-01 -9.927722e-01
    outer loop
      vertex -1.613197e+01 -5.920679e+01 -9.463487e+02
      vertex -4.108090e+01 -6.902709e+01 -9.452601e+02
      vertex -4.108090e+01 -5.920679e+01 -9.464466e+02
    endloop
  endfacet
  facet normal 3.275912e-03 -1.183984e-01 -9.929608e-01
    outer loop
      vertex -1.613197e+01 -5.920679e+01 -9.463487e+02
      vertex -1.825177e+01 -6.881106e+01 -9.452105e+02
      vertex -4.108090e+01 -6.902709e+01 -9.452601e+02
    endloop
  endfacet
  facet normal 3.923462e-03 -6.431512e-15 -9.999923e-01
    outer loop
      vertex -1.613197e+01 -5.920679e+01 -9.463487e+02
      vertex -4.108090e+01 -5.920679e+01 -9.464466e+02
      vertex -4.108090e+01 2.914852e+01 -9.464466e+02
    endloop
  endfacet
  facet normal 1.802451e-02 4.507276e-02 -9.988211e-01
    outer loop
      vertex -1.825177e+01 4.741106e+01 -9.452105e+02
      vertex -4.108090e+01 2.914852e+01 -9.464466e+02
      vertex -4.108090e+01 4.741803e+01 -9.456222e+02
    endloop
  endfacet
  facet normal 3.923462e-03 -3.842088e-15 -9.999923e-01
    outer loop
      vertex -1.613197e+01 2.914852e+01 -9.463487e+02
      vertex -1.613197e+01 -5.920679e+01 -9.463487e+02
      vertex -4.108090e+01 2.914852e+01 -9.464466e+02
    endloop
  endfacet
  facet normal 3.915753e-03 6.265573e-02 -9.980275e-01
    outer loop
      vertex -1.825177e+01 4.741106e+01 -9.452105e+02
      vertex -1.613197e+01 2.914852e+01 -9.463487e+02
      vertex -4.108090e+01 2.914852e+01 -9.464466e+02
    endloop
  endfacet
endsolid SIM_ICUB3_L_FOOT_REAR
