solid SIM_ICUB3_R_FOOT_FRONT
  facet normal -6.668108e-01 -7.449700e-01 -1.957376e-02
    outer loop
      vertex 1.768058e+01 5.049516e+01 -9.404466e+02
      vertex 1.569700e+01 5.227063e+01 -9.404466e+02
      vertex 1.747685e+01 5.079970e+01 -9.450970e+02
    endloop
  endfacet
  facet normal -7.326994e-01 -6.773262e-01 -6.618735e-02
    outer loop
      vertex 1.613438e+01 5.230044e+01 -9.455935e+02
      vertex 1.747685e+01 5.079970e+01 -9.450970e+02
      vertex 1.569700e+01 5.227063e+01 -9.404466e+02
    endloop
  endfacet
  facet normal -1.416522e-01 -9.881860e-01 -5.850758e-02
    outer loop
      vertex 2.113486e+01 5.000000e+01 -9.404466e+02
      vertex 1.768058e+01 5.049516e+01 -9.404466e+02
      vertex 1.747685e+01 5.079970e+01 -9.450970e+02
    endloop
  endfacet
  facet normal -2.161206e-01 -4.754708e-01 -8.527716e-01
    outer loop
      vertex 2.113486e+01 5.138197e+01 -9.463487e+02
      vertex 1.747685e+01 5.079970e+01 -9.450970e+02
      vertex 1.613438e+01 5.230044e+01 -9.455935e+02
    endloop
  endfacet
  facet normal -1.882013e-01 -9.819099e-01 -2.081284e-02
    outer loop
      vertex 2.113486e+01 5.009789e+01 -9.450646e+02
      vertex 2.113486e+01 5.000000e+01 -9.404466e+02
      vertex 1.747685e+01 5.079970e+01 -9.450970e+02
    endloop
  endfacet
  facet normal -1.283354e-01 -7.012592e-01 -7.012600e-01
    outer loop
      vertex 2.113486e+01 5.138197e+01 -9.463487e+02
      vertex 2.113486e+01 5.009789e+01 -9.450646e+02
      vertex 1.747685e+01 5.079970e+01 -9.450970e+02
    endloop
  endfacet
  facet normal 0.000000e+00 0.000000e+00 1.000000e+00
    outer loop
      vertex 1.140030e+02 5.227063e+01 -9.404466e+02
      vertex 1.569700e+01 5.227063e+01 -9.404466e+02
      vertex 1.768058e+01 5.049516e+01 -9.404466e+02
    endloop
  endfacet
  facet normal -9.874353e-01 -1.334177e-01 -8.468368e-02
    outer loop
      vertex 1.485000e+01 5.853933e+01 -9.404466e+02
      vertex 1.613438e+01 5.230044e+01 -9.455935e+02
      vertex 1.569700e+01 5.227063e+01 -9.404466e+02
    endloop
  endfacet
  facet normal 0.000000e+00 0.000000e+00 1.000000e+00
    outer loop
      vertex 1.148500e+02 5.853933e+01 -9.404466e+02
      vertex 1.485000e+01 5.853933e+01 -9.404466e+02
      vertex 1.569700e+01 5.227063e+01 -9.404466e+02
    endloop
  endfacet
  facet normal 0.000000e+00 0.000000e+00 1.000000e+00
    outer loop
      vertex 1.140030e+02 5.227063e+01 -9.404466e+02
      vertex 1.148500e+02 5.853933e+01 -9.404466e+02
      vertex 1.569700e+01 5.227063e+01 -9.404466e+02
    endloop
  endfacet
  facet normal 0.000000e+00 0.000000e+00 1.000000e+00
    outer loop
      vertex 1.120194e+02 5.049516e+01 -9.404466e+02
      vertex 1.768058e+01 5.049516e+01 -9.404466e+02
      vertex 2.113486e+01 5.000000e+01 -9.404466e+02
    endloop
  endfacet
  facet normal 0.000000e+00 0.000000e+00 1.000000e+00
    outer loop
      vertex 1.120194e+02 5.049516e+01 -9.404466e+02
      vertex 1.140030e+02 5.227063e+01 -9.404466e+02
      vertex 1.768058e+01 5.049516e+01 -9.404466e+02
    endloop
  endfacet
  facet normal -1.517416e-01 -1.351676e-02 -9.883278e-01
    outer loop
      vertex 2.113486e+01 5.853933e+01 -9.464466e+02
      vertex 2.113486e+01 5.138197e+01 -9.463487e+02
      vertex 1.613438e+01 5.230044e+01 -9.455935e+02
    endloop
  endfacet
  facet normal -9.876211e-01 -1.226639e-01 -9.776535e-02
    outer loop
      vertex 1.537666e+01 5.853933e+01 -9.457669e+02
      vertex 1.613438e+01 5.230044e+01 -9.455935e+02
      vertex 1.485000e+01 5.853933e+01 -9.404466e+02
    endloop
  endfacet
  facet normal -1.171306e-01 -4.179206e-02 -9.922368e-01
    outer loop
      vertex 2.113486e+01 5.853933e+01 -9.464466e+02
      vertex 1.613438e+01 5.230044e+01 -9.455935e+02
      vertex 1.537666e+01 5.853933e+01 -9.457669e+02
    endloop
  endfacet
  facet normal 4.904054e-15 -9.997754e-01 -2.119152e-02
    outer loop
      vertex 1.085651e+02 5.009789e+01 -9.450646e+02
      vertex 2.113486e+01 5.000000e+01 -9.404466e+02
      vertex 2.113486e+01 5.009789e+01 -9.450646e+02
    endloop
  endfacet
  facet normal 0.000000e+00 0.000000e+00 1.000000e+00
    outer loop
      vertex 1.085651e+02 5.000000e+01 -9.404466e+02
      vertex 1.120194e+02 5.049516e+01 -9.404466e+02
      vertex 2.113486e+01 5.000000e+01 -9.404466e+02
    endloop
  endfacet
  facet normal 4.550068e-15 -9.997754e-01 -2.119152e-02
    outer loop
      vertex 1.085651e+02 5.009789e+01 -9.450646e+02
      vertex 1.085651e+02 5.000000e+01 -9.404466e+02
      vertex 2.113486e+01 5.000000e+01 -9.404466e+02
    endloop
  endfacet
  facet normal 2.930782e-15 -7.071064e-01 -7.071072e-01
    outer loop
      vertex 1.085651e+02 5.138197e+01 -9.463487e+02
      vertex 2.113486e+01 5.009789e+01 -9.450646e+02
      vertex 2.113486e+01 5.138197e+01 -9.463487e+02
    endloop
  endfacet
  facet normal 7.069562e-15 -7.071064e-01 -7.071072e-01
    outer loop
      vertex 1.085651e+02 5.138197e+01 -9.463487e+02
      vertex 1.085651e+02 5.009789e+01 -9.450646e+02
      vertex 2.113486e+01 5.009789e+01 -9.450646e+02
    endloop
  endfacet
  facet normal 1.560453e-14 -1.367512e-02 -9.999065e-01
    outer loop
      vertex 1.085651e+02 5.853933e+01 -9.464466e+02
      vertex 2.113486e+01 5.138197e+01 -9.463487e+02
      vertex 2.113486e+01 5.853933e+01 -9.464466e+02
    endloop
  endfacet
  facet normal 2.621623e-15 -1.367512e-02 -9.999065e-01
    outer loop
      vertex 1.085651e+02 5.853933e+01 -9.464466e+02
      vertex 1.085651e+02 5.138197e+01 -9.463487e+02
      vertex 2.113486e+01 5.138197e+01 -9.463487e+02
    endloop
  endfacet
  facet normal 0.000000e+00 0.000000e+00 1.000000e+00
    outer loop
      vertex 3.570657e+01 1.105485e+02 -9.404466e+02
      vertex 1.485000e+01 1.551277e+02 -9.404466e+02
      vertex 1.485000e+01 5.853933e+01 -9.404466e+02
    endloop
  endfacet
  facet normal -9.951361e-01 -4.502061e-15 -9.850927e-02
    outer loop
      vertex 1.537666e+01 5.853933e+01 -9.457669e+02
      vertex 1.485000e+01 5.853933e+01 -9.404466e+02
      vertex 1.485000e+01 1.551277e+02 -9.404466e+02
    endloop
  endfacet
  facet normal 0.000000e+00 0.000000e+00 1.000000e+00
    outer loop
      vertex 8.812362e+01 7.993920e+01 -9.404466e+02
      vertex 1.485000e+01 5.853933e+01 -9.404466e+02
      vertex 1.148500e+02 5.853933e+01 -9.404466e+02
    endloop
  endfacet
  facet normal 0.000000e+00 0.000000e+00 1.000000e+00
    outer loop
      vertex 3.570657e+01 1.031186e+02 -9.404466e+02
      vertex 3.570657e+01 1.105485e+02 -9.404466e+02
      vertex 1.485000e+01 5.853933e+01 -9.404466e+02
    endloop
  endfacet
  facet normal 0.000000e+00 0.000000e+00 1.000000e+00
    outer loop
      vertex 3.570657e+01 9.568872e+01 -9.404466e+02
      vertex 3.570657e+01 1.031186e+02 -9.404466e+02
      vertex 1.485000e+01 5.853933e+01 -9.404466e+02
    endloop
  endfacet
  facet normal 0.000000e+00 0.000000e+00 1.000000e+00
    outer loop
      vertex 4.299243e+01 9.568872e+01 -9.404466e+02
      vertex 3.570657e+01 9.568872e+01 -9.404466e+02
      vertex 1.485000e+01 5.853933e+01 -9.404466e+02
    endloop
  endfacet
  facet normal 0.000000e+00 0.000000e+00 1.000000e+00
    outer loop
      vertex 4.280361e+01 8.844766e+01 -9.404466e+02
      vertex 4.299243e+01 9.568872e+01 -9.404466e+02
      vertex 1.485000e+01 5.853933e+01 -9.404466e+02
    endloop
  endfacet
  facet normal 0.000000e+00 0.000000e+00 1.000000e+00
    outer loop
      vertex 4.157638e+01 7.993920e+01 -9.404466e+02
      vertex 4.280361e+01 8.844766e+01 -9.404466e+02
      vertex 1.485000e+01 5.853933e+01 -9.404466e+02
    endloop
  endfacet
  facet normal 0.000000e+00 0.000000e+00 1.000000e+00
    outer loop
      vertex 5.200210e+01 7.974582e+01 -9.404466e+02
      vertex 4.157638e+01 7.993920e+01 -9.404466e+02
      vertex 1.485000e+01 5.853933e+01 -9.404466e+02
    endloop
  endfacet
  facet normal 0.000000e+00 0.000000e+00 1.000000e+00
    outer loop
      vertex 7.769790e+01 7.974582e+01 -9.404466e+02
      vertex 5.200210e+01 7.974582e+01 -9.404466e+02
      vertex 1.485000e+01 5.853933e+01 -9.404466e+02
    endloop
  endfacet
  facet normal 0.000000e+00 0.000000e+00 1.000000e+00
    outer loop
      vertex 8.812362e+01 7.993920e+01 -9.404466e+02
      vertex 7.769790e+01 7.974582e+01 -9.404466e+02
      vertex 1.485000e+01 5.853933e+01 -9.404466e+02
    endloop
  endfacet
  facet normal 0.000000e+00 0.000000e+00 1.000000e+00
    outer loop
      vertex 1.148005e+02 1.624393e+02 -9.404466e+02
      vertex 1.489949e+01 1.624393e+02 -9.404466e+02
      vertex 1.485000e+01 1.551277e+02 -9.404466e+02
    endloop
  endfacet
  facet normal -9.951136e-01 6.735995e-03 -9.850703e-02
    outer loop
      vertex 1.537666e+01 1.551277e+02 -9.457669e+02
      vertex 1.485000e+01 1.551277e+02 -9.404466e+02
      vertex 1.489949e+01 1.624393e+02 -9.404466e+02
    endloop
  endfacet
  facet normal 0.000000e+00 0.000000e+00 1.000000e+00
    outer loop
      vertex 1.148500e+02 1.551277e+02 -9.404466e+02
      vertex 1.148005e+02 1.624393e+02 -9.404466e+02
      vertex 1.485000e+01 1.551277e+02 -9.404466e+02
    endloop
  endfacet
  facet normal 0.000000e+00 0.000000e+00 1.000000e+00
    outer loop
      vertex 5.027829e+01 1.328381e+02 -9.404466e+02
      vertex 1.148500e+02 1.551277e+02 -9.404466e+02
      vertex 1.485000e+01 1.551277e+02 -9.404466e+02
    endloop
  endfacet
  facet normal 0.000000e+00 0.000000e+00 1.000000e+00
    outer loop
      vertex 4.299243e+01 1.254082e+02 -9.404466e+02
      vertex 5.027829e+01 1.328381e+02 -9.404466e+02
      vertex 1.485000e+01 1.551277e+02 -9.404466e+02
    endloop
  endfacet
  facet normal 0.000000e+00 0.000000e+00 1.000000e+00
    outer loop
      vertex 3.570657e+01 1.105485e+02 -9.404466e+02
      vertex 4.299243e+01 1.254082e+02 -9.404466e+02
      vertex 1.485000e+01 1.551277e+02 -9.404466e+02
    endloop
  endfacet
  facet normal -9.951361e-01 -1.451505e-15 -9.850927e-02
    outer loop
      vertex 1.537666e+01 1.551277e+02 -9.457669e+02
      vertex 1.537666e+01 5.853933e+01 -9.457669e+02
      vertex 1.485000e+01 1.551277e+02 -9.404466e+02
    endloop
  endfacet
  facet normal 0.000000e+00 0.000000e+00 1.000000e+00
    outer loop
      vertex 1.129675e+02 1.659092e+02 -9.404466e+02
      vertex 1.673255e+01 1.659092e+02 -9.404466e+02
      vertex 1.489949e+01 1.624393e+02 -9.404466e+02
    endloop
  endfacet
  facet normal -8.791344e-01 4.644243e-01 -1.069247e-01
    outer loop
      vertex 1.550149e+01 1.623355e+02 -9.458471e+02
      vertex 1.489949e+01 1.624393e+02 -9.404466e+02
      vertex 1.673255e+01 1.659092e+02 -9.404466e+02
    endloop
  endfacet
  facet normal 0.000000e+00 0.000000e+00 1.000000e+00
    outer loop
      vertex 1.148005e+02 1.624393e+02 -9.404466e+02
      vertex 1.129675e+02 1.659092e+02 -9.404466e+02
      vertex 1.489949e+01 1.624393e+02 -9.404466e+02
    endloop
  endfacet
  facet normal -9.936838e-01 1.597370e-02 -1.110740e-01
    outer loop
      vertex 1.550149e+01 1.623355e+02 -9.458471e+02
      vertex 1.537666e+01 1.551277e+02 -9.457669e+02
      vertex 1.489949e+01 1.624393e+02 -9.404466e+02
    endloop
  endfacet
  facet normal 0.000000e+00 0.000000e+00 1.000000e+00
    outer loop
      vertex 1.085651e+02 1.670000e+02 -9.404466e+02
      vertex 2.113486e+01 1.670000e+02 -9.404466e+02
      vertex 1.673255e+01 1.659092e+02 -9.404466e+02
    endloop
  endfacet
  facet normal -2.405011e-01 9.705886e-01 -1.081323e-02
    outer loop
      vertex 1.700021e+01 1.659224e+02 -9.452105e+02
      vertex 1.673255e+01 1.659092e+02 -9.404466e+02
      vertex 2.113486e+01 1.670000e+02 -9.404466e+02
    endloop
  endfacet
  facet normal 0.000000e+00 0.000000e+00 1.000000e+00
    outer loop
      vertex 1.129675e+02 1.659092e+02 -9.404466e+02
      vertex 1.085651e+02 1.670000e+02 -9.404466e+02
      vertex 1.673255e+01 1.659092e+02 -9.404466e+02
    endloop
  endfacet
  facet normal -9.182999e-01 3.926510e-01 -5.050226e-02
    outer loop
      vertex 1.700021e+01 1.659224e+02 -9.452105e+02
      vertex 1.550149e+01 1.623355e+02 -9.458471e+02
      vertex 1.673255e+01 1.659092e+02 -9.404466e+02
    endloop
  endfacet
  facet normal -4.539564e-15 9.975025e-01 -7.063149e-02
    outer loop
      vertex 2.113486e+01 1.666360e+02 -9.455869e+02
      vertex 2.113486e+01 1.670000e+02 -9.404466e+02
      vertex 1.085651e+02 1.670000e+02 -9.404466e+02
    endloop
  endfacet
  facet normal -1.758116e-01 9.819652e-01 -6.953132e-02
    outer loop
      vertex 2.113486e+01 1.666360e+02 -9.455869e+02
      vertex 1.700021e+01 1.659224e+02 -9.452105e+02
      vertex 2.113486e+01 1.670000e+02 -9.404466e+02
    endloop
  endfacet
  facet normal 2.399491e-01 9.683609e-01 -6.856802e-02
    outer loop
      vertex 1.085651e+02 1.666360e+02 -9.455869e+02
      vertex 1.085651e+02 1.670000e+02 -9.404466e+02
      vertex 1.129675e+02 1.659092e+02 -9.404466e+02
    endloop
  endfacet
  facet normal -3.891200e-15 9.975025e-01 -7.063149e-02
    outer loop
      vertex 1.085651e+02 1.666360e+02 -9.455869e+02
      vertex 2.113486e+01 1.666360e+02 -9.455869e+02
      vertex 1.085651e+02 1.670000e+02 -9.404466e+02
    endloop
  endfacet
  facet normal 8.805424e-01 4.651681e-01 -9.090565e-02
    outer loop
      vertex 1.143000e+02 1.623516e+02 -9.457435e+02
      vertex 1.129675e+02 1.659092e+02 -9.404466e+02
      vertex 1.148005e+02 1.624393e+02 -9.404466e+02
    endloop
  endfacet
  facet normal 1.706821e-01 9.853023e-01 -6.849567e-03
    outer loop
      vertex 1.126998e+02 1.659224e+02 -9.452105e+02
      vertex 1.085651e+02 1.666360e+02 -9.455869e+02
      vertex 1.129675e+02 1.659092e+02 -9.404466e+02
    endloop
  endfacet
  facet normal 9.086218e-01 4.146284e-01 -4.989738e-02
    outer loop
      vertex 1.126998e+02 1.659224e+02 -9.452105e+02
      vertex 1.129675e+02 1.659092e+02 -9.404466e+02
      vertex 1.143000e+02 1.623516e+02 -9.457435e+02
    endloop
  endfacet
  facet normal 9.951136e-01 6.735995e-03 -9.850703e-02
    outer loop
      vertex 1.143233e+02 1.551277e+02 -9.457669e+02
      vertex 1.148005e+02 1.624393e+02 -9.404466e+02
      vertex 1.148500e+02 1.551277e+02 -9.404466e+02
    endloop
  endfacet
  facet normal 9.955537e-01 3.522078e-03 -9.412969e-02
    outer loop
      vertex 1.143000e+02 1.623516e+02 -9.457435e+02
      vertex 1.148005e+02 1.624393e+02 -9.404466e+02
      vertex 1.143233e+02 1.551277e+02 -9.457669e+02
    endloop
  endfacet
  facet normal 0.000000e+00 0.000000e+00 1.000000e+00
    outer loop
      vertex 8.812362e+01 7.993920e+01 -9.404466e+02
      vertex 1.148500e+02 5.853933e+01 -9.404466e+02
      vertex 1.148500e+02 1.551277e+02 -9.404466e+02
    endloop
  endfacet
  facet normal 9.951361e-01 4.392842e-15 -9.850927e-02
    outer loop
      vertex 1.143233e+02 1.551277e+02 -9.457669e+02
      vertex 1.148500e+02 1.551277e+02 -9.404466e+02
      vertex 1.148500e+02 5.853933e+01 -9.404466e+02
    endloop
  endfacet
  facet normal 0.000000e+00 0.000000e+00 1.000000e+00
    outer loop
      vertex 8.670757e+01 1.254082e+02 -9.404466e+02
      vertex 8.670757e+01 1.179784e+02 -9.404466e+02
      vertex 1.148500e+02 1.551277e+02 -9.404466e+02
    endloop
  endfacet
  facet normal 0.000000e+00 0.000000e+00 1.000000e+00
    outer loop
      vertex 9.399343e+01 1.179784e+02 -9.404466e+02
      vertex 1.148500e+02 1.551277e+02 -9.404466e+02
      vertex 8.670757e+01 1.179784e+02 -9.404466e+02
    endloop
  endfacet
  facet normal 0.000000e+00 0.000000e+00 1.000000e+00
    outer loop
      vertex 8.670757e+01 1.328381e+02 -9.404466e+02
      vertex 8.670757e+01 1.254082e+02 -9.404466e+02
      vertex 1.148500e+02 1.551277e+02 -9.404466e+02
    endloop
  endfacet
  facet normal 0.000000e+00 0.000000e+00 1.000000e+00
    outer loop
      vertex 7.942171e+01 1.328381e+02 -9.404466e+02
      vertex 8.670757e+01 1.328381e+02 -9.404466e+02
      vertex 1.148500e+02 1.551277e+02 -9.404466e+02
    endloop
  endfacet
  facet normal 0.000000e+00 0.000000e+00 1.000000e+00
    outer loop
      vertex 7.213586e+01 1.328381e+02 -9.404466e+02
      vertex 7.942171e+01 1.328381e+02 -9.404466e+02
      vertex 1.148500e+02 1.551277e+02 -9.404466e+02
    endloop
  endfacet
  facet normal 0.000000e+00 0.000000e+00 1.000000e+00
    outer loop
      vertex 5.756414e+01 1.328381e+02 -9.404466e+02
      vertex 7.213586e+01 1.328381e+02 -9.404466e+02
      vertex 1.148500e+02 1.551277e+02 -9.404466e+02
    endloop
  endfacet
  facet normal 0.000000e+00 0.000000e+00 1.000000e+00
    outer loop
      vertex 5.027829e+01 1.328381e+02 -9.404466e+02
      vertex 5.756414e+01 1.328381e+02 -9.404466e+02
      vertex 1.148500e+02 1.551277e+02 -9.404466e+02
    endloop
  endfacet
  facet normal 0.000000e+00 0.000000e+00 1.000000e+00
    outer loop
      vertex 9.399343e+01 1.031186e+02 -9.404466e+02
      vertex 8.812362e+01 7.993920e+01 -9.404466e+02
      vertex 1.148500e+02 1.551277e+02 -9.404466e+02
    endloop
  endfacet
  facet normal 0.000000e+00 0.000000e+00 1.000000e+00
    outer loop
      vertex 9.399343e+01 1.105485e+02 -9.404466e+02
      vertex 9.399343e+01 1.031186e+02 -9.404466e+02
      vertex 1.148500e+02 1.551277e+02 -9.404466e+02
    endloop
  endfacet
  facet normal 0.000000e+00 0.000000e+00 1.000000e+00
    outer loop
      vertex 9.399343e+01 1.179784e+02 -9.404466e+02
      vertex 9.399343e+01 1.105485e+02 -9.404466e+02
      vertex 1.148500e+02 1.551277e+02 -9.404466e+02
    endloop
  endfacet
  facet normal 9.874353e-01 -1.334177e-01 -8.468368e-02
    outer loop
      vertex 1.135656e+02 5.230044e+01 -9.455935e+02
      vertex 1.148500e+02 5.853933e+01 -9.404466e+02
      vertex 1.140030e+02 5.227063e+01 -9.404466e+02
    endloop
  endfacet
  facet normal 9.876211e-01 -1.226639e-01 -9.776535e-02
    outer loop
      vertex 1.143233e+02 5.853933e+01 -9.457669e+02
      vertex 1.148500e+02 5.853933e+01 -9.404466e+02
      vertex 1.135656e+02 5.230044e+01 -9.455935e+02
    endloop
  endfacet
  facet normal 9.951361e-01 2.059594e-14 -9.850927e-02
    outer loop
      vertex 1.143233e+02 1.551277e+02 -9.457669e+02
      vertex 1.148500e+02 5.853933e+01 -9.404466e+02
      vertex 1.143233e+02 5.853933e+01 -9.457669e+02
    endloop
  endfacet
  facet normal 6.668108e-01 -7.449700e-01 -1.957376e-02
    outer loop
      vertex 1.122231e+02 5.079970e+01 -9.450970e+02
      vertex 1.140030e+02 5.227063e+01 -9.404466e+02
      vertex 1.120194e+02 5.049516e+01 -9.404466e+02
    endloop
  endfacet
  facet normal 7.326994e-01 -6.773262e-01 -6.618735e-02
    outer loop
      vertex 1.135656e+02 5.230044e+01 -9.455935e+02
      vertex 1.140030e+02 5.227063e+01 -9.404466e+02
      vertex 1.122231e+02 5.079970e+01 -9.450970e+02
    endloop
  endfacet
  facet normal 1.418640e-01 -9.896639e-01 -2.097719e-02
    outer loop
      vertex 1.085651e+02 5.009789e+01 -9.450646e+02
      vertex 1.120194e+02 5.049516e+01 -9.404466e+02
      vertex 1.085651e+02 5.000000e+01 -9.404466e+02
    endloop
  endfacet
  facet normal 1.876461e-01 -9.806391e-01 -5.599844e-02
    outer loop
      vertex 1.122231e+02 5.079970e+01 -9.450970e+02
      vertex 1.120194e+02 5.049516e+01 -9.404466e+02
      vertex 1.085651e+02 5.009789e+01 -9.450646e+02
    endloop
  endfacet
  facet normal -2.647122e-01 0.000000e+00 9.643275e-01
    outer loop
      vertex 7.942171e+01 1.179784e+02 -9.424466e+02
      vertex 8.670757e+01 1.179784e+02 -9.404466e+02
      vertex 8.670757e+01 1.254082e+02 -9.404466e+02
    endloop
  endfacet
  facet normal 0.000000e+00 -4.591462e-02 9.989454e-01
    outer loop
      vertex 8.738784e+01 1.106620e+02 -9.407829e+02
      vertex 9.399343e+01 1.179784e+02 -9.404466e+02
      vertex 8.670757e+01 1.179784e+02 -9.404466e+02
    endloop
  endfacet
  facet normal -2.647122e-01 -2.951094e-14 9.643275e-01
    outer loop
      vertex 7.942171e+01 1.105485e+02 -9.424466e+02
      vertex 8.670757e+01 1.179784e+02 -9.404466e+02
      vertex 7.942171e+01 1.179784e+02 -9.424466e+02
    endloop
  endfacet
  facet normal -2.031502e-01 -6.379787e-02 9.770669e-01
    outer loop
      vertex 8.738784e+01 1.106620e+02 -9.407829e+02
      vertex 8.670757e+01 1.179784e+02 -9.404466e+02
      vertex 7.942171e+01 1.105485e+02 -9.424466e+02
    endloop
  endfacet
  facet normal -1.869579e-02 0.000000e+00 9.998252e-01
    outer loop
      vertex 7.974871e+01 1.257635e+02 -9.405767e+02
      vertex 8.670757e+01 1.254082e+02 -9.404466e+02
      vertex 8.670757e+01 1.328381e+02 -9.404466e+02
    endloop
  endfacet
  facet normal -3.003423e-02 -2.322462e-01 9.721932e-01
    outer loop
      vertex 7.974871e+01 1.257635e+02 -9.405767e+02
      vertex 7.942171e+01 1.179784e+02 -9.424466e+02
      vertex 8.670757e+01 1.254082e+02 -9.404466e+02
    endloop
  endfacet
  facet normal 0.000000e+00 -1.838987e-02 9.998309e-01
    outer loop
      vertex 7.974871e+01 1.257635e+02 -9.405767e+02
      vertex 8.670757e+01 1.328381e+02 -9.404466e+02
      vertex 7.942171e+01 1.328381e+02 -9.404466e+02
    endloop
  endfacet
  facet normal -1.013975e-15 -2.599308e-01 9.656272e-01
    outer loop
      vertex 7.213586e+01 1.254082e+02 -9.424466e+02
      vertex 7.942171e+01 1.328381e+02 -9.404466e+02
      vertex 7.213586e+01 1.328381e+02 -9.404466e+02
    endloop
  endfacet
  facet normal -2.371634e-01 -2.882227e-02 9.710421e-01
    outer loop
      vertex 7.974871e+01 1.257635e+02 -9.405767e+02
      vertex 7.942171e+01 1.328381e+02 -9.404466e+02
      vertex 7.213586e+01 1.254082e+02 -9.424466e+02
    endloop
  endfacet
  facet normal -1.428272e-15 7.408853e-01 6.716315e-01
    outer loop
      vertex 6.896533e+01 1.289400e+02 -9.361466e+02
      vertex 7.213586e+01 1.328381e+02 -9.404466e+02
      vertex 5.756414e+01 1.328381e+02 -9.404466e+02
    endloop
  endfacet
  facet normal 8.522614e-01 -1.359740e-01 5.051352e-01
    outer loop
      vertex 6.896533e+01 1.289400e+02 -9.361466e+02
      vertex 7.213586e+01 1.254082e+02 -9.424466e+02
      vertex 7.213586e+01 1.328381e+02 -9.404466e+02
    endloop
  endfacet
  facet normal 0.000000e+00 -1.838982e-02 9.998309e-01
    outer loop
      vertex 4.995129e+01 1.257635e+02 -9.405767e+02
      vertex 5.756414e+01 1.328381e+02 -9.404466e+02
      vertex 5.027829e+01 1.328381e+02 -9.404466e+02
    endloop
  endfacet
  facet normal 2.195584e-01 -2.535884e-01 9.420653e-01
    outer loop
      vertex 5.756414e+01 1.254082e+02 -9.424466e+02
      vertex 5.756414e+01 1.328381e+02 -9.404466e+02
      vertex 4.995129e+01 1.257635e+02 -9.405767e+02
    endloop
  endfacet
  facet normal -8.522614e-01 -1.359740e-01 5.051352e-01
    outer loop
      vertex 6.073467e+01 1.289400e+02 -9.361466e+02
      vertex 5.756414e+01 1.328381e+02 -9.404466e+02
      vertex 5.756414e+01 1.254082e+02 -9.424466e+02
    endloop
  endfacet
  facet normal -2.558388e-15 7.408853e-01 6.716315e-01
    outer loop
      vertex 6.896533e+01 1.289400e+02 -9.361466e+02
      vertex 5.756414e+01 1.328381e+02 -9.404466e+02
      vertex 6.073467e+01 1.289400e+02 -9.361466e+02
    endloop
  endfacet
  facet normal 1.967684e-02 -1.929543e-02 9.996202e-01
    outer loop
      vertex 4.995129e+01 1.257635e+02 -9.405767e+02
      vertex 5.027829e+01 1.328381e+02 -9.404466e+02
      vertex 4.299243e+01 1.254082e+02 -9.404466e+02
    endloop
  endfacet
  facet normal 0.000000e+00 0.000000e+00 1.000000e+00
    outer loop
      vertex 3.570657e+01 1.105485e+02 -9.404466e+02
      vertex 4.299243e+01 1.179784e+02 -9.404466e+02
      vertex 4.299243e+01 1.254082e+02 -9.404466e+02
    endloop
  endfacet
  facet normal 1.869573e-02 0.000000e+00 9.998252e-01
    outer loop
      vertex 4.995129e+01 1.257635e+02 -9.405767e+02
      vertex 4.299243e+01 1.254082e+02 -9.404466e+02
      vertex 4.299243e+01 1.179784e+02 -9.404466e+02
    endloop
  endfacet
  facet normal 5.164610e-02 -5.064499e-02 9.973805e-01
    outer loop
      vertex 4.231216e+01 1.106620e+02 -9.407829e+02
      vertex 4.299243e+01 1.179784e+02 -9.404466e+02
      vertex 3.570657e+01 1.105485e+02 -9.404466e+02
    endloop
  endfacet
  facet normal 2.640854e-01 -6.877333e-02 9.620442e-01
    outer loop
      vertex 5.027829e+01 1.179784e+02 -9.424466e+02
      vertex 4.299243e+01 1.179784e+02 -9.404466e+02
      vertex 4.231216e+01 1.106620e+02 -9.407829e+02
    endloop
  endfacet
  facet normal 2.585025e-01 -2.153274e-01 9.417062e-01
    outer loop
      vertex 4.995129e+01 1.257635e+02 -9.405767e+02
      vertex 4.299243e+01 1.179784e+02 -9.404466e+02
      vertex 5.027829e+01 1.179784e+02 -9.424466e+02
    endloop
  endfacet
  facet normal 5.084327e-02 0.000000e+00 9.987066e-01
    outer loop
      vertex 4.231216e+01 1.106620e+02 -9.407829e+02
      vertex 3.570657e+01 1.105485e+02 -9.404466e+02
      vertex 3.570657e+01 1.031186e+02 -9.404466e+02
    endloop
  endfacet
  facet normal 9.013864e-03 8.690963e-18 9.999594e-01
    outer loop
      vertex 4.258363e+01 1.030504e+02 -9.405086e+02
      vertex 3.570657e+01 1.031186e+02 -9.404466e+02
      vertex 3.570657e+01 9.568872e+01 -9.404466e+02
    endloop
  endfacet
  facet normal 9.368398e-03 3.634487e-02 9.992954e-01
    outer loop
      vertex 4.231216e+01 1.106620e+02 -9.407829e+02
      vertex 3.570657e+01 1.031186e+02 -9.404466e+02
      vertex 4.258363e+01 1.030504e+02 -9.405086e+02
    endloop
  endfacet
  facet normal 0.000000e+00 8.420548e-03 9.999645e-01
    outer loop
      vertex 4.258363e+01 1.030504e+02 -9.405086e+02
      vertex 3.570657e+01 9.568872e+01 -9.404466e+02
      vertex 4.299243e+01 9.568872e+01 -9.404466e+02
    endloop
  endfacet
  facet normal -6.149661e-01 1.603629e-02 7.883904e-01
    outer loop
      vertex 4.850892e+01 9.583708e+01 -9.361466e+02
      vertex 4.299243e+01 9.568872e+01 -9.404466e+02
      vertex 4.280361e+01 8.844766e+01 -9.404466e+02
    endloop
  endfacet
  facet normal -8.617422e-01 -4.359621e-02 5.054699e-01
    outer loop
      vertex 4.518321e+01 1.022406e+02 -9.361466e+02
      vertex 4.258363e+01 1.030504e+02 -9.405086e+02
      vertex 4.299243e+01 9.568872e+01 -9.404466e+02
    endloop
  endfacet
  facet normal -5.810533e-01 -3.017768e-01 7.558491e-01
    outer loop
      vertex 4.518321e+01 1.022406e+02 -9.361466e+02
      vertex 4.299243e+01 9.568872e+01 -9.404466e+02
      vertex 4.850892e+01 9.583708e+01 -9.361466e+02
    endloop
  endfacet
  facet normal 9.897576e-01 -1.427582e-01 6.874900e-15
    outer loop
      vertex 4.280361e+01 8.844766e+01 -9.464466e+02
      vertex 4.280361e+01 8.844766e+01 -9.404466e+02
      vertex 4.157638e+01 7.993920e+01 -9.404466e+02
    endloop
  endfacet
  facet normal 3.096847e-02 -9.995204e-01 7.285390e-15
    outer loop
      vertex 4.280361e+01 8.844766e+01 -9.464466e+02
      vertex 5.054769e+01 8.868760e+01 -9.464466e+02
      vertex 4.280361e+01 8.844766e+01 -9.404466e+02
    endloop
  endfacet
  facet normal 3.096847e-02 -9.995204e-01 1.220344e-14
    outer loop
      vertex 5.054769e+01 8.868760e+01 -9.404466e+02
      vertex 4.280361e+01 8.844766e+01 -9.404466e+02
      vertex 5.054769e+01 8.868760e+01 -9.464466e+02
    endloop
  endfacet
  facet normal 1.819750e-02 -5.873320e-01 8.091415e-01
    outer loop
      vertex 4.975892e+01 9.458708e+01 -9.361466e+02
      vertex 4.280361e+01 8.844766e+01 -9.404466e+02
      vertex 5.054769e+01 8.868760e+01 -9.404466e+02
    endloop
  endfacet
  facet normal -4.018111e-02 -4.791920e-01 8.767899e-01
    outer loop
      vertex 5.027829e+01 9.568872e+01 -9.361466e+02
      vertex 4.850892e+01 9.583708e+01 -9.361466e+02
      vertex 4.280361e+01 8.844766e+01 -9.404466e+02
    endloop
  endfacet
  facet normal -6.877522e-01 3.242377e-01 6.495127e-01
    outer loop
      vertex 5.027829e+01 9.568872e+01 -9.361466e+02
      vertex 4.280361e+01 8.844766e+01 -9.404466e+02
      vertex 4.975892e+01 9.458708e+01 -9.361466e+02
    endloop
  endfacet
  facet normal 1.854580e-02 9.998280e-01 2.196264e-17
    outer loop
      vertex 4.157638e+01 7.993920e+01 -9.464466e+02
      vertex 4.157638e+01 7.993920e+01 -9.404466e+02
      vertex 5.200210e+01 7.974582e+01 -9.404466e+02
    endloop
  endfacet
  facet normal 9.897576e-01 -1.427582e-01 1.170943e-15
    outer loop
      vertex 4.280361e+01 8.844766e+01 -9.464466e+02
      vertex 4.157638e+01 7.993920e+01 -9.404466e+02
      vertex 4.157638e+01 7.993920e+01 -9.464466e+02
    endloop
  endfacet
  facet normal 0.000000e+00 0.000000e+00 1.000000e+00
    outer loop
      vertex 6.485000e+01 8.082896e+01 -9.404466e+02
      vertex 5.756414e+01 8.082896e+01 -9.404466e+02
      vertex 5.200210e+01 7.974582e+01 -9.404466e+02
    endloop
  endfacet
  facet normal -1.465247e-02 7.524141e-02 9.970577e-01
    outer loop
      vertex 5.717848e+01 8.737958e+01 -9.409466e+02
      vertex 5.200210e+01 7.974582e+01 -9.404466e+02
      vertex 5.756414e+01 8.082896e+01 -9.404466e+02
    endloop
  endfacet
  facet normal 0.000000e+00 0.000000e+00 1.000000e+00
    outer loop
      vertex 7.213586e+01 8.082896e+01 -9.404466e+02
      vertex 6.485000e+01 8.082896e+01 -9.404466e+02
      vertex 5.200210e+01 7.974582e+01 -9.404466e+02
    endloop
  endfacet
  facet normal 0.000000e+00 0.000000e+00 1.000000e+00
    outer loop
      vertex 7.769790e+01 7.974582e+01 -9.404466e+02
      vertex 7.213586e+01 8.082896e+01 -9.404466e+02
      vertex 5.200210e+01 7.974582e+01 -9.404466e+02
    endloop
  endfacet
  facet normal 1.854580e-02 9.998280e-01 -4.649213e-15
    outer loop
      vertex 4.157638e+01 7.993920e+01 -9.464466e+02
      vertex 5.200210e+01 7.974582e+01 -9.404466e+02
      vertex 5.200210e+01 7.974582e+01 -9.464466e+02
    endloop
  endfacet
  facet normal -9.870288e-01 -1.605435e-01 -3.888942e-15
    outer loop
      vertex 5.054769e+01 8.868760e+01 -9.404466e+02
      vertex 5.200210e+01 7.974582e+01 -9.464466e+02
      vertex 5.200210e+01 7.974582e+01 -9.404466e+02
    endloop
  endfacet
  facet normal 7.766393e-02 1.263230e-02 9.968996e-01
    outer loop
      vertex 5.717848e+01 8.737958e+01 -9.409466e+02
      vertex 5.054769e+01 8.868760e+01 -9.404466e+02
      vertex 5.200210e+01 7.974582e+01 -9.404466e+02
    endloop
  endfacet
  facet normal 0.000000e+00 2.599308e-01 9.656272e-01
    outer loop
      vertex 6.485000e+01 8.825884e+01 -9.424466e+02
      vertex 5.756414e+01 8.082896e+01 -9.404466e+02
      vertex 6.485000e+01 8.082896e+01 -9.404466e+02
    endloop
  endfacet
  facet normal 1.817478e-01 8.547359e-02 9.796234e-01
    outer loop
      vertex 6.485000e+01 8.825884e+01 -9.424466e+02
      vertex 5.717848e+01 8.737958e+01 -9.409466e+02
      vertex 5.756414e+01 8.082896e+01 -9.404466e+02
    endloop
  endfacet
  facet normal 0.000000e+00 7.610726e-02 9.970996e-01
    outer loop
      vertex 7.252152e+01 8.737959e+01 -9.409466e+02
      vertex 6.485000e+01 8.082896e+01 -9.404466e+02
      vertex 7.213586e+01 8.082896e+01 -9.404466e+02
    endloop
  endfacet
  facet normal -1.570430e-01 2.567056e-01 9.536455e-01
    outer loop
      vertex 7.252152e+01 8.737959e+01 -9.409466e+02
      vertex 6.485000e+01 8.825884e+01 -9.424466e+02
      vertex 6.485000e+01 8.082896e+01 -9.404466e+02
    endloop
  endfacet
  facet normal 0.000000e+00 0.000000e+00 1.000000e+00
    outer loop
      vertex 7.769790e+01 7.974582e+01 -9.404466e+02
      vertex 7.915231e+01 8.868760e+01 -9.404466e+02
      vertex 7.213586e+01 8.082896e+01 -9.404466e+02
    endloop
  endfacet
  facet normal -9.084441e-02 8.110887e-02 9.925566e-01
    outer loop
      vertex 7.252152e+01 8.737959e+01 -9.409466e+02
      vertex 7.213586e+01 8.082896e+01 -9.404466e+02
      vertex 7.915231e+01 8.868760e+01 -9.404466e+02
    endloop
  endfacet
  facet normal 9.870288e-01 -1.605435e-01 3.098241e-15
    outer loop
      vertex 7.915231e+01 8.868760e+01 -9.464466e+02
      vertex 7.915231e+01 8.868760e+01 -9.404466e+02
      vertex 7.769790e+01 7.974582e+01 -9.404466e+02
    endloop
  endfacet
  facet normal -3.096847e-02 -9.995204e-01 2.367340e-15
    outer loop
      vertex 8.689639e+01 8.844766e+01 -9.464466e+02
      vertex 8.689639e+01 8.844766e+01 -9.404466e+02
      vertex 7.915231e+01 8.868760e+01 -9.404466e+02
    endloop
  endfacet
  facet normal -1.819750e-02 -5.873320e-01 8.091415e-01
    outer loop
      vertex 7.994108e+01 9.458708e+01 -9.361466e+02
      vertex 7.915231e+01 8.868760e+01 -9.404466e+02
      vertex 8.689639e+01 8.844766e+01 -9.404466e+02
    endloop
  endfacet
  facet normal -3.096847e-02 -9.995204e-01 4.661871e-15
    outer loop
      vertex 8.689639e+01 8.844766e+01 -9.464466e+02
      vertex 7.915231e+01 8.868760e+01 -9.404466e+02
      vertex 7.915231e+01 8.868760e+01 -9.464466e+02
    endloop
  endfacet
  facet normal 5.640885e-02 -5.929961e-01 8.032271e-01
    outer loop
      vertex 7.994108e+01 9.458708e+01 -9.361466e+02
      vertex 7.252152e+01 8.737959e+01 -9.409466e+02
      vertex 7.915231e+01 8.868760e+01 -9.404466e+02
    endloop
  endfacet
  facet normal -1.854580e-02 9.998280e-01 2.368068e-15
    outer loop
      vertex 7.769790e+01 7.974582e+01 -9.464466e+02
      vertex 7.769790e+01 7.974582e+01 -9.404466e+02
      vertex 8.812362e+01 7.993920e+01 -9.404466e+02
    endloop
  endfacet
  facet normal 9.870288e-01 -1.605435e-01 -3.802434e-16
    outer loop
      vertex 7.769790e+01 7.974582e+01 -9.464466e+02
      vertex 7.915231e+01 8.868760e+01 -9.464466e+02
      vertex 7.769790e+01 7.974582e+01 -9.404466e+02
    endloop
  endfacet
  facet normal 0.000000e+00 0.000000e+00 1.000000e+00
    outer loop
      vertex 9.399343e+01 1.031186e+02 -9.404466e+02
      vertex 8.689639e+01 8.844766e+01 -9.404466e+02
      vertex 8.812362e+01 7.993920e+01 -9.404466e+02
    endloop
  endfacet
  facet normal -9.897576e-01 -1.427582e-01 2.366836e-15
    outer loop
      vertex 8.812362e+01 7.993920e+01 -9.464466e+02
      vertex 8.812362e+01 7.993920e+01 -9.404466e+02
      vertex 8.689639e+01 8.844766e+01 -9.404466e+02
    endloop
  endfacet
  facet normal -1.854580e-02 9.998280e-01 -1.658101e-14
    outer loop
      vertex 7.769790e+01 7.974582e+01 -9.464466e+02
      vertex 8.812362e+01 7.993920e+01 -9.404466e+02
      vertex 8.812362e+01 7.993920e+01 -9.464466e+02
    endloop
  endfacet
  facet normal 0.000000e+00 0.000000e+00 1.000000e+00
    outer loop
      vertex 9.399343e+01 1.031186e+02 -9.404466e+02
      vertex 8.670757e+01 9.568872e+01 -9.404466e+02
      vertex 8.689639e+01 8.844766e+01 -9.404466e+02
    endloop
  endfacet
  facet normal 6.149661e-01 1.603629e-02 7.883904e-01
    outer loop
      vertex 8.119108e+01 9.583708e+01 -9.361466e+02
      vertex 8.689639e+01 8.844766e+01 -9.404466e+02
      vertex 8.670757e+01 9.568872e+01 -9.404466e+02
    endloop
  endfacet
  facet normal -9.897576e-01 -1.427582e-01 3.099554e-16
    outer loop
      vertex 8.812362e+01 7.993920e+01 -9.464466e+02
      vertex 8.689639e+01 8.844766e+01 -9.404466e+02
      vertex 8.689639e+01 8.844766e+01 -9.464466e+02
    endloop
  endfacet
  facet normal 2.978278e-01 -2.978278e-01 9.069714e-01
    outer loop
      vertex 8.119108e+01 9.583708e+01 -9.361466e+02
      vertex 7.994108e+01 9.458708e+01 -9.361466e+02
      vertex 8.689639e+01 8.844766e+01 -9.404466e+02
    endloop
  endfacet
  facet normal -9.101951e-03 8.925519e-03 9.999187e-01
    outer loop
      vertex 8.711637e+01 1.030504e+02 -9.405086e+02
      vertex 8.670757e+01 9.568872e+01 -9.404466e+02
      vertex 9.399343e+01 1.031186e+02 -9.404466e+02
    endloop
  endfacet
  facet normal 5.810533e-01 -3.017768e-01 7.558491e-01
    outer loop
      vertex 8.119108e+01 9.583708e+01 -9.361466e+02
      vertex 8.670757e+01 9.568872e+01 -9.404466e+02
      vertex 8.451679e+01 1.022406e+02 -9.361466e+02
    endloop
  endfacet
  facet normal 8.617422e-01 -4.359618e-02 5.054699e-01
    outer loop
      vertex 8.711637e+01 1.030504e+02 -9.405086e+02
      vertex 8.451679e+01 1.022406e+02 -9.361466e+02
      vertex 8.670757e+01 9.568872e+01 -9.404466e+02
    endloop
  endfacet
  facet normal -9.013782e-03 3.476385e-17 9.999594e-01
    outer loop
      vertex 8.711637e+01 1.030504e+02 -9.405086e+02
      vertex 9.399343e+01 1.031186e+02 -9.404466e+02
      vertex 9.399343e+01 1.105485e+02 -9.404466e+02
    endloop
  endfacet
  facet normal -5.084298e-02 0.000000e+00 9.987067e-01
    outer loop
      vertex 8.738784e+01 1.106620e+02 -9.407829e+02
      vertex 9.399343e+01 1.105485e+02 -9.404466e+02
      vertex 9.399343e+01 1.179784e+02 -9.404466e+02
    endloop
  endfacet
  facet normal -5.015959e-02 3.775388e-02 9.980274e-01
    outer loop
      vertex 8.738784e+01 1.106620e+02 -9.407829e+02
      vertex 8.711637e+01 1.030504e+02 -9.405086e+02
      vertex 9.399343e+01 1.105485e+02 -9.404466e+02
    endloop
  endfacet
  facet normal -1.172330e-01 1.253673e-14 -9.931044e-01
    outer loop
      vertex 1.537666e+01 1.551277e+02 -9.457669e+02
      vertex 2.113486e+01 5.853933e+01 -9.464466e+02
      vertex 1.537666e+01 5.853933e+01 -9.457669e+02
    endloop
  endfacet
  facet normal -1.172330e-01 1.824383e-14 -9.931044e-01
    outer loop
      vertex 2.113486e+01 1.625576e+02 -9.464466e+02
      vertex 2.113486e+01 5.853933e+01 -9.464466e+02
      vertex 1.537666e+01 1.551277e+02 -9.457669e+02
    endloop
  endfacet
  facet normal 3.060283e-14 1.858016e-14 -1.000000e+00
    outer loop
      vertex 4.157638e+01 7.993920e+01 -9.464466e+02
      vertex 2.113486e+01 5.853933e+01 -9.464466e+02
      vertex 2.113486e+01 1.625576e+02 -9.464466e+02
    endloop
  endfacet
  facet normal 1.560377e-14 3.290752e-14 -1.000000e+00
    outer loop
      vertex 4.157638e+01 7.993920e+01 -9.464466e+02
      vertex 1.085651e+02 5.853933e+01 -9.464466e+02
      vertex 2.113486e+01 5.853933e+01 -9.464466e+02
    endloop
  endfacet
  facet normal -1.054517e-01 -9.247432e-03 -9.943814e-01
    outer loop
      vertex 1.550149e+01 1.623355e+02 -9.458471e+02
      vertex 2.113486e+01 1.625576e+02 -9.464466e+02
      vertex 1.537666e+01 1.551277e+02 -9.457669e+02
    endloop
  endfacet
  facet normal -1.115598e-01 2.049826e-01 -9.723870e-01
    outer loop
      vertex 2.113486e+01 1.666360e+02 -9.455869e+02
      vertex 2.113486e+01 1.625576e+02 -9.464466e+02
      vertex 1.550149e+01 1.623355e+02 -9.458471e+02
    endloop
  endfacet
  facet normal -8.046480e-16 2.062701e-01 -9.784951e-01
    outer loop
      vertex 1.085651e+02 1.666360e+02 -9.455869e+02
      vertex 2.113486e+01 1.625576e+02 -9.464466e+02
      vertex 2.113486e+01 1.666360e+02 -9.455869e+02
    endloop
  endfacet
  facet normal 2.990723e-14 3.060261e-14 -1.000000e+00
    outer loop
      vertex 1.085651e+02 1.625576e+02 -9.464466e+02
      vertex 1.085651e+02 1.551277e+02 -9.464466e+02
      vertex 2.113486e+01 1.625576e+02 -9.464466e+02
    endloop
  endfacet
  facet normal 2.941400e-14 2.479867e-14 -1.000000e+00
    outer loop
      vertex 8.670757e+01 1.031186e+02 -9.464466e+02
      vertex 2.113486e+01 1.625576e+02 -9.464466e+02
      vertex 1.085651e+02 1.551277e+02 -9.464466e+02
    endloop
  endfacet
  facet normal 2.939855e-14 2.062701e-01 -9.784951e-01
    outer loop
      vertex 1.085651e+02 1.666360e+02 -9.455869e+02
      vertex 1.085651e+02 1.625576e+02 -9.464466e+02
      vertex 2.113486e+01 1.625576e+02 -9.464466e+02
    endloop
  endfacet
  facet normal 1.560377e-14 9.563316e-15 -1.000000e+00
    outer loop
      vertex 7.942171e+01 1.031186e+02 -9.464466e+02
      vertex 2.113486e+01 1.625576e+02 -9.464466e+02
      vertex 8.670757e+01 1.031186e+02 -9.464466e+02
    endloop
  endfacet
  facet normal 1.560377e-14 9.563316e-15 -1.000000e+00
    outer loop
      vertex 5.756414e+01 1.031186e+02 -9.464466e+02
      vertex 2.113486e+01 1.625576e+02 -9.464466e+02
      vertex 7.942171e+01 1.031186e+02 -9.464466e+02
    endloop
  endfacet
  facet normal 1.560377e-14 9.563316e-15 -1.000000e+00
    outer loop
      vertex 5.756414e+01 1.031186e+02 -9.464466e+02
      vertex 5.027829e+01 1.031186e+02 -9.464466e+02
      vertex 2.113486e+01 1.625576e+02 -9.464466e+02
    endloop
  endfacet
  facet normal 2.990723e-14 1.657641e-14 -1.000000e+00
    outer loop
      vertex 4.299243e+01 9.568872e+01 -9.464466e+02
      vertex 2.113486e+01 1.625576e+02 -9.464466e+02
      vertex 5.027829e+01 1.031186e+02 -9.464466e+02
    endloop
  endfacet
  facet normal 4.012410e-14 2.093592e-14 -1.000000e+00
    outer loop
      vertex 4.280361e+01 8.844766e+01 -9.464466e+02
      vertex 4.157638e+01 7.993920e+01 -9.464466e+02
      vertex 2.113486e+01 1.625576e+02 -9.464466e+02
    endloop
  endfacet
  facet normal 6.969864e-14 2.958311e-14 -1.000000e+00
    outer loop
      vertex 4.299243e+01 9.568872e+01 -9.464466e+02
      vertex 4.280361e+01 8.844766e+01 -9.464466e+02
      vertex 2.113486e+01 1.625576e+02 -9.464466e+02
    endloop
  endfacet
  facet normal -1.266806e-01 2.244166e-01 -9.662242e-01
    outer loop
      vertex 2.113486e+01 1.666360e+02 -9.455869e+02
      vertex 1.550149e+01 1.623355e+02 -9.458471e+02
      vertex 1.700021e+01 1.659224e+02 -9.452105e+02
    endloop
  endfacet
  facet normal 2.303064e-01 -6.880981e-01 -6.880988e-01
    outer loop
      vertex 1.135656e+02 5.230044e+01 -9.455935e+02
      vertex 1.085651e+02 5.009789e+01 -9.450646e+02
      vertex 1.085651e+02 5.138197e+01 -9.463487e+02
    endloop
  endfacet
  facet normal 6.132550e-02 -3.625355e-01 -9.299501e-01
    outer loop
      vertex 1.135656e+02 5.230044e+01 -9.455935e+02
      vertex 1.122231e+02 5.079970e+01 -9.450970e+02
      vertex 1.085651e+02 5.009789e+01 -9.450646e+02
    endloop
  endfacet
  facet normal 1.172222e-01 -1.358084e-02 -9.930128e-01
    outer loop
      vertex 1.143233e+02 5.853933e+01 -9.457669e+02
      vertex 1.085651e+02 5.138197e+01 -9.463487e+02
      vertex 1.085651e+02 5.853933e+01 -9.464466e+02
    endloop
  endfacet
  facet normal 1.575181e-01 -4.653554e-02 -9.864190e-01
    outer loop
      vertex 1.143233e+02 5.853933e+01 -9.457669e+02
      vertex 1.135656e+02 5.230044e+01 -9.455935e+02
      vertex 1.085651e+02 5.138197e+01 -9.463487e+02
    endloop
  endfacet
  facet normal 1.560377e-14 3.060261e-14 -1.000000e+00
    outer loop
      vertex 8.670757e+01 1.031186e+02 -9.464466e+02
      vertex 1.085651e+02 1.551277e+02 -9.464466e+02
      vertex 1.085651e+02 5.853933e+01 -9.464466e+02
    endloop
  endfacet
  facet normal 1.172330e-01 3.042602e-14 -9.931044e-01
    outer loop
      vertex 1.143233e+02 5.853933e+01 -9.457669e+02
      vertex 1.085651e+02 5.853933e+01 -9.464466e+02
      vertex 1.085651e+02 1.551277e+02 -9.464466e+02
    endloop
  endfacet
  facet normal 1.560377e-14 3.060261e-14 -1.000000e+00
    outer loop
      vertex 8.670757e+01 9.568872e+01 -9.464466e+02
      vertex 8.670757e+01 1.031186e+02 -9.464466e+02
      vertex 1.085651e+02 5.853933e+01 -9.464466e+02
    endloop
  endfacet
  facet normal 1.774662e-14 3.186340e-14 -1.000000e+00
    outer loop
      vertex 8.689639e+01 8.844766e+01 -9.464466e+02
      vertex 8.670757e+01 9.568872e+01 -9.464466e+02
      vertex 1.085651e+02 5.853933e+01 -9.464466e+02
    endloop
  endfacet
  facet normal 1.329961e-14 2.864152e-14 -1.000000e+00
    outer loop
      vertex 8.812362e+01 7.993920e+01 -9.464466e+02
      vertex 8.689639e+01 8.844766e+01 -9.464466e+02
      vertex 1.085651e+02 5.853933e+01 -9.464466e+02
    endloop
  endfacet
  facet normal 2.113875e-14 3.612960e-14 -1.000000e+00
    outer loop
      vertex 7.769790e+01 7.974582e+01 -9.464466e+02
      vertex 8.812362e+01 7.993920e+01 -9.464466e+02
      vertex 1.085651e+02 5.853933e+01 -9.464466e+02
    endloop
  endfacet
  facet normal 1.327301e-14 2.468057e-14 -1.000000e+00
    outer loop
      vertex 5.200210e+01 7.974582e+01 -9.464466e+02
      vertex 7.769790e+01 7.974582e+01 -9.464466e+02
      vertex 1.085651e+02 5.853933e+01 -9.464466e+02
    endloop
  endfacet
  facet normal 1.126280e-14 1.931884e-14 -1.000000e+00
    outer loop
      vertex 4.157638e+01 7.993920e+01 -9.464466e+02
      vertex 5.200210e+01 7.974582e+01 -9.464466e+02
      vertex 1.085651e+02 5.853933e+01 -9.464466e+02
    endloop
  endfacet
  facet normal 1.216899e-01 3.037265e-14 -9.925682e-01
    outer loop
      vertex 1.143000e+02 1.623516e+02 -9.457435e+02
      vertex 1.085651e+02 1.551277e+02 -9.464466e+02
      vertex 1.085651e+02 1.625576e+02 -9.464466e+02
    endloop
  endfacet
  facet normal 1.172330e-01 2.091029e-14 -9.931044e-01
    outer loop
      vertex 1.143233e+02 1.551277e+02 -9.457669e+02
      vertex 1.143233e+02 5.853933e+01 -9.457669e+02
      vertex 1.085651e+02 1.551277e+02 -9.464466e+02
    endloop
  endfacet
  facet normal 1.172322e-01 3.590408e-03 -9.930980e-01
    outer loop
      vertex 1.143000e+02 1.623516e+02 -9.457435e+02
      vertex 1.143233e+02 1.551277e+02 -9.457669e+02
      vertex 1.085651e+02 1.551277e+02 -9.464466e+02
    endloop
  endfacet
  facet normal 1.237079e-01 2.046857e-01 -9.709789e-01
    outer loop
      vertex 1.126998e+02 1.659224e+02 -9.452105e+02
      vertex 1.085651e+02 1.625576e+02 -9.464466e+02
      vertex 1.085651e+02 1.666360e+02 -9.455869e+02
    endloop
  endfacet
  facet normal 1.263245e-01 2.015850e-01 -9.712907e-01
    outer loop
      vertex 1.126998e+02 1.659224e+02 -9.452105e+02
      vertex 1.143000e+02 1.623516e+02 -9.457435e+02
      vertex 1.085651e+02 1.625576e+02 -9.464466e+02
    endloop
  endfacet
  facet normal -3.894100e-02 3.043636e-14 -9.992415e-01
    outer loop
      vertex 7.900945e+01 9.545070e+01 -9.461466e+02
      vertex 8.670757e+01 1.031186e+02 -9.464466e+02
      vertex 8.670757e+01 9.568872e+01 -9.464466e+02
    endloop
  endfacet
  facet normal 1.544107e-14 -3.909425e-02 -9.992355e-01
    outer loop
      vertex 7.900945e+01 9.545070e+01 -9.461466e+02
      vertex 7.942171e+01 1.031186e+02 -9.464466e+02
      vertex 8.670757e+01 1.031186e+02 -9.464466e+02
    endloop
  endfacet
  facet normal 1.566602e-14 3.180914e-14 -1.000000e+00
    outer loop
      vertex 8.689639e+01 8.844766e+01 -9.464466e+02
      vertex 7.915231e+01 8.868760e+01 -9.464466e+02
      vertex 8.670757e+01 9.568872e+01 -9.464466e+02
    endloop
  endfacet
  facet normal -4.024502e-02 4.343046e-02 -9.982455e-01
    outer loop
      vertex 7.900945e+01 9.545070e+01 -9.461466e+02
      vertex 8.670757e+01 9.568872e+01 -9.464466e+02
      vertex 7.915231e+01 8.868760e+01 -9.464466e+02
    endloop
  endfacet
  facet normal 1.401137e-14 3.586333e-14 -1.000000e+00
    outer loop
      vertex 7.213586e+01 8.825884e+01 -9.464466e+02
      vertex 7.915231e+01 8.868760e+01 -9.464466e+02
      vertex 7.769790e+01 7.974582e+01 -9.464466e+02
    endloop
  endfacet
  facet normal -2.704485e-03 4.425761e-02 -9.990165e-01
    outer loop
      vertex 7.900945e+01 9.545070e+01 -9.461466e+02
      vertex 7.915231e+01 8.868760e+01 -9.464466e+02
      vertex 7.213586e+01 8.825884e+01 -9.464466e+02
    endloop
  endfacet
  facet normal 1.654363e-14 3.751780e-14 -1.000000e+00
    outer loop
      vertex 5.054769e+01 8.868760e+01 -9.464466e+02
      vertex 7.213586e+01 8.825884e+01 -9.464466e+02
      vertex 7.769790e+01 7.974582e+01 -9.464466e+02
    endloop
  endfacet
  facet normal 1.327301e-14 2.758712e-14 -1.000000e+00
    outer loop
      vertex 5.200210e+01 7.974582e+01 -9.464466e+02
      vertex 5.054769e+01 8.868760e+01 -9.464466e+02
      vertex 7.769790e+01 7.974582e+01 -9.464466e+02
    endloop
  endfacet
  facet normal 1.560377e-14 3.060261e-14 -1.000000e+00
    outer loop
      vertex 5.756414e+01 9.568872e+01 -9.464466e+02
      vertex 7.213586e+01 9.568872e+01 -9.464466e+02
      vertex 7.213586e+01 8.825884e+01 -9.464466e+02
    endloop
  endfacet
  facet normal 4.360376e-02 3.057106e-14 -9.990489e-01
    outer loop
      vertex 7.900945e+01 9.545070e+01 -9.461466e+02
      vertex 7.213586e+01 8.825884e+01 -9.464466e+02
      vertex 7.213586e+01 9.568872e+01 -9.464466e+02
    endloop
  endfacet
  facet normal 1.643882e-14 3.224033e-14 -1.000000e+00
    outer loop
      vertex 5.054769e+01 8.868760e+01 -9.464466e+02
      vertex 5.756414e+01 9.568872e+01 -9.464466e+02
      vertex 7.213586e+01 8.825884e+01 -9.464466e+02
    endloop
  endfacet
  facet normal 1.560377e-14 3.060261e-14 -1.000000e+00
    outer loop
      vertex 5.756414e+01 1.031186e+02 -9.464466e+02
      vertex 7.942171e+01 1.031186e+02 -9.464466e+02
      vertex 7.213586e+01 9.568872e+01 -9.464466e+02
    endloop
  endfacet
  facet normal 4.213832e-02 -4.132151e-02 -9.982569e-01
    outer loop
      vertex 7.900945e+01 9.545070e+01 -9.461466e+02
      vertex 7.213586e+01 9.568872e+01 -9.464466e+02
      vertex 7.942171e+01 1.031186e+02 -9.464466e+02
    endloop
  endfacet
  facet normal 1.560377e-14 3.060261e-14 -1.000000e+00
    outer loop
      vertex 5.756414e+01 9.568872e+01 -9.464466e+02
      vertex 5.756414e+01 1.031186e+02 -9.464466e+02
      vertex 7.213586e+01 9.568872e+01 -9.464466e+02
    endloop
  endfacet
  facet normal 1.559199e-14 -3.909425e-02 -9.992355e-01
    outer loop
      vertex 5.069055e+01 9.545070e+01 -9.461466e+02
      vertex 5.027829e+01 1.031186e+02 -9.464466e+02
      vertex 5.756414e+01 1.031186e+02 -9.464466e+02
    endloop
  endfacet
  facet normal 3.777079e-02 -3.703864e-02 -9.985998e-01
    outer loop
      vertex 5.069055e+01 9.545070e+01 -9.461466e+02
      vertex 4.299243e+01 9.568872e+01 -9.464466e+02
      vertex 5.027829e+01 1.031186e+02 -9.464466e+02
    endloop
  endfacet
  facet normal -4.360376e-02 3.061450e-14 -9.990489e-01
    outer loop
      vertex 5.069055e+01 9.545070e+01 -9.461466e+02
      vertex 5.756414e+01 1.031186e+02 -9.464466e+02
      vertex 5.756414e+01 9.568872e+01 -9.464466e+02
    endloop
  endfacet
  facet normal -4.512204e-02 4.522085e-02 -9.979575e-01
    outer loop
      vertex 5.069055e+01 9.545070e+01 -9.461466e+02
      vertex 5.756414e+01 9.568872e+01 -9.464466e+02
      vertex 5.054769e+01 8.868760e+01 -9.464466e+02
    endloop
  endfacet
  facet normal -9.870288e-01 -1.605435e-01 -9.787552e-15
    outer loop
      vertex 5.054769e+01 8.868760e+01 -9.404466e+02
      vertex 5.054769e+01 8.868760e+01 -9.464466e+02
      vertex 5.200210e+01 7.974582e+01 -9.464466e+02
    endloop
  endfacet
  facet normal -1.373916e-03 4.434371e-02 -9.990154e-01
    outer loop
      vertex 5.069055e+01 9.545070e+01 -9.461466e+02
      vertex 5.054769e+01 8.868760e+01 -9.464466e+02
      vertex 4.280361e+01 8.844766e+01 -9.464466e+02
    endloop
  endfacet
  facet normal 3.890966e-02 -1.014636e-03 -9.992422e-01
    outer loop
      vertex 5.069055e+01 9.545070e+01 -9.461466e+02
      vertex 4.280361e+01 8.844766e+01 -9.464466e+02
      vertex 4.299243e+01 9.568872e+01 -9.464466e+02
    endloop
  endfacet
  facet normal 2.048335e-01 4.254435e-02 9.778718e-01
    outer loop
      vertex 5.027829e+01 1.105485e+02 -9.424466e+02
      vertex 4.231216e+01 1.106620e+02 -9.407829e+02
      vertex 4.258363e+01 1.030504e+02 -9.405086e+02
    endloop
  endfacet
  facet normal 0.000000e+00 9.831993e-01 1.825355e-01
    outer loop
      vertex 4.749290e+01 1.022406e+02 -9.361466e+02
      vertex 4.258363e+01 1.030504e+02 -9.405086e+02
      vertex 4.518321e+01 1.022406e+02 -9.361466e+02
    endloop
  endfacet
  facet normal 2.917551e-02 9.881610e-01 1.506207e-01
    outer loop
      vertex 5.027829e+01 1.031186e+02 -9.424466e+02
      vertex 4.258363e+01 1.030504e+02 -9.405086e+02
      vertex 4.749290e+01 1.022406e+02 -9.361466e+02
    endloop
  endfacet
  facet normal 2.442368e-01 -2.967583e-14 9.697156e-01
    outer loop
      vertex 5.027829e+01 1.105485e+02 -9.424466e+02
      vertex 4.258363e+01 1.030504e+02 -9.405086e+02
      vertex 5.027829e+01 1.031186e+02 -9.424466e+02
    endloop
  endfacet
  facet normal 2.044377e-01 -2.995627e-14 9.788796e-01
    outer loop
      vertex 5.027829e+01 1.179784e+02 -9.424466e+02
      vertex 4.231216e+01 1.106620e+02 -9.407829e+02
      vertex 5.027829e+01 1.105485e+02 -9.424466e+02
    endloop
  endfacet
  facet normal -1.633237e-01 -5.952781e-01 7.867461e-01
    outer loop
      vertex 5.697832e+01 8.692326e+01 -9.404466e+02
      vertex 4.975892e+01 9.458708e+01 -9.361466e+02
      vertex 5.054769e+01 8.868760e+01 -9.404466e+02
    endloop
  endfacet
  facet normal -1.884017e-01 -6.866818e-01 -7.021203e-01
    outer loop
      vertex 5.697832e+01 8.692326e+01 -9.404466e+02
      vertex 5.054769e+01 8.868760e+01 -9.404466e+02
      vertex 5.717848e+01 8.737958e+01 -9.409466e+02
    endloop
  endfacet
  facet normal -3.017545e-15 -3.598665e-14 1.000000e+00
    outer loop
      vertex 4.749290e+01 1.022406e+02 -9.361466e+02
      vertex 4.850892e+01 9.583708e+01 -9.361466e+02
      vertex 5.027829e+01 9.568872e+01 -9.361466e+02
    endloop
  endfacet
  facet normal 0.000000e+00 -3.550787e-14 1.000000e+00
    outer loop
      vertex 4.749290e+01 1.022406e+02 -9.361466e+02
      vertex 4.518321e+01 1.022406e+02 -9.361466e+02
      vertex 4.850892e+01 9.583708e+01 -9.361466e+02
    endloop
  endfacet
  facet normal 0.000000e+00 0.000000e+00 1.000000e+00
    outer loop
      vertex 5.100892e+01 9.583708e+01 -9.361466e+02
      vertex 5.027829e+01 9.568872e+01 -9.361466e+02
      vertex 4.975892e+01 9.458708e+01 -9.361466e+02
    endloop
  endfacet
  facet normal 2.674522e-01 -2.674522e-01 9.257098e-01
    outer loop
      vertex 5.697832e+01 8.692326e+01 -9.404466e+02
      vertex 5.100892e+01 9.583708e+01 -9.361466e+02
      vertex 4.975892e+01 9.458708e+01 -9.361466e+02
    endloop
  endfacet
  facet normal 5.044823e-01 2.144704e-01 8.363612e-01
    outer loop
      vertex 5.756414e+01 1.031186e+02 -9.424466e+02
      vertex 4.749290e+01 1.022406e+02 -9.361466e+02
      vertex 5.027829e+01 9.568872e+01 -9.361466e+02
    endloop
  endfacet
  facet normal -1.460404e-01 7.191954e-01 6.792865e-01
    outer loop
      vertex 5.756414e+01 1.031186e+02 -9.424466e+02
      vertex 5.027829e+01 9.568872e+01 -9.361466e+02
      vertex 5.100892e+01 9.583708e+01 -9.361466e+02
    endloop
  endfacet
  facet normal -3.477239e-14 9.904270e-01 1.380373e-01
    outer loop
      vertex 5.756414e+01 1.031186e+02 -9.424466e+02
      vertex 5.027829e+01 1.031186e+02 -9.424466e+02
      vertex 4.749290e+01 1.022406e+02 -9.361466e+02
    endloop
  endfacet
  facet normal 0.000000e+00 -3.060261e-14 1.000000e+00
    outer loop
      vertex 7.942171e+01 1.105485e+02 -9.424466e+02
      vertex 5.027829e+01 1.105485e+02 -9.424466e+02
      vertex 5.027829e+01 1.031186e+02 -9.424466e+02
    endloop
  endfacet
  facet normal 1.074411e-27 -3.060261e-14 1.000000e+00
    outer loop
      vertex 7.942171e+01 1.105485e+02 -9.424466e+02
      vertex 5.027829e+01 1.031186e+02 -9.424466e+02
      vertex 5.756414e+01 1.031186e+02 -9.424466e+02
    endloop
  endfacet
  facet normal 0.000000e+00 -3.060261e-14 1.000000e+00
    outer loop
      vertex 7.213586e+01 1.179784e+02 -9.424466e+02
      vertex 5.027829e+01 1.179784e+02 -9.424466e+02
      vertex 5.027829e+01 1.105485e+02 -9.424466e+02
    endloop
  endfacet
  facet normal 0.000000e+00 -3.060261e-14 1.000000e+00
    outer loop
      vertex 7.942171e+01 1.179784e+02 -9.424466e+02
      vertex 7.213586e+01 1.179784e+02 -9.424466e+02
      vertex 5.027829e+01 1.105485e+02 -9.424466e+02
    endloop
  endfacet
  facet normal 0.000000e+00 -3.060261e-14 1.000000e+00
    outer loop
      vertex 7.942171e+01 1.105485e+02 -9.424466e+02
      vertex 7.942171e+01 1.179784e+02 -9.424466e+02
      vertex 5.027829e+01 1.105485e+02 -9.424466e+02
    endloop
  endfacet
  facet normal 2.231122e-01 -2.187873e-01 9.499227e-01
    outer loop
      vertex 5.756414e+01 1.254082e+02 -9.424466e+02
      vertex 4.995129e+01 1.257635e+02 -9.405767e+02
      vertex 5.027829e+01 1.179784e+02 -9.424466e+02
    endloop
  endfacet
  facet normal 0.000000e+00 -3.060261e-14 1.000000e+00
    outer loop
      vertex 7.213586e+01 1.254082e+02 -9.424466e+02
      vertex 5.756414e+01 1.254082e+02 -9.424466e+02
      vertex 5.027829e+01 1.179784e+02 -9.424466e+02
    endloop
  endfacet
  facet normal 0.000000e+00 -3.060261e-14 1.000000e+00
    outer loop
      vertex 7.213586e+01 1.179784e+02 -9.424466e+02
      vertex 7.213586e+01 1.254082e+02 -9.424466e+02
      vertex 5.027829e+01 1.179784e+02 -9.424466e+02
    endloop
  endfacet
  facet normal 6.907890e-01 9.727995e-02 7.164825e-01
    outer loop
      vertex 5.756414e+01 9.568872e+01 -9.424466e+02
      vertex 5.100892e+01 9.583708e+01 -9.361466e+02
      vertex 5.717848e+01 8.737958e+01 -9.409466e+02
    endloop
  endfacet
  facet normal 7.898997e-01 2.613713e-01 5.547463e-01
    outer loop
      vertex 5.697832e+01 8.692326e+01 -9.404466e+02
      vertex 5.717848e+01 8.737958e+01 -9.409466e+02
      vertex 5.100892e+01 9.583708e+01 -9.361466e+02
    endloop
  endfacet
  facet normal 3.465064e-16 1.776526e-01 9.840933e-01
    outer loop
      vertex 6.485000e+01 9.568872e+01 -9.424466e+02
      vertex 5.756414e+01 9.568872e+01 -9.424466e+02
      vertex 5.717848e+01 8.737958e+01 -9.409466e+02
    endloop
  endfacet
  facet normal 1.918946e-01 -3.003388e-14 9.814155e-01
    outer loop
      vertex 6.485000e+01 9.568872e+01 -9.424466e+02
      vertex 5.717848e+01 8.737958e+01 -9.409466e+02
      vertex 6.485000e+01 8.825884e+01 -9.424466e+02
    endloop
  endfacet
  facet normal 6.929318e-01 -2.869130e-14 7.210031e-01
    outer loop
      vertex 5.756414e+01 1.031186e+02 -9.424466e+02
      vertex 5.100892e+01 9.583708e+01 -9.361466e+02
      vertex 5.756414e+01 9.568872e+01 -9.424466e+02
    endloop
  endfacet
  facet normal -5.372056e-28 -3.060261e-14 1.000000e+00
    outer loop
      vertex 7.213586e+01 1.031186e+02 -9.424466e+02
      vertex 5.756414e+01 1.031186e+02 -9.424466e+02
      vertex 5.756414e+01 9.568872e+01 -9.424466e+02
    endloop
  endfacet
  facet normal -5.968951e-29 -3.060261e-14 1.000000e+00
    outer loop
      vertex 6.485000e+01 9.568872e+01 -9.424466e+02
      vertex 7.213586e+01 1.031186e+02 -9.424466e+02
      vertex 5.756414e+01 9.568872e+01 -9.424466e+02
    endloop
  endfacet
  facet normal -5.372056e-28 -3.060261e-14 1.000000e+00
    outer loop
      vertex 7.213586e+01 1.031186e+02 -9.424466e+02
      vertex 7.942171e+01 1.105485e+02 -9.424466e+02
      vertex 5.756414e+01 1.031186e+02 -9.424466e+02
    endloop
  endfacet
  facet normal 0.000000e+00 -9.616038e-01 2.744414e-01
    outer loop
      vertex 6.038979e+01 1.272062e+02 -9.361466e+02
      vertex 5.756414e+01 1.254082e+02 -9.424466e+02
      vertex 7.213586e+01 1.254082e+02 -9.424466e+02
    endloop
  endfacet
  facet normal -9.155331e-01 1.821109e-01 3.586569e-01
    outer loop
      vertex 6.038979e+01 1.272062e+02 -9.361466e+02
      vertex 6.073467e+01 1.289400e+02 -9.361466e+02
      vertex 5.756414e+01 1.254082e+02 -9.424466e+02
    endloop
  endfacet
  facet normal -2.385310e-01 -2.973618e-14 9.711349e-01
    outer loop
      vertex 7.974871e+01 1.257635e+02 -9.405767e+02
      vertex 7.213586e+01 1.254082e+02 -9.424466e+02
      vertex 7.213586e+01 1.179784e+02 -9.424466e+02
    endloop
  endfacet
  facet normal 3.063807e-15 -9.616038e-01 2.744414e-01
    outer loop
      vertex 6.931021e+01 1.272062e+02 -9.361466e+02
      vertex 6.038979e+01 1.272062e+02 -9.361466e+02
      vertex 7.213586e+01 1.254082e+02 -9.424466e+02
    endloop
  endfacet
  facet normal 9.155331e-01 1.821109e-01 3.586569e-01
    outer loop
      vertex 6.896533e+01 1.289400e+02 -9.361466e+02
      vertex 6.931021e+01 1.272062e+02 -9.361466e+02
      vertex 7.213586e+01 1.254082e+02 -9.424466e+02
    endloop
  endfacet
  facet normal 0.000000e+00 -2.335445e-01 9.723461e-01
    outer loop
      vertex 7.974871e+01 1.257635e+02 -9.405767e+02
      vertex 7.213586e+01 1.179784e+02 -9.424466e+02
      vertex 7.942171e+01 1.179784e+02 -9.424466e+02
    endloop
  endfacet
  facet normal 0.000000e+00 -3.060261e-14 1.000000e+00
    outer loop
      vertex 7.213586e+01 1.031186e+02 -9.424466e+02
      vertex 7.942171e+01 1.031186e+02 -9.424466e+02
      vertex 7.942171e+01 1.105485e+02 -9.424466e+02
    endloop
  endfacet
  facet normal -2.044379e-01 -2.993674e-14 9.788795e-01
    outer loop
      vertex 8.738784e+01 1.106620e+02 -9.407829e+02
      vertex 7.942171e+01 1.105485e+02 -9.424466e+02
      vertex 7.942171e+01 1.031186e+02 -9.424466e+02
    endloop
  endfacet
  facet normal 0.000000e+00 9.904270e-01 1.380373e-01
    outer loop
      vertex 8.220710e+01 1.022406e+02 -9.361466e+02
      vertex 7.942171e+01 1.031186e+02 -9.424466e+02
      vertex 7.213586e+01 1.031186e+02 -9.424466e+02
    endloop
  endfacet
  facet normal 0.000000e+00 9.904270e-01 1.380373e-01
    outer loop
      vertex 8.220710e+01 1.022406e+02 -9.361466e+02
      vertex 8.451679e+01 1.022406e+02 -9.361466e+02
      vertex 7.942171e+01 1.031186e+02 -9.424466e+02
    endloop
  endfacet
  facet normal -3.248667e-02 9.859767e-01 1.636904e-01
    outer loop
      vertex 8.711637e+01 1.030504e+02 -9.405086e+02
      vertex 7.942171e+01 1.031186e+02 -9.424466e+02
      vertex 8.451679e+01 1.022406e+02 -9.361466e+02
    endloop
  endfacet
  facet normal -2.436411e-01 4.360449e-02 9.688848e-01
    outer loop
      vertex 8.738784e+01 1.106620e+02 -9.407829e+02
      vertex 7.942171e+01 1.031186e+02 -9.424466e+02
      vertex 8.711637e+01 1.030504e+02 -9.405086e+02
    endloop
  endfacet
  facet normal 0.000000e+00 -3.060261e-14 1.000000e+00
    outer loop
      vertex 6.485000e+01 9.568872e+01 -9.424466e+02
      vertex 7.213586e+01 9.568872e+01 -9.424466e+02
      vertex 7.213586e+01 1.031186e+02 -9.424466e+02
    endloop
  endfacet
  facet normal -6.929318e-01 -2.198390e-14 7.210031e-01
    outer loop
      vertex 7.869108e+01 9.583708e+01 -9.361466e+02
      vertex 7.213586e+01 1.031186e+02 -9.424466e+02
      vertex 7.213586e+01 9.568872e+01 -9.424466e+02
    endloop
  endfacet
  facet normal -4.934097e-01 2.709214e-01 8.265280e-01
    outer loop
      vertex 8.220710e+01 1.022406e+02 -9.361466e+02
      vertex 7.213586e+01 1.031186e+02 -9.424466e+02
      vertex 7.869108e+01 9.583708e+01 -9.361466e+02
    endloop
  endfacet
  facet normal 0.000000e+00 -3.060261e-14 1.000000e+00
    outer loop
      vertex 6.485000e+01 9.568872e+01 -9.424466e+02
      vertex 6.485000e+01 8.825884e+01 -9.424466e+02
      vertex 7.213586e+01 9.568872e+01 -9.424466e+02
    endloop
  endfacet
  facet normal -1.706771e-01 1.673687e-01 9.710083e-01
    outer loop
      vertex 7.252152e+01 8.737959e+01 -9.409466e+02
      vertex 7.213586e+01 9.568872e+01 -9.424466e+02
      vertex 6.485000e+01 8.825884e+01 -9.424466e+02
    endloop
  endfacet
  facet normal -6.907890e-01 9.728004e-02 7.164825e-01
    outer loop
      vertex 7.869108e+01 9.583708e+01 -9.361466e+02
      vertex 7.213586e+01 9.568872e+01 -9.424466e+02
      vertex 7.252152e+01 8.737959e+01 -9.409466e+02
    endloop
  endfacet
  facet normal 0.000000e+00 0.000000e+00 1.000000e+00
    outer loop
      vertex 6.931021e+01 1.272062e+02 -9.361466e+02
      vertex 6.073467e+01 1.289400e+02 -9.361466e+02
      vertex 6.038979e+01 1.272062e+02 -9.361466e+02
    endloop
  endfacet
  facet normal 0.000000e+00 0.000000e+00 1.000000e+00
    outer loop
      vertex 6.896533e+01 1.289400e+02 -9.361466e+02
      vertex 6.073467e+01 1.289400e+02 -9.361466e+02
      vertex 6.931021e+01 1.272062e+02 -9.361466e+02
    endloop
  endfacet
  facet normal -7.898998e-01 2.613717e-01 5.547460e-01
    outer loop
      vertex 7.272167e+01 8.692326e+01 -9.404466e+02
      vertex 7.869108e+01 9.583708e+01 -9.361466e+02
      vertex 7.252152e+01 8.737959e+01 -9.409466e+02
    endloop
  endfacet
  facet normal 7.217765e-01 -3.424491e-01 -6.014709e-01
    outer loop
      vertex 7.994108e+01 9.458708e+01 -9.361466e+02
      vertex 7.272167e+01 8.692326e+01 -9.404466e+02
      vertex 7.252152e+01 8.737959e+01 -9.409466e+02
    endloop
  endfacet
  facet normal -7.912118e-02 -3.896427e-01 9.175611e-01
    outer loop
      vertex 7.942171e+01 9.568872e+01 -9.361466e+02
      vertex 7.869108e+01 9.583708e+01 -9.361466e+02
      vertex 7.272167e+01 8.692326e+01 -9.404466e+02
    endloop
  endfacet
  facet normal 0.000000e+00 0.000000e+00 1.000000e+00
    outer loop
      vertex 8.119108e+01 9.583708e+01 -9.361466e+02
      vertex 7.869108e+01 9.583708e+01 -9.361466e+02
      vertex 7.942171e+01 9.568872e+01 -9.361466e+02
    endloop
  endfacet
  facet normal 0.000000e+00 -3.550787e-14 1.000000e+00
    outer loop
      vertex 8.220710e+01 1.022406e+02 -9.361466e+02
      vertex 7.869108e+01 9.583708e+01 -9.361466e+02
      vertex 8.451679e+01 1.022406e+02 -9.361466e+02
    endloop
  endfacet
  facet normal 2.018389e-28 -3.550787e-14 1.000000e+00
    outer loop
      vertex 8.119108e+01 9.583708e+01 -9.361466e+02
      vertex 8.451679e+01 1.022406e+02 -9.361466e+02
      vertex 7.869108e+01 9.583708e+01 -9.361466e+02
    endloop
  endfacet
  facet normal -3.634914e-01 -1.713664e-01 9.157006e-01
    outer loop
      vertex 7.942171e+01 9.568872e+01 -9.361466e+02
      vertex 7.272167e+01 8.692326e+01 -9.404466e+02
      vertex 7.994108e+01 9.458708e+01 -9.361466e+02
    endloop
  endfacet
  facet normal 0.000000e+00 0.000000e+00 1.000000e+00
    outer loop
      vertex 8.119108e+01 9.583708e+01 -9.361466e+02
      vertex 7.942171e+01 9.568872e+01 -9.361466e+02
      vertex 7.994108e+01 9.458708e+01 -9.361466e+02
    endloop
  endfacet
endsolid SIM_ICUB3_R_FOOT_FRONT
