solid SIM_ICUB3_L_UPPERARM
  facet normal -7.408568e-01 -6.001512e-01 -3.015787e-01
    outer loop
      vertex -1.930579e+02 -2.194796e+01 -1.845677e+02
      vertex -2.021438e+02 -1.032782e+01 -1.853719e+02
      vertex -1.887431e+02 -2.223932e+01 -1.945876e+02
    endloop
  endfacet
  facet normal -7.444376e-01 -5.752462e-01 -3.389756e-01
    outer loop
      vertex -1.986084e+02 -1.000337e+01 -1.936866e+02
      vertex -1.887431e+02 -2.223932e+01 -1.945876e+02
      vertex -2.021438e+02 -1.032782e+01 -1.853719e+02
    endloop
  endfacet
  facet normal -4.854561e-01 -8.546366e-01 -1.841974e-01
    outer loop
      vertex -1.773479e+02 -3.037247e+01 -1.868838e+02
      vertex -1.930579e+02 -2.194796e+01 -1.845677e+02
      vertex -1.887431e+02 -2.223932e+01 -1.945876e+02
    endloop
  endfacet
  facet normal -4.065062e-01 -2.633283e-01 -8.748776e-01
    outer loop
      vertex -1.818234e+02 -2.006844e+01 -1.984562e+02
      vertex -1.887431e+02 -2.223932e+01 -1.945876e+02
      vertex -1.986084e+02 -1.000337e+01 -1.936866e+02
    endloop
  endfacet
  facet normal -3.859705e-01 -8.591140e-01 -3.360803e-01
    outer loop
      vertex -1.743559e+02 -2.779193e+01 -1.969165e+02
      vertex -1.773479e+02 -3.037247e+01 -1.868838e+02
      vertex -1.887431e+02 -2.223932e+01 -1.945876e+02
    endloop
  endfacet
  facet normal -3.144963e-01 -4.686385e-01 -8.255120e-01
    outer loop
      vertex -1.818234e+02 -2.006844e+01 -1.984562e+02
      vertex -1.743559e+02 -2.779193e+01 -1.969165e+02
      vertex -1.887431e+02 -2.223932e+01 -1.945876e+02
    endloop
  endfacet
  facet normal -7.874953e-01 -6.093511e-01 9.242535e-02
    outer loop
      vertex -1.976443e+02 -1.082722e+01 -1.503274e+02
      vertex -2.021438e+02 -1.032782e+01 -1.853719e+02
      vertex -1.930579e+02 -2.194796e+01 -1.845677e+02
    endloop
  endfacet
  facet normal -9.057742e-01 -1.622707e-01 -3.914605e-01
    outer loop
      vertex -2.078163e+02 1.484084e+01 -1.826797e+02
      vertex -1.986084e+02 -1.000337e+01 -1.936866e+02
      vertex -2.021438e+02 -1.032782e+01 -1.853719e+02
    endloop
  endfacet
  facet normal -9.711961e-01 -2.048138e-01 1.217762e-01
    outer loop
      vertex -2.030492e+02 1.426705e+01 -1.512274e+02
      vertex -2.021438e+02 -1.032782e+01 -1.853719e+02
      vertex -1.976443e+02 -1.082722e+01 -1.503274e+02
    endloop
  endfacet
  facet normal -9.623405e-01 -2.320419e-01 1.416239e-01
    outer loop
      vertex -2.030492e+02 1.426705e+01 -1.512274e+02
      vertex -2.078163e+02 1.484084e+01 -1.826797e+02
      vertex -2.021438e+02 -1.032782e+01 -1.853719e+02
    endloop
  endfacet
  facet normal -4.704284e-01 -8.822509e-01 1.817713e-02
    outer loop
      vertex -1.764707e+02 -3.003645e+01 -1.478718e+02
      vertex -1.930579e+02 -2.194796e+01 -1.845677e+02
      vertex -1.773479e+02 -3.037247e+01 -1.868838e+02
    endloop
  endfacet
  facet normal -8.092541e-01 -5.819038e-01 8.059633e-02
    outer loop
      vertex -1.893362e+02 -2.214005e+01 -1.485856e+02
      vertex -1.976443e+02 -1.082722e+01 -1.503274e+02
      vertex -1.930579e+02 -2.194796e+01 -1.845677e+02
    endloop
  endfacet
  facet normal -5.244504e-01 -8.499888e-01 4.970729e-02
    outer loop
      vertex -1.764707e+02 -3.003645e+01 -1.478718e+02
      vertex -1.893362e+02 -2.214005e+01 -1.485856e+02
      vertex -1.930579e+02 -2.194796e+01 -1.845677e+02
    endloop
  endfacet
  facet normal -1.715047e-01 1.735417e-01 -9.697780e-01
    outer loop
      vertex -1.776220e+02 -2.395893e+00 -1.960367e+02
      vertex -1.818234e+02 -2.006844e+01 -1.984562e+02
      vertex -1.986084e+02 -1.000337e+01 -1.936866e+02
    endloop
  endfacet
  facet normal -9.154973e-01 -1.798663e-01 -3.598788e-01
    outer loop
      vertex -2.038663e+02 8.940073e+00 -1.897788e+02
      vertex -1.986084e+02 -1.000337e+01 -1.936866e+02
      vertex -2.078163e+02 1.484084e+01 -1.826797e+02
    endloop
  endfacet
  facet normal -1.652730e-01 1.550514e-01 -9.739835e-01
    outer loop
      vertex -1.776220e+02 -2.395893e+00 -1.960367e+02
      vertex -1.986084e+02 -1.000337e+01 -1.936866e+02
      vertex -2.038663e+02 8.940073e+00 -1.897788e+02
    endloop
  endfacet
  facet normal -8.261416e-02 -9.589455e-01 -2.712905e-01
    outer loop
      vertex -1.539775e+02 -3.214745e+01 -1.877265e+02
      vertex -1.773479e+02 -3.037247e+01 -1.868838e+02
      vertex -1.743559e+02 -2.779193e+01 -1.969165e+02
    endloop
  endfacet
  facet normal -1.600587e-01 -9.870333e-01 1.210075e-02
    outer loop
      vertex -1.541993e+02 -3.362742e+01 -1.461928e+02
      vertex -1.764707e+02 -3.003645e+01 -1.478718e+02
      vertex -1.773479e+02 -3.037247e+01 -1.868838e+02
    endloop
  endfacet
  facet normal -7.697038e-02 -9.963863e-01 -3.591532e-02
    outer loop
      vertex -1.541993e+02 -3.362742e+01 -1.461928e+02
      vertex -1.773479e+02 -3.037247e+01 -1.868838e+02
      vertex -1.539775e+02 -3.214745e+01 -1.877265e+02
    endloop
  endfacet
  facet normal -5.723354e-02 -2.481162e-01 -9.670381e-01
    outer loop
      vertex -1.515167e+02 -2.253350e+01 -1.996174e+02
      vertex -1.743559e+02 -2.779193e+01 -1.969165e+02
      vertex -1.818234e+02 -2.006844e+01 -1.984562e+02
    endloop
  endfacet
  facet normal -7.285210e-02 -9.540604e-01 -2.906222e-01
    outer loop
      vertex -1.564189e+02 -2.903628e+01 -1.973279e+02
      vertex -1.539775e+02 -3.214745e+01 -1.877265e+02
      vertex -1.743559e+02 -2.779193e+01 -1.969165e+02
    endloop
  endfacet
  facet normal -4.284973e-02 -3.028966e-01 -9.520596e-01
    outer loop
      vertex -1.515167e+02 -2.253350e+01 -1.996174e+02
      vertex -1.564189e+02 -2.903628e+01 -1.973279e+02
      vertex -1.743559e+02 -2.779193e+01 -1.969165e+02
    endloop
  endfacet
  facet normal -2.159509e-01 1.826555e-01 -9.591675e-01
    outer loop
      vertex -1.394852e+02 2.257961e+01 -1.998669e+02
      vertex -1.818234e+02 -2.006844e+01 -1.984562e+02
      vertex -1.776220e+02 -2.395893e+00 -1.960367e+02
    endloop
  endfacet
  facet normal -3.791446e-02 4.586001e-03 -9.992705e-01
    outer loop
      vertex -1.394852e+02 2.257961e+01 -1.998669e+02
      vertex -1.515167e+02 -2.253350e+01 -1.996174e+02
      vertex -1.818234e+02 -2.006844e+01 -1.984562e+02
    endloop
  endfacet
  facet normal 5.658817e-01 5.147429e-01 6.440634e-01
    outer loop
      vertex -1.877720e+02 -2.328156e+01 -1.490477e+02
      vertex -1.976443e+02 -1.082722e+01 -1.503274e+02
      vertex -1.893362e+02 -2.214005e+01 -1.485856e+02
    endloop
  endfacet
  facet normal -7.842896e-01 -6.202324e-01 1.419578e-02
    outer loop
      vertex -1.873134e+02 -2.295951e+01 -1.096401e+02
      vertex -1.976443e+02 -1.082722e+01 -1.503274e+02
      vertex -1.877720e+02 -2.328156e+01 -1.490477e+02
    endloop
  endfacet
  facet normal -9.740392e-01 -2.064638e-01 9.284551e-02
    outer loop
      vertex -1.992753e+02 1.397598e+01 -1.122827e+02
      vertex -2.030492e+02 1.426705e+01 -1.512274e+02
      vertex -1.976443e+02 -1.082722e+01 -1.503274e+02
    endloop
  endfacet
  facet normal -9.887963e-01 -1.408479e-01 4.943462e-02
    outer loop
      vertex -1.958485e+02 -9.787502e+00 -1.114453e+02
      vertex -1.992753e+02 1.397598e+01 -1.122827e+02
      vertex -1.976443e+02 -1.082722e+01 -1.503274e+02
    endloop
  endfacet
  facet normal -8.413437e-01 -5.378719e-01 5.324097e-02
    outer loop
      vertex -1.873134e+02 -2.295951e+01 -1.096401e+02
      vertex -1.958485e+02 -9.787502e+00 -1.114453e+02
      vertex -1.976443e+02 -1.082722e+01 -1.503274e+02
    endloop
  endfacet
  facet normal 5.145948e-01 8.140951e-01 -2.691493e-01
    outer loop
      vertex -1.877720e+02 -2.328156e+01 -1.490477e+02
      vertex -1.893362e+02 -2.214005e+01 -1.485856e+02
      vertex -1.764707e+02 -3.003645e+01 -1.478718e+02
    endloop
  endfacet
  facet normal -5.140012e-01 -8.576911e-01 1.299088e-02
    outer loop
      vertex -1.873134e+02 -2.295951e+01 -1.096401e+02
      vertex -1.877720e+02 -2.328156e+01 -1.490477e+02
      vertex -1.764707e+02 -3.003645e+01 -1.478718e+02
    endloop
  endfacet
  facet normal -5.530659e-01 -8.331334e-01 -2.633875e-03
    outer loop
      vertex -1.734042e+02 -3.219214e+01 -1.098942e+02
      vertex -1.873134e+02 -2.295951e+01 -1.096401e+02
      vertex -1.764707e+02 -3.003645e+01 -1.478718e+02
    endloop
  endfacet
  facet normal -1.552038e-01 -9.865514e-01 -5.126527e-02
    outer loop
      vertex -1.518965e+02 -3.596149e+01 -1.082475e+02
      vertex -1.764707e+02 -3.003645e+01 -1.478718e+02
      vertex -1.541993e+02 -3.362742e+01 -1.461928e+02
    endloop
  endfacet
  facet normal -1.693339e-01 -9.846541e-01 -4.221839e-02
    outer loop
      vertex -1.518965e+02 -3.596149e+01 -1.082475e+02
      vertex -1.734042e+02 -3.219214e+01 -1.098942e+02
      vertex -1.764707e+02 -3.003645e+01 -1.478718e+02
    endloop
  endfacet
  facet normal -6.687302e-01 3.448309e-01 -6.587044e-01
    outer loop
      vertex -2.014895e+02 3.958370e+01 -1.761498e+02
      vertex -2.038663e+02 8.940073e+00 -1.897788e+02
      vertex -2.078163e+02 1.484084e+01 -1.826797e+02
    endloop
  endfacet
  facet normal -9.746972e-01 1.650529e-01 1.507411e-01
    outer loop
      vertex -1.999763e+02 4.411988e+01 -1.640448e+02
      vertex -2.078163e+02 1.484084e+01 -1.826797e+02
      vertex -2.030492e+02 1.426705e+01 -1.512274e+02
    endloop
  endfacet
  facet normal -9.703101e-01 2.398133e-01 3.143200e-02
    outer loop
      vertex -1.999763e+02 4.411988e+01 -1.640448e+02
      vertex -2.014895e+02 3.958370e+01 -1.761498e+02
      vertex -2.078163e+02 1.484084e+01 -1.826797e+02
    endloop
  endfacet
  facet normal -2.177203e-01 3.441306e-02 -9.754043e-01
    outer loop
      vertex -1.747754e+02 4.105176e+01 -1.951392e+02
      vertex -1.776220e+02 -2.395893e+00 -1.960367e+02
      vertex -2.038663e+02 8.940073e+00 -1.897788e+02
    endloop
  endfacet
  facet normal -9.956978e-01 8.887987e-02 -2.619603e-02
    outer loop
      vertex -2.021175e+02 3.053987e+01 -1.829652e+02
      vertex -2.038663e+02 8.940073e+00 -1.897788e+02
      vertex -2.014895e+02 3.958370e+01 -1.761498e+02
    endloop
  endfacet
  facet normal -4.816971e-01 2.988653e-01 -8.238006e-01
    outer loop
      vertex -1.747754e+02 4.105176e+01 -1.951392e+02
      vertex -2.038663e+02 8.940073e+00 -1.897788e+02
      vertex -2.021175e+02 3.053987e+01 -1.829652e+02
    endloop
  endfacet
  facet normal -8.668224e-02 2.625067e-02 -9.958901e-01
    outer loop
      vertex -1.359899e+02 3.480167e+01 -1.986799e+02
      vertex -1.776220e+02 -2.395893e+00 -1.960367e+02
      vertex -1.747754e+02 4.105176e+01 -1.951392e+02
    endloop
  endfacet
  facet normal -1.956062e-01 1.500614e-01 -9.691335e-01
    outer loop
      vertex -1.359899e+02 3.480167e+01 -1.986799e+02
      vertex -1.394852e+02 2.257961e+01 -1.998669e+02
      vertex -1.776220e+02 -2.395893e+00 -1.960367e+02
    endloop
  endfacet
  facet normal -9.653146e-01 2.430521e-01 9.535971e-02
    outer loop
      vertex -1.933043e+02 3.829388e+01 -1.138198e+02
      vertex -2.030492e+02 1.426705e+01 -1.512274e+02
      vertex -1.992753e+02 1.397598e+01 -1.122827e+02
    endloop
  endfacet
  facet normal -9.751753e-01 1.641782e-01 1.485891e-01
    outer loop
      vertex -1.933043e+02 3.829388e+01 -1.138198e+02
      vertex -1.999763e+02 4.411988e+01 -1.640448e+02
      vertex -2.030492e+02 1.426705e+01 -1.512274e+02
    endloop
  endfacet
  facet normal -9.847078e-01 -1.382654e-01 1.059867e-01
    outer loop
      vertex -1.951179e+02 1.384578e+01 -7.382619e+01
      vertex -1.992753e+02 1.397598e+01 -1.122827e+02
      vertex -1.958485e+02 -9.787502e+00 -1.114453e+02
    endloop
  endfacet
  facet normal -9.562309e-01 2.733927e-01 1.043017e-01
    outer loop
      vertex -1.889682e+02 3.645237e+01 -7.670208e+01
      vertex -1.992753e+02 1.397598e+01 -1.122827e+02
      vertex -1.951179e+02 1.384578e+01 -7.382619e+01
    endloop
  endfacet
  facet normal -9.617516e-01 2.440165e-01 1.244580e-01
    outer loop
      vertex -1.889682e+02 3.645237e+01 -7.670208e+01
      vertex -1.933043e+02 3.829388e+01 -1.138198e+02
      vertex -1.992753e+02 1.397598e+01 -1.122827e+02
    endloop
  endfacet
  facet normal -8.411651e-01 -5.389293e-01 4.468124e-02
    outer loop
      vertex -1.858780e+02 -2.195894e+01 -7.054947e+01
      vertex -1.958485e+02 -9.787502e+00 -1.114453e+02
      vertex -1.873134e+02 -2.295951e+01 -1.096401e+02
    endloop
  endfacet
  facet normal -9.916442e-01 -9.968367e-02 8.188332e-02
    outer loop
      vertex -1.927341e+02 -9.936740e+00 -7.390984e+01
      vertex -1.951179e+02 1.384578e+01 -7.382619e+01
      vertex -1.958485e+02 -9.787502e+00 -1.114453e+02
    endloop
  endfacet
  facet normal -8.748727e-01 -4.791672e-01 7.068565e-02
    outer loop
      vertex -1.858780e+02 -2.195894e+01 -7.054947e+01
      vertex -1.927341e+02 -9.936740e+00 -7.390984e+01
      vertex -1.958485e+02 -9.787502e+00 -1.114453e+02
    endloop
  endfacet
  facet normal -5.520286e-01 -8.327875e-01 4.158615e-02
    outer loop
      vertex -1.734042e+02 -3.219214e+01 -1.098942e+02
      vertex -1.858780e+02 -2.195894e+01 -7.054947e+01
      vertex -1.873134e+02 -2.295951e+01 -1.096401e+02
    endloop
  endfacet
  facet normal -9.934213e-01 -9.977149e-02 5.621132e-02
    outer loop
      vertex -1.930379e+02 1.233637e+01 -3.974582e+01
      vertex -1.951179e+02 1.384578e+01 -7.382619e+01
      vertex -1.927341e+02 -9.936740e+00 -7.390984e+01
    endloop
  endfacet
  facet normal -9.650978e-01 2.523399e-01 7.007766e-02
    outer loop
      vertex -1.877234e+02 3.430640e+01 -4.566630e+01
      vertex -1.951179e+02 1.384578e+01 -7.382619e+01
      vertex -1.930379e+02 1.233637e+01 -3.974582e+01
    endloop
  endfacet
  facet normal -9.614917e-01 2.688257e-01 5.715241e-02
    outer loop
      vertex -1.877234e+02 3.430640e+01 -4.566630e+01
      vertex -1.889682e+02 3.645237e+01 -7.670208e+01
      vertex -1.951179e+02 1.384578e+01 -7.382619e+01
    endloop
  endfacet
  facet normal -8.740312e-01 -4.825161e-01 5.698759e-02
    outer loop
      vertex -1.840720e+02 -2.073062e+01 -3.244918e+01
      vertex -1.927341e+02 -9.936740e+00 -7.390984e+01
      vertex -1.858780e+02 -2.195894e+01 -7.054947e+01
    endloop
  endfacet
  facet normal -9.910060e-01 -1.159598e-01 6.678673e-02
    outer loop
      vertex -1.900837e+02 -1.108481e+01 -3.657609e+01
      vertex -1.930379e+02 1.233637e+01 -3.974582e+01
      vertex -1.927341e+02 -9.936740e+00 -7.390984e+01
    endloop
  endfacet
  facet normal -8.563299e-01 -5.144674e-01 4.497117e-02
    outer loop
      vertex -1.840720e+02 -2.073062e+01 -3.244918e+01
      vertex -1.900837e+02 -1.108481e+01 -3.657609e+01
      vertex -1.927341e+02 -9.936740e+00 -7.390984e+01
    endloop
  endfacet
  facet normal -6.232181e-01 -7.801332e-01 5.469319e-02
    outer loop
      vertex -1.742189e+02 -3.134821e+01 -7.162246e+01
      vertex -1.840720e+02 -2.073062e+01 -3.244918e+01
      vertex -1.858780e+02 -2.195894e+01 -7.054947e+01
    endloop
  endfacet
  facet normal -6.269965e-01 -7.790127e-01 3.832124e-03
    outer loop
      vertex -1.742189e+02 -3.134821e+01 -7.162246e+01
      vertex -1.858780e+02 -2.195894e+01 -7.054947e+01
      vertex -1.734042e+02 -3.219214e+01 -1.098942e+02
    endloop
  endfacet
  facet normal -9.118196e-01 -6.004009e-02 4.061776e-01
    outer loop
      vertex -1.877017e+02 9.543896e+00 -2.817950e+01
      vertex -1.930379e+02 1.233637e+01 -3.974582e+01
      vertex -1.900837e+02 -1.108481e+01 -3.657609e+01
    endloop
  endfacet
  facet normal -8.517357e-01 2.589999e-01 4.554837e-01
    outer loop
      vertex -1.845582e+02 2.783693e+01 -3.270318e+01
      vertex -1.930379e+02 1.233637e+01 -3.974582e+01
      vertex -1.877017e+02 9.543896e+00 -2.817950e+01
    endloop
  endfacet
  facet normal -8.756700e-01 3.113080e-01 3.691739e-01
    outer loop
      vertex -1.845582e+02 2.783693e+01 -3.270318e+01
      vertex -1.877234e+02 3.430640e+01 -4.566630e+01
      vertex -1.930379e+02 1.233637e+01 -3.974582e+01
    endloop
  endfacet
  facet normal -7.450378e-01 -1.909002e-01 6.391211e-01
    outer loop
      vertex -1.772860e+02 -1.725013e+01 -2.349903e+01
      vertex -1.900837e+02 -1.108481e+01 -3.657609e+01
      vertex -1.840720e+02 -2.073062e+01 -3.244918e+01
    endloop
  endfacet
  facet normal -8.872955e-01 -8.225850e-02 4.538065e-01
    outer loop
      vertex -1.851014e+02 -1.210831e+01 -2.702015e+01
      vertex -1.877017e+02 9.543896e+00 -2.817950e+01
      vertex -1.900837e+02 -1.108481e+01 -3.657609e+01
    endloop
  endfacet
  facet normal -6.058122e-01 -7.602867e-01 2.344266e-01
    outer loop
      vertex -1.772860e+02 -1.725013e+01 -2.349903e+01
      vertex -1.851014e+02 -1.210831e+01 -2.702015e+01
      vertex -1.900837e+02 -1.108481e+01 -3.657609e+01
    endloop
  endfacet
  facet normal -4.704193e-01 -6.413778e-01 6.060860e-01
    outer loop
      vertex -1.727304e+02 -3.234696e+01 -3.593907e+01
      vertex -1.772860e+02 -1.725013e+01 -2.349903e+01
      vertex -1.840720e+02 -2.073062e+01 -3.244918e+01
    endloop
  endfacet
  facet normal -7.139503e-01 -7.001222e-01 1.018540e-02
    outer loop
      vertex -1.727304e+02 -3.234696e+01 -3.593907e+01
      vertex -1.840720e+02 -2.073062e+01 -3.244918e+01
      vertex -1.742189e+02 -3.134821e+01 -7.162246e+01
    endloop
  endfacet
  facet normal -4.952226e-01 -1.296009e-02 8.686695e-01
    outer loop
      vertex -1.835441e+02 9.606466e+00 -2.580832e+01
      vertex -1.877017e+02 9.543896e+00 -2.817950e+01
      vertex -1.851014e+02 -1.210831e+01 -2.702015e+01
    endloop
  endfacet
  facet normal -4.706009e-01 3.349019e-01 8.163183e-01
    outer loop
      vertex -1.719758e+02 3.821738e+01 -3.087718e+01
      vertex -1.877017e+02 9.543896e+00 -2.817950e+01
      vertex -1.835441e+02 9.606466e+00 -2.580832e+01
    endloop
  endfacet
  facet normal -3.615385e-01 2.818985e-01 8.887199e-01
    outer loop
      vertex -1.719758e+02 3.821738e+01 -3.087718e+01
      vertex -1.845582e+02 2.783693e+01 -3.270318e+01
      vertex -1.877017e+02 9.543896e+00 -2.817950e+01
    endloop
  endfacet
  facet normal -4.217752e-01 -2.033737e-02 9.064723e-01
    outer loop
      vertex -1.835441e+02 9.606466e+00 -2.580832e+01
      vertex -1.851014e+02 -1.210831e+01 -2.702015e+01
      vertex -1.772860e+02 -1.725013e+01 -2.349903e+01
    endloop
  endfacet
  facet normal -3.495498e-02 7.752939e-02 9.963771e-01
    outer loop
      vertex -1.799280e+02 7.108113e+00 -2.548706e+01
      vertex -1.835441e+02 9.606466e+00 -2.580832e+01
      vertex -1.772860e+02 -1.725013e+01 -2.349903e+01
    endloop
  endfacet
  facet normal -7.241116e-01 -5.554193e-01 4.088665e-01
    outer loop
      vertex -1.694856e+02 -2.975365e+01 -2.666969e+01
      vertex -1.772860e+02 -1.725013e+01 -2.349903e+01
      vertex -1.727304e+02 -3.234696e+01 -3.593907e+01
    endloop
  endfacet
  facet normal -8.016153e-02 -2.917084e-01 9.531424e-01
    outer loop
      vertex -1.525156e+02 -2.574081e+01 -2.401434e+01
      vertex -1.772860e+02 -1.725013e+01 -2.349903e+01
      vertex -1.694856e+02 -2.975365e+01 -2.666969e+01
    endloop
  endfacet
  facet normal 5.040811e-02 8.667255e-02 9.949607e-01
    outer loop
      vertex -1.799280e+02 7.108113e+00 -2.548706e+01
      vertex -1.772860e+02 -1.725013e+01 -2.349903e+01
      vertex -1.525156e+02 -2.574081e+01 -2.401434e+01
    endloop
  endfacet
  facet normal -3.049961e-03 1.756432e-01 9.844492e-01
    outer loop
      vertex -1.523185e+02 5.108391e+01 -3.311189e+01
      vertex -1.719758e+02 3.821738e+01 -3.087718e+01
      vertex -1.835441e+02 9.606466e+00 -2.580832e+01
    endloop
  endfacet
  facet normal 2.131166e-02 1.577948e-01 9.872419e-01
    outer loop
      vertex -1.523185e+02 5.108391e+01 -3.311189e+01
      vertex -1.835441e+02 9.606466e+00 -2.580832e+01
      vertex -1.799280e+02 7.108113e+00 -2.548706e+01
    endloop
  endfacet
  facet normal -5.906445e-01 5.113962e-01 -6.241899e-01
    outer loop
      vertex -1.856725e+02 4.775041e+01 -1.844259e+02
      vertex -2.021175e+02 3.053987e+01 -1.829652e+02
      vertex -2.014895e+02 3.958370e+01 -1.761498e+02
    endloop
  endfacet
  facet normal -5.714992e-01 7.329924e-01 -3.689319e-01
    outer loop
      vertex -1.830932e+02 5.954840e+01 -1.649811e+02
      vertex -1.856725e+02 4.775041e+01 -1.844259e+02
      vertex -2.014895e+02 3.958370e+01 -1.761498e+02
    endloop
  endfacet
  facet normal -7.512771e-01 6.433679e-01 -1.471751e-01
    outer loop
      vertex -1.897198e+02 5.734121e+01 -1.586044e+02
      vertex -2.014895e+02 3.958370e+01 -1.761498e+02
      vertex -1.999763e+02 4.411988e+01 -1.640448e+02
    endloop
  endfacet
  facet normal -8.627877e-01 5.003608e-01 7.236368e-02
    outer loop
      vertex -1.932602e+02 5.284340e+01 -1.697161e+02
      vertex -2.014895e+02 3.958370e+01 -1.761498e+02
      vertex -1.897198e+02 5.734121e+01 -1.586044e+02
    endloop
  endfacet
  facet normal 2.279762e-01 3.068655e-01 -9.240457e-01
    outer loop
      vertex -1.830932e+02 5.954840e+01 -1.649811e+02
      vertex -2.014895e+02 3.958370e+01 -1.761498e+02
      vertex -1.932602e+02 5.284340e+01 -1.697161e+02
    endloop
  endfacet
  facet normal -4.980063e-01 4.110491e-01 -7.635629e-01
    outer loop
      vertex -1.747754e+02 4.105176e+01 -1.951392e+02
      vertex -2.021175e+02 3.053987e+01 -1.829652e+02
      vertex -1.856725e+02 4.775041e+01 -1.844259e+02
    endloop
  endfacet
  facet normal -2.791530e-02 8.345577e-01 -5.502128e-01
    outer loop
      vertex -1.646560e+02 4.818895e+01 -1.848270e+02
      vertex -1.747754e+02 4.105176e+01 -1.951392e+02
      vertex -1.856725e+02 4.775041e+01 -1.844259e+02
    endloop
  endfacet
  facet normal -7.223721e-02 8.569262e-01 -5.103521e-01
    outer loop
      vertex -1.654365e+02 5.040829e+01 -1.828274e+02
      vertex -1.856725e+02 4.775041e+01 -1.844259e+02
      vertex -1.830932e+02 5.954840e+01 -1.649811e+02
    endloop
  endfacet
  facet normal -2.811461e-02 6.636397e-01 -7.475238e-01
    outer loop
      vertex -1.654365e+02 5.040829e+01 -1.828274e+02
      vertex -1.646560e+02 4.818895e+01 -1.848270e+02
      vertex -1.856725e+02 4.775041e+01 -1.844259e+02
    endloop
  endfacet
  facet normal 7.070508e-02 7.863996e-01 -6.136583e-01
    outer loop
      vertex -1.359899e+02 3.480167e+01 -1.986799e+02
      vertex -1.747754e+02 4.105176e+01 -1.951392e+02
      vertex -1.646560e+02 4.818895e+01 -1.848270e+02
    endloop
  endfacet
  facet normal -8.346936e-01 5.233023e-01 1.715848e-01
    outer loop
      vertex -1.841335e+02 5.173281e+01 -1.101940e+02
      vertex -1.999763e+02 4.411988e+01 -1.640448e+02
      vertex -1.933043e+02 3.829388e+01 -1.138198e+02
    endloop
  endfacet
  facet normal -6.959467e-01 7.104778e-01 1.043047e-01
    outer loop
      vertex -1.872641e+02 5.436087e+01 -1.489833e+02
      vertex -1.999763e+02 4.411988e+01 -1.640448e+02
      vertex -1.841335e+02 5.173281e+01 -1.101940e+02
    endloop
  endfacet
  facet normal -7.277544e-01 6.666912e-01 1.609236e-01
    outer loop
      vertex -1.758832e+02 6.656677e+01 -1.480825e+02
      vertex -1.999763e+02 4.411988e+01 -1.640448e+02
      vertex -1.872641e+02 5.436087e+01 -1.489833e+02
    endloop
  endfacet
  facet normal -6.866198e-01 2.520450e-01 6.819285e-01
    outer loop
      vertex -1.758832e+02 6.656677e+01 -1.480825e+02
      vertex -1.897198e+02 5.734121e+01 -1.586044e+02
      vertex -1.999763e+02 4.411988e+01 -1.640448e+02
    endloop
  endfacet
  facet normal -8.350348e-01 5.328978e-01 1.368827e-01
    outer loop
      vertex -1.800542e+02 4.831369e+01 -7.199746e+01
      vertex -1.841335e+02 5.173281e+01 -1.101940e+02
      vertex -1.933043e+02 3.829388e+01 -1.138198e+02
    endloop
  endfacet
  facet normal -8.161927e-01 5.644588e-01 1.233518e-01
    outer loop
      vertex -1.800542e+02 4.831369e+01 -7.199746e+01
      vertex -1.933043e+02 3.829388e+01 -1.138198e+02
      vertex -1.889682e+02 3.645237e+01 -7.670208e+01
    endloop
  endfacet
  facet normal -6.275625e-01 7.717315e-01 1.029357e-01
    outer loop
      vertex -1.710612e+02 6.312471e+01 -1.159043e+02
      vertex -1.872641e+02 5.436087e+01 -1.489833e+02
      vertex -1.841335e+02 5.173281e+01 -1.101940e+02
    endloop
  endfacet
  facet normal -6.325684e-01 7.625039e-01 1.358124e-01
    outer loop
      vertex -1.678695e+02 5.934457e+01 -7.717714e+01
      vertex -1.841335e+02 5.173281e+01 -1.101940e+02
      vertex -1.800542e+02 4.831369e+01 -7.199746e+01
    endloop
  endfacet
  facet normal -6.196688e-01 7.745733e-01 1.266756e-01
    outer loop
      vertex -1.678695e+02 5.934457e+01 -7.717714e+01
      vertex -1.710612e+02 6.312471e+01 -1.159043e+02
      vertex -1.841335e+02 5.173281e+01 -1.101940e+02
    endloop
  endfacet
  facet normal -7.260554e-01 6.637140e-01 1.797977e-01
    outer loop
      vertex -1.710612e+02 6.312471e+01 -1.159043e+02
      vertex -1.758832e+02 6.656677e+01 -1.480825e+02
      vertex -1.872641e+02 5.436087e+01 -1.489833e+02
    endloop
  endfacet
  facet normal -8.178184e-01 5.565511e-01 1.463690e-01
    outer loop
      vertex -1.778038e+02 4.315388e+01 -3.980435e+01
      vertex -1.800542e+02 4.831369e+01 -7.199746e+01
      vertex -1.889682e+02 3.645237e+01 -7.670208e+01
    endloop
  endfacet
  facet normal -6.887346e-01 7.208629e-01 7.746848e-02
    outer loop
      vertex -1.778038e+02 4.315388e+01 -3.980435e+01
      vertex -1.889682e+02 3.645237e+01 -7.670208e+01
      vertex -1.877234e+02 3.430640e+01 -4.566630e+01
    endloop
  endfacet
  facet normal -7.522087e-01 6.403821e-01 1.552190e-01
    outer loop
      vertex -1.694199e+02 5.545059e+01 -4.990704e+01
      vertex -1.800542e+02 4.831369e+01 -7.199746e+01
      vertex -1.778038e+02 4.315388e+01 -3.980435e+01
    endloop
  endfacet
  facet normal -6.528057e-01 7.542297e-01 7.058510e-02
    outer loop
      vertex -1.694199e+02 5.545059e+01 -4.990704e+01
      vertex -1.678695e+02 5.934457e+01 -7.717714e+01
      vertex -1.800542e+02 4.831369e+01 -7.199746e+01
    endloop
  endfacet
  facet normal -6.865198e-01 3.459909e-01 6.395161e-01
    outer loop
      vertex -1.719758e+02 3.821738e+01 -3.087718e+01
      vertex -1.778038e+02 4.315388e+01 -3.980435e+01
      vertex -1.877234e+02 3.430640e+01 -4.566630e+01
    endloop
  endfacet
  facet normal -6.014356e-01 6.464345e-01 4.694653e-01
    outer loop
      vertex -1.719758e+02 3.821738e+01 -3.087718e+01
      vertex -1.877234e+02 3.430640e+01 -4.566630e+01
      vertex -1.845582e+02 2.783693e+01 -3.270318e+01
    endloop
  endfacet
  facet normal -3.768585e-01 6.842015e-01 6.243765e-01
    outer loop
      vertex -1.523185e+02 5.108391e+01 -3.311189e+01
      vertex -1.778038e+02 4.315388e+01 -3.980435e+01
      vertex -1.719758e+02 3.821738e+01 -3.087718e+01
    endloop
  endfacet
  facet normal -2.107504e-01 9.304000e-01 -2.999002e-01
    outer loop
      vertex -1.486597e+02 5.178436e+01 -3.351005e+01
      vertex -1.778038e+02 4.315388e+01 -3.980435e+01
      vertex -1.523185e+02 5.108391e+01 -3.311189e+01
    endloop
  endfacet
  facet normal -3.402816e-01 8.380273e-01 4.265192e-01
    outer loop
      vertex -1.483702e+02 6.074744e+01 -5.088978e+01
      vertex -1.778038e+02 4.315388e+01 -3.980435e+01
      vertex -1.486597e+02 5.178436e+01 -3.351005e+01
    endloop
  endfacet
  facet normal -1.384897e-01 6.833547e-01 7.168312e-01
    outer loop
      vertex -1.483702e+02 6.074744e+01 -5.088978e+01
      vertex -1.694199e+02 5.545059e+01 -4.990704e+01
      vertex -1.778038e+02 4.315388e+01 -3.980435e+01
    endloop
  endfacet
  facet normal -4.172704e-01 8.808455e-01 -2.235992e-01
    outer loop
      vertex -1.758832e+02 6.656677e+01 -1.480825e+02
      vertex -1.932602e+02 5.284340e+01 -1.697161e+02
      vertex -1.897198e+02 5.734121e+01 -1.586044e+02
    endloop
  endfacet
  facet normal -4.976120e-01 8.555299e-01 -1.430068e-01
    outer loop
      vertex -1.830932e+02 5.954840e+01 -1.649811e+02
      vertex -1.932602e+02 5.284340e+01 -1.697161e+02
      vertex -1.758832e+02 6.656677e+01 -1.480825e+02
    endloop
  endfacet
  facet normal -2.421158e-02 9.268639e-01 -3.746159e-01
    outer loop
      vertex -1.537110e+02 7.040501e+01 -1.400190e+02
      vertex -1.830932e+02 5.954840e+01 -1.649811e+02
      vertex -1.758832e+02 6.656677e+01 -1.480825e+02
    endloop
  endfacet
  facet normal -2.044677e-01 9.738895e-01 9.865181e-02
    outer loop
      vertex -1.513017e+02 6.799256e+01 -1.112098e+02
      vertex -1.537110e+02 7.040501e+01 -1.400190e+02
      vertex -1.758832e+02 6.656677e+01 -1.480825e+02
    endloop
  endfacet
  facet normal -2.684835e-01 9.527387e-01 1.421463e-01
    outer loop
      vertex -1.513017e+02 6.799256e+01 -1.112098e+02
      vertex -1.758832e+02 6.656677e+01 -1.480825e+02
      vertex -1.710612e+02 6.312471e+01 -1.159043e+02
    endloop
  endfacet
  facet normal 3.216219e-02 9.021496e-01 -4.302229e-01
    outer loop
      vertex -1.654365e+02 5.040829e+01 -1.828274e+02
      vertex -1.830932e+02 5.954840e+01 -1.649811e+02
      vertex -1.537110e+02 7.040501e+01 -1.400190e+02
    endloop
  endfacet
  facet normal 1.596784e-01 -9.264725e-01 -3.408100e-01
    outer loop
      vertex -1.220280e+02 -2.451651e+01 -1.935016e+02
      vertex -1.539775e+02 -3.214745e+01 -1.877265e+02
      vertex -1.564189e+02 -2.903628e+01 -1.973279e+02
    endloop
  endfacet
  facet normal 3.468523e-01 -9.373890e-01 -3.154932e-02
    outer loop
      vertex -1.323974e+02 -2.561540e+01 -1.445552e+02
      vertex -1.541993e+02 -3.362742e+01 -1.461928e+02
      vertex -1.539775e+02 -3.214745e+01 -1.877265e+02
    endloop
  endfacet
  facet normal 2.370734e-01 -9.710759e-01 2.842297e-02
    outer loop
      vertex -1.323974e+02 -2.561540e+01 -1.445552e+02
      vertex -1.539775e+02 -3.214745e+01 -1.877265e+02
      vertex -1.220280e+02 -2.451651e+01 -1.935016e+02
    endloop
  endfacet
  facet normal 1.304902e-01 -4.153324e-01 -9.002618e-01
    outer loop
      vertex -1.218688e+02 -2.354423e+01 -1.948537e+02
      vertex -1.564189e+02 -2.903628e+01 -1.973279e+02
      vertex -1.515167e+02 -2.253350e+01 -1.996174e+02
    endloop
  endfacet
  facet normal 1.529290e-01 -9.578856e-01 -2.430389e-01
    outer loop
      vertex -1.220280e+02 -2.451651e+01 -1.935016e+02
      vertex -1.564189e+02 -2.903628e+01 -1.973279e+02
      vertex -1.220413e+02 -2.424087e+01 -1.945964e+02
    endloop
  endfacet
  facet normal 1.248539e-01 -3.708677e-01 -9.202547e-01
    outer loop
      vertex -1.218688e+02 -2.354423e+01 -1.948537e+02
      vertex -1.220413e+02 -2.424087e+01 -1.945964e+02
      vertex -1.564189e+02 -2.903628e+01 -1.973279e+02
    endloop
  endfacet
  facet normal 9.693532e-03 -8.114492e-03 -9.999201e-01
    outer loop
      vertex -1.218472e+02 2.196591e+01 -1.996909e+02
      vertex -1.515167e+02 -2.253350e+01 -1.996174e+02
      vertex -1.394852e+02 2.257961e+01 -1.998669e+02
    endloop
  endfacet
  facet normal 1.542977e-01 -1.044991e-01 -9.824827e-01
    outer loop
      vertex -1.218472e+02 2.196591e+01 -1.996909e+02
      vertex -1.218688e+02 -2.354423e+01 -1.948537e+02
      vertex -1.515167e+02 -2.253350e+01 -1.996174e+02
    endloop
  endfacet
  facet normal 3.376427e-01 -9.380212e-01 -7.818957e-02
    outer loop
      vertex -1.301122e+02 -2.823550e+01 -1.068640e+02
      vertex -1.518965e+02 -3.596149e+01 -1.082475e+02
      vertex -1.541993e+02 -3.362742e+01 -1.461928e+02
    endloop
  endfacet
  facet normal 3.493452e-01 -9.330354e-01 -8.604039e-02
    outer loop
      vertex -1.301122e+02 -2.823550e+01 -1.068640e+02
      vertex -1.541993e+02 -3.362742e+01 -1.461928e+02
      vertex -1.323974e+02 -2.561540e+01 -1.445552e+02
    endloop
  endfacet
  facet normal -1.715948e-01 -9.850731e-01 -1.364651e-02
    outer loop
      vertex -1.505174e+02 -3.672226e+01 -7.067211e+01
      vertex -1.734042e+02 -3.219214e+01 -1.098942e+02
      vertex -1.518965e+02 -3.596149e+01 -1.082475e+02
    endloop
  endfacet
  facet normal -2.217355e-01 -9.749625e-01 1.677920e-02
    outer loop
      vertex -1.505174e+02 -3.672226e+01 -7.067211e+01
      vertex -1.742189e+02 -3.134821e+01 -7.162246e+01
      vertex -1.734042e+02 -3.219214e+01 -1.098942e+02
    endloop
  endfacet
  facet normal 2.939846e-01 -9.553351e-01 -3.013174e-02
    outer loop
      vertex -1.298664e+02 -3.039824e+01 -6.969187e+01
      vertex -1.505174e+02 -3.672226e+01 -7.067211e+01
      vertex -1.518965e+02 -3.596149e+01 -1.082475e+02
    endloop
  endfacet
  facet normal 3.369254e-01 -9.398100e-01 -5.690763e-02
    outer loop
      vertex -1.298664e+02 -3.039824e+01 -6.969187e+01
      vertex -1.518965e+02 -3.596149e+01 -1.082475e+02
      vertex -1.301122e+02 -2.823550e+01 -1.068640e+02
    endloop
  endfacet
  facet normal -2.194519e-01 -9.748272e-01 -3.940554e-02
    outer loop
      vertex -1.506112e+02 -3.812189e+01 -3.552564e+01
      vertex -1.742189e+02 -3.134821e+01 -7.162246e+01
      vertex -1.505174e+02 -3.672226e+01 -7.067211e+01
    endloop
  endfacet
  facet normal -2.522900e-01 -9.675100e-01 -1.655598e-02
    outer loop
      vertex -1.506112e+02 -3.812189e+01 -3.552564e+01
      vertex -1.727304e+02 -3.234696e+01 -3.593907e+01
      vertex -1.742189e+02 -3.134821e+01 -7.162246e+01
    endloop
  endfacet
  facet normal 2.681300e-01 -9.626479e-01 -3.762043e-02
    outer loop
      vertex -1.284345e+02 -3.188513e+01 -3.705587e+01
      vertex -1.506112e+02 -3.812189e+01 -3.552564e+01
      vertex -1.505174e+02 -3.672226e+01 -7.067211e+01
    endloop
  endfacet
  facet normal 2.947906e-01 -9.538964e-01 -5.639339e-02
    outer loop
      vertex -1.284345e+02 -3.188513e+01 -3.705587e+01
      vertex -1.505174e+02 -3.672226e+01 -7.067211e+01
      vertex -1.298664e+02 -3.039824e+01 -6.969187e+01
    endloop
  endfacet
  facet normal -2.353432e-01 -8.704647e-01 4.323248e-01
    outer loop
      vertex -1.510569e+02 -3.330663e+01 -2.607299e+01
      vertex -1.727304e+02 -3.234696e+01 -3.593907e+01
      vertex -1.506112e+02 -3.812189e+01 -3.552564e+01
    endloop
  endfacet
  facet normal -1.891538e-01 -9.264604e-01 3.254106e-01
    outer loop
      vertex -1.510569e+02 -3.330663e+01 -2.607299e+01
      vertex -1.694856e+02 -2.975365e+01 -2.666969e+01
      vertex -1.727304e+02 -3.234696e+01 -3.593907e+01
    endloop
  endfacet
  facet normal 2.247235e-01 -8.639314e-01 4.506904e-01
    outer loop
      vertex -1.324811e+02 -3.012323e+01 -2.923299e+01
      vertex -1.510569e+02 -3.330663e+01 -2.607299e+01
      vertex -1.506112e+02 -3.812189e+01 -3.552564e+01
    endloop
  endfacet
  facet normal 2.760957e-01 -8.971253e-01 3.448729e-01
    outer loop
      vertex -1.324811e+02 -3.012323e+01 -2.923299e+01
      vertex -1.506112e+02 -3.812189e+01 -3.552564e+01
      vertex -1.284345e+02 -3.188513e+01 -3.705587e+01
    endloop
  endfacet
  facet normal -8.434567e-02 -2.767255e-01 9.572402e-01
    outer loop
      vertex -1.525156e+02 -2.574081e+01 -2.401434e+01
      vertex -1.694856e+02 -2.975365e+01 -2.666969e+01
      vertex -1.510569e+02 -3.330663e+01 -2.607299e+01
    endloop
  endfacet
  facet normal 2.343536e-01 -2.129151e-01 9.485492e-01
    outer loop
      vertex -1.211116e+02 -1.549996e+01 -2.947447e+01
      vertex -1.525156e+02 -2.574081e+01 -2.401434e+01
      vertex -1.510569e+02 -3.330663e+01 -2.607299e+01
    endloop
  endfacet
  facet normal 1.878936e-01 -1.300088e-01 9.735470e-01
    outer loop
      vertex -1.324811e+02 -3.012323e+01 -2.923299e+01
      vertex -1.211116e+02 -1.549996e+01 -2.947447e+01
      vertex -1.510569e+02 -3.330663e+01 -2.607299e+01
    endloop
  endfacet
  facet normal 1.303838e-01 1.527248e-01 9.796301e-01
    outer loop
      vertex -1.129208e+02 1.406486e+01 -3.548994e+01
      vertex -1.799280e+02 7.108113e+00 -2.548706e+01
      vertex -1.525156e+02 -2.574081e+01 -2.401434e+01
    endloop
  endfacet
  facet normal 1.157266e-01 1.671560e-01 9.791150e-01
    outer loop
      vertex -1.129208e+02 1.406486e+01 -3.548994e+01
      vertex -1.525156e+02 -2.574081e+01 -2.401434e+01
      vertex -1.211116e+02 -1.549996e+01 -2.947447e+01
    endloop
  endfacet
  facet normal 1.606170e-01 4.980276e-02 -9.857595e-01
    outer loop
      vertex -1.196807e+02 3.242041e+01 -1.961428e+02
      vertex -1.394852e+02 2.257961e+01 -1.998669e+02
      vertex -1.359899e+02 3.480167e+01 -1.986799e+02
    endloop
  endfacet
  facet normal 2.050532e-02 3.175004e-01 -9.480364e-01
    outer loop
      vertex -1.196807e+02 3.242041e+01 -1.961428e+02
      vertex -1.218472e+02 2.196591e+01 -1.996909e+02
      vertex -1.394852e+02 2.257961e+01 -1.998669e+02
    endloop
  endfacet
  facet normal 8.427168e-01 -5.366064e-01 -4.338101e-02
    outer loop
      vertex -1.523185e+02 5.108391e+01 -3.311189e+01
      vertex -1.799280e+02 7.108113e+00 -2.548706e+01
      vertex -1.714185e+02 2.209450e+01 -4.555867e+01
    endloop
  endfacet
  facet normal 6.523610e-03 7.999432e-01 6.000403e-01
    outer loop
      vertex -1.129208e+02 1.406486e+01 -3.548994e+01
      vertex -1.714185e+02 2.209450e+01 -4.555867e+01
      vertex -1.799280e+02 7.108113e+00 -2.548706e+01
    endloop
  endfacet
  facet normal 1.995251e-01 8.778268e-01 -4.354420e-01
    outer loop
      vertex -1.174838e+02 3.716147e+01 -1.854429e+02
      vertex -1.359899e+02 3.480167e+01 -1.986799e+02
      vertex -1.646560e+02 4.818895e+01 -1.848270e+02
    endloop
  endfacet
  facet normal 3.142054e-01 6.940883e-01 -6.477008e-01
    outer loop
      vertex -1.202101e+02 5.210975e+01 -1.590643e+02
      vertex -1.646560e+02 4.818895e+01 -1.848270e+02
      vertex -1.654365e+02 5.040829e+01 -1.828274e+02
    endloop
  endfacet
  facet normal 1.953461e-01 8.617782e-01 -4.681648e-01
    outer loop
      vertex -1.202101e+02 5.210975e+01 -1.590643e+02
      vertex -1.174838e+02 3.716147e+01 -1.854429e+02
      vertex -1.646560e+02 4.818895e+01 -1.848270e+02
    endloop
  endfacet
  facet normal 1.956278e-01 8.810979e-01 -4.305766e-01
    outer loop
      vertex -1.196807e+02 3.242041e+01 -1.961428e+02
      vertex -1.359899e+02 3.480167e+01 -1.986799e+02
      vertex -1.174838e+02 3.716147e+01 -1.854429e+02
    endloop
  endfacet
  facet normal 1.863073e-01 -4.887017e-01 8.523263e-01
    outer loop
      vertex -1.486597e+02 5.178436e+01 -3.351005e+01
      vertex -1.523185e+02 5.108391e+01 -3.311189e+01
      vertex -1.714185e+02 2.209450e+01 -4.555867e+01
    endloop
  endfacet
  facet normal 1.044201e-01 -4.416599e-01 8.910853e-01
    outer loop
      vertex -1.210607e+02 4.535901e+01 -3.992887e+01
      vertex -1.486597e+02 5.178436e+01 -3.351005e+01
      vertex -1.714185e+02 2.209450e+01 -4.555867e+01
    endloop
  endfacet
  facet normal -1.399532e-01 1.971522e-01 9.703320e-01
    outer loop
      vertex -1.118001e+02 1.547430e+01 -3.561468e+01
      vertex -1.714185e+02 2.209450e+01 -4.555867e+01
      vertex -1.129208e+02 1.406486e+01 -3.548994e+01
    endloop
  endfacet
  facet normal -1.535782e-01 9.440565e-02 9.836164e-01
    outer loop
      vertex -1.210607e+02 4.535901e+01 -3.992887e+01
      vertex -1.714185e+02 2.209450e+01 -4.555867e+01
      vertex -1.118001e+02 1.547430e+01 -3.561468e+01
    endloop
  endfacet
  facet normal 1.365147e-01 8.795197e-01 4.558606e-01
    outer loop
      vertex -1.295930e+02 5.240430e+01 -4.041597e+01
      vertex -1.483702e+02 6.074744e+01 -5.088978e+01
      vertex -1.486597e+02 5.178436e+01 -3.351005e+01
    endloop
  endfacet
  facet normal 2.971129e-01 4.191390e-01 8.579315e-01
    outer loop
      vertex -1.295930e+02 5.240430e+01 -4.041597e+01
      vertex -1.486597e+02 5.178436e+01 -3.351005e+01
      vertex -1.210607e+02 4.535901e+01 -3.992887e+01
    endloop
  endfacet
  facet normal 2.245417e-01 8.578611e-01 -4.622287e-01
    outer loop
      vertex -1.243544e+02 6.249969e+01 -1.404298e+02
      vertex -1.654365e+02 5.040829e+01 -1.828274e+02
      vertex -1.537110e+02 7.040501e+01 -1.400190e+02
    endloop
  endfacet
  facet normal 2.432517e-01 9.680607e-01 6.072105e-02
    outer loop
      vertex -1.291881e+02 6.238239e+01 -1.103565e+02
      vertex -1.537110e+02 7.040501e+01 -1.400190e+02
      vertex -1.513017e+02 6.799256e+01 -1.112098e+02
    endloop
  endfacet
  facet normal 2.603467e-01 9.644374e-01 4.560814e-02
    outer loop
      vertex -1.291881e+02 6.238239e+01 -1.103565e+02
      vertex -1.243544e+02 6.249969e+01 -1.404298e+02
      vertex -1.537110e+02 7.040501e+01 -1.400190e+02
    endloop
  endfacet
  facet normal 1.998212e-01 8.740273e-01 -4.428857e-01
    outer loop
      vertex -1.202101e+02 5.210975e+01 -1.590643e+02
      vertex -1.654365e+02 5.040829e+01 -1.828274e+02
      vertex -1.243544e+02 6.249969e+01 -1.404298e+02
    endloop
  endfacet
  facet normal -2.633321e-01 9.578005e-01 1.152148e-01
    outer loop
      vertex -1.491262e+02 6.419155e+01 -7.463893e+01
      vertex -1.513017e+02 6.799256e+01 -1.112098e+02
      vertex -1.710612e+02 6.312471e+01 -1.159043e+02
    endloop
  endfacet
  facet normal -2.632874e-01 9.578157e-01 1.151906e-01
    outer loop
      vertex -1.491262e+02 6.419155e+01 -7.463893e+01
      vertex -1.710612e+02 6.312471e+01 -1.159043e+02
      vertex -1.678695e+02 5.934457e+01 -7.717714e+01
    endloop
  endfacet
  facet normal 1.148481e-01 9.887400e-01 9.593290e-02
    outer loop
      vertex -1.270898e+02 6.040798e+01 -6.202455e+01
      vertex -1.513017e+02 6.799256e+01 -1.112098e+02
      vertex -1.491262e+02 6.419155e+01 -7.463893e+01
    endloop
  endfacet
  facet normal 2.447540e-01 9.691525e-01 2.896491e-02
    outer loop
      vertex -1.270898e+02 6.040798e+01 -6.202455e+01
      vertex -1.291881e+02 6.238239e+01 -1.103565e+02
      vertex -1.513017e+02 6.799256e+01 -1.112098e+02
    endloop
  endfacet
  facet normal -2.662209e-01 9.526934e-01 1.466345e-01
    outer loop
      vertex -1.483702e+02 6.074744e+01 -5.088978e+01
      vertex -1.491262e+02 6.419155e+01 -7.463893e+01
      vertex -1.678695e+02 5.934457e+01 -7.717714e+01
    endloop
  endfacet
  facet normal -2.366855e-01 9.636226e-01 1.241426e-01
    outer loop
      vertex -1.483702e+02 6.074744e+01 -5.088978e+01
      vertex -1.678695e+02 5.934457e+01 -7.717714e+01
      vertex -1.694199e+02 5.545059e+01 -4.990704e+01
    endloop
  endfacet
  facet normal 3.443325e-01 9.306232e-01 1.239980e-01
    outer loop
      vertex -1.295930e+02 5.240430e+01 -4.041597e+01
      vertex -1.491262e+02 6.419155e+01 -7.463893e+01
      vertex -1.483702e+02 6.074744e+01 -5.088978e+01
    endloop
  endfacet
  facet normal -3.549458e-02 9.384831e-01 3.434962e-01
    outer loop
      vertex -1.295930e+02 5.240430e+01 -4.041597e+01
      vertex -1.270898e+02 6.040798e+01 -6.202455e+01
      vertex -1.491262e+02 6.419155e+01 -7.463893e+01
    endloop
  endfacet
  facet normal 9.604587e-01 -2.670119e-01 -7.889009e-02
    outer loop
      vertex -1.203481e+02 -1.972039e+01 -1.892830e+02
      vertex -1.220280e+02 -2.451651e+01 -1.935016e+02
      vertex -1.220413e+02 -2.424087e+01 -1.945964e+02
    endloop
  endfacet
  facet normal 9.604587e-01 -2.670119e-01 -7.889009e-02
    outer loop
      vertex -1.218688e+02 -2.354423e+01 -1.948537e+02
      vertex -1.203481e+02 -1.972039e+01 -1.892830e+02
      vertex -1.220413e+02 -2.424087e+01 -1.945964e+02
    endloop
  endfacet
  facet normal 9.175247e-01 -3.899577e-01 7.798348e-02
    outer loop
      vertex -1.218325e+02 -1.485661e+01 -1.474973e+02
      vertex -1.220280e+02 -2.451651e+01 -1.935016e+02
      vertex -1.203481e+02 -1.972039e+01 -1.892830e+02
    endloop
  endfacet
  facet normal 7.253022e-01 -6.743514e-01 1.385167e-01
    outer loop
      vertex -1.323974e+02 -2.561540e+01 -1.445552e+02
      vertex -1.220280e+02 -2.451651e+01 -1.935016e+02
      vertex -1.218325e+02 -1.485661e+01 -1.474973e+02
    endloop
  endfacet
  facet normal 9.739999e-01 -1.712432e-01 -1.483240e-01
    outer loop
      vertex -1.135803e+02 1.508195e+01 -1.850205e+02
      vertex -1.203481e+02 -1.972039e+01 -1.892830e+02
      vertex -1.218688e+02 -2.354423e+01 -1.948537e+02
    endloop
  endfacet
  facet normal 8.463678e-01 -5.247421e-01 9.114438e-02
    outer loop
      vertex -1.148999e+02 -3.194736e+00 -1.447327e+02
      vertex -1.218325e+02 -1.485661e+01 -1.474973e+02
      vertex -1.203481e+02 -1.972039e+01 -1.892830e+02
    endloop
  endfacet
  facet normal 8.977116e-01 -1.227490e-01 -4.231388e-01
    outer loop
      vertex -1.099738e+02 1.755012e+01 -1.780853e+02
      vertex -1.203481e+02 -1.972039e+01 -1.892830e+02
      vertex -1.135803e+02 1.508195e+01 -1.850205e+02
    endloop
  endfacet
  facet normal -9.656078e-01 2.570614e-01 3.899913e-02
    outer loop
      vertex -1.099738e+02 1.755012e+01 -1.780853e+02
      vertex -1.200571e+02 -1.857803e+01 -1.896056e+02
      vertex -1.203481e+02 -1.972039e+01 -1.892830e+02
    endloop
  endfacet
  facet normal 9.670846e-01 -2.532908e-01 -2.431142e-02
    outer loop
      vertex -1.148999e+02 -3.194736e+00 -1.447327e+02
      vertex -1.203481e+02 -1.972039e+01 -1.892830e+02
      vertex -1.200571e+02 -1.857803e+01 -1.896056e+02
    endloop
  endfacet
  facet normal 8.587348e-01 -5.456167e-02 -5.095072e-01
    outer loop
      vertex -1.218472e+02 2.196591e+01 -1.996909e+02
      vertex -1.135803e+02 1.508195e+01 -1.850205e+02
      vertex -1.218688e+02 -2.354423e+01 -1.948537e+02
    endloop
  endfacet
  facet normal 6.983867e-01 -7.101564e-01 -8.907229e-02
    outer loop
      vertex -1.190924e+02 -1.701099e+01 -1.088369e+02
      vertex -1.323974e+02 -2.561540e+01 -1.445552e+02
      vertex -1.218325e+02 -1.485661e+01 -1.474973e+02
    endloop
  endfacet
  facet normal 8.753750e-01 -4.752700e-01 -8.852723e-02
    outer loop
      vertex -1.124562e+02 -5.186960e+00 -1.066953e+02
      vertex -1.190924e+02 -1.701099e+01 -1.088369e+02
      vertex -1.218325e+02 -1.485661e+01 -1.474973e+02
    endloop
  endfacet
  facet normal 8.650933e-01 -4.949455e-01 -8.150158e-02
    outer loop
      vertex -1.124562e+02 -5.186960e+00 -1.066953e+02
      vertex -1.218325e+02 -1.485661e+01 -1.474973e+02
      vertex -1.148999e+02 -3.194736e+00 -1.447327e+02
    endloop
  endfacet
  facet normal 7.024818e-01 -7.057755e-01 -9.165305e-02
    outer loop
      vertex -1.301122e+02 -2.823550e+01 -1.068640e+02
      vertex -1.323974e+02 -2.561540e+01 -1.445552e+02
      vertex -1.190924e+02 -1.701099e+01 -1.088369e+02
    endloop
  endfacet
  facet normal 7.074928e-01 -7.044766e-01 -5.627393e-02
    outer loop
      vertex -1.173676e+02 -1.838326e+01 -6.997318e+01
      vertex -1.301122e+02 -2.823550e+01 -1.068640e+02
      vertex -1.190924e+02 -1.701099e+01 -1.088369e+02
    endloop
  endfacet
  facet normal 8.791731e-01 -4.732326e-01 -5.572797e-02
    outer loop
      vertex -1.112024e+02 -7.064643e+00 -6.882453e+01
      vertex -1.173676e+02 -1.838326e+01 -6.997318e+01
      vertex -1.190924e+02 -1.701099e+01 -1.088369e+02
    endloop
  endfacet
  facet normal 8.748769e-01 -4.814547e-01 -5.283694e-02
    outer loop
      vertex -1.112024e+02 -7.064643e+00 -6.882453e+01
      vertex -1.190924e+02 -1.701099e+01 -1.088369e+02
      vertex -1.124562e+02 -5.186960e+00 -1.066953e+02
    endloop
  endfacet
  facet normal 6.917236e-01 -7.206635e-01 -4.650325e-02
    outer loop
      vertex -1.298664e+02 -3.039824e+01 -6.969187e+01
      vertex -1.301122e+02 -2.823550e+01 -1.068640e+02
      vertex -1.173676e+02 -1.838326e+01 -6.997318e+01
    endloop
  endfacet
  facet normal 6.925009e-01 -7.209747e-01 -2.525913e-02
    outer loop
      vertex -1.171264e+02 -1.938375e+01 -3.480346e+01
      vertex -1.298664e+02 -3.039824e+01 -6.969187e+01
      vertex -1.173676e+02 -1.838326e+01 -6.997318e+01
    endloop
  endfacet
  facet normal 7.994640e-01 -6.002902e-01 -2.255952e-02
    outer loop
      vertex -1.094331e+02 -8.900557e+00 -4.111565e+01
      vertex -1.171264e+02 -1.938375e+01 -3.480346e+01
      vertex -1.173676e+02 -1.838326e+01 -6.997318e+01
    endloop
  endfacet
  facet normal 8.785180e-01 -4.696804e-01 -8.721482e-02
    outer loop
      vertex -1.094331e+02 -8.900557e+00 -4.111565e+01
      vertex -1.173676e+02 -1.838326e+01 -6.997318e+01
      vertex -1.112024e+02 -7.064643e+00 -6.882453e+01
    endloop
  endfacet
  facet normal 7.457613e-01 -6.632337e-01 -6.293701e-02
    outer loop
      vertex -1.284345e+02 -3.188513e+01 -3.705587e+01
      vertex -1.298664e+02 -3.039824e+01 -6.969187e+01
      vertex -1.171264e+02 -1.938375e+01 -3.480346e+01
    endloop
  endfacet
  facet normal 4.447765e-01 -5.321214e-01 7.204309e-01
    outer loop
      vertex -1.211116e+02 -1.549996e+01 -2.947447e+01
      vertex -1.284345e+02 -3.188513e+01 -3.705587e+01
      vertex -1.171264e+02 -1.938375e+01 -3.480346e+01
    endloop
  endfacet
  facet normal 7.678867e-01 -8.351609e-02 6.351181e-01
    outer loop
      vertex -1.129208e+02 1.406486e+01 -3.548994e+01
      vertex -1.211116e+02 -1.549996e+01 -2.947447e+01
      vertex -1.171264e+02 -1.938375e+01 -3.480346e+01
    endloop
  endfacet
  facet normal 1.010401e-01 7.713458e-03 9.948525e-01
    outer loop
      vertex -1.118001e+02 1.547430e+01 -3.561468e+01
      vertex -1.129208e+02 1.406486e+01 -3.548994e+01
      vertex -1.171264e+02 -1.938375e+01 -3.480346e+01
    endloop
  endfacet
  facet normal 7.570718e-01 -1.006575e-01 6.455311e-01
    outer loop
      vertex -1.055432e+02 1.257406e+01 -4.340494e+01
      vertex -1.118001e+02 1.547430e+01 -3.561468e+01
      vertex -1.171264e+02 -1.938375e+01 -3.480346e+01
    endloop
  endfacet
  facet normal 6.669417e-01 -4.149915e-02 7.439533e-01
    outer loop
      vertex -1.094331e+02 -8.900557e+00 -4.111565e+01
      vertex -1.055432e+02 1.257406e+01 -4.340494e+01
      vertex -1.171264e+02 -1.938375e+01 -3.480346e+01
    endloop
  endfacet
  facet normal 6.962662e-01 -5.334088e-01 4.803004e-01
    outer loop
      vertex -1.324811e+02 -3.012323e+01 -2.923299e+01
      vertex -1.284345e+02 -3.188513e+01 -3.705587e+01
      vertex -1.211116e+02 -1.549996e+01 -2.947447e+01
    endloop
  endfacet
  facet normal 8.897443e-01 1.490473e-01 -4.314394e-01
    outer loop
      vertex -1.174838e+02 3.716147e+01 -1.854429e+02
      vertex -1.135803e+02 1.508195e+01 -1.850205e+02
      vertex -1.218472e+02 2.196591e+01 -1.996909e+02
    endloop
  endfacet
  facet normal 9.064171e-01 1.527149e-01 -3.938099e-01
    outer loop
      vertex -1.118869e+02 3.877080e+01 -1.719367e+02
      vertex -1.135803e+02 1.508195e+01 -1.850205e+02
      vertex -1.174838e+02 3.716147e+01 -1.854429e+02
    endloop
  endfacet
  facet normal 8.301601e-01 2.229064e-01 -5.110253e-01
    outer loop
      vertex -1.118869e+02 3.877080e+01 -1.719367e+02
      vertex -1.099738e+02 1.755012e+01 -1.780853e+02
      vertex -1.135803e+02 1.508195e+01 -1.850205e+02
    endloop
  endfacet
  facet normal 9.786750e-01 -1.584380e-01 -1.307392e-01
    outer loop
      vertex -1.196807e+02 3.242041e+01 -1.961428e+02
      vertex -1.174838e+02 3.716147e+01 -1.854429e+02
      vertex -1.218472e+02 2.196591e+01 -1.996909e+02
    endloop
  endfacet
  facet normal 7.390567e-01 3.149781e-01 5.954696e-01
    outer loop
      vertex -1.090524e+02 3.476862e+01 -4.923083e+01
      vertex -1.210607e+02 4.535901e+01 -3.992887e+01
      vertex -1.118001e+02 1.547430e+01 -3.561468e+01
    endloop
  endfacet
  facet normal 7.974004e-01 2.679999e-01 5.406743e-01
    outer loop
      vertex -1.090524e+02 3.476862e+01 -4.923083e+01
      vertex -1.118001e+02 1.547430e+01 -3.561468e+01
      vertex -1.055432e+02 1.257406e+01 -4.340494e+01
    endloop
  endfacet
  facet normal 6.626911e-02 -8.651507e-01 4.971143e-01
    outer loop
      vertex -1.202101e+02 5.210975e+01 -1.590643e+02
      vertex -1.243544e+02 6.249969e+01 -1.404298e+02
      vertex -1.174838e+02 3.716147e+01 -1.854429e+02
    endloop
  endfacet
  facet normal 4.891666e-01 7.898456e-01 -3.699459e-01
    outer loop
      vertex -1.152613e+02 5.267540e+01 -1.493815e+02
      vertex -1.174838e+02 3.716147e+01 -1.854429e+02
      vertex -1.243544e+02 6.249969e+01 -1.404298e+02
    endloop
  endfacet
  facet normal 5.885500e-01 7.288531e-01 -3.498315e-01
    outer loop
      vertex -1.129366e+02 4.783686e+01 -1.555513e+02
      vertex -1.174838e+02 3.716147e+01 -1.854429e+02
      vertex -1.152613e+02 5.267540e+01 -1.493815e+02
    endloop
  endfacet
  facet normal 6.308998e-01 6.952922e-01 -3.442880e-01
    outer loop
      vertex -1.118869e+02 3.877080e+01 -1.719367e+02
      vertex -1.174838e+02 3.716147e+01 -1.854429e+02
      vertex -1.129366e+02 4.783686e+01 -1.555513e+02
    endloop
  endfacet
  facet normal 6.188695e-01 7.625273e-01 1.885543e-01
    outer loop
      vertex -1.295930e+02 5.240430e+01 -4.041597e+01
      vertex -1.210607e+02 4.535901e+01 -3.992887e+01
      vertex -1.170554e+02 4.977143e+01 -7.091899e+01
    endloop
  endfacet
  facet normal 7.275277e-01 6.598249e-01 1.879746e-01
    outer loop
      vertex -1.090524e+02 3.476862e+01 -4.923083e+01
      vertex -1.170554e+02 4.977143e+01 -7.091899e+01
      vertex -1.210607e+02 4.535901e+01 -3.992887e+01
    endloop
  endfacet
  facet normal 7.833720e-01 6.081702e-01 1.282864e-01
    outer loop
      vertex -1.291881e+02 6.238239e+01 -1.103565e+02
      vertex -1.152613e+02 5.267540e+01 -1.493815e+02
      vertex -1.243544e+02 6.249969e+01 -1.404298e+02
    endloop
  endfacet
  facet normal 6.684105e-01 7.418287e-01 5.401427e-02
    outer loop
      vertex -1.161148e+02 5.054214e+01 -1.095220e+02
      vertex -1.152613e+02 5.267540e+01 -1.493815e+02
      vertex -1.291881e+02 6.238239e+01 -1.103565e+02
    endloop
  endfacet
  facet normal 8.710692e-01 4.891104e-01 4.482830e-02
    outer loop
      vertex -1.105415e+02 4.048508e+01 -1.080872e+02
      vertex -1.152613e+02 5.267540e+01 -1.493815e+02
      vertex -1.161148e+02 5.054214e+01 -1.095220e+02
    endloop
  endfacet
  facet normal 9.100792e-01 4.140342e-01 1.820669e-02
    outer loop
      vertex -1.105415e+02 4.048508e+01 -1.080872e+02
      vertex -1.129366e+02 4.783686e+01 -1.555513e+02
      vertex -1.152613e+02 5.267540e+01 -1.493815e+02
    endloop
  endfacet
  facet normal 6.712465e-01 7.412333e-01 1.137790e-03
    outer loop
      vertex -1.270898e+02 6.040798e+01 -6.202455e+01
      vertex -1.161148e+02 5.054214e+01 -1.095220e+02
      vertex -1.291881e+02 6.238239e+01 -1.103565e+02
    endloop
  endfacet
  facet normal 7.400301e-01 6.718382e-01 3.144551e-02
    outer loop
      vertex -1.170554e+02 4.977143e+01 -7.091899e+01
      vertex -1.161148e+02 5.054214e+01 -1.095220e+02
      vertex -1.270898e+02 6.040798e+01 -6.202455e+01
    endloop
  endfacet
  facet normal 7.198529e-01 6.934167e-01 3.138467e-02
    outer loop
      vertex -1.081997e+02 4.004576e+01 -5.915849e+01
      vertex -1.161148e+02 5.054214e+01 -1.095220e+02
      vertex -1.170554e+02 4.977143e+01 -7.091899e+01
    endloop
  endfacet
  facet normal 8.763206e-01 4.802563e-01 -3.763099e-02
    outer loop
      vertex -1.081997e+02 4.004576e+01 -5.915849e+01
      vertex -1.105415e+02 4.048508e+01 -1.080872e+02
      vertex -1.161148e+02 5.054214e+01 -1.095220e+02
    endloop
  endfacet
  facet normal 8.047952e-01 5.201625e-01 2.858944e-01
    outer loop
      vertex -1.295930e+02 5.240430e+01 -4.041597e+01
      vertex -1.170554e+02 4.977143e+01 -7.091899e+01
      vertex -1.270898e+02 6.040798e+01 -6.202455e+01
    endloop
  endfacet
  facet normal 2.934932e-01 8.334387e-01 4.682325e-01
    outer loop
      vertex -1.090524e+02 3.476862e+01 -4.923083e+01
      vertex -1.081997e+02 4.004576e+01 -5.915849e+01
      vertex -1.170554e+02 4.977143e+01 -7.091899e+01
    endloop
  endfacet
  facet normal 9.630207e-01 -2.694199e-01 2.022177e-03
    outer loop
      vertex -1.099738e+02 1.755012e+01 -1.780853e+02
      vertex -1.097381e+02 1.863554e+01 -1.457377e+02
      vertex -1.200571e+02 -1.857803e+01 -1.896056e+02
    endloop
  endfacet
  facet normal 9.723184e-01 -2.314002e-01 -3.241748e-02
    outer loop
      vertex -1.148999e+02 -3.194736e+00 -1.447327e+02
      vertex -1.200571e+02 -1.857803e+01 -1.896056e+02
      vertex -1.097381e+02 1.863554e+01 -1.457377e+02
    endloop
  endfacet
  facet normal 9.943825e-01 1.052956e-01 -1.077992e-02
    outer loop
      vertex -1.129366e+02 4.783686e+01 -1.555513e+02
      vertex -1.097381e+02 1.863554e+01 -1.457377e+02
      vertex -1.099738e+02 1.755012e+01 -1.780853e+02
    endloop
  endfacet
  facet normal 9.700216e-01 -2.326047e-01 -7.037829e-02
    outer loop
      vertex -1.073416e+02 1.704474e+01 -1.074486e+02
      vertex -1.148999e+02 -3.194736e+00 -1.447327e+02
      vertex -1.097381e+02 1.863554e+01 -1.457377e+02
    endloop
  endfacet
  facet normal 9.894386e-01 1.335377e-01 -5.638144e-02
    outer loop
      vertex -1.105415e+02 4.048508e+01 -1.080872e+02
      vertex -1.073416e+02 1.704474e+01 -1.074486e+02
      vertex -1.097381e+02 1.863554e+01 -1.457377e+02
    endloop
  endfacet
  facet normal 9.946503e-01 9.713637e-02 -3.514560e-02
    outer loop
      vertex -1.105415e+02 4.048508e+01 -1.080872e+02
      vertex -1.097381e+02 1.863554e+01 -1.457377e+02
      vertex -1.129366e+02 4.783686e+01 -1.555513e+02
    endloop
  endfacet
  facet normal 9.962442e-01 8.493728e-02 1.682739e-02
    outer loop
      vertex -1.118869e+02 3.877080e+01 -1.719367e+02
      vertex -1.129366e+02 4.783686e+01 -1.555513e+02
      vertex -1.099738e+02 1.755012e+01 -1.780853e+02
    endloop
  endfacet
  facet normal 9.713006e-01 -2.259733e-01 -7.423742e-02
    outer loop
      vertex -1.124562e+02 -5.186960e+00 -1.066953e+02
      vertex -1.148999e+02 -3.194736e+00 -1.447327e+02
      vertex -1.073416e+02 1.704474e+01 -1.074486e+02
    endloop
  endfacet
  facet normal 9.736374e-01 -2.252199e-01 -3.614111e-02
    outer loop
      vertex -1.063203e+02 1.550986e+01 -7.037053e+01
      vertex -1.124562e+02 -5.186960e+00 -1.066953e+02
      vertex -1.073416e+02 1.704474e+01 -1.074486e+02
    endloop
  endfacet
  facet normal 9.959085e-01 8.717041e-02 -2.382288e-02
    outer loop
      vertex -1.081997e+02 4.004576e+01 -5.915849e+01
      vertex -1.063203e+02 1.550986e+01 -7.037053e+01
      vertex -1.073416e+02 1.704474e+01 -1.074486e+02
    endloop
  endfacet
  facet normal 9.899209e-01 1.338815e-01 -4.617819e-02
    outer loop
      vertex -1.081997e+02 4.004576e+01 -5.915849e+01
      vertex -1.073416e+02 1.704474e+01 -1.074486e+02
      vertex -1.105415e+02 4.048508e+01 -1.080872e+02
    endloop
  endfacet
  facet normal 9.758923e-01 -2.139906e-01 -4.292016e-02
    outer loop
      vertex -1.112024e+02 -7.064643e+00 -6.882453e+01
      vertex -1.124562e+02 -5.186960e+00 -1.066953e+02
      vertex -1.063203e+02 1.550986e+01 -7.037053e+01
    endloop
  endfacet
  facet normal 9.753757e-01 -2.144634e-01 -5.145575e-02
    outer loop
      vertex -1.055432e+02 1.257406e+01 -4.340494e+01
      vertex -1.112024e+02 -7.064643e+00 -6.882453e+01
      vertex -1.063203e+02 1.550986e+01 -7.037053e+01
    endloop
  endfacet
  facet normal 9.881346e-01 1.531365e-01 -1.180202e-02
    outer loop
      vertex -1.090524e+02 3.476862e+01 -4.923083e+01
      vertex -1.055432e+02 1.257406e+01 -4.340494e+01
      vertex -1.063203e+02 1.550986e+01 -7.037053e+01
    endloop
  endfacet
  facet normal 9.944072e-01 2.987918e-02 1.012990e-01
    outer loop
      vertex -1.090524e+02 3.476862e+01 -4.923083e+01
      vertex -1.063203e+02 1.550986e+01 -7.037053e+01
      vertex -1.081997e+02 4.004576e+01 -5.915849e+01
    endloop
  endfacet
  facet normal 9.797975e-01 -1.854572e-01 -7.484987e-02
    outer loop
      vertex -1.094331e+02 -8.900557e+00 -4.111565e+01
      vertex -1.112024e+02 -7.064643e+00 -6.882453e+01
      vertex -1.055432e+02 1.257406e+01 -4.340494e+01
    endloop
  endfacet
endsolid SIM_ICUB3_L_UPPERARM
