solid SIM_ICUB3_L_ELBOW_1
  facet normal -3.171751e-01 8.079631e-02 -9.449190e-01
    outer loop
      vertex -2.083372e+02 2.403485e+01 -2.402059e+02
      vertex -2.117915e+02 4.180784e+01 -2.375267e+02
      vertex -2.055852e+02 2.414778e+01 -2.411200e+02
    endloop
  endfacet
  facet normal -7.797217e-01 -1.503507e-01 -6.078065e-01
    outer loop
      vertex -2.050204e+02 3.687549e+01 -2.449929e+02
      vertex -2.055852e+02 2.414778e+01 -2.411200e+02
      vertex -2.117915e+02 4.180784e+01 -2.375267e+02
    endloop
  endfacet
  facet normal 2.243822e-02 -9.981918e-01 -5.576375e-02
    outer loop
      vertex -1.932111e+02 2.355539e+01 -2.255369e+02
      vertex -2.083372e+02 2.403485e+01 -2.402059e+02
      vertex -2.055852e+02 2.414778e+01 -2.411200e+02
    endloop
  endfacet
  facet normal 2.602395e-01 -2.916332e-01 -9.204485e-01
    outer loop
      vertex -1.960887e+02 3.476065e+01 -2.417976e+02
      vertex -2.055852e+02 2.414778e+01 -2.411200e+02
      vertex -2.050204e+02 3.687549e+01 -2.449929e+02
    endloop
  endfacet
  facet normal -1.845468e-01 1.027258e-01 -9.774405e-01
    outer loop
      vertex -1.960887e+02 3.476065e+01 -2.417976e+02
      vertex -1.984849e+02 2.755624e+01 -2.421023e+02
      vertex -2.055852e+02 2.414778e+01 -2.411200e+02
    endloop
  endfacet
  facet normal 3.715455e-01 -8.685251e-01 -3.280520e-01
    outer loop
      vertex -1.932111e+02 2.355539e+01 -2.255369e+02
      vertex -2.055852e+02 2.414778e+01 -2.411200e+02
      vertex -1.984849e+02 2.755624e+01 -2.421023e+02
    endloop
  endfacet
  facet normal -9.796325e-01 -1.965759e-01 4.096570e-02
    outer loop
      vertex -2.100934e+02 4.741352e+01 -1.700201e+02
      vertex -2.117915e+02 4.180784e+01 -2.375267e+02
      vertex -2.083372e+02 2.403485e+01 -2.402059e+02
    endloop
  endfacet
  facet normal 3.119599e-01 8.979899e-01 -3.103148e-01
    outer loop
      vertex -1.607424e+02 3.886907e+01 -1.947111e+02
      vertex -2.050204e+02 3.687549e+01 -2.449929e+02
      vertex -2.117915e+02 4.180784e+01 -2.375267e+02
    endloop
  endfacet
  facet normal 6.141802e-01 3.477376e-01 -7.084216e-01
    outer loop
      vertex -1.582525e+02 4.385862e+01 -1.901033e+02
      vertex -1.607424e+02 3.886907e+01 -1.947111e+02
      vertex -2.117915e+02 4.180784e+01 -2.375267e+02
    endloop
  endfacet
  facet normal -8.625163e-01 5.056223e-01 -2.029011e-02
    outer loop
      vertex -2.058400e+02 5.461685e+01 -1.713269e+02
      vertex -2.117915e+02 4.180784e+01 -2.375267e+02
      vertex -2.100934e+02 4.741352e+01 -1.700201e+02
    endloop
  endfacet
  facet normal -4.298017e-01 8.929055e-01 -1.341279e-01
    outer loop
      vertex -2.069980e+02 4.402776e+01 -2.381090e+02
      vertex -2.117915e+02 4.180784e+01 -2.375267e+02
      vertex -2.058400e+02 5.461685e+01 -1.713269e+02
    endloop
  endfacet
  facet normal 3.548133e-01 -8.614572e-01 -3.633167e-01
    outer loop
      vertex -1.582525e+02 4.385862e+01 -1.901033e+02
      vertex -2.117915e+02 4.180784e+01 -2.375267e+02
      vertex -2.069980e+02 4.402776e+01 -2.381090e+02
    endloop
  endfacet
  facet normal -1.632801e-02 -9.997412e-01 -1.584000e-02
    outer loop
      vertex -1.609600e+02 2.229045e+01 -1.789449e+02
      vertex -2.083372e+02 2.403485e+01 -2.402059e+02
      vertex -1.932111e+02 2.355539e+01 -2.255369e+02
    endloop
  endfacet
  facet normal -9.468563e-01 -3.115300e-01 8.007673e-02
    outer loop
      vertex -1.987046e+02 1.257253e+01 -1.708992e+02
      vertex -2.100934e+02 4.741352e+01 -1.700201e+02
      vertex -2.083372e+02 2.403485e+01 -2.402059e+02
    endloop
  endfacet
  facet normal 2.072158e-01 -9.601408e-01 -1.875934e-01
    outer loop
      vertex -1.609600e+02 2.229045e+01 -1.789449e+02
      vertex -1.987046e+02 1.257253e+01 -1.708992e+02
      vertex -2.083372e+02 2.403485e+01 -2.402059e+02
    endloop
  endfacet
  facet normal 3.256965e-01 8.889343e-01 -3.220522e-01
    outer loop
      vertex -1.960887e+02 3.476065e+01 -2.417976e+02
      vertex -2.050204e+02 3.687549e+01 -2.449929e+02
      vertex -1.607424e+02 3.886907e+01 -1.947111e+02
    endloop
  endfacet
  facet normal 7.866888e-01 -2.375513e-01 -5.698159e-01
    outer loop
      vertex -1.960887e+02 3.476065e+01 -2.417976e+02
      vertex -1.607424e+02 3.886907e+01 -1.947111e+02
      vertex -1.984849e+02 2.755624e+01 -2.421023e+02
    endloop
  endfacet
  facet normal 6.589321e-01 -6.559251e-01 -3.681993e-01
    outer loop
      vertex -1.932111e+02 2.355539e+01 -2.255369e+02
      vertex -1.984849e+02 2.755624e+01 -2.421023e+02
      vertex -1.607424e+02 3.886907e+01 -1.947111e+02
    endloop
  endfacet
  facet normal 4.449993e-01 -8.952095e-01 -2.399252e-02
    outer loop
      vertex -1.549806e+02 4.121990e+01 -1.755586e+02
      vertex -1.932111e+02 2.355539e+01 -2.255369e+02
      vertex -1.607424e+02 3.886907e+01 -1.947111e+02
    endloop
  endfacet
  facet normal 7.529236e-01 5.865190e-01 -2.984987e-01
    outer loop
      vertex -1.610573e+02 4.638151e+01 -1.807443e+02
      vertex -1.549806e+02 4.121990e+01 -1.755586e+02
      vertex -1.607424e+02 3.886907e+01 -1.947111e+02
    endloop
  endfacet
  facet normal 6.453284e-01 -6.665954e-01 3.730975e-01
    outer loop
      vertex -1.582525e+02 4.385862e+01 -1.901033e+02
      vertex -1.610573e+02 4.638151e+01 -1.807443e+02
      vertex -1.607424e+02 3.886907e+01 -1.947111e+02
    endloop
  endfacet
  facet normal 8.103396e-01 -1.548779e-01 -5.651218e-01
    outer loop
      vertex -1.609600e+02 2.229045e+01 -1.789449e+02
      vertex -1.932111e+02 2.355539e+01 -2.255369e+02
      vertex -1.549806e+02 4.121990e+01 -1.755586e+02
    endloop
  endfacet
  facet normal -8.662746e-01 -2.933714e-01 4.043533e-01
    outer loop
      vertex -2.074156e+02 4.964871e+01 -1.626615e+02
      vertex -2.100934e+02 4.741352e+01 -1.700201e+02
      vertex -1.987046e+02 1.257253e+01 -1.708992e+02
    endloop
  endfacet
  facet normal -9.349771e-01 2.293644e-01 2.705732e-01
    outer loop
      vertex -2.072441e+02 5.258652e+01 -1.645594e+02
      vertex -2.100934e+02 4.741352e+01 -1.700201e+02
      vertex -2.074156e+02 4.964871e+01 -1.626615e+02
    endloop
  endfacet
  facet normal -8.629470e-01 5.045357e-01 -2.768144e-02
    outer loop
      vertex -2.072441e+02 5.258652e+01 -1.645594e+02
      vertex -2.058400e+02 5.461685e+01 -1.713269e+02
      vertex -2.100934e+02 4.741352e+01 -1.700201e+02
    endloop
  endfacet
  facet normal 3.156887e-01 -7.857301e-01 5.319481e-01
    outer loop
      vertex -1.582465e+02 2.715201e+01 -1.733743e+02
      vertex -1.987046e+02 1.257253e+01 -1.708992e+02
      vertex -1.609600e+02 2.229045e+01 -1.789449e+02
    endloop
  endfacet
  facet normal 1.208194e-01 -1.881718e-01 9.746764e-01
    outer loop
      vertex -1.610136e+02 3.671128e+01 -1.709111e+02
      vertex -2.074156e+02 4.964871e+01 -1.626615e+02
      vertex -1.987046e+02 1.257253e+01 -1.708992e+02
    endloop
  endfacet
  facet normal 1.350550e-01 -2.104029e-01 9.682411e-01
    outer loop
      vertex -1.582465e+02 2.715201e+01 -1.733743e+02
      vertex -1.610136e+02 3.671128e+01 -1.709111e+02
      vertex -1.987046e+02 1.257253e+01 -1.708992e+02
    endloop
  endfacet
  facet normal 7.194014e-01 -3.359966e-01 6.079210e-01
    outer loop
      vertex -1.610136e+02 3.671128e+01 -1.709111e+02
      vertex -1.609600e+02 2.229045e+01 -1.789449e+02
      vertex -1.549806e+02 4.121990e+01 -1.755586e+02
    endloop
  endfacet
  facet normal 3.005278e-01 4.594319e-01 8.358261e-01
    outer loop
      vertex -1.814721e+02 4.987413e+01 -1.707904e+02
      vertex -1.610136e+02 3.671128e+01 -1.709111e+02
      vertex -1.549806e+02 4.121990e+01 -1.755586e+02
    endloop
  endfacet
  facet normal 3.492749e-01 8.361311e-01 4.229562e-01
    outer loop
      vertex -1.814721e+02 4.987413e+01 -1.707904e+02
      vertex -1.549806e+02 4.121990e+01 -1.755586e+02
      vertex -1.610573e+02 4.638151e+01 -1.807443e+02
    endloop
  endfacet
  facet normal 6.745798e-01 3.611719e-01 -6.438144e-01
    outer loop
      vertex -1.582465e+02 2.715201e+01 -1.733743e+02
      vertex -1.609600e+02 2.229045e+01 -1.789449e+02
      vertex -1.610136e+02 3.671128e+01 -1.709111e+02
    endloop
  endfacet
  facet normal 2.693685e-01 4.106789e-01 8.710818e-01
    outer loop
      vertex -1.814721e+02 4.987413e+01 -1.707904e+02
      vertex -2.074156e+02 4.964871e+01 -1.626615e+02
      vertex -1.610136e+02 3.671128e+01 -1.709111e+02
    endloop
  endfacet
  facet normal 2.522842e-01 5.146557e-01 8.194402e-01
    outer loop
      vertex -1.814721e+02 4.987413e+01 -1.707904e+02
      vertex -2.072441e+02 5.258652e+01 -1.645594e+02
      vertex -2.074156e+02 4.964871e+01 -1.626615e+02
    endloop
  endfacet
  facet normal 1.464957e-01 9.766096e-01 -1.573932e-01
    outer loop
      vertex -1.610573e+02 4.638151e+01 -1.807443e+02
      vertex -2.069980e+02 4.402776e+01 -2.381090e+02
      vertex -2.058400e+02 5.461685e+01 -1.713269e+02
    endloop
  endfacet
  facet normal 1.898873e-01 9.807595e-01 4.531756e-02
    outer loop
      vertex -1.814721e+02 4.987413e+01 -1.707904e+02
      vertex -1.610573e+02 4.638151e+01 -1.807443e+02
      vertex -2.058400e+02 5.461685e+01 -1.713269e+02
    endloop
  endfacet
  facet normal 1.745479e-01 9.325660e-01 3.159964e-01
    outer loop
      vertex -1.814721e+02 4.987413e+01 -1.707904e+02
      vertex -2.058400e+02 5.461685e+01 -1.713269e+02
      vertex -2.072441e+02 5.258652e+01 -1.645594e+02
    endloop
  endfacet
  facet normal 1.992563e-01 9.595401e-01 -1.989464e-01
    outer loop
      vertex -1.582525e+02 4.385862e+01 -1.901033e+02
      vertex -2.069980e+02 4.402776e+01 -2.381090e+02
      vertex -1.610573e+02 4.638151e+01 -1.807443e+02
    endloop
  endfacet
endsolid SIM_ICUB3_L_ELBOW_1
