solid SIM_ICUB3_R_ELBOW_1
  facet normal -9.614558e-01 -2.509504e-01 -1.123684e-01
    outer loop
      vertex 1.574947e+02 2.870145e+01 -1.728915e+02
      vertex 1.552376e+02 3.750140e+01 -1.732320e+02
      vertex 1.586944e+02 2.912019e+01 -1.840917e+02
    endloop
  endfacet
  facet normal -9.428912e-01 -3.299838e-01 -4.546306e-02
    outer loop
      vertex 1.564482e+02 3.515925e+01 -1.813382e+02
      vertex 1.586944e+02 2.912019e+01 -1.840917e+02
      vertex 1.552376e+02 3.750140e+01 -1.732320e+02
    endloop
  endfacet
  facet normal -9.201782e-01 -3.749626e-01 -1.125834e-01
    outer loop
      vertex 1.588665e+02 2.575551e+01 -1.742917e+02
      vertex 1.574947e+02 2.870145e+01 -1.728915e+02
      vertex 1.586944e+02 2.912019e+01 -1.840917e+02
    endloop
  endfacet
  facet normal -9.078202e-01 -1.611451e-01 -3.871624e-01
    outer loop
      vertex 1.580886e+02 3.621938e+01 -1.856260e+02
      vertex 1.586944e+02 2.912019e+01 -1.840917e+02
      vertex 1.564482e+02 3.515925e+01 -1.813382e+02
    endloop
  endfacet
  facet normal -8.188237e-01 -5.471986e-01 -1.734974e-01
    outer loop
      vertex 1.614761e+02 2.492970e+01 -1.840034e+02
      vertex 1.588665e+02 2.575551e+01 -1.742917e+02
      vertex 1.586944e+02 2.912019e+01 -1.840917e+02
    endloop
  endfacet
  facet normal -3.112595e-01 -2.260596e-01 -9.230464e-01
    outer loop
      vertex 1.580886e+02 3.621938e+01 -1.856260e+02
      vertex 1.614761e+02 2.492970e+01 -1.840034e+02
      vertex 1.586944e+02 2.912019e+01 -1.840917e+02
    endloop
  endfacet
  facet normal -9.683456e-01 -2.490295e-01 -1.706356e-02
    outer loop
      vertex 1.557067e+02 3.562025e+01 -1.723956e+02
      vertex 1.552376e+02 3.750140e+01 -1.732320e+02
      vertex 1.574947e+02 2.870145e+01 -1.728915e+02
    endloop
  endfacet
  facet normal -9.858685e-01 -1.255018e-01 -1.109625e-01
    outer loop
      vertex 1.550193e+02 4.235006e+01 -1.767761e+02
      vertex 1.564482e+02 3.515925e+01 -1.813382e+02
      vertex 1.552376e+02 3.750140e+01 -1.732320e+02
    endloop
  endfacet
  facet normal 1.250848e-01 4.289667e-01 8.946180e-01
    outer loop
      vertex 1.551216e+02 3.971076e+01 -1.742752e+02
      vertex 1.552376e+02 3.750140e+01 -1.732320e+02
      vertex 1.557067e+02 3.562025e+01 -1.723956e+02
    endloop
  endfacet
  facet normal -9.974069e-01 -6.595866e-02 -2.879167e-02
    outer loop
      vertex 1.551216e+02 3.971076e+01 -1.742752e+02
      vertex 1.550193e+02 4.235006e+01 -1.767761e+02
      vertex 1.552376e+02 3.750140e+01 -1.732320e+02
    endloop
  endfacet
  facet normal -2.052871e-01 -4.964700e-01 8.434303e-01
    outer loop
      vertex 1.591011e+02 2.899313e+01 -1.723288e+02
      vertex 1.574947e+02 2.870145e+01 -1.728915e+02
      vertex 1.588665e+02 2.575551e+01 -1.742917e+02
    endloop
  endfacet
  facet normal -9.677575e-01 -2.513140e-01 1.693029e-02
    outer loop
      vertex 1.570744e+02 3.036556e+01 -1.722137e+02
      vertex 1.557067e+02 3.562025e+01 -1.723956e+02
      vertex 1.574947e+02 2.870145e+01 -1.728915e+02
    endloop
  endfacet
  facet normal -2.322200e-01 -4.166133e-01 8.789239e-01
    outer loop
      vertex 1.591011e+02 2.899313e+01 -1.723288e+02
      vertex 1.570744e+02 3.036556e+01 -1.722137e+02
      vertex 1.574947e+02 2.870145e+01 -1.728915e+02
    endloop
  endfacet
  facet normal -8.050209e-01 -4.256545e-01 -4.132307e-01
    outer loop
      vertex 1.598290e+02 4.052675e+01 -1.934534e+02
      vertex 1.580886e+02 3.621938e+01 -1.856260e+02
      vertex 1.564482e+02 3.515925e+01 -1.813382e+02
    endloop
  endfacet
  facet normal -9.435693e-01 -1.104107e-01 -3.122281e-01
    outer loop
      vertex 1.558662e+02 4.487962e+01 -1.830168e+02
      vertex 1.598290e+02 4.052675e+01 -1.934534e+02
      vertex 1.564482e+02 3.515925e+01 -1.813382e+02
    endloop
  endfacet
  facet normal -9.817080e-01 -8.793790e-02 -1.688677e-01
    outer loop
      vertex 1.550193e+02 4.235006e+01 -1.767761e+02
      vertex 1.558662e+02 4.487962e+01 -1.830168e+02
      vertex 1.564482e+02 3.515925e+01 -1.813382e+02
    endloop
  endfacet
  facet normal -9.371805e-01 -2.627298e-01 -2.294901e-01
    outer loop
      vertex 1.622042e+02 2.154625e+01 -1.831030e+02
      vertex 1.588665e+02 2.575551e+01 -1.742917e+02
      vertex 1.614761e+02 2.492970e+01 -1.840034e+02
    endloop
  endfacet
  facet normal -1.124002e-01 -5.091785e-01 8.532898e-01
    outer loop
      vertex 1.637699e+02 2.807858e+01 -1.722595e+02
      vertex 1.591011e+02 2.899313e+01 -1.723288e+02
      vertex 1.588665e+02 2.575551e+01 -1.742917e+02
    endloop
  endfacet
  facet normal -9.408935e-01 -2.345275e-01 -2.443690e-01
    outer loop
      vertex 1.604646e+02 2.287753e+01 -1.776828e+02
      vertex 1.588665e+02 2.575551e+01 -1.742917e+02
      vertex 1.622042e+02 2.154625e+01 -1.831030e+02
    endloop
  endfacet
  facet normal 3.171398e-02 -7.546335e-01 6.553797e-01
    outer loop
      vertex 1.655977e+02 2.498429e+01 -1.755054e+02
      vertex 1.588665e+02 2.575551e+01 -1.742917e+02
      vertex 1.604646e+02 2.287753e+01 -1.776828e+02
    endloop
  endfacet
  facet normal 4.530926e-02 -7.101977e-01 7.025428e-01
    outer loop
      vertex 1.637699e+02 2.807858e+01 -1.722595e+02
      vertex 1.588665e+02 2.575551e+01 -1.742917e+02
      vertex 1.655977e+02 2.498429e+01 -1.755054e+02
    endloop
  endfacet
  facet normal -9.136033e-01 -3.116618e-01 -2.611436e-01
    outer loop
      vertex 1.634097e+02 2.710031e+01 -1.933585e+02
      vertex 1.614761e+02 2.492970e+01 -1.840034e+02
      vertex 1.580886e+02 3.621938e+01 -1.856260e+02
    endloop
  endfacet
  facet normal -9.294234e-01 -2.676056e-01 -2.540854e-01
    outer loop
      vertex 1.622042e+02 2.154625e+01 -1.831030e+02
      vertex 1.614761e+02 2.492970e+01 -1.840034e+02
      vertex 1.633701e+02 2.317064e+01 -1.890788e+02
    endloop
  endfacet
  facet normal -9.294539e-01 -2.674314e-01 -2.541572e-01
    outer loop
      vertex 1.634097e+02 2.710031e+01 -1.933585e+02
      vertex 1.633701e+02 2.317064e+01 -1.890788e+02
      vertex 1.614761e+02 2.492970e+01 -1.840034e+02
    endloop
  endfacet
  facet normal -9.233967e-01 -2.103573e-01 -3.210736e-01
    outer loop
      vertex 1.612028e+02 3.711624e+01 -1.951698e+02
      vertex 1.580886e+02 3.621938e+01 -1.856260e+02
      vertex 1.598290e+02 4.052675e+01 -1.934534e+02
    endloop
  endfacet
  facet normal -9.108344e-01 -2.588412e-01 -3.215307e-01
    outer loop
      vertex 1.634097e+02 2.710031e+01 -1.933585e+02
      vertex 1.580886e+02 3.621938e+01 -1.856260e+02
      vertex 1.612028e+02 3.711624e+01 -1.951698e+02
    endloop
  endfacet
  facet normal -2.953642e-01 -4.385196e-02 9.543778e-01
    outer loop
      vertex 1.603682e+02 3.551305e+01 -1.709579e+02
      vertex 1.557067e+02 3.562025e+01 -1.723956e+02
      vertex 1.570744e+02 3.036556e+01 -1.722137e+02
    endloop
  endfacet
  facet normal -2.742055e-01 3.055745e-01 9.118309e-01
    outer loop
      vertex 1.603691e+02 4.100313e+01 -1.727974e+02
      vertex 1.557067e+02 3.562025e+01 -1.723956e+02
      vertex 1.603682e+02 3.551305e+01 -1.709579e+02
    endloop
  endfacet
  facet normal -3.332598e-01 3.538928e-01 8.738980e-01
    outer loop
      vertex 1.603691e+02 4.100313e+01 -1.727974e+02
      vertex 1.551216e+02 3.971076e+01 -1.742752e+02
      vertex 1.557067e+02 3.562025e+01 -1.723956e+02
    endloop
  endfacet
  facet normal -7.404562e-02 -1.914051e-01 9.787141e-01
    outer loop
      vertex 1.603682e+02 3.551305e+01 -1.709579e+02
      vertex 1.570744e+02 3.036556e+01 -1.722137e+02
      vertex 1.591011e+02 2.899313e+01 -1.723288e+02
    endloop
  endfacet
  facet normal 7.629394e-02 -2.193488e-01 9.726589e-01
    outer loop
      vertex 1.726458e+02 3.776423e+01 -1.714132e+02
      vertex 1.603682e+02 3.551305e+01 -1.709579e+02
      vertex 1.591011e+02 2.899313e+01 -1.723288e+02
    endloop
  endfacet
  facet normal -2.702734e-02 -6.240772e-02 9.976847e-01
    outer loop
      vertex 1.726458e+02 3.776423e+01 -1.714132e+02
      vertex 1.591011e+02 2.899313e+01 -1.723288e+02
      vertex 1.637699e+02 2.807858e+01 -1.722595e+02
    endloop
  endfacet
  facet normal -1.603363e-01 3.136246e-01 9.359123e-01
    outer loop
      vertex 1.737886e+02 4.732124e+01 -1.726156e+02
      vertex 1.603691e+02 4.100313e+01 -1.727974e+02
      vertex 1.603682e+02 3.551305e+01 -1.709579e+02
    endloop
  endfacet
  facet normal 1.422363e-02 1.231451e-01 9.922867e-01
    outer loop
      vertex 1.737886e+02 4.732124e+01 -1.726156e+02
      vertex 1.603682e+02 3.551305e+01 -1.709579e+02
      vertex 1.726458e+02 3.776423e+01 -1.714132e+02
    endloop
  endfacet
  facet normal -9.388956e-01 -2.199290e-01 -2.647757e-01
    outer loop
      vertex 1.581076e+02 4.379924e+01 -1.900673e+02
      vertex 1.598290e+02 4.052675e+01 -1.934534e+02
      vertex 1.558662e+02 4.487962e+01 -1.830168e+02
    endloop
  endfacet
  facet normal -8.704739e-01 4.887770e-02 -4.897818e-01
    outer loop
      vertex 1.589618e+02 4.279394e+01 -1.916858e+02
      vertex 1.598290e+02 4.052675e+01 -1.934534e+02
      vertex 1.581076e+02 4.379924e+01 -1.900673e+02
    endloop
  endfacet
  facet normal 9.133398e-01 4.016395e-01 -6.705302e-02
    outer loop
      vertex 1.589618e+02 4.279394e+01 -1.916858e+02
      vertex 1.612028e+02 3.711624e+01 -1.951698e+02
      vertex 1.598290e+02 4.052675e+01 -1.934534e+02
    endloop
  endfacet
  facet normal -5.021840e-01 8.165290e-01 -2.847659e-01
    outer loop
      vertex 1.580593e+02 4.564027e+01 -1.847033e+02
      vertex 1.581076e+02 4.379924e+01 -1.900673e+02
      vertex 1.558662e+02 4.487962e+01 -1.830168e+02
    endloop
  endfacet
  facet normal -1.724497e-01 9.624117e-01 2.098207e-01
    outer loop
      vertex 1.595366e+02 4.405117e+01 -1.762002e+02
      vertex 1.580593e+02 4.564027e+01 -1.847033e+02
      vertex 1.558662e+02 4.487962e+01 -1.830168e+02
    endloop
  endfacet
  facet normal -3.694374e-01 8.775753e-01 3.055774e-01
    outer loop
      vertex 1.595366e+02 4.405117e+01 -1.762002e+02
      vertex 1.558662e+02 4.487962e+01 -1.830168e+02
      vertex 1.550193e+02 4.235006e+01 -1.767761e+02
    endloop
  endfacet
  facet normal 4.525067e-01 8.447071e-01 -2.858456e-01
    outer loop
      vertex 1.589618e+02 4.279394e+01 -1.916858e+02
      vertex 1.581076e+02 4.379924e+01 -1.900673e+02
      vertex 1.580593e+02 4.564027e+01 -1.847033e+02
    endloop
  endfacet
  facet normal -1.332909e-02 5.191339e-01 -8.545890e-01
    outer loop
      vertex 1.651052e+02 4.249396e+01 -1.919639e+02
      vertex 1.612028e+02 3.711624e+01 -1.951698e+02
      vertex 1.589618e+02 4.279394e+01 -1.916858e+02
    endloop
  endfacet
  facet normal 9.687073e-02 -1.564092e-01 -9.829304e-01
    outer loop
      vertex 1.675611e+02 3.567902e+01 -1.943145e+02
      vertex 1.634097e+02 2.710031e+01 -1.933585e+02
      vertex 1.612028e+02 3.711624e+01 -1.951698e+02
    endloop
  endfacet
  facet normal 2.079951e-01 3.850825e-01 -8.991382e-01
    outer loop
      vertex 1.651052e+02 4.249396e+01 -1.919639e+02
      vertex 1.675611e+02 3.567902e+01 -1.943145e+02
      vertex 1.612028e+02 3.711624e+01 -1.951698e+02
    endloop
  endfacet
  facet normal -1.326390e-01 9.117266e-01 -3.887948e-01
    outer loop
      vertex 1.725352e+02 4.816158e+01 -1.837293e+02
      vertex 1.589618e+02 4.279394e+01 -1.916858e+02
      vertex 1.580593e+02 4.564027e+01 -1.847033e+02
    endloop
  endfacet
  facet normal -3.049924e-01 9.251776e-01 2.258896e-01
    outer loop
      vertex 1.711013e+02 4.731018e+01 -1.739337e+02
      vertex 1.580593e+02 4.564027e+01 -1.847033e+02
      vertex 1.595366e+02 4.405117e+01 -1.762002e+02
    endloop
  endfacet
  facet normal -1.751840e-01 9.827198e-01 5.976942e-02
    outer loop
      vertex 1.711013e+02 4.731018e+01 -1.739337e+02
      vertex 1.725352e+02 4.816158e+01 -1.837293e+02
      vertex 1.580593e+02 4.564027e+01 -1.847033e+02
    endloop
  endfacet
  facet normal 1.388942e-02 8.177688e-01 -5.753793e-01
    outer loop
      vertex 1.651052e+02 4.249396e+01 -1.919639e+02
      vertex 1.589618e+02 4.279394e+01 -1.916858e+02
      vertex 1.725352e+02 4.816158e+01 -1.837293e+02
    endloop
  endfacet
  facet normal -3.342976e-01 6.598932e-01 6.728939e-01
    outer loop
      vertex 1.603691e+02 4.100313e+01 -1.727974e+02
      vertex 1.595366e+02 4.405117e+01 -1.762002e+02
      vertex 1.550193e+02 4.235006e+01 -1.767761e+02
    endloop
  endfacet
  facet normal -3.502649e-01 6.370618e-01 6.866344e-01
    outer loop
      vertex 1.603691e+02 4.100313e+01 -1.727974e+02
      vertex 1.550193e+02 4.235006e+01 -1.767761e+02
      vertex 1.551216e+02 3.971076e+01 -1.742752e+02
    endloop
  endfacet
  facet normal -3.220625e-01 6.646589e-01 6.741694e-01
    outer loop
      vertex 1.737886e+02 4.732124e+01 -1.726156e+02
      vertex 1.595366e+02 4.405117e+01 -1.762002e+02
      vertex 1.603691e+02 4.100313e+01 -1.727974e+02
    endloop
  endfacet
  facet normal -3.214637e-01 6.889091e-01 6.496655e-01
    outer loop
      vertex 1.737886e+02 4.732124e+01 -1.726156e+02
      vertex 1.711013e+02 4.731018e+01 -1.739337e+02
      vertex 1.595366e+02 4.405117e+01 -1.762002e+02
    endloop
  endfacet
  facet normal 2.064052e-01 -9.536528e-01 -2.189594e-01
    outer loop
      vertex 1.666245e+02 2.270301e+01 -1.839743e+02
      vertex 1.622042e+02 2.154625e+01 -1.831030e+02
      vertex 1.633701e+02 2.317064e+01 -1.890788e+02
    endloop
  endfacet
  facet normal 2.920698e-01 -7.058158e-01 -6.453831e-01
    outer loop
      vertex 1.675267e+02 2.764315e+01 -1.920890e+02
      vertex 1.633701e+02 2.317064e+01 -1.890788e+02
      vertex 1.634097e+02 2.710031e+01 -1.933585e+02
    endloop
  endfacet
  facet normal 3.570491e-01 -8.817017e-01 -3.084122e-01
    outer loop
      vertex 1.645102e+02 2.382674e+01 -1.896346e+02
      vertex 1.666245e+02 2.270301e+01 -1.839743e+02
      vertex 1.633701e+02 2.317064e+01 -1.890788e+02
    endloop
  endfacet
  facet normal -1.910973e-01 -4.196345e-01 -8.873492e-01
    outer loop
      vertex 1.675267e+02 2.764315e+01 -1.920890e+02
      vertex 1.645102e+02 2.382674e+01 -1.896346e+02
      vertex 1.633701e+02 2.317064e+01 -1.890788e+02
    endloop
  endfacet
  facet normal 5.381944e-02 -7.237825e-01 -6.879261e-01
    outer loop
      vertex 1.809075e+02 1.504029e+01 -1.747947e+02
      vertex 1.622042e+02 2.154625e+01 -1.831030e+02
      vertex 1.666245e+02 2.270301e+01 -1.839743e+02
    endloop
  endfacet
  facet normal -3.691587e-01 -9.230425e-01 1.082331e-01
    outer loop
      vertex 1.809075e+02 1.504029e+01 -1.747947e+02
      vertex 1.604646e+02 2.287753e+01 -1.776828e+02
      vertex 1.622042e+02 2.154625e+01 -1.831030e+02
    endloop
  endfacet
  facet normal 3.154465e-01 -2.545213e-01 -9.141731e-01
    outer loop
      vertex 1.675611e+02 3.567902e+01 -1.943145e+02
      vertex 1.675267e+02 2.764315e+01 -1.920890e+02
      vertex 1.634097e+02 2.710031e+01 -1.933585e+02
    endloop
  endfacet
  facet normal -3.806834e-01 -9.237872e-01 -4.119857e-02
    outer loop
      vertex 1.849578e+02 1.515543e+01 -1.841398e+02
      vertex 1.666245e+02 2.270301e+01 -1.839743e+02
      vertex 1.645102e+02 2.382674e+01 -1.896346e+02
    endloop
  endfacet
  facet normal -5.165502e-01 -8.511685e-01 9.320985e-02
    outer loop
      vertex 1.841756e+02 1.311590e+01 -1.742569e+02
      vertex 1.809075e+02 1.504029e+01 -1.747947e+02
      vertex 1.666245e+02 2.270301e+01 -1.839743e+02
    endloop
  endfacet
  facet normal -3.733876e-01 -9.022382e-01 -2.157497e-01
    outer loop
      vertex 1.841756e+02 1.311590e+01 -1.742569e+02
      vertex 1.666245e+02 2.270301e+01 -1.839743e+02
      vertex 1.849578e+02 1.515543e+01 -1.841398e+02
    endloop
  endfacet
  facet normal -2.300770e-01 -3.912200e-01 -8.910732e-01
    outer loop
      vertex 1.873836e+02 2.549092e+01 -1.962712e+02
      vertex 1.645102e+02 2.382674e+01 -1.896346e+02
      vertex 1.675267e+02 2.764315e+01 -1.920890e+02
    endloop
  endfacet
  facet normal -2.970695e-01 -9.009457e-01 -3.163014e-01
    outer loop
      vertex 1.839316e+02 1.626881e+01 -1.863473e+02
      vertex 1.849578e+02 1.515543e+01 -1.841398e+02
      vertex 1.645102e+02 2.382674e+01 -1.896346e+02
    endloop
  endfacet
  facet normal -1.526057e-01 -6.969223e-01 -7.007216e-01
    outer loop
      vertex 1.873836e+02 2.549092e+01 -1.962712e+02
      vertex 1.839316e+02 1.626881e+01 -1.863473e+02
      vertex 1.645102e+02 2.382674e+01 -1.896346e+02
    endloop
  endfacet
  facet normal -1.770227e-01 -2.619720e-01 -9.487010e-01
    outer loop
      vertex 1.840049e+02 3.562332e+01 -1.973674e+02
      vertex 1.675267e+02 2.764315e+01 -1.920890e+02
      vertex 1.675611e+02 3.567902e+01 -1.943145e+02
    endloop
  endfacet
  facet normal -2.212063e-01 -1.775074e-01 -9.589363e-01
    outer loop
      vertex 1.840049e+02 3.562332e+01 -1.973674e+02
      vertex 1.873836e+02 2.549092e+01 -1.962712e+02
      vertex 1.675267e+02 2.764315e+01 -1.920890e+02
    endloop
  endfacet
  facet normal -2.532494e-01 -3.247786e-01 9.112539e-01
    outer loop
      vertex 1.655977e+02 2.498429e+01 -1.755054e+02
      vertex 1.604646e+02 2.287753e+01 -1.776828e+02
      vertex 1.809075e+02 1.504029e+01 -1.747947e+02
    endloop
  endfacet
  facet normal -1.664357e-01 -1.870538e-01 9.681477e-01
    outer loop
      vertex 1.828021e+02 2.381047e+01 -1.727746e+02
      vertex 1.655977e+02 2.498429e+01 -1.755054e+02
      vertex 1.809075e+02 1.504029e+01 -1.747947e+02
    endloop
  endfacet
  facet normal -2.538379e-01 -1.647109e-01 9.531194e-01
    outer loop
      vertex 1.828021e+02 2.381047e+01 -1.727746e+02
      vertex 1.809075e+02 1.504029e+01 -1.747947e+02
      vertex 1.841756e+02 1.311590e+01 -1.742569e+02
    endloop
  endfacet
  facet normal -1.077121e-01 -7.491864e-01 6.535425e-01
    outer loop
      vertex 1.855336e+02 2.521057e+01 -1.719603e+02
      vertex 1.637699e+02 2.807858e+01 -1.722595e+02
      vertex 1.655977e+02 2.498429e+01 -1.755054e+02
    endloop
  endfacet
  facet normal -1.678518e-01 -2.300159e-01 9.586023e-01
    outer loop
      vertex 1.855336e+02 2.521057e+01 -1.719603e+02
      vertex 1.655977e+02 2.498429e+01 -1.755054e+02
      vertex 1.828021e+02 2.381047e+01 -1.727746e+02
    endloop
  endfacet
  facet normal -1.768056e-01 2.633861e-01 -9.483499e-01
    outer loop
      vertex 1.853593e+02 3.652821e+01 -1.973968e+02
      vertex 1.675611e+02 3.567902e+01 -1.943145e+02
      vertex 1.651052e+02 4.249396e+01 -1.919639e+02
    endloop
  endfacet
  facet normal -1.767320e-01 2.334407e-01 -9.561753e-01
    outer loop
      vertex 1.853593e+02 3.652821e+01 -1.973968e+02
      vertex 1.840049e+02 3.562332e+01 -1.973674e+02
      vertex 1.675611e+02 3.567902e+01 -1.943145e+02
    endloop
  endfacet
  facet normal -3.114451e-02 -5.864421e-02 9.977930e-01
    outer loop
      vertex 1.853121e+02 3.771686e+01 -1.710206e+02
      vertex 1.726458e+02 3.776423e+01 -1.714132e+02
      vertex 1.637699e+02 2.807858e+01 -1.722595e+02
    endloop
  endfacet
  facet normal -2.363030e-02 -7.532156e-02 9.968793e-01
    outer loop
      vertex 1.853121e+02 3.771686e+01 -1.710206e+02
      vertex 1.637699e+02 2.807858e+01 -1.722595e+02
      vertex 1.855336e+02 2.521057e+01 -1.719603e+02
    endloop
  endfacet
  facet normal -2.907325e-01 1.535863e-01 9.443971e-01
    outer loop
      vertex 1.850105e+02 5.004560e+01 -1.696041e+02
      vertex 1.737886e+02 4.732124e+01 -1.726156e+02
      vertex 1.726458e+02 3.776423e+01 -1.714132e+02
    endloop
  endfacet
  facet normal -3.120284e-02 -1.148484e-01 9.928929e-01
    outer loop
      vertex 1.850105e+02 5.004560e+01 -1.696041e+02
      vertex 1.726458e+02 3.776423e+01 -1.714132e+02
      vertex 1.853121e+02 3.771686e+01 -1.710206e+02
    endloop
  endfacet
  facet normal 2.004335e-03 8.228979e-01 -5.681857e-01
    outer loop
      vertex 1.822374e+02 4.876188e+01 -1.828257e+02
      vertex 1.651052e+02 4.249396e+01 -1.919639e+02
      vertex 1.725352e+02 4.816158e+01 -1.837293e+02
    endloop
  endfacet
  facet normal -5.624148e-01 8.267889e-01 -1.046844e-02
    outer loop
      vertex 1.746510e+02 4.969988e+01 -1.759063e+02
      vertex 1.725352e+02 4.816158e+01 -1.837293e+02
      vertex 1.711013e+02 4.731018e+01 -1.739337e+02
    endloop
  endfacet
  facet normal 5.019831e-02 4.947049e-01 -8.676101e-01
    outer loop
      vertex 1.844000e+02 5.157921e+01 -1.810941e+02
      vertex 1.822374e+02 4.876188e+01 -1.828257e+02
      vertex 1.725352e+02 4.816158e+01 -1.837293e+02
    endloop
  endfacet
  facet normal -9.278598e-01 -2.273100e-01 2.956457e-01
    outer loop
      vertex 1.727541e+02 4.904603e+01 -1.823624e+02
      vertex 1.725352e+02 4.816158e+01 -1.837293e+02
      vertex 1.746510e+02 4.969988e+01 -1.759063e+02
    endloop
  endfacet
  facet normal -1.260095e-01 8.419643e-01 -5.246120e-01
    outer loop
      vertex 1.844000e+02 5.157921e+01 -1.810941e+02
      vertex 1.725352e+02 4.816158e+01 -1.837293e+02
      vertex 1.727541e+02 4.904603e+01 -1.823624e+02
    endloop
  endfacet
  facet normal 5.668723e-02 7.705788e-01 -6.348187e-01
    outer loop
      vertex 1.853593e+02 3.652821e+01 -1.973968e+02
      vertex 1.651052e+02 4.249396e+01 -1.919639e+02
      vertex 1.822374e+02 4.876188e+01 -1.828257e+02
    endloop
  endfacet
  facet normal -3.728810e-01 5.383079e-01 7.557674e-01
    outer loop
      vertex 1.766843e+02 4.865617e+01 -1.721378e+02
      vertex 1.711013e+02 4.731018e+01 -1.739337e+02
      vertex 1.737886e+02 4.732124e+01 -1.726156e+02
    endloop
  endfacet
  facet normal -3.373840e-01 8.444981e-01 4.159267e-01
    outer loop
      vertex 1.766843e+02 4.865617e+01 -1.721378e+02
      vertex 1.746510e+02 4.969988e+01 -1.759063e+02
      vertex 1.711013e+02 4.731018e+01 -1.739337e+02
    endloop
  endfacet
  facet normal -3.145048e-01 2.998702e-01 9.006468e-01
    outer loop
      vertex 1.878411e+02 5.164562e+01 -1.691483e+02
      vertex 1.737886e+02 4.732124e+01 -1.726156e+02
      vertex 1.850105e+02 5.004560e+01 -1.696041e+02
    endloop
  endfacet
  facet normal -3.408020e-01 4.422942e-01 8.295962e-01
    outer loop
      vertex 1.878411e+02 5.164562e+01 -1.691483e+02
      vertex 1.766843e+02 4.865617e+01 -1.721378e+02
      vertex 1.737886e+02 4.732124e+01 -1.726156e+02
    endloop
  endfacet
  facet normal -2.643136e-01 -9.049265e-01 -3.335360e-01
    outer loop
      vertex 1.950095e+02 1.224984e+01 -1.842221e+02
      vertex 1.849578e+02 1.515543e+01 -1.841398e+02
      vertex 1.839316e+02 1.626881e+01 -1.863473e+02
    endloop
  endfacet
  facet normal -4.692826e-01 -8.567376e-01 -2.139500e-01
    outer loop
      vertex 1.900316e+02 1.179859e+01 -1.818266e+02
      vertex 1.841756e+02 1.311590e+01 -1.742569e+02
      vertex 1.849578e+02 1.515543e+01 -1.841398e+02
    endloop
  endfacet
  facet normal -2.246556e-01 -7.598978e-01 -6.099879e-01
    outer loop
      vertex 1.950095e+02 1.224984e+01 -1.842221e+02
      vertex 1.900316e+02 1.179859e+01 -1.818266e+02
      vertex 1.849578e+02 1.515543e+01 -1.841398e+02
    endloop
  endfacet
  facet normal -9.193061e-01 -7.219486e-02 -3.868645e-01
    outer loop
      vertex 1.919089e+02 2.251260e+01 -2.064689e+02
      vertex 1.839316e+02 1.626881e+01 -1.863473e+02
      vertex 1.873836e+02 2.549092e+01 -1.962712e+02
    endloop
  endfacet
  facet normal -1.985540e-01 -8.261391e-01 -5.273239e-01
    outer loop
      vertex 1.955545e+02 1.995422e+01 -1.964975e+02
      vertex 1.950095e+02 1.224984e+01 -1.842221e+02
      vertex 1.839316e+02 1.626881e+01 -1.863473e+02
    endloop
  endfacet
  facet normal 6.769932e-02 -9.601667e-01 -2.711029e-01
    outer loop
      vertex 1.955545e+02 1.995422e+01 -1.964975e+02
      vertex 1.839316e+02 1.626881e+01 -1.863473e+02
      vertex 1.919089e+02 2.251260e+01 -2.064689e+02
    endloop
  endfacet
  facet normal -9.242686e-01 -3.291244e-01 -1.934030e-01
    outer loop
      vertex 1.895084e+02 2.646346e+01 -2.080806e+02
      vertex 1.873836e+02 2.549092e+01 -1.962712e+02
      vertex 1.840049e+02 3.562332e+01 -1.973674e+02
    endloop
  endfacet
  facet normal -8.023976e-01 -5.654218e-01 -1.909354e-01
    outer loop
      vertex 1.919089e+02 2.251260e+01 -2.064689e+02
      vertex 1.873836e+02 2.549092e+01 -1.962712e+02
      vertex 1.895084e+02 2.646346e+01 -2.080806e+02
    endloop
  endfacet
  facet normal -2.056560e-01 -1.602279e-01 9.654184e-01
    outer loop
      vertex 1.855336e+02 2.521057e+01 -1.719603e+02
      vertex 1.828021e+02 2.381047e+01 -1.727746e+02
      vertex 1.841756e+02 1.311590e+01 -1.742569e+02
    endloop
  endfacet
  facet normal -2.327530e-01 -1.561414e-01 9.599197e-01
    outer loop
      vertex 1.859827e+02 1.282093e+01 -1.738667e+02
      vertex 1.855336e+02 2.521057e+01 -1.719603e+02
      vertex 1.841756e+02 1.311590e+01 -1.742569e+02
    endloop
  endfacet
  facet normal -4.692826e-01 -8.567376e-01 -2.139500e-01
    outer loop
      vertex 1.893534e+02 1.006690e+01 -1.734049e+02
      vertex 1.841756e+02 1.311590e+01 -1.742569e+02
      vertex 1.900316e+02 1.179859e+01 -1.818266e+02
    endloop
  endfacet
  facet normal -2.277714e-01 -1.166481e-01 9.667024e-01
    outer loop
      vertex 1.859827e+02 1.282093e+01 -1.738667e+02
      vertex 1.841756e+02 1.311590e+01 -1.742569e+02
      vertex 1.893534e+02 1.006690e+01 -1.734049e+02
    endloop
  endfacet
  facet normal -5.156152e-01 7.588171e-01 -3.979165e-01
    outer loop
      vertex 1.896878e+02 3.353829e+01 -2.087073e+02
      vertex 1.840049e+02 3.562332e+01 -1.973674e+02
      vertex 1.853593e+02 3.652821e+01 -1.973968e+02
    endloop
  endfacet
  facet normal -8.951245e-01 -1.676609e-02 -4.455008e-01
    outer loop
      vertex 1.896878e+02 3.353829e+01 -2.087073e+02
      vertex 1.895084e+02 2.646346e+01 -2.080806e+02
      vertex 1.840049e+02 3.562332e+01 -1.973674e+02
    endloop
  endfacet
  facet normal -4.017559e-01 -7.568428e-02 9.126139e-01
    outer loop
      vertex 1.979675e+02 3.780363e+01 -1.654423e+02
      vertex 1.853121e+02 3.771686e+01 -1.710206e+02
      vertex 1.855336e+02 2.521057e+01 -1.719603e+02
    endloop
  endfacet
  facet normal -2.274278e-01 -1.561445e-01 9.611948e-01
    outer loop
      vertex 1.971261e+02 2.493516e+01 -1.692622e+02
      vertex 1.855336e+02 2.521057e+01 -1.719603e+02
      vertex 1.859827e+02 1.282093e+01 -1.738667e+02
    endloop
  endfacet
  facet normal -2.246027e-01 -2.637747e-01 9.380706e-01
    outer loop
      vertex 1.979675e+02 3.780363e+01 -1.654423e+02
      vertex 1.855336e+02 2.521057e+01 -1.719603e+02
      vertex 1.971261e+02 2.493516e+01 -1.692622e+02
    endloop
  endfacet
  facet normal -4.116088e-01 -1.139648e-01 9.042069e-01
    outer loop
      vertex 1.968276e+02 4.838976e+01 -1.644334e+02
      vertex 1.850105e+02 5.004560e+01 -1.696041e+02
      vertex 1.853121e+02 3.771686e+01 -1.710206e+02
    endloop
  endfacet
  facet normal -3.992083e-01 -1.294824e-01 9.076712e-01
    outer loop
      vertex 1.968276e+02 4.838976e+01 -1.644334e+02
      vertex 1.853121e+02 3.771686e+01 -1.710206e+02
      vertex 1.979675e+02 3.780363e+01 -1.654423e+02
    endloop
  endfacet
  facet normal 8.999781e-03 7.667802e-01 -6.418466e-01
    outer loop
      vertex 1.990073e+02 4.981406e+01 -1.813336e+02
      vertex 1.853593e+02 3.652821e+01 -1.973968e+02
      vertex 1.822374e+02 4.876188e+01 -1.828257e+02
    endloop
  endfacet
  facet normal 6.872950e-02 4.835545e-01 -8.726118e-01
    outer loop
      vertex 1.957939e+02 5.427954e+01 -1.787003e+02
      vertex 1.822374e+02 4.876188e+01 -1.828257e+02
      vertex 1.844000e+02 5.157921e+01 -1.810941e+02
    endloop
  endfacet
  facet normal 4.212712e-02 5.298151e-01 -8.470663e-01
    outer loop
      vertex 1.957939e+02 5.427954e+01 -1.787003e+02
      vertex 1.990073e+02 4.981406e+01 -1.813336e+02
      vertex 1.822374e+02 4.876188e+01 -1.828257e+02
    endloop
  endfacet
  facet normal -7.452754e-01 5.164355e-01 -4.217332e-01
    outer loop
      vertex 1.926307e+02 3.749820e+01 -2.090589e+02
      vertex 1.896878e+02 3.353829e+01 -2.087073e+02
      vertex 1.853593e+02 3.652821e+01 -1.973968e+02
    endloop
  endfacet
  facet normal -2.429614e-01 9.674324e-01 -7.102355e-02
    outer loop
      vertex 1.970496e+02 3.907144e+01 -2.027455e+02
      vertex 1.926307e+02 3.749820e+01 -2.090589e+02
      vertex 1.853593e+02 3.652821e+01 -1.973968e+02
    endloop
  endfacet
  facet normal -3.629496e-01 8.457437e-01 -3.911333e-01
    outer loop
      vertex 1.990073e+02 4.981406e+01 -1.813336e+02
      vertex 1.970496e+02 3.907144e+01 -2.027455e+02
      vertex 1.853593e+02 3.652821e+01 -1.973968e+02
    endloop
  endfacet
  facet normal -2.536940e-01 1.780156e-01 9.507627e-01
    outer loop
      vertex 1.953455e+02 5.387065e+01 -1.675625e+02
      vertex 1.878411e+02 5.164562e+01 -1.691483e+02
      vertex 1.850105e+02 5.004560e+01 -1.696041e+02
    endloop
  endfacet
  facet normal -3.187473e-01 4.034654e-01 8.576805e-01
    outer loop
      vertex 1.953455e+02 5.387065e+01 -1.675625e+02
      vertex 1.850105e+02 5.004560e+01 -1.696041e+02
      vertex 1.968276e+02 4.838976e+01 -1.644334e+02
    endloop
  endfacet
  facet normal -2.597480e-01 9.654380e-01 -2.145730e-02
    outer loop
      vertex 1.855681e+02 5.267671e+01 -1.741237e+02
      vertex 1.727541e+02 4.904603e+01 -1.823624e+02
      vertex 1.746510e+02 4.969988e+01 -1.759063e+02
    endloop
  endfacet
  facet normal -2.976529e-01 8.986541e-01 3.222167e-01
    outer loop
      vertex 1.878411e+02 5.164562e+01 -1.691483e+02
      vertex 1.855681e+02 5.267671e+01 -1.741237e+02
      vertex 1.746510e+02 4.969988e+01 -1.759063e+02
    endloop
  endfacet
  facet normal -3.377115e-01 8.443063e-01 4.160503e-01
    outer loop
      vertex 1.878411e+02 5.164562e+01 -1.691483e+02
      vertex 1.746510e+02 4.969988e+01 -1.759063e+02
      vertex 1.766843e+02 4.865617e+01 -1.721378e+02
    endloop
  endfacet
  facet normal -1.985297e-01 9.727346e-01 -1.198889e-01
    outer loop
      vertex 1.844000e+02 5.157921e+01 -1.810941e+02
      vertex 1.727541e+02 4.904603e+01 -1.823624e+02
      vertex 1.855681e+02 5.267671e+01 -1.741237e+02
    endloop
  endfacet
  facet normal -2.588360e-01 9.598914e-01 -1.077605e-01
    outer loop
      vertex 1.962671e+02 5.568891e+01 -1.729907e+02
      vertex 1.844000e+02 5.157921e+01 -1.810941e+02
      vertex 1.855681e+02 5.267671e+01 -1.741237e+02
    endloop
  endfacet
  facet normal -3.321716e-01 8.819076e-01 3.345161e-01
    outer loop
      vertex 1.953455e+02 5.387065e+01 -1.675625e+02
      vertex 1.855681e+02 5.267671e+01 -1.741237e+02
      vertex 1.878411e+02 5.164562e+01 -1.691483e+02
    endloop
  endfacet
  facet normal -2.870999e-01 9.219205e-01 2.600698e-01
    outer loop
      vertex 1.953455e+02 5.387065e+01 -1.675625e+02
      vertex 1.962671e+02 5.568891e+01 -1.729907e+02
      vertex 1.855681e+02 5.267671e+01 -1.741237e+02
    endloop
  endfacet
  facet normal -1.805589e-01 9.582808e-01 -2.215768e-01
    outer loop
      vertex 1.957939e+02 5.427954e+01 -1.787003e+02
      vertex 1.844000e+02 5.157921e+01 -1.810941e+02
      vertex 1.962671e+02 5.568891e+01 -1.729907e+02
    endloop
  endfacet
  facet normal 2.971545e-01 -9.397013e-01 -1.692945e-01
    outer loop
      vertex 1.922312e+02 1.083799e+01 -1.726338e+02
      vertex 1.893534e+02 1.006690e+01 -1.734049e+02
      vertex 1.900316e+02 1.179859e+01 -1.818266e+02
    endloop
  endfacet
  facet normal -2.558632e-01 -9.658971e-01 -3.970843e-02
    outer loop
      vertex 1.922312e+02 1.083799e+01 -1.726338e+02
      vertex 1.900316e+02 1.179859e+01 -1.818266e+02
      vertex 1.919509e+02 1.139714e+01 -1.844290e+02
    endloop
  endfacet
  facet normal -2.350197e-01 9.194745e-01 -3.151703e-01
    outer loop
      vertex 1.950095e+02 1.224984e+01 -1.842221e+02
      vertex 1.919509e+02 1.139714e+01 -1.844290e+02
      vertex 1.900316e+02 1.179859e+01 -1.818266e+02
    endloop
  endfacet
  facet normal -2.277714e-01 -1.166481e-01 9.667024e-01
    outer loop
      vertex 1.859827e+02 1.282093e+01 -1.738667e+02
      vertex 1.893534e+02 1.006690e+01 -1.734049e+02
      vertex 1.922312e+02 1.083799e+01 -1.726338e+02
    endloop
  endfacet
  facet normal 2.714473e-01 -9.610471e-01 -5.200813e-02
    outer loop
      vertex 1.953845e+02 1.173087e+01 -1.726752e+02
      vertex 1.922312e+02 1.083799e+01 -1.726338e+02
      vertex 1.919509e+02 1.139714e+01 -1.844290e+02
    endloop
  endfacet
  facet normal 2.714473e-01 -9.610471e-01 -5.200813e-02
    outer loop
      vertex 1.950095e+02 1.224984e+01 -1.842221e+02
      vertex 1.953845e+02 1.173087e+01 -1.726752e+02
      vertex 1.919509e+02 1.139714e+01 -1.844290e+02
    endloop
  endfacet
  facet normal 2.723559e-01 -9.621708e-01 -7.040978e-03
    outer loop
      vertex 1.980796e+02 1.248194e+01 -1.710574e+02
      vertex 1.922312e+02 1.083799e+01 -1.726338e+02
      vertex 1.953845e+02 1.173087e+01 -1.726752e+02
    endloop
  endfacet
  facet normal -2.277714e-01 -1.166481e-01 9.667024e-01
    outer loop
      vertex 1.951430e+02 1.161820e+01 -1.718536e+02
      vertex 1.859827e+02 1.282093e+01 -1.738667e+02
      vertex 1.922312e+02 1.083799e+01 -1.726338e+02
    endloop
  endfacet
  facet normal 2.277714e-01 1.166481e-01 -9.667024e-01
    outer loop
      vertex 1.951430e+02 1.161820e+01 -1.718536e+02
      vertex 1.922312e+02 1.083799e+01 -1.726338e+02
      vertex 1.980796e+02 1.248194e+01 -1.710574e+02
    endloop
  endfacet
  facet normal 4.143092e-01 -9.085157e-01 -5.428622e-02
    outer loop
      vertex 2.029868e+02 1.520210e+01 -1.727479e+02
      vertex 1.953845e+02 1.173087e+01 -1.726752e+02
      vertex 1.950095e+02 1.224984e+01 -1.842221e+02
    endloop
  endfacet
  facet normal 5.497356e-01 -4.295923e-01 -7.164086e-01
    outer loop
      vertex 2.020595e+02 1.606957e+01 -1.701548e+02
      vertex 1.980796e+02 1.248194e+01 -1.710574e+02
      vertex 1.953845e+02 1.173087e+01 -1.726752e+02
    endloop
  endfacet
  facet normal 3.815322e-01 -8.269325e-01 4.130566e-01
    outer loop
      vertex 2.020595e+02 1.606957e+01 -1.701548e+02
      vertex 1.953845e+02 1.173087e+01 -1.726752e+02
      vertex 2.029868e+02 1.520210e+01 -1.727479e+02
    endloop
  endfacet
  facet normal 3.675631e-01 -7.949666e-01 -4.826235e-01
    outer loop
      vertex 2.015622e+02 1.419944e+01 -1.824429e+02
      vertex 1.950095e+02 1.224984e+01 -1.842221e+02
      vertex 1.955545e+02 1.995422e+01 -1.964975e+02
    endloop
  endfacet
  facet normal 2.697189e-01 -9.610827e-01 5.976357e-02
    outer loop
      vertex 2.029868e+02 1.520210e+01 -1.727479e+02
      vertex 1.950095e+02 1.224984e+01 -1.842221e+02
      vertex 2.015622e+02 1.419944e+01 -1.824429e+02
    endloop
  endfacet
  facet normal -2.277714e-01 -1.166481e-01 9.667024e-01
    outer loop
      vertex 1.951430e+02 1.161820e+01 -1.718536e+02
      vertex 1.980796e+02 1.248194e+01 -1.710574e+02
      vertex 1.859827e+02 1.282093e+01 -1.738667e+02
    endloop
  endfacet
  facet normal -2.275916e-01 -1.559887e-01 9.611813e-01
    outer loop
      vertex 1.971261e+02 2.493516e+01 -1.692622e+02
      vertex 1.859827e+02 1.282093e+01 -1.738667e+02
      vertex 1.980796e+02 1.248194e+01 -1.710574e+02
    endloop
  endfacet
  facet normal -1.555817e-01 -1.526058e-01 9.759640e-01
    outer loop
      vertex 2.028782e+02 2.272516e+01 -1.686908e+02
      vertex 1.971261e+02 2.493516e+01 -1.692622e+02
      vertex 1.980796e+02 1.248194e+01 -1.710574e+02
    endloop
  endfacet
  facet normal -3.133375e-02 -2.110442e-01 9.769742e-01
    outer loop
      vertex 2.020595e+02 1.606957e+01 -1.701548e+02
      vertex 2.028782e+02 2.272516e+01 -1.686908e+02
      vertex 1.980796e+02 1.248194e+01 -1.710574e+02
    endloop
  endfacet
  facet normal -7.910852e-01 -5.652917e-01 -2.337295e-01
    outer loop
      vertex 1.935519e+02 2.256418e+01 -2.236174e+02
      vertex 1.903884e+02 2.707454e+01 -2.238186e+02
      vertex 1.941607e+02 2.326281e+01 -2.273675e+02
    endloop
  endfacet
  facet normal -7.944137e-01 -5.536374e-01 -2.497849e-01
    outer loop
      vertex 1.912977e+02 2.744743e+01 -2.275371e+02
      vertex 1.941607e+02 2.326281e+01 -2.273675e+02
      vertex 1.903884e+02 2.707454e+01 -2.238186e+02
    endloop
  endfacet
  facet normal -4.545632e-01 -8.594539e-01 -2.339043e-01
    outer loop
      vertex 1.983814e+02 1.979124e+01 -2.228141e+02
      vertex 1.935519e+02 2.256418e+01 -2.236174e+02
      vertex 1.941607e+02 2.326281e+01 -2.273675e+02
    endloop
  endfacet
  facet normal -6.829020e-01 -4.892105e-01 -5.425108e-01
    outer loop
      vertex 1.975560e+02 2.599180e+01 -2.341023e+02
      vertex 1.941607e+02 2.326281e+01 -2.273675e+02
      vertex 1.912977e+02 2.744743e+01 -2.275371e+02
    endloop
  endfacet
  facet normal -5.178024e-01 -8.402784e-01 -1.606640e-01
    outer loop
      vertex 1.983550e+02 2.055171e+01 -2.267063e+02
      vertex 1.983814e+02 1.979124e+01 -2.228141e+02
      vertex 1.941607e+02 2.326281e+01 -2.273675e+02
    endloop
  endfacet
  facet normal -4.079283e-01 -7.559611e-01 -5.119740e-01
    outer loop
      vertex 1.975560e+02 2.599180e+01 -2.341023e+02
      vertex 1.983550e+02 2.055171e+01 -2.267063e+02
      vertex 1.941607e+02 2.326281e+01 -2.273675e+02
    endloop
  endfacet
  facet normal -8.153759e-01 -5.749345e-01 -6.791482e-02
    outer loop
      vertex 1.895084e+02 2.646346e+01 -2.080806e+02
      vertex 1.903884e+02 2.707454e+01 -2.238186e+02
      vertex 1.935519e+02 2.256418e+01 -2.236174e+02
    endloop
  endfacet
  facet normal -9.683440e-01 -5.850964e-02 -2.426654e-01
    outer loop
      vertex 1.897212e+02 3.486759e+01 -2.230354e+02
      vertex 1.912977e+02 2.744743e+01 -2.275371e+02
      vertex 1.903884e+02 2.707454e+01 -2.238186e+02
    endloop
  endfacet
  facet normal -9.982757e-01 2.044445e-02 -5.502426e-02
    outer loop
      vertex 1.896878e+02 3.353829e+01 -2.087073e+02
      vertex 1.903884e+02 2.707454e+01 -2.238186e+02
      vertex 1.895084e+02 2.646346e+01 -2.080806e+02
    endloop
  endfacet
  facet normal -9.963906e-01 -8.427818e-02 -1.014232e-02
    outer loop
      vertex 1.896878e+02 3.353829e+01 -2.087073e+02
      vertex 1.897212e+02 3.486759e+01 -2.230354e+02
      vertex 1.903884e+02 2.707454e+01 -2.238186e+02
    endloop
  endfacet
  facet normal -4.990384e-01 -8.665327e-01 9.044828e-03
    outer loop
      vertex 1.969662e+02 2.075575e+01 -2.084955e+02
      vertex 1.935519e+02 2.256418e+01 -2.236174e+02
      vertex 1.983814e+02 1.979124e+01 -2.228141e+02
    endloop
  endfacet
  facet normal -8.365983e-01 -5.416775e-01 -8.178452e-02
    outer loop
      vertex 1.919089e+02 2.251260e+01 -2.064689e+02
      vertex 1.895084e+02 2.646346e+01 -2.080806e+02
      vertex 1.935519e+02 2.256418e+01 -2.236174e+02
    endloop
  endfacet
  facet normal -3.405981e-01 -9.395401e-01 -3.545902e-02
    outer loop
      vertex 1.969662e+02 2.075575e+01 -2.084955e+02
      vertex 1.919089e+02 2.251260e+01 -2.064689e+02
      vertex 1.935519e+02 2.256418e+01 -2.236174e+02
    endloop
  endfacet
  facet normal -5.403249e-01 -7.675282e-01 -3.448904e-01
    outer loop
      vertex 1.969617e+02 3.003205e+01 -2.421625e+02
      vertex 1.975560e+02 2.599180e+01 -2.341023e+02
      vertex 1.912977e+02 2.744743e+01 -2.275371e+02
    endloop
  endfacet
  facet normal -9.226325e-01 -9.430161e-02 -3.739740e-01
    outer loop
      vertex 1.903768e+02 3.412304e+01 -2.269485e+02
      vertex 1.969617e+02 3.003205e+01 -2.421625e+02
      vertex 1.912977e+02 2.744743e+01 -2.275371e+02
    endloop
  endfacet
  facet normal -9.823090e-01 -1.230597e-01 -1.411572e-01
    outer loop
      vertex 1.897212e+02 3.486759e+01 -2.230354e+02
      vertex 1.903768e+02 3.412304e+01 -2.269485e+02
      vertex 1.912977e+02 2.744743e+01 -2.275371e+02
    endloop
  endfacet
  facet normal 3.763677e-02 -9.806992e-01 -1.918658e-01
    outer loop
      vertex 2.056376e+02 1.990811e+01 -2.219881e+02
      vertex 1.983814e+02 1.979124e+01 -2.228141e+02
      vertex 1.983550e+02 2.055171e+01 -2.267063e+02
    endloop
  endfacet
  facet normal 1.878088e-01 -9.785658e-01 8.447985e-02
    outer loop
      vertex 2.031332e+02 2.181630e+01 -2.099207e+02
      vertex 1.969662e+02 2.075575e+01 -2.084955e+02
      vertex 1.983814e+02 1.979124e+01 -2.228141e+02
    endloop
  endfacet
  facet normal -1.827881e-03 -9.877844e-01 1.558163e-01
    outer loop
      vertex 2.031332e+02 2.181630e+01 -2.099207e+02
      vertex 1.983814e+02 1.979124e+01 -2.228141e+02
      vertex 2.056376e+02 1.990811e+01 -2.219881e+02
    endloop
  endfacet
  facet normal -7.481870e-01 -5.704776e-01 -3.387794e-01
    outer loop
      vertex 2.018034e+02 2.489825e+01 -2.416412e+02
      vertex 1.983550e+02 2.055171e+01 -2.267063e+02
      vertex 1.975560e+02 2.599180e+01 -2.341023e+02
    endloop
  endfacet
  facet normal 1.935303e-02 -9.611735e-01 -2.752653e-01
    outer loop
      vertex 2.069104e+02 2.345327e+01 -2.362365e+02
      vertex 1.983550e+02 2.055171e+01 -2.267063e+02
      vertex 2.018034e+02 2.489825e+01 -2.416412e+02
    endloop
  endfacet
  facet normal 6.674949e-02 -9.696301e-01 -2.352914e-01
    outer loop
      vertex 2.056376e+02 1.990811e+01 -2.219881e+02
      vertex 1.983550e+02 2.055171e+01 -2.267063e+02
      vertex 2.069104e+02 2.345327e+01 -2.362365e+02
    endloop
  endfacet
  facet normal -8.179312e-01 -5.362153e-01 -2.084745e-01
    outer loop
      vertex 1.988023e+02 2.718918e+01 -2.420718e+02
      vertex 1.975560e+02 2.599180e+01 -2.341023e+02
      vertex 1.969617e+02 3.003205e+01 -2.421625e+02
    endloop
  endfacet
  facet normal -5.743061e-01 -7.915801e-01 -2.087426e-01
    outer loop
      vertex 2.018034e+02 2.489825e+01 -2.416412e+02
      vertex 1.975560e+02 2.599180e+01 -2.341023e+02
      vertex 1.988023e+02 2.718918e+01 -2.420718e+02
    endloop
  endfacet
  facet normal -3.635015e-01 -9.257016e-01 -1.046098e-01
    outer loop
      vertex 1.955545e+02 1.995422e+01 -1.964975e+02
      vertex 1.919089e+02 2.251260e+01 -2.064689e+02
      vertex 1.969662e+02 2.075575e+01 -2.084955e+02
    endloop
  endfacet
  facet normal 2.959564e-01 -9.547623e-01 -2.896241e-02
    outer loop
      vertex 2.009341e+02 2.162147e+01 -1.964879e+02
      vertex 1.955545e+02 1.995422e+01 -1.964975e+02
      vertex 1.969662e+02 2.075575e+01 -2.084955e+02
    endloop
  endfacet
  facet normal 1.726027e-01 -9.848924e-01 1.397201e-02
    outer loop
      vertex 2.009341e+02 2.162147e+01 -1.964879e+02
      vertex 1.969662e+02 2.075575e+01 -2.084955e+02
      vertex 2.031332e+02 2.181630e+01 -2.099207e+02
    endloop
  endfacet
  facet normal 2.636194e-01 -8.479451e-01 -4.598847e-01
    outer loop
      vertex 2.015622e+02 1.419944e+01 -1.824429e+02
      vertex 1.955545e+02 1.995422e+01 -1.964975e+02
      vertex 2.009341e+02 2.162147e+01 -1.964879e+02
    endloop
  endfacet
  facet normal 3.462593e-03 -2.847768e-01 9.585876e-01
    outer loop
      vertex 2.083643e+02 4.056305e+01 -1.646600e+02
      vertex 1.979675e+02 3.780363e+01 -1.654423e+02
      vertex 1.971261e+02 2.493516e+01 -1.692622e+02
    endloop
  endfacet
  facet normal -1.618347e-01 -1.698836e-01 9.720849e-01
    outer loop
      vertex 2.083643e+02 4.056305e+01 -1.646600e+02
      vertex 1.971261e+02 2.493516e+01 -1.692622e+02
      vertex 2.028782e+02 2.272516e+01 -1.686908e+02
    endloop
  endfacet
  facet normal -9.217503e-01 -1.426642e-01 -3.605875e-01
    outer loop
      vertex 1.960883e+02 3.475474e+01 -2.417984e+02
      vertex 1.969617e+02 3.003205e+01 -2.421625e+02
      vertex 1.903768e+02 3.412304e+01 -2.269485e+02
    endloop
  endfacet
  facet normal -2.794907e-01 2.231292e-02 -9.598891e-01
    outer loop
      vertex 1.964796e+02 3.550563e+01 -2.418949e+02
      vertex 1.969617e+02 3.003205e+01 -2.421625e+02
      vertex 1.960883e+02 3.475474e+01 -2.417984e+02
    endloop
  endfacet
  facet normal 1.426489e-01 6.085983e-02 -9.879005e-01
    outer loop
      vertex 1.964796e+02 3.550563e+01 -2.418949e+02
      vertex 1.988023e+02 2.718918e+01 -2.420718e+02
      vertex 1.969617e+02 3.003205e+01 -2.421625e+02
    endloop
  endfacet
  facet normal -8.513144e-01 4.237136e-01 -3.094035e-01
    outer loop
      vertex 1.928505e+02 4.004016e+01 -2.256517e+02
      vertex 1.960883e+02 3.475474e+01 -2.417984e+02
      vertex 1.903768e+02 3.412304e+01 -2.269485e+02
    endloop
  endfacet
  facet normal -8.392384e-01 4.908409e-01 -2.339959e-01
    outer loop
      vertex 1.924664e+02 4.017495e+01 -2.217482e+02
      vertex 1.903768e+02 3.412304e+01 -2.269485e+02
      vertex 1.897212e+02 3.486759e+01 -2.230354e+02
    endloop
  endfacet
  facet normal -9.094060e-01 4.028506e-01 -1.034026e-01
    outer loop
      vertex 1.924664e+02 4.017495e+01 -2.217482e+02
      vertex 1.928505e+02 4.004016e+01 -2.256517e+02
      vertex 1.903768e+02 3.412304e+01 -2.269485e+02
    endloop
  endfacet
  facet normal -8.880383e-01 4.519847e-01 -8.424824e-02
    outer loop
      vertex 1.995307e+02 4.182843e+01 -2.401338e+02
      vertex 1.964796e+02 3.550563e+01 -2.418949e+02
      vertex 1.960883e+02 3.475474e+01 -2.417984e+02
    endloop
  endfacet
  facet normal -9.034469e-01 3.195652e-01 -2.857654e-01
    outer loop
      vertex 1.974235e+02 3.930132e+01 -2.409352e+02
      vertex 1.960883e+02 3.475474e+01 -2.417984e+02
      vertex 1.928505e+02 4.004016e+01 -2.256517e+02
    endloop
  endfacet
  facet normal 2.277714e-01 1.166481e-01 -9.667024e-01
    outer loop
      vertex 1.995307e+02 4.182843e+01 -2.401338e+02
      vertex 1.960883e+02 3.475474e+01 -2.417984e+02
      vertex 1.974235e+02 3.930132e+01 -2.409352e+02
    endloop
  endfacet
  facet normal -2.176426e-01 -4.003439e-02 -9.752071e-01
    outer loop
      vertex 2.076977e+02 3.630263e+01 -2.444312e+02
      vertex 1.988023e+02 2.718918e+01 -2.420718e+02
      vertex 1.964796e+02 3.550563e+01 -2.418949e+02
    endloop
  endfacet
  facet normal 1.622623e-01 2.713334e-02 -9.863745e-01
    outer loop
      vertex 2.067401e+02 2.412794e+01 -2.408503e+02
      vertex 2.018034e+02 2.489825e+01 -2.416412e+02
      vertex 1.988023e+02 2.718918e+01 -2.420718e+02
    endloop
  endfacet
  facet normal 3.761629e-02 -2.847007e-01 -9.578781e-01
    outer loop
      vertex 2.076977e+02 3.630263e+01 -2.444312e+02
      vertex 2.067401e+02 2.412794e+01 -2.408503e+02
      vertex 1.988023e+02 2.718918e+01 -2.420718e+02
    endloop
  endfacet
  facet normal 1.641823e-01 1.903653e-01 -9.678870e-01
    outer loop
      vertex 2.061113e+02 4.386666e+01 -2.386166e+02
      vertex 1.964796e+02 3.550563e+01 -2.418949e+02
      vertex 1.995307e+02 4.182843e+01 -2.401338e+02
    endloop
  endfacet
  facet normal -2.199278e-01 5.651218e-01 -7.951535e-01
    outer loop
      vertex 2.061113e+02 4.386666e+01 -2.386166e+02
      vertex 2.076977e+02 3.630263e+01 -2.444312e+02
      vertex 1.964796e+02 3.550563e+01 -2.418949e+02
    endloop
  endfacet
  facet normal -7.991753e-01 5.986962e-01 5.368146e-02
    outer loop
      vertex 1.926307e+02 3.749820e+01 -2.090589e+02
      vertex 1.897212e+02 3.486759e+01 -2.230354e+02
      vertex 1.896878e+02 3.353829e+01 -2.087073e+02
    endloop
  endfacet
  facet normal -8.934697e-01 4.369760e-01 1.037491e-01
    outer loop
      vertex 1.926307e+02 3.749820e+01 -2.090589e+02
      vertex 1.924664e+02 4.017495e+01 -2.217482e+02
      vertex 1.897212e+02 3.486759e+01 -2.230354e+02
    endloop
  endfacet
  facet normal -1.863195e-01 -1.130671e-01 9.759615e-01
    outer loop
      vertex 2.053948e+02 4.781578e+01 -1.628644e+02
      vertex 1.968276e+02 4.838976e+01 -1.644334e+02
      vertex 1.979675e+02 3.780363e+01 -1.654423e+02
    endloop
  endfacet
  facet normal -8.331807e-03 -2.435326e-01 9.698569e-01
    outer loop
      vertex 2.053948e+02 4.781578e+01 -1.628644e+02
      vertex 1.979675e+02 3.780363e+01 -1.654423e+02
      vertex 2.083643e+02 4.056305e+01 -1.646600e+02
    endloop
  endfacet
  facet normal -5.468883e-01 8.122472e-01 -2.028983e-01
    outer loop
      vertex 1.998000e+02 4.222239e+01 -2.356471e+02
      vertex 1.974235e+02 3.930132e+01 -2.409352e+02
      vertex 1.928505e+02 4.004016e+01 -2.256517e+02
    endloop
  endfacet
  facet normal -5.145326e-01 8.395389e-01 -1.744441e-01
    outer loop
      vertex 1.976721e+02 4.363679e+01 -2.225638e+02
      vertex 1.998000e+02 4.222239e+01 -2.356471e+02
      vertex 1.928505e+02 4.004016e+01 -2.256517e+02
    endloop
  endfacet
  facet normal -5.608584e-01 8.236766e-01 -8.363393e-02
    outer loop
      vertex 1.976721e+02 4.363679e+01 -2.225638e+02
      vertex 1.928505e+02 4.004016e+01 -2.256517e+02
      vertex 1.924664e+02 4.017495e+01 -2.217482e+02
    endloop
  endfacet
  facet normal -7.663640e-01 6.423224e-01 -1.040126e-02
    outer loop
      vertex 1.995307e+02 4.182843e+01 -2.401338e+02
      vertex 1.974235e+02 3.930132e+01 -2.409352e+02
      vertex 1.998000e+02 4.222239e+01 -2.356471e+02
    endloop
  endfacet
  facet normal -1.792692e-01 9.809087e-01 -7.536984e-02
    outer loop
      vertex 2.073806e+02 4.360266e+01 -2.357141e+02
      vertex 1.995307e+02 4.182843e+01 -2.401338e+02
      vertex 1.998000e+02 4.222239e+01 -2.356471e+02
    endloop
  endfacet
  facet normal -1.058049e-02 9.939661e-01 -1.091759e-01
    outer loop
      vertex 2.062964e+02 4.378707e+01 -2.220315e+02
      vertex 1.998000e+02 4.222239e+01 -2.356471e+02
      vertex 1.976721e+02 4.363679e+01 -2.225638e+02
    endloop
  endfacet
  facet normal -1.793013e-01 9.834109e-01 -2.746034e-02
    outer loop
      vertex 2.062964e+02 4.378707e+01 -2.220315e+02
      vertex 2.073806e+02 4.360266e+01 -2.357141e+02
      vertex 1.998000e+02 4.222239e+01 -2.356471e+02
    endloop
  endfacet
  facet normal -3.359240e-01 9.133813e-01 2.299773e-01
    outer loop
      vertex 2.061113e+02 4.386666e+01 -2.386166e+02
      vertex 1.995307e+02 4.182843e+01 -2.401338e+02
      vertex 2.073806e+02 4.360266e+01 -2.357141e+02
    endloop
  endfacet
  facet normal -5.081537e-01 8.235309e-01 2.521442e-01
    outer loop
      vertex 1.974044e+02 3.982677e+01 -2.106594e+02
      vertex 1.976721e+02 4.363679e+01 -2.225638e+02
      vertex 1.924664e+02 4.017495e+01 -2.217482e+02
    endloop
  endfacet
  facet normal -3.760846e-01 9.056376e-01 1.959106e-01
    outer loop
      vertex 1.974044e+02 3.982677e+01 -2.106594e+02
      vertex 1.924664e+02 4.017495e+01 -2.217482e+02
      vertex 1.926307e+02 3.749820e+01 -2.090589e+02
    endloop
  endfacet
  facet normal -1.163903e-01 9.466939e-01 3.003730e-01
    outer loop
      vertex 2.056474e+02 4.325522e+01 -2.182708e+02
      vertex 1.976721e+02 4.363679e+01 -2.225638e+02
      vertex 1.974044e+02 3.982677e+01 -2.106594e+02
    endloop
  endfacet
  facet normal -2.562934e-02 9.904258e-01 1.356465e-01
    outer loop
      vertex 2.056474e+02 4.325522e+01 -2.182708e+02
      vertex 2.062964e+02 4.378707e+01 -2.220315e+02
      vertex 1.976721e+02 4.363679e+01 -2.225638e+02
    endloop
  endfacet
  facet normal -4.190054e-01 9.054611e-01 6.763707e-02
    outer loop
      vertex 1.970496e+02 3.907144e+01 -2.027455e+02
      vertex 1.974044e+02 3.982677e+01 -2.106594e+02
      vertex 1.926307e+02 3.749820e+01 -2.090589e+02
    endloop
  endfacet
  facet normal 2.357683e-01 9.663566e-01 1.028020e-01
    outer loop
      vertex 2.021596e+02 3.771406e+01 -2.017053e+02
      vertex 1.974044e+02 3.982677e+01 -2.106594e+02
      vertex 1.970496e+02 3.907144e+01 -2.027455e+02
    endloop
  endfacet
  facet normal -1.260360e-01 9.484688e-01 2.907263e-01
    outer loop
      vertex 2.021596e+02 3.771406e+01 -2.017053e+02
      vertex 2.056474e+02 4.325522e+01 -2.182708e+02
      vertex 1.974044e+02 3.982677e+01 -2.106594e+02
    endloop
  endfacet
  facet normal 3.124180e-01 8.373187e-01 -4.486562e-01
    outer loop
      vertex 2.071746e+02 4.769500e+01 -1.796011e+02
      vertex 1.970496e+02 3.907144e+01 -2.027455e+02
      vertex 1.990073e+02 4.981406e+01 -1.813336e+02
    endloop
  endfacet
  facet normal 3.136455e-01 8.366961e-01 -4.489612e-01
    outer loop
      vertex 2.071746e+02 4.769500e+01 -1.796011e+02
      vertex 2.021596e+02 3.771406e+01 -2.017053e+02
      vertex 1.970496e+02 3.907144e+01 -2.027455e+02
    endloop
  endfacet
  facet normal 2.063413e-01 6.029269e-01 -7.706507e-01
    outer loop
      vertex 2.084060e+02 5.269761e+01 -1.765611e+02
      vertex 1.990073e+02 4.981406e+01 -1.813336e+02
      vertex 1.957939e+02 5.427954e+01 -1.787003e+02
    endloop
  endfacet
  facet normal 2.944573e-01 4.423181e-01 -8.471420e-01
    outer loop
      vertex 2.084060e+02 5.269761e+01 -1.765611e+02
      vertex 2.071746e+02 4.769500e+01 -1.796011e+02
      vertex 1.990073e+02 4.981406e+01 -1.813336e+02
    endloop
  endfacet
  facet normal -5.400169e-02 4.840210e-01 8.733885e-01
    outer loop
      vertex 2.049656e+02 5.308577e+01 -1.665327e+02
      vertex 1.953455e+02 5.387065e+01 -1.675625e+02
      vertex 1.968276e+02 4.838976e+01 -1.644334e+02
    endloop
  endfacet
  facet normal -1.125253e-01 5.614851e-01 8.198003e-01
    outer loop
      vertex 2.049656e+02 5.308577e+01 -1.665327e+02
      vertex 1.968276e+02 4.838976e+01 -1.644334e+02
      vertex 2.053948e+02 4.781578e+01 -1.628644e+02
    endloop
  endfacet
  facet normal 1.250515e-01 9.607780e-01 -2.475234e-01
    outer loop
      vertex 2.061488e+02 5.455131e+01 -1.724140e+02
      vertex 1.957939e+02 5.427954e+01 -1.787003e+02
      vertex 1.962671e+02 5.568891e+01 -1.729907e+02
    endloop
  endfacet
  facet normal 4.245233e-02 9.451702e-01 3.238071e-01
    outer loop
      vertex 2.049656e+02 5.308577e+01 -1.665327e+02
      vertex 1.962671e+02 5.568891e+01 -1.729907e+02
      vertex 1.953455e+02 5.387065e+01 -1.675625e+02
    endloop
  endfacet
  facet normal 9.555434e-02 9.612075e-01 2.587459e-01
    outer loop
      vertex 2.049656e+02 5.308577e+01 -1.665327e+02
      vertex 2.061488e+02 5.455131e+01 -1.724140e+02
      vertex 1.962671e+02 5.568891e+01 -1.729907e+02
    endloop
  endfacet
  facet normal 1.714932e-01 9.308259e-01 -3.227278e-01
    outer loop
      vertex 2.084060e+02 5.269761e+01 -1.765611e+02
      vertex 1.957939e+02 5.427954e+01 -1.787003e+02
      vertex 2.061488e+02 5.455131e+01 -1.724140e+02
    endloop
  endfacet
  facet normal -2.135895e-01 -9.751472e-01 -5.888545e-02
    outer loop
      vertex 2.064647e+02 2.381882e+01 -2.406731e+02
      vertex 2.069104e+02 2.345327e+01 -2.362365e+02
      vertex 2.018034e+02 2.489825e+01 -2.416412e+02
    endloop
  endfacet
  facet normal 5.256332e-02 -5.313011e-01 -8.455508e-01
    outer loop
      vertex 2.067401e+02 2.412794e+01 -2.408503e+02
      vertex 2.064647e+02 2.381882e+01 -2.406731e+02
      vertex 2.018034e+02 2.489825e+01 -2.416412e+02
    endloop
  endfacet
  facet normal 4.010056e-01 -9.088070e-01 -1.151706e-01
    outer loop
      vertex 2.110506e+02 2.518800e+01 -2.355099e+02
      vertex 2.069104e+02 2.345327e+01 -2.362365e+02
      vertex 2.064647e+02 2.381882e+01 -2.406731e+02
    endloop
  endfacet
  facet normal 4.427751e-01 -8.785743e-01 -1.790456e-01
    outer loop
      vertex 2.106355e+02 2.273011e+01 -2.234761e+02
      vertex 2.056376e+02 1.990811e+01 -2.219881e+02
      vertex 2.069104e+02 2.345327e+01 -2.362365e+02
    endloop
  endfacet
  facet normal 4.060092e-01 -8.980284e-01 -1.694154e-01
    outer loop
      vertex 2.106355e+02 2.273011e+01 -2.234761e+02
      vertex 2.069104e+02 2.345327e+01 -2.362365e+02
      vertex 2.110506e+02 2.518800e+01 -2.355099e+02
    endloop
  endfacet
  facet normal 4.958215e-01 -7.199504e-01 -4.856259e-01
    outer loop
      vertex 2.134964e+02 2.743777e+01 -2.388590e+02
      vertex 2.064647e+02 2.381882e+01 -2.406731e+02
      vertex 2.067401e+02 2.412794e+01 -2.408503e+02
    endloop
  endfacet
  facet normal 2.683162e-01 -3.882134e-02 -9.625483e-01
    outer loop
      vertex 2.134964e+02 2.743777e+01 -2.388590e+02
      vertex 2.109687e+02 2.502567e+01 -2.394663e+02
      vertex 2.064647e+02 2.381882e+01 -2.406731e+02
    endloop
  endfacet
  facet normal 2.500224e-01 -9.676242e-01 3.452780e-02
    outer loop
      vertex 2.110506e+02 2.518800e+01 -2.355099e+02
      vertex 2.064647e+02 2.381882e+01 -2.406731e+02
      vertex 2.109687e+02 2.502567e+01 -2.394663e+02
    endloop
  endfacet
  facet normal 1.210633e-01 -2.888555e-01 -9.496874e-01
    outer loop
      vertex 2.105640e+02 3.484251e+01 -2.436217e+02
      vertex 2.067401e+02 2.412794e+01 -2.408503e+02
      vertex 2.076977e+02 3.630263e+01 -2.444312e+02
    endloop
  endfacet
  facet normal 4.233760e-01 -3.655172e-01 -8.289451e-01
    outer loop
      vertex 2.105640e+02 3.484251e+01 -2.436217e+02
      vertex 2.134964e+02 2.743777e+01 -2.388590e+02
      vertex 2.067401e+02 2.412794e+01 -2.408503e+02
    endloop
  endfacet
  facet normal 4.595402e-01 -8.575956e-01 2.309819e-01
    outer loop
      vertex 2.108315e+02 2.337533e+01 -2.194482e+02
      vertex 2.031332e+02 2.181630e+01 -2.099207e+02
      vertex 2.056376e+02 1.990811e+01 -2.219881e+02
    endloop
  endfacet
  facet normal 5.135423e-01 -8.508156e-01 1.112974e-01
    outer loop
      vertex 2.108315e+02 2.337533e+01 -2.194482e+02
      vertex 2.056376e+02 1.990811e+01 -2.219881e+02
      vertex 2.106355e+02 2.273011e+01 -2.234761e+02
    endloop
  endfacet
  facet normal 6.283544e-01 -7.637362e-01 1.479114e-01
    outer loop
      vertex 2.068741e+02 2.484054e+01 -2.101971e+02
      vertex 2.037749e+02 2.515803e+01 -1.953918e+02
      vertex 2.031332e+02 2.181630e+01 -2.099207e+02
    endloop
  endfacet
  facet normal 7.568539e-01 -6.434635e-01 1.145724e-01
    outer loop
      vertex 2.009341e+02 2.162147e+01 -1.964879e+02
      vertex 2.031332e+02 2.181630e+01 -2.099207e+02
      vertex 2.037749e+02 2.515803e+01 -1.953918e+02
    endloop
  endfacet
  facet normal 6.230005e-01 -7.504689e-01 2.206057e-01
    outer loop
      vertex 2.131892e+02 2.767957e+01 -2.183733e+02
      vertex 2.068741e+02 2.484054e+01 -2.101971e+02
      vertex 2.031332e+02 2.181630e+01 -2.099207e+02
    endloop
  endfacet
  facet normal 7.080095e-01 -5.098453e-01 4.886516e-01
    outer loop
      vertex 2.108315e+02 2.337533e+01 -2.194482e+02
      vertex 2.131892e+02 2.767957e+01 -2.183733e+02
      vertex 2.031332e+02 2.181630e+01 -2.099207e+02
    endloop
  endfacet
  facet normal 8.313428e-01 -5.239726e-01 1.852615e-01
    outer loop
      vertex 2.066253e+02 2.737946e+01 -2.019002e+02
      vertex 2.037749e+02 2.515803e+01 -1.953918e+02
      vertex 2.068741e+02 2.484054e+01 -2.101971e+02
    endloop
  endfacet
  facet normal 7.933742e-01 -5.804034e-01 -1.835465e-01
    outer loop
      vertex 2.058590e+02 2.324563e+01 -1.803359e+02
      vertex 2.009341e+02 2.162147e+01 -1.964879e+02
      vertex 2.037749e+02 2.515803e+01 -1.953918e+02
    endloop
  endfacet
  facet normal 9.850654e-01 1.227212e-01 -1.207708e-01
    outer loop
      vertex 2.038209e+02 3.922264e+01 -1.807246e+02
      vertex 2.058590e+02 2.324563e+01 -1.803359e+02
      vertex 2.037749e+02 2.515803e+01 -1.953918e+02
    endloop
  endfacet
  facet normal 9.892920e-01 -1.068823e-01 9.938605e-02
    outer loop
      vertex 2.053812e+02 3.450094e+01 -2.013340e+02
      vertex 2.038209e+02 3.922264e+01 -1.807246e+02
      vertex 2.037749e+02 2.515803e+01 -1.953918e+02
    endloop
  endfacet
  facet normal 7.152935e-01 2.833101e-01 6.388197e-01
    outer loop
      vertex 2.064705e+02 3.215151e+01 -2.015117e+02
      vertex 2.053812e+02 3.450094e+01 -2.013340e+02
      vertex 2.037749e+02 2.515803e+01 -1.953918e+02
    endloop
  endfacet
  facet normal 9.163528e-01 -2.856187e-03 4.003616e-01
    outer loop
      vertex 2.066253e+02 2.737946e+01 -2.019002e+02
      vertex 2.064705e+02 3.215151e+01 -2.015117e+02
      vertex 2.037749e+02 2.515803e+01 -1.953918e+02
    endloop
  endfacet
  facet normal 6.409319e-01 -7.284143e-01 2.421136e-01
    outer loop
      vertex 2.066253e+02 2.737946e+01 -2.019002e+02
      vertex 2.068741e+02 2.484054e+01 -2.101971e+02
      vertex 2.131892e+02 2.767957e+01 -2.183733e+02
    endloop
  endfacet
  facet normal 8.978667e-01 -3.714017e-01 -2.364236e-01
    outer loop
      vertex 2.015622e+02 1.419944e+01 -1.824429e+02
      vertex 2.009341e+02 2.162147e+01 -1.964879e+02
      vertex 2.058590e+02 2.324563e+01 -1.803359e+02
    endloop
  endfacet
  facet normal 8.721883e-01 -4.556955e-01 1.778463e-01
    outer loop
      vertex 2.042473e+02 2.271531e+01 -1.737905e+02
      vertex 2.015622e+02 1.419944e+01 -1.824429e+02
      vertex 2.058590e+02 2.324563e+01 -1.803359e+02
    endloop
  endfacet
  facet normal 9.446637e-01 -2.500310e-01 2.123558e-01
    outer loop
      vertex 2.079200e+02 3.766028e+01 -1.725321e+02
      vertex 2.042473e+02 2.271531e+01 -1.737905e+02
      vertex 2.058590e+02 2.324563e+01 -1.803359e+02
    endloop
  endfacet
  facet normal 8.972502e-01 1.040181e-01 -4.290948e-01
    outer loop
      vertex 2.079200e+02 3.766028e+01 -1.725321e+02
      vertex 2.058590e+02 2.324563e+01 -1.803359e+02
      vertex 2.038209e+02 3.922264e+01 -1.807246e+02
    endloop
  endfacet
  facet normal 9.755618e-01 -1.809606e-01 -1.246295e-01
    outer loop
      vertex 2.029868e+02 1.520210e+01 -1.727479e+02
      vertex 2.015622e+02 1.419944e+01 -1.824429e+02
      vertex 2.042473e+02 2.271531e+01 -1.737905e+02
    endloop
  endfacet
  facet normal 9.581627e-01 -1.250216e-01 2.574759e-01
    outer loop
      vertex 2.028782e+02 2.272516e+01 -1.686908e+02
      vertex 2.029868e+02 1.520210e+01 -1.727479e+02
      vertex 2.042473e+02 2.271531e+01 -1.737905e+02
    endloop
  endfacet
  facet normal 9.097821e-01 -3.351475e-01 2.448931e-01
    outer loop
      vertex 2.083643e+02 4.056305e+01 -1.646600e+02
      vertex 2.028782e+02 2.272516e+01 -1.686908e+02
      vertex 2.042473e+02 2.271531e+01 -1.737905e+02
    endloop
  endfacet
  facet normal 9.698666e-01 -2.412239e-01 3.420194e-02
    outer loop
      vertex 2.083643e+02 4.056305e+01 -1.646600e+02
      vertex 2.042473e+02 2.271531e+01 -1.737905e+02
      vertex 2.079200e+02 3.766028e+01 -1.725321e+02
    endloop
  endfacet
  facet normal 9.007080e-01 -1.960620e-01 3.876657e-01
    outer loop
      vertex 2.020595e+02 1.606957e+01 -1.701548e+02
      vertex 2.029868e+02 1.520210e+01 -1.727479e+02
      vertex 2.028782e+02 2.272516e+01 -1.686908e+02
    endloop
  endfacet
  facet normal 3.806952e-01 6.124283e-01 -6.928223e-01
    outer loop
      vertex 2.124403e+02 4.126418e+01 -2.374394e+02
      vertex 2.076977e+02 3.630263e+01 -2.444312e+02
      vertex 2.061113e+02 4.386666e+01 -2.386166e+02
    endloop
  endfacet
  facet normal 4.710445e-01 5.364848e-01 -7.002150e-01
    outer loop
      vertex 2.124403e+02 4.126418e+01 -2.374394e+02
      vertex 2.105640e+02 3.484251e+01 -2.436217e+02
      vertex 2.076977e+02 3.630263e+01 -2.444312e+02
    endloop
  endfacet
  facet normal 9.111008e-01 -3.813773e-01 1.563543e-01
    outer loop
      vertex 2.071746e+02 4.769500e+01 -1.796011e+02
      vertex 2.038209e+02 3.922264e+01 -1.807246e+02
      vertex 2.053812e+02 3.450094e+01 -2.013340e+02
    endloop
  endfacet
  facet normal 2.679120e-01 -9.128408e-01 -3.081313e-01
    outer loop
      vertex 2.106673e+02 3.880317e+01 -1.735291e+02
      vertex 2.079200e+02 3.766028e+01 -1.725321e+02
      vertex 2.038209e+02 3.922264e+01 -1.807246e+02
    endloop
  endfacet
  facet normal 1.992338e-01 5.090705e-02 -9.786288e-01
    outer loop
      vertex 2.100822e+02 4.652763e+01 -1.790699e+02
      vertex 2.038209e+02 3.922264e+01 -1.807246e+02
      vertex 2.071746e+02 4.769500e+01 -1.796011e+02
    endloop
  endfacet
  facet normal 4.928262e-01 -2.324818e-01 -8.384954e-01
    outer loop
      vertex 2.100822e+02 4.652763e+01 -1.790699e+02
      vertex 2.109033e+02 4.162034e+01 -1.772267e+02
      vertex 2.038209e+02 3.922264e+01 -1.807246e+02
    endloop
  endfacet
  facet normal 4.905981e-01 -7.079396e-01 -5.080700e-01
    outer loop
      vertex 2.106673e+02 3.880317e+01 -1.735291e+02
      vertex 2.038209e+02 3.922264e+01 -1.807246e+02
      vertex 2.109033e+02 4.162034e+01 -1.772267e+02
    endloop
  endfacet
  facet normal 6.692898e-01 6.998851e-01 2.494234e-01
    outer loop
      vertex 2.021596e+02 3.771406e+01 -2.017053e+02
      vertex 2.053812e+02 3.450094e+01 -2.013340e+02
      vertex 2.073092e+02 3.579452e+01 -2.101371e+02
    endloop
  endfacet
  facet normal 8.852222e-01 3.913930e-01 2.513824e-01
    outer loop
      vertex 2.064705e+02 3.215151e+01 -2.015117e+02
      vertex 2.073092e+02 3.579452e+01 -2.101371e+02
      vertex 2.053812e+02 3.450094e+01 -2.013340e+02
    endloop
  endfacet
  facet normal 6.625044e-01 6.147990e-01 -4.279136e-01
    outer loop
      vertex 2.071746e+02 4.769500e+01 -1.796011e+02
      vertex 2.053812e+02 3.450094e+01 -2.013340e+02
      vertex 2.021596e+02 3.771406e+01 -2.017053e+02
    endloop
  endfacet
  facet normal -7.549720e-02 -9.341760e-01 3.487340e-01
    outer loop
      vertex 2.107550e+02 4.015631e+01 -1.652320e+02
      vertex 2.083643e+02 4.056305e+01 -1.646600e+02
      vertex 2.079200e+02 3.766028e+01 -1.725321e+02
    endloop
  endfacet
  facet normal 4.235484e-01 -8.947623e-01 1.414469e-01
    outer loop
      vertex 2.107550e+02 4.015631e+01 -1.652320e+02
      vertex 2.079200e+02 3.766028e+01 -1.725321e+02
      vertex 2.106673e+02 3.880317e+01 -1.735291e+02
    endloop
  endfacet
  facet normal 4.042808e-01 -6.042681e-02 9.126366e-01
    outer loop
      vertex 2.095830e+02 4.425405e+01 -1.649555e+02
      vertex 2.053948e+02 4.781578e+01 -1.628644e+02
      vertex 2.083643e+02 4.056305e+01 -1.646600e+02
    endloop
  endfacet
  facet normal 2.328461e-01 9.662492e-04 9.725131e-01
    outer loop
      vertex 2.107550e+02 4.015631e+01 -1.652320e+02
      vertex 2.095830e+02 4.425405e+01 -1.649555e+02
      vertex 2.083643e+02 4.056305e+01 -1.646600e+02
    endloop
  endfacet
  facet normal 3.946175e-01 9.144872e-01 -8.938747e-02
    outer loop
      vertex 2.129127e+02 4.108285e+01 -2.370707e+02
      vertex 2.061113e+02 4.386666e+01 -2.386166e+02
      vertex 2.073806e+02 4.360266e+01 -2.357141e+02
    endloop
  endfacet
  facet normal 5.614596e-01 8.268321e-01 3.334272e-02
    outer loop
      vertex 2.113612e+02 4.031662e+01 -2.212569e+02
      vertex 2.073806e+02 4.360266e+01 -2.357141e+02
      vertex 2.062964e+02 4.378707e+01 -2.220315e+02
    endloop
  endfacet
  facet normal 4.303266e-01 8.985902e-01 8.575896e-02
    outer loop
      vertex 2.113612e+02 4.031662e+01 -2.212569e+02
      vertex 2.129127e+02 4.108285e+01 -2.370707e+02
      vertex 2.073806e+02 4.360266e+01 -2.357141e+02
    endloop
  endfacet
  facet normal 3.866959e-01 9.212326e-01 -4.238886e-02
    outer loop
      vertex 2.124403e+02 4.126418e+01 -2.374394e+02
      vertex 2.061113e+02 4.386666e+01 -2.386166e+02
      vertex 2.129127e+02 4.108285e+01 -2.370707e+02
    endloop
  endfacet
  facet normal 5.468864e-01 8.106922e-01 2.090295e-01
    outer loop
      vertex 2.106293e+02 3.970242e+01 -2.175257e+02
      vertex 2.062964e+02 4.378707e+01 -2.220315e+02
      vertex 2.056474e+02 4.325522e+01 -2.182708e+02
    endloop
  endfacet
  facet normal 5.241106e-01 8.178796e-01 2.374468e-01
    outer loop
      vertex 2.106293e+02 3.970242e+01 -2.175257e+02
      vertex 2.113612e+02 4.031662e+01 -2.212569e+02
      vertex 2.062964e+02 4.378707e+01 -2.220315e+02
    endloop
  endfacet
  facet normal 7.651512e-01 5.446915e-01 3.432998e-01
    outer loop
      vertex 2.021596e+02 3.771406e+01 -2.017053e+02
      vertex 2.073092e+02 3.579452e+01 -2.101371e+02
      vertex 2.056474e+02 4.325522e+01 -2.182708e+02
    endloop
  endfacet
  facet normal 4.215438e-01 7.095240e-01 5.646916e-01
    outer loop
      vertex 2.106293e+02 3.970242e+01 -2.175257e+02
      vertex 2.056474e+02 4.325522e+01 -2.182708e+02
      vertex 2.073092e+02 3.579452e+01 -2.101371e+02
    endloop
  endfacet
  facet normal 5.738066e-01 7.329735e-01 3.653709e-01
    outer loop
      vertex 2.064705e+02 3.215151e+01 -2.015117e+02
      vertex 2.132522e+02 3.481121e+01 -2.174979e+02
      vertex 2.073092e+02 3.579452e+01 -2.101371e+02
    endloop
  endfacet
  facet normal 7.386979e-01 3.992270e-01 5.430867e-01
    outer loop
      vertex 2.106293e+02 3.970242e+01 -2.175257e+02
      vertex 2.073092e+02 3.579452e+01 -2.101371e+02
      vertex 2.132522e+02 3.481121e+01 -2.174979e+02
    endloop
  endfacet
  facet normal -3.860024e-02 5.258583e-01 -8.496959e-01
    outer loop
      vertex 2.108291e+02 5.184604e+01 -1.771982e+02
      vertex 2.071746e+02 4.769500e+01 -1.796011e+02
      vertex 2.084060e+02 5.269761e+01 -1.765611e+02
    endloop
  endfacet
  facet normal 2.812174e-01 2.831995e-01 -9.169050e-01
    outer loop
      vertex 2.108291e+02 5.184604e+01 -1.771982e+02
      vertex 2.100822e+02 4.652763e+01 -1.790699e+02
      vertex 2.071746e+02 4.769500e+01 -1.796011e+02
    endloop
  endfacet
  facet normal 9.351131e-01 2.505628e-01 2.505628e-01
    outer loop
      vertex 2.050032e+02 5.334017e+01 -1.669272e+02
      vertex 2.049656e+02 5.308577e+01 -1.665327e+02
      vertex 2.053948e+02 4.781578e+01 -1.628644e+02
    endloop
  endfacet
  facet normal 6.791935e-01 4.654840e-01 5.674687e-01
    outer loop
      vertex 2.050032e+02 5.334017e+01 -1.669272e+02
      vertex 2.053948e+02 4.781578e+01 -1.628644e+02
      vertex 2.095830e+02 4.425405e+01 -1.649555e+02
    endloop
  endfacet
  facet normal -2.322075e-01 8.346370e-01 -4.994605e-01
    outer loop
      vertex 2.097570e+02 5.387341e+01 -1.752243e+02
      vertex 2.084060e+02 5.269761e+01 -1.765611e+02
      vertex 2.061488e+02 5.455131e+01 -1.724140e+02
    endloop
  endfacet
  facet normal -9.351131e-01 -2.505628e-01 -2.505628e-01
    outer loop
      vertex 2.050032e+02 5.334017e+01 -1.669272e+02
      vertex 2.061488e+02 5.455131e+01 -1.724140e+02
      vertex 2.049656e+02 5.308577e+01 -1.665327e+02
    endloop
  endfacet
  facet normal 3.796468e-01 8.835312e-01 2.743008e-01
    outer loop
      vertex 2.050032e+02 5.334017e+01 -1.669272e+02
      vertex 2.097570e+02 5.387341e+01 -1.752243e+02
      vertex 2.061488e+02 5.455131e+01 -1.724140e+02
    endloop
  endfacet
  facet normal 6.780839e-02 7.141640e-01 -6.966863e-01
    outer loop
      vertex 2.108291e+02 5.184604e+01 -1.771982e+02
      vertex 2.084060e+02 5.269761e+01 -1.765611e+02
      vertex 2.097570e+02 5.387341e+01 -1.752243e+02
    endloop
  endfacet
  facet normal 6.760599e-01 -7.312599e-01 9.056407e-02
    outer loop
      vertex 2.134964e+02 2.743777e+01 -2.388590e+02
      vertex 2.140903e+02 2.834910e+01 -2.359341e+02
      vertex 2.109687e+02 2.502567e+01 -2.394663e+02
    endloop
  endfacet
  facet normal 7.216441e-01 -6.921333e-01 1.346498e-02
    outer loop
      vertex 2.110506e+02 2.518800e+01 -2.355099e+02
      vertex 2.109687e+02 2.502567e+01 -2.394663e+02
      vertex 2.140903e+02 2.834910e+01 -2.359341e+02
    endloop
  endfacet
  facet normal 9.686558e-01 -2.111082e-01 -1.309167e-01
    outer loop
      vertex 2.156026e+02 3.547807e+01 -2.362407e+02
      vertex 2.140903e+02 2.834910e+01 -2.359341e+02
      vertex 2.134964e+02 2.743777e+01 -2.388590e+02
    endloop
  endfacet
  facet normal 7.188162e-01 -6.947128e-01 -2.602668e-02
    outer loop
      vertex 2.139049e+02 2.764226e+01 -2.221869e+02
      vertex 2.110506e+02 2.518800e+01 -2.355099e+02
      vertex 2.140903e+02 2.834910e+01 -2.359341e+02
    endloop
  endfacet
  facet normal 9.986335e-01 -5.112361e-02 1.083804e-02
    outer loop
      vertex 2.142590e+02 3.475770e+01 -2.212449e+02
      vertex 2.139049e+02 2.764226e+01 -2.221869e+02
      vertex 2.140903e+02 2.834910e+01 -2.359341e+02
    endloop
  endfacet
  facet normal 9.759518e-01 -2.036846e-01 7.765789e-02
    outer loop
      vertex 2.142590e+02 3.475770e+01 -2.212449e+02
      vertex 2.140903e+02 2.834910e+01 -2.359341e+02
      vertex 2.156026e+02 3.547807e+01 -2.362407e+02
    endloop
  endfacet
  facet normal 8.267928e-01 -3.373284e-02 -5.614942e-01
    outer loop
      vertex 2.105640e+02 3.484251e+01 -2.436217e+02
      vertex 2.156026e+02 3.547807e+01 -2.362407e+02
      vertex 2.134964e+02 2.743777e+01 -2.388590e+02
    endloop
  endfacet
  facet normal 8.393962e-01 -5.374769e-01 -8.082490e-02
    outer loop
      vertex 2.106355e+02 2.273011e+01 -2.234761e+02
      vertex 2.110506e+02 2.518800e+01 -2.355099e+02
      vertex 2.139049e+02 2.764226e+01 -2.221869e+02
    endloop
  endfacet
  facet normal 8.028220e-01 -5.753657e-01 1.563046e-01
    outer loop
      vertex 2.131892e+02 2.767957e+01 -2.183733e+02
      vertex 2.106355e+02 2.273011e+01 -2.234761e+02
      vertex 2.139049e+02 2.764226e+01 -2.221869e+02
    endloop
  endfacet
  facet normal 9.823008e-01 -3.135324e-02 1.846677e-01
    outer loop
      vertex 2.132522e+02 3.481121e+01 -2.174979e+02
      vertex 2.131892e+02 2.767957e+01 -2.183733e+02
      vertex 2.139049e+02 2.764226e+01 -2.221869e+02
    endloop
  endfacet
  facet normal 9.621823e-01 -8.225540e-02 2.596907e-01
    outer loop
      vertex 2.132522e+02 3.481121e+01 -2.174979e+02
      vertex 2.139049e+02 2.764226e+01 -2.221869e+02
      vertex 2.142590e+02 3.475770e+01 -2.212449e+02
    endloop
  endfacet
  facet normal 8.727279e-01 -4.869128e-01 3.552409e-02
    outer loop
      vertex 2.108315e+02 2.337533e+01 -2.194482e+02
      vertex 2.106355e+02 2.273011e+01 -2.234761e+02
      vertex 2.131892e+02 2.767957e+01 -2.183733e+02
    endloop
  endfacet
  facet normal 9.224518e-01 -5.506675e-02 3.821653e-01
    outer loop
      vertex 2.064705e+02 3.215151e+01 -2.015117e+02
      vertex 2.131892e+02 2.767957e+01 -2.183733e+02
      vertex 2.132522e+02 3.481121e+01 -2.174979e+02
    endloop
  endfacet
  facet normal 9.289701e-01 1.251587e-05 3.701548e-01
    outer loop
      vertex 2.066253e+02 2.737946e+01 -2.019002e+02
      vertex 2.131892e+02 2.767957e+01 -2.183733e+02
      vertex 2.064705e+02 3.215151e+01 -2.015117e+02
    endloop
  endfacet
  facet normal 7.782797e-01 2.911276e-01 -5.563502e-01
    outer loop
      vertex 2.129127e+02 4.108285e+01 -2.370707e+02
      vertex 2.156026e+02 3.547807e+01 -2.362407e+02
      vertex 2.105640e+02 3.484251e+01 -2.436217e+02
    endloop
  endfacet
  facet normal 8.821135e-01 4.600515e-01 1.011349e-01
    outer loop
      vertex 2.113612e+02 4.031662e+01 -2.212569e+02
      vertex 2.142590e+02 3.475770e+01 -2.212449e+02
      vertex 2.156026e+02 3.547807e+01 -2.362407e+02
    endloop
  endfacet
  facet normal 8.898212e-01 4.431554e-01 1.087728e-01
    outer loop
      vertex 2.113612e+02 4.031662e+01 -2.212569e+02
      vertex 2.156026e+02 3.547807e+01 -2.362407e+02
      vertex 2.129127e+02 4.108285e+01 -2.370707e+02
    endloop
  endfacet
  facet normal 6.532665e-01 4.173169e-01 -6.317352e-01
    outer loop
      vertex 2.124403e+02 4.126418e+01 -2.374394e+02
      vertex 2.129127e+02 4.108285e+01 -2.370707e+02
      vertex 2.105640e+02 3.484251e+01 -2.436217e+02
    endloop
  endfacet
  facet normal 8.583471e-01 4.615762e-01 2.240262e-01
    outer loop
      vertex 2.106293e+02 3.970242e+01 -2.175257e+02
      vertex 2.132522e+02 3.481121e+01 -2.174979e+02
      vertex 2.142590e+02 3.475770e+01 -2.212449e+02
    endloop
  endfacet
  facet normal 8.600447e-01 4.488526e-01 2.425992e-01
    outer loop
      vertex 2.106293e+02 3.970242e+01 -2.175257e+02
      vertex 2.142590e+02 3.475770e+01 -2.212449e+02
      vertex 2.113612e+02 4.031662e+01 -2.212569e+02
    endloop
  endfacet
  facet normal 9.791155e-01 9.663035e-02 -1.788728e-01
    outer loop
      vertex 2.100822e+02 4.652763e+01 -1.790699e+02
      vertex 2.108992e+02 4.812283e+01 -1.737364e+02
      vertex 2.109033e+02 4.162034e+01 -1.772267e+02
    endloop
  endfacet
  facet normal 9.986772e-01 -2.382765e-02 4.556338e-02
    outer loop
      vertex 2.106673e+02 3.880317e+01 -1.735291e+02
      vertex 2.109033e+02 4.162034e+01 -1.772267e+02
      vertex 2.108992e+02 4.812283e+01 -1.737364e+02
    endloop
  endfacet
  facet normal 9.709619e-01 1.432855e-01 -1.915781e-01
    outer loop
      vertex 2.097570e+02 5.387341e+01 -1.752243e+02
      vertex 2.108992e+02 4.812283e+01 -1.737364e+02
      vertex 2.100822e+02 4.652763e+01 -1.790699e+02
    endloop
  endfacet
  facet normal 9.900699e-01 -2.153732e-02 1.389160e-01
    outer loop
      vertex 2.095830e+02 4.425405e+01 -1.649555e+02
      vertex 2.106673e+02 3.880317e+01 -1.735291e+02
      vertex 2.108992e+02 4.812283e+01 -1.737364e+02
    endloop
  endfacet
  facet normal 8.107987e-01 4.810405e-01 3.334749e-01
    outer loop
      vertex 2.050032e+02 5.334017e+01 -1.669272e+02
      vertex 2.095830e+02 4.425405e+01 -1.649555e+02
      vertex 2.108992e+02 4.812283e+01 -1.737364e+02
    endloop
  endfacet
  facet normal 8.222238e-01 2.900217e-01 4.897300e-01
    outer loop
      vertex 2.050032e+02 5.334017e+01 -1.669272e+02
      vertex 2.108992e+02 4.812283e+01 -1.737364e+02
      vertex 2.097570e+02 5.387341e+01 -1.752243e+02
    endloop
  endfacet
  facet normal 6.416842e-01 -3.332292e-01 6.907964e-01
    outer loop
      vertex 2.108291e+02 5.184604e+01 -1.771982e+02
      vertex 2.097570e+02 5.387341e+01 -1.752243e+02
      vertex 2.100822e+02 4.652763e+01 -1.790699e+02
    endloop
  endfacet
  facet normal 9.589658e-01 2.780405e-01 -5.548079e-02
    outer loop
      vertex 2.107550e+02 4.015631e+01 -1.652320e+02
      vertex 2.106673e+02 3.880317e+01 -1.735291e+02
      vertex 2.095830e+02 4.425405e+01 -1.649555e+02
    endloop
  endfacet
endsolid SIM_ICUB3_R_ELBOW_1
