solid SIM_ICUB3_L_WRIST_1
  facet normal -6.195806e-01 -7.695556e-01 -1.546092e-01
    outer loop
      vertex -2.435712e+02 3.308727e+01 -3.311956e+02
      vertex -2.439089e+02 3.367884e+01 -3.327866e+02
      vertex -2.403132e+02 3.279482e+01 -3.427959e+02
    endloop
  endfacet
  facet normal -2.207082e-01 -9.753158e-01 6.852779e-03
    outer loop
      vertex -2.414301e+02 3.305477e+01 -3.417701e+02
      vertex -2.403132e+02 3.279482e+01 -3.427959e+02
      vertex -2.439089e+02 3.367884e+01 -3.327866e+02
    endloop
  endfacet
  facet normal -6.617715e-01 -7.307691e-01 -1.674363e-01
    outer loop
      vertex -2.343710e+02 2.545000e+01 -3.342254e+02
      vertex -2.435712e+02 3.308727e+01 -3.311956e+02
      vertex -2.403132e+02 3.279482e+01 -3.427959e+02
    endloop
  endfacet
  facet normal -5.843165e-01 3.598266e-01 -7.273920e-01
    outer loop
      vertex -2.255029e+02 5.579758e+01 -3.433141e+02
      vertex -2.403132e+02 3.279482e+01 -3.427959e+02
      vertex -2.414301e+02 3.305477e+01 -3.417701e+02
    endloop
  endfacet
  facet normal -2.740984e-01 -8.158664e-01 -5.091484e-01
    outer loop
      vertex -2.300603e+02 2.995099e+01 -3.437585e+02
      vertex -2.343710e+02 2.545000e+01 -3.342254e+02
      vertex -2.403132e+02 3.279482e+01 -3.427959e+02
    endloop
  endfacet
  facet normal -8.461357e-02 3.204585e-02 -9.958984e-01
    outer loop
      vertex -2.255029e+02 5.579758e+01 -3.433141e+02
      vertex -2.300603e+02 2.995099e+01 -3.437585e+02
      vertex -2.403132e+02 3.279482e+01 -3.427959e+02
    endloop
  endfacet
  facet normal -6.854923e-01 6.228077e-01 3.771086e-01
    outer loop
      vertex -2.217104e+02 5.376851e+01 -3.256138e+02
      vertex -2.439089e+02 3.367884e+01 -3.327866e+02
      vertex -2.435712e+02 3.308727e+01 -3.311956e+02
    endloop
  endfacet
  facet normal -9.250263e-01 2.636159e-01 -2.735563e-01
    outer loop
      vertex -2.353758e+02 6.442582e+01 -3.320113e+02
      vertex -2.414301e+02 3.305477e+01 -3.417701e+02
      vertex -2.439089e+02 3.367884e+01 -3.327866e+02
    endloop
  endfacet
  facet normal -4.840033e-01 2.337277e-01 8.432747e-01
    outer loop
      vertex -2.260141e+02 6.675847e+01 -3.316843e+02
      vertex -2.439089e+02 3.367884e+01 -3.327866e+02
      vertex -2.217104e+02 5.376851e+01 -3.256138e+02
    endloop
  endfacet
  facet normal -3.075297e-02 -1.666488e-02 9.993881e-01
    outer loop
      vertex -2.260141e+02 6.675847e+01 -3.316843e+02
      vertex -2.353758e+02 6.442582e+01 -3.320113e+02
      vertex -2.439089e+02 3.367884e+01 -3.327866e+02
    endloop
  endfacet
  facet normal 5.318463e-02 -3.122227e-01 9.485190e-01
    outer loop
      vertex -2.217104e+02 5.376851e+01 -3.256138e+02
      vertex -2.435712e+02 3.308727e+01 -3.311956e+02
      vertex -2.343710e+02 2.545000e+01 -3.342254e+02
    endloop
  endfacet
  facet normal -1.136549e-01 1.215355e-02 -9.934459e-01
    outer loop
      vertex -2.274157e+02 6.277269e+01 -3.430099e+02
      vertex -2.255029e+02 5.579758e+01 -3.433141e+02
      vertex -2.414301e+02 3.305477e+01 -3.417701e+02
    endloop
  endfacet
  facet normal -9.312876e-01 2.593159e-01 -2.558489e-01
    outer loop
      vertex -2.334681e+02 6.427125e+01 -3.391120e+02
      vertex -2.414301e+02 3.305477e+01 -3.417701e+02
      vertex -2.353758e+02 6.442582e+01 -3.320113e+02
    endloop
  endfacet
  facet normal -4.954974e-01 1.983878e-01 -8.456504e-01
    outer loop
      vertex -2.274157e+02 6.277269e+01 -3.430099e+02
      vertex -2.414301e+02 3.305477e+01 -3.417701e+02
      vertex -2.334681e+02 6.427125e+01 -3.391120e+02
    endloop
  endfacet
  facet normal 2.749909e-01 -9.114546e-01 -3.059910e-01
    outer loop
      vertex -2.250714e+02 2.798185e+01 -3.334096e+02
      vertex -2.343710e+02 2.545000e+01 -3.342254e+02
      vertex -2.300603e+02 2.995099e+01 -3.437585e+02
    endloop
  endfacet
  facet normal 8.240423e-01 -4.662693e-01 3.217877e-01
    outer loop
      vertex -2.162773e+02 5.902591e+01 -3.319089e+02
      vertex -2.217104e+02 5.376851e+01 -3.256138e+02
      vertex -2.343710e+02 2.545000e+01 -3.342254e+02
    endloop
  endfacet
  facet normal -8.050998e-02 -2.536070e-02 9.964311e-01
    outer loop
      vertex -2.250714e+02 2.798185e+01 -3.334096e+02
      vertex -2.162773e+02 5.902591e+01 -3.319089e+02
      vertex -2.343710e+02 2.545000e+01 -3.342254e+02
    endloop
  endfacet
  facet normal 5.213848e-01 -7.731915e-02 -8.498115e-01
    outer loop
      vertex -2.179122e+02 5.987293e+01 -3.390277e+02
      vertex -2.300603e+02 2.995099e+01 -3.437585e+02
      vertex -2.255029e+02 5.579758e+01 -3.433141e+02
    endloop
  endfacet
  facet normal 6.688617e-01 -1.566595e-01 -7.266924e-01
    outer loop
      vertex -2.179122e+02 5.987293e+01 -3.390277e+02
      vertex -2.261999e+02 2.865321e+01 -3.399256e+02
      vertex -2.300603e+02 2.995099e+01 -3.437585e+02
    endloop
  endfacet
  facet normal -2.714473e-01 -9.610471e-01 -5.200813e-02
    outer loop
      vertex -2.250714e+02 2.798185e+01 -3.334096e+02
      vertex -2.300603e+02 2.995099e+01 -3.437585e+02
      vertex -2.261999e+02 2.865321e+01 -3.399256e+02
    endloop
  endfacet
  facet normal 3.275869e-01 1.306415e-01 -9.357455e-01
    outer loop
      vertex -2.190827e+02 6.028000e+01 -3.404407e+02
      vertex -2.255029e+02 5.579758e+01 -3.433141e+02
      vertex -2.274157e+02 6.277269e+01 -3.430099e+02
    endloop
  endfacet
  facet normal 6.112801e-01 -4.650419e-01 -6.403692e-01
    outer loop
      vertex -2.190827e+02 6.028000e+01 -3.404407e+02
      vertex -2.179122e+02 5.987293e+01 -3.390277e+02
      vertex -2.255029e+02 5.579758e+01 -3.433141e+02
    endloop
  endfacet
  facet normal 4.100922e-01 4.941207e-01 7.665958e-01
    outer loop
      vertex -2.162773e+02 5.902591e+01 -3.319089e+02
      vertex -2.260141e+02 6.675847e+01 -3.316843e+02
      vertex -2.217104e+02 5.376851e+01 -3.256138e+02
    endloop
  endfacet
  facet normal -2.381035e-01 9.675105e-01 -8.503088e-02
    outer loop
      vertex -2.260141e+02 6.675847e+01 -3.316843e+02
      vertex -2.334681e+02 6.427125e+01 -3.391120e+02
      vertex -2.353758e+02 6.442582e+01 -3.320113e+02
    endloop
  endfacet
  facet normal 1.828518e-02 9.424217e-01 -3.339266e-01
    outer loop
      vertex -2.274157e+02 6.277269e+01 -3.430099e+02
      vertex -2.334681e+02 6.427125e+01 -3.391120e+02
      vertex -2.260141e+02 6.675847e+01 -3.316843e+02
    endloop
  endfacet
  facet normal 5.816505e-01 7.420900e-01 -3.331442e-01
    outer loop
      vertex -2.162773e+02 5.902591e+01 -3.319089e+02
      vertex -2.274157e+02 6.277269e+01 -3.430099e+02
      vertex -2.260141e+02 6.675847e+01 -3.316843e+02
    endloop
  endfacet
  facet normal 2.714473e-01 9.610471e-01 5.200813e-02
    outer loop
      vertex -2.190827e+02 6.028000e+01 -3.404407e+02
      vertex -2.274157e+02 6.277269e+01 -3.430099e+02
      vertex -2.162773e+02 5.902591e+01 -3.319089e+02
    endloop
  endfacet
  facet normal 9.389205e-01 -2.422196e-01 -2.444543e-01
    outer loop
      vertex -2.179122e+02 5.987293e+01 -3.390277e+02
      vertex -2.162773e+02 5.902591e+01 -3.319089e+02
      vertex -2.261999e+02 2.865321e+01 -3.399256e+02
    endloop
  endfacet
  facet normal 9.468670e-01 -2.590108e-01 -1.906734e-01
    outer loop
      vertex -2.250714e+02 2.798185e+01 -3.334096e+02
      vertex -2.261999e+02 2.865321e+01 -3.399256e+02
      vertex -2.162773e+02 5.902591e+01 -3.319089e+02
    endloop
  endfacet
  facet normal 2.714473e-01 9.610471e-01 5.200813e-02
    outer loop
      vertex -2.190827e+02 6.028000e+01 -3.404407e+02
      vertex -2.162773e+02 5.902591e+01 -3.319089e+02
      vertex -2.179122e+02 5.987293e+01 -3.390277e+02
    endloop
  endfacet
endsolid SIM_ICUB3_L_WRIST_1
