solid SIM_ICUB3_R_FOOT_REAR
  facet normal -9.922604e-01 -8.602273e-02 -8.955137e-02
    outer loop
      vertex 1.623262e+01 -6.769837e+01 -9.404466e+02
      vertex 1.485000e+01 -5.175008e+01 -9.404466e+02
      vertex 1.668222e+01 -6.724878e+01 -9.458603e+02
    endloop
  endfacet
  facet normal -9.823884e-01 -5.361394e-02 -1.789930e-01
    outer loop
      vertex 1.589893e+01 -5.175008e+01 -9.462036e+02
      vertex 1.668222e+01 -6.724878e+01 -9.458603e+02
      vertex 1.485000e+01 -5.175008e+01 -9.404466e+02
    endloop
  endfacet
  facet normal -1.051234e-01 -9.902894e-01 -9.097214e-02
    outer loop
      vertex 3.084933e+01 -6.925000e+01 -9.404466e+02
      vertex 1.623262e+01 -6.769837e+01 -9.404466e+02
      vertex 1.668222e+01 -6.724878e+01 -9.458603e+02
    endloop
  endfacet
  facet normal -1.624842e-02 -2.296429e-02 -9.996042e-01
    outer loop
      vertex 3.084933e+01 -5.175008e+01 -9.464466e+02
      vertex 1.668222e+01 -6.724878e+01 -9.458603e+02
      vertex 1.589893e+01 -5.175008e+01 -9.462036e+02
    endloop
  endfacet
  facet normal -6.225282e-02 -9.780910e-01 -1.986517e-01
    outer loop
      vertex 3.084933e+01 -6.806686e+01 -9.462720e+02
      vertex 3.084933e+01 -6.925000e+01 -9.404466e+02
      vertex 1.668222e+01 -6.724878e+01 -9.458603e+02
    endloop
  endfacet
  facet normal -2.966417e-02 -1.069733e-02 -9.995027e-01
    outer loop
      vertex 3.084933e+01 -5.175008e+01 -9.464466e+02
      vertex 3.084933e+01 -6.806686e+01 -9.462720e+02
      vertex 1.668222e+01 -6.724878e+01 -9.458603e+02
    endloop
  endfacet
  facet normal 3.410605e-15 -3.534665e-14 1.000000e+00
    outer loop
      vertex 1.148500e+02 -5.175008e+01 -9.404466e+02
      vertex 1.485000e+01 -5.175008e+01 -9.404466e+02
      vertex 1.623262e+01 -6.769837e+01 -9.404466e+02
    endloop
  endfacet
  facet normal -9.838034e-01 1.833190e-15 -1.792508e-01
    outer loop
      vertex 1.485000e+01 3.990946e+01 -9.404466e+02
      vertex 1.589893e+01 -5.175008e+01 -9.462036e+02
      vertex 1.485000e+01 -5.175008e+01 -9.404466e+02
    endloop
  endfacet
  facet normal -1.421145e-15 -3.969013e-14 1.000000e+00
    outer loop
      vertex 3.084933e+01 -1.508627e+01 -9.404466e+02
      vertex 1.485000e+01 3.990946e+01 -9.404466e+02
      vertex 1.485000e+01 -5.175008e+01 -9.404466e+02
    endloop
  endfacet
  facet normal 3.410605e-15 -4.139966e-14 1.000000e+00
    outer loop
      vertex 8.030937e+01 -2.988089e+01 -9.404466e+02
      vertex 1.485000e+01 -5.175008e+01 -9.404466e+02
      vertex 1.148500e+02 -5.175008e+01 -9.404466e+02
    endloop
  endfacet
  facet normal 7.105723e-15 -4.341108e-14 1.000000e+00
    outer loop
      vertex 3.084933e+01 -3.341817e+01 -9.404466e+02
      vertex 3.084933e+01 -1.508627e+01 -9.404466e+02
      vertex 1.485000e+01 -5.175008e+01 -9.404466e+02
    endloop
  endfacet
  facet normal 2.956458e-15 -3.978977e-14 1.000000e+00
    outer loop
      vertex 6.484068e+01 -3.374974e+01 -9.404466e+02
      vertex 3.084933e+01 -3.341817e+01 -9.404466e+02
      vertex 1.485000e+01 -5.175008e+01 -9.404466e+02
    endloop
  endfacet
  facet normal 1.796704e-15 -3.656889e-14 1.000000e+00
    outer loop
      vertex 8.030937e+01 -2.988089e+01 -9.404466e+02
      vertex 6.484068e+01 -3.374974e+01 -9.404466e+02
      vertex 1.485000e+01 -5.175008e+01 -9.404466e+02
    endloop
  endfacet
  facet normal 3.507598e-15 -4.022701e-14 1.000000e+00
    outer loop
      vertex 1.134674e+02 -6.769837e+01 -9.404466e+02
      vertex 1.623262e+01 -6.769837e+01 -9.404466e+02
      vertex 3.084933e+01 -6.925000e+01 -9.404466e+02
    endloop
  endfacet
  facet normal 3.507598e-15 -3.594641e-14 1.000000e+00
    outer loop
      vertex 1.134674e+02 -6.769837e+01 -9.404466e+02
      vertex 1.148500e+02 -5.175008e+01 -9.404466e+02
      vertex 1.623262e+01 -6.769837e+01 -9.404466e+02
    endloop
  endfacet
  facet normal -1.625271e-02 1.978953e-14 -9.998679e-01
    outer loop
      vertex 1.589893e+01 3.990946e+01 -9.462036e+02
      vertex 3.084933e+01 -5.175008e+01 -9.464466e+02
      vertex 1.589893e+01 -5.175008e+01 -9.462036e+02
    endloop
  endfacet
  facet normal -9.838034e-01 3.541465e-16 -1.792508e-01
    outer loop
      vertex 1.589893e+01 3.990946e+01 -9.462036e+02
      vertex 1.589893e+01 -5.175008e+01 -9.462036e+02
      vertex 1.485000e+01 3.990946e+01 -9.404466e+02
    endloop
  endfacet
  facet normal 3.788604e-15 -9.799918e-01 -1.990377e-01
    outer loop
      vertex 9.885067e+01 -6.806686e+01 -9.462720e+02
      vertex 3.084933e+01 -6.925000e+01 -9.404466e+02
      vertex 3.084933e+01 -6.806686e+01 -9.462720e+02
    endloop
  endfacet
  facet normal 3.343665e-15 -3.149819e-14 1.000000e+00
    outer loop
      vertex 9.885067e+01 -6.925000e+01 -9.404466e+02
      vertex 1.134674e+02 -6.769837e+01 -9.404466e+02
      vertex 3.084933e+01 -6.925000e+01 -9.404466e+02
    endloop
  endfacet
  facet normal 4.660394e-15 -9.799918e-01 -1.990377e-01
    outer loop
      vertex 9.885067e+01 -6.806686e+01 -9.462720e+02
      vertex 9.885067e+01 -6.925000e+01 -9.404466e+02
      vertex 3.084933e+01 -6.925000e+01 -9.404466e+02
    endloop
  endfacet
  facet normal 6.691420e-15 -1.070204e-02 -9.999427e-01
    outer loop
      vertex 9.885067e+01 -5.175008e+01 -9.464466e+02
      vertex 3.084933e+01 -6.806686e+01 -9.462720e+02
      vertex 3.084933e+01 -5.175008e+01 -9.464466e+02
    endloop
  endfacet
  facet normal 6.713609e-15 -1.070204e-02 -9.999427e-01
    outer loop
      vertex 9.885067e+01 -5.175008e+01 -9.464466e+02
      vertex 9.885067e+01 -6.806686e+01 -9.462720e+02
      vertex 3.084933e+01 -6.806686e+01 -9.462720e+02
    endloop
  endfacet
  facet normal -1.625271e-02 2.108826e-14 -9.998679e-01
    outer loop
      vertex 3.084933e+01 3.990946e+01 -9.464466e+02
      vertex 3.084933e+01 -5.175008e+01 -9.464466e+02
      vertex 1.589893e+01 3.990946e+01 -9.462036e+02
    endloop
  endfacet
  facet normal 6.687330e-15 2.108538e-14 -1.000000e+00
    outer loop
      vertex 9.885067e+01 -5.175008e+01 -9.464466e+02
      vertex 3.084933e+01 -5.175008e+01 -9.464466e+02
      vertex 3.084933e+01 3.990946e+01 -9.464466e+02
    endloop
  endfacet
  facet normal 3.641687e-15 -3.188069e-14 1.000000e+00
    outer loop
      vertex 1.116773e+02 4.740389e+01 -9.404466e+02
      vertex 1.802273e+01 4.740389e+01 -9.404466e+02
      vertex 1.485000e+01 3.990946e+01 -9.404466e+02
    endloop
  endfacet
  facet normal -9.081838e-01 3.844749e-01 -1.654728e-01
    outer loop
      vertex 1.589893e+01 3.990946e+01 -9.462036e+02
      vertex 1.485000e+01 3.990946e+01 -9.404466e+02
      vertex 1.802273e+01 4.740389e+01 -9.404466e+02
    endloop
  endfacet
  facet normal 3.410605e-15 -2.889514e-14 1.000000e+00
    outer loop
      vertex 1.148500e+02 3.990946e+01 -9.404466e+02
      vertex 1.116773e+02 4.740389e+01 -9.404466e+02
      vertex 1.485000e+01 3.990946e+01 -9.404466e+02
    endloop
  endfacet
  facet normal 3.410605e-15 -4.031028e-14 1.000000e+00
    outer loop
      vertex 6.485000e+01 2.157755e+01 -9.404466e+02
      vertex 1.148500e+02 3.990946e+01 -9.404466e+02
      vertex 1.485000e+01 3.990946e+01 -9.404466e+02
    endloop
  endfacet
  facet normal 4.706115e-15 -3.677680e-14 1.000000e+00
    outer loop
      vertex 4.707714e+01 3.846936e+00 -9.404466e+02
      vertex 6.485000e+01 2.157755e+01 -9.404466e+02
      vertex 1.485000e+01 3.990946e+01 -9.404466e+02
    endloop
  endfacet
  facet normal 2.829999e-15 -3.845339e-14 1.000000e+00
    outer loop
      vertex 3.084933e+01 -1.508627e+01 -9.404466e+02
      vertex 4.707714e+01 3.846936e+00 -9.404466e+02
      vertex 1.485000e+01 3.990946e+01 -9.404466e+02
    endloop
  endfacet
  facet normal 3.343665e-15 -1.239156e-13 1.000000e+00
    outer loop
      vertex 9.885067e+01 4.775000e+01 -9.404466e+02
      vertex 3.084933e+01 4.775000e+01 -9.404466e+02
      vertex 1.802273e+01 4.740389e+01 -9.404466e+02
    endloop
  endfacet
  facet normal -2.697201e-02 9.995773e-01 -1.084956e-02
    outer loop
      vertex 1.835177e+01 4.736106e+01 -9.452105e+02
      vertex 1.802273e+01 4.740389e+01 -9.404466e+02
      vertex 3.084933e+01 4.775000e+01 -9.404466e+02
    endloop
  endfacet
  facet normal 3.641687e-15 -1.935143e-13 1.000000e+00
    outer loop
      vertex 1.116773e+02 4.740389e+01 -9.404466e+02
      vertex 9.885067e+01 4.775000e+01 -9.404466e+02
      vertex 1.802273e+01 4.740389e+01 -9.404466e+02
    endloop
  endfacet
  facet normal -9.449227e-01 3.201212e-01 -6.814397e-02
    outer loop
      vertex 1.835177e+01 4.736106e+01 -9.452105e+02
      vertex 1.589893e+01 3.990946e+01 -9.462036e+02
      vertex 1.802273e+01 4.740389e+01 -9.404466e+02
    endloop
  endfacet
  facet normal -5.550205e-15 9.993554e-01 -3.589868e-02
    outer loop
      vertex 3.084933e+01 4.757709e+01 -9.452601e+02
      vertex 3.084933e+01 4.775000e+01 -9.404466e+02
      vertex 9.885067e+01 4.775000e+01 -9.404466e+02
    endloop
  endfacet
  facet normal -1.741405e-02 9.992039e-01 -3.589323e-02
    outer loop
      vertex 3.084933e+01 4.757709e+01 -9.452601e+02
      vertex 1.835177e+01 4.736106e+01 -9.452105e+02
      vertex 3.084933e+01 4.775000e+01 -9.404466e+02
    endloop
  endfacet
  facet normal 2.695622e-02 9.989923e-01 -3.588563e-02
    outer loop
      vertex 9.885067e+01 4.757709e+01 -9.452601e+02
      vertex 9.885067e+01 4.775000e+01 -9.404466e+02
      vertex 1.116773e+02 4.740389e+01 -9.404466e+02
    endloop
  endfacet
  facet normal -5.189887e-15 9.993554e-01 -3.589868e-02
    outer loop
      vertex 9.885067e+01 4.757709e+01 -9.452601e+02
      vertex 3.084933e+01 4.757709e+01 -9.452601e+02
      vertex 9.885067e+01 4.775000e+01 -9.404466e+02
    endloop
  endfacet
  facet normal 9.081838e-01 3.844749e-01 -1.654728e-01
    outer loop
      vertex 1.138011e+02 3.990946e+01 -9.462036e+02
      vertex 1.116773e+02 4.740389e+01 -9.404466e+02
      vertex 1.148500e+02 3.990946e+01 -9.404466e+02
    endloop
  endfacet
  facet normal 1.732238e-02 9.997981e-01 -1.018505e-02
    outer loop
      vertex 1.113482e+02 4.736106e+01 -9.452105e+02
      vertex 9.885067e+01 4.757709e+01 -9.452601e+02
      vertex 1.116773e+02 4.740389e+01 -9.404466e+02
    endloop
  endfacet
  facet normal 9.449227e-01 3.201212e-01 -6.814397e-02
    outer loop
      vertex 1.113482e+02 4.736106e+01 -9.452105e+02
      vertex 1.116773e+02 4.740389e+01 -9.404466e+02
      vertex 1.138011e+02 3.990946e+01 -9.462036e+02
    endloop
  endfacet
  facet normal 1.421145e-15 -3.969013e-14 1.000000e+00
    outer loop
      vertex 9.885067e+01 -1.508627e+01 -9.404466e+02
      vertex 1.148500e+02 -5.175008e+01 -9.404466e+02
      vertex 1.148500e+02 3.990946e+01 -9.404466e+02
    endloop
  endfacet
  facet normal 9.838034e-01 1.245407e-14 -1.792508e-01
    outer loop
      vertex 1.138011e+02 3.990946e+01 -9.462036e+02
      vertex 1.148500e+02 3.990946e+01 -9.404466e+02
      vertex 1.148500e+02 -5.175008e+01 -9.404466e+02
    endloop
  endfacet
  facet normal 7.525849e-15 -4.455536e-14 1.000000e+00
    outer loop
      vertex 8.185033e+01 2.157755e+01 -9.404466e+02
      vertex 8.262287e+01 3.846936e+00 -9.404466e+02
      vertex 1.148500e+02 3.990946e+01 -9.404466e+02
    endloop
  endfacet
  facet normal -1.356793e-15 -3.661742e-14 1.000000e+00
    outer loop
      vertex 9.885067e+01 3.245643e+00 -9.404466e+02
      vertex 1.148500e+02 3.990946e+01 -9.404466e+02
      vertex 8.262287e+01 3.846936e+00 -9.404466e+02
    endloop
  endfacet
  facet normal 0.000000e+00 -3.100791e-14 1.000000e+00
    outer loop
      vertex 6.485000e+01 2.157755e+01 -9.404466e+02
      vertex 8.185033e+01 2.157755e+01 -9.404466e+02
      vertex 1.148500e+02 3.990946e+01 -9.404466e+02
    endloop
  endfacet
  facet normal 1.421145e-14 -4.341108e-14 1.000000e+00
    outer loop
      vertex 9.885067e+01 3.245643e+00 -9.404466e+02
      vertex 9.885067e+01 -1.508627e+01 -9.404466e+02
      vertex 1.148500e+02 3.990946e+01 -9.404466e+02
    endloop
  endfacet
  facet normal 9.922604e-01 -8.602273e-02 -8.955137e-02
    outer loop
      vertex 1.130178e+02 -6.724878e+01 -9.458603e+02
      vertex 1.148500e+02 -5.175008e+01 -9.404466e+02
      vertex 1.134674e+02 -6.769837e+01 -9.404466e+02
    endloop
  endfacet
  facet normal 5.665724e-15 -3.783788e-14 1.000000e+00
    outer loop
      vertex 9.885067e+01 -1.508627e+01 -9.404466e+02
      vertex 8.030937e+01 -2.988089e+01 -9.404466e+02
      vertex 1.148500e+02 -5.175008e+01 -9.404466e+02
    endloop
  endfacet
  facet normal 9.823884e-01 -5.361394e-02 -1.789930e-01
    outer loop
      vertex 1.138011e+02 -5.175008e+01 -9.462036e+02
      vertex 1.148500e+02 -5.175008e+01 -9.404466e+02
      vertex 1.130178e+02 -6.724878e+01 -9.458603e+02
    endloop
  endfacet
  facet normal 9.838034e-01 1.816118e-14 -1.792508e-01
    outer loop
      vertex 1.138011e+02 3.990946e+01 -9.462036e+02
      vertex 1.148500e+02 -5.175008e+01 -9.404466e+02
      vertex 1.138011e+02 -5.175008e+01 -9.462036e+02
    endloop
  endfacet
  facet normal 1.034718e-01 -9.747316e-01 -1.979694e-01
    outer loop
      vertex 9.885067e+01 -6.806686e+01 -9.462720e+02
      vertex 1.134674e+02 -6.769837e+01 -9.404466e+02
      vertex 9.885067e+01 -6.925000e+01 -9.404466e+02
    endloop
  endfacet
  facet normal 5.996341e-02 -9.943530e-01 -8.755907e-02
    outer loop
      vertex 1.130178e+02 -6.724878e+01 -9.458603e+02
      vertex 1.134674e+02 -6.769837e+01 -9.404466e+02
      vertex 9.885067e+01 -6.806686e+01 -9.462720e+02
    endloop
  endfacet
  facet normal 2.068724e-01 9.013540e-03 9.783264e-01
    outer loop
      vertex 6.212359e+01 7.611376e+00 -9.361466e+02
      vertex 8.262287e+01 3.846936e+00 -9.404466e+02
      vertex 8.185033e+01 2.157755e+01 -9.404466e+02
    endloop
  endfacet
  facet normal 7.685412e-03 2.074155e-01 9.782228e-01
    outer loop
      vertex 8.268856e+01 -1.643536e+01 -9.361466e+02
      vertex 9.885067e+01 3.245643e+00 -9.404466e+02
      vertex 8.262287e+01 3.846936e+00 -9.404466e+02
    endloop
  endfacet
  facet normal 1.553158e-01 -2.468396e-01 9.565287e-01
    outer loop
      vertex 6.212359e+01 7.611376e+00 -9.361466e+02
      vertex 6.485000e+01 -1.508627e+01 -9.424466e+02
      vertex 8.262287e+01 3.846936e+00 -9.404466e+02
    endloop
  endfacet
  facet normal -3.133407e-01 1.959820e-01 9.291978e-01
    outer loop
      vertex 8.268856e+01 -1.643536e+01 -9.361466e+02
      vertex 8.262287e+01 3.846936e+00 -9.404466e+02
      vertex 6.485000e+01 -1.508627e+01 -9.424466e+02
    endloop
  endfacet
  facet normal 0.000000e+00 2.942556e-01 9.557268e-01
    outer loop
      vertex 6.212359e+01 7.611376e+00 -9.361466e+02
      vertex 8.185033e+01 2.157755e+01 -9.404466e+02
      vertex 6.485000e+01 2.157755e+01 -9.404466e+02
    endloop
  endfacet
  facet normal -3.356203e-01 3.364200e-01 8.798753e-01
    outer loop
      vertex 6.212359e+01 7.611376e+00 -9.361466e+02
      vertex 6.485000e+01 2.157755e+01 -9.404466e+02
      vertex 4.707714e+01 3.846936e+00 -9.404466e+02
    endloop
  endfacet
  facet normal -2.359927e-01 2.022712e-01 9.504703e-01
    outer loop
      vertex 4.701144e+01 -1.643536e+01 -9.361466e+02
      vertex 4.707714e+01 3.846936e+00 -9.404466e+02
      vertex 3.084933e+01 -1.508627e+01 -9.404466e+02
    endloop
  endfacet
  facet normal -3.147901e-01 1.978296e-01 9.283160e-01
    outer loop
      vertex 6.212359e+01 7.611376e+00 -9.361466e+02
      vertex 4.707714e+01 3.846936e+00 -9.404466e+02
      vertex 4.701144e+01 -1.643536e+01 -9.361466e+02
    endloop
  endfacet
  facet normal -2.571102e-01 -2.947953e-14 9.663821e-01
    outer loop
      vertex 4.701144e+01 -1.643536e+01 -9.361466e+02
      vertex 3.084933e+01 -1.508627e+01 -9.404466e+02
      vertex 3.084933e+01 -3.341817e+01 -9.404466e+02
    endloop
  endfacet
  facet normal 2.883642e-15 -4.725469e-14 1.000000e+00
    outer loop
      vertex 6.484068e+01 -3.374974e+01 -9.404466e+02
      vertex 4.939063e+01 -2.988089e+01 -9.404466e+02
      vertex 3.084933e+01 -3.341817e+01 -9.404466e+02
    endloop
  endfacet
  facet normal 5.629440e-02 -2.950769e-01 9.538137e-01
    outer loop
      vertex 4.701144e+01 -1.643536e+01 -9.361466e+02
      vertex 3.084933e+01 -3.341817e+01 -9.404466e+02
      vertex 4.939063e+01 -2.988089e+01 -9.404466e+02
    endloop
  endfacet
  facet normal 2.666869e-02 1.065001e-01 9.939550e-01
    outer loop
      vertex 6.485000e+01 -1.508627e+01 -9.424466e+02
      vertex 4.939063e+01 -2.988089e+01 -9.404466e+02
      vertex 6.484068e+01 -3.374974e+01 -9.404466e+02
    endloop
  endfacet
  facet normal 3.394835e-01 -2.314922e-01 9.116810e-01
    outer loop
      vertex 6.485000e+01 -1.508627e+01 -9.424466e+02
      vertex 4.701144e+01 -1.643536e+01 -9.361466e+02
      vertex 4.939063e+01 -2.988089e+01 -9.404466e+02
    endloop
  endfacet
  facet normal 7.911659e-02 -3.163294e-01 9.453445e-01
    outer loop
      vertex 8.268856e+01 -1.643536e+01 -9.361466e+02
      vertex 6.484068e+01 -3.374974e+01 -9.404466e+02
      vertex 8.030937e+01 -2.988089e+01 -9.404466e+02
    endloop
  endfacet
  facet normal -3.245125e-01 1.009450e-01 9.404795e-01
    outer loop
      vertex 8.268856e+01 -1.643536e+01 -9.361466e+02
      vertex 6.485000e+01 -1.508627e+01 -9.424466e+02
      vertex 6.484068e+01 -3.374974e+01 -9.404466e+02
    endloop
  endfacet
  facet normal 2.682522e-01 -3.361858e-01 9.027845e-01
    outer loop
      vertex 8.268856e+01 -1.643536e+01 -9.361466e+02
      vertex 8.030937e+01 -2.988089e+01 -9.404466e+02
      vertex 9.885067e+01 -1.508627e+01 -9.404466e+02
    endloop
  endfacet
  facet normal 2.571102e-01 -4.278240e-14 9.663821e-01
    outer loop
      vertex 8.268856e+01 -1.643536e+01 -9.361466e+02
      vertex 9.885067e+01 -1.508627e+01 -9.404466e+02
      vertex 9.885067e+01 3.245643e+00 -9.404466e+02
    endloop
  endfacet
  facet normal -1.606159e-02 1.529050e-01 -9.881104e-01
    outer loop
      vertex 3.084933e+01 4.757709e+01 -9.452601e+02
      vertex 3.084933e+01 3.990946e+01 -9.464466e+02
      vertex 1.589893e+01 3.990946e+01 -9.462036e+02
    endloop
  endfacet
  facet normal -6.247813e-03 1.341189e-01 -9.909455e-01
    outer loop
      vertex 3.084933e+01 4.757709e+01 -9.452601e+02
      vertex 1.589893e+01 3.990946e+01 -9.462036e+02
      vertex 1.835177e+01 4.736106e+01 -9.452105e+02
    endloop
  endfacet
  facet normal 5.777763e-15 1.529247e-01 -9.882378e-01
    outer loop
      vertex 9.885067e+01 4.757709e+01 -9.452601e+02
      vertex 3.084933e+01 3.990946e+01 -9.464466e+02
      vertex 3.084933e+01 4.757709e+01 -9.452601e+02
    endloop
  endfacet
  facet normal 2.006199e-14 3.100791e-14 -1.000000e+00
    outer loop
      vertex 9.885067e+01 3.990946e+01 -9.464466e+02
      vertex 9.885067e+01 -5.175008e+01 -9.464466e+02
      vertex 3.084933e+01 3.990946e+01 -9.464466e+02
    endloop
  endfacet
  facet normal 1.981006e-14 1.529247e-01 -9.882378e-01
    outer loop
      vertex 9.885067e+01 4.757709e+01 -9.452601e+02
      vertex 9.885067e+01 3.990946e+01 -9.464466e+02
      vertex 3.084933e+01 3.990946e+01 -9.464466e+02
    endloop
  endfacet
  facet normal 1.625178e-02 -1.070063e-02 -9.998107e-01
    outer loop
      vertex 1.138011e+02 -5.175008e+01 -9.462036e+02
      vertex 9.885067e+01 -6.806686e+01 -9.462720e+02
      vertex 9.885067e+01 -5.175008e+01 -9.464466e+02
    endloop
  endfacet
  facet normal 3.040626e-02 -2.367213e-02 -9.992573e-01
    outer loop
      vertex 1.138011e+02 -5.175008e+01 -9.462036e+02
      vertex 1.130178e+02 -6.724878e+01 -9.458603e+02
      vertex 9.885067e+01 -6.806686e+01 -9.462720e+02
    endloop
  endfacet
  facet normal 1.625271e-02 3.101886e-14 -9.998679e-01
    outer loop
      vertex 1.138011e+02 -5.175008e+01 -9.462036e+02
      vertex 9.885067e+01 -5.175008e+01 -9.464466e+02
      vertex 9.885067e+01 3.990946e+01 -9.464466e+02
    endloop
  endfacet
  facet normal 6.562003e-03 1.529215e-01 -9.882166e-01
    outer loop
      vertex 1.113482e+02 4.736106e+01 -9.452105e+02
      vertex 9.885067e+01 3.990946e+01 -9.464466e+02
      vertex 9.885067e+01 4.757709e+01 -9.452601e+02
    endloop
  endfacet
  facet normal 1.625271e-02 2.750258e-14 -9.998679e-01
    outer loop
      vertex 1.138011e+02 3.990946e+01 -9.462036e+02
      vertex 1.138011e+02 -5.175008e+01 -9.462036e+02
      vertex 9.885067e+01 3.990946e+01 -9.464466e+02
    endloop
  endfacet
  facet normal 1.609881e-02 1.372889e-01 -9.904002e-01
    outer loop
      vertex 1.113482e+02 4.736106e+01 -9.452105e+02
      vertex 1.138011e+02 3.990946e+01 -9.462036e+02
      vertex 9.885067e+01 3.990946e+01 -9.464466e+02
    endloop
  endfacet
  facet normal 3.396485e-01 -2.134518e-01 9.160116e-01
    outer loop
      vertex 6.212359e+01 7.611376e+00 -9.361466e+02
      vertex 4.701144e+01 -1.643536e+01 -9.361466e+02
      vertex 6.485000e+01 -1.508627e+01 -9.424466e+02
    endloop
  endfacet
endsolid SIM_ICUB3_R_FOOT_REAR
