solid SIM_ICUB3_R_ANKLE_2
  facet normal -8.710764e-01 -4.113482e-01 -2.683626e-01
    outer loop
      vertex 2.115460e+01 -6.437301e+01 -9.184366e+02
      vertex 1.268427e+01 -4.687583e+01 -9.177626e+02
      vertex 2.415000e+01 -6.288716e+01 -9.304369e+02
    endloop
  endfacet
  facet normal -8.677150e-01 -3.208704e-01 -3.796220e-01
    outer loop
      vertex 1.918111e+01 -4.607073e+01 -9.332932e+02
      vertex 2.415000e+01 -6.288716e+01 -9.304369e+02
      vertex 1.268427e+01 -4.687583e+01 -9.177626e+02
    endloop
  endfacet
  facet normal -4.529766e-01 -8.639415e-01 -2.200393e-01
    outer loop
      vertex 3.700733e+01 -7.286000e+01 -9.177488e+02
      vertex 2.115460e+01 -6.437301e+01 -9.184366e+02
      vertex 2.415000e+01 -6.288716e+01 -9.304369e+02
    endloop
  endfacet
  facet normal -3.315986e-01 -2.523819e-01 -9.090356e-01
    outer loop
      vertex 3.473045e+01 -4.797496e+01 -9.384366e+02
      vertex 2.415000e+01 -6.288716e+01 -9.304369e+02
      vertex 1.918111e+01 -4.607073e+01 -9.332932e+02
    endloop
  endfacet
  facet normal -2.988656e-01 -8.736858e-01 -3.838652e-01
    outer loop
      vertex 3.858571e+01 -6.669335e+01 -9.330131e+02
      vertex 3.700733e+01 -7.286000e+01 -9.177488e+02
      vertex 2.415000e+01 -6.288716e+01 -9.304369e+02
    endloop
  endfacet
  facet normal -2.468543e-01 -3.162444e-01 -9.159980e-01
    outer loop
      vertex 3.473045e+01 -4.797496e+01 -9.384366e+02
      vertex 3.858571e+01 -6.669335e+01 -9.330131e+02
      vertex 2.415000e+01 -6.288716e+01 -9.304369e+02
    endloop
  endfacet
  facet normal -8.871118e-01 -4.353525e-01 1.532997e-01
    outer loop
      vertex 1.673224e+01 -4.435315e+01 -8.871738e+02
      vertex 1.268427e+01 -4.687583e+01 -9.177626e+02
      vertex 2.115460e+01 -6.437301e+01 -9.184366e+02
    endloop
  endfacet
  facet normal -9.172845e-01 -8.836382e-02 -3.883052e-01
    outer loop
      vertex 9.395282e+00 -1.445670e+01 -9.173705e+02
      vertex 1.918111e+01 -4.607073e+01 -9.332932e+02
      vertex 1.268427e+01 -4.687583e+01 -9.177626e+02
    endloop
  endfacet
  facet normal -9.806165e-01 -1.360621e-01 1.409909e-01
    outer loop
      vertex 1.271669e+01 -1.651199e+01 -8.882348e+02
      vertex 1.268427e+01 -4.687583e+01 -9.177626e+02
      vertex 1.673224e+01 -4.435315e+01 -8.871738e+02
    endloop
  endfacet
  facet normal -9.892016e-01 -1.016339e-01 1.055975e-01
    outer loop
      vertex 1.271669e+01 -1.651199e+01 -8.882348e+02
      vertex 9.395282e+00 -1.445670e+01 -9.173705e+02
      vertex 1.268427e+01 -4.687583e+01 -9.177626e+02
    endloop
  endfacet
  facet normal -4.648334e-01 -8.776988e-01 -1.165103e-01
    outer loop
      vertex 3.610986e+01 -7.680000e+01 -8.844873e+02
      vertex 2.115460e+01 -6.437301e+01 -9.184366e+02
      vertex 3.700733e+01 -7.286000e+01 -9.177488e+02
    endloop
  endfacet
  facet normal -8.535915e-01 -4.850984e-01 1.898973e-01
    outer loop
      vertex 2.478879e+01 -6.054970e+01 -8.923341e+02
      vertex 1.673224e+01 -4.435315e+01 -8.871738e+02
      vertex 2.115460e+01 -6.437301e+01 -9.184366e+02
    endloop
  endfacet
  facet normal -8.462564e-01 -4.974811e-01 1.906898e-01
    outer loop
      vertex 3.610986e+01 -7.680000e+01 -8.844873e+02
      vertex 2.478879e+01 -6.054970e+01 -8.923341e+02
      vertex 2.115460e+01 -6.437301e+01 -9.184366e+02
    endloop
  endfacet
  facet normal -3.173710e-01 -3.156526e-02 -9.477760e-01
    outer loop
      vertex 4.256621e+01 -1.386171e+01 -9.421966e+02
      vertex 3.473045e+01 -4.797496e+01 -9.384366e+02
      vertex 1.918111e+01 -4.607073e+01 -9.332932e+02
    endloop
  endfacet
  facet normal -9.116250e-01 -7.903295e-02 -4.033531e-01
    outer loop
      vertex 1.643005e+01 -1.380275e+01 -9.333981e+02
      vertex 1.918111e+01 -4.607073e+01 -9.332932e+02
      vertex 9.395282e+00 -1.445670e+01 -9.173705e+02
    endloop
  endfacet
  facet normal -3.189644e-01 -3.027222e-02 -9.472831e-01
    outer loop
      vertex 4.256621e+01 -1.386171e+01 -9.421966e+02
      vertex 1.918111e+01 -4.607073e+01 -9.332932e+02
      vertex 1.643005e+01 -1.380275e+01 -9.333981e+02
    endloop
  endfacet
  facet normal -1.230652e-01 -9.156625e-01 -3.826450e-01
    outer loop
      vertex 6.485000e+01 -7.678033e+01 -9.173222e+02
      vertex 3.700733e+01 -7.286000e+01 -9.177488e+02
      vertex 3.858571e+01 -6.669335e+01 -9.330131e+02
    endloop
  endfacet
  facet normal -2.687930e-03 -9.930451e-01 -1.177039e-01
    outer loop
      vertex 6.485623e+01 -7.680000e+01 -8.851437e+02
      vertex 3.610986e+01 -7.680000e+01 -8.844873e+02
      vertex 3.700733e+01 -7.286000e+01 -9.177488e+02
    endloop
  endfacet
  facet normal -1.394191e-01 -9.902333e-01 -5.782829e-04
    outer loop
      vertex 6.485623e+01 -7.680000e+01 -8.851437e+02
      vertex 3.700733e+01 -7.286000e+01 -9.177488e+02
      vertex 6.485000e+01 -7.678033e+01 -9.173222e+02
    endloop
  endfacet
  facet normal 9.009858e-04 -2.781235e-01 -9.605449e-01
    outer loop
      vertex 6.485000e+01 -4.787739e+01 -9.384366e+02
      vertex 3.858571e+01 -6.669335e+01 -9.330131e+02
      vertex 3.473045e+01 -4.797496e+01 -9.384366e+02
    endloop
  endfacet
  facet normal -8.888343e-02 -8.988852e-01 -4.290748e-01
    outer loop
      vertex 6.483006e+01 -6.846332e+01 -9.347417e+02
      vertex 6.485000e+01 -7.678033e+01 -9.173222e+02
      vertex 3.858571e+01 -6.669335e+01 -9.330131e+02
    endloop
  endfacet
  facet normal -7.651388e-02 -1.760746e-01 -9.813987e-01
    outer loop
      vertex 6.485000e+01 -4.787739e+01 -9.384366e+02
      vertex 6.483006e+01 -6.846332e+01 -9.347417e+02
      vertex 3.858571e+01 -6.669335e+01 -9.330131e+02
    endloop
  endfacet
  facet normal -4.880599e-03 -1.084486e-01 -9.940901e-01
    outer loop
      vertex 6.485000e+01 -1.486456e+01 -9.421966e+02
      vertex 3.473045e+01 -4.797496e+01 -9.384366e+02
      vertex 4.256621e+01 -1.386171e+01 -9.421966e+02
    endloop
  endfacet
  facet normal 3.665951e-04 -1.131635e-01 -9.935763e-01
    outer loop
      vertex 6.485000e+01 -1.486456e+01 -9.421966e+02
      vertex 6.485000e+01 -4.787739e+01 -9.384366e+02
      vertex 3.473045e+01 -4.797496e+01 -9.384366e+02
    endloop
  endfacet
  facet normal -8.371118e-01 -4.923528e-01 2.383958e-01
    outer loop
      vertex 2.110033e+01 -4.120282e+01 -8.653292e+02
      vertex 1.673224e+01 -4.435315e+01 -8.871738e+02
      vertex 2.478879e+01 -6.054970e+01 -8.923341e+02
    endloop
  endfacet
  facet normal -9.805693e-01 -6.584713e-04 1.961717e-01
    outer loop
      vertex 2.054468e+01 -2.672192e+01 -8.680581e+02
      vertex 1.673224e+01 -4.435315e+01 -8.871738e+02
      vertex 2.110033e+01 -4.120282e+01 -8.653292e+02
    endloop
  endfacet
  facet normal -9.446673e-01 -1.246875e-01 3.034085e-01
    outer loop
      vertex 2.054468e+01 -2.672192e+01 -8.680581e+02
      vertex 1.271669e+01 -1.651199e+01 -8.882348e+02
      vertex 1.673224e+01 -4.435315e+01 -8.871738e+02
    endloop
  endfacet
  facet normal -8.470177e-01 -4.724766e-01 2.435710e-01
    outer loop
      vertex 4.217843e+01 -7.480000e+01 -8.595042e+02
      vertex 2.478879e+01 -6.054970e+01 -8.923341e+02
      vertex 3.610986e+01 -7.680000e+01 -8.844873e+02
    endloop
  endfacet
  facet normal -8.866469e-01 -4.246450e-01 1.831226e-01
    outer loop
      vertex 3.671660e+01 -7.480000e+01 -8.676269e+02
      vertex 2.110033e+01 -4.120282e+01 -8.653292e+02
      vertex 2.478879e+01 -6.054970e+01 -8.923341e+02
    endloop
  endfacet
  facet normal 8.005741e-01 -2.632383e-01 -5.383184e-01
    outer loop
      vertex 4.217843e+01 -7.480000e+01 -8.595042e+02
      vertex 3.671660e+01 -7.480000e+01 -8.676269e+02
      vertex 2.478879e+01 -6.054970e+01 -8.923341e+02
    endloop
  endfacet
  facet normal -1.203800e-01 -9.868094e-01 1.082396e-01
    outer loop
      vertex 6.485000e+01 -7.680000e+01 -8.525236e+02
      vertex 4.217843e+01 -7.480000e+01 -8.595042e+02
      vertex 3.610986e+01 -7.680000e+01 -8.844873e+02
    endloop
  endfacet
  facet normal 2.621005e-15 -1.000000e+00 6.535194e-15
    outer loop
      vertex 6.485000e+01 -7.680000e+01 -8.525236e+02
      vertex 3.610986e+01 -7.680000e+01 -8.844873e+02
      vertex 6.485623e+01 -7.680000e+01 -8.851437e+02
    endloop
  endfacet
  facet normal -3.202311e-01 -2.119912e-01 9.233156e-01
    outer loop
      vertex 4.212032e+01 -4.787894e+01 -8.595718e+02
      vertex 2.110033e+01 -4.120282e+01 -8.653292e+02
      vertex 3.671660e+01 -7.480000e+01 -8.676269e+02
    endloop
  endfacet
  facet normal -2.533555e-01 3.598657e-02 9.667037e-01
    outer loop
      vertex 4.276446e+01 -2.685704e+01 -8.601855e+02
      vertex 2.110033e+01 -4.120282e+01 -8.653292e+02
      vertex 4.212032e+01 -4.787894e+01 -8.595718e+02
    endloop
  endfacet
  facet normal -3.286330e-01 1.627054e-01 9.303372e-01
    outer loop
      vertex 4.276446e+01 -2.685704e+01 -8.601855e+02
      vertex 2.054468e+01 -2.672192e+01 -8.680581e+02
      vertex 2.110033e+01 -4.120282e+01 -8.653292e+02
    endloop
  endfacet
  facet normal -8.298419e-01 -3.917156e-04 5.579985e-01
    outer loop
      vertex 4.212032e+01 -4.787894e+01 -8.595718e+02
      vertex 3.671660e+01 -7.480000e+01 -8.676269e+02
      vertex 4.217843e+01 -7.480000e+01 -8.595042e+02
    endloop
  endfacet
  facet normal -6.026611e-01 7.007719e-04 7.979969e-01
    outer loop
      vertex 5.081231e+01 -4.788002e+01 -8.530074e+02
      vertex 4.212032e+01 -4.787894e+01 -8.595718e+02
      vertex 4.217843e+01 -7.480000e+01 -8.595042e+02
    endloop
  endfacet
  facet normal -2.388826e-01 -8.032016e-01 5.457126e-01
    outer loop
      vertex 6.469670e+01 -7.480000e+01 -8.496470e+02
      vertex 4.217843e+01 -7.480000e+01 -8.595042e+02
      vertex 6.485000e+01 -7.680000e+01 -8.525236e+02
    endloop
  endfacet
  facet normal -5.964708e-01 -2.403038e-03 8.026312e-01
    outer loop
      vertex 5.114563e+01 -7.480000e+01 -8.528403e+02
      vertex 5.081231e+01 -4.788002e+01 -8.530074e+02
      vertex 4.217843e+01 -7.480000e+01 -8.595042e+02
    endloop
  endfacet
  facet normal 2.463202e-15 -1.000000e+00 7.347961e-15
    outer loop
      vertex 6.469670e+01 -7.480000e+01 -8.496470e+02
      vertex 5.114563e+01 -7.480000e+01 -8.528403e+02
      vertex 4.217843e+01 -7.480000e+01 -8.595042e+02
    endloop
  endfacet
  facet normal -6.647661e-01 4.214521e-02 7.458618e-01
    outer loop
      vertex 5.068700e+01 -2.775000e+01 -8.530739e+02
      vertex 4.276446e+01 -2.685704e+01 -8.601855e+02
      vertex 4.212032e+01 -4.787894e+01 -8.595718e+02
    endloop
  endfacet
  facet normal -6.026610e-01 -1.115788e-03 7.979965e-01
    outer loop
      vertex 5.068700e+01 -2.775000e+01 -8.530739e+02
      vertex 4.212032e+01 -4.787894e+01 -8.595718e+02
      vertex 5.081231e+01 -4.788002e+01 -8.530074e+02
    endloop
  endfacet
  facet normal -9.134908e-01 -5.462277e-02 -4.031760e-01
    outer loop
      vertex 7.362614e+00 1.826922e+01 -9.171988e+02
      vertex 1.643005e+01 -1.380275e+01 -9.333981e+02
      vertex 9.395282e+00 -1.445670e+01 -9.173705e+02
    endloop
  endfacet
  facet normal -9.924527e-01 3.990786e-02 1.159527e-01
    outer loop
      vertex 1.248145e+01 1.450933e+01 -9.009250e+02
      vertex 9.395282e+00 -1.445670e+01 -9.173705e+02
      vertex 1.271669e+01 -1.651199e+01 -8.882348e+02
    endloop
  endfacet
  facet normal -9.560936e-01 -6.088914e-02 2.866662e-01
    outer loop
      vertex 1.248145e+01 1.450933e+01 -9.009250e+02
      vertex 7.362614e+00 1.826922e+01 -9.171988e+02
      vertex 9.395282e+00 -1.445670e+01 -9.173705e+02
    endloop
  endfacet
  facet normal -3.190556e-01 -7.215044e-03 -9.477085e-01
    outer loop
      vertex 3.065447e+01 1.650000e+01 -9.384175e+02
      vertex 4.256621e+01 -1.386171e+01 -9.421966e+02
      vertex 1.643005e+01 -1.380275e+01 -9.333981e+02
    endloop
  endfacet
  facet normal -8.988084e-01 -3.335170e-02 -4.370710e-01
    outer loop
      vertex 1.571097e+01 1.853931e+01 -9.343872e+02
      vertex 1.643005e+01 -1.380275e+01 -9.333981e+02
      vertex 7.362614e+00 1.826922e+01 -9.171988e+02
    endloop
  endfacet
  facet normal -2.647306e-01 -3.536030e-02 -9.636739e-01
    outer loop
      vertex 3.065447e+01 1.650000e+01 -9.384175e+02
      vertex 1.643005e+01 -1.380275e+01 -9.333981e+02
      vertex 1.571097e+01 1.853931e+01 -9.343872e+02
    endloop
  endfacet
  facet normal -1.043467e-01 8.242452e-02 -9.911196e-01
    outer loop
      vertex 6.482805e+01 1.151053e+01 -9.424303e+02
      vertex 4.256621e+01 -1.386171e+01 -9.421966e+02
      vertex 3.065447e+01 1.650000e+01 -9.384175e+02
    endloop
  endfacet
  facet normal -3.988290e-04 -8.861736e-03 -9.999607e-01
    outer loop
      vertex 6.482805e+01 1.151053e+01 -9.424303e+02
      vertex 6.485000e+01 -1.486456e+01 -9.421966e+02
      vertex 4.256621e+01 -1.386171e+01 -9.421966e+02
    endloop
  endfacet
  facet normal -7.654904e-01 4.035319e-01 5.011850e-01
    outer loop
      vertex 1.596023e+01 -7.765182e+00 -8.903233e+02
      vertex 1.271669e+01 -1.651199e+01 -8.882348e+02
      vertex 2.054468e+01 -2.672192e+01 -8.680581e+02
    endloop
  endfacet
  facet normal -3.849190e-01 3.469482e-01 8.552569e-01
    outer loop
      vertex 1.596023e+01 -7.765182e+00 -8.903233e+02
      vertex 1.248145e+01 1.450933e+01 -9.009250e+02
      vertex 1.271669e+01 -1.651199e+01 -8.882348e+02
    endloop
  endfacet
  facet normal -9.014254e-02 9.583858e-01 2.708707e-01
    outer loop
      vertex 4.247815e+01 -2.675000e+01 -8.606595e+02
      vertex 2.054468e+01 -2.672192e+01 -8.680581e+02
      vertex 4.276446e+01 -2.685704e+01 -8.601855e+02
    endloop
  endfacet
  facet normal -2.211078e-01 7.196246e-01 6.582186e-01
    outer loop
      vertex 4.247815e+01 -2.675000e+01 -8.606595e+02
      vertex 1.596023e+01 -7.765182e+00 -8.903233e+02
      vertex 2.054468e+01 -2.672192e+01 -8.680581e+02
    endloop
  endfacet
  facet normal 5.946326e-01 7.830455e-01 -1.823509e-01
    outer loop
      vertex 4.247815e+01 -2.675000e+01 -8.606595e+02
      vertex 4.276446e+01 -2.685704e+01 -8.601855e+02
      vertex 3.512089e+01 -2.675000e+01 -8.846510e+02
    endloop
  endfacet
  facet normal 3.018513e-03 9.999896e-01 3.431967e-03
    outer loop
      vertex 6.485000e+01 -2.695000e+01 -8.525236e+02
      vertex 3.512089e+01 -2.675000e+01 -8.846510e+02
      vertex 4.276446e+01 -2.685704e+01 -8.601855e+02
    endloop
  endfacet
  facet normal -8.877795e-02 9.594473e-01 2.675432e-01
    outer loop
      vertex 6.485000e+01 -2.775000e+01 -8.496546e+02
      vertex 6.485000e+01 -2.695000e+01 -8.525236e+02
      vertex 4.276446e+01 -2.685704e+01 -8.601855e+02
    endloop
  endfacet
  facet normal -4.083384e-02 9.847460e-01 1.691390e-01
    outer loop
      vertex 6.485000e+01 -2.775000e+01 -8.496546e+02
      vertex 4.276446e+01 -2.685704e+01 -8.601855e+02
      vertex 5.068700e+01 -2.775000e+01 -8.530739e+02
    endloop
  endfacet
  facet normal -8.992797e-01 -1.701071e-02 -4.370431e-01
    outer loop
      vertex 6.703398e+00 5.116111e+01 -9.171226e+02
      vertex 1.571097e+01 1.853931e+01 -9.343872e+02
      vertex 7.362614e+00 1.826922e+01 -9.171988e+02
    endloop
  endfacet
  facet normal -9.559036e-01 -4.587319e-02 2.900757e-01
    outer loop
      vertex 1.252854e+01 5.560009e+01 -8.942716e+02
      vertex 7.362614e+00 1.826922e+01 -9.171988e+02
      vertex 1.248145e+01 1.450933e+01 -9.009250e+02
    endloop
  endfacet
  facet normal -9.678813e-01 -1.997884e-02 2.506124e-01
    outer loop
      vertex 1.252854e+01 5.560009e+01 -8.942716e+02
      vertex 6.703398e+00 5.116111e+01 -9.171226e+02
      vertex 7.362614e+00 1.826922e+01 -9.171988e+02
    endloop
  endfacet
  facet normal -2.656255e-01 -4.302090e-02 -9.631159e-01
    outer loop
      vertex 2.485000e+01 5.115934e+01 -9.383649e+02
      vertex 3.065447e+01 1.650000e+01 -9.384175e+02
      vertex 1.571097e+01 1.853931e+01 -9.343872e+02
    endloop
  endfacet
  facet normal -8.971334e-01 -1.404000e-02 -4.415365e-01
    outer loop
      vertex 1.557610e+01 5.151586e+01 -9.351618e+02
      vertex 1.571097e+01 1.853931e+01 -9.343872e+02
      vertex 6.703398e+00 5.116111e+01 -9.171226e+02
    endloop
  endfacet
  facet normal -3.271780e-01 -2.352670e-02 -9.446698e-01
    outer loop
      vertex 2.485000e+01 5.115934e+01 -9.383649e+02
      vertex 1.571097e+01 1.853931e+01 -9.343872e+02
      vertex 1.557610e+01 5.151586e+01 -9.351618e+02
    endloop
  endfacet
  facet normal 1.775002e-01 3.122139e-02 -9.836254e-01
    outer loop
      vertex 6.485000e+01 5.116111e+01 -9.311466e+02
      vertex 3.065447e+01 1.650000e+01 -9.384175e+02
      vertex 2.485000e+01 5.115934e+01 -9.383649e+02
    endloop
  endfacet
  facet normal -7.277643e-02 2.730231e-01 -9.592507e-01
    outer loop
      vertex 6.485000e+01 5.116111e+01 -9.311466e+02
      vertex 6.482805e+01 1.151053e+01 -9.424303e+02
      vertex 3.065447e+01 1.650000e+01 -9.384175e+02
    endloop
  endfacet
  facet normal 1.324647e-01 7.399307e-01 6.595117e-01
    outer loop
      vertex 4.247815e+01 -2.675000e+01 -8.606595e+02
      vertex 1.634170e+01 1.336680e+01 -9.004185e+02
      vertex 1.248145e+01 1.450933e+01 -9.009250e+02
    endloop
  endfacet
  facet normal -1.799728e-01 -1.792932e-01 9.671937e-01
    outer loop
      vertex 1.718784e+01 5.902948e+01 -8.917963e+02
      vertex 1.248145e+01 1.450933e+01 -9.009250e+02
      vertex 1.634170e+01 1.336680e+01 -9.004185e+02
    endloop
  endfacet
  facet normal -6.383966e-01 2.472308e-01 7.289216e-01
    outer loop
      vertex 4.247815e+01 -2.675000e+01 -8.606595e+02
      vertex 1.248145e+01 1.450933e+01 -9.009250e+02
      vertex 1.596023e+01 -7.765182e+00 -8.903233e+02
    endloop
  endfacet
  facet normal -3.771000e-01 -1.476154e-01 9.143332e-01
    outer loop
      vertex 1.718784e+01 5.902948e+01 -8.917963e+02
      vertex 1.252854e+01 5.560009e+01 -8.942716e+02
      vertex 1.248145e+01 1.450933e+01 -9.009250e+02
    endloop
  endfacet
  facet normal 6.959024e-01 -2.358486e-14 7.181364e-01
    outer loop
      vertex 3.464722e+01 1.650000e+01 -9.181572e+02
      vertex 1.634170e+01 1.336680e+01 -9.004185e+02
      vertex 3.464722e+01 -1.486456e+01 -9.181572e+02
    endloop
  endfacet
  facet normal 8.703681e-01 4.678178e-01 1.536417e-01
    outer loop
      vertex 3.512089e+01 -2.675000e+01 -8.846510e+02
      vertex 3.464722e+01 -1.486456e+01 -9.181572e+02
      vertex 1.634170e+01 1.336680e+01 -9.004185e+02
    endloop
  endfacet
  facet normal -1.690420e-02 -3.261419e-14 9.998571e-01
    outer loop
      vertex 6.485000e+01 1.814827e+01 -9.176466e+02
      vertex 3.464722e+01 1.650000e+01 -9.181572e+02
      vertex 3.464722e+01 -1.486456e+01 -9.181572e+02
    endloop
  endfacet
  facet normal 5.844723e-02 9.411110e-01 3.330075e-01
    outer loop
      vertex 6.484992e+01 -2.920000e+01 -8.829449e+02
      vertex 3.464722e+01 -1.486456e+01 -9.181572e+02
      vertex 3.512089e+01 -2.675000e+01 -8.846510e+02
    endloop
  endfacet
  facet normal -6.454954e-03 9.242223e-01 3.818004e-01
    outer loop
      vertex 6.485000e+01 -1.486456e+01 -9.176466e+02
      vertex 3.464722e+01 -1.486456e+01 -9.181572e+02
      vertex 6.484992e+01 -2.920000e+01 -8.829449e+02
    endloop
  endfacet
  facet normal -1.690420e-02 -3.096719e-14 9.998571e-01
    outer loop
      vertex 6.485000e+01 1.814827e+01 -9.176466e+02
      vertex 3.464722e+01 -1.486456e+01 -9.181572e+02
      vertex 6.485000e+01 -1.486456e+01 -9.176466e+02
    endloop
  endfacet
  facet normal 7.012384e-01 -1.448049e-01 6.980661e-01
    outer loop
      vertex 1.718784e+01 5.902948e+01 -8.917963e+02
      vertex 1.634170e+01 1.336680e+01 -9.004185e+02
      vertex 3.464722e+01 1.650000e+01 -9.181572e+02
    endloop
  endfacet
  facet normal 9.072725e-01 3.153524e-01 -2.782255e-01
    outer loop
      vertex 4.247815e+01 -2.675000e+01 -8.606595e+02
      vertex 3.512089e+01 -2.675000e+01 -8.846510e+02
      vertex 1.634170e+01 1.336680e+01 -9.004185e+02
    endloop
  endfacet
  facet normal 7.665667e-01 -8.021898e-02 6.371345e-01
    outer loop
      vertex 3.785000e+01 5.116111e+01 -9.176466e+02
      vertex 1.718784e+01 5.902948e+01 -8.917963e+02
      vertex 3.464722e+01 1.650000e+01 -9.181572e+02
    endloop
  endfacet
  facet normal 1.550603e-17 -1.473038e-02 9.998915e-01
    outer loop
      vertex 6.485000e+01 5.116111e+01 -9.176466e+02
      vertex 3.785000e+01 5.116111e+01 -9.176466e+02
      vertex 3.464722e+01 1.650000e+01 -9.181572e+02
    endloop
  endfacet
  facet normal -1.690420e-02 -3.099630e-14 9.998571e-01
    outer loop
      vertex 6.485000e+01 1.814827e+01 -9.176466e+02
      vertex 6.485000e+01 5.116111e+01 -9.176466e+02
      vertex 3.464722e+01 1.650000e+01 -9.181572e+02
    endloop
  endfacet
  facet normal 8.609859e-02 9.935728e-01 -7.348616e-02
    outer loop
      vertex 6.485000e+01 -2.695000e+01 -8.525236e+02
      vertex 6.484992e+01 -2.920000e+01 -8.829449e+02
      vertex 3.512089e+01 -2.675000e+01 -8.846510e+02
    endloop
  endfacet
  facet normal -8.973397e-01 1.619345e-02 -4.410434e-01
    outer loop
      vertex 7.334142e+00 8.404347e+01 -9.171986e+02
      vertex 1.557610e+01 5.151586e+01 -9.351618e+02
      vertex 6.703398e+00 5.116111e+01 -9.171226e+02
    endloop
  endfacet
  facet normal -9.650474e-01 -5.388337e-02 2.564762e-01
    outer loop
      vertex 1.287476e+01 8.314252e+01 -8.871825e+02
      vertex 6.703398e+00 5.116111e+01 -9.171226e+02
      vertex 1.252854e+01 5.560009e+01 -8.942716e+02
    endloop
  endfacet
  facet normal -9.831007e-01 1.927834e-02 1.820475e-01
    outer loop
      vertex 1.287476e+01 8.314252e+01 -8.871825e+02
      vertex 7.334142e+00 8.404347e+01 -9.171986e+02
      vertex 6.703398e+00 5.116111e+01 -9.171226e+02
    endloop
  endfacet
  facet normal -3.240528e-01 5.545447e-02 -9.444123e-01
    outer loop
      vertex 3.065399e+01 8.417403e+01 -9.384178e+02
      vertex 2.485000e+01 5.115934e+01 -9.383649e+02
      vertex 1.557610e+01 5.151586e+01 -9.351618e+02
    endloop
  endfacet
  facet normal -8.990482e-01 1.387536e-02 -4.376298e-01
    outer loop
      vertex 1.570244e+01 8.378181e+01 -9.343983e+02
      vertex 1.557610e+01 5.151586e+01 -9.351618e+02
      vertex 7.334142e+00 8.404347e+01 -9.171986e+02
    endloop
  endfacet
  facet normal -2.601248e-01 2.385918e-02 -9.652802e-01
    outer loop
      vertex 3.065399e+01 8.417403e+01 -9.384178e+02
      vertex 1.557610e+01 5.151586e+01 -9.351618e+02
      vertex 1.570244e+01 8.378181e+01 -9.343983e+02
    endloop
  endfacet
  facet normal -1.181122e-01 1.917246e-02 -9.928152e-01
    outer loop
      vertex 6.485688e+01 8.625580e+01 -9.424466e+02
      vertex 2.485000e+01 5.115934e+01 -9.383649e+02
      vertex 3.065399e+01 8.417403e+01 -9.384178e+02
    endloop
  endfacet
  facet normal 1.693037e-01 -3.020956e-01 -9.381229e-01
    outer loop
      vertex 6.485688e+01 8.625580e+01 -9.424466e+02
      vertex 6.485000e+01 5.116111e+01 -9.311466e+02
      vertex 2.485000e+01 5.115934e+01 -9.383649e+02
    endloop
  endfacet
  facet normal 4.267631e-01 -8.333581e-01 3.512656e-01
    outer loop
      vertex 3.424733e+01 8.109906e+01 -8.601635e+02
      vertex 1.252854e+01 5.560009e+01 -8.942716e+02
      vertex 1.718784e+01 5.902948e+01 -8.917963e+02
    endloop
  endfacet
  facet normal -9.300940e-01 -8.055185e-02 3.583805e-01
    outer loop
      vertex 2.116513e+01 8.434697e+01 -8.653960e+02
      vertex 1.287476e+01 8.314252e+01 -8.871825e+02
      vertex 1.252854e+01 5.560009e+01 -8.942716e+02
    endloop
  endfacet
  facet normal -1.320332e-01 -6.824552e-01 7.189034e-01
    outer loop
      vertex 1.947109e+01 7.540068e+01 -8.741998e+02
      vertex 2.116513e+01 8.434697e+01 -8.653960e+02
      vertex 1.252854e+01 5.560009e+01 -8.942716e+02
    endloop
  endfacet
  facet normal -4.528732e-01 -5.514134e-01 7.006062e-01
    outer loop
      vertex 3.424733e+01 8.109906e+01 -8.601635e+02
      vertex 1.947109e+01 7.540068e+01 -8.741998e+02
      vertex 1.252854e+01 5.560009e+01 -8.942716e+02
    endloop
  endfacet
  facet normal 3.055187e-01 -8.150523e-01 4.922886e-01
    outer loop
      vertex 6.485000e+01 7.752284e+01 -8.907575e+02
      vertex 1.718784e+01 5.902948e+01 -8.917963e+02
      vertex 3.785000e+01 5.116111e+01 -9.176466e+02
    endloop
  endfacet
  facet normal -1.798899e-01 -7.585771e-01 6.262590e-01
    outer loop
      vertex 6.514270e+01 7.750000e+01 -8.556485e+02
      vertex 3.424733e+01 8.109906e+01 -8.601635e+02
      vertex 1.718784e+01 5.902948e+01 -8.917963e+02
    endloop
  endfacet
  facet normal 3.618001e-01 -9.322487e-01 -3.622653e-03
    outer loop
      vertex 6.514270e+01 7.750000e+01 -8.556485e+02
      vertex 1.718784e+01 5.902948e+01 -8.917963e+02
      vertex 6.485000e+01 7.752284e+01 -8.907575e+02
    endloop
  endfacet
  facet normal 7.827302e-16 -7.140742e-01 7.000700e-01
    outer loop
      vertex 6.485000e+01 7.752284e+01 -8.907575e+02
      vertex 3.785000e+01 5.116111e+01 -9.176466e+02
      vertex 6.485000e+01 5.116111e+01 -9.176466e+02
    endloop
  endfacet
  facet normal -8.976673e-01 5.242394e-02 -4.375444e-01
    outer loop
      vertex 9.344185e+00 1.167831e+02 -9.173997e+02
      vertex 1.570244e+01 8.378181e+01 -9.343983e+02
      vertex 7.334142e+00 8.404347e+01 -9.171986e+02
    endloop
  endfacet
  facet normal -9.733614e-01 1.370782e-01 1.837856e-01
    outer loop
      vertex 1.673134e+01 1.152805e+02 -8.907277e+02
      vertex 7.334142e+00 8.404347e+01 -9.171986e+02
      vertex 1.287476e+01 8.314252e+01 -8.871825e+02
    endloop
  endfacet
  facet normal -9.610610e-01 6.066042e-02 2.695960e-01
    outer loop
      vertex 1.673134e+01 1.152805e+02 -8.907277e+02
      vertex 9.344185e+00 1.167831e+02 -9.173997e+02
      vertex 7.334142e+00 8.404347e+01 -9.171986e+02
    endloop
  endfacet
  facet normal -2.599883e-01 1.674692e-02 -9.654665e-01
    outer loop
      vertex 3.281193e+01 1.178852e+02 -9.384141e+02
      vertex 3.065399e+01 8.417403e+01 -9.384178e+02
      vertex 1.570244e+01 8.378181e+01 -9.343983e+02
    endloop
  endfacet
  facet normal -9.192193e-01 2.529263e-02 -3.929327e-01
    outer loop
      vertex 1.607807e+01 1.162003e+02 -9.331903e+02
      vertex 1.570244e+01 8.378181e+01 -9.343983e+02
      vertex 9.344185e+00 1.167831e+02 -9.173997e+02
    endloop
  endfacet
  facet normal -3.013368e-01 3.899214e-02 -9.527202e-01
    outer loop
      vertex 3.281193e+01 1.178852e+02 -9.384141e+02
      vertex 1.570244e+01 8.378181e+01 -9.343983e+02
      vertex 1.607807e+01 1.162003e+02 -9.331903e+02
    endloop
  endfacet
  facet normal -1.170802e-01 7.601974e-03 -9.930934e-01
    outer loop
      vertex 6.485000e+01 1.171868e+02 -9.421966e+02
      vertex 3.065399e+01 8.417403e+01 -9.384178e+02
      vertex 3.281193e+01 1.178852e+02 -9.384141e+02
    endloop
  endfacet
  facet normal -1.174593e-01 8.000163e-03 -9.930455e-01
    outer loop
      vertex 6.485000e+01 1.171868e+02 -9.421966e+02
      vertex 6.485688e+01 8.625580e+01 -9.424466e+02
      vertex 3.065399e+01 8.417403e+01 -9.384178e+02
    endloop
  endfacet
  facet normal -8.896327e-01 3.252730e-01 3.205481e-01
    outer loop
      vertex 2.580993e+01 1.047862e+02 -8.732456e+02
      vertex 1.287476e+01 8.314252e+01 -8.871825e+02
      vertex 2.116513e+01 8.434697e+01 -8.653960e+02
    endloop
  endfacet
  facet normal -8.341779e-01 1.583767e-01 5.282651e-01
    outer loop
      vertex 2.580993e+01 1.047862e+02 -8.732456e+02
      vertex 1.673134e+01 1.152805e+02 -8.907277e+02
      vertex 1.287476e+01 8.314252e+01 -8.871825e+02
    endloop
  endfacet
  facet normal -4.556706e-01 -5.790322e-01 6.760814e-01
    outer loop
      vertex 3.551442e+01 8.503015e+01 -8.551396e+02
      vertex 2.116513e+01 8.434697e+01 -8.653960e+02
      vertex 1.947109e+01 7.540068e+01 -8.741998e+02
    endloop
  endfacet
  facet normal -5.223668e-01 4.895163e-01 6.982168e-01
    outer loop
      vertex 3.930753e+01 1.057959e+02 -8.668606e+02
      vertex 2.116513e+01 8.434697e+01 -8.653960e+02
      vertex 3.551442e+01 8.503015e+01 -8.551396e+02
    endloop
  endfacet
  facet normal -4.153162e-01 4.068487e-01 8.136256e-01
    outer loop
      vertex 3.930753e+01 1.057959e+02 -8.668606e+02
      vertex 2.580993e+01 1.047862e+02 -8.732456e+02
      vertex 2.116513e+01 8.434697e+01 -8.653960e+02
    endloop
  endfacet
  facet normal -3.298511e-01 -7.013089e-01 6.319526e-01
    outer loop
      vertex 3.551442e+01 8.503015e+01 -8.551396e+02
      vertex 1.947109e+01 7.540068e+01 -8.741998e+02
      vertex 3.424733e+01 8.109906e+01 -8.601635e+02
    endloop
  endfacet
  facet normal 1.050821e-01 -7.958841e-01 5.962602e-01
    outer loop
      vertex 4.183745e+01 8.786010e+01 -8.524766e+02
      vertex 3.551442e+01 8.503015e+01 -8.551396e+02
      vertex 3.424733e+01 8.109906e+01 -8.601635e+02
    endloop
  endfacet
  facet normal -1.722067e-01 -8.466902e-01 5.034486e-01
    outer loop
      vertex 4.135504e+01 8.313196e+01 -8.543134e+02
      vertex 3.424733e+01 8.109906e+01 -8.601635e+02
      vertex 6.514270e+01 7.750000e+01 -8.556485e+02
    endloop
  endfacet
  facet normal -5.733185e-01 -2.452172e-01 7.817764e-01
    outer loop
      vertex 4.135504e+01 8.313196e+01 -8.543134e+02
      vertex 4.183745e+01 8.786010e+01 -8.524766e+02
      vertex 3.424733e+01 8.109906e+01 -8.601635e+02
    endloop
  endfacet
  facet normal -5.012928e-01 4.929540e-01 7.111272e-01
    outer loop
      vertex 4.337648e+01 9.053866e+01 -8.534160e+02
      vertex 3.930753e+01 1.057959e+02 -8.668606e+02
      vertex 3.551442e+01 8.503015e+01 -8.551396e+02
    endloop
  endfacet
  facet normal -5.197346e-01 5.328302e-01 6.678084e-01
    outer loop
      vertex 4.337648e+01 9.053866e+01 -8.534160e+02
      vertex 3.551442e+01 8.503015e+01 -8.551396e+02
      vertex 4.183745e+01 8.786010e+01 -8.524766e+02
    endloop
  endfacet
  facet normal -9.151218e-01 8.783280e-02 -3.934939e-01
    outer loop
      vertex 1.261342e+01 1.492554e+02 -9.177545e+02
      vertex 1.607807e+01 1.162003e+02 -9.331903e+02
      vertex 9.344185e+00 1.167831e+02 -9.173997e+02
    endloop
  endfacet
  facet normal -9.536916e-01 1.295900e-01 2.714383e-01
    outer loop
      vertex 1.843343e+01 1.449045e+02 -8.988906e+02
      vertex 9.344185e+00 1.167831e+02 -9.173997e+02
      vertex 1.673134e+01 1.152805e+02 -8.907277e+02
    endloop
  endfacet
  facet normal -9.442819e-01 9.849988e-02 3.140534e-01
    outer loop
      vertex 1.843343e+01 1.449045e+02 -8.988906e+02
      vertex 1.261342e+01 1.492554e+02 -9.177545e+02
      vertex 9.344185e+00 1.167831e+02 -9.173997e+02
    endloop
  endfacet
  facet normal -2.994473e-01 1.634412e-02 -9.539728e-01
    outer loop
      vertex 3.464722e+01 1.501996e+02 -9.384366e+02
      vertex 3.281193e+01 1.178852e+02 -9.384141e+02
      vertex 1.607807e+01 1.162003e+02 -9.331903e+02
    endloop
  endfacet
  facet normal -9.207236e-01 8.167824e-02 -3.815715e-01
    outer loop
      vertex 1.892686e+01 1.488613e+02 -9.330731e+02
      vertex 1.607807e+01 1.162003e+02 -9.331903e+02
      vertex 1.261342e+01 1.492554e+02 -9.177545e+02
    endloop
  endfacet
  facet normal -3.251641e-01 3.175505e-02 -9.451243e-01
    outer loop
      vertex 3.464722e+01 1.501996e+02 -9.384366e+02
      vertex 1.607807e+01 1.162003e+02 -9.331903e+02
      vertex 1.892686e+01 1.488613e+02 -9.330731e+02
    endloop
  endfacet
  facet normal 3.803356e-15 -6.949454e-04 -9.999998e-01
    outer loop
      vertex 6.485000e+01 1.501996e+02 -9.384366e+02
      vertex 3.281193e+01 1.178852e+02 -9.384141e+02
      vertex 3.464722e+01 1.501996e+02 -9.384366e+02
    endloop
  endfacet
  facet normal -1.140861e-01 1.124246e-01 -9.870892e-01
    outer loop
      vertex 6.485000e+01 1.501996e+02 -9.384366e+02
      vertex 6.485000e+01 1.171868e+02 -9.421966e+02
      vertex 3.281193e+01 1.178852e+02 -9.384141e+02
    endloop
  endfacet
  facet normal -7.565755e-01 3.071571e-01 5.772765e-01
    outer loop
      vertex 2.538385e+01 1.338645e+02 -8.892760e+02
      vertex 1.673134e+01 1.152805e+02 -8.907277e+02
      vertex 2.580993e+01 1.047862e+02 -8.732456e+02
    endloop
  endfacet
  facet normal -6.359403e-01 2.387573e-01 7.338766e-01
    outer loop
      vertex 2.538385e+01 1.338645e+02 -8.892760e+02
      vertex 1.843343e+01 1.449045e+02 -8.988906e+02
      vertex 1.673134e+01 1.152805e+02 -8.907277e+02
    endloop
  endfacet
  facet normal -3.988787e-01 5.090865e-01 7.627101e-01
    outer loop
      vertex 4.029143e+01 1.324493e+02 -8.841364e+02
      vertex 2.580993e+01 1.047862e+02 -8.732456e+02
      vertex 3.930753e+01 1.057959e+02 -8.668606e+02
    endloop
  endfacet
  facet normal -2.488312e-01 4.647978e-01 8.497329e-01
    outer loop
      vertex 4.029143e+01 1.324493e+02 -8.841364e+02
      vertex 2.538385e+01 1.338645e+02 -8.892760e+02
      vertex 2.580993e+01 1.047862e+02 -8.732456e+02
    endloop
  endfacet
  facet normal -5.597899e-02 5.445069e-01 8.368862e-01
    outer loop
      vertex 6.468553e+01 1.333174e+02 -8.830695e+02
      vertex 4.029143e+01 1.324493e+02 -8.841364e+02
      vertex 3.930753e+01 1.057959e+02 -8.668606e+02
    endloop
  endfacet
  facet normal -6.299761e-02 6.503113e-01 7.570512e-01
    outer loop
      vertex 6.506994e+01 8.967672e+01 -8.508703e+02
      vertex 3.930753e+01 1.057959e+02 -8.668606e+02
      vertex 4.337648e+01 9.053866e+01 -8.534160e+02
    endloop
  endfacet
  facet normal -5.998611e-02 6.530368e-01 7.549468e-01
    outer loop
      vertex 6.462201e+01 1.067928e+02 -8.657115e+02
      vertex 3.930753e+01 1.057959e+02 -8.668606e+02
      vertex 6.506994e+01 8.967672e+01 -8.508703e+02
    endloop
  endfacet
  facet normal -5.944191e-02 5.467119e-01 8.352082e-01
    outer loop
      vertex 6.468553e+01 1.333174e+02 -8.830695e+02
      vertex 3.930753e+01 1.057959e+02 -8.668606e+02
      vertex 6.462201e+01 1.067928e+02 -8.657115e+02
    endloop
  endfacet
  facet normal -8.508305e-01 3.822661e-01 -3.604997e-01
    outer loop
      vertex 2.094567e+01 1.671577e+02 -9.184366e+02
      vertex 1.892686e+01 1.488613e+02 -9.330731e+02
      vertex 1.261342e+01 1.492554e+02 -9.177545e+02
    endloop
  endfacet
  facet normal -8.576456e-01 3.756016e-01 3.512369e-01
    outer loop
      vertex 2.361806e+01 1.625025e+02 -9.050496e+02
      vertex 1.261342e+01 1.492554e+02 -9.177545e+02
      vertex 1.843343e+01 1.449045e+02 -8.988906e+02
    endloop
  endfacet
  facet normal -8.562327e-01 4.104662e-01 3.136608e-01
    outer loop
      vertex 2.361806e+01 1.625025e+02 -9.050496e+02
      vertex 2.094567e+01 1.671577e+02 -9.184366e+02
      vertex 1.261342e+01 1.492554e+02 -9.177545e+02
    endloop
  endfacet
  facet normal -3.306158e-01 3.071657e-01 -8.923802e-01
    outer loop
      vertex 3.807149e+01 1.693358e+02 -9.331184e+02
      vertex 3.464722e+01 1.501996e+02 -9.384366e+02
      vertex 1.892686e+01 1.488613e+02 -9.330731e+02
    endloop
  endfacet
  facet normal -9.038573e-01 3.236068e-01 -2.798582e-01
    outer loop
      vertex 2.359463e+01 1.653983e+02 -9.290264e+02
      vertex 1.892686e+01 1.488613e+02 -9.330731e+02
      vertex 2.094567e+01 1.671577e+02 -9.184366e+02
    endloop
  endfacet
  facet normal -3.360934e-01 3.122960e-01 -8.885451e-01
    outer loop
      vertex 3.807149e+01 1.693358e+02 -9.331184e+02
      vertex 1.892686e+01 1.488613e+02 -9.330731e+02
      vertex 2.359463e+01 1.653983e+02 -9.290264e+02
    endloop
  endfacet
  facet normal -6.695344e-02 2.782686e-01 -9.581669e-01
    outer loop
      vertex 6.486502e+01 1.718467e+02 -9.342614e+02
      vertex 3.464722e+01 1.501996e+02 -9.384366e+02
      vertex 3.807149e+01 1.693358e+02 -9.331184e+02
    endloop
  endfacet
  facet normal -7.000301e-15 1.893843e-01 -9.819030e-01
    outer loop
      vertex 6.486502e+01 1.718467e+02 -9.342614e+02
      vertex 6.485000e+01 1.501996e+02 -9.384366e+02
      vertex 3.464722e+01 1.501996e+02 -9.384366e+02
    endloop
  endfacet
  facet normal -2.230841e-01 5.565367e-01 8.003127e-01
    outer loop
      vertex 4.029143e+01 1.324493e+02 -8.841364e+02
      vertex 1.843343e+01 1.449045e+02 -8.988906e+02
      vertex 2.538385e+01 1.338645e+02 -8.892760e+02
    endloop
  endfacet
  facet normal -3.782462e-01 3.509262e-01 8.566099e-01
    outer loop
      vertex 3.638736e+01 1.470070e+02 -8.918241e+02
      vertex 1.843343e+01 1.449045e+02 -8.988906e+02
      vertex 4.029143e+01 1.324493e+02 -8.841364e+02
    endloop
  endfacet
  facet normal -3.721100e-01 4.510437e-01 8.112298e-01
    outer loop
      vertex 3.928163e+01 1.681062e+02 -9.022277e+02
      vertex 1.843343e+01 1.449045e+02 -8.988906e+02
      vertex 3.638736e+01 1.470070e+02 -8.918241e+02
    endloop
  endfacet
  facet normal -2.971546e-01 3.922241e-01 8.705512e-01
    outer loop
      vertex 3.928163e+01 1.681062e+02 -9.022277e+02
      vertex 2.361806e+01 1.625025e+02 -9.050496e+02
      vertex 1.843343e+01 1.449045e+02 -8.988906e+02
    endloop
  endfacet
  facet normal -5.505941e-02 4.546774e-01 8.889527e-01
    outer loop
      vertex 6.468553e+01 1.333174e+02 -8.830695e+02
      vertex 3.638736e+01 1.470070e+02 -8.918241e+02
      vertex 4.029143e+01 1.324493e+02 -8.841364e+02
    endloop
  endfacet
  facet normal -1.170761e-01 4.520716e-01 8.842649e-01
    outer loop
      vertex 6.528235e+01 1.710436e+02 -9.002869e+02
      vertex 3.928163e+01 1.681062e+02 -9.022277e+02
      vertex 3.638736e+01 1.470070e+02 -8.918241e+02
    endloop
  endfacet
  facet normal -6.225968e-02 4.431897e-01 8.942632e-01
    outer loop
      vertex 6.460611e+01 1.477169e+02 -8.902113e+02
      vertex 3.638736e+01 1.470070e+02 -8.918241e+02
      vertex 6.468553e+01 1.333174e+02 -8.830695e+02
    endloop
  endfacet
  facet normal -6.232314e-02 3.972771e-01 9.155800e-01
    outer loop
      vertex 6.528235e+01 1.710436e+02 -9.002869e+02
      vertex 3.638736e+01 1.470070e+02 -8.918241e+02
      vertex 6.460611e+01 1.477169e+02 -8.902113e+02
    endloop
  endfacet
  facet normal -4.536710e-01 8.538065e-01 -2.553370e-01
    outer loop
      vertex 3.682904e+01 1.758108e+02 -9.177229e+02
      vertex 2.359463e+01 1.653983e+02 -9.290264e+02
      vertex 2.094567e+01 1.671577e+02 -9.184366e+02
    endloop
  endfacet
  facet normal -4.417949e-01 7.734599e-01 4.545076e-01
    outer loop
      vertex 3.928163e+01 1.681062e+02 -9.022277e+02
      vertex 3.682904e+01 1.758108e+02 -9.177229e+02
      vertex 2.094567e+01 1.671577e+02 -9.184366e+02
    endloop
  endfacet
  facet normal -3.713269e-01 8.514984e-01 3.702255e-01
    outer loop
      vertex 3.928163e+01 1.681062e+02 -9.022277e+02
      vertex 2.094567e+01 1.671577e+02 -9.184366e+02
      vertex 2.361806e+01 1.625025e+02 -9.050496e+02
    endloop
  endfacet
  facet normal -3.423519e-01 8.558985e-01 -3.875989e-01
    outer loop
      vertex 3.807149e+01 1.693358e+02 -9.331184e+02
      vertex 2.359463e+01 1.653983e+02 -9.290264e+02
      vertex 3.682904e+01 1.758108e+02 -9.177229e+02
    endloop
  endfacet
  facet normal -1.213614e-01 9.114410e-01 -3.931244e-01
    outer loop
      vertex 6.485000e+01 1.797561e+02 -9.172262e+02
      vertex 3.807149e+01 1.693358e+02 -9.331184e+02
      vertex 3.682904e+01 1.758108e+02 -9.177229e+02
    endloop
  endfacet
  facet normal -1.334770e-01 8.788241e-01 4.580961e-01
    outer loop
      vertex 6.528235e+01 1.710436e+02 -9.002869e+02
      vertex 3.682904e+01 1.758108e+02 -9.177229e+02
      vertex 3.928163e+01 1.681062e+02 -9.022277e+02
    endloop
  endfacet
  facet normal -1.320034e-01 8.801131e-01 4.560438e-01
    outer loop
      vertex 6.528235e+01 1.710436e+02 -9.002869e+02
      vertex 6.485000e+01 1.797561e+02 -9.172262e+02
      vertex 3.682904e+01 1.758108e+02 -9.177229e+02
    endloop
  endfacet
  facet normal -1.024211e-01 9.022004e-01 -4.189801e-01
    outer loop
      vertex 6.486502e+01 1.718467e+02 -9.342614e+02
      vertex 3.807149e+01 1.693358e+02 -9.331184e+02
      vertex 6.485000e+01 1.797561e+02 -9.172262e+02
    endloop
  endfacet
  facet normal 1.195890e-01 -8.958879e-01 -4.278825e-01
    outer loop
      vertex 9.269267e+01 -7.285999e+01 -9.177487e+02
      vertex 6.485000e+01 -7.678033e+01 -9.173222e+02
      vertex 6.483006e+01 -6.846332e+01 -9.347417e+02
    endloop
  endfacet
  facet normal -3.532661e-02 -9.993756e-01 -6.040331e-04
    outer loop
      vertex 9.312734e+01 -7.780000e+01 -8.840627e+02
      vertex 6.485623e+01 -7.680000e+01 -8.851437e+02
      vertex 6.485000e+01 -7.678033e+01 -9.173222e+02
    endloop
  endfacet
  facet normal 1.357593e-01 -9.800043e-01 -1.454678e-01
    outer loop
      vertex 9.312734e+01 -7.780000e+01 -8.840627e+02
      vertex 6.485000e+01 -7.678033e+01 -9.173222e+02
      vertex 9.269267e+01 -7.285999e+01 -9.177487e+02
    endloop
  endfacet
  facet normal -5.723053e-04 -1.766638e-01 -9.842711e-01
    outer loop
      vertex 9.496955e+01 -4.797496e+01 -9.384366e+02
      vertex 6.483006e+01 -6.846332e+01 -9.347417e+02
      vertex 6.485000e+01 -4.787739e+01 -9.384366e+02
    endloop
  endfacet
  facet normal 8.112004e-02 -9.245878e-01 -3.722323e-01
    outer loop
      vertex 9.117836e+01 -6.694680e+01 -9.327665e+02
      vertex 9.269267e+01 -7.285999e+01 -9.177487e+02
      vertex 6.483006e+01 -6.846332e+01 -9.347417e+02
    endloop
  endfacet
  facet normal 8.851739e-02 -3.014258e-01 -9.493720e-01
    outer loop
      vertex 9.496955e+01 -4.797496e+01 -9.384366e+02
      vertex 9.117836e+01 -6.694680e+01 -9.327665e+02
      vertex 6.483006e+01 -6.846332e+01 -9.347417e+02
    endloop
  endfacet
  facet normal 5.470745e-03 -1.131618e-01 -9.935615e-01
    outer loop
      vertex 8.714413e+01 -1.378676e+01 -9.421966e+02
      vertex 6.485000e+01 -4.787739e+01 -9.384366e+02
      vertex 6.485000e+01 -1.486456e+01 -9.421966e+02
    endloop
  endfacet
  facet normal -3.544047e-04 -1.094004e-01 -9.939977e-01
    outer loop
      vertex 8.714413e+01 -1.378676e+01 -9.421966e+02
      vertex 9.496955e+01 -4.797496e+01 -9.384366e+02
      vertex 6.485000e+01 -4.787739e+01 -9.384366e+02
    endloop
  endfacet
  facet normal 8.815474e-02 -9.961068e-01 1.684615e-05
    outer loop
      vertex 8.745037e+01 -7.480000e+01 -8.594340e+02
      vertex 6.485000e+01 -7.680000e+01 -8.525236e+02
      vertex 6.485623e+01 -7.680000e+01 -8.851437e+02
    endloop
  endfacet
  facet normal -3.939989e-02 -9.929417e-01 1.118676e-01
    outer loop
      vertex 8.745037e+01 -7.480000e+01 -8.594340e+02
      vertex 6.485623e+01 -7.680000e+01 -8.851437e+02
      vertex 9.312734e+01 -7.780000e+01 -8.840627e+02
    endloop
  endfacet
  facet normal 1.313681e-01 -8.106413e-01 5.706164e-01
    outer loop
      vertex 7.852178e+01 -7.480000e+01 -8.528298e+02
      vertex 6.469670e+01 -7.480000e+01 -8.496470e+02
      vertex 6.485000e+01 -7.680000e+01 -8.525236e+02
    endloop
  endfacet
  facet normal 1.462237e-01 -9.692975e-01 1.976893e-01
    outer loop
      vertex 7.852178e+01 -7.480000e+01 -8.528298e+02
      vertex 6.485000e+01 -7.680000e+01 -8.525236e+02
      vertex 8.745037e+01 -7.480000e+01 -8.594340e+02
    endloop
  endfacet
  facet normal -2.340204e-01 3.137604e-03 9.722266e-01
    outer loop
      vertex 6.477395e+01 -4.787695e+01 -8.496468e+02
      vertex 5.081231e+01 -4.788002e+01 -8.530074e+02
      vertex 5.114563e+01 -7.480000e+01 -8.528403e+02
    endloop
  endfacet
  facet normal -2.340209e-01 1.264308e-03 9.722307e-01
    outer loop
      vertex 6.485000e+01 -2.775000e+01 -8.496546e+02
      vertex 5.081231e+01 -4.788002e+01 -8.530074e+02
      vertex 6.477395e+01 -4.787695e+01 -8.496468e+02
    endloop
  endfacet
  facet normal -2.346792e-01 1.749923e-03 9.720713e-01
    outer loop
      vertex 6.485000e+01 -2.775000e+01 -8.496546e+02
      vertex 5.068700e+01 -2.775000e+01 -8.530739e+02
      vertex 5.081231e+01 -4.788002e+01 -8.530074e+02
    endloop
  endfacet
  facet normal -2.293682e-01 6.507022e-04 9.733395e-01
    outer loop
      vertex 6.477395e+01 -4.787695e+01 -8.496468e+02
      vertex 5.114563e+01 -7.480000e+01 -8.528403e+02
      vertex 6.469670e+01 -7.480000e+01 -8.496470e+02
    endloop
  endfacet
  facet normal 2.292945e-01 -6.652951e-04 9.733569e-01
    outer loop
      vertex 7.875300e+01 -4.787322e+01 -8.529398e+02
      vertex 6.477395e+01 -4.787695e+01 -8.496468e+02
      vertex 6.469670e+01 -7.480000e+01 -8.496470e+02
    endloop
  endfacet
  facet normal 2.243522e-01 2.055248e-03 9.745060e-01
    outer loop
      vertex 7.852178e+01 -7.480000e+01 -8.528298e+02
      vertex 7.875300e+01 -4.787322e+01 -8.529398e+02
      vertex 6.469670e+01 -7.480000e+01 -8.496470e+02
    endloop
  endfacet
  facet normal 2.346796e-01 -5.067254e-04 9.720727e-01
    outer loop
      vertex 7.901300e+01 -2.775000e+01 -8.530739e+02
      vertex 6.485000e+01 -2.775000e+01 -8.496546e+02
      vertex 6.477395e+01 -4.787695e+01 -8.496468e+02
    endloop
  endfacet
  facet normal 2.292921e-01 3.522417e-03 9.733513e-01
    outer loop
      vertex 7.901300e+01 -2.775000e+01 -8.530739e+02
      vertex 6.477395e+01 -4.787695e+01 -8.496468e+02
      vertex 7.875300e+01 -4.787322e+01 -8.529398e+02
    endloop
  endfacet
  facet normal 1.177220e-01 -8.701837e-03 -9.930085e-01
    outer loop
      vertex 9.904553e+01 1.650000e+01 -9.384175e+02
      vertex 6.485000e+01 -1.486456e+01 -9.421966e+02
      vertex 6.482805e+01 1.151053e+01 -9.424303e+02
    endloop
  endfacet
  facet normal -6.099791e-03 1.261734e-01 -9.919894e-01
    outer loop
      vertex 9.904553e+01 1.650000e+01 -9.384175e+02
      vertex 8.714413e+01 -1.378676e+01 -9.421966e+02
      vertex 6.485000e+01 -1.486456e+01 -9.421966e+02
    endloop
  endfacet
  facet normal -5.417645e-02 9.228842e-01 3.812475e-01
    outer loop
      vertex 9.457911e+01 -2.675000e+01 -8.846510e+02
      vertex 6.485000e+01 -1.486456e+01 -9.176466e+02
      vertex 6.484992e+01 -2.920000e+01 -8.829449e+02
    endloop
  endfacet
  facet normal -2.977128e-02 9.968340e-01 -7.372706e-02
    outer loop
      vertex 8.693548e+01 -2.685708e+01 -8.601854e+02
      vertex 6.484992e+01 -2.920000e+01 -8.829449e+02
      vertex 6.485000e+01 -2.695000e+01 -8.525236e+02
    endloop
  endfacet
  facet normal -8.334855e-02 9.962846e-01 -2.167973e-02
    outer loop
      vertex 8.693548e+01 -2.685708e+01 -8.601854e+02
      vertex 9.457911e+01 -2.675000e+01 -8.846510e+02
      vertex 6.484992e+01 -2.920000e+01 -8.829449e+02
    endloop
  endfacet
  facet normal 1.690420e-02 -3.101076e-14 9.998571e-01
    outer loop
      vertex 9.505278e+01 1.650000e+01 -9.181572e+02
      vertex 6.485000e+01 1.814827e+01 -9.176466e+02
      vertex 6.485000e+01 -1.486456e+01 -9.176466e+02
    endloop
  endfacet
  facet normal 5.653213e-03 9.424219e-01 3.343787e-01
    outer loop
      vertex 9.505278e+01 -1.486456e+01 -9.181572e+02
      vertex 6.485000e+01 -1.486456e+01 -9.176466e+02
      vertex 9.457911e+01 -2.675000e+01 -8.846510e+02
    endloop
  endfacet
  facet normal 1.690420e-02 -2.900105e-14 9.998571e-01
    outer loop
      vertex 9.505278e+01 1.650000e+01 -9.181572e+02
      vertex 6.485000e+01 -1.486456e+01 -9.176466e+02
      vertex 9.505278e+01 -1.486456e+01 -9.181572e+02
    endloop
  endfacet
  facet normal 6.471090e-02 9.612318e-01 2.680408e-01
    outer loop
      vertex 7.901300e+01 -2.775000e+01 -8.530739e+02
      vertex 6.485000e+01 -2.695000e+01 -8.525236e+02
      vertex 6.485000e+01 -2.775000e+01 -8.496546e+02
    endloop
  endfacet
  facet normal 6.280691e-02 9.792024e-01 1.929194e-01
    outer loop
      vertex 7.901300e+01 -2.775000e+01 -8.530739e+02
      vertex 8.693548e+01 -2.685708e+01 -8.601854e+02
      vertex 6.485000e+01 -2.695000e+01 -8.525236e+02
    endloop
  endfacet
  facet normal -1.709925e-01 2.697681e-01 -9.476216e-01
    outer loop
      vertex 1.048500e+02 5.115935e+01 -9.383649e+02
      vertex 6.482805e+01 1.151053e+01 -9.424303e+02
      vertex 6.485000e+01 5.116111e+01 -9.311466e+02
    endloop
  endfacet
  facet normal 1.191068e-01 -1.843811e-02 -9.927102e-01
    outer loop
      vertex 1.048500e+02 5.115935e+01 -9.383649e+02
      vertex 9.904553e+01 1.650000e+01 -9.384175e+02
      vertex 6.482805e+01 1.151053e+01 -9.424303e+02
    endloop
  endfacet
  facet normal -8.421247e-15 -3.099345e-14 1.000000e+00
    outer loop
      vertex 9.185000e+01 5.116111e+01 -9.176466e+02
      vertex 6.485000e+01 5.116111e+01 -9.176466e+02
      vertex 6.485000e+01 1.814827e+01 -9.176466e+02
    endloop
  endfacet
  facet normal -2.532677e-01 -6.907927e-01 6.772451e-01
    outer loop
      vertex 1.125120e+02 5.902964e+01 -8.917966e+02
      vertex 6.485000e+01 7.752284e+01 -8.907575e+02
      vertex 6.485000e+01 5.116111e+01 -9.176466e+02
    endloop
  endfacet
  facet normal -4.441091e-15 -9.566620e-01 2.912005e-01
    outer loop
      vertex 1.125120e+02 5.902964e+01 -8.917966e+02
      vertex 6.485000e+01 5.116111e+01 -9.176466e+02
      vertex 9.185000e+01 5.116111e+01 -9.176466e+02
    endloop
  endfacet
  facet normal 1.618072e-02 -1.323362e-02 9.997815e-01
    outer loop
      vertex 9.185000e+01 5.116111e+01 -9.176466e+02
      vertex 6.485000e+01 1.814827e+01 -9.176466e+02
      vertex 9.505278e+01 1.650000e+01 -9.181572e+02
    endloop
  endfacet
  facet normal 9.309805e-02 -3.051755e-01 -9.477345e-01
    outer loop
      vertex 9.904601e+01 8.417403e+01 -9.384178e+02
      vertex 6.485000e+01 5.116111e+01 -9.311466e+02
      vertex 6.485688e+01 8.625580e+01 -9.424466e+02
    endloop
  endfacet
  facet normal -1.774940e-01 -3.278038e-02 -9.835758e-01
    outer loop
      vertex 9.904601e+01 8.417403e+01 -9.384178e+02
      vertex 1.048500e+02 5.115935e+01 -9.383649e+02
      vertex 6.485000e+01 5.116111e+01 -9.311466e+02
    endloop
  endfacet
  facet normal 1.179315e-01 8.052093e-03 -9.929891e-01
    outer loop
      vertex 9.680251e+01 1.178504e+02 -9.383964e+02
      vertex 6.485688e+01 8.625580e+01 -9.424466e+02
      vertex 6.485000e+01 1.171868e+02 -9.421966e+02
    endloop
  endfacet
  facet normal 1.175332e-01 8.460451e-03 -9.930329e-01
    outer loop
      vertex 9.680251e+01 1.178504e+02 -9.383964e+02
      vertex 9.904601e+01 8.417403e+01 -9.384178e+02
      vertex 6.485688e+01 8.625580e+01 -9.424466e+02
    endloop
  endfacet
  facet normal 1.193083e-01 -9.928559e-01 -1.640440e-03
    outer loop
      vertex 9.528741e+01 8.112967e+01 -8.600535e+02
      vertex 6.514270e+01 7.750000e+01 -8.556485e+02
      vertex 6.485000e+01 7.752284e+01 -8.907575e+02
    endloop
  endfacet
  facet normal -3.207185e-01 -8.500537e-01 4.177899e-01
    outer loop
      vertex 9.528741e+01 8.112967e+01 -8.600535e+02
      vertex 6.485000e+01 7.752284e+01 -8.907575e+02
      vertex 1.125120e+02 5.902964e+01 -8.917966e+02
    endloop
  endfacet
  facet normal -5.093937e-02 -4.289448e-01 9.018933e-01
    outer loop
      vertex 6.484893e+01 8.838123e+01 -8.504899e+02
      vertex 4.135504e+01 8.313196e+01 -8.543134e+02
      vertex 6.514270e+01 7.750000e+01 -8.556485e+02
    endloop
  endfacet
  facet normal 6.776596e-02 -4.258993e-01 9.022292e-01
    outer loop
      vertex 8.777774e+01 8.785839e+01 -8.524589e+02
      vertex 6.484893e+01 8.838123e+01 -8.504899e+02
      vertex 6.514270e+01 7.750000e+01 -8.556485e+02
    endloop
  endfacet
  facet normal 1.763770e-01 -8.378538e-01 5.166160e-01
    outer loop
      vertex 8.762781e+01 8.315940e+01 -8.541466e+02
      vertex 6.514270e+01 7.750000e+01 -8.556485e+02
      vertex 9.528741e+01 8.112967e+01 -8.600535e+02
    endloop
  endfacet
  facet normal 2.238526e-02 -3.385720e-01 9.406742e-01
    outer loop
      vertex 8.762781e+01 8.315940e+01 -8.541466e+02
      vertex 8.777774e+01 8.785839e+01 -8.524589e+02
      vertex 6.514270e+01 7.750000e+01 -8.556485e+02
    endloop
  endfacet
  facet normal -7.244353e-02 -3.547412e-01 9.321538e-01
    outer loop
      vertex 6.484893e+01 8.838123e+01 -8.504899e+02
      vertex 4.183745e+01 8.786010e+01 -8.524766e+02
      vertex 4.135504e+01 8.313196e+01 -8.543134e+02
    endloop
  endfacet
  facet normal -8.881769e-02 2.945743e-01 9.514922e-01
    outer loop
      vertex 6.506994e+01 8.967672e+01 -8.508703e+02
      vertex 4.183745e+01 8.786010e+01 -8.524766e+02
      vertex 6.484893e+01 8.838123e+01 -8.504899e+02
    endloop
  endfacet
  facet normal -9.317777e-02 3.767511e-01 9.216162e-01
    outer loop
      vertex 6.506994e+01 8.967672e+01 -8.508703e+02
      vertex 4.337648e+01 9.053866e+01 -8.534160e+02
      vertex 4.183745e+01 8.786010e+01 -8.524766e+02
    endloop
  endfacet
  facet normal 1.044744e-01 2.637769e-01 9.589092e-01
    outer loop
      vertex 8.705200e+01 9.037118e+01 -8.534563e+02
      vertex 6.506994e+01 8.967672e+01 -8.508703e+02
      vertex 6.484893e+01 8.838123e+01 -8.504899e+02
    endloop
  endfacet
  facet normal 8.761771e-02 3.892908e-01 9.169383e-01
    outer loop
      vertex 8.705200e+01 9.037118e+01 -8.534563e+02
      vertex 6.484893e+01 8.838123e+01 -8.504899e+02
      vertex 8.777774e+01 8.785839e+01 -8.524589e+02
    endloop
  endfacet
  facet normal 3.739940e-15 1.131635e-01 -9.935764e-01
    outer loop
      vertex 9.505278e+01 1.501996e+02 -9.384366e+02
      vertex 6.485000e+01 1.171868e+02 -9.421966e+02
      vertex 6.485000e+01 1.501996e+02 -9.384366e+02
    endloop
  endfacet
  facet normal 1.179932e-01 5.148360e-03 -9.930011e-01
    outer loop
      vertex 9.505278e+01 1.501996e+02 -9.384366e+02
      vertex 9.680251e+01 1.178504e+02 -9.383964e+02
      vertex 6.485000e+01 1.171868e+02 -9.421966e+02
    endloop
  endfacet
  facet normal 6.789260e-02 6.546152e-01 7.529074e-01
    outer loop
      vertex 8.705200e+01 9.037118e+01 -8.534563e+02
      vertex 6.462201e+01 1.067928e+02 -8.657115e+02
      vertex 6.506994e+01 8.967672e+01 -8.508703e+02
    endloop
  endfacet
  facet normal 5.334506e-02 5.467113e-01 8.356202e-01
    outer loop
      vertex 8.974908e+01 1.309603e+02 -8.831274e+02
      vertex 6.468553e+01 1.333174e+02 -8.830695e+02
      vertex 6.462201e+01 1.067928e+02 -8.657115e+02
    endloop
  endfacet
  facet normal 5.821083e-02 6.469276e-01 7.603263e-01
    outer loop
      vertex 9.037351e+01 1.057577e+02 -8.668024e+02
      vertex 6.462201e+01 1.067928e+02 -8.657115e+02
      vertex 8.705200e+01 9.037118e+01 -8.534563e+02
    endloop
  endfacet
  facet normal 5.732383e-02 5.437677e-01 8.372758e-01
    outer loop
      vertex 8.974908e+01 1.309603e+02 -8.831274e+02
      vertex 6.462201e+01 1.067928e+02 -8.657115e+02
      vertex 9.037351e+01 1.057577e+02 -8.668024e+02
    endloop
  endfacet
  facet normal 5.627117e-02 1.890466e-01 -9.803545e-01
    outer loop
      vertex 9.156562e+01 1.692039e+02 -9.332385e+02
      vertex 6.485000e+01 1.501996e+02 -9.384366e+02
      vertex 6.486502e+01 1.718467e+02 -9.342614e+02
    endloop
  endfacet
  facet normal 3.629931e-15 2.638329e-01 -9.645684e-01
    outer loop
      vertex 9.156562e+01 1.692039e+02 -9.332385e+02
      vertex 9.505278e+01 1.501996e+02 -9.384366e+02
      vertex 6.485000e+01 1.501996e+02 -9.384366e+02
    endloop
  endfacet
  facet normal 4.383127e-02 4.440943e-01 8.949073e-01
    outer loop
      vertex 8.974908e+01 1.309603e+02 -8.831274e+02
      vertex 6.460611e+01 1.477169e+02 -8.902113e+02
      vertex 6.468553e+01 1.333174e+02 -8.830695e+02
    endloop
  endfacet
  facet normal 1.146707e-01 3.911067e-01 9.131737e-01
    outer loop
      vertex 9.040264e+01 1.680074e+02 -9.021410e+02
      vertex 6.528235e+01 1.710436e+02 -9.002869e+02
      vertex 6.460611e+01 1.477169e+02 -8.902113e+02
    endloop
  endfacet
  facet normal 6.150080e-02 4.655283e-01 8.828936e-01
    outer loop
      vertex 9.408788e+01 1.468976e+02 -8.918330e+02
      vertex 6.460611e+01 1.477169e+02 -8.902113e+02
      vertex 8.974908e+01 1.309603e+02 -8.831274e+02
    endloop
  endfacet
  facet normal 6.150967e-02 4.466055e-01 8.926142e-01
    outer loop
      vertex 9.040264e+01 1.680074e+02 -9.021410e+02
      vertex 6.460611e+01 1.477169e+02 -8.902113e+02
      vertex 9.408788e+01 1.468976e+02 -8.918330e+02
    endloop
  endfacet
  facet normal 1.197459e-01 9.005188e-01 -4.180034e-01
    outer loop
      vertex 9.293487e+01 1.757934e+02 -9.177176e+02
      vertex 6.486502e+01 1.718467e+02 -9.342614e+02
      vertex 6.485000e+01 1.797561e+02 -9.172262e+02
    endloop
  endfacet
  facet normal 1.398203e-01 8.819809e-01 4.500666e-01
    outer loop
      vertex 9.040264e+01 1.680074e+02 -9.021410e+02
      vertex 6.485000e+01 1.797561e+02 -9.172262e+02
      vertex 6.528235e+01 1.710436e+02 -9.002869e+02
    endloop
  endfacet
  facet normal 1.319254e-01 8.779190e-01 4.602760e-01
    outer loop
      vertex 9.040264e+01 1.680074e+02 -9.021410e+02
      vertex 9.293487e+01 1.757934e+02 -9.177176e+02
      vertex 6.485000e+01 1.797561e+02 -9.172262e+02
    endloop
  endfacet
  facet normal 1.054549e-01 9.119637e-01 -3.964863e-01
    outer loop
      vertex 9.156562e+01 1.692039e+02 -9.332385e+02
      vertex 6.486502e+01 1.718467e+02 -9.342614e+02
      vertex 9.293487e+01 1.757934e+02 -9.177176e+02
    endloop
  endfacet
  facet normal 4.249372e-01 -8.268584e-01 -3.684203e-01
    outer loop
      vertex 1.084810e+02 -6.443959e+01 -9.184366e+02
      vertex 9.269267e+01 -7.285999e+01 -9.177487e+02
      vertex 9.117836e+01 -6.694680e+01 -9.327665e+02
    endloop
  endfacet
  facet normal 7.981687e-01 -5.944949e-01 -9.748093e-02
    outer loop
      vertex 1.050240e+02 -6.048115e+01 -8.922741e+02
      vertex 9.312734e+01 -7.780000e+01 -8.840627e+02
      vertex 9.269267e+01 -7.285999e+01 -9.177487e+02
    endloop
  endfacet
  facet normal 4.683091e-01 -8.623713e-01 1.923598e-01
    outer loop
      vertex 1.050240e+02 -6.048115e+01 -8.922741e+02
      vertex 9.269267e+01 -7.285999e+01 -9.177487e+02
      vertex 1.084810e+02 -6.443959e+01 -9.184366e+02
    endloop
  endfacet
  facet normal 3.419631e-01 -3.311677e-01 -8.794255e-01
    outer loop
      vertex 1.109039e+02 -4.611844e+01 -9.329397e+02
      vertex 9.117836e+01 -6.694680e+01 -9.327665e+02
      vertex 9.496955e+01 -4.797496e+01 -9.384366e+02
    endloop
  endfacet
  facet normal 2.141369e-01 -2.107282e-01 -9.538024e-01
    outer loop
      vertex 1.109039e+02 -4.611844e+01 -9.329397e+02
      vertex 1.055500e+02 -6.288716e+01 -9.304369e+02
      vertex 9.117836e+01 -6.694680e+01 -9.327665e+02
    endloop
  endfacet
  facet normal 2.955972e-01 -9.355667e-01 -1.932287e-01
    outer loop
      vertex 1.084810e+02 -6.443959e+01 -9.184366e+02
      vertex 9.117836e+01 -6.694680e+01 -9.327665e+02
      vertex 1.055500e+02 -6.288716e+01 -9.304369e+02
    endloop
  endfacet
  facet normal 3.219260e-01 -3.038460e-02 -9.462771e-01
    outer loop
      vertex 1.135272e+02 -1.386388e+01 -9.332185e+02
      vertex 9.496955e+01 -4.797496e+01 -9.384366e+02
      vertex 8.714413e+01 -1.378676e+01 -9.421966e+02
    endloop
  endfacet
  facet normal 3.295522e-01 -3.495986e-02 -9.434899e-01
    outer loop
      vertex 1.135272e+02 -1.386388e+01 -9.332185e+02
      vertex 1.109039e+02 -4.611844e+01 -9.329397e+02
      vertex 9.496955e+01 -4.797496e+01 -9.384366e+02
    endloop
  endfacet
  facet normal 2.557107e-01 -9.508262e-01 1.747613e-01
    outer loop
      vertex 9.283757e+01 -7.480000e+01 -8.673165e+02
      vertex 8.745037e+01 -7.480000e+01 -8.594340e+02
      vertex 9.312734e+01 -7.780000e+01 -8.840627e+02
    endloop
  endfacet
  facet normal 8.427245e-01 -5.271894e-01 1.090260e-01
    outer loop
      vertex 9.283757e+01 -7.480000e+01 -8.673165e+02
      vertex 9.312734e+01 -7.780000e+01 -8.840627e+02
      vertex 1.050240e+02 -6.048115e+01 -8.922741e+02
    endloop
  endfacet
  facet normal 6.011149e-01 1.420664e-03 7.991613e-01
    outer loop
      vertex 8.761147e+01 -4.787910e+01 -8.596030e+02
      vertex 7.875300e+01 -4.787322e+01 -8.529398e+02
      vertex 8.745037e+01 -7.480000e+01 -8.594340e+02
    endloop
  endfacet
  facet normal 5.946676e-01 -1.821499e-03 8.039696e-01
    outer loop
      vertex 7.852178e+01 -7.480000e+01 -8.528298e+02
      vertex 8.745037e+01 -7.480000e+01 -8.594340e+02
      vertex 7.875300e+01 -4.787322e+01 -8.529398e+02
    endloop
  endfacet
  facet normal 2.619534e-01 4.492015e-03 9.650701e-01
    outer loop
      vertex 1.085945e+02 -4.121616e+01 -8.653295e+02
      vertex 8.761147e+01 -4.787910e+01 -8.596030e+02
      vertex 8.745037e+01 -7.480000e+01 -8.594340e+02
    endloop
  endfacet
  facet normal 7.609920e-01 -3.878148e-01 5.200874e-01
    outer loop
      vertex 9.283757e+01 -7.480000e+01 -8.673165e+02
      vertex 1.085945e+02 -4.121616e+01 -8.653295e+02
      vertex 8.745037e+01 -7.480000e+01 -8.594340e+02
    endloop
  endfacet
  facet normal 6.011121e-01 -2.442164e-03 7.991610e-01
    outer loop
      vertex 7.901300e+01 -2.775000e+01 -8.530739e+02
      vertex 7.875300e+01 -4.787322e+01 -8.529398e+02
      vertex 8.761147e+01 -4.787910e+01 -8.596030e+02
    endloop
  endfacet
  facet normal 6.647719e-01 4.203911e-02 7.458626e-01
    outer loop
      vertex 7.901300e+01 -2.775000e+01 -8.530739e+02
      vertex 8.761147e+01 -4.787910e+01 -8.596030e+02
      vertex 8.693548e+01 -2.685708e+01 -8.601854e+02
    endloop
  endfacet
  facet normal 3.292457e-01 3.672563e-02 9.435298e-01
    outer loop
      vertex 1.094823e+02 -2.712202e+01 -8.680428e+02
      vertex 8.693548e+01 -2.685708e+01 -8.601854e+02
      vertex 8.761147e+01 -4.787910e+01 -8.596030e+02
    endloop
  endfacet
  facet normal 2.080728e-01 1.722463e-01 9.628276e-01
    outer loop
      vertex 1.094823e+02 -2.712202e+01 -8.680428e+02
      vertex 8.761147e+01 -4.787910e+01 -8.596030e+02
      vertex 1.085945e+02 -4.121616e+01 -8.653295e+02
    endloop
  endfacet
  facet normal 2.579311e-01 1.917431e-02 -9.659730e-01
    outer loop
      vertex 1.139888e+02 1.854070e+01 -9.343869e+02
      vertex 8.714413e+01 -1.378676e+01 -9.421966e+02
      vertex 9.904553e+01 1.650000e+01 -9.384175e+02
    endloop
  endfacet
  facet normal 3.218117e-01 -3.869417e-02 -9.460127e-01
    outer loop
      vertex 1.139888e+02 1.854070e+01 -9.343869e+02
      vertex 1.135272e+02 -1.386388e+01 -9.332185e+02
      vertex 8.714413e+01 -1.378676e+01 -9.421966e+02
    endloop
  endfacet
  facet normal -8.703690e-01 4.678164e-01 1.536412e-01
    outer loop
      vertex 1.133586e+02 1.336748e+01 -9.004184e+02
      vertex 9.505278e+01 -1.486456e+01 -9.181572e+02
      vertex 9.457911e+01 -2.675000e+01 -8.846510e+02
    endloop
  endfacet
  facet normal -5.946975e-01 7.829916e-01 -1.823708e-01
    outer loop
      vertex 8.722185e+01 -2.675000e+01 -8.606595e+02
      vertex 9.457911e+01 -2.675000e+01 -8.846510e+02
      vertex 8.693548e+01 -2.685708e+01 -8.601854e+02
    endloop
  endfacet
  facet normal -9.072720e-01 3.153540e-01 -2.782253e-01
    outer loop
      vertex 8.722185e+01 -2.675000e+01 -8.606595e+02
      vertex 1.133586e+02 1.336748e+01 -9.004184e+02
      vertex 9.457911e+01 -2.675000e+01 -8.846510e+02
    endloop
  endfacet
  facet normal -6.958976e-01 -2.047641e-14 7.181410e-01
    outer loop
      vertex 1.133586e+02 1.336748e+01 -9.004184e+02
      vertex 9.505278e+01 1.650000e+01 -9.181572e+02
      vertex 9.505278e+01 -1.486456e+01 -9.181572e+02
    endloop
  endfacet
  facet normal 2.390887e-01 7.102398e-01 6.621148e-01
    outer loop
      vertex 1.137277e+02 -7.771350e+00 -8.903330e+02
      vertex 8.693548e+01 -2.685708e+01 -8.601854e+02
      vertex 1.094823e+02 -2.712202e+01 -8.680428e+02
    endloop
  endfacet
  facet normal -7.697411e-01 5.381234e-01 -3.433975e-01
    outer loop
      vertex 1.137277e+02 -7.771350e+00 -8.903330e+02
      vertex 8.722185e+01 -2.675000e+01 -8.606595e+02
      vertex 8.693548e+01 -2.685708e+01 -8.601854e+02
    endloop
  endfacet
  facet normal 3.273717e-01 -5.339160e-02 -9.433860e-01
    outer loop
      vertex 1.141227e+02 5.145124e+01 -9.351636e+02
      vertex 9.904553e+01 1.650000e+01 -9.384175e+02
      vertex 1.048500e+02 5.115935e+01 -9.383649e+02
    endloop
  endfacet
  facet normal 2.633791e-01 -2.383043e-02 -9.643980e-01
    outer loop
      vertex 1.141227e+02 5.145124e+01 -9.351636e+02
      vertex 1.139888e+02 1.854070e+01 -9.343869e+02
      vertex 9.904553e+01 1.650000e+01 -9.384175e+02
    endloop
  endfacet
  facet normal -7.665648e-01 -8.021884e-02 6.371368e-01
    outer loop
      vertex 1.125120e+02 5.902964e+01 -8.917966e+02
      vertex 9.185000e+01 5.116111e+01 -9.176466e+02
      vertex 9.505278e+01 1.650000e+01 -9.181572e+02
    endloop
  endfacet
  facet normal -7.012309e-01 -1.448088e-01 6.980728e-01
    outer loop
      vertex 1.133586e+02 1.336748e+01 -9.004184e+02
      vertex 1.125120e+02 5.902964e+01 -8.917966e+02
      vertex 9.505278e+01 1.650000e+01 -9.181572e+02
    endloop
  endfacet
  facet normal 2.604195e-01 4.423553e-02 -9.644817e-01
    outer loop
      vertex 1.139977e+02 8.378321e+01 -9.343986e+02
      vertex 1.048500e+02 5.115935e+01 -9.383649e+02
      vertex 9.904601e+01 8.417403e+01 -9.384178e+02
    endloop
  endfacet
  facet normal 3.255802e-01 2.362260e-02 -9.452193e-01
    outer loop
      vertex 1.139977e+02 8.378321e+01 -9.343986e+02
      vertex 1.141227e+02 5.145124e+01 -9.351636e+02
      vertex 1.048500e+02 5.115935e+01 -9.383649e+02
    endloop
  endfacet
  facet normal 2.906819e-01 1.997242e-02 -9.566113e-01
    outer loop
      vertex 1.132893e+02 1.161200e+02 -9.334228e+02
      vertex 9.904601e+01 8.417403e+01 -9.384178e+02
      vertex 9.680251e+01 1.178504e+02 -9.383964e+02
    endloop
  endfacet
  facet normal 2.602867e-01 3.482081e-02 -9.649033e-01
    outer loop
      vertex 1.132893e+02 1.161200e+02 -9.334228e+02
      vertex 1.139977e+02 8.378321e+01 -9.343986e+02
      vertex 9.904601e+01 8.417403e+01 -9.384178e+02
    endloop
  endfacet
  facet normal 3.709991e-01 -6.555604e-01 6.577236e-01
    outer loop
      vertex 1.103127e+02 7.545920e+01 -8.741805e+02
      vertex 9.528741e+01 8.112967e+01 -8.600535e+02
      vertex 1.125120e+02 5.902964e+01 -8.917966e+02
    endloop
  endfacet
  facet normal 3.805560e-01 -1.647604e-01 9.099622e-01
    outer loop
      vertex 1.176556e+02 5.581357e+01 -8.945300e+02
      vertex 1.125120e+02 5.902964e+01 -8.917966e+02
      vertex 1.133586e+02 1.336748e+01 -9.004184e+02
    endloop
  endfacet
  facet normal -1.018853e-01 -7.338135e-01 6.716674e-01
    outer loop
      vertex 1.103127e+02 7.545920e+01 -8.741805e+02
      vertex 1.125120e+02 5.902964e+01 -8.917966e+02
      vertex 1.176556e+02 5.581357e+01 -8.945300e+02
    endloop
  endfacet
  facet normal -9.677639e-02 -7.905409e-01 6.047143e-01
    outer loop
      vertex 9.417063e+01 8.503081e+01 -8.551323e+02
      vertex 8.777774e+01 8.785839e+01 -8.524589e+02
      vertex 9.528741e+01 8.112967e+01 -8.600535e+02
    endloop
  endfacet
  facet normal 5.309121e-01 -3.014045e-01 7.920150e-01
    outer loop
      vertex 8.762781e+01 8.315940e+01 -8.541466e+02
      vertex 9.528741e+01 8.112967e+01 -8.600535e+02
      vertex 8.777774e+01 8.785839e+01 -8.524589e+02
    endloop
  endfacet
  facet normal 4.123893e-01 -6.660315e-01 6.215602e-01
    outer loop
      vertex 1.085376e+02 8.434441e+01 -8.653999e+02
      vertex 9.417063e+01 8.503081e+01 -8.551323e+02
      vertex 9.528741e+01 8.112967e+01 -8.600535e+02
    endloop
  endfacet
  facet normal 4.207958e-01 -5.937302e-01 6.858683e-01
    outer loop
      vertex 1.103127e+02 7.545920e+01 -8.741805e+02
      vertex 1.085376e+02 8.434441e+01 -8.653999e+02
      vertex 9.528741e+01 8.112967e+01 -8.600535e+02
    endloop
  endfacet
  facet normal 5.051786e-01 4.404980e-01 7.421295e-01
    outer loop
      vertex 8.705200e+01 9.037118e+01 -8.534563e+02
      vertex 8.777774e+01 8.785839e+01 -8.524589e+02
      vertex 9.417063e+01 8.503081e+01 -8.551323e+02
    endloop
  endfacet
  facet normal 5.293667e-01 4.878030e-01 6.941319e-01
    outer loop
      vertex 9.037351e+01 1.057577e+02 -8.668024e+02
      vertex 8.705200e+01 9.037118e+01 -8.534563e+02
      vertex 9.417063e+01 8.503081e+01 -8.551323e+02
    endloop
  endfacet
  facet normal 4.008782e-01 5.041359e-01 7.649468e-01
    outer loop
      vertex 1.038901e+02 1.047862e+02 -8.732456e+02
      vertex 9.037351e+01 1.057577e+02 -8.668024e+02
      vertex 9.417063e+01 8.503081e+01 -8.551323e+02
    endloop
  endfacet
  facet normal 5.442195e-01 4.055915e-01 7.343845e-01
    outer loop
      vertex 1.038901e+02 1.047862e+02 -8.732456e+02
      vertex 9.417063e+01 8.503081e+01 -8.551323e+02
      vertex 1.085376e+02 8.434441e+01 -8.653999e+02
    endloop
  endfacet
  facet normal 3.172270e-01 1.598033e-02 -9.482150e-01
    outer loop
      vertex 1.105774e+02 1.488429e+02 -9.332657e+02
      vertex 9.680251e+01 1.178504e+02 -9.383964e+02
      vertex 9.505278e+01 1.501996e+02 -9.384366e+02
    endloop
  endfacet
  facet normal 2.914635e-01 2.874479e-02 -9.561500e-01
    outer loop
      vertex 1.105774e+02 1.488429e+02 -9.332657e+02
      vertex 1.132893e+02 1.161200e+02 -9.334228e+02
      vertex 9.680251e+01 1.178504e+02 -9.383964e+02
    endloop
  endfacet
  facet normal 2.303433e-01 5.330560e-01 8.141212e-01
    outer loop
      vertex 1.040357e+02 1.340273e+02 -8.891777e+02
      vertex 8.974908e+01 1.309603e+02 -8.831274e+02
      vertex 9.037351e+01 1.057577e+02 -8.668024e+02
    endloop
  endfacet
  facet normal 4.128663e-01 4.341783e-01 8.006439e-01
    outer loop
      vertex 1.040357e+02 1.340273e+02 -8.891777e+02
      vertex 9.037351e+01 1.057577e+02 -8.668024e+02
      vertex 1.038901e+02 1.047862e+02 -8.732456e+02
    endloop
  endfacet
  facet normal 3.378386e-01 3.054951e-01 -8.902459e-01
    outer loop
      vertex 1.061185e+02 1.653859e+02 -9.290260e+02
      vertex 9.505278e+01 1.501996e+02 -9.384366e+02
      vertex 9.156562e+01 1.692039e+02 -9.332385e+02
    endloop
  endfacet
  facet normal 3.245615e-01 3.159654e-01 -8.915300e-01
    outer loop
      vertex 1.061185e+02 1.653859e+02 -9.290260e+02
      vertex 1.105774e+02 1.488429e+02 -9.332657e+02
      vertex 9.505278e+01 1.501996e+02 -9.384366e+02
    endloop
  endfacet
  facet normal 2.835948e-01 3.990890e-01 8.719530e-01
    outer loop
      vertex 1.040357e+02 1.340273e+02 -8.891777e+02
      vertex 9.408788e+01 1.468976e+02 -8.918330e+02
      vertex 8.974908e+01 1.309603e+02 -8.831274e+02
    endloop
  endfacet
  facet normal 3.155915e-01 4.602819e-01 8.297846e-01
    outer loop
      vertex 1.060937e+02 1.624868e+02 -9.050465e+02
      vertex 9.040264e+01 1.680074e+02 -9.021410e+02
      vertex 9.408788e+01 1.468976e+02 -8.918330e+02
    endloop
  endfacet
  facet normal 3.796818e-01 4.591585e-01 8.031284e-01
    outer loop
      vertex 1.040357e+02 1.340273e+02 -8.891777e+02
      vertex 1.112303e+02 1.451956e+02 -8.989641e+02
      vertex 9.408788e+01 1.468976e+02 -8.918330e+02
    endloop
  endfacet
  facet normal 3.850812e-01 4.059390e-01 8.288100e-01
    outer loop
      vertex 1.060937e+02 1.624868e+02 -9.050465e+02
      vertex 9.408788e+01 1.468976e+02 -8.918330e+02
      vertex 1.112303e+02 1.451956e+02 -8.989641e+02
    endloop
  endfacet
  facet normal 4.318913e-01 8.158678e-01 -3.844862e-01
    outer loop
      vertex 1.089198e+02 1.669927e+02 -9.184366e+02
      vertex 9.156562e+01 1.692039e+02 -9.332385e+02
      vertex 9.293487e+01 1.757934e+02 -9.177176e+02
    endloop
  endfacet
  facet normal 3.692379e-01 8.058773e-01 4.628447e-01
    outer loop
      vertex 1.060937e+02 1.624868e+02 -9.050465e+02
      vertex 9.293487e+01 1.757934e+02 -9.177176e+02
      vertex 9.040264e+01 1.680074e+02 -9.021410e+02
    endloop
  endfacet
  facet normal 4.609583e-01 8.071150e-01 3.688941e-01
    outer loop
      vertex 1.060937e+02 1.624868e+02 -9.050465e+02
      vertex 1.089198e+02 1.669927e+02 -9.184366e+02
      vertex 9.293487e+01 1.757934e+02 -9.177176e+02
    endloop
  endfacet
  facet normal 3.069822e-01 9.255437e-01 -2.216549e-01
    outer loop
      vertex 1.061185e+02 1.653859e+02 -9.290260e+02
      vertex 9.156562e+01 1.692039e+02 -9.332385e+02
      vertex 1.089198e+02 1.669927e+02 -9.184366e+02
    endloop
  endfacet
  facet normal 8.690736e-01 -3.321856e-01 -3.665567e-01
    outer loop
      vertex 1.109039e+02 -4.611844e+01 -9.329397e+02
      vertex 1.170157e+02 -4.687583e+01 -9.177626e+02
      vertex 1.055500e+02 -6.288716e+01 -9.304369e+02
    endloop
  endfacet
  facet normal 8.709650e-01 -4.130121e-01 -2.661598e-01
    outer loop
      vertex 1.084810e+02 -6.443959e+01 -9.184366e+02
      vertex 1.055500e+02 -6.288716e+01 -9.304369e+02
      vertex 1.170157e+02 -4.687583e+01 -9.177626e+02
    endloop
  endfacet
  facet normal 9.223714e-01 -8.909813e-02 -3.758890e-01
    outer loop
      vertex 1.203038e+02 -1.445663e+01 -9.173787e+02
      vertex 1.170157e+02 -4.687583e+01 -9.177626e+02
      vertex 1.109039e+02 -4.611844e+01 -9.329397e+02
    endloop
  endfacet
  facet normal 8.865541e-01 -4.366635e-01 1.527965e-01
    outer loop
      vertex 1.129593e+02 -4.440411e+01 -8.871629e+02
      vertex 1.084810e+02 -6.443959e+01 -9.184366e+02
      vertex 1.170157e+02 -4.687583e+01 -9.177626e+02
    endloop
  endfacet
  facet normal 9.806201e-01 -1.360439e-01 1.409834e-01
    outer loop
      vertex 1.169830e+02 -1.651059e+01 -8.882337e+02
      vertex 1.129593e+02 -4.440411e+01 -8.871629e+02
      vertex 1.170157e+02 -4.687583e+01 -9.177626e+02
    endloop
  endfacet
  facet normal 9.892120e-01 -1.015794e-01 1.055523e-01
    outer loop
      vertex 1.169830e+02 -1.651059e+01 -8.882337e+02
      vertex 1.170157e+02 -4.687583e+01 -9.177626e+02
      vertex 1.203038e+02 -1.445663e+01 -9.173787e+02
    endloop
  endfacet
  facet normal 9.155462e-01 -7.787494e-02 -3.946018e-01
    outer loop
      vertex 1.135272e+02 -1.386388e+01 -9.332185e+02
      vertex 1.203038e+02 -1.445663e+01 -9.173787e+02
      vertex 1.109039e+02 -4.611844e+01 -9.329397e+02
    endloop
  endfacet
  facet normal 8.563009e-01 -4.818038e-01 1.860478e-01
    outer loop
      vertex 1.050240e+02 -6.048115e+01 -8.922741e+02
      vertex 1.084810e+02 -6.443959e+01 -9.184366e+02
      vertex 1.129593e+02 -4.440411e+01 -8.871629e+02
    endloop
  endfacet
  facet normal 8.383805e-01 -4.898333e-01 2.391265e-01
    outer loop
      vertex 1.085945e+02 -4.121616e+01 -8.653295e+02
      vertex 1.050240e+02 -6.048115e+01 -8.922741e+02
      vertex 1.129593e+02 -4.440411e+01 -8.871629e+02
    endloop
  endfacet
  facet normal 9.796687e-01 -2.334721e-02 1.992590e-01
    outer loop
      vertex 1.094823e+02 -2.712202e+01 -8.680428e+02
      vertex 1.085945e+02 -4.121616e+01 -8.653295e+02
      vertex 1.129593e+02 -4.440411e+01 -8.871629e+02
    endloop
  endfacet
  facet normal 9.497296e-01 -1.259980e-01 2.865975e-01
    outer loop
      vertex 1.094823e+02 -2.712202e+01 -8.680428e+02
      vertex 1.129593e+02 -4.440411e+01 -8.871629e+02
      vertex 1.169830e+02 -1.651059e+01 -8.882337e+02
    endloop
  endfacet
  facet normal 8.849353e-01 -4.262908e-01 1.875252e-01
    outer loop
      vertex 9.283757e+01 -7.480000e+01 -8.673165e+02
      vertex 1.050240e+02 -6.048115e+01 -8.922741e+02
      vertex 1.085945e+02 -4.121616e+01 -8.653295e+02
    endloop
  endfacet
  facet normal 9.172688e-01 -5.483081e-02 -3.944764e-01
    outer loop
      vertex 1.223374e+02 1.826921e+01 -9.171988e+02
      vertex 1.203038e+02 -1.445663e+01 -9.173787e+02
      vertex 1.135272e+02 -1.386388e+01 -9.332185e+02
    endloop
  endfacet
  facet normal 9.922523e-01 4.406417e-02 1.161628e-01
    outer loop
      vertex 1.170849e+02 1.454436e+01 -9.008838e+02
      vertex 1.169830e+02 -1.651059e+01 -8.882337e+02
      vertex 1.203038e+02 -1.445663e+01 -9.173787e+02
    endloop
  endfacet
  facet normal 9.540908e-01 -6.089969e-02 2.932610e-01
    outer loop
      vertex 1.170849e+02 1.454436e+01 -9.008838e+02
      vertex 1.203038e+02 -1.445663e+01 -9.173787e+02
      vertex 1.223374e+02 1.826921e+01 -9.171988e+02
    endloop
  endfacet
  facet normal 8.989630e-01 -2.856591e-02 -4.370922e-01
    outer loop
      vertex 1.139888e+02 1.854070e+01 -9.343869e+02
      vertex 1.223374e+02 1.826921e+01 -9.171988e+02
      vertex 1.135272e+02 -1.386388e+01 -9.332185e+02
    endloop
  endfacet
  facet normal 7.667998e-01 4.052089e-01 4.978191e-01
    outer loop
      vertex 1.137277e+02 -7.771350e+00 -8.903330e+02
      vertex 1.094823e+02 -2.712202e+01 -8.680428e+02
      vertex 1.169830e+02 -1.651059e+01 -8.882337e+02
    endloop
  endfacet
  facet normal 3.810310e-01 3.477171e-01 8.566844e-01
    outer loop
      vertex 1.137277e+02 -7.771350e+00 -8.903330e+02
      vertex 1.169830e+02 -1.651059e+01 -8.882337e+02
      vertex 1.170849e+02 1.454436e+01 -9.008838e+02
    endloop
  endfacet
  facet normal 8.992717e-01 -1.700979e-02 -4.370596e-01
    outer loop
      vertex 1.229969e+02 5.116111e+01 -9.171218e+02
      vertex 1.223374e+02 1.826921e+01 -9.171988e+02
      vertex 1.139888e+02 1.854070e+01 -9.343869e+02
    endloop
  endfacet
  facet normal 9.540735e-01 -5.843025e-02 2.938192e-01
    outer loop
      vertex 1.176556e+02 5.581357e+01 -8.945300e+02
      vertex 1.170849e+02 1.454436e+01 -9.008838e+02
      vertex 1.223374e+02 1.826921e+01 -9.171988e+02
    endloop
  endfacet
  facet normal 9.720429e-01 -2.003935e-02 2.339468e-01
    outer loop
      vertex 1.176556e+02 5.581357e+01 -8.945300e+02
      vertex 1.223374e+02 1.826921e+01 -9.171988e+02
      vertex 1.229969e+02 5.116111e+01 -9.171218e+02
    endloop
  endfacet
  facet normal 8.971474e-01 -1.406916e-02 -4.415072e-01
    outer loop
      vertex 1.141227e+02 5.145124e+01 -9.351636e+02
      vertex 1.229969e+02 5.116111e+01 -9.171218e+02
      vertex 1.139888e+02 1.854070e+01 -9.343869e+02
    endloop
  endfacet
  facet normal -2.314946e-02 4.301617e-01 9.024550e-01
    outer loop
      vertex 1.137277e+02 -7.771350e+00 -8.903330e+02
      vertex 1.170849e+02 1.454436e+01 -9.008838e+02
      vertex 1.133586e+02 1.336748e+01 -9.004184e+02
    endloop
  endfacet
  facet normal 1.696909e-01 -1.522510e-01 9.736656e-01
    outer loop
      vertex 1.176556e+02 5.581357e+01 -8.945300e+02
      vertex 1.133586e+02 1.336748e+01 -9.004184e+02
      vertex 1.170849e+02 1.454436e+01 -9.008838e+02
    endloop
  endfacet
  facet normal 5.677972e-01 3.625167e-01 7.390453e-01
    outer loop
      vertex 1.137277e+02 -7.771350e+00 -8.903330e+02
      vertex 1.133586e+02 1.336748e+01 -9.004184e+02
      vertex 8.722185e+01 -2.675000e+01 -8.606595e+02
    endloop
  endfacet
  facet normal 8.973113e-01 1.619195e-02 -4.411012e-01
    outer loop
      vertex 1.223659e+02 8.404347e+01 -9.171986e+02
      vertex 1.229969e+02 5.116111e+01 -9.171218e+02
      vertex 1.141227e+02 5.145124e+01 -9.351636e+02
    endloop
  endfacet
  facet normal 9.710081e-01 -3.411243e-02 2.366003e-01
    outer loop
      vertex 1.168254e+02 8.314218e+01 -8.871827e+02
      vertex 1.176556e+02 5.581357e+01 -8.945300e+02
      vertex 1.229969e+02 5.116111e+01 -9.171218e+02
    endloop
  endfacet
  facet normal 9.831009e-01 1.929297e-02 1.820452e-01
    outer loop
      vertex 1.168254e+02 8.314218e+01 -8.871827e+02
      vertex 1.229969e+02 5.116111e+01 -9.171218e+02
      vertex 1.223659e+02 8.404347e+01 -9.171986e+02
    endloop
  endfacet
  facet normal 8.990559e-01 1.382933e-02 -4.376154e-01
    outer loop
      vertex 1.139977e+02 8.378321e+01 -9.343986e+02
      vertex 1.223659e+02 8.404347e+01 -9.171986e+02
      vertex 1.141227e+02 5.145124e+01 -9.351636e+02
    endloop
  endfacet
  facet normal 9.312218e-01 -6.797506e-02 3.580577e-01
    outer loop
      vertex 1.085376e+02 8.434441e+01 -8.653999e+02
      vertex 1.176556e+02 5.581357e+01 -8.945300e+02
      vertex 1.168254e+02 8.314218e+01 -8.871827e+02
    endloop
  endfacet
  facet normal 1.960796e-01 -6.691680e-01 7.167754e-01
    outer loop
      vertex 1.103127e+02 7.545920e+01 -8.741805e+02
      vertex 1.176556e+02 5.581357e+01 -8.945300e+02
      vertex 1.085376e+02 8.434441e+01 -8.653999e+02
    endloop
  endfacet
  facet normal 8.976722e-01 5.248356e-02 -4.375272e-01
    outer loop
      vertex 1.203564e+02 1.167832e+02 -9.173940e+02
      vertex 1.223659e+02 8.404347e+01 -9.171986e+02
      vertex 1.139977e+02 8.378321e+01 -9.343986e+02
    endloop
  endfacet
  facet normal 9.756722e-01 1.196760e-01 1.836882e-01
    outer loop
      vertex 1.138333e+02 1.143229e+02 -8.916049e+02
      vertex 1.168254e+02 8.314218e+01 -8.871827e+02
      vertex 1.223659e+02 8.404347e+01 -9.171986e+02
    endloop
  endfacet
  facet normal 9.662803e-01 6.080069e-02 2.502114e-01
    outer loop
      vertex 1.138333e+02 1.143229e+02 -8.916049e+02
      vertex 1.223659e+02 8.404347e+01 -9.171986e+02
      vertex 1.203564e+02 1.167832e+02 -9.173940e+02
    endloop
  endfacet
  facet normal 9.140413e-01 3.222786e-02 -4.043389e-01
    outer loop
      vertex 1.132893e+02 1.161200e+02 -9.334228e+02
      vertex 1.203564e+02 1.167832e+02 -9.173940e+02
      vertex 1.139977e+02 8.378321e+01 -9.343986e+02
    endloop
  endfacet
  facet normal 8.896354e-01 3.252829e-01 3.205307e-01
    outer loop
      vertex 1.038901e+02 1.047862e+02 -8.732456e+02
      vertex 1.085376e+02 8.434441e+01 -8.653999e+02
      vertex 1.168254e+02 8.314218e+01 -8.871827e+02
    endloop
  endfacet
  facet normal 8.326300e-01 1.552938e-01 5.316118e-01
    outer loop
      vertex 1.038901e+02 1.047862e+02 -8.732456e+02
      vertex 1.168254e+02 8.314218e+01 -8.871827e+02
      vertex 1.138333e+02 1.143229e+02 -8.916049e+02
    endloop
  endfacet
  facet normal 9.101913e-01 8.715655e-02 -4.049142e-01
    outer loop
      vertex 1.170948e+02 1.492131e+02 -9.177453e+02
      vertex 1.203564e+02 1.167832e+02 -9.173940e+02
      vertex 1.132893e+02 1.161200e+02 -9.334228e+02
    endloop
  endfacet
  facet normal 9.564168e-01 1.415232e-01 2.554174e-01
    outer loop
      vertex 1.112303e+02 1.451956e+02 -8.989641e+02
      vertex 1.138333e+02 1.143229e+02 -8.916049e+02
      vertex 1.203564e+02 1.167832e+02 -9.173940e+02
    endloop
  endfacet
  facet normal 9.437434e-01 9.833779e-02 3.157183e-01
    outer loop
      vertex 1.112303e+02 1.451956e+02 -8.989641e+02
      vertex 1.203564e+02 1.167832e+02 -9.173940e+02
      vertex 1.170948e+02 1.492131e+02 -9.177453e+02
    endloop
  endfacet
  facet normal 9.185350e-01 7.798161e-02 -3.875723e-01
    outer loop
      vertex 1.105774e+02 1.488429e+02 -9.332657e+02
      vertex 1.170948e+02 1.492131e+02 -9.177453e+02
      vertex 1.132893e+02 1.161200e+02 -9.334228e+02
    endloop
  endfacet
  facet normal 7.605310e-01 3.077307e-01 5.717469e-01
    outer loop
      vertex 1.040357e+02 1.340273e+02 -8.891777e+02
      vertex 1.038901e+02 1.047862e+02 -8.732456e+02
      vertex 1.138333e+02 1.143229e+02 -8.916049e+02
    endloop
  endfacet
  facet normal 6.413094e-01 2.286592e-01 7.324187e-01
    outer loop
      vertex 1.040357e+02 1.340273e+02 -8.891777e+02
      vertex 1.138333e+02 1.143229e+02 -8.916049e+02
      vertex 1.112303e+02 1.451956e+02 -8.989641e+02
    endloop
  endfacet
  facet normal 8.507575e-01 3.769334e-01 -3.662415e-01
    outer loop
      vertex 1.089198e+02 1.669927e+02 -9.184366e+02
      vertex 1.170948e+02 1.492131e+02 -9.177453e+02
      vertex 1.105774e+02 1.488429e+02 -9.332657e+02
    endloop
  endfacet
  facet normal 8.578876e-01 3.774812e-01 3.486214e-01
    outer loop
      vertex 1.060937e+02 1.624868e+02 -9.050465e+02
      vertex 1.112303e+02 1.451956e+02 -8.989641e+02
      vertex 1.170948e+02 1.492131e+02 -9.177453e+02
    endloop
  endfacet
  facet normal 8.567883e-01 4.062916e-01 3.175546e-01
    outer loop
      vertex 1.060937e+02 1.624868e+02 -9.050465e+02
      vertex 1.170948e+02 1.492131e+02 -9.177453e+02
      vertex 1.089198e+02 1.669927e+02 -9.184366e+02
    endloop
  endfacet
  facet normal 9.038086e-01 3.172221e-01 -2.872285e-01
    outer loop
      vertex 1.061185e+02 1.653859e+02 -9.290260e+02
      vertex 1.089198e+02 1.669927e+02 -9.184366e+02
      vertex 1.105774e+02 1.488429e+02 -9.332657e+02
    endloop
  endfacet
endsolid SIM_ICUB3_R_ANKLE_2
