solid SIM_ICUB3_L_SHOULDER_3
  facet normal -7.470766e-01 -4.137409e-01 -5.202835e-01
    outer loop
      vertex -1.741165e+02 -1.296303e+01 -4.405474e+01
      vertex -1.848132e+02 1.176238e+01 -4.835743e+01
      vertex -1.686267e+02 2.996151e+00 -6.462861e+01
    endloop
  endfacet
  facet normal -7.082532e-01 -5.909675e-01 -3.861798e-01
    outer loop
      vertex -1.768167e+02 1.092536e+01 -6.174211e+01
      vertex -1.686267e+02 2.996151e+00 -6.462861e+01
      vertex -1.848132e+02 1.176238e+01 -4.835743e+01
    endloop
  endfacet
  facet normal -2.223651e-01 -7.407376e-01 -6.339256e-01
    outer loop
      vertex -1.489527e+02 -1.521087e+01 -5.025500e+01
      vertex -1.741165e+02 -1.296303e+01 -4.405474e+01
      vertex -1.686267e+02 2.996151e+00 -6.462861e+01
    endloop
  endfacet
  facet normal -2.277714e-01 1.166481e-01 -9.667024e-01
    outer loop
      vertex -1.488710e+02 1.200743e+01 -6.819604e+01
      vertex -1.686267e+02 2.996151e+00 -6.462861e+01
      vertex -1.768167e+02 1.092536e+01 -6.174211e+01
    endloop
  endfacet
  facet normal 4.990229e-02 -4.602989e-01 -8.863604e-01
    outer loop
      vertex -1.488710e+02 1.200743e+01 -6.819604e+01
      vertex -1.504247e+02 -6.513704e+00 -5.866524e+01
      vertex -1.686267e+02 2.996151e+00 -6.462861e+01
    endloop
  endfacet
  facet normal -1.364800e-01 -7.004857e-01 -7.004948e-01
    outer loop
      vertex -1.489527e+02 -1.521087e+01 -5.025500e+01
      vertex -1.686267e+02 2.996151e+00 -6.462861e+01
      vertex -1.504247e+02 -6.513704e+00 -5.866524e+01
    endloop
  endfacet
  facet normal -9.055951e-01 -4.104102e-01 -1.070556e-01
    outer loop
      vertex -1.865093e+02 9.728885e+00 -2.621431e+01
      vertex -1.848132e+02 1.176238e+01 -4.835743e+01
      vertex -1.741165e+02 -1.296303e+01 -4.405474e+01
    endloop
  endfacet
  facet normal -7.937580e-01 3.517359e-01 -4.962158e-01
    outer loop
      vertex -1.739968e+02 3.684650e+01 -4.787917e+01
      vertex -1.768167e+02 1.092536e+01 -6.174211e+01
      vertex -1.848132e+02 1.176238e+01 -4.835743e+01
    endloop
  endfacet
  facet normal -9.300823e-01 3.654131e-01 -3.768426e-02
    outer loop
      vertex -1.751785e+02 3.862262e+01 -2.569682e+01
      vertex -1.848132e+02 1.176238e+01 -4.835743e+01
      vertex -1.865093e+02 9.728885e+00 -2.621431e+01
    endloop
  endfacet
  facet normal -9.147322e-01 3.959736e-01 -8.043500e-02
    outer loop
      vertex -1.751785e+02 3.862262e+01 -2.569682e+01
      vertex -1.739968e+02 3.684650e+01 -4.787917e+01
      vertex -1.848132e+02 1.176238e+01 -4.835743e+01
    endloop
  endfacet
  facet normal -1.747549e-01 -9.083578e-01 -3.799301e-01
    outer loop
      vertex -1.537532e+02 -1.847335e+01 -4.024680e+01
      vertex -1.741165e+02 -1.296303e+01 -4.405474e+01
      vertex -1.489527e+02 -1.521087e+01 -5.025500e+01
    endloop
  endfacet
  facet normal -9.166846e-01 -2.665890e-01 -2.976905e-01
    outer loop
      vertex -1.780064e+02 -1.092485e+01 -3.390155e+01
      vertex -1.865093e+02 9.728885e+00 -2.621431e+01
      vertex -1.741165e+02 -1.296303e+01 -4.405474e+01
    endloop
  endfacet
  facet normal -2.753006e-01 -9.574385e-01 8.672400e-02
    outer loop
      vertex -1.537532e+02 -1.847335e+01 -4.024680e+01
      vertex -1.780064e+02 -1.092485e+01 -3.390155e+01
      vertex -1.741165e+02 -1.296303e+01 -4.405474e+01
    endloop
  endfacet
  facet normal -2.277714e-01 1.166481e-01 -9.667024e-01
    outer loop
      vertex -1.687993e+02 3.161371e+01 -6.113477e+01
      vertex -1.488710e+02 1.200743e+01 -6.819604e+01
      vertex -1.768167e+02 1.092536e+01 -6.174211e+01
    endloop
  endfacet
  facet normal -8.255995e-01 3.333121e-01 -4.552895e-01
    outer loop
      vertex -1.739968e+02 3.684650e+01 -4.787917e+01
      vertex -1.687993e+02 3.161371e+01 -6.113477e+01
      vertex -1.768167e+02 1.092536e+01 -6.174211e+01
    endloop
  endfacet
  facet normal 5.383491e-01 -4.208669e-01 -7.301036e-01
    outer loop
      vertex -1.488710e+02 1.200743e+01 -6.819604e+01
      vertex -1.406191e+02 1.165361e+01 -6.190746e+01
      vertex -1.504247e+02 -6.513704e+00 -5.866524e+01
    endloop
  endfacet
  facet normal 6.595653e-01 -4.618299e-01 -5.930319e-01
    outer loop
      vertex -1.489527e+02 -1.521087e+01 -5.025500e+01
      vertex -1.504247e+02 -6.513704e+00 -5.866524e+01
      vertex -1.406191e+02 1.165361e+01 -6.190746e+01
    endloop
  endfacet
  facet normal 5.477483e-01 4.697379e-01 -6.923281e-01
    outer loop
      vertex -1.461371e+02 4.499093e+01 -4.365409e+01
      vertex -1.406191e+02 1.165361e+01 -6.190746e+01
      vertex -1.488710e+02 1.200743e+01 -6.819604e+01
    endloop
  endfacet
  facet normal 6.374333e-01 -4.644133e-01 -6.148162e-01
    outer loop
      vertex -1.245879e+02 1.309290e+01 -4.637377e+01
      vertex -1.489527e+02 -1.521087e+01 -5.025500e+01
      vertex -1.406191e+02 1.165361e+01 -6.190746e+01
    endloop
  endfacet
  facet normal 3.968153e-01 4.904912e-01 -7.758582e-01
    outer loop
      vertex -1.298910e+02 3.339763e+01 -4.267418e+01
      vertex -1.406191e+02 1.165361e+01 -6.190746e+01
      vertex -1.461371e+02 4.499093e+01 -4.365409e+01
    endloop
  endfacet
  facet normal 6.505261e-01 2.972440e-01 -6.989004e-01
    outer loop
      vertex -1.298910e+02 3.339763e+01 -4.267418e+01
      vertex -1.245879e+02 1.309290e+01 -4.637377e+01
      vertex -1.406191e+02 1.165361e+01 -6.190746e+01
    endloop
  endfacet
  facet normal -2.277714e-01 1.166481e-01 -9.667024e-01
    outer loop
      vertex -1.687993e+02 3.161371e+01 -6.113477e+01
      vertex -1.564748e+02 3.159332e+01 -6.404109e+01
      vertex -1.488710e+02 1.200743e+01 -6.819604e+01
    endloop
  endfacet
  facet normal 6.873956e-01 3.960223e-01 -6.088132e-01
    outer loop
      vertex -1.461371e+02 4.499093e+01 -4.365409e+01
      vertex -1.488710e+02 1.200743e+01 -6.819604e+01
      vertex -1.564748e+02 3.159332e+01 -6.404109e+01
    endloop
  endfacet
  facet normal 3.796662e-01 -9.176902e-01 -1.170391e-01
    outer loop
      vertex -1.360864e+02 -1.108029e+01 -4.090503e+01
      vertex -1.537532e+02 -1.847335e+01 -4.024680e+01
      vertex -1.489527e+02 -1.521087e+01 -5.025500e+01
    endloop
  endfacet
  facet normal 4.044985e-01 -2.267103e-01 -8.859929e-01
    outer loop
      vertex -1.245879e+02 1.309290e+01 -4.637377e+01
      vertex -1.313306e+02 -6.169216e+00 -4.452326e+01
      vertex -1.489527e+02 -1.521087e+01 -5.025500e+01
    endloop
  endfacet
  facet normal 5.165183e-01 -7.724366e-01 -3.695274e-01
    outer loop
      vertex -1.360864e+02 -1.108029e+01 -4.090503e+01
      vertex -1.489527e+02 -1.521087e+01 -5.025500e+01
      vertex -1.313306e+02 -6.169216e+00 -4.452326e+01
    endloop
  endfacet
  facet normal -1.172458e-01 8.561803e-01 -5.031986e-01
    outer loop
      vertex -1.461371e+02 4.499093e+01 -4.365409e+01
      vertex -1.564748e+02 3.159332e+01 -6.404109e+01
      vertex -1.687993e+02 3.161371e+01 -6.113477e+01
    endloop
  endfacet
  facet normal -1.939959e-01 8.841220e-01 -4.250811e-01
    outer loop
      vertex -1.461371e+02 4.499093e+01 -4.365409e+01
      vertex -1.687993e+02 3.161371e+01 -6.113477e+01
      vertex -1.739968e+02 3.684650e+01 -4.787917e+01
    endloop
  endfacet
  facet normal 1.998588e-01 -2.684527e-01 9.423320e-01
    outer loop
      vertex -1.426624e+02 1.493258e+01 -3.403136e+01
      vertex -1.865093e+02 9.728885e+00 -2.621431e+01
      vertex -1.780064e+02 -1.092485e+01 -3.390155e+01
    endloop
  endfacet
  facet normal 1.810596e-01 -5.017157e-02 9.821915e-01
    outer loop
      vertex -1.441185e+02 4.396494e+01 -3.227993e+01
      vertex -1.865093e+02 9.728885e+00 -2.621431e+01
      vertex -1.426624e+02 1.493258e+01 -3.403136e+01
    endloop
  endfacet
  facet normal 2.234447e-01 -1.049813e-01 9.690466e-01
    outer loop
      vertex -1.441185e+02 4.396494e+01 -3.227993e+01
      vertex -1.751785e+02 3.862262e+01 -2.569682e+01
      vertex -1.865093e+02 9.728885e+00 -2.621431e+01
    endloop
  endfacet
  facet normal 1.764244e-01 -2.363545e-01 9.555161e-01
    outer loop
      vertex -1.426624e+02 1.493258e+01 -3.403136e+01
      vertex -1.780064e+02 -1.092485e+01 -3.390155e+01
      vertex -1.537532e+02 -1.847335e+01 -4.024680e+01
    endloop
  endfacet
  facet normal 3.397403e-01 -2.798588e-01 8.979174e-01
    outer loop
      vertex -1.244948e+02 1.826553e+01 -3.986655e+01
      vertex -1.426624e+02 1.493258e+01 -3.403136e+01
      vertex -1.537532e+02 -1.847335e+01 -4.024680e+01
    endloop
  endfacet
  facet normal 6.214449e-02 -5.980262e-02 9.962739e-01
    outer loop
      vertex -1.360864e+02 -1.108029e+01 -4.090503e+01
      vertex -1.244948e+02 1.826553e+01 -3.986655e+01
      vertex -1.537532e+02 -1.847335e+01 -4.024680e+01
    endloop
  endfacet
  facet normal 4.528820e-01 -3.103894e-02 8.910300e-01
    outer loop
      vertex -1.310766e+02 3.533210e+01 -3.920943e+01
      vertex -1.441185e+02 4.396494e+01 -3.227993e+01
      vertex -1.426624e+02 1.493258e+01 -3.403136e+01
    endloop
  endfacet
  facet normal 2.922495e-01 7.600198e-02 9.533173e-01
    outer loop
      vertex -1.310766e+02 3.533210e+01 -3.920943e+01
      vertex -1.426624e+02 1.493258e+01 -3.403136e+01
      vertex -1.244948e+02 1.826553e+01 -3.986655e+01
    endloop
  endfacet
  facet normal -2.971280e-01 9.448188e-01 1.379575e-01
    outer loop
      vertex -1.441185e+02 4.396494e+01 -3.227993e+01
      vertex -1.461371e+02 4.499093e+01 -4.365409e+01
      vertex -1.739968e+02 3.684650e+01 -4.787917e+01
    endloop
  endfacet
  facet normal -1.869973e-01 9.783839e-01 -8.829998e-02
    outer loop
      vertex -1.441185e+02 4.396494e+01 -3.227993e+01
      vertex -1.739968e+02 3.684650e+01 -4.787917e+01
      vertex -1.751785e+02 3.862262e+01 -2.569682e+01
    endloop
  endfacet
  facet normal 5.440967e-01 8.387621e-01 -2.090306e-02
    outer loop
      vertex -1.310766e+02 3.533210e+01 -3.920943e+01
      vertex -1.461371e+02 4.499093e+01 -4.365409e+01
      vertex -1.441185e+02 4.396494e+01 -3.227993e+01
    endloop
  endfacet
  facet normal 5.733384e-01 7.830643e-01 -2.410257e-01
    outer loop
      vertex -1.298910e+02 3.339763e+01 -4.267418e+01
      vertex -1.461371e+02 4.499093e+01 -4.365409e+01
      vertex -1.310766e+02 3.533210e+01 -3.920943e+01
    endloop
  endfacet
  facet normal 9.257979e-01 -3.022628e-01 2.270142e-01
    outer loop
      vertex -1.245879e+02 1.309290e+01 -4.637377e+01
      vertex -1.244948e+02 1.826553e+01 -3.986655e+01
      vertex -1.313306e+02 -6.169216e+00 -4.452326e+01
    endloop
  endfacet
  facet normal 7.605242e-01 -3.203926e-01 5.647579e-01
    outer loop
      vertex -1.360864e+02 -1.108029e+01 -4.090503e+01
      vertex -1.313306e+02 -6.169216e+00 -4.452326e+01
      vertex -1.244948e+02 1.826553e+01 -3.986655e+01
    endloop
  endfacet
  facet normal 8.879537e-01 3.537624e-01 -2.939225e-01
    outer loop
      vertex -1.310766e+02 3.533210e+01 -3.920943e+01
      vertex -1.244948e+02 1.826553e+01 -3.986655e+01
      vertex -1.245879e+02 1.309290e+01 -4.637377e+01
    endloop
  endfacet
  facet normal 9.548625e-01 2.113570e-01 2.087240e-01
    outer loop
      vertex -1.298910e+02 3.339763e+01 -4.267418e+01
      vertex -1.310766e+02 3.533210e+01 -3.920943e+01
      vertex -1.245879e+02 1.309290e+01 -4.637377e+01
    endloop
  endfacet
endsolid SIM_ICUB3_L_SHOULDER_3
