solid SIM_ICUB3_R_SHOULDER_3
  facet normal -8.388737e-01 -1.844579e-01 -5.121194e-01
    outer loop
      vertex 1.352946e+02 -1.039028e+01 -4.409860e+01
      vertex 1.268984e+02 2.770443e+01 -4.406628e+01
      vertex 1.427871e+02 -9.048884e-01 -5.978801e+01
    endloop
  endfacet
  facet normal -7.636388e-01 -7.148018e-02 -6.416746e-01
    outer loop
      vertex 1.479932e+02 1.623375e+01 -6.789288e+01
      vertex 1.427871e+02 -9.048884e-01 -5.978801e+01
      vertex 1.268984e+02 2.770443e+01 -4.406628e+01
    endloop
  endfacet
  facet normal -8.446463e-02 -8.343333e-01 -5.447510e-01
    outer loop
      vertex 1.724357e+02 -1.385045e+01 -4.455784e+01
      vertex 1.352946e+02 -1.039028e+01 -4.409860e+01
      vertex 1.427871e+02 -9.048884e-01 -5.978801e+01
    endloop
  endfacet
  facet normal 4.511046e-01 -4.898314e-01 -7.460361e-01
    outer loop
      vertex 1.695003e+02 2.644575e+01 -6.159321e+01
      vertex 1.427871e+02 -9.048884e-01 -5.978801e+01
      vertex 1.479932e+02 1.623375e+01 -6.789288e+01
    endloop
  endfacet
  facet normal -4.159685e-02 -7.997885e-01 -5.988390e-01
    outer loop
      vertex 1.654918e+02 2.166632e+00 -6.546735e+01
      vertex 1.724357e+02 -1.385045e+01 -4.455784e+01
      vertex 1.427871e+02 -9.048884e-01 -5.978801e+01
    endloop
  endfacet
  facet normal -2.626860e-01 1.941825e-01 -9.451398e-01
    outer loop
      vertex 1.695003e+02 2.644575e+01 -6.159321e+01
      vertex 1.654918e+02 2.166632e+00 -6.546735e+01
      vertex 1.427871e+02 -9.048884e-01 -5.978801e+01
    endloop
  endfacet
  facet normal -8.757692e-01 -1.933996e-01 4.422952e-01
    outer loop
      vertex 1.303498e+02 2.763793e+01 -3.726131e+01
      vertex 1.268984e+02 2.770443e+01 -4.406628e+01
      vertex 1.352946e+02 -1.039028e+01 -4.409860e+01
    endloop
  endfacet
  facet normal -4.290189e-01 6.047590e-01 -6.709764e-01
    outer loop
      vertex 1.411921e+02 4.372603e+01 -3.876517e+01
      vertex 1.479932e+02 1.623375e+01 -6.789288e+01
      vertex 1.268984e+02 2.770443e+01 -4.406628e+01
    endloop
  endfacet
  facet normal -6.948124e-01 6.234704e-01 3.584974e-01
    outer loop
      vertex 1.498658e+02 4.567735e+01 -3.080964e+01
      vertex 1.268984e+02 2.770443e+01 -4.406628e+01
      vertex 1.303498e+02 2.763793e+01 -3.726131e+01
    endloop
  endfacet
  facet normal -6.690530e-01 3.869472e-01 6.345391e-01
    outer loop
      vertex 1.498658e+02 4.567735e+01 -3.080964e+01
      vertex 1.411921e+02 4.372603e+01 -3.876517e+01
      vertex 1.268984e+02 2.770443e+01 -4.406628e+01
    endloop
  endfacet
  facet normal -6.111248e-02 -7.442486e-01 6.651009e-01
    outer loop
      vertex 1.826178e+02 -1.577140e-01 -2.830009e+01
      vertex 1.352946e+02 -1.039028e+01 -4.409860e+01
      vertex 1.724357e+02 -1.385045e+01 -4.455784e+01
    endloop
  endfacet
  facet normal -9.733171e-01 -8.849630e-02 -2.117127e-01
    outer loop
      vertex 1.342340e+02 -7.211172e+00 -4.055123e+01
      vertex 1.303498e+02 2.763793e+01 -3.726131e+01
      vertex 1.352946e+02 -1.039028e+01 -4.409860e+01
    endloop
  endfacet
  facet normal -5.671340e-02 -7.518742e-01 6.568628e-01
    outer loop
      vertex 1.826178e+02 -1.577140e-01 -2.830009e+01
      vertex 1.342340e+02 -7.211172e+00 -4.055123e+01
      vertex 1.352946e+02 -1.039028e+01 -4.409860e+01
    endloop
  endfacet
  facet normal 2.277714e-01 1.166481e-01 -9.667024e-01
    outer loop
      vertex 1.609132e+02 3.284440e+01 -6.284438e+01
      vertex 1.695003e+02 2.644575e+01 -6.159321e+01
      vertex 1.479932e+02 1.623375e+01 -6.789288e+01
    endloop
  endfacet
  facet normal -9.808223e-01 -4.069039e-02 -1.906092e-01
    outer loop
      vertex 1.446459e+02 3.602638e+01 -5.489369e+01
      vertex 1.479932e+02 1.623375e+01 -6.789288e+01
      vertex 1.411921e+02 4.372603e+01 -3.876517e+01
    endloop
  endfacet
  facet normal -3.051138e-01 4.861961e-01 -8.188522e-01
    outer loop
      vertex 1.609132e+02 3.284440e+01 -6.284438e+01
      vertex 1.479932e+02 1.623375e+01 -6.789288e+01
      vertex 1.446459e+02 3.602638e+01 -5.489369e+01
    endloop
  endfacet
  facet normal 6.594173e-01 -4.749088e-01 -5.827783e-01
    outer loop
      vertex 1.857670e+02 -1.084628e+00 -3.987637e+01
      vertex 1.724357e+02 -1.385045e+01 -4.455784e+01
      vertex 1.654918e+02 2.166632e+00 -6.546735e+01
    endloop
  endfacet
  facet normal 5.583131e-01 -7.729656e-01 3.013480e-01
    outer loop
      vertex 1.854789e+02 2.154393e+00 -2.767034e+01
      vertex 1.826178e+02 -1.577140e-01 -2.830009e+01
      vertex 1.724357e+02 -1.385045e+01 -4.455784e+01
    endloop
  endfacet
  facet normal 6.360778e-01 -7.419592e-01 2.119001e-01
    outer loop
      vertex 1.854789e+02 2.154393e+00 -2.767034e+01
      vertex 1.724357e+02 -1.385045e+01 -4.455784e+01
      vertex 1.857670e+02 -1.084628e+00 -3.987637e+01
    endloop
  endfacet
  facet normal 2.277714e-01 1.166481e-01 -9.667024e-01
    outer loop
      vertex 1.753030e+02 8.188306e+00 -6.242904e+01
      vertex 1.654918e+02 2.166632e+00 -6.546735e+01
      vertex 1.695003e+02 2.644575e+01 -6.159321e+01
    endloop
  endfacet
  facet normal 5.575334e-01 -6.442293e-01 -5.235695e-01
    outer loop
      vertex 1.857670e+02 -1.084628e+00 -3.987637e+01
      vertex 1.654918e+02 2.166632e+00 -6.546735e+01
      vertex 1.753030e+02 8.188306e+00 -6.242904e+01
    endloop
  endfacet
  facet normal 5.676831e-01 6.676673e-01 -4.816184e-01
    outer loop
      vertex 1.609132e+02 3.284440e+01 -6.284438e+01
      vertex 1.657581e+02 4.598956e+01 -3.891055e+01
      vertex 1.695003e+02 2.644575e+01 -6.159321e+01
    endloop
  endfacet
  facet normal 4.764946e-01 7.033901e-01 -5.274422e-01
    outer loop
      vertex 1.791872e+02 3.049391e+01 -4.744346e+01
      vertex 1.695003e+02 2.644575e+01 -6.159321e+01
      vertex 1.657581e+02 4.598956e+01 -3.891055e+01
    endloop
  endfacet
  facet normal 7.965448e-01 1.452600e-01 -5.868696e-01
    outer loop
      vertex 1.891279e+02 2.006535e+01 -3.653241e+01
      vertex 1.695003e+02 2.644575e+01 -6.159321e+01
      vertex 1.791872e+02 3.049391e+01 -4.744346e+01
    endloop
  endfacet
  facet normal 2.277714e-01 1.166481e-01 -9.667024e-01
    outer loop
      vertex 1.778999e+02 1.963451e+01 -6.043601e+01
      vertex 1.753030e+02 8.188306e+00 -6.242904e+01
      vertex 1.695003e+02 2.644575e+01 -6.159321e+01
    endloop
  endfacet
  facet normal 6.246663e-01 7.182846e-01 -3.063647e-01
    outer loop
      vertex 1.778999e+02 1.963451e+01 -6.043601e+01
      vertex 1.695003e+02 2.644575e+01 -6.159321e+01
      vertex 1.891279e+02 2.006535e+01 -3.653241e+01
    endloop
  endfacet
  facet normal -2.277714e-01 -1.166481e-01 9.667024e-01
    outer loop
      vertex 1.801379e+02 3.224938e+01 -2.497395e+01
      vertex 1.303498e+02 2.763793e+01 -3.726131e+01
      vertex 1.342340e+02 -7.211172e+00 -4.055123e+01
    endloop
  endfacet
  facet normal -2.488470e-01 1.289795e-01 9.599164e-01
    outer loop
      vertex 1.686111e+02 4.424105e+01 -2.957341e+01
      vertex 1.303498e+02 2.763793e+01 -3.726131e+01
      vertex 1.801379e+02 3.224938e+01 -2.497395e+01
    endloop
  endfacet
  facet normal -8.305501e-02 -2.547149e-01 9.634429e-01
    outer loop
      vertex 1.686111e+02 4.424105e+01 -2.957341e+01
      vertex 1.498658e+02 4.567735e+01 -3.080964e+01
      vertex 1.303498e+02 2.763793e+01 -3.726131e+01
    endloop
  endfacet
  facet normal -2.277714e-01 -1.166481e-01 9.667024e-01
    outer loop
      vertex 1.801379e+02 3.224938e+01 -2.497395e+01
      vertex 1.342340e+02 -7.211172e+00 -4.055123e+01
      vertex 1.826178e+02 -1.577140e-01 -2.830009e+01
    endloop
  endfacet
  facet normal 2.472417e-01 -8.018870e-02 9.656300e-01
    outer loop
      vertex 1.874409e+02 2.197328e+01 -2.769719e+01
      vertex 1.801379e+02 3.224938e+01 -2.497395e+01
      vertex 1.826178e+02 -1.577140e-01 -2.830009e+01
    endloop
  endfacet
  facet normal -2.337022e-01 2.445250e-02 9.720007e-01
    outer loop
      vertex 1.854789e+02 2.154393e+00 -2.767034e+01
      vertex 1.874409e+02 2.197328e+01 -2.769719e+01
      vertex 1.826178e+02 -1.577140e-01 -2.830009e+01
    endloop
  endfacet
  facet normal 3.700049e-01 6.207694e-01 6.911886e-01
    outer loop
      vertex 1.806398e+02 3.522030e+01 -2.791087e+01
      vertex 1.686111e+02 4.424105e+01 -2.957341e+01
      vertex 1.801379e+02 3.224938e+01 -2.497395e+01
    endloop
  endfacet
  facet normal 7.521318e-01 3.946627e-01 5.277681e-01
    outer loop
      vertex 1.806398e+02 3.522030e+01 -2.791087e+01
      vertex 1.801379e+02 3.224938e+01 -2.497395e+01
      vertex 1.874409e+02 2.197328e+01 -2.769719e+01
    endloop
  endfacet
  facet normal -8.481776e-02 8.920036e-01 -4.439995e-01
    outer loop
      vertex 1.657581e+02 4.598956e+01 -3.891055e+01
      vertex 1.446459e+02 3.602638e+01 -5.489369e+01
      vertex 1.411921e+02 4.372603e+01 -3.876517e+01
    endloop
  endfacet
  facet normal -8.848956e-02 9.738180e-01 2.093996e-01
    outer loop
      vertex 1.686111e+02 4.424105e+01 -2.957341e+01
      vertex 1.657581e+02 4.598956e+01 -3.891055e+01
      vertex 1.411921e+02 4.372603e+01 -3.876517e+01
    endloop
  endfacet
  facet normal 9.383135e-02 9.384311e-01 -3.324796e-01
    outer loop
      vertex 1.686111e+02 4.424105e+01 -2.957341e+01
      vertex 1.411921e+02 4.372603e+01 -3.876517e+01
      vertex 1.498658e+02 4.567735e+01 -3.080964e+01
    endloop
  endfacet
  facet normal -5.831779e-02 8.799434e-01 -4.714856e-01
    outer loop
      vertex 1.609132e+02 3.284440e+01 -6.284438e+01
      vertex 1.446459e+02 3.602638e+01 -5.489369e+01
      vertex 1.657581e+02 4.598956e+01 -3.891055e+01
    endloop
  endfacet
  facet normal 5.111449e-01 7.098397e-01 -4.846220e-01
    outer loop
      vertex 1.806663e+02 3.690408e+01 -3.649424e+01
      vertex 1.791872e+02 3.049391e+01 -4.744346e+01
      vertex 1.657581e+02 4.598956e+01 -3.891055e+01
    endloop
  endfacet
  facet normal 6.026814e-01 7.972201e-01 -3.485974e-02
    outer loop
      vertex 1.806398e+02 3.522030e+01 -2.791087e+01
      vertex 1.657581e+02 4.598956e+01 -3.891055e+01
      vertex 1.686111e+02 4.424105e+01 -2.957341e+01
    endloop
  endfacet
  facet normal 4.928090e-01 8.535752e-01 1.689636e-01
    outer loop
      vertex 1.806663e+02 3.690408e+01 -3.649424e+01
      vertex 1.657581e+02 4.598956e+01 -3.891055e+01
      vertex 1.806398e+02 3.522030e+01 -2.791087e+01
    endloop
  endfacet
  facet normal 8.338358e-01 4.198218e-01 -3.584238e-01
    outer loop
      vertex 1.806663e+02 3.690408e+01 -3.649424e+01
      vertex 1.891279e+02 2.006535e+01 -3.653241e+01
      vertex 1.791872e+02 3.049391e+01 -4.744346e+01
    endloop
  endfacet
  facet normal 8.982578e-01 -1.307333e-01 -4.195732e-01
    outer loop
      vertex 1.778999e+02 1.963451e+01 -6.043601e+01
      vertex 1.891279e+02 2.006535e+01 -3.653241e+01
      vertex 1.753030e+02 8.188306e+00 -6.242904e+01
    endloop
  endfacet
  facet normal 8.931893e-01 -7.174751e-02 -4.439202e-01
    outer loop
      vertex 1.857670e+02 -1.084628e+00 -3.987637e+01
      vertex 1.753030e+02 8.188306e+00 -6.242904e+01
      vertex 1.891279e+02 2.006535e+01 -3.653241e+01
    endloop
  endfacet
  facet normal 9.566338e-01 -1.872903e-01 2.231012e-01
    outer loop
      vertex 1.874409e+02 2.197328e+01 -2.769719e+01
      vertex 1.857670e+02 -1.084628e+00 -3.987637e+01
      vertex 1.891279e+02 2.006535e+01 -3.653241e+01
    endloop
  endfacet
  facet normal 8.869111e-01 4.564874e-01 7.076724e-02
    outer loop
      vertex 1.806398e+02 3.522030e+01 -2.791087e+01
      vertex 1.874409e+02 2.197328e+01 -2.769719e+01
      vertex 1.891279e+02 2.006535e+01 -3.653241e+01
    endloop
  endfacet
  facet normal 8.899500e-01 4.470023e-01 9.043210e-02
    outer loop
      vertex 1.806663e+02 3.690408e+01 -3.649424e+01
      vertex 1.806398e+02 3.522030e+01 -2.791087e+01
      vertex 1.891279e+02 2.006535e+01 -3.653241e+01
    endloop
  endfacet
  facet normal 9.939198e-01 -9.832740e-02 4.955002e-02
    outer loop
      vertex 1.854789e+02 2.154393e+00 -2.767034e+01
      vertex 1.857670e+02 -1.084628e+00 -3.987637e+01
      vertex 1.874409e+02 2.197328e+01 -2.769719e+01
    endloop
  endfacet
endsolid SIM_ICUB3_R_SHOULDER_3
