solid SIM_ICUB3_L_SHOULDER_1
  facet normal -8.030758e-01 2.972092e-02 -5.951352e-01
    outer loop
      vertex -1.756578e+02 -7.741083e+00 6.310552e+00
      vertex -1.759753e+02 3.268709e+00 7.288798e+00
      vertex -1.632143e+02 -8.461540e+00 -1.051663e+01
    endloop
  endfacet
  facet normal -8.546283e-01 -2.067117e-01 -4.763200e-01
    outer loop
      vertex -1.655148e+02 -2.110673e+00 -9.145180e+00
      vertex -1.632143e+02 -8.461540e+00 -1.051663e+01
      vertex -1.759753e+02 3.268709e+00 7.288798e+00
    endloop
  endfacet
  facet normal -4.493715e-01 -8.428046e-01 -2.962188e-01
    outer loop
      vertex -1.337315e+02 -2.750917e+01 -1.048403e+00
      vertex -1.756578e+02 -7.741083e+00 6.310552e+00
      vertex -1.632143e+02 -8.461540e+00 -1.051663e+01
    endloop
  endfacet
  facet normal -2.606980e-01 1.126234e-01 -9.588287e-01
    outer loop
      vertex -1.421743e+02 9.555099e+00 -1.412103e+01
      vertex -1.632143e+02 -8.461540e+00 -1.051663e+01
      vertex -1.655148e+02 -2.110673e+00 -9.145180e+00
    endloop
  endfacet
  facet normal -2.628615e-01 -7.239265e-01 -6.378356e-01
    outer loop
      vertex -1.412156e+02 -1.323993e+01 -1.415930e+01
      vertex -1.337315e+02 -2.750917e+01 -1.048403e+00
      vertex -1.632143e+02 -8.461540e+00 -1.051663e+01
    endloop
  endfacet
  facet normal -1.644709e-01 -5.261174e-03 -9.863679e-01
    outer loop
      vertex -1.421743e+02 9.555099e+00 -1.412103e+01
      vertex -1.412156e+02 -1.323993e+01 -1.415930e+01
      vertex -1.632143e+02 -8.461540e+00 -1.051663e+01
    endloop
  endfacet
  facet normal -9.815606e-01 -4.481605e-02 1.858236e-01
    outer loop
      vertex -1.707883e+02 3.635789e+00 3.477615e+01
      vertex -1.759753e+02 3.268709e+00 7.288798e+00
      vertex -1.756578e+02 -7.741083e+00 6.310552e+00
    endloop
  endfacet
  facet normal -7.756862e-01 2.551348e-01 -5.772497e-01
    outer loop
      vertex -1.668521e+02 3.605772e+01 9.521572e+00
      vertex -1.655148e+02 -2.110673e+00 -9.145180e+00
      vertex -1.759753e+02 3.268709e+00 7.288798e+00
    endloop
  endfacet
  facet normal -9.625180e-01 2.038392e-01 1.789095e-01
    outer loop
      vertex -1.647401e+02 3.421935e+01 3.246954e+01
      vertex -1.759753e+02 3.268709e+00 7.288798e+00
      vertex -1.707883e+02 3.635789e+00 3.477615e+01
    endloop
  endfacet
  facet normal -9.595459e-01 2.595547e-01 1.091013e-01
    outer loop
      vertex -1.647401e+02 3.421935e+01 3.246954e+01
      vertex -1.668521e+02 3.605772e+01 9.521572e+00
      vertex -1.759753e+02 3.268709e+00 7.288798e+00
    endloop
  endfacet
  facet normal -4.131709e-01 -9.069286e-01 8.228135e-02
    outer loop
      vertex -1.392883e+02 -2.101784e+01 4.259728e+01
      vertex -1.756578e+02 -7.741083e+00 6.310552e+00
      vertex -1.337315e+02 -2.750917e+01 -1.048403e+00
    endloop
  endfacet
  facet normal -9.646491e-01 -1.422282e-01 2.218634e-01
    outer loop
      vertex -1.680667e+02 -1.153952e+01 3.688091e+01
      vertex -1.707883e+02 3.635789e+00 3.477615e+01
      vertex -1.756578e+02 -7.741083e+00 6.310552e+00
    endloop
  endfacet
  facet normal -3.049164e-01 -9.514303e-01 -4.250239e-02
    outer loop
      vertex -1.392883e+02 -2.101784e+01 4.259728e+01
      vertex -1.680667e+02 -1.153952e+01 3.688091e+01
      vertex -1.756578e+02 -7.741083e+00 6.310552e+00
    endloop
  endfacet
  facet normal -2.372751e-01 6.120260e-02 -9.695126e-01
    outer loop
      vertex -1.426762e+02 3.043073e+01 -1.268038e+01
      vertex -1.421743e+02 9.555099e+00 -1.412103e+01
      vertex -1.655148e+02 -2.110673e+00 -9.145180e+00
    endloop
  endfacet
  facet normal -8.201434e-01 2.279258e-01 -5.247996e-01
    outer loop
      vertex -1.580314e+02 3.435238e+01 -5.003796e+00
      vertex -1.655148e+02 -2.110673e+00 -9.145180e+00
      vertex -1.668521e+02 3.605772e+01 9.521572e+00
    endloop
  endfacet
  facet normal -4.014489e-01 1.842865e-01 -8.971495e-01
    outer loop
      vertex -1.426762e+02 3.043073e+01 -1.268038e+01
      vertex -1.655148e+02 -2.110673e+00 -9.145180e+00
      vertex -1.580314e+02 3.435238e+01 -5.003796e+00
    endloop
  endfacet
  facet normal -1.303088e-01 -7.070123e-01 -6.950923e-01
    outer loop
      vertex -7.304230e+01 -3.772029e+01 -2.039566e+00
      vertex -1.337315e+02 -2.750917e+01 -1.048403e+00
      vertex -1.412156e+02 -1.323993e+01 -1.415930e+01
    endloop
  endfacet
  facet normal -8.528114e-02 -9.870394e-01 1.359424e-01
    outer loop
      vertex -8.098371e+01 -2.824557e+01 2.669526e+01
      vertex -1.392883e+02 -2.101784e+01 4.259728e+01
      vertex -1.337315e+02 -2.750917e+01 -1.048403e+00
    endloop
  endfacet
  facet normal -1.554481e-01 -9.501364e-01 2.703272e-01
    outer loop
      vertex -8.098371e+01 -2.824557e+01 2.669526e+01
      vertex -1.337315e+02 -2.750917e+01 -1.048403e+00
      vertex -7.304230e+01 -3.772029e+01 -2.039566e+00
    endloop
  endfacet
  facet normal -1.739722e-01 -5.663525e-03 -9.847343e-01
    outer loop
      vertex -7.059725e+01 -3.945937e+00 -2.668883e+01
      vertex -1.412156e+02 -1.323993e+01 -1.415930e+01
      vertex -1.421743e+02 9.555099e+00 -1.412103e+01
    endloop
  endfacet
  facet normal -2.338840e-01 -8.680937e-01 -4.378488e-01
    outer loop
      vertex -7.571912e+01 -2.609858e+01 -2.365129e+01
      vertex -7.304230e+01 -3.772029e+01 -2.039566e+00
      vertex -1.412156e+02 -1.323993e+01 -1.415930e+01
    endloop
  endfacet
  facet normal -1.614349e-01 -9.733559e-02 -9.820716e-01
    outer loop
      vertex -7.059725e+01 -3.945937e+00 -2.668883e+01
      vertex -7.571912e+01 -2.609858e+01 -2.365129e+01
      vertex -1.412156e+02 -1.323993e+01 -1.415930e+01
    endloop
  endfacet
  facet normal -4.333548e-02 6.774552e-02 -9.967610e-01
    outer loop
      vertex -7.866277e+01 1.832055e+01 -1.628652e+01
      vertex -1.421743e+02 9.555099e+00 -1.412103e+01
      vertex -1.426762e+02 3.043073e+01 -1.268038e+01
    endloop
  endfacet
  facet normal -8.582666e-02 3.960130e-01 -9.142251e-01
    outer loop
      vertex -7.866277e+01 1.832055e+01 -1.628652e+01
      vertex -7.059725e+01 -3.945937e+00 -2.668883e+01
      vertex -1.421743e+02 9.555099e+00 -1.412103e+01
    endloop
  endfacet
  facet normal -4.094968e-01 5.288287e-02 9.107776e-01
    outer loop
      vertex -1.402131e+02 1.227239e+01 4.802164e+01
      vertex -1.707883e+02 3.635789e+00 3.477615e+01
      vertex -1.680667e+02 -1.153952e+01 3.688091e+01
    endloop
  endfacet
  facet normal -4.195230e-01 1.018130e-01 9.020170e-01
    outer loop
      vertex -1.353903e+02 3.341993e+01 4.787772e+01
      vertex -1.707883e+02 3.635789e+00 3.477615e+01
      vertex -1.402131e+02 1.227239e+01 4.802164e+01
    endloop
  endfacet
  facet normal -4.557766e-01 1.562223e-01 8.762775e-01
    outer loop
      vertex -1.353903e+02 3.341993e+01 4.787772e+01
      vertex -1.647401e+02 3.421935e+01 3.246954e+01
      vertex -1.707883e+02 3.635789e+00 3.477615e+01
    endloop
  endfacet
  facet normal -2.434733e-01 -1.625659e-01 9.561867e-01
    outer loop
      vertex -1.402131e+02 1.227239e+01 4.802164e+01
      vertex -1.680667e+02 -1.153952e+01 3.688091e+01
      vertex -1.392883e+02 -2.101784e+01 4.259728e+01
    endloop
  endfacet
  facet normal 2.314376e-01 -1.501879e-01 9.611869e-01
    outer loop
      vertex -7.871708e+01 1.343669e+00 3.150678e+01
      vertex -1.402131e+02 1.227239e+01 4.802164e+01
      vertex -1.392883e+02 -2.101784e+01 4.259728e+01
    endloop
  endfacet
  facet normal 2.390359e-01 -1.736619e-01 9.553551e-01
    outer loop
      vertex -7.871708e+01 1.343669e+00 3.150678e+01
      vertex -1.392883e+02 -2.101784e+01 4.259728e+01
      vertex -8.098371e+01 -2.824557e+01 2.669526e+01
    endloop
  endfacet
  facet normal 5.273603e-01 -1.145378e-01 8.418861e-01
    outer loop
      vertex -9.854954e+01 2.986563e+01 2.431696e+01
      vertex -1.353903e+02 3.341993e+01 4.787772e+01
      vertex -1.402131e+02 1.227239e+01 4.802164e+01
    endloop
  endfacet
  facet normal 3.045141e-01 4.264413e-01 8.517153e-01
    outer loop
      vertex -9.854954e+01 2.986563e+01 2.431696e+01
      vertex -1.402131e+02 1.227239e+01 4.802164e+01
      vertex -7.871708e+01 1.343669e+00 3.150678e+01
    endloop
  endfacet
  facet normal -3.044338e-01 9.068846e-01 -2.913425e-01
    outer loop
      vertex -1.492029e+02 3.798865e+01 -2.910120e+00
      vertex -1.580314e+02 3.435238e+01 -5.003796e+00
      vertex -1.668521e+02 3.605772e+01 9.521572e+00
    endloop
  endfacet
  facet normal -3.841859e-02 9.942566e-01 9.988883e-02
    outer loop
      vertex -1.353903e+02 3.341993e+01 4.787772e+01
      vertex -1.492029e+02 3.798865e+01 -2.910120e+00
      vertex -1.668521e+02 3.605772e+01 9.521572e+00
    endloop
  endfacet
  facet normal -1.551808e-02 9.965718e-01 8.126383e-02
    outer loop
      vertex -1.353903e+02 3.341993e+01 4.787772e+01
      vertex -1.668521e+02 3.605772e+01 9.521572e+00
      vertex -1.647401e+02 3.421935e+01 3.246954e+01
    endloop
  endfacet
  facet normal -1.446470e-01 7.335447e-01 -6.640703e-01
    outer loop
      vertex -1.426762e+02 3.043073e+01 -1.268038e+01
      vertex -1.580314e+02 3.435238e+01 -5.003796e+00
      vertex -1.492029e+02 3.798865e+01 -2.910120e+00
    endloop
  endfacet
  facet normal 1.465342e-01 8.273999e-01 -5.421596e-01
    outer loop
      vertex -1.018768e+02 3.221041e+01 1.062824e+00
      vertex -1.426762e+02 3.043073e+01 -1.268038e+01
      vertex -1.492029e+02 3.798865e+01 -2.910120e+00
    endloop
  endfacet
  facet normal 1.298872e-01 9.900714e-01 5.373900e-02
    outer loop
      vertex -9.854954e+01 2.986563e+01 2.431696e+01
      vertex -1.492029e+02 3.798865e+01 -2.910120e+00
      vertex -1.353903e+02 3.341993e+01 4.787772e+01
    endloop
  endfacet
  facet normal 1.138585e-01 9.899792e-01 8.353130e-02
    outer loop
      vertex -9.854954e+01 2.986563e+01 2.431696e+01
      vertex -1.018768e+02 3.221041e+01 1.062824e+00
      vertex -1.492029e+02 3.798865e+01 -2.910120e+00
    endloop
  endfacet
  facet normal 1.328962e-01 8.528460e-01 -5.049677e-01
    outer loop
      vertex -7.866277e+01 1.832055e+01 -1.628652e+01
      vertex -1.426762e+02 3.043073e+01 -1.268038e+01
      vertex -1.018768e+02 3.221041e+01 1.062824e+00
    endloop
  endfacet
  facet normal 6.555664e-01 -6.282151e-01 -4.190209e-01
    outer loop
      vertex -6.168598e+01 -3.106641e+01 5.751836e+00
      vertex -7.304230e+01 -3.772029e+01 -2.039566e+00
      vertex -7.571912e+01 -2.609858e+01 -2.365129e+01
    endloop
  endfacet
  facet normal 4.354926e-01 -8.122037e-01 3.881641e-01
    outer loop
      vertex -6.320738e+01 -2.228304e+01 1.922761e+01
      vertex -8.098371e+01 -2.824557e+01 2.669526e+01
      vertex -7.304230e+01 -3.772029e+01 -2.039566e+00
    endloop
  endfacet
  facet normal 1.065429e-01 -8.274441e-01 5.513482e-01
    outer loop
      vertex -6.320738e+01 -2.228304e+01 1.922761e+01
      vertex -7.304230e+01 -3.772029e+01 -2.039566e+00
      vertex -6.168598e+01 -3.106641e+01 5.751836e+00
    endloop
  endfacet
  facet normal 6.733295e-01 -2.510346e-01 -6.954200e-01
    outer loop
      vertex -5.955727e+01 8.425509e-02 -1.745438e+01
      vertex -7.571912e+01 -2.609858e+01 -2.365129e+01
      vertex -7.059725e+01 -3.945937e+00 -2.668883e+01
    endloop
  endfacet
  facet normal 1.810745e-01 -9.518828e-01 -2.472470e-01
    outer loop
      vertex -6.168598e+01 -3.106641e+01 5.751836e+00
      vertex -7.571912e+01 -2.609858e+01 -2.365129e+01
      vertex -6.726529e+01 -2.519391e+01 -2.094296e+01
    endloop
  endfacet
  facet normal 3.009953e-01 3.971145e-02 -9.527984e-01
    outer loop
      vertex -5.955727e+01 8.425509e-02 -1.745438e+01
      vertex -6.726529e+01 -2.519391e+01 -2.094296e+01
      vertex -7.571912e+01 -2.609858e+01 -2.365129e+01
    endloop
  endfacet
  facet normal 4.053085e-01 5.033322e-01 -7.631393e-01
    outer loop
      vertex -6.401638e+01 8.747221e+00 -1.482186e+01
      vertex -7.059725e+01 -3.945937e+00 -2.668883e+01
      vertex -7.866277e+01 1.832055e+01 -1.628652e+01
    endloop
  endfacet
  facet normal 4.609958e-01 4.666580e-01 -7.547934e-01
    outer loop
      vertex -6.401638e+01 8.747221e+00 -1.482186e+01
      vertex -5.955727e+01 8.425509e-02 -1.745438e+01
      vertex -7.059725e+01 -3.945937e+00 -2.668883e+01
    endloop
  endfacet
  facet normal 5.351848e-01 -1.753671e-01 8.263314e-01
    outer loop
      vertex -5.866122e+01 -3.564599e+00 1.747568e+01
      vertex -7.871708e+01 1.343669e+00 3.150678e+01
      vertex -8.098371e+01 -2.824557e+01 2.669526e+01
    endloop
  endfacet
  facet normal 3.896978e-01 -8.455168e-03 9.209040e-01
    outer loop
      vertex -6.320738e+01 -2.228304e+01 1.922761e+01
      vertex -5.866122e+01 -3.564599e+00 1.747568e+01
      vertex -8.098371e+01 -2.824557e+01 2.669526e+01
    endloop
  endfacet
  facet normal 4.304939e-01 4.903596e-01 7.577747e-01
    outer loop
      vertex -7.154296e+01 1.525209e+01 1.843094e+01
      vertex -9.854954e+01 2.986563e+01 2.431696e+01
      vertex -7.871708e+01 1.343669e+00 3.150678e+01
    endloop
  endfacet
  facet normal 5.917489e-01 3.687137e-01 7.168566e-01
    outer loop
      vertex -7.154296e+01 1.525209e+01 1.843094e+01
      vertex -7.871708e+01 1.343669e+00 3.150678e+01
      vertex -5.866122e+01 -3.564599e+00 1.747568e+01
    endloop
  endfacet
  facet normal 4.563696e-01 8.844387e-01 -9.744276e-02
    outer loop
      vertex -5.997958e+01 1.032718e+01 -1.336289e+00
      vertex -7.866277e+01 1.832055e+01 -1.628652e+01
      vertex -1.018768e+02 3.221041e+01 1.062824e+00
    endloop
  endfacet
  facet normal 4.791654e-01 8.774985e-01 1.992107e-02
    outer loop
      vertex -7.154296e+01 1.525209e+01 1.843094e+01
      vertex -1.018768e+02 3.221041e+01 1.062824e+00
      vertex -9.854954e+01 2.986563e+01 2.431696e+01
    endloop
  endfacet
  facet normal 4.646649e-01 8.839832e-01 5.157811e-02
    outer loop
      vertex -7.154296e+01 1.525209e+01 1.843094e+01
      vertex -5.997958e+01 1.032718e+01 -1.336289e+00
      vertex -1.018768e+02 3.221041e+01 1.062824e+00
    endloop
  endfacet
  facet normal 5.466220e-01 7.969668e-01 -2.569986e-01
    outer loop
      vertex -6.401638e+01 8.747221e+00 -1.482186e+01
      vertex -7.866277e+01 1.832055e+01 -1.628652e+01
      vertex -5.997958e+01 1.032718e+01 -1.336289e+00
    endloop
  endfacet
  facet normal 9.351131e-01 -2.505628e-01 -2.505628e-01
    outer loop
      vertex -5.955727e+01 8.425509e-02 -1.745438e+01
      vertex -6.168598e+01 -3.106641e+01 5.751836e+00
      vertex -6.726529e+01 -2.519391e+01 -2.094296e+01
    endloop
  endfacet
  facet normal 9.351131e-01 -2.505628e-01 -2.505628e-01
    outer loop
      vertex -5.955727e+01 8.425509e-02 -1.745438e+01
      vertex -5.470954e+01 2.872507e+00 -2.150657e+00
      vertex -6.168598e+01 -3.106641e+01 5.751836e+00
    endloop
  endfacet
  facet normal 9.756498e-01 -1.676130e-01 1.414688e-01
    outer loop
      vertex -5.866122e+01 -3.564599e+00 1.747568e+01
      vertex -6.168598e+01 -3.106641e+01 5.751836e+00
      vertex -5.470954e+01 2.872507e+00 -2.150657e+00
    endloop
  endfacet
  facet normal 9.477618e-01 -2.075101e-01 2.422544e-01
    outer loop
      vertex -6.320738e+01 -2.228304e+01 1.922761e+01
      vertex -6.168598e+01 -3.106641e+01 5.751836e+00
      vertex -5.866122e+01 -3.564599e+00 1.747568e+01
    endloop
  endfacet
  facet normal 7.497140e-01 5.672403e-01 -3.408334e-01
    outer loop
      vertex -5.997958e+01 1.032718e+01 -1.336289e+00
      vertex -5.470954e+01 2.872507e+00 -2.150657e+00
      vertex -5.955727e+01 8.425509e-02 -1.745438e+01
    endloop
  endfacet
  facet normal 7.867722e-01 5.218856e-01 3.295829e-01
    outer loop
      vertex -7.154296e+01 1.525209e+01 1.843094e+01
      vertex -5.866122e+01 -3.564599e+00 1.747568e+01
      vertex -5.470954e+01 2.872507e+00 -2.150657e+00
    endloop
  endfacet
  facet normal 7.872302e-01 5.203846e-01 3.308603e-01
    outer loop
      vertex -7.154296e+01 1.525209e+01 1.843094e+01
      vertex -5.470954e+01 2.872507e+00 -2.150657e+00
      vertex -5.997958e+01 1.032718e+01 -1.336289e+00
    endloop
  endfacet
  facet normal 8.075214e-01 5.071698e-01 -3.011444e-01
    outer loop
      vertex -6.401638e+01 8.747221e+00 -1.482186e+01
      vertex -5.997958e+01 1.032718e+01 -1.336289e+00
      vertex -5.955727e+01 8.425509e-02 -1.745438e+01
    endloop
  endfacet
endsolid SIM_ICUB3_L_SHOULDER_1
