solid SIM_ICUB3_L_FOOT_FRONT
  facet normal -9.910276e-01 -7.528240e-02 -1.104397e-01
    outer loop
      vertex -1.131502e+02 5.138443e+01 -9.404466e+02
      vertex -1.147500e+02 7.244452e+01 -9.404466e+02
      vertex -1.125998e+02 5.112759e+01 -9.452105e+02
    endloop
  endfacet
  facet normal -9.923820e-01 -7.896705e-02 -9.456348e-02
    outer loop
      vertex -1.142420e+02 7.244452e+01 -9.457778e+02
      vertex -1.125998e+02 5.112759e+01 -9.452105e+02
      vertex -1.147500e+02 7.244452e+01 -9.404466e+02
    endloop
  endfacet
  facet normal -7.702412e-02 -9.960222e-01 4.480093e-02
    outer loop
      vertex -9.589422e+01 5.005000e+01 -9.404466e+02
      vertex -1.131502e+02 5.138443e+01 -9.404466e+02
      vertex -1.125998e+02 5.112759e+01 -9.452105e+02
    endloop
  endfacet
  facet normal -3.641023e-02 -2.938871e-02 -9.989047e-01
    outer loop
      vertex -9.589422e+01 7.244452e+01 -9.464466e+02
      vertex -1.125998e+02 5.112759e+01 -9.452105e+02
      vertex -1.142420e+02 7.244452e+01 -9.457778e+02
    endloop
  endfacet
  facet normal -4.330039e-02 -9.963524e-01 -7.353245e-02
    outer loop
      vertex -9.589422e+01 5.043197e+01 -9.456222e+02
      vertex -9.589422e+01 5.005000e+01 -9.404466e+02
      vertex -1.125998e+02 5.112759e+01 -9.452105e+02
    endloop
  endfacet
  facet normal -2.617399e-02 -3.741364e-02 -9.989570e-01
    outer loop
      vertex -9.589422e+01 7.244452e+01 -9.464466e+02
      vertex -9.589422e+01 5.043197e+01 -9.456222e+02
      vertex -1.125998e+02 5.112759e+01 -9.452105e+02
    endloop
  endfacet
  facet normal 6.627190e-15 5.034278e-16 1.000000e+00
    outer loop
      vertex -9.589422e+01 5.005000e+01 -9.404466e+02
      vertex -1.147500e+02 7.244452e+01 -9.404466e+02
      vertex -1.131502e+02 5.138443e+01 -9.404466e+02
    endloop
  endfacet
  facet normal -9.954907e-01 -4.264867e-15 -9.485971e-02
    outer loop
      vertex -1.147500e+02 1.048266e+02 -9.404466e+02
      vertex -1.142420e+02 7.244452e+01 -9.457778e+02
      vertex -1.147500e+02 7.244452e+01 -9.404466e+02
    endloop
  endfacet
  facet normal 6.029282e-15 -1.530397e-29 1.000000e+00
    outer loop
      vertex -9.589422e+01 7.244452e+01 -9.404466e+02
      vertex -1.147500e+02 7.244452e+01 -9.404466e+02
      vertex -9.589422e+01 5.005000e+01 -9.404466e+02
    endloop
  endfacet
  facet normal 5.627172e-15 -1.433293e-01 9.896751e-01
    outer loop
      vertex -8.446935e+01 1.021356e+02 -9.361466e+02
      vertex -1.147500e+02 7.244452e+01 -9.404466e+02
      vertex -9.589422e+01 7.244452e+01 -9.404466e+02
    endloop
  endfacet
  facet normal -1.405944e-01 2.927151e-15 9.900673e-01
    outer loop
      vertex -8.446935e+01 1.021356e+02 -9.361466e+02
      vertex -1.147500e+02 1.048266e+02 -9.404466e+02
      vertex -1.147500e+02 7.244452e+01 -9.404466e+02
    endloop
  endfacet
  facet normal -3.642596e-02 -3.652335e-15 -9.993364e-01
    outer loop
      vertex -1.142420e+02 1.372087e+02 -9.457778e+02
      vertex -9.589422e+01 7.244452e+01 -9.464466e+02
      vertex -1.142420e+02 7.244452e+01 -9.457778e+02
    endloop
  endfacet
  facet normal -9.954907e-01 -4.265016e-15 -9.485971e-02
    outer loop
      vertex -1.147500e+02 1.372087e+02 -9.404466e+02
      vertex -1.142420e+02 1.372087e+02 -9.457778e+02
      vertex -1.142420e+02 7.244452e+01 -9.457778e+02
    endloop
  endfacet
  facet normal -9.954907e-01 -4.264867e-15 -9.485971e-02
    outer loop
      vertex -1.147500e+02 1.048266e+02 -9.404466e+02
      vertex -1.147500e+02 1.372087e+02 -9.404466e+02
      vertex -1.142420e+02 7.244452e+01 -9.457778e+02
    endloop
  endfacet
  facet normal 3.032541e-15 -9.972877e-01 -7.360148e-02
    outer loop
      vertex -4.108090e+01 5.043197e+01 -9.456222e+02
      vertex -9.589422e+01 5.005000e+01 -9.404466e+02
      vertex -9.589422e+01 5.043197e+01 -9.456222e+02
    endloop
  endfacet
  facet normal 6.222220e-15 -1.579370e-29 1.000000e+00
    outer loop
      vertex -4.108090e+01 5.005000e+01 -9.404466e+02
      vertex -9.589422e+01 7.244452e+01 -9.404466e+02
      vertex -9.589422e+01 5.005000e+01 -9.404466e+02
    endloop
  endfacet
  facet normal 3.161342e-15 -9.972877e-01 -7.360148e-02
    outer loop
      vertex -4.108090e+01 5.043197e+01 -9.456222e+02
      vertex -4.108090e+01 5.005000e+01 -9.404466e+02
      vertex -9.589422e+01 5.005000e+01 -9.404466e+02
    endloop
  endfacet
  facet normal -8.280778e-15 -3.742646e-02 -9.992994e-01
    outer loop
      vertex -4.108090e+01 7.244452e+01 -9.464466e+02
      vertex -9.589422e+01 5.043197e+01 -9.456222e+02
      vertex -9.589422e+01 7.244452e+01 -9.464466e+02
    endloop
  endfacet
  facet normal -6.087793e-15 -3.742646e-02 -9.992994e-01
    outer loop
      vertex -4.108090e+01 7.244452e+01 -9.464466e+02
      vertex -4.108090e+01 5.043197e+01 -9.456222e+02
      vertex -9.589422e+01 5.043197e+01 -9.456222e+02
    endloop
  endfacet
  facet normal -3.642596e-02 -3.508465e-15 -9.993364e-01
    outer loop
      vertex -9.589422e+01 1.372087e+02 -9.464466e+02
      vertex -9.589422e+01 7.244452e+01 -9.464466e+02
      vertex -1.142420e+02 1.372087e+02 -9.457778e+02
    endloop
  endfacet
  facet normal -8.296294e-15 -3.510795e-15 -1.000000e+00
    outer loop
      vertex -4.108090e+01 7.244452e+01 -9.464466e+02
      vertex -9.589422e+01 7.244452e+01 -9.464466e+02
      vertex -9.589422e+01 1.372087e+02 -9.464466e+02
    endloop
  endfacet
  facet normal 8.296294e-15 5.076548e-15 1.000000e+00
    outer loop
      vertex -4.108090e+01 5.005000e+01 -9.404466e+02
      vertex -6.848756e+01 7.244452e+01 -9.404466e+02
      vertex -9.589422e+01 7.244452e+01 -9.404466e+02
    endloop
  endfacet
  facet normal 8.437226e-15 -1.749218e-01 9.845823e-01
    outer loop
      vertex -7.884934e+01 9.664792e+01 -9.361466e+02
      vertex -9.589422e+01 7.244452e+01 -9.404466e+02
      vertex -6.848756e+01 7.244452e+01 -9.404466e+02
    endloop
  endfacet
  facet normal -1.016975e-01 -1.041497e-01 9.893485e-01
    outer loop
      vertex -7.884934e+01 9.664792e+01 -9.361466e+02
      vertex -8.446935e+01 1.021356e+02 -9.361466e+02
      vertex -9.589422e+01 7.244452e+01 -9.404466e+02
    endloop
  endfacet
  facet normal 4.148147e-15 -7.896850e-30 1.000000e+00
    outer loop
      vertex -4.108090e+01 5.005000e+01 -9.404466e+02
      vertex -4.108090e+01 7.244452e+01 -9.404466e+02
      vertex -6.848756e+01 7.244452e+01 -9.404466e+02
    endloop
  endfacet
  facet normal 3.936020e-15 -1.419168e-01 9.898786e-01
    outer loop
      vertex -4.515561e+01 1.024373e+02 -9.361466e+02
      vertex -6.848756e+01 7.244452e+01 -9.404466e+02
      vertex -4.108090e+01 7.244452e+01 -9.404466e+02
    endloop
  endfacet
  facet normal 2.804207e-02 -1.632030e-01 9.861939e-01
    outer loop
      vertex -4.515561e+01 1.024373e+02 -9.361466e+02
      vertex -7.884934e+01 9.664792e+01 -9.361466e+02
      vertex -6.848756e+01 7.244452e+01 -9.404466e+02
    endloop
  endfacet
  facet normal 8.635240e-15 3.031656e-29 1.000000e+00
    outer loop
      vertex -1.475000e+01 7.244452e+01 -9.404466e+02
      vertex -1.475000e+01 1.048266e+02 -9.404466e+02
      vertex -4.108090e+01 7.244452e+01 -9.404466e+02
    endloop
  endfacet
  facet normal 1.482895e-01 -1.205789e-01 9.815656e-01
    outer loop
      vertex -4.515561e+01 1.024373e+02 -9.361466e+02
      vertex -4.108090e+01 7.244452e+01 -9.404466e+02
      vertex -1.475000e+01 1.048266e+02 -9.404466e+02
    endloop
  endfacet
  facet normal 8.635240e-15 -1.242597e-15 1.000000e+00
    outer loop
      vertex -1.792273e+01 5.039611e+01 -9.404466e+02
      vertex -1.475000e+01 7.244452e+01 -9.404466e+02
      vertex -4.108090e+01 7.244452e+01 -9.404466e+02
    endloop
  endfacet
  facet normal 9.818290e-15 -1.869113e-29 1.000000e+00
    outer loop
      vertex -4.108090e+01 5.005000e+01 -9.404466e+02
      vertex -1.792273e+01 5.039611e+01 -9.404466e+02
      vertex -4.108090e+01 7.244452e+01 -9.404466e+02
    endloop
  endfacet
  facet normal 9.736655e-01 3.411686e-15 -2.279814e-01
    outer loop
      vertex -1.613197e+01 1.372087e+02 -9.463487e+02
      vertex -1.475000e+01 1.048266e+02 -9.404466e+02
      vertex -1.475000e+01 7.244452e+01 -9.404466e+02
    endloop
  endfacet
  facet normal 1.400279e-01 3.937089e-15 9.901476e-01
    outer loop
      vertex -1.475000e+01 1.372087e+02 -9.404466e+02
      vertex -4.515561e+01 1.024373e+02 -9.361466e+02
      vertex -1.475000e+01 1.048266e+02 -9.404466e+02
    endloop
  endfacet
  facet normal 9.736655e-01 2.407185e-15 -2.279814e-01
    outer loop
      vertex -1.613197e+01 1.372087e+02 -9.463487e+02
      vertex -1.475000e+01 1.372087e+02 -9.404466e+02
      vertex -1.475000e+01 1.048266e+02 -9.404466e+02
    endloop
  endfacet
  facet normal 9.865563e-01 -1.419638e-01 -8.094977e-02
    outer loop
      vertex -1.830506e+01 5.060294e+01 -9.454689e+02
      vertex -1.475000e+01 7.244452e+01 -9.404466e+02
      vertex -1.792273e+01 5.039611e+01 -9.404466e+02
    endloop
  endfacet
  facet normal 9.682353e-01 -1.054652e-01 -2.267100e-01
    outer loop
      vertex -1.613197e+01 7.244452e+01 -9.463487e+02
      vertex -1.475000e+01 7.244452e+01 -9.404466e+02
      vertex -1.830506e+01 5.060294e+01 -9.454689e+02
    endloop
  endfacet
  facet normal 9.736655e-01 2.617944e-15 -2.279814e-01
    outer loop
      vertex -1.613197e+01 1.372087e+02 -9.463487e+02
      vertex -1.475000e+01 7.244452e+01 -9.404466e+02
      vertex -1.613197e+01 7.244452e+01 -9.463487e+02
    endloop
  endfacet
  facet normal 1.490318e-02 -9.971770e-01 -7.359331e-02
    outer loop
      vertex -4.108090e+01 5.043197e+01 -9.456222e+02
      vertex -1.792273e+01 5.039611e+01 -9.404466e+02
      vertex -4.108090e+01 5.005000e+01 -9.404466e+02
    endloop
  endfacet
  facet normal 7.781042e-03 -9.990983e-01 -4.173850e-02
    outer loop
      vertex -1.830506e+01 5.060294e+01 -9.454689e+02
      vertex -1.792273e+01 5.039611e+01 -9.404466e+02
      vertex -4.108090e+01 5.043197e+01 -9.456222e+02
    endloop
  endfacet
  facet normal -9.951948e-01 2.437786e-02 -9.483152e-02
    outer loop
      vertex -1.140803e+02 1.645493e+02 -9.404466e+02
      vertex -1.142420e+02 1.372087e+02 -9.457778e+02
      vertex -1.147500e+02 1.372087e+02 -9.404466e+02
    endloop
  endfacet
  facet normal -3.642439e-02 9.283894e-03 -9.992933e-01
    outer loop
      vertex -9.589422e+01 1.660500e+02 -9.461787e+02
      vertex -9.589422e+01 1.372087e+02 -9.464466e+02
      vertex -1.142420e+02 1.372087e+02 -9.457778e+02
    endloop
  endfacet
  facet normal -9.918876e-01 2.995585e-02 -1.235380e-01
    outer loop
      vertex -1.134135e+02 1.645529e+02 -9.457995e+02
      vertex -1.142420e+02 1.372087e+02 -9.457778e+02
      vertex -1.140803e+02 1.645493e+02 -9.404466e+02
    endloop
  endfacet
  facet normal -2.162454e-02 -1.377893e-04 -9.997662e-01
    outer loop
      vertex -9.589422e+01 1.660500e+02 -9.461787e+02
      vertex -1.142420e+02 1.372087e+02 -9.457778e+02
      vertex -1.134135e+02 1.645529e+02 -9.457995e+02
    endloop
  endfacet
  facet normal 1.205856e-14 3.510795e-15 1.000000e+00
    outer loop
      vertex -9.589422e+01 1.372087e+02 -9.404466e+02
      vertex -1.147500e+02 1.372087e+02 -9.404466e+02
      vertex -1.147500e+02 1.048266e+02 -9.404466e+02
    endloop
  endfacet
  facet normal 1.205856e-14 4.164105e-15 1.000000e+00
    outer loop
      vertex -6.848756e+01 1.670500e+02 -9.404466e+02
      vertex -1.147500e+02 1.372087e+02 -9.404466e+02
      vertex -9.589422e+01 1.372087e+02 -9.404466e+02
    endloop
  endfacet
  facet normal 1.225605e-14 3.857950e-15 1.000000e+00
    outer loop
      vertex -6.848756e+01 1.670500e+02 -9.404466e+02
      vertex -1.140803e+02 1.645493e+02 -9.404466e+02
      vertex -1.147500e+02 1.372087e+02 -9.404466e+02
    endloop
  endfacet
  facet normal -1.333997e-01 7.767739e-02 9.880135e-01
    outer loop
      vertex -9.589422e+01 1.372087e+02 -9.404466e+02
      vertex -1.147500e+02 1.048266e+02 -9.404466e+02
      vertex -8.446935e+01 1.021356e+02 -9.361466e+02
    endloop
  endfacet
  facet normal -6.246037e-15 9.290059e-03 -9.999568e-01
    outer loop
      vertex -4.108090e+01 1.660500e+02 -9.461787e+02
      vertex -9.589422e+01 1.372087e+02 -9.464466e+02
      vertex -9.589422e+01 1.660500e+02 -9.461787e+02
    endloop
  endfacet
  facet normal -8.296294e-15 -3.510795e-15 -1.000000e+00
    outer loop
      vertex -4.108090e+01 1.372087e+02 -9.464466e+02
      vertex -4.108090e+01 7.244452e+01 -9.464466e+02
      vertex -9.589422e+01 1.372087e+02 -9.464466e+02
    endloop
  endfacet
  facet normal -8.301127e-15 9.290059e-03 -9.999568e-01
    outer loop
      vertex -4.108090e+01 1.660500e+02 -9.461787e+02
      vertex -4.108090e+01 1.372087e+02 -9.464466e+02
      vertex -9.589422e+01 1.372087e+02 -9.464466e+02
    endloop
  endfacet
  facet normal -1.308150e-01 7.855321e-02 9.882898e-01
    outer loop
      vertex -6.821795e+01 1.291991e+02 -9.361466e+02
      vertex -9.589422e+01 1.372087e+02 -9.404466e+02
      vertex -8.446935e+01 1.021356e+02 -9.361466e+02
    endloop
  endfacet
  facet normal 2.585701e-15 2.648051e-15 1.000000e+00
    outer loop
      vertex -6.821795e+01 1.291991e+02 -9.361466e+02
      vertex -8.446935e+01 1.021356e+02 -9.361466e+02
      vertex -7.884934e+01 9.664792e+01 -9.361466e+02
    endloop
  endfacet
  facet normal -1.210739e-01 1.111958e-01 9.863958e-01
    outer loop
      vertex -6.821795e+01 1.291991e+02 -9.361466e+02
      vertex -6.848756e+01 1.670500e+02 -9.404466e+02
      vertex -9.589422e+01 1.372087e+02 -9.404466e+02
    endloop
  endfacet
  facet normal 1.244444e-14 4.232120e-16 1.000000e+00
    outer loop
      vertex -6.848756e+01 1.670500e+02 -9.404466e+02
      vertex -9.589422e+01 1.670500e+02 -9.404466e+02
      vertex -1.140803e+02 1.645493e+02 -9.404466e+02
    endloop
  endfacet
  facet normal -1.362077e-01 9.905462e-01 -1.630209e-02
    outer loop
      vertex -1.134135e+02 1.645529e+02 -9.457995e+02
      vertex -1.140803e+02 1.645493e+02 -9.404466e+02
      vertex -9.589422e+01 1.670500e+02 -9.404466e+02
    endloop
  endfacet
  facet normal -5.207573e-15 9.851211e-01 -1.718619e-01
    outer loop
      vertex -9.589422e+01 1.660500e+02 -9.461787e+02
      vertex -9.589422e+01 1.670500e+02 -9.404466e+02
      vertex -6.848756e+01 1.670500e+02 -9.404466e+02
    endloop
  endfacet
  facet normal -8.756634e-02 9.813369e-01 -1.712017e-01
    outer loop
      vertex -9.589422e+01 1.660500e+02 -9.461787e+02
      vertex -1.134135e+02 1.645529e+02 -9.457995e+02
      vertex -9.589422e+01 1.670500e+02 -9.404466e+02
    endloop
  endfacet
  facet normal -2.351912e-15 9.851211e-01 -1.718619e-01
    outer loop
      vertex -4.108090e+01 1.670500e+02 -9.404466e+02
      vertex -9.589422e+01 1.660500e+02 -9.461787e+02
      vertex -6.848756e+01 1.670500e+02 -9.404466e+02
    endloop
  endfacet
  facet normal -4.472811e-15 1.128777e-01 9.936089e-01
    outer loop
      vertex -4.108090e+01 1.670500e+02 -9.404466e+02
      vertex -6.848756e+01 1.670500e+02 -9.404466e+02
      vertex -6.821795e+01 1.291991e+02 -9.361466e+02
    endloop
  endfacet
  facet normal -3.623023e-15 9.851211e-01 -1.718619e-01
    outer loop
      vertex -4.108090e+01 1.670500e+02 -9.404466e+02
      vertex -4.108090e+01 1.660500e+02 -9.461787e+02
      vertex -9.589422e+01 1.660500e+02 -9.461787e+02
    endloop
  endfacet
  facet normal 3.920713e-03 -3.742617e-02 -9.992917e-01
    outer loop
      vertex -1.613197e+01 7.244452e+01 -9.463487e+02
      vertex -4.108090e+01 5.043197e+01 -9.456222e+02
      vertex -4.108090e+01 7.244452e+01 -9.464466e+02
    endloop
  endfacet
  facet normal 7.029912e-03 -4.094501e-02 -9.991367e-01
    outer loop
      vertex -1.613197e+01 7.244452e+01 -9.463487e+02
      vertex -1.830506e+01 5.060294e+01 -9.454689e+02
      vertex -4.108090e+01 5.043197e+01 -9.456222e+02
    endloop
  endfacet
  facet normal 3.923462e-03 -3.509158e-15 -9.999923e-01
    outer loop
      vertex -1.613197e+01 7.244452e+01 -9.463487e+02
      vertex -4.108090e+01 7.244452e+01 -9.464466e+02
      vertex -4.108090e+01 1.372087e+02 -9.464466e+02
    endloop
  endfacet
  facet normal 1.347202e-02 9.289216e-03 -9.998661e-01
    outer loop
      vertex -1.715506e+01 1.656216e+02 -9.458603e+02
      vertex -4.108090e+01 1.372087e+02 -9.464466e+02
      vertex -4.108090e+01 1.660500e+02 -9.461787e+02
    endloop
  endfacet
  facet normal 3.923462e-03 -3.496994e-15 -9.999923e-01
    outer loop
      vertex -1.613197e+01 1.372087e+02 -9.463487e+02
      vertex -1.613197e+01 7.244452e+01 -9.463487e+02
      vertex -4.108090e+01 1.372087e+02 -9.464466e+02
    endloop
  endfacet
  facet normal 3.922873e-03 1.732982e-02 -9.998421e-01
    outer loop
      vertex -1.715506e+01 1.656216e+02 -9.458603e+02
      vertex -1.613197e+01 1.372087e+02 -9.463487e+02
      vertex -4.108090e+01 1.372087e+02 -9.464466e+02
    endloop
  endfacet
  facet normal 1.724495e-01 -5.632286e-02 9.834068e-01
    outer loop
      vertex -4.108090e+01 1.372087e+02 -9.404466e+02
      vertex -6.821795e+01 1.291991e+02 -9.361466e+02
      vertex -7.884934e+01 9.664792e+01 -9.361466e+02
    endloop
  endfacet
  facet normal -2.150950e-02 1.251839e-01 9.919004e-01
    outer loop
      vertex -4.108090e+01 1.372087e+02 -9.404466e+02
      vertex -7.884934e+01 9.664792e+01 -9.361466e+02
      vertex -4.515561e+01 1.024373e+02 -9.361466e+02
    endloop
  endfacet
  facet normal 1.565024e-01 3.762766e-15 9.876776e-01
    outer loop
      vertex -4.108090e+01 1.372087e+02 -9.404466e+02
      vertex -4.108090e+01 1.670500e+02 -9.404466e+02
      vertex -6.821795e+01 1.291991e+02 -9.361466e+02
    endloop
  endfacet
  facet normal 4.391199e-02 9.841708e-01 -1.716961e-01
    outer loop
      vertex -1.663255e+01 1.659592e+02 -9.404466e+02
      vertex -4.108090e+01 1.660500e+02 -9.461787e+02
      vertex -4.108090e+01 1.670500e+02 -9.404466e+02
    endloop
  endfacet
  facet normal 1.871640e-02 9.977733e-01 -6.401623e-02
    outer loop
      vertex -1.715506e+01 1.656216e+02 -9.458603e+02
      vertex -4.108090e+01 1.660500e+02 -9.461787e+02
      vertex -1.663255e+01 1.659592e+02 -9.404466e+02
    endloop
  endfacet
  facet normal 4.820064e-15 3.809711e-15 1.000000e+00
    outer loop
      vertex -1.663255e+01 1.659592e+02 -9.404466e+02
      vertex -4.108090e+01 1.670500e+02 -9.404466e+02
      vertex -4.108090e+01 1.372087e+02 -9.404466e+02
    endloop
  endfacet
  facet normal 4.020028e-15 1.227300e-01 9.924401e-01
    outer loop
      vertex -1.475000e+01 1.372087e+02 -9.404466e+02
      vertex -4.108090e+01 1.372087e+02 -9.404466e+02
      vertex -4.515561e+01 1.024373e+02 -9.361466e+02
    endloop
  endfacet
  facet normal 4.317620e-15 4.236971e-15 1.000000e+00
    outer loop
      vertex -1.663255e+01 1.659592e+02 -9.404466e+02
      vertex -4.108090e+01 1.372087e+02 -9.404466e+02
      vertex -1.475000e+01 1.372087e+02 -9.404466e+02
    endloop
  endfacet
  facet normal 9.716927e-01 6.362534e-02 -2.275195e-01
    outer loop
      vertex -1.663255e+01 1.659592e+02 -9.404466e+02
      vertex -1.475000e+01 1.372087e+02 -9.404466e+02
      vertex -1.613197e+01 1.372087e+02 -9.463487e+02
    endloop
  endfacet
  facet normal 9.944481e-01 3.749849e-02 -9.831992e-02
    outer loop
      vertex -1.715506e+01 1.656216e+02 -9.458603e+02
      vertex -1.663255e+01 1.659592e+02 -9.404466e+02
      vertex -1.613197e+01 1.372087e+02 -9.463487e+02
    endloop
  endfacet
endsolid SIM_ICUB3_L_FOOT_FRONT
