solid SIM_ICUB3_R_FOREARM
  facet normal -9.160932e-01 -2.344771e-01 -3.252596e-01
    outer loop
      vertex 1.753638e+02 5.658183e+00 -2.630216e+02
      vertex 1.688110e+02 3.997277e+01 -2.693026e+02
      vertex 1.896869e+02 1.708226e+01 -3.115979e+02
    endloop
  endfacet
  facet normal -9.155638e-01 -2.433363e-01 -3.202036e-01
    outer loop
      vertex 1.848528e+02 4.137883e+01 -3.162396e+02
      vertex 1.896869e+02 1.708226e+01 -3.115979e+02
      vertex 1.688110e+02 3.997277e+01 -2.693026e+02
    endloop
  endfacet
  facet normal -6.984827e-01 -6.228296e-01 -3.524277e-01
    outer loop
      vertex 1.914044e+02 -4.787130e+00 -2.763532e+02
      vertex 1.753638e+02 5.658183e+00 -2.630216e+02
      vertex 1.896869e+02 1.708226e+01 -3.115979e+02
    endloop
  endfacet
  facet normal -7.521100e-01 -2.649261e-01 -6.034440e-01
    outer loop
      vertex 1.938571e+02 3.811489e+01 -3.260293e+02
      vertex 1.896869e+02 1.708226e+01 -3.115979e+02
      vertex 1.848528e+02 4.137883e+01 -3.162396e+02
    endloop
  endfacet
  facet normal -6.882865e-01 -6.309653e-01 -3.579728e-01
    outer loop
      vertex 1.991772e+02 9.181080e+00 -3.159187e+02
      vertex 1.914044e+02 -4.787130e+00 -2.763532e+02
      vertex 1.896869e+02 1.708226e+01 -3.115979e+02
    endloop
  endfacet
  facet normal -6.172021e-01 -3.582707e-01 -7.005024e-01
    outer loop
      vertex 1.938571e+02 3.811489e+01 -3.260293e+02
      vertex 1.991772e+02 9.181080e+00 -3.159187e+02
      vertex 1.896869e+02 1.708226e+01 -3.115979e+02
    endloop
  endfacet
  facet normal -9.335441e-01 -2.287853e-01 -2.759577e-01
    outer loop
      vertex 1.577314e+02 3.364875e+01 -2.265781e+02
      vertex 1.688110e+02 3.997277e+01 -2.693026e+02
      vertex 1.753638e+02 5.658183e+00 -2.630216e+02
    endloop
  endfacet
  facet normal -9.123547e-01 2.746678e-01 -3.035894e-01
    outer loop
      vertex 1.762233e+02 6.424271e+01 -2.696205e+02
      vertex 1.848528e+02 4.137883e+01 -3.162396e+02
      vertex 1.688110e+02 3.997277e+01 -2.693026e+02
    endloop
  endfacet
  facet normal -9.460154e-01 2.480671e-01 -2.086087e-01
    outer loop
      vertex 1.677174e+02 6.232055e+01 -2.377684e+02
      vertex 1.688110e+02 3.997277e+01 -2.693026e+02
      vertex 1.577314e+02 3.364875e+01 -2.265781e+02
    endloop
  endfacet
  facet normal -9.312086e-01 2.813679e-01 -2.316950e-01
    outer loop
      vertex 1.677174e+02 6.232055e+01 -2.377684e+02
      vertex 1.762233e+02 6.424271e+01 -2.696205e+02
      vertex 1.688110e+02 3.997277e+01 -2.693026e+02
    endloop
  endfacet
  facet normal -6.784965e-01 -6.765063e-01 -2.863245e-01
    outer loop
      vertex 1.825630e+02 -1.841400e+01 -2.232053e+02
      vertex 1.753638e+02 5.658183e+00 -2.630216e+02
      vertex 1.914044e+02 -4.787130e+00 -2.763532e+02
    endloop
  endfacet
  facet normal -9.333258e-01 -2.383016e-01 -2.685430e-01
    outer loop
      vertex 1.640199e+02 -2.501016e+00 -2.163553e+02
      vertex 1.577314e+02 3.364875e+01 -2.265781e+02
      vertex 1.753638e+02 5.658183e+00 -2.630216e+02
    endloop
  endfacet
  facet normal -6.826833e-01 -6.733978e-01 -2.836882e-01
    outer loop
      vertex 1.825630e+02 -1.841400e+01 -2.232053e+02
      vertex 1.640199e+02 -2.501016e+00 -2.163553e+02
      vertex 1.753638e+02 5.658183e+00 -2.630216e+02
    endloop
  endfacet
  facet normal -6.312213e-01 3.438434e-01 -6.952205e-01
    outer loop
      vertex 1.974592e+02 6.664055e+01 -3.151916e+02
      vertex 1.938571e+02 3.811489e+01 -3.260293e+02
      vertex 1.848528e+02 4.137883e+01 -3.162396e+02
    endloop
  endfacet
  facet normal -9.537630e-01 1.594780e-01 -2.547606e-01
    outer loop
      vertex 1.862440e+02 5.997033e+01 -3.098101e+02
      vertex 1.848528e+02 4.137883e+01 -3.162396e+02
      vertex 1.762233e+02 6.424271e+01 -2.696205e+02
    endloop
  endfacet
  facet normal -5.544592e-01 3.087555e-01 -7.728163e-01
    outer loop
      vertex 1.974592e+02 6.664055e+01 -3.151916e+02
      vertex 1.848528e+02 4.137883e+01 -3.162396e+02
      vertex 1.862440e+02 5.997033e+01 -3.098101e+02
    endloop
  endfacet
  facet normal -4.035311e-02 -9.396781e-01 -3.396715e-01
    outer loop
      vertex 2.316549e+02 -5.313154e+00 -2.796797e+02
      vertex 1.914044e+02 -4.787130e+00 -2.763532e+02
      vertex 1.991772e+02 9.181080e+00 -3.159187e+02
    endloop
  endfacet
  facet normal 1.201304e-01 -9.662774e-01 -2.277645e-01
    outer loop
      vertex 2.323625e+02 -1.204800e+01 -2.239468e+02
      vertex 1.825630e+02 -1.841400e+01 -2.232053e+02
      vertex 1.914044e+02 -4.787130e+00 -2.763532e+02
    endloop
  endfacet
  facet normal -2.286020e-02 -9.925528e-01 -1.196512e-01
    outer loop
      vertex 2.316549e+02 -5.313154e+00 -2.796797e+02
      vertex 2.323625e+02 -1.204800e+01 -2.239468e+02
      vertex 1.914044e+02 -4.787130e+00 -2.763532e+02
    endloop
  endfacet
  facet normal -6.747805e-01 -3.509439e-01 -6.492377e-01
    outer loop
      vertex 2.030434e+02 1.895092e+01 -3.252180e+02
      vertex 1.991772e+02 9.181080e+00 -3.159187e+02
      vertex 1.938571e+02 3.811489e+01 -3.260293e+02
    endloop
  endfacet
  facet normal 3.928413e-02 -6.970288e-01 -7.159662e-01
    outer loop
      vertex 2.237872e+02 6.846026e+00 -3.122951e+02
      vertex 1.991772e+02 9.181080e+00 -3.159187e+02
      vertex 2.030434e+02 1.895092e+01 -3.252180e+02
    endloop
  endfacet
  facet normal -3.894730e-02 -9.393314e-01 -3.407928e-01
    outer loop
      vertex 2.316549e+02 -5.313154e+00 -2.796797e+02
      vertex 1.991772e+02 9.181080e+00 -3.159187e+02
      vertex 2.237872e+02 6.846026e+00 -3.122951e+02
    endloop
  endfacet
  facet normal -5.805810e-01 3.522121e-01 -7.340793e-01
    outer loop
      vertex 2.287209e+02 7.346226e+01 -3.366433e+02
      vertex 1.938571e+02 3.811489e+01 -3.260293e+02
      vertex 1.974592e+02 6.664055e+01 -3.151916e+02
    endloop
  endfacet
  facet normal -5.729256e-01 -3.068094e-01 -7.600160e-01
    outer loop
      vertex 1.979717e+02 3.585854e+01 -3.282202e+02
      vertex 2.030434e+02 1.895092e+01 -3.252180e+02
      vertex 1.938571e+02 3.811489e+01 -3.260293e+02
    endloop
  endfacet
  facet normal -2.024639e-01 4.667230e-01 -8.609169e-01
    outer loop
      vertex 2.390191e+02 3.135847e+01 -3.403130e+02
      vertex 1.979717e+02 3.585854e+01 -3.282202e+02
      vertex 1.938571e+02 3.811489e+01 -3.260293e+02
    endloop
  endfacet
  facet normal -3.002193e-01 9.702246e-03 -9.538209e-01
    outer loop
      vertex 2.287209e+02 7.346226e+01 -3.366433e+02
      vertex 2.390191e+02 3.135847e+01 -3.403130e+02
      vertex 1.938571e+02 3.811489e+01 -3.260293e+02
    endloop
  endfacet
  facet normal -9.853071e-01 -1.466436e-01 8.755292e-02
    outer loop
      vertex 1.598098e+02 2.888492e+01 -2.111665e+02
      vertex 1.577314e+02 3.364875e+01 -2.265781e+02
      vertex 1.640199e+02 -2.501016e+00 -2.163553e+02
    endloop
  endfacet
  facet normal -6.192658e-01 7.227140e-01 3.069110e-01
    outer loop
      vertex 1.836476e+02 4.054252e+01 -1.905194e+02
      vertex 1.577314e+02 3.364875e+01 -2.265781e+02
      vertex 1.598098e+02 2.888492e+01 -2.111665e+02
    endloop
  endfacet
  facet normal -7.645718e-01 4.473790e-01 4.639849e-01
    outer loop
      vertex 1.836476e+02 4.054252e+01 -1.905194e+02
      vertex 1.677174e+02 6.232055e+01 -2.377684e+02
      vertex 1.577314e+02 3.364875e+01 -2.265781e+02
    endloop
  endfacet
  facet normal -5.390862e-01 -7.725757e-01 3.354294e-01
    outer loop
      vertex 1.919024e+02 -1.392690e+01 -1.978605e+02
      vertex 1.640199e+02 -2.501016e+00 -2.163553e+02
      vertex 1.825630e+02 -1.841400e+01 -2.232053e+02
    endloop
  endfacet
  facet normal -8.842728e-01 -1.891972e-01 4.269262e-01
    outer loop
      vertex 1.680816e+02 -4.538325e+00 -2.088454e+02
      vertex 1.598098e+02 2.888492e+01 -2.111665e+02
      vertex 1.640199e+02 -2.501016e+00 -2.163553e+02
    endloop
  endfacet
  facet normal -3.365165e-01 -9.388674e-01 -7.269541e-02
    outer loop
      vertex 1.919024e+02 -1.392690e+01 -1.978605e+02
      vertex 1.680816e+02 -4.538325e+00 -2.088454e+02
      vertex 1.640199e+02 -2.501016e+00 -2.163553e+02
    endloop
  endfacet
  facet normal -8.350238e-01 -3.994197e-01 3.784166e-01
    outer loop
      vertex 1.904983e+02 -2.389685e+01 -2.114822e+02
      vertex 1.919024e+02 -1.392690e+01 -1.978605e+02
      vertex 1.825630e+02 -1.841400e+01 -2.232053e+02
    endloop
  endfacet
  facet normal 1.043354e-01 -8.719136e-01 -4.784149e-01
    outer loop
      vertex 2.323625e+02 -1.204800e+01 -2.239468e+02
      vertex 1.904983e+02 -2.389685e+01 -2.114822e+02
      vertex 1.825630e+02 -1.841400e+01 -2.232053e+02
    endloop
  endfacet
  facet normal -6.234339e-01 -1.004433e-01 7.753976e-01
    outer loop
      vertex 1.863268e+02 4.051487e+01 -1.883398e+02
      vertex 1.598098e+02 2.888492e+01 -2.111665e+02
      vertex 1.680816e+02 -4.538325e+00 -2.088454e+02
    endloop
  endfacet
  facet normal -5.348663e-01 8.200585e-01 2.035244e-01
    outer loop
      vertex 1.921143e+02 4.422520e+01 -1.880802e+02
      vertex 1.598098e+02 2.888492e+01 -2.111665e+02
      vertex 1.863268e+02 4.051487e+01 -1.883398e+02
    endloop
  endfacet
  facet normal 3.763662e-01 -9.224433e-01 8.629548e-02
    outer loop
      vertex 1.921143e+02 4.422520e+01 -1.880802e+02
      vertex 1.836476e+02 4.054252e+01 -1.905194e+02
      vertex 1.598098e+02 2.888492e+01 -2.111665e+02
    endloop
  endfacet
  facet normal -4.738811e-01 -1.985622e-01 8.579101e-01
    outer loop
      vertex 1.863268e+02 4.051487e+01 -1.883398e+02
      vertex 1.680816e+02 -4.538325e+00 -2.088454e+02
      vertex 1.919024e+02 -1.392690e+01 -1.978605e+02
    endloop
  endfacet
  facet normal 8.129510e-02 -1.636091e-01 9.831700e-01
    outer loop
      vertex 2.337493e+02 3.772197e+01 -1.927258e+02
      vertex 1.863268e+02 4.051487e+01 -1.883398e+02
      vertex 1.919024e+02 -1.392690e+01 -1.978605e+02
    endloop
  endfacet
  facet normal -7.216546e-01 -5.210556e-01 4.557583e-01
    outer loop
      vertex 1.941081e+02 -2.381244e+01 -2.056699e+02
      vertex 1.919024e+02 -1.392690e+01 -1.978605e+02
      vertex 1.904983e+02 -2.389685e+01 -2.114822e+02
    endloop
  endfacet
  facet normal 1.210463e-02 -6.181793e-01 7.859439e-01
    outer loop
      vertex 2.310752e+02 -7.115652e+00 -1.931065e+02
      vertex 1.919024e+02 -1.392690e+01 -1.978605e+02
      vertex 1.941081e+02 -2.381244e+01 -2.056699e+02
    endloop
  endfacet
  facet normal -1.202612e-01 -1.255934e-03 9.927415e-01
    outer loop
      vertex 2.337493e+02 3.772197e+01 -1.927258e+02
      vertex 1.919024e+02 -1.392690e+01 -1.978605e+02
      vertex 2.310752e+02 -7.115652e+00 -1.931065e+02
    endloop
  endfacet
  facet normal 1.731361e-01 -3.348863e-01 9.262154e-01
    outer loop
      vertex 2.303133e+02 4.904075e+01 -1.934795e+02
      vertex 1.921143e+02 4.422520e+01 -1.880802e+02
      vertex 1.863268e+02 4.051487e+01 -1.883398e+02
    endloop
  endfacet
  facet normal 9.724799e-02 9.548905e-02 9.906688e-01
    outer loop
      vertex 2.303133e+02 4.904075e+01 -1.934795e+02
      vertex 1.863268e+02 4.051487e+01 -1.883398e+02
      vertex 2.337493e+02 3.772197e+01 -1.927258e+02
    endloop
  endfacet
  facet normal -6.908657e-01 6.803556e-01 -2.445830e-01
    outer loop
      vertex 1.928581e+02 7.762797e+01 -2.793745e+02
      vertex 1.862440e+02 5.997033e+01 -3.098101e+02
      vertex 1.762233e+02 6.424271e+01 -2.696205e+02
    endloop
  endfacet
  facet normal -6.516569e-01 7.547320e-01 -7.564957e-02
    outer loop
      vertex 1.903299e+02 7.952184e+01 -2.387013e+02
      vertex 1.928581e+02 7.762797e+01 -2.793745e+02
      vertex 1.762233e+02 6.424271e+01 -2.696205e+02
    endloop
  endfacet
  facet normal -6.044706e-01 7.884514e-01 -1.138407e-01
    outer loop
      vertex 1.903299e+02 7.952184e+01 -2.387013e+02
      vertex 1.762233e+02 6.424271e+01 -2.696205e+02
      vertex 1.677174e+02 6.232055e+01 -2.377684e+02
    endloop
  endfacet
  facet normal -5.906681e-01 7.470345e-01 -3.050421e-01
    outer loop
      vertex 1.974592e+02 6.664055e+01 -3.151916e+02
      vertex 1.862440e+02 5.997033e+01 -3.098101e+02
      vertex 1.928581e+02 7.762797e+01 -2.793745e+02
    endloop
  endfacet
  facet normal -8.259185e-02 9.497374e-01 -3.019560e-01
    outer loop
      vertex 2.316370e+02 7.933845e+01 -2.846015e+02
      vertex 1.974592e+02 6.664055e+01 -3.151916e+02
      vertex 1.928581e+02 7.762797e+01 -2.793745e+02
    endloop
  endfacet
  facet normal 1.261781e-01 9.912675e-01 -3.831323e-02
    outer loop
      vertex 2.248269e+02 7.549104e+01 -2.293790e+02
      vertex 1.928581e+02 7.762797e+01 -2.793745e+02
      vertex 1.903299e+02 7.952184e+01 -2.387013e+02
    endloop
  endfacet
  facet normal -3.520744e-02 9.972550e-01 6.513788e-02
    outer loop
      vertex 2.248269e+02 7.549104e+01 -2.293790e+02
      vertex 2.316370e+02 7.933845e+01 -2.846015e+02
      vertex 1.928581e+02 7.762797e+01 -2.793745e+02
    endloop
  endfacet
  facet normal -2.726765e-01 9.576151e-01 -9.284823e-02
    outer loop
      vertex 2.287209e+02 7.346226e+01 -3.366433e+02
      vertex 1.974592e+02 6.664055e+01 -3.151916e+02
      vertex 2.316370e+02 7.933845e+01 -2.846015e+02
    endloop
  endfacet
  facet normal -5.095984e-01 6.972498e-01 5.041350e-01
    outer loop
      vertex 1.921143e+02 4.422520e+01 -1.880802e+02
      vertex 1.903299e+02 7.952184e+01 -2.387013e+02
      vertex 1.677174e+02 6.232055e+01 -2.377684e+02
    endloop
  endfacet
  facet normal -4.625451e-01 7.355571e-01 4.949826e-01
    outer loop
      vertex 1.921143e+02 4.422520e+01 -1.880802e+02
      vertex 1.677174e+02 6.232055e+01 -2.377684e+02
      vertex 1.836476e+02 4.054252e+01 -1.905194e+02
    endloop
  endfacet
  facet normal -2.243574e-02 8.197046e-01 5.723469e-01
    outer loop
      vertex 2.303133e+02 4.904075e+01 -1.934795e+02
      vertex 1.903299e+02 7.952184e+01 -2.387013e+02
      vertex 1.921143e+02 4.422520e+01 -1.880802e+02
    endloop
  endfacet
  facet normal -6.848641e-02 7.981594e-01 5.985409e-01
    outer loop
      vertex 2.303133e+02 4.904075e+01 -1.934795e+02
      vertex 2.248269e+02 7.549104e+01 -2.293790e+02
      vertex 1.903299e+02 7.952184e+01 -2.387013e+02
    endloop
  endfacet
  facet normal 1.681412e-01 -9.816303e-01 -9.016918e-02
    outer loop
      vertex 2.186779e+02 -2.009547e+01 -2.003186e+02
      vertex 1.941081e+02 -2.381244e+01 -2.056699e+02
      vertex 1.904983e+02 -2.389685e+01 -2.114822e+02
    endloop
  endfacet
  facet normal -1.575550e-01 -3.952976e-01 -9.049399e-01
    outer loop
      vertex 2.323625e+02 -1.204800e+01 -2.239468e+02
      vertex 2.182385e+02 -1.962902e+01 -2.181762e+02
      vertex 1.904983e+02 -2.389685e+01 -2.114822e+02
    endloop
  endfacet
  facet normal 1.450603e-01 -9.889858e-01 -2.940266e-02
    outer loop
      vertex 2.186779e+02 -2.009547e+01 -2.003186e+02
      vertex 1.904983e+02 -2.389685e+01 -2.114822e+02
      vertex 2.182385e+02 -1.962902e+01 -2.181762e+02
    endloop
  endfacet
  facet normal -1.433361e-01 -3.725486e-01 9.168764e-01
    outer loop
      vertex 2.186779e+02 -2.009547e+01 -2.003186e+02
      vertex 2.310752e+02 -7.115652e+00 -1.931065e+02
      vertex 1.941081e+02 -2.381244e+01 -2.056699e+02
    endloop
  endfacet
  facet normal 5.159211e-01 -8.422676e-01 1.562394e-01
    outer loop
      vertex 2.323625e+02 -1.204800e+01 -2.239468e+02
      vertex 2.310752e+02 -7.115652e+00 -1.931065e+02
      vertex 2.182385e+02 -1.962902e+01 -2.181762e+02
    endloop
  endfacet
  facet normal 7.325406e-01 -6.797822e-01 -3.578216e-02
    outer loop
      vertex 2.186779e+02 -2.009547e+01 -2.003186e+02
      vertex 2.182385e+02 -1.962902e+01 -2.181762e+02
      vertex 2.310752e+02 -7.115652e+00 -1.931065e+02
    endloop
  endfacet
  facet normal 6.310014e-01 -7.615088e-01 1.481268e-01
    outer loop
      vertex 2.405706e+02 3.940215e-01 -1.949488e+02
      vertex 2.310752e+02 -7.115652e+00 -1.931065e+02
      vertex 2.323625e+02 -1.204800e+01 -2.239468e+02
    endloop
  endfacet
  facet normal 2.221067e-01 -2.152202e-02 9.747848e-01
    outer loop
      vertex 2.423995e+02 2.758602e+01 -1.949206e+02
      vertex 2.337493e+02 3.772197e+01 -1.927258e+02
      vertex 2.310752e+02 -7.115652e+00 -1.931065e+02
    endloop
  endfacet
  facet normal 2.015416e-01 -1.457118e-02 9.793716e-01
    outer loop
      vertex 2.405706e+02 3.940215e-01 -1.949488e+02
      vertex 2.423995e+02 2.758602e+01 -1.949206e+02
      vertex 2.310752e+02 -7.115652e+00 -1.931065e+02
    endloop
  endfacet
  facet normal 7.056023e-01 -7.023678e-01 -9.383376e-02
    outer loop
      vertex 2.456413e+02 1.865939e+00 -2.282432e+02
      vertex 2.323625e+02 -1.204800e+01 -2.239468e+02
      vertex 2.316549e+02 -5.313154e+00 -2.796797e+02
    endloop
  endfacet
  facet normal 7.335026e-01 -6.747364e-01 8.188211e-02
    outer loop
      vertex 2.405706e+02 3.940215e-01 -1.949488e+02
      vertex 2.323625e+02 -1.204800e+01 -2.239468e+02
      vertex 2.456413e+02 1.865939e+00 -2.282432e+02
    endloop
  endfacet
  facet normal -3.782793e-01 -2.706575e-01 -8.852397e-01
    outer loop
      vertex 2.354157e+02 2.993385e+01 -3.424093e+02
      vertex 2.030434e+02 1.895092e+01 -3.252180e+02
      vertex 1.979717e+02 3.585854e+01 -3.282202e+02
    endloop
  endfacet
  facet normal -4.964766e-01 1.170451e-01 -8.601229e-01
    outer loop
      vertex 2.354157e+02 2.993385e+01 -3.424093e+02
      vertex 2.346136e+02 2.575898e+01 -3.425144e+02
      vertex 2.030434e+02 1.895092e+01 -3.252180e+02
    endloop
  endfacet
  facet normal -1.296542e-01 -8.189649e-01 -5.590047e-01
    outer loop
      vertex 2.237872e+02 6.846026e+00 -3.122951e+02
      vertex 2.030434e+02 1.895092e+01 -3.252180e+02
      vertex 2.346136e+02 2.575898e+01 -3.425144e+02
    endloop
  endfacet
  facet normal -5.203007e-02 8.652696e-01 -4.985993e-01
    outer loop
      vertex 2.354157e+02 2.993385e+01 -3.424093e+02
      vertex 1.979717e+02 3.585854e+01 -3.282202e+02
      vertex 2.390191e+02 3.135847e+01 -3.403130e+02
    endloop
  endfacet
  facet normal 5.245250e-01 -7.941899e-02 -8.476828e-01
    outer loop
      vertex 2.354157e+02 2.993385e+01 -3.424093e+02
      vertex 2.390191e+02 3.135847e+01 -3.403130e+02
      vertex 2.346136e+02 2.575898e+01 -3.425144e+02
    endloop
  endfacet
  facet normal 7.991590e-01 -5.949313e-01 -8.603251e-02
    outer loop
      vertex 2.237872e+02 6.846026e+00 -3.122951e+02
      vertex 2.346136e+02 2.575898e+01 -3.425144e+02
      vertex 2.390191e+02 3.135847e+01 -3.403130e+02
    endloop
  endfacet
  facet normal 6.876753e-01 -6.889821e-01 -2.289244e-01
    outer loop
      vertex 2.553623e+02 3.832804e+01 -3.121950e+02
      vertex 2.237872e+02 6.846026e+00 -3.122951e+02
      vertex 2.390191e+02 3.135847e+01 -3.403130e+02
    endloop
  endfacet
  facet normal 8.169994e-01 2.453148e-01 -5.218549e-01
    outer loop
      vertex 2.487416e+02 6.299036e+01 -3.102222e+02
      vertex 2.390191e+02 3.135847e+01 -3.403130e+02
      vertex 2.287209e+02 7.346226e+01 -3.366433e+02
    endloop
  endfacet
  facet normal 8.058204e-01 2.589260e-01 -5.325512e-01
    outer loop
      vertex 2.487416e+02 6.299036e+01 -3.102222e+02
      vertex 2.553623e+02 3.832804e+01 -3.121950e+02
      vertex 2.390191e+02 3.135847e+01 -3.403130e+02
    endloop
  endfacet
  facet normal 5.654752e-01 -7.188236e-01 -4.043889e-01
    outer loop
      vertex 2.520930e+02 1.120231e+01 -2.804572e+02
      vertex 2.316549e+02 -5.313154e+00 -2.796797e+02
      vertex 2.237872e+02 6.846026e+00 -3.122951e+02
    endloop
  endfacet
  facet normal 3.586169e-01 -3.569366e-01 -8.625486e-01
    outer loop
      vertex 2.553623e+02 3.832804e+01 -3.121950e+02
      vertex 2.519179e+02 1.877612e+01 -3.055362e+02
      vertex 2.237872e+02 6.846026e+00 -3.122951e+02
    endloop
  endfacet
  facet normal 4.296355e-01 -8.636078e-01 -2.638083e-01
    outer loop
      vertex 2.520930e+02 1.120231e+01 -2.804572e+02
      vertex 2.237872e+02 6.846026e+00 -3.122951e+02
      vertex 2.519179e+02 1.877612e+01 -3.055362e+02
    endloop
  endfacet
  facet normal 6.258970e-01 -7.774629e-01 -6.167947e-02
    outer loop
      vertex 2.456413e+02 1.865939e+00 -2.282432e+02
      vertex 2.316549e+02 -5.313154e+00 -2.796797e+02
      vertex 2.520930e+02 1.120231e+01 -2.804572e+02
    endloop
  endfacet
  facet normal 7.834179e-01 2.749332e-01 5.573762e-01
    outer loop
      vertex 2.367770e+02 5.317003e+01 -2.046014e+02
      vertex 2.303133e+02 4.904075e+01 -1.934795e+02
      vertex 2.337493e+02 3.772197e+01 -1.927258e+02
    endloop
  endfacet
  facet normal 6.296533e-01 3.921426e-01 6.706421e-01
    outer loop
      vertex 2.367770e+02 5.317003e+01 -2.046014e+02
      vertex 2.337493e+02 3.772197e+01 -1.927258e+02
      vertex 2.423995e+02 2.758602e+01 -1.949206e+02
    endloop
  endfacet
  facet normal 5.658635e-01 8.151594e-01 -1.237487e-01
    outer loop
      vertex 2.504443e+02 6.529035e+01 -2.911394e+02
      vertex 2.287209e+02 7.346226e+01 -3.366433e+02
      vertex 2.316370e+02 7.933845e+01 -2.846015e+02
    endloop
  endfacet
  facet normal 6.489685e-01 7.492362e-01 1.322310e-01
    outer loop
      vertex 2.403320e+02 6.353347e+01 -2.377224e+02
      vertex 2.316370e+02 7.933845e+01 -2.846015e+02
      vertex 2.248269e+02 7.549104e+01 -2.293790e+02
    endloop
  endfacet
  facet normal 6.237574e-01 7.683594e-01 1.433543e-01
    outer loop
      vertex 2.403320e+02 6.353347e+01 -2.377224e+02
      vertex 2.504443e+02 6.529035e+01 -2.911394e+02
      vertex 2.316370e+02 7.933845e+01 -2.846015e+02
    endloop
  endfacet
  facet normal 6.048963e-01 7.823788e-01 -1.482697e-01
    outer loop
      vertex 2.487416e+02 6.299036e+01 -3.102222e+02
      vertex 2.287209e+02 7.346226e+01 -3.366433e+02
      vertex 2.504443e+02 6.529035e+01 -2.911394e+02
    endloop
  endfacet
  facet normal 3.836840e-01 7.704897e-01 5.090503e-01
    outer loop
      vertex 2.367770e+02 5.317003e+01 -2.046014e+02
      vertex 2.248269e+02 7.549104e+01 -2.293790e+02
      vertex 2.303133e+02 4.904075e+01 -1.934795e+02
    endloop
  endfacet
  facet normal 6.768158e-01 6.787377e-01 2.850186e-01
    outer loop
      vertex 2.367770e+02 5.317003e+01 -2.046014e+02
      vertex 2.403320e+02 6.353347e+01 -2.377224e+02
      vertex 2.248269e+02 7.549104e+01 -2.293790e+02
    endloop
  endfacet
  facet normal 9.567894e-01 -2.294070e-01 -1.786797e-01
    outer loop
      vertex 2.553623e+02 3.832804e+01 -3.121950e+02
      vertex 2.593451e+02 3.589301e+01 -2.877418e+02
      vertex 2.519179e+02 1.877612e+01 -3.055362e+02
    endloop
  endfacet
  facet normal 9.464043e-01 -3.073041e-01 -9.941368e-02
    outer loop
      vertex 2.520930e+02 1.120231e+01 -2.804572e+02
      vertex 2.519179e+02 1.877612e+01 -3.055362e+02
      vertex 2.593451e+02 3.589301e+01 -2.877418e+02
    endloop
  endfacet
  facet normal 9.532265e-01 2.738213e-01 -1.279884e-01
    outer loop
      vertex 2.504443e+02 6.529035e+01 -2.911394e+02
      vertex 2.593451e+02 3.589301e+01 -2.877418e+02
      vertex 2.553623e+02 3.832804e+01 -3.121950e+02
    endloop
  endfacet
  facet normal 9.609414e-01 -2.433649e-01 1.317772e-01
    outer loop
      vertex 2.509448e+02 3.241750e+01 -2.329043e+02
      vertex 2.520930e+02 1.120231e+01 -2.804572e+02
      vertex 2.593451e+02 3.589301e+01 -2.877418e+02
    endloop
  endfacet
  facet normal 9.257316e-01 3.410483e-01 1.634227e-01
    outer loop
      vertex 2.403320e+02 6.353347e+01 -2.377224e+02
      vertex 2.509448e+02 3.241750e+01 -2.329043e+02
      vertex 2.593451e+02 3.589301e+01 -2.877418e+02
    endloop
  endfacet
  facet normal 9.340422e-01 3.043979e-01 1.868345e-01
    outer loop
      vertex 2.403320e+02 6.353347e+01 -2.377224e+02
      vertex 2.593451e+02 3.589301e+01 -2.877418e+02
      vertex 2.504443e+02 6.529035e+01 -2.911394e+02
    endloop
  endfacet
  facet normal 9.567263e-01 2.662323e-01 -1.174530e-01
    outer loop
      vertex 2.487416e+02 6.299036e+01 -3.102222e+02
      vertex 2.504443e+02 6.529035e+01 -2.911394e+02
      vertex 2.553623e+02 3.832804e+01 -3.121950e+02
    endloop
  endfacet
  facet normal 9.832530e-01 -1.564179e-01 9.352561e-02
    outer loop
      vertex 2.456413e+02 1.865939e+00 -2.282432e+02
      vertex 2.520930e+02 1.120231e+01 -2.804572e+02
      vertex 2.509448e+02 3.241750e+01 -2.329043e+02
    endloop
  endfacet
  facet normal 9.699223e-01 -1.377551e-01 2.006845e-01
    outer loop
      vertex 2.423995e+02 2.758602e+01 -1.949206e+02
      vertex 2.456413e+02 1.865939e+00 -2.282432e+02
      vertex 2.509448e+02 3.241750e+01 -2.329043e+02
    endloop
  endfacet
  facet normal 9.232370e-01 2.957225e-01 2.453194e-01
    outer loop
      vertex 2.367770e+02 5.317003e+01 -2.046014e+02
      vertex 2.423995e+02 2.758602e+01 -1.949206e+02
      vertex 2.509448e+02 3.241750e+01 -2.329043e+02
    endloop
  endfacet
  facet normal 9.159641e-01 3.443170e-01 2.060476e-01
    outer loop
      vertex 2.367770e+02 5.317003e+01 -2.046014e+02
      vertex 2.509448e+02 3.241750e+01 -2.329043e+02
      vertex 2.403320e+02 6.353347e+01 -2.377224e+02
    endloop
  endfacet
  facet normal 9.868438e-01 -6.652818e-02 1.473541e-01
    outer loop
      vertex 2.405706e+02 3.940215e-01 -1.949488e+02
      vertex 2.456413e+02 1.865939e+00 -2.282432e+02
      vertex 2.423995e+02 2.758602e+01 -1.949206e+02
    endloop
  endfacet
endsolid SIM_ICUB3_R_FOREARM
