solid SIM_ICUB3_R_UPPERARM
  facet normal -6.811122e-01 -7.104936e-01 -1.768756e-01
    outer loop
      vertex 1.433328e+02 -3.251659e+01 -4.314921e+01
      vertex 1.310242e+02 -1.880166e+01 -5.084311e+01
      vertex 1.472872e+02 -2.384580e+01 -9.320681e+01
    endloop
  endfacet
  facet normal -6.850931e-01 -7.061404e-01 -1.789222e-01
    outer loop
      vertex 1.389778e+02 -1.430177e+01 -9.905682e+01
      vertex 1.472872e+02 -2.384580e+01 -9.320681e+01
      vertex 1.310242e+02 -1.880166e+01 -5.084311e+01
    endloop
  endfacet
  facet normal -1.123613e-01 -9.775571e-01 -1.782051e-01
    outer loop
      vertex 1.626630e+02 -3.580793e+01 -3.728234e+01
      vertex 1.433328e+02 -3.251659e+01 -4.314921e+01
      vertex 1.472872e+02 -2.384580e+01 -9.320681e+01
    endloop
  endfacet
  facet normal -4.751353e-01 -7.219774e-01 -5.029861e-01
    outer loop
      vertex 1.701335e+02 -2.985592e+01 -1.061613e+02
      vertex 1.472872e+02 -2.384580e+01 -9.320681e+01
      vertex 1.389778e+02 -1.430177e+01 -9.905682e+01
    endloop
  endfacet
  facet normal -3.062837e-01 -9.465665e-01 -1.010057e-01
    outer loop
      vertex 1.701335e+02 -2.985592e+01 -1.061613e+02
      vertex 1.712482e+02 -3.068328e+01 -1.017879e+02
      vertex 1.472872e+02 -2.384580e+01 -9.320681e+01
    endloop
  endfacet
  facet normal -3.108387e-01 -9.433189e-01 -1.163127e-01
    outer loop
      vertex 1.626630e+02 -3.580793e+01 -3.728234e+01
      vertex 1.472872e+02 -2.384580e+01 -9.320681e+01
      vertex 1.712482e+02 -3.068328e+01 -1.017879e+02
    endloop
  endfacet
  facet normal -7.834057e-01 -5.844044e-01 2.115349e-01
    outer loop
      vertex 1.422185e+02 -2.695198e+01 -3.190244e+01
      vertex 1.310242e+02 -1.880166e+01 -5.084311e+01
      vertex 1.433328e+02 -3.251659e+01 -4.314921e+01
    endloop
  endfacet
  facet normal -9.121904e-01 -3.658187e-01 -1.846224e-01
    outer loop
      vertex 1.163176e+02 1.651848e+01 -4.816519e+01
      vertex 1.389778e+02 -1.430177e+01 -9.905682e+01
      vertex 1.310242e+02 -1.880166e+01 -5.084311e+01
    endloop
  endfacet
  facet normal -8.688286e-01 -3.246983e-01 3.737751e-01
    outer loop
      vertex 1.224821e+02 1.715692e+01 -3.946165e+01
      vertex 1.310242e+02 -1.880166e+01 -5.084311e+01
      vertex 1.422185e+02 -2.695198e+01 -3.190244e+01
    endloop
  endfacet
  facet normal -7.504967e-01 -3.547656e-01 5.575806e-01
    outer loop
      vertex 1.224821e+02 1.715692e+01 -3.946165e+01
      vertex 1.163176e+02 1.651848e+01 -4.816519e+01
      vertex 1.310242e+02 -1.880166e+01 -5.084311e+01
    endloop
  endfacet
  facet normal -2.554980e-01 -9.078273e-01 3.325212e-01
    outer loop
      vertex 1.649106e+02 -3.270634e+01 -2.708758e+01
      vertex 1.433328e+02 -3.251659e+01 -4.314921e+01
      vertex 1.626630e+02 -3.580793e+01 -3.728234e+01
    endloop
  endfacet
  facet normal -8.065277e-01 -5.577423e-01 1.960524e-01
    outer loop
      vertex 1.448826e+02 -3.111019e+01 -3.277229e+01
      vertex 1.422185e+02 -2.695198e+01 -3.190244e+01
      vertex 1.433328e+02 -3.251659e+01 -4.314921e+01
    endloop
  endfacet
  facet normal -1.210626e-01 -9.810850e-01 1.510501e-01
    outer loop
      vertex 1.649106e+02 -3.270634e+01 -2.708758e+01
      vertex 1.448826e+02 -3.111019e+01 -3.277229e+01
      vertex 1.433328e+02 -3.251659e+01 -4.314921e+01
    endloop
  endfacet
  facet normal -4.760069e-01 -8.494396e-01 -2.277493e-01
    outer loop
      vertex 1.498211e+02 -5.873791e+00 -1.531539e+02
      vertex 1.701335e+02 -2.985592e+01 -1.061613e+02
      vertex 1.389778e+02 -1.430177e+01 -9.905682e+01
    endloop
  endfacet
  facet normal -9.052953e-01 -3.528981e-01 -2.364389e-01
    outer loop
      vertex 1.274706e+02 1.821155e+01 -1.035251e+02
      vertex 1.498211e+02 -5.873791e+00 -1.531539e+02
      vertex 1.389778e+02 -1.430177e+01 -9.905682e+01
    endloop
  endfacet
  facet normal -9.158122e-01 -3.509577e-01 -1.952350e-01
    outer loop
      vertex 1.163176e+02 1.651848e+01 -4.816519e+01
      vertex 1.274706e+02 1.821155e+01 -1.035251e+02
      vertex 1.389778e+02 -1.430177e+01 -9.905682e+01
    endloop
  endfacet
  facet normal 4.907140e-01 8.704206e-01 3.959444e-02
    outer loop
      vertex 1.701335e+02 -2.985592e+01 -1.061613e+02
      vertex 1.695117e+02 -3.216419e+01 -4.771085e+01
      vertex 1.712482e+02 -3.068328e+01 -1.017879e+02
    endloop
  endfacet
  facet normal 4.582103e-01 -8.887917e-01 -9.625736e-03
    outer loop
      vertex 1.626630e+02 -3.580793e+01 -3.728234e+01
      vertex 1.712482e+02 -3.068328e+01 -1.017879e+02
      vertex 1.695117e+02 -3.216419e+01 -4.771085e+01
    endloop
  endfacet
  facet normal 4.748019e-01 -8.795919e-01 -2.968455e-02
    outer loop
      vertex 1.995046e+02 -1.574888e+01 -5.438313e+01
      vertex 1.695117e+02 -3.216419e+01 -4.771085e+01
      vertex 1.701335e+02 -2.985592e+01 -1.061613e+02
    endloop
  endfacet
  facet normal 4.818384e-01 -8.761997e-01 1.029123e-02
    outer loop
      vertex 1.995046e+02 -1.574888e+01 -5.438313e+01
      vertex 1.626630e+02 -3.580793e+01 -3.728234e+01
      vertex 1.695117e+02 -3.216419e+01 -4.771085e+01
    endloop
  endfacet
  facet normal -5.648908e-01 -8.078598e-01 -1.681098e-01
    outer loop
      vertex 1.740337e+02 -2.086083e+01 -1.624931e+02
      vertex 1.701335e+02 -2.985592e+01 -1.061613e+02
      vertex 1.498211e+02 -5.873791e+00 -1.531539e+02
    endloop
  endfacet
  facet normal 3.054993e-01 -9.433474e-01 -1.294828e-01
    outer loop
      vertex 2.098710e+02 -1.659008e+01 -1.090539e+02
      vertex 1.701335e+02 -2.985592e+01 -1.061613e+02
      vertex 1.740337e+02 -2.086083e+01 -1.624931e+02
    endloop
  endfacet
  facet normal 3.206879e-01 -9.441843e-01 7.533472e-02
    outer loop
      vertex 2.098710e+02 -1.659008e+01 -1.090539e+02
      vertex 1.995046e+02 -1.574888e+01 -5.438313e+01
      vertex 1.701335e+02 -2.985592e+01 -1.061613e+02
    endloop
  endfacet
  facet normal 2.921672e-01 -9.309955e-01 2.188282e-01
    outer loop
      vertex 1.832934e+02 -2.674016e+01 -2.624850e+01
      vertex 1.649106e+02 -3.270634e+01 -2.708758e+01
      vertex 1.626630e+02 -3.580793e+01 -3.728234e+01
    endloop
  endfacet
  facet normal -5.806615e-01 5.757113e-01 -5.756638e-01
    outer loop
      vertex 1.995046e+02 -1.574888e+01 -5.438313e+01
      vertex 1.901281e+02 -2.537909e+01 -5.455623e+01
      vertex 1.626630e+02 -3.580793e+01 -3.728234e+01
    endloop
  endfacet
  facet normal 3.805389e-01 -9.235456e-01 4.747320e-02
    outer loop
      vertex 1.832934e+02 -2.674016e+01 -2.624850e+01
      vertex 1.626630e+02 -3.580793e+01 -3.728234e+01
      vertex 1.901281e+02 -2.537909e+01 -5.455623e+01
    endloop
  endfacet
  facet normal -2.474801e-01 -3.477357e-01 9.043415e-01
    outer loop
      vertex 1.748631e+02 -2.529052e+01 -2.233014e+01
      vertex 1.422185e+02 -2.695198e+01 -3.190244e+01
      vertex 1.448826e+02 -3.111019e+01 -3.277229e+01
    endloop
  endfacet
  facet normal -2.820836e-01 1.574852e-02 9.592606e-01
    outer loop
      vertex 1.868461e+02 1.315083e+01 -1.943748e+01
      vertex 1.422185e+02 -2.695198e+01 -3.190244e+01
      vertex 1.748631e+02 -2.529052e+01 -2.233014e+01
    endloop
  endfacet
  facet normal -2.951220e-01 3.160200e-02 9.549368e-01
    outer loop
      vertex 1.868461e+02 1.315083e+01 -1.943748e+01
      vertex 1.224821e+02 1.715692e+01 -3.946165e+01
      vertex 1.422185e+02 -2.695198e+01 -3.190244e+01
    endloop
  endfacet
  facet normal -2.825469e-01 -2.198148e-01 9.337284e-01
    outer loop
      vertex 1.748631e+02 -2.529052e+01 -2.233014e+01
      vertex 1.448826e+02 -3.111019e+01 -3.277229e+01
      vertex 1.649106e+02 -3.270634e+01 -2.708758e+01
    endloop
  endfacet
  facet normal 5.640766e-01 -8.198880e-01 9.798553e-02
    outer loop
      vertex 1.919075e+02 -1.352512e+01 -2.200439e+01
      vertex 1.748631e+02 -2.529052e+01 -2.233014e+01
      vertex 1.649106e+02 -3.270634e+01 -2.708758e+01
    endloop
  endfacet
  facet normal 6.953068e-02 -3.458353e-01 9.357155e-01
    outer loop
      vertex 1.832934e+02 -2.674016e+01 -2.624850e+01
      vertex 1.919075e+02 -1.352512e+01 -2.200439e+01
      vertex 1.649106e+02 -3.270634e+01 -2.708758e+01
    endloop
  endfacet
  facet normal 1.507251e-01 -1.208157e-01 9.811654e-01
    outer loop
      vertex 1.956165e+02 1.174717e+01 -2.095763e+01
      vertex 1.868461e+02 1.315083e+01 -1.943748e+01
      vertex 1.748631e+02 -2.529052e+01 -2.233014e+01
    endloop
  endfacet
  facet normal 1.053698e-02 -4.292533e-02 9.990227e-01
    outer loop
      vertex 1.956165e+02 1.174717e+01 -2.095763e+01
      vertex 1.748631e+02 -2.529052e+01 -2.233014e+01
      vertex 1.919075e+02 -1.352512e+01 -2.200439e+01
    endloop
  endfacet
  facet normal -9.078830e-01 -3.551067e-01 -2.228174e-01
    outer loop
      vertex 1.498211e+02 -5.873791e+00 -1.531539e+02
      vertex 1.405154e+02 2.109172e+01 -1.582123e+02
      vertex 1.621944e+02 -1.198464e+01 -1.938304e+02
    endloop
  endfacet
  facet normal -9.019836e-01 -3.886587e-01 -1.880691e-01
    outer loop
      vertex 1.494927e+02 1.527349e+01 -1.892438e+02
      vertex 1.621944e+02 -1.198464e+01 -1.938304e+02
      vertex 1.405154e+02 2.109172e+01 -1.582123e+02
    endloop
  endfacet
  facet normal -5.360665e-01 -8.433923e-01 -3.636081e-02
    outer loop
      vertex 1.740337e+02 -2.086083e+01 -1.624931e+02
      vertex 1.498211e+02 -5.873791e+00 -1.531539e+02
      vertex 1.621944e+02 -1.198464e+01 -1.938304e+02
    endloop
  endfacet
  facet normal -5.685675e-01 -1.282104e-01 -8.125842e-01
    outer loop
      vertex 1.595188e+02 2.686235e+01 -1.980877e+02
      vertex 1.621944e+02 -1.198464e+01 -1.938304e+02
      vertex 1.494927e+02 1.527349e+01 -1.892438e+02
    endloop
  endfacet
  facet normal -1.719325e-01 -9.629438e-01 -2.077944e-01
    outer loop
      vertex 1.776477e+02 -1.446596e+01 -1.951180e+02
      vertex 1.740337e+02 -2.086083e+01 -1.624931e+02
      vertex 1.621944e+02 -1.198464e+01 -1.938304e+02
    endloop
  endfacet
  facet normal -1.008414e-01 -1.152431e-01 -9.882055e-01
    outer loop
      vertex 1.595188e+02 2.686235e+01 -1.980877e+02
      vertex 1.776477e+02 -1.446596e+01 -1.951180e+02
      vertex 1.621944e+02 -1.198464e+01 -1.938304e+02
    endloop
  endfacet
  facet normal -9.045243e-01 -3.561424e-01 -2.345172e-01
    outer loop
      vertex 1.274706e+02 1.821155e+01 -1.035251e+02
      vertex 1.405154e+02 2.109172e+01 -1.582123e+02
      vertex 1.498211e+02 -5.873791e+00 -1.531539e+02
    endloop
  endfacet
  facet normal -9.582594e-01 3.489296e-02 -2.837631e-01
    outer loop
      vertex 1.420091e+02 5.409838e+01 -1.591978e+02
      vertex 1.494927e+02 1.527349e+01 -1.892438e+02
      vertex 1.405154e+02 2.109172e+01 -1.582123e+02
    endloop
  endfacet
  facet normal -9.581001e-01 1.848477e-01 -2.188049e-01
    outer loop
      vertex 1.343551e+02 5.342842e+01 -1.039197e+02
      vertex 1.405154e+02 2.109172e+01 -1.582123e+02
      vertex 1.274706e+02 1.821155e+01 -1.035251e+02
    endloop
  endfacet
  facet normal -9.897953e-01 4.071529e-02 -1.365559e-01
    outer loop
      vertex 1.343551e+02 5.342842e+01 -1.039197e+02
      vertex 1.420091e+02 5.409838e+01 -1.591978e+02
      vertex 1.405154e+02 2.109172e+01 -1.582123e+02
    endloop
  endfacet
  facet normal -8.239329e-01 4.530340e-01 -3.404332e-01
    outer loop
      vertex 1.686608e+02 4.547556e+01 -1.954439e+02
      vertex 1.595188e+02 2.686235e+01 -1.980877e+02
      vertex 1.494927e+02 1.527349e+01 -1.892438e+02
    endloop
  endfacet
  facet normal -9.461473e-01 6.332295e-02 -3.174830e-01
    outer loop
      vertex 1.526042e+02 4.393685e+01 -1.927997e+02
      vertex 1.494927e+02 1.527349e+01 -1.892438e+02
      vertex 1.420091e+02 5.409838e+01 -1.591978e+02
    endloop
  endfacet
  facet normal -1.517411e-01 -1.054464e-01 -9.827796e-01
    outer loop
      vertex 1.686608e+02 4.547556e+01 -1.954439e+02
      vertex 1.494927e+02 1.527349e+01 -1.892438e+02
      vertex 1.526042e+02 4.393685e+01 -1.927997e+02
    endloop
  endfacet
  facet normal 8.963519e-02 -9.792033e-01 -1.820065e-01
    outer loop
      vertex 2.153895e+02 -1.642556e+01 -1.659880e+02
      vertex 1.740337e+02 -2.086083e+01 -1.624931e+02
      vertex 1.776477e+02 -1.446596e+01 -1.951180e+02
    endloop
  endfacet
  facet normal 1.072605e-01 -9.942025e-01 7.523719e-03
    outer loop
      vertex 2.098710e+02 -1.659008e+01 -1.090539e+02
      vertex 1.740337e+02 -2.086083e+01 -1.624931e+02
      vertex 2.153895e+02 -1.642556e+01 -1.659880e+02
    endloop
  endfacet
  facet normal 1.917108e-01 1.357808e-02 -9.813575e-01
    outer loop
      vertex 2.184281e+02 6.646946e+00 -1.868593e+02
      vertex 1.776477e+02 -1.446596e+01 -1.951180e+02
      vertex 1.595188e+02 2.686235e+01 -1.980877e+02
    endloop
  endfacet
  facet normal -5.638503e-02 -9.983917e-01 5.891770e-03
    outer loop
      vertex 2.111028e+02 -1.633097e+01 -1.909829e+02
      vertex 2.153895e+02 -1.642556e+01 -1.659880e+02
      vertex 1.776477e+02 -1.446596e+01 -1.951180e+02
    endloop
  endfacet
  facet normal 1.289592e-01 1.351897e-01 -9.823916e-01
    outer loop
      vertex 2.184281e+02 6.646946e+00 -1.868593e+02
      vertex 2.111028e+02 -1.633097e+01 -1.909829e+02
      vertex 1.776477e+02 -1.446596e+01 -1.951180e+02
    endloop
  endfacet
  facet normal 2.402228e-01 1.986265e-02 -9.705145e-01
    outer loop
      vertex 2.098750e+02 5.057558e+01 -1.851381e+02
      vertex 1.595188e+02 2.686235e+01 -1.980877e+02
      vertex 1.686608e+02 4.547556e+01 -1.954439e+02
    endloop
  endfacet
  facet normal 2.129346e-01 7.961404e-02 -9.738175e-01
    outer loop
      vertex 2.098750e+02 5.057558e+01 -1.851381e+02
      vertex 2.184281e+02 6.646946e+00 -1.868593e+02
      vertex 1.595188e+02 2.686235e+01 -1.980877e+02
    endloop
  endfacet
  facet normal -9.372676e-01 2.987336e-01 -1.796881e-01
    outer loop
      vertex 1.289251e+02 5.200168e+01 -5.493555e+01
      vertex 1.274706e+02 1.821155e+01 -1.035251e+02
      vertex 1.163176e+02 1.651848e+01 -4.816519e+01
    endloop
  endfacet
  facet normal -9.764477e-01 1.897350e-01 -1.027155e-01
    outer loop
      vertex 1.289251e+02 5.200168e+01 -5.493555e+01
      vertex 1.343551e+02 5.342842e+01 -1.039197e+02
      vertex 1.274706e+02 1.821155e+01 -1.035251e+02
    endloop
  endfacet
  facet normal -7.934061e-01 2.778719e-01 5.415662e-01
    outer loop
      vertex 1.367285e+02 4.966059e+01 -3.526775e+01
      vertex 1.163176e+02 1.651848e+01 -4.816519e+01
      vertex 1.224821e+02 1.715692e+01 -3.946165e+01
    endloop
  endfacet
  facet normal -8.462626e-01 3.732255e-01 3.801873e-01
    outer loop
      vertex 1.367285e+02 4.966059e+01 -3.526775e+01
      vertex 1.289251e+02 5.200168e+01 -5.493555e+01
      vertex 1.163176e+02 1.651848e+01 -4.816519e+01
    endloop
  endfacet
  facet normal -2.940243e-01 4.761100e-02 9.546114e-01
    outer loop
      vertex 1.693938e+02 4.947890e+01 -2.662469e+01
      vertex 1.224821e+02 1.715692e+01 -3.946165e+01
      vertex 1.868461e+02 1.315083e+01 -1.943748e+01
    endloop
  endfacet
  facet normal -2.558365e-01 -1.259092e-02 9.666381e-01
    outer loop
      vertex 1.693938e+02 4.947890e+01 -2.662469e+01
      vertex 1.367285e+02 4.966059e+01 -3.526775e+01
      vertex 1.224821e+02 1.715692e+01 -3.946165e+01
    endloop
  endfacet
  facet normal 2.234666e-01 2.913756e-01 9.301413e-01
    outer loop
      vertex 1.907005e+02 3.761976e+01 -2.802865e+01
      vertex 1.693938e+02 4.947890e+01 -2.662469e+01
      vertex 1.868461e+02 1.315083e+01 -1.943748e+01
    endloop
  endfacet
  facet normal 2.087748e-01 2.945377e-01 9.325560e-01
    outer loop
      vertex 1.907005e+02 3.761976e+01 -2.802865e+01
      vertex 1.868461e+02 1.315083e+01 -1.943748e+01
      vertex 1.956165e+02 1.174717e+01 -2.095763e+01
    endloop
  endfacet
  facet normal -1.256690e-01 9.379274e-01 -3.232638e-01
    outer loop
      vertex 1.700620e+02 5.812390e+01 -1.584236e+02
      vertex 1.526042e+02 4.393685e+01 -1.927997e+02
      vertex 1.420091e+02 5.409838e+01 -1.591978e+02
    endloop
  endfacet
  facet normal -9.701822e-02 7.920152e-01 -6.027432e-01
    outer loop
      vertex 1.842855e+02 7.683919e+01 -1.361209e+02
      vertex 1.700620e+02 5.812390e+01 -1.584236e+02
      vertex 1.420091e+02 5.409838e+01 -1.591978e+02
    endloop
  endfacet
  facet normal -7.196672e-01 6.882896e-01 -9.130490e-02
    outer loop
      vertex 1.462255e+02 6.577980e+01 -1.043728e+02
      vertex 1.420091e+02 5.409838e+01 -1.591978e+02
      vertex 1.343551e+02 5.342842e+01 -1.039197e+02
    endloop
  endfacet
  facet normal -9.165305e-01 3.996956e-01 -1.467489e-02
    outer loop
      vertex 1.463004e+02 6.438424e+01 -1.470633e+02
      vertex 1.420091e+02 5.409838e+01 -1.591978e+02
      vertex 1.462255e+02 6.577980e+01 -1.043728e+02
    endloop
  endfacet
  facet normal -7.206786e-02 7.732648e-01 -6.299744e-01
    outer loop
      vertex 1.842855e+02 7.683919e+01 -1.361209e+02
      vertex 1.420091e+02 5.409838e+01 -1.591978e+02
      vertex 1.463004e+02 6.438424e+01 -1.470633e+02
    endloop
  endfacet
  facet normal -1.418354e-01 9.383562e-01 -3.152307e-01
    outer loop
      vertex 1.686608e+02 4.547556e+01 -1.954439e+02
      vertex 1.526042e+02 4.393685e+01 -1.927997e+02
      vertex 1.700620e+02 5.812390e+01 -1.584236e+02
    endloop
  endfacet
  facet normal -3.746635e-02 9.460615e-01 -3.218135e-01
    outer loop
      vertex 2.226238e+02 5.967048e+01 -1.599964e+02
      vertex 1.686608e+02 4.547556e+01 -1.954439e+02
      vertex 1.700620e+02 5.812390e+01 -1.584236e+02
    endloop
  endfacet
  facet normal -9.198135e-02 7.908876e-01 -6.050092e-01
    outer loop
      vertex 2.106684e+02 6.997955e+01 -1.490991e+02
      vertex 1.700620e+02 5.812390e+01 -1.584236e+02
      vertex 1.842855e+02 7.683919e+01 -1.361209e+02
    endloop
  endfacet
  facet normal -4.192876e-02 7.024339e-01 -7.105129e-01
    outer loop
      vertex 2.106684e+02 6.997955e+01 -1.490991e+02
      vertex 2.226238e+02 5.967048e+01 -1.599964e+02
      vertex 1.700620e+02 5.812390e+01 -1.584236e+02
    endloop
  endfacet
  facet normal -3.604340e-02 9.454597e-01 -3.237387e-01
    outer loop
      vertex 2.098750e+02 5.057558e+01 -1.851381e+02
      vertex 1.686608e+02 4.547556e+01 -1.954439e+02
      vertex 2.226238e+02 5.967048e+01 -1.599964e+02
    endloop
  endfacet
  facet normal -7.176296e-01 6.938923e-01 -5.934042e-02
    outer loop
      vertex 1.417282e+02 6.473177e+01 -6.090995e+01
      vertex 1.343551e+02 5.342842e+01 -1.039197e+02
      vertex 1.289251e+02 5.200168e+01 -5.493555e+01
    endloop
  endfacet
  facet normal -7.208573e-01 6.906577e-01 -5.793699e-02
    outer loop
      vertex 1.417282e+02 6.473177e+01 -6.090995e+01
      vertex 1.462255e+02 6.577980e+01 -1.043728e+02
      vertex 1.343551e+02 5.342842e+01 -1.039197e+02
    endloop
  endfacet
  facet normal -2.871903e-02 9.911796e-01 1.293762e-01
    outer loop
      vertex 1.693938e+02 4.947890e+01 -2.662469e+01
      vertex 1.289251e+02 5.200168e+01 -5.493555e+01
      vertex 1.367285e+02 4.966059e+01 -3.526775e+01
    endloop
  endfacet
  facet normal -3.324626e-01 7.704855e-01 5.438940e-01
    outer loop
      vertex 1.693645e+02 6.491681e+01 -4.851214e+01
      vertex 1.289251e+02 5.200168e+01 -5.493555e+01
      vertex 1.693938e+02 4.947890e+01 -2.662469e+01
    endloop
  endfacet
  facet normal -3.203264e-01 6.698361e-01 6.698587e-01
    outer loop
      vertex 1.637852e+02 6.796238e+01 -5.422561e+01
      vertex 1.289251e+02 5.200168e+01 -5.493555e+01
      vertex 1.693645e+02 6.491681e+01 -4.851214e+01
    endloop
  endfacet
  facet normal -3.072149e-01 6.396537e-01 7.046007e-01
    outer loop
      vertex 1.637852e+02 6.796238e+01 -5.422561e+01
      vertex 1.417282e+02 6.473177e+01 -6.090995e+01
      vertex 1.289251e+02 5.200168e+01 -5.493555e+01
    endloop
  endfacet
  facet normal 4.421544e-01 7.332399e-01 5.165837e-01
    outer loop
      vertex 1.907005e+02 3.761976e+01 -2.802865e+01
      vertex 1.693645e+02 6.491681e+01 -4.851214e+01
      vertex 1.693938e+02 4.947890e+01 -2.662469e+01
    endloop
  endfacet
  facet normal 3.665063e-01 9.208646e-01 1.329722e-01
    outer loop
      vertex 1.877584e+02 6.049839e+01 -6.861208e+01
      vertex 1.637852e+02 6.796238e+01 -5.422561e+01
      vertex 1.693645e+02 6.491681e+01 -4.851214e+01
    endloop
  endfacet
  facet normal 6.036245e-01 7.233647e-01 3.352327e-01
    outer loop
      vertex 1.907005e+02 3.761976e+01 -2.802865e+01
      vertex 1.976683e+02 4.623829e+01 -5.917184e+01
      vertex 1.693645e+02 6.491681e+01 -4.851214e+01
    endloop
  endfacet
  facet normal 6.049741e-01 6.869529e-01 4.026190e-01
    outer loop
      vertex 1.877584e+02 6.049839e+01 -6.861208e+01
      vertex 1.693645e+02 6.491681e+01 -4.851214e+01
      vertex 1.976683e+02 4.623829e+01 -5.917184e+01
    endloop
  endfacet
  facet normal -4.697959e-01 8.822764e-01 -2.966637e-02
    outer loop
      vertex 1.707673e+02 7.824711e+01 -1.222393e+02
      vertex 1.463004e+02 6.438424e+01 -1.470633e+02
      vertex 1.462255e+02 6.577980e+01 -1.043728e+02
    endloop
  endfacet
  facet normal -3.931751e-01 9.142384e-01 9.788481e-02
    outer loop
      vertex 1.637852e+02 6.796238e+01 -5.422561e+01
      vertex 1.707673e+02 7.824711e+01 -1.222393e+02
      vertex 1.462255e+02 6.577980e+01 -1.043728e+02
    endloop
  endfacet
  facet normal -1.474622e-01 9.890304e-01 8.589856e-03
    outer loop
      vertex 1.637852e+02 6.796238e+01 -5.422561e+01
      vertex 1.462255e+02 6.577980e+01 -1.043728e+02
      vertex 1.417282e+02 6.473177e+01 -6.090995e+01
    endloop
  endfacet
  facet normal -2.163396e-01 9.275362e-01 -3.047519e-01
    outer loop
      vertex 1.842855e+02 7.683919e+01 -1.361209e+02
      vertex 1.463004e+02 6.438424e+01 -1.470633e+02
      vertex 1.707673e+02 7.824711e+01 -1.222393e+02
    endloop
  endfacet
  facet normal 2.897569e-01 9.386602e-01 1.869706e-01
    outer loop
      vertex 1.970712e+02 6.923671e+01 -1.177683e+02
      vertex 1.842855e+02 7.683919e+01 -1.361209e+02
      vertex 1.707673e+02 7.824711e+01 -1.222393e+02
    endloop
  endfacet
  facet normal 3.876654e-01 9.047244e-01 1.766048e-01
    outer loop
      vertex 1.877584e+02 6.049839e+01 -6.861208e+01
      vertex 1.707673e+02 7.824711e+01 -1.222393e+02
      vertex 1.637852e+02 6.796238e+01 -5.422561e+01
    endloop
  endfacet
  facet normal 2.825556e-01 9.337932e-01 2.195282e-01
    outer loop
      vertex 1.877584e+02 6.049839e+01 -6.861208e+01
      vertex 1.970712e+02 6.923671e+01 -1.177683e+02
      vertex 1.707673e+02 7.824711e+01 -1.222393e+02
    endloop
  endfacet
  facet normal 3.221705e-01 9.327294e-01 1.619322e-01
    outer loop
      vertex 2.106684e+02 6.997955e+01 -1.490991e+02
      vertex 1.842855e+02 7.683919e+01 -1.361209e+02
      vertex 1.970712e+02 6.923671e+01 -1.177683e+02
    endloop
  endfacet
  facet normal 6.984768e-01 -6.838652e-01 2.108522e-01
    outer loop
      vertex 1.995046e+02 -1.574888e+01 -5.438313e+01
      vertex 1.919075e+02 -1.352512e+01 -2.200439e+01
      vertex 1.901281e+02 -2.537909e+01 -5.455623e+01
    endloop
  endfacet
  facet normal 8.009605e-01 -5.753241e-01 1.657240e-01
    outer loop
      vertex 1.832934e+02 -2.674016e+01 -2.624850e+01
      vertex 1.901281e+02 -2.537909e+01 -5.455623e+01
      vertex 1.919075e+02 -1.352512e+01 -2.200439e+01
    endloop
  endfacet
  facet normal 9.600966e-01 -1.506634e-01 2.356163e-01
    outer loop
      vertex 1.956165e+02 1.174717e+01 -2.095763e+01
      vertex 1.919075e+02 -1.352512e+01 -2.200439e+01
      vertex 1.995046e+02 -1.574888e+01 -5.438313e+01
    endloop
  endfacet
  facet normal 9.556140e-01 -2.295149e-01 1.847292e-01
    outer loop
      vertex 2.067641e+02 1.485837e+01 -5.390893e+01
      vertex 1.995046e+02 -1.574888e+01 -5.438313e+01
      vertex 2.098710e+02 -1.659008e+01 -1.090539e+02
    endloop
  endfacet
  facet normal 9.292365e-01 -2.249381e-01 2.931254e-01
    outer loop
      vertex 1.956165e+02 1.174717e+01 -2.095763e+01
      vertex 1.995046e+02 -1.574888e+01 -5.438313e+01
      vertex 2.067641e+02 1.485837e+01 -5.390893e+01
    endloop
  endfacet
  facet normal 5.563841e-01 -8.250611e-01 -9.854434e-02
    outer loop
      vertex 2.337998e+02 -3.503352e+00 -1.702340e+02
      vertex 2.153895e+02 -1.642556e+01 -1.659880e+02
      vertex 2.111028e+02 -1.633097e+01 -1.909829e+02
    endloop
  endfacet
  facet normal 7.909146e-01 -6.073244e-01 7.490726e-02
    outer loop
      vertex 2.202561e+02 -4.352580e+00 -1.194884e+02
      vertex 2.098710e+02 -1.659008e+01 -1.090539e+02
      vertex 2.153895e+02 -1.642556e+01 -1.659880e+02
    endloop
  endfacet
  facet normal 5.905764e-01 -7.939693e-01 1.443342e-01
    outer loop
      vertex 2.202561e+02 -4.352580e+00 -1.194884e+02
      vertex 2.153895e+02 -1.642556e+01 -1.659880e+02
      vertex 2.337998e+02 -3.503352e+00 -1.702340e+02
    endloop
  endfacet
  facet normal 4.051828e-01 3.477987e-02 -9.135739e-01
    outer loop
      vertex 2.368583e+02 1.263513e+01 -1.784573e+02
      vertex 2.111028e+02 -1.633097e+01 -1.909829e+02
      vertex 2.184281e+02 6.646946e+00 -1.868593e+02
    endloop
  endfacet
  facet normal 2.772113e-01 1.629722e-01 -9.468865e-01
    outer loop
      vertex 2.368583e+02 1.263513e+01 -1.784573e+02
      vertex 2.286804e+02 -7.053556e+00 -1.842401e+02
      vertex 2.111028e+02 -1.633097e+01 -1.909829e+02
    endloop
  endfacet
  facet normal 4.468829e-01 -8.923815e-01 6.285727e-02
    outer loop
      vertex 2.337998e+02 -3.503352e+00 -1.702340e+02
      vertex 2.111028e+02 -1.633097e+01 -1.909829e+02
      vertex 2.286804e+02 -7.053556e+00 -1.842401e+02
    endloop
  endfacet
  facet normal 5.453187e-01 1.385666e-01 -8.266963e-01
    outer loop
      vertex 2.366123e+02 3.483409e+01 -1.701397e+02
      vertex 2.184281e+02 6.646946e+00 -1.868593e+02
      vertex 2.098750e+02 5.057558e+01 -1.851381e+02
    endloop
  endfacet
  facet normal 2.973187e-01 3.378825e-01 -8.929933e-01
    outer loop
      vertex 2.366123e+02 3.483409e+01 -1.701397e+02
      vertex 2.368583e+02 1.263513e+01 -1.784573e+02
      vertex 2.184281e+02 6.646946e+00 -1.868593e+02
    endloop
  endfacet
  facet normal 9.080201e-01 -3.398407e-01 2.449651e-01
    outer loop
      vertex 2.220339e+02 1.699457e+01 -1.075467e+02
      vertex 2.067641e+02 1.485837e+01 -5.390893e+01
      vertex 2.098710e+02 -1.659008e+01 -1.090539e+02
    endloop
  endfacet
  facet normal 9.191074e-01 -3.416687e-01 1.962245e-01
    outer loop
      vertex 2.257267e+02 1.902017e+01 -1.213164e+02
      vertex 2.220339e+02 1.699457e+01 -1.075467e+02
      vertex 2.098710e+02 -1.659008e+01 -1.090539e+02
    endloop
  endfacet
  facet normal 7.763117e-01 -1.335204e-01 6.160458e-01
    outer loop
      vertex 2.202561e+02 -4.352580e+00 -1.194884e+02
      vertex 2.257267e+02 1.902017e+01 -1.213164e+02
      vertex 2.098710e+02 -1.659008e+01 -1.090539e+02
    endloop
  endfacet
  facet normal 9.111822e-01 3.096898e-01 2.717337e-01
    outer loop
      vertex 1.976683e+02 4.623829e+01 -5.917184e+01
      vertex 2.067641e+02 1.485837e+01 -5.390893e+01
      vertex 2.220339e+02 1.699457e+01 -1.075467e+02
    endloop
  endfacet
  facet normal 9.061781e-01 2.627445e-01 3.313708e-01
    outer loop
      vertex 1.907005e+02 3.761976e+01 -2.802865e+01
      vertex 1.956165e+02 1.174717e+01 -2.095763e+01
      vertex 2.067641e+02 1.485837e+01 -5.390893e+01
    endloop
  endfacet
  facet normal 9.055567e-01 3.108943e-01 2.886379e-01
    outer loop
      vertex 1.907005e+02 3.761976e+01 -2.802865e+01
      vertex 2.067641e+02 1.485837e+01 -5.390893e+01
      vertex 1.976683e+02 4.623829e+01 -5.917184e+01
    endloop
  endfacet
  facet normal 9.122225e-01 3.018843e-01 2.769764e-01
    outer loop
      vertex 2.106007e+02 5.557952e+01 -1.119462e+02
      vertex 1.976683e+02 4.623829e+01 -5.917184e+01
      vertex 2.220339e+02 1.699457e+01 -1.075467e+02
    endloop
  endfacet
  facet normal 8.353944e-01 3.000479e-01 4.605295e-01
    outer loop
      vertex 2.224509e+02 4.288322e+01 -1.251703e+02
      vertex 2.106007e+02 5.557952e+01 -1.119462e+02
      vertex 2.220339e+02 1.699457e+01 -1.075467e+02
    endloop
  endfacet
  facet normal 9.442905e-01 1.746734e-01 2.789347e-01
    outer loop
      vertex 2.224509e+02 4.288322e+01 -1.251703e+02
      vertex 2.220339e+02 1.699457e+01 -1.075467e+02
      vertex 2.257267e+02 1.902017e+01 -1.213164e+02
    endloop
  endfacet
  facet normal 6.359968e-01 5.641211e-01 -5.265696e-01
    outer loop
      vertex 2.355444e+02 4.321735e+01 -1.620173e+02
      vertex 2.098750e+02 5.057558e+01 -1.851381e+02
      vertex 2.226238e+02 5.967048e+01 -1.599964e+02
    endloop
  endfacet
  facet normal 6.432183e-01 7.323978e-01 2.233019e-01
    outer loop
      vertex 1.970712e+02 6.923671e+01 -1.177683e+02
      vertex 2.106007e+02 5.557952e+01 -1.119462e+02
      vertex 2.226238e+02 5.967048e+01 -1.599964e+02
    endloop
  endfacet
  facet normal 8.237902e-01 5.090528e-01 2.494692e-01
    outer loop
      vertex 2.224509e+02 4.288322e+01 -1.251703e+02
      vertex 2.226238e+02 5.967048e+01 -1.599964e+02
      vertex 2.106007e+02 5.557952e+01 -1.119462e+02
    endloop
  endfacet
  facet normal 7.737576e-01 5.291076e-01 3.483451e-01
    outer loop
      vertex 2.106684e+02 6.997955e+01 -1.490991e+02
      vertex 1.970712e+02 6.923671e+01 -1.177683e+02
      vertex 2.226238e+02 5.967048e+01 -1.599964e+02
    endloop
  endfacet
  facet normal 7.715362e-01 5.715742e-01 2.793470e-01
    outer loop
      vertex 2.224509e+02 4.288322e+01 -1.251703e+02
      vertex 2.355444e+02 4.321735e+01 -1.620173e+02
      vertex 2.226238e+02 5.967048e+01 -1.599964e+02
    endloop
  endfacet
  facet normal 6.306930e-01 5.799451e-01 -5.156452e-01
    outer loop
      vertex 2.366123e+02 3.483409e+01 -1.701397e+02
      vertex 2.098750e+02 5.057558e+01 -1.851381e+02
      vertex 2.355444e+02 4.321735e+01 -1.620173e+02
    endloop
  endfacet
  facet normal 6.873671e-01 6.673859e-01 2.865702e-01
    outer loop
      vertex 1.877584e+02 6.049839e+01 -6.861208e+01
      vertex 1.976683e+02 4.623829e+01 -5.917184e+01
      vertex 2.106007e+02 5.557952e+01 -1.119462e+02
    endloop
  endfacet
  facet normal 6.324123e-01 7.331337e-01 2.501393e-01
    outer loop
      vertex 1.877584e+02 6.049839e+01 -6.861208e+01
      vertex 2.106007e+02 5.557952e+01 -1.119462e+02
      vertex 1.970712e+02 6.923671e+01 -1.177683e+02
    endloop
  endfacet
  facet normal 9.282100e-01 -3.436819e-01 -1.425097e-01
    outer loop
      vertex 2.368583e+02 1.263513e+01 -1.784573e+02
      vertex 2.403172e+02 1.766067e+01 -1.680478e+02
      vertex 2.286804e+02 -7.053556e+00 -1.842401e+02
    endloop
  endfacet
  facet normal 9.268347e-01 -2.571572e-01 -2.735831e-01
    outer loop
      vertex 2.337998e+02 -3.503352e+00 -1.702340e+02
      vertex 2.286804e+02 -7.053556e+00 -1.842401e+02
      vertex 2.403172e+02 1.766067e+01 -1.680478e+02
    endloop
  endfacet
  facet normal 8.714266e-01 2.607778e-01 -4.154644e-01
    outer loop
      vertex 2.355444e+02 4.321735e+01 -1.620173e+02
      vertex 2.403172e+02 1.766067e+01 -1.680478e+02
      vertex 2.368583e+02 1.263513e+01 -1.784573e+02
    endloop
  endfacet
  facet normal 9.052772e-01 -3.089056e-01 2.916341e-01
    outer loop
      vertex 2.257267e+02 1.902017e+01 -1.213164e+02
      vertex 2.337998e+02 -3.503352e+00 -1.702340e+02
      vertex 2.403172e+02 1.766067e+01 -1.680478e+02
    endloop
  endfacet
  facet normal 9.411292e-01 1.758208e-01 2.887262e-01
    outer loop
      vertex 2.224509e+02 4.288322e+01 -1.251703e+02
      vertex 2.257267e+02 1.902017e+01 -1.213164e+02
      vertex 2.403172e+02 1.766067e+01 -1.680478e+02
    endloop
  endfacet
  facet normal 9.376232e-01 9.627890e-02 3.340557e-01
    outer loop
      vertex 2.224509e+02 4.288322e+01 -1.251703e+02
      vertex 2.403172e+02 1.766067e+01 -1.680478e+02
      vertex 2.355444e+02 4.321735e+01 -1.620173e+02
    endloop
  endfacet
  facet normal 9.795507e-01 -6.098608e-02 1.917317e-01
    outer loop
      vertex 2.366123e+02 3.483409e+01 -1.701397e+02
      vertex 2.355444e+02 4.321735e+01 -1.620173e+02
      vertex 2.368583e+02 1.263513e+01 -1.784573e+02
    endloop
  endfacet
  facet normal 9.470677e-01 -2.021648e-01 2.493834e-01
    outer loop
      vertex 2.202561e+02 -4.352580e+00 -1.194884e+02
      vertex 2.337998e+02 -3.503352e+00 -1.702340e+02
      vertex 2.257267e+02 1.902017e+01 -1.213164e+02
    endloop
  endfacet
endsolid SIM_ICUB3_R_UPPERARM
