solid SIM_ICUB3_TORSO_2
  facet normal -9.401145e-01 -2.648928e-01 -2.145146e-01
    outer loop
      vertex -6.105585e+01 -3.990000e+01 -1.730553e+02
      vertex -6.894019e+01 -1.390000e+01 -1.706080e+02
      vertex -6.078566e+01 -3.990000e+01 -1.742394e+02
    endloop
  endfacet
  facet normal -9.226853e-01 -2.481769e-01 -2.950594e-01
    outer loop
      vertex -6.601992e+01 -1.390000e+01 -1.797401e+02
      vertex -6.078566e+01 -3.990000e+01 -1.742394e+02
      vertex -6.894019e+01 -1.390000e+01 -1.706080e+02
    endloop
  endfacet
  facet normal 0.000000e+00 -1.000000e+00 0.000000e+00
    outer loop
      vertex -5.535633e+01 -3.990000e+01 -1.690172e+02
      vertex -6.105585e+01 -3.990000e+01 -1.730553e+02
      vertex -6.078566e+01 -3.990000e+01 -1.742394e+02
    endloop
  endfacet
  facet normal -7.943947e-01 -2.745535e-01 -5.418094e-01
    outer loop
      vertex -4.335000e+01 -1.764974e+01 -2.110783e+02
      vertex -6.078566e+01 -3.990000e+01 -1.742394e+02
      vertex -6.601992e+01 -1.390000e+01 -1.797401e+02
    endloop
  endfacet
  facet normal 2.097948e-01 -9.531061e-01 -2.181169e-01
    outer loop
      vertex -4.335000e+01 -3.070146e+01 -1.976639e+02
      vertex -5.535633e+01 -3.990000e+01 -1.690172e+02
      vertex -6.078566e+01 -3.990000e+01 -1.742394e+02
    endloop
  endfacet
  facet normal -4.877725e-01 -6.256852e-01 -6.087660e-01
    outer loop
      vertex -4.335000e+01 -1.764974e+01 -2.110783e+02
      vertex -4.335000e+01 -3.070146e+01 -1.976639e+02
      vertex -6.078566e+01 -3.990000e+01 -1.742394e+02
    endloop
  endfacet
  facet normal -9.334962e-01 -3.013678e-01 1.943254e-01
    outer loop
      vertex -5.905000e+01 -2.569405e+01 -1.413885e+02
      vertex -6.894019e+01 -1.390000e+01 -1.706080e+02
      vertex -6.105585e+01 -3.990000e+01 -1.730553e+02
    endloop
  endfacet
  facet normal -9.524840e-01 -7.925907e-16 -3.045885e-01
    outer loop
      vertex -6.894019e+01 1.410000e+01 -1.706080e+02
      vertex -6.601992e+01 -1.390000e+01 -1.797401e+02
      vertex -6.894019e+01 -1.390000e+01 -1.706080e+02
    endloop
  endfacet
  facet normal -9.472112e-01 2.236753e-16 3.206104e-01
    outer loop
      vertex -5.905000e+01 2.569405e+01 -1.413885e+02
      vertex -6.894019e+01 -1.390000e+01 -1.706080e+02
      vertex -5.905000e+01 -2.569405e+01 -1.413885e+02
    endloop
  endfacet
  facet normal -9.472112e-01 -1.316210e-16 3.206104e-01
    outer loop
      vertex -5.905000e+01 2.569405e+01 -1.413885e+02
      vertex -6.894019e+01 1.410000e+01 -1.706080e+02
      vertex -6.894019e+01 -1.390000e+01 -1.706080e+02
    endloop
  endfacet
  facet normal -1.183452e-01 -9.788223e-01 1.670368e-01
    outer loop
      vertex -5.547615e+01 -3.500000e+01 -1.403885e+02
      vertex -6.105585e+01 -3.990000e+01 -1.730553e+02
      vertex -5.535633e+01 -3.990000e+01 -1.690172e+02
    endloop
  endfacet
  facet normal -9.882873e-01 -1.057377e-01 1.100350e-01
    outer loop
      vertex -5.805000e+01 -3.400000e+01 -1.403885e+02
      vertex -5.905000e+01 -2.569405e+01 -1.413885e+02
      vertex -6.105585e+01 -3.990000e+01 -1.730553e+02
    endloop
  endfacet
  facet normal -3.550030e-01 -9.137230e-01 1.976946e-01
    outer loop
      vertex -5.547615e+01 -3.500000e+01 -1.403885e+02
      vertex -5.805000e+01 -3.400000e+01 -1.403885e+02
      vertex -6.105585e+01 -3.990000e+01 -1.730553e+02
    endloop
  endfacet
  facet normal -8.102282e-01 -1.481242e-07 -5.861146e-01
    outer loop
      vertex -4.335000e+01 1.764973e+01 -2.110783e+02
      vertex -4.335000e+01 -1.764974e+01 -2.110783e+02
      vertex -6.601992e+01 -1.390000e+01 -1.797401e+02
    endloop
  endfacet
  facet normal -9.524840e-01 -7.940430e-16 -3.045885e-01
    outer loop
      vertex -6.894019e+01 1.410000e+01 -1.706080e+02
      vertex -6.601992e+01 1.410000e+01 -1.797401e+02
      vertex -6.601992e+01 -1.390000e+01 -1.797401e+02
    endloop
  endfacet
  facet normal -8.102282e-01 -9.447725e-16 -5.861145e-01
    outer loop
      vertex -4.335000e+01 1.764973e+01 -2.110783e+02
      vertex -6.601992e+01 -1.390000e+01 -1.797401e+02
      vertex -6.601992e+01 1.410000e+01 -1.797401e+02
    endloop
  endfacet
  facet normal 1.828881e-01 -9.557898e-01 -2.302557e-01
    outer loop
      vertex -7.105427e-15 -3.500000e+01 -1.453885e+02
      vertex -5.535633e+01 -3.990000e+01 -1.690172e+02
      vertex -4.335000e+01 -3.070146e+01 -1.976639e+02
    endloop
  endfacet
  facet normal -2.430664e-02 -9.853925e-01 1.685549e-01
    outer loop
      vertex 1.421085e-14 -3.500000e+01 -1.323885e+02
      vertex -5.547615e+01 -3.500000e+01 -1.403885e+02
      vertex -5.535633e+01 -3.990000e+01 -1.690172e+02
    endloop
  endfacet
  facet normal 8.817266e-02 -9.961052e-01 -1.445780e-16
    outer loop
      vertex 1.421085e-14 -3.500000e+01 -1.323885e+02
      vertex -5.535633e+01 -3.990000e+01 -1.690172e+02
      vertex -7.105427e-15 -3.500000e+01 -1.453885e+02
    endloop
  endfacet
  facet normal 5.541677e-01 -5.966104e-01 -5.804775e-01
    outer loop
      vertex -1.985000e+01 -7.975081e+00 -1.985870e+02
      vertex -4.335000e+01 -3.070146e+01 -1.976639e+02
      vertex -4.335000e+01 -1.764974e+01 -2.110783e+02
    endloop
  endfacet
  facet normal 7.633453e-04 -9.965841e-01 -8.258094e-02
    outer loop
      vertex 3.825000e+01 -3.062788e+01 -1.977975e+02
      vertex -7.105427e-15 -3.500000e+01 -1.453885e+02
      vertex -4.335000e+01 -3.070146e+01 -1.976639e+02
    endloop
  endfacet
  facet normal -1.601331e-03 -3.893229e-02 -9.992406e-01
    outer loop
      vertex -1.985000e+01 -7.975081e+00 -1.985870e+02
      vertex 3.825000e+01 -3.062788e+01 -1.977975e+02
      vertex -4.335000e+01 -3.070146e+01 -1.976639e+02
    endloop
  endfacet
  facet normal 4.693593e-01 -2.231556e-07 -8.830073e-01
    outer loop
      vertex -1.985000e+01 -7.975081e+00 -1.985870e+02
      vertex -4.335000e+01 -1.764974e+01 -2.110783e+02
      vertex -4.335000e+01 1.764973e+01 -2.110783e+02
    endloop
  endfacet
  facet normal -4.264671e-01 5.733442e-02 9.026841e-01
    outer loop
      vertex -3.898233e+01 -1.812360e+01 -1.323885e+02
      vertex -5.905000e+01 -2.569405e+01 -1.413885e+02
      vertex -5.805000e+01 -3.400000e+01 -1.403885e+02
    endloop
  endfacet
  facet normal -4.092128e-01 7.154505e-16 9.124390e-01
    outer loop
      vertex -3.898233e+01 1.812360e+01 -1.323885e+02
      vertex -5.905000e+01 -2.569405e+01 -1.413885e+02
      vertex -3.898233e+01 -1.812360e+01 -1.323885e+02
    endloop
  endfacet
  facet normal -4.092128e-01 9.556042e-16 9.124390e-01
    outer loop
      vertex -3.898233e+01 1.812360e+01 -1.323885e+02
      vertex -5.905000e+01 2.569405e+01 -1.413885e+02
      vertex -5.905000e+01 -2.569405e+01 -1.413885e+02
    endloop
  endfacet
  facet normal -1.252492e-01 -3.223722e-01 9.382904e-01
    outer loop
      vertex -3.898233e+01 -1.812360e+01 -1.323885e+02
      vertex -5.805000e+01 -3.400000e+01 -1.403885e+02
      vertex -5.547615e+01 -3.500000e+01 -1.403885e+02
    endloop
  endfacet
  facet normal -5.131759e-01 9.731003e-02 8.527492e-01
    outer loop
      vertex -3.364123e+00 -1.869603e+01 -1.108885e+02
      vertex -3.898233e+01 -1.812360e+01 -1.323885e+02
      vertex -5.547615e+01 -3.500000e+01 -1.403885e+02
    endloop
  endfacet
  facet normal -8.558384e-02 -8.002834e-01 5.934829e-01
    outer loop
      vertex -3.364123e+00 -1.869603e+01 -1.108885e+02
      vertex -5.547615e+01 -3.500000e+01 -1.403885e+02
      vertex 1.421085e-14 -3.500000e+01 -1.323885e+02
    endloop
  endfacet
  facet normal -4.527097e-01 6.604152e-16 8.916580e-01
    outer loop
      vertex 3.364123e+00 1.869603e+01 -1.108885e+02
      vertex -3.898233e+01 1.812360e+01 -1.323885e+02
      vertex -3.898233e+01 -1.812360e+01 -1.323885e+02
    endloop
  endfacet
  facet normal -5.134760e-01 9.239375e-02 8.531154e-01
    outer loop
      vertex 3.364123e+00 1.869603e+01 -1.108885e+02
      vertex -3.898233e+01 -1.812360e+01 -1.323885e+02
      vertex -3.364123e+00 -1.869603e+01 -1.108885e+02
    endloop
  endfacet
  facet normal -4.827316e-01 8.620558e-01 -1.543695e-01
    outer loop
      vertex -5.164329e+01 2.569405e+01 -1.599521e+02
      vertex -6.601992e+01 1.410000e+01 -1.797401e+02
      vertex -6.894019e+01 1.410000e+01 -1.706080e+02
    endloop
  endfacet
  facet normal -4.248965e-01 8.811249e-01 -2.075615e-01
    outer loop
      vertex -4.335000e+01 1.764973e+01 -2.110783e+02
      vertex -6.601992e+01 1.410000e+01 -1.797401e+02
      vertex -5.164329e+01 2.569405e+01 -1.599521e+02
    endloop
  endfacet
  facet normal 6.058236e-01 -1.948596e-01 -7.713673e-01
    outer loop
      vertex -3.349496e+01 4.918694e+01 -1.516333e+02
      vertex -5.164329e+01 2.569405e+01 -1.599521e+02
      vertex -6.894019e+01 1.410000e+01 -1.706080e+02
    endloop
  endfacet
  facet normal -9.533768e-01 7.974037e-02 2.910570e-01
    outer loop
      vertex -5.805000e+01 3.400000e+01 -1.403885e+02
      vertex -6.894019e+01 1.410000e+01 -1.706080e+02
      vertex -5.905000e+01 2.569405e+01 -1.413885e+02
    endloop
  endfacet
  facet normal -8.962015e-01 4.425237e-01 3.155500e-02
    outer loop
      vertex -5.905000e+01 3.300000e+01 -1.547659e+02
      vertex -6.894019e+01 1.410000e+01 -1.706080e+02
      vertex -5.805000e+01 3.400000e+01 -1.403885e+02
    endloop
  endfacet
  facet normal -3.707899e-01 7.028611e-01 -6.070429e-01
    outer loop
      vertex -3.349496e+01 4.918694e+01 -1.516333e+02
      vertex -6.894019e+01 1.410000e+01 -1.706080e+02
      vertex -5.905000e+01 3.300000e+01 -1.547659e+02
    endloop
  endfacet
  facet normal -7.326872e-01 6.439665e-01 -2.201738e-01
    outer loop
      vertex -3.349496e+01 4.918694e+01 -1.516333e+02
      vertex -4.335000e+01 1.764973e+01 -2.110783e+02
      vertex -5.164329e+01 2.569405e+01 -1.599521e+02
    endloop
  endfacet
  facet normal -8.861971e-01 -3.320675e-01 3.230880e-01
    outer loop
      vertex -4.335000e+01 3.070146e+01 -1.976639e+02
      vertex -4.335000e+01 1.764973e+01 -2.110783e+02
      vertex -3.349496e+01 4.918694e+01 -1.516333e+02
    endloop
  endfacet
  facet normal 4.693595e-01 2.090888e-16 -8.830072e-01
    outer loop
      vertex -1.985000e+01 7.975081e+00 -1.985870e+02
      vertex -1.985000e+01 -7.975081e+00 -1.985870e+02
      vertex -4.335000e+01 1.764973e+01 -2.110783e+02
    endloop
  endfacet
  facet normal 2.137649e-01 -5.355899e-01 -8.169749e-01
    outer loop
      vertex 3.825000e+01 3.044546e+01 -1.981159e+02
      vertex -1.985000e+01 7.975081e+00 -1.985870e+02
      vertex -4.335000e+01 1.764973e+01 -2.110783e+02
    endloop
  endfacet
  facet normal -1.614942e-03 7.167300e-01 -6.973489e-01
    outer loop
      vertex 3.825000e+01 3.044546e+01 -1.981159e+02
      vertex -4.335000e+01 1.764973e+01 -2.110783e+02
      vertex -4.335000e+01 3.070146e+01 -1.976639e+02
    endloop
  endfacet
  facet normal -2.241935e-01 4.396710e-01 8.697279e-01
    outer loop
      vertex -3.190740e+01 4.958937e+01 -1.464716e+02
      vertex -5.905000e+01 2.569405e+01 -1.413885e+02
      vertex -3.898233e+01 1.812360e+01 -1.323885e+02
    endloop
  endfacet
  facet normal 3.081557e-01 -1.502007e-01 9.394040e-01
    outer loop
      vertex -3.190740e+01 4.958937e+01 -1.464716e+02
      vertex -5.805000e+01 3.400000e+01 -1.403885e+02
      vertex -5.905000e+01 2.569405e+01 -1.413885e+02
    endloop
  endfacet
  facet normal -1.888548e-01 4.362304e-01 8.797937e-01
    outer loop
      vertex 0.000000e+00 3.500000e+01 -1.323885e+02
      vertex -3.190740e+01 4.958937e+01 -1.464716e+02
      vertex -3.898233e+01 1.812360e+01 -1.323885e+02
    endloop
  endfacet
  facet normal -3.166021e-01 7.313104e-01 6.041094e-01
    outer loop
      vertex 0.000000e+00 3.500000e+01 -1.323885e+02
      vertex -3.898233e+01 1.812360e+01 -1.323885e+02
      vertex 3.364123e+00 1.869603e+01 -1.108885e+02
    endloop
  endfacet
  facet normal -5.160819e-01 8.562125e-01 -2.365737e-02
    outer loop
      vertex -3.190740e+01 4.958937e+01 -1.464716e+02
      vertex -5.905000e+01 3.300000e+01 -1.547659e+02
      vertex -5.805000e+01 3.400000e+01 -1.403885e+02
    endloop
  endfacet
  facet normal -5.411830e-01 8.347730e-01 1.013656e-01
    outer loop
      vertex -3.349496e+01 4.918694e+01 -1.516333e+02
      vertex -5.905000e+01 3.300000e+01 -1.547659e+02
      vertex -3.190740e+01 4.958937e+01 -1.464716e+02
    endloop
  endfacet
  facet normal 4.829341e-01 8.489227e-01 -2.147205e-01
    outer loop
      vertex 0.000000e+00 3.500000e+01 -1.323885e+02
      vertex -3.349496e+01 4.918694e+01 -1.516333e+02
      vertex -3.190740e+01 4.958937e+01 -1.464716e+02
    endloop
  endfacet
  facet normal 2.135402e-03 9.278064e-01 -3.730560e-01
    outer loop
      vertex -2.647615e+01 4.919955e+01 -1.515617e+02
      vertex -4.335000e+01 3.070146e+01 -1.976639e+02
      vertex -3.349496e+01 4.918694e+01 -1.516333e+02
    endloop
  endfacet
  facet normal -7.571444e-03 7.985621e-01 6.018648e-01
    outer loop
      vertex 0.000000e+00 3.500000e+01 -1.323885e+02
      vertex -2.647615e+01 4.919955e+01 -1.515617e+02
      vertex -3.349496e+01 4.918694e+01 -1.516333e+02
    endloop
  endfacet
  facet normal -1.740425e-01 -9.626646e-01 -2.073310e-01
    outer loop
      vertex 5.699209e+01 -3.990000e+01 -1.704788e+02
      vertex -7.105427e-15 -3.500000e+01 -1.453885e+02
      vertex 3.825000e+01 -3.062788e+01 -1.977975e+02
    endloop
  endfacet
  facet normal 2.561615e-16 -1.000000e+00 0.000000e+00
    outer loop
      vertex 5.547615e+01 -3.500000e+01 -1.403885e+02
      vertex 1.421085e-14 -3.500000e+01 -1.323885e+02
      vertex -7.105427e-15 -3.500000e+01 -1.453885e+02
    endloop
  endfacet
  facet normal -1.442076e-02 -9.870114e-01 1.600017e-01
    outer loop
      vertex 5.547615e+01 -3.500000e+01 -1.403885e+02
      vertex -7.105427e-15 -3.500000e+01 -1.453885e+02
      vertex 5.699209e+01 -3.990000e+01 -1.704788e+02
    endloop
  endfacet
  facet normal -2.423241e-01 -6.467190e-01 -7.232106e-01
    outer loop
      vertex 4.325000e+01 -1.764973e+01 -2.110783e+02
      vertex 3.825000e+01 -3.062788e+01 -1.977975e+02
      vertex -1.985000e+01 -7.975081e+00 -1.985870e+02
    endloop
  endfacet
  facet normal -5.450508e-03 -9.480623e-01 -3.180379e-01
    outer loop
      vertex 4.325000e+01 -3.070146e+01 -1.976639e+02
      vertex 5.699209e+01 -3.990000e+01 -1.704788e+02
      vertex 3.825000e+01 -3.062788e+01 -1.977975e+02
    endloop
  endfacet
  facet normal 8.091440e-03 -7.167075e-01 -6.973270e-01
    outer loop
      vertex 4.325000e+01 -1.764973e+01 -2.110783e+02
      vertex 4.325000e+01 -3.070146e+01 -1.976639e+02
      vertex 3.825000e+01 -3.062788e+01 -1.977975e+02
    endloop
  endfacet
  facet normal -1.941925e-01 -1.108073e-16 -9.809634e-01
    outer loop
      vertex 4.325000e+01 1.764974e+01 -2.110783e+02
      vertex -1.985000e+01 -7.975081e+00 -1.985870e+02
      vertex -1.985000e+01 7.975081e+00 -1.985870e+02
    endloop
  endfacet
  facet normal -1.941926e-01 2.479113e-07 -9.809634e-01
    outer loop
      vertex 4.325000e+01 1.764974e+01 -2.110783e+02
      vertex 4.325000e+01 -1.764973e+01 -2.110783e+02
      vertex -1.985000e+01 -7.975081e+00 -1.985870e+02
    endloop
  endfacet
  facet normal 3.166021e-01 -7.313104e-01 6.041094e-01
    outer loop
      vertex 3.898233e+01 -1.812360e+01 -1.323885e+02
      vertex -3.364123e+00 -1.869603e+01 -1.108885e+02
      vertex 1.421085e-14 -3.500000e+01 -1.323885e+02
    endloop
  endfacet
  facet normal 1.355528e-01 -3.131096e-01 9.399935e-01
    outer loop
      vertex 3.898233e+01 -1.812360e+01 -1.323885e+02
      vertex 1.421085e-14 -3.500000e+01 -1.323885e+02
      vertex 5.547615e+01 -3.500000e+01 -1.403885e+02
    endloop
  endfacet
  facet normal 5.134760e-01 -9.239375e-02 8.531154e-01
    outer loop
      vertex 3.898233e+01 1.812360e+01 -1.323885e+02
      vertex 3.364123e+00 1.869603e+01 -1.108885e+02
      vertex -3.364123e+00 -1.869603e+01 -1.108885e+02
    endloop
  endfacet
  facet normal 4.527097e-01 8.766426e-16 8.916580e-01
    outer loop
      vertex 3.898233e+01 1.812360e+01 -1.323885e+02
      vertex -3.364123e+00 -1.869603e+01 -1.108885e+02
      vertex 3.898233e+01 -1.812360e+01 -1.323885e+02
    endloop
  endfacet
  facet normal 9.951364e-02 -2.370469e-01 -9.663880e-01
    outer loop
      vertex 4.325000e+01 3.070146e+01 -1.976639e+02
      vertex -1.985000e+01 7.975081e+00 -1.985870e+02
      vertex 3.825000e+01 3.044546e+01 -1.981159e+02
    endloop
  endfacet
  facet normal -2.406525e-01 6.956672e-01 -6.768556e-01
    outer loop
      vertex 4.325000e+01 3.070146e+01 -1.976639e+02
      vertex 4.325000e+01 1.764974e+01 -2.110783e+02
      vertex -1.985000e+01 7.975081e+00 -1.985870e+02
    endloop
  endfacet
  facet normal -9.017418e-02 7.867151e-01 6.106947e-01
    outer loop
      vertex 3.190740e+01 4.958937e+01 -1.464716e+02
      vertex 0.000000e+00 3.500000e+01 -1.323885e+02
      vertex 3.364123e+00 1.869603e+01 -1.108885e+02
    endloop
  endfacet
  facet normal 4.676356e-01 4.465610e-01 7.628239e-01
    outer loop
      vertex 3.190740e+01 4.958937e+01 -1.464716e+02
      vertex 3.364123e+00 1.869603e+01 -1.108885e+02
      vertex 3.898233e+01 1.812360e+01 -1.323885e+02
    endloop
  endfacet
  facet normal 8.466779e-04 9.279714e-01 -3.726505e-01
    outer loop
      vertex 3.825000e+01 3.044546e+01 -1.981159e+02
      vertex -4.335000e+01 3.070146e+01 -1.976639e+02
      vertex -2.647615e+01 4.919955e+01 -1.515617e+02
    endloop
  endfacet
  facet normal -2.510796e-04 9.274432e-01 -3.739640e-01
    outer loop
      vertex 3.349496e+01 4.918694e+01 -1.516333e+02
      vertex 3.825000e+01 3.044546e+01 -1.981159e+02
      vertex -2.647615e+01 4.919955e+01 -1.515617e+02
    endloop
  endfacet
  facet normal -6.152347e-02 7.595803e-01 6.474972e-01
    outer loop
      vertex 3.190740e+01 4.958937e+01 -1.464716e+02
      vertex -2.647615e+01 4.919955e+01 -1.515617e+02
      vertex 0.000000e+00 3.500000e+01 -1.323885e+02
    endloop
  endfacet
  facet normal 1.170502e-04 9.969773e-01 -7.769385e-02
    outer loop
      vertex 3.190740e+01 4.958937e+01 -1.464716e+02
      vertex 3.349496e+01 4.918694e+01 -1.516333e+02
      vertex -2.647615e+01 4.919955e+01 -1.515617e+02
    endloop
  endfacet
  facet normal -1.354112e-02 9.268859e-01 -3.750988e-01
    outer loop
      vertex 4.325000e+01 3.070146e+01 -1.976639e+02
      vertex 3.825000e+01 3.044546e+01 -1.981159e+02
      vertex 3.349496e+01 4.918694e+01 -1.516333e+02
    endloop
  endfacet
  facet normal 3.828555e-02 -9.405135e-01 -3.375922e-01
    outer loop
      vertex 6.152258e+01 -3.990000e+01 -1.699650e+02
      vertex 5.699209e+01 -3.990000e+01 -1.704788e+02
      vertex 4.325000e+01 -3.070146e+01 -1.976639e+02
    endloop
  endfacet
  facet normal 4.261102e-01 -8.892592e-01 1.662772e-01
    outer loop
      vertex 5.965000e+01 -3.300000e+01 -1.403885e+02
      vertex 5.547615e+01 -3.500000e+01 -1.403885e+02
      vertex 5.699209e+01 -3.990000e+01 -1.704788e+02
    endloop
  endfacet
  facet normal -2.558273e-02 -9.738882e-01 2.255820e-01
    outer loop
      vertex 5.965000e+01 -3.300000e+01 -1.403885e+02
      vertex 5.699209e+01 -3.990000e+01 -1.704788e+02
      vertex 6.152258e+01 -3.990000e+01 -1.699650e+02
    endloop
  endfacet
  facet normal 7.345596e-01 -4.863336e-01 -4.731827e-01
    outer loop
      vertex 6.591964e+01 -1.390000e+01 -1.797404e+02
      vertex 4.325000e+01 -3.070146e+01 -1.976639e+02
      vertex 4.325000e+01 -1.764973e+01 -2.110783e+02
    endloop
  endfacet
  facet normal 7.228831e-01 -3.247082e-01 -6.099217e-01
    outer loop
      vertex 6.591964e+01 -1.390000e+01 -1.797404e+02
      vertex 6.044443e+01 -3.990000e+01 -1.723878e+02
      vertex 4.325000e+01 -3.070146e+01 -1.976639e+02
    endloop
  endfacet
  facet normal -7.866523e-01 -5.085675e-01 3.500532e-01
    outer loop
      vertex 6.152258e+01 -3.990000e+01 -1.699650e+02
      vertex 4.325000e+01 -3.070146e+01 -1.976639e+02
      vertex 6.044443e+01 -3.990000e+01 -1.723878e+02
    endloop
  endfacet
  facet normal 8.102290e-01 1.481239e-07 -5.861135e-01
    outer loop
      vertex 6.591964e+01 1.410000e+01 -1.797404e+02
      vertex 4.325000e+01 -1.764973e+01 -2.110783e+02
      vertex 4.325000e+01 1.764974e+01 -2.110783e+02
    endloop
  endfacet
  facet normal 8.102291e-01 -5.949409e-16 -5.861134e-01
    outer loop
      vertex 6.591964e+01 1.410000e+01 -1.797404e+02
      vertex 6.591964e+01 -1.390000e+01 -1.797404e+02
      vertex 4.325000e+01 -1.764973e+01 -2.110783e+02
    endloop
  endfacet
  facet normal 3.123693e-01 -1.401019e-01 9.395727e-01
    outer loop
      vertex 5.965000e+01 -2.569405e+01 -1.403885e+02
      vertex 3.898233e+01 -1.812360e+01 -1.323885e+02
      vertex 5.547615e+01 -3.500000e+01 -1.403885e+02
    endloop
  endfacet
  facet normal 0.000000e+00 0.000000e+00 1.000000e+00
    outer loop
      vertex 5.965000e+01 -3.300000e+01 -1.403885e+02
      vertex 5.965000e+01 -2.569405e+01 -1.403885e+02
      vertex 5.547615e+01 -3.500000e+01 -1.403885e+02
    endloop
  endfacet
  facet normal 3.609788e-01 8.845197e-16 9.325740e-01
    outer loop
      vertex 5.965000e+01 3.300000e+01 -1.403885e+02
      vertex 3.898233e+01 1.812360e+01 -1.323885e+02
      vertex 3.898233e+01 -1.812360e+01 -1.323885e+02
    endloop
  endfacet
  facet normal 3.609788e-01 9.468695e-16 9.325740e-01
    outer loop
      vertex 5.965000e+01 3.300000e+01 -1.403885e+02
      vertex 3.898233e+01 -1.812360e+01 -1.323885e+02
      vertex 5.965000e+01 -2.569405e+01 -1.403885e+02
    endloop
  endfacet
  facet normal 8.881238e-01 -3.294126e-01 3.205049e-01
    outer loop
      vertex 4.325000e+01 3.070146e+01 -1.976639e+02
      vertex 3.349496e+01 4.918694e+01 -1.516333e+02
      vertex 4.325000e+01 1.764974e+01 -2.110783e+02
    endloop
  endfacet
  facet normal 7.331959e-01 6.431432e-01 -2.208859e-01
    outer loop
      vertex 5.161039e+01 2.569405e+01 -1.599051e+02
      vertex 4.325000e+01 1.764974e+01 -2.110783e+02
      vertex 3.349496e+01 4.918694e+01 -1.516333e+02
    endloop
  endfacet
  facet normal 4.525845e-01 8.666006e-01 -2.101682e-01
    outer loop
      vertex 6.884021e+01 1.410000e+01 -1.706082e+02
      vertex 4.325000e+01 1.764974e+01 -2.110783e+02
      vertex 5.161039e+01 2.569405e+01 -1.599051e+02
    endloop
  endfacet
  facet normal 2.692250e-01 9.592207e-01 -8.610163e-02
    outer loop
      vertex 6.591964e+01 1.410000e+01 -1.797404e+02
      vertex 4.325000e+01 1.764974e+01 -2.110783e+02
      vertex 6.884021e+01 1.410000e+01 -1.706082e+02
    endloop
  endfacet
  facet normal 5.069781e-02 4.174670e-01 9.072767e-01
    outer loop
      vertex 5.965000e+01 3.300000e+01 -1.403885e+02
      vertex 3.190740e+01 4.958937e+01 -1.464716e+02
      vertex 3.898233e+01 1.812360e+01 -1.323885e+02
    endloop
  endfacet
  facet normal 1.806179e-01 4.476382e-01 -8.757837e-01
    outer loop
      vertex 5.941414e+01 3.323586e+01 -1.544409e+02
      vertex 5.161039e+01 2.569405e+01 -1.599051e+02
      vertex 3.349496e+01 4.918694e+01 -1.516333e+02
    endloop
  endfacet
  facet normal 4.974231e-01 8.632661e-01 8.568512e-02
    outer loop
      vertex 5.965000e+01 3.300000e+01 -1.403885e+02
      vertex 3.349496e+01 4.918694e+01 -1.516333e+02
      vertex 3.190740e+01 4.958937e+01 -1.464716e+02
    endloop
  endfacet
  facet normal 5.245398e-01 8.513683e-01 5.485524e-03
    outer loop
      vertex 5.941414e+01 3.323586e+01 -1.544409e+02
      vertex 3.349496e+01 4.918694e+01 -1.516333e+02
      vertex 5.965000e+01 3.300000e+01 -1.403885e+02
    endloop
  endfacet
  facet normal -6.123201e-02 6.263900e-01 -7.771011e-01
    outer loop
      vertex 5.941414e+01 3.323586e+01 -1.544409e+02
      vertex 6.884021e+01 1.410000e+01 -1.706082e+02
      vertex 5.161039e+01 2.569405e+01 -1.599051e+02
    endloop
  endfacet
  facet normal 9.155850e-01 -2.756138e-01 -2.928159e-01
    outer loop
      vertex 6.591964e+01 -1.390000e+01 -1.797404e+02
      vertex 6.884021e+01 -1.390000e+01 -1.706082e+02
      vertex 6.044443e+01 -3.990000e+01 -1.723878e+02
    endloop
  endfacet
  facet normal 8.826610e-01 -2.581403e-01 -3.927762e-01
    outer loop
      vertex 6.152258e+01 -3.990000e+01 -1.699650e+02
      vertex 6.044443e+01 -3.990000e+01 -1.723878e+02
      vertex 6.884021e+01 -1.390000e+01 -1.706082e+02
    endloop
  endfacet
  facet normal 9.524759e-01 -3.092019e-16 -3.046141e-01
    outer loop
      vertex 6.591964e+01 1.410000e+01 -1.797404e+02
      vertex 6.884021e+01 -1.390000e+01 -1.706082e+02
      vertex 6.591964e+01 -1.390000e+01 -1.797404e+02
    endloop
  endfacet
  facet normal 9.470338e-01 -2.619441e-01 1.857746e-01
    outer loop
      vertex 5.965000e+01 -2.569405e+01 -1.403885e+02
      vertex 6.152258e+01 -3.990000e+01 -1.699650e+02
      vertex 6.884021e+01 -1.390000e+01 -1.706082e+02
    endloop
  endfacet
  facet normal 9.567365e-01 2.953379e-16 2.909558e-01
    outer loop
      vertex 6.884021e+01 1.410000e+01 -1.706082e+02
      vertex 5.965000e+01 -2.569405e+01 -1.403885e+02
      vertex 6.884021e+01 -1.390000e+01 -1.706082e+02
    endloop
  endfacet
  facet normal 9.524759e-01 -3.043769e-16 -3.046141e-01
    outer loop
      vertex 6.591964e+01 1.410000e+01 -1.797404e+02
      vertex 6.884021e+01 1.410000e+01 -1.706082e+02
      vertex 6.884021e+01 -1.390000e+01 -1.706082e+02
    endloop
  endfacet
  facet normal 9.980017e-01 0.000000e+00 6.318652e-02
    outer loop
      vertex 5.965000e+01 -3.300000e+01 -1.403885e+02
      vertex 6.152258e+01 -3.990000e+01 -1.699650e+02
      vertex 5.965000e+01 -2.569405e+01 -1.403885e+02
    endloop
  endfacet
  facet normal 9.567365e-01 3.976033e-16 2.909558e-01
    outer loop
      vertex 5.965000e+01 3.300000e+01 -1.403885e+02
      vertex 5.965000e+01 -2.569405e+01 -1.403885e+02
      vertex 6.884021e+01 1.410000e+01 -1.706082e+02
    endloop
  endfacet
  facet normal 8.945159e-01 4.469730e-01 -7.511608e-03
    outer loop
      vertex 5.941414e+01 3.323586e+01 -1.544409e+02
      vertex 5.965000e+01 3.300000e+01 -1.403885e+02
      vertex 6.884021e+01 1.410000e+01 -1.706082e+02
    endloop
  endfacet
endsolid SIM_ICUB3_TORSO_2
