solid SIM_ICUB3_L_UPPERARM
  facet normal -9.266417e-01 1.558517e-02 -3.756224e-01
    outer loop
      vertex -2.367671e+02 1.613476e+00 -1.722505e+02
      vertex -2.390083e+02 3.345144e+01 -1.654005e+02
      vertex -2.327334e+02 -1.180306e+00 -1.823173e+02
    endloop
  endfacet
  facet normal -9.495696e-01 -2.586413e-01 1.772634e-01
    outer loop
      vertex -2.379395e+02 2.342324e+01 -1.743071e+02
      vertex -2.327334e+02 -1.180306e+00 -1.823173e+02
      vertex -2.390083e+02 3.345144e+01 -1.654005e+02
    endloop
  endfacet
  facet normal -6.438629e-01 -7.637550e-01 -4.603082e-02
    outer loop
      vertex -2.159434e+02 -1.622496e+01 -1.675442e+02
      vertex -2.367671e+02 1.613476e+00 -1.722505e+02
      vertex -2.327334e+02 -1.180306e+00 -1.823173e+02
    endloop
  endfacet
  facet normal -4.761827e-01 1.795000e-01 -8.608309e-01
    outer loop
      vertex -2.072917e+02 4.615209e+01 -1.865211e+02
      vertex -2.327334e+02 -1.180306e+00 -1.823173e+02
      vertex -2.379395e+02 2.342324e+01 -1.743071e+02
    endloop
  endfacet
  facet normal -5.502642e-01 -8.106451e-01 -2.001594e-01
    outer loop
      vertex -2.083421e+02 -1.521092e+01 -1.925482e+02
      vertex -2.159434e+02 -1.622496e+01 -1.675442e+02
      vertex -2.327334e+02 -1.180306e+00 -1.823173e+02
    endloop
  endfacet
  facet normal -3.366071e-01 9.775111e-02 -9.365577e-01
    outer loop
      vertex -2.072917e+02 4.615209e+01 -1.865211e+02
      vertex -2.083421e+02 -1.521092e+01 -1.925482e+02
      vertex -2.327334e+02 -1.180306e+00 -1.823173e+02
    endloop
  endfacet
  facet normal -9.435510e-01 -1.317997e-01 3.038755e-01
    outer loop
      vertex -2.223362e+02 3.230354e+01 -1.141306e+02
      vertex -2.390083e+02 3.345144e+01 -1.654005e+02
      vertex -2.367671e+02 1.613476e+00 -1.722505e+02
    endloop
  endfacet
  facet normal -5.643696e-01 5.137568e-01 -6.461740e-01
    outer loop
      vertex -2.249596e+02 5.978066e+01 -1.567369e+02
      vertex -2.379395e+02 2.342324e+01 -1.743071e+02
      vertex -2.390083e+02 3.345144e+01 -1.654005e+02
    endloop
  endfacet
  facet normal -8.577770e-01 4.254523e-01 2.884598e-01
    outer loop
      vertex -2.117440e+02 5.866073e+01 -1.215075e+02
      vertex -2.390083e+02 3.345144e+01 -1.654005e+02
      vertex -2.223362e+02 3.230354e+01 -1.141306e+02
    endloop
  endfacet
  facet normal -8.719347e-01 3.539144e-01 3.383407e-01
    outer loop
      vertex -2.117440e+02 5.866073e+01 -1.215075e+02
      vertex -2.249596e+02 5.978066e+01 -1.567369e+02
      vertex -2.390083e+02 3.345144e+01 -1.654005e+02
    endloop
  endfacet
  facet normal -6.584571e-01 -7.488793e-01 7.492728e-02
    outer loop
      vertex -2.077424e+02 -1.604711e+01 -9.369630e+01
      vertex -2.367671e+02 1.613476e+00 -1.722505e+02
      vertex -2.159434e+02 -1.622496e+01 -1.675442e+02
    endloop
  endfacet
  facet normal -9.644914e-01 -4.068468e-02 2.609618e-01
    outer loop
      vertex -2.197243e+02 -1.709050e-01 -1.095402e+02
      vertex -2.223362e+02 3.230354e+01 -1.141306e+02
      vertex -2.367671e+02 1.613476e+00 -1.722505e+02
    endloop
  endfacet
  facet normal -8.723757e-01 -4.341150e-01 2.247327e-01
    outer loop
      vertex -2.077424e+02 -1.604711e+01 -9.369630e+01
      vertex -2.197243e+02 -1.709050e-01 -1.095402e+02
      vertex -2.367671e+02 1.613476e+00 -1.722505e+02
    endloop
  endfacet
  facet normal -5.577092e-01 3.467699e-01 -7.541294e-01
    outer loop
      vertex -2.072636e+02 5.681966e+01 -1.816366e+02
      vertex -2.072917e+02 4.615209e+01 -1.865211e+02
      vertex -2.379395e+02 2.342324e+01 -1.743071e+02
    endloop
  endfacet
  facet normal -8.330112e-01 4.517468e-01 -3.194014e-01
    outer loop
      vertex -2.216806e+02 5.325079e+01 -1.745243e+02
      vertex -2.379395e+02 2.342324e+01 -1.743071e+02
      vertex -2.249596e+02 5.978066e+01 -1.567369e+02
    endloop
  endfacet
  facet normal -4.777771e-01 2.543137e-01 -8.408648e-01
    outer loop
      vertex -2.072636e+02 5.681966e+01 -1.816366e+02
      vertex -2.379395e+02 2.342324e+01 -1.743071e+02
      vertex -2.216806e+02 5.325079e+01 -1.745243e+02
    endloop
  endfacet
  facet normal 7.943307e-02 -9.967074e-01 -1.627319e-02
    outer loop
      vertex -1.570521e+02 -1.166409e+01 -1.594287e+02
      vertex -2.159434e+02 -1.622496e+01 -1.675442e+02
      vertex -2.083421e+02 -1.521092e+01 -1.925482e+02
    endloop
  endfacet
  facet normal -5.023263e-01 -8.627399e-01 5.786266e-02
    outer loop
      vertex -2.071678e+02 -2.223623e+01 -1.809888e+02
      vertex -2.077424e+02 -1.604711e+01 -9.369630e+01
      vertex -2.159434e+02 -1.622496e+01 -1.675442e+02
    endloop
  endfacet
  facet normal -1.321175e-02 9.095835e-01 -4.153112e-01
    outer loop
      vertex -1.570521e+02 -1.166409e+01 -1.594287e+02
      vertex -2.071678e+02 -2.223623e+01 -1.809888e+02
      vertex -2.159434e+02 -1.622496e+01 -1.675442e+02
    endloop
  endfacet
  facet normal -2.195258e-01 9.908688e-02 -9.705618e-01
    outer loop
      vertex -1.569966e+02 3.694500e+01 -1.988370e+02
      vertex -2.083421e+02 -1.521092e+01 -1.925482e+02
      vertex -2.072917e+02 4.615209e+01 -1.865211e+02
    endloop
  endfacet
  facet normal 4.712470e-02 -9.983125e-01 3.393260e-02
    outer loop
      vertex -1.572177e+02 -1.293720e+01 -1.966543e+02
      vertex -1.570521e+02 -1.166409e+01 -1.594287e+02
      vertex -2.083421e+02 -1.521092e+01 -1.925482e+02
    endloop
  endfacet
  facet normal -7.807338e-02 -4.323590e-02 -9.960096e-01
    outer loop
      vertex -1.569966e+02 3.694500e+01 -1.988370e+02
      vertex -1.572177e+02 -1.293720e+01 -1.966543e+02
      vertex -2.083421e+02 -1.521092e+01 -1.925482e+02
    endloop
  endfacet
  facet normal -1.304734e-01 4.130412e-01 -9.013177e-01
    outer loop
      vertex -1.662255e+02 4.987843e+01 -1.907581e+02
      vertex -2.072917e+02 4.615209e+01 -1.865211e+02
      vertex -2.072636e+02 5.681966e+01 -1.816366e+02
    endloop
  endfacet
  facet normal -1.321680e-01 4.555862e-01 -8.803254e-01
    outer loop
      vertex -1.662255e+02 4.987843e+01 -1.907581e+02
      vertex -1.569966e+02 3.694500e+01 -1.988370e+02
      vertex -2.072917e+02 4.615209e+01 -1.865211e+02
    endloop
  endfacet
  facet normal -8.814021e-01 -4.121478e-03 4.723488e-01
    outer loop
      vertex -2.117841e+02 4.418762e+01 -9.433662e+01
      vertex -2.223362e+02 3.230354e+01 -1.141306e+02
      vertex -2.197243e+02 -1.709050e-01 -1.095402e+02
    endloop
  endfacet
  facet normal -7.830850e-01 6.202807e-01 4.505254e-02
    outer loop
      vertex -1.928304e+02 6.901386e+01 -1.066980e+02
      vertex -2.223362e+02 3.230354e+01 -1.141306e+02
      vertex -2.117841e+02 4.418762e+01 -9.433662e+01
    endloop
  endfacet
  facet normal -6.904835e-01 4.384985e-01 5.752839e-01
    outer loop
      vertex -1.928304e+02 6.901386e+01 -1.066980e+02
      vertex -2.117440e+02 5.866073e+01 -1.215075e+02
      vertex -2.223362e+02 3.230354e+01 -1.141306e+02
    endloop
  endfacet
  facet normal -8.196226e-01 -4.892735e-02 5.708108e-01
    outer loop
      vertex -2.117841e+02 4.418762e+01 -9.433662e+01
      vertex -2.197243e+02 -1.709050e-01 -1.095402e+02
      vertex -2.077424e+02 -1.604711e+01 -9.369630e+01
    endloop
  endfacet
  facet normal -9.714118e-01 -6.274622e-02 2.289586e-01
    outer loop
      vertex -1.963441e+02 3.398225e+01 -3.162565e+01
      vertex -2.117841e+02 4.418762e+01 -9.433662e+01
      vertex -2.077424e+02 -1.604711e+01 -9.369630e+01
    endloop
  endfacet
  facet normal -5.677848e-01 -8.213710e-01 5.449872e-02
    outer loop
      vertex -1.913433e+02 -2.734972e+01 -9.319097e+01
      vertex -2.077424e+02 -1.604711e+01 -9.369630e+01
      vertex -2.071678e+02 -2.223623e+01 -1.809888e+02
    endloop
  endfacet
  facet normal -5.648268e-01 -8.132599e-01 1.399254e-01
    outer loop
      vertex -1.958796e+02 -1.288973e+01 -2.745966e+01
      vertex -2.077424e+02 -1.604711e+01 -9.369630e+01
      vertex -1.913433e+02 -2.734972e+01 -9.319097e+01
    endloop
  endfacet
  facet normal -9.843696e-01 5.890131e-03 1.760167e-01
    outer loop
      vertex -1.963441e+02 3.398225e+01 -3.162565e+01
      vertex -2.077424e+02 -1.604711e+01 -9.369630e+01
      vertex -1.958796e+02 -1.288973e+01 -2.745966e+01
    endloop
  endfacet
  facet normal -7.137005e-01 6.606986e-01 2.326135e-01
    outer loop
      vertex -1.819026e+02 5.932735e+01 -4.565662e+01
      vertex -1.928304e+02 6.901386e+01 -1.066980e+02
      vertex -2.117841e+02 4.418762e+01 -9.433662e+01
    endloop
  endfacet
  facet normal -7.578942e-01 5.881304e-01 2.823102e-01
    outer loop
      vertex -1.819026e+02 5.932735e+01 -4.565662e+01
      vertex -2.117841e+02 4.418762e+01 -9.433662e+01
      vertex -1.963441e+02 3.398225e+01 -3.162565e+01
    endloop
  endfacet
  facet normal -3.901937e-01 8.387333e-01 -3.798360e-01
    outer loop
      vertex -2.101452e+02 7.001012e+01 -1.493672e+02
      vertex -2.216806e+02 5.325079e+01 -1.745243e+02
      vertex -2.249596e+02 5.978066e+01 -1.567369e+02
    endloop
  endfacet
  facet normal -6.351183e-01 7.219619e-01 2.745830e-01
    outer loop
      vertex -1.928304e+02 6.901386e+01 -1.066980e+02
      vertex -2.101452e+02 7.001012e+01 -1.493672e+02
      vertex -2.249596e+02 5.978066e+01 -1.567369e+02
    endloop
  endfacet
  facet normal -6.091721e-01 7.517939e-01 2.524188e-01
    outer loop
      vertex -1.928304e+02 6.901386e+01 -1.066980e+02
      vertex -2.249596e+02 5.978066e+01 -1.567369e+02
      vertex -2.117440e+02 5.866073e+01 -1.215075e+02
    endloop
  endfacet
  facet normal -3.937838e-01 8.380147e-01 -3.777111e-01
    outer loop
      vertex -2.072636e+02 5.681966e+01 -1.816366e+02
      vertex -2.216806e+02 5.325079e+01 -1.745243e+02
      vertex -2.101452e+02 7.001012e+01 -1.493672e+02
    endloop
  endfacet
  facet normal 5.551139e-02 9.259532e-01 -3.735360e-01
    outer loop
      vertex -1.535065e+02 6.907472e+01 -1.432688e+02
      vertex -2.072636e+02 5.681966e+01 -1.816366e+02
      vertex -2.101452e+02 7.001012e+01 -1.493672e+02
    endloop
  endfacet
  facet normal -9.986513e-02 9.929593e-01 6.370854e-02
    outer loop
      vertex -1.600811e+02 7.157621e+01 -9.529911e+01
      vertex -2.101452e+02 7.001012e+01 -1.493672e+02
      vertex -1.928304e+02 6.901386e+01 -1.066980e+02
    endloop
  endfacet
  facet normal 2.177663e-02 9.985571e-01 -4.908732e-02
    outer loop
      vertex -1.600811e+02 7.157621e+01 -9.529911e+01
      vertex -1.535065e+02 6.907472e+01 -1.432688e+02
      vertex -2.101452e+02 7.001012e+01 -1.493672e+02
    endloop
  endfacet
  facet normal 6.873211e-02 9.183964e-01 -3.896459e-01
    outer loop
      vertex -1.662255e+02 4.987843e+01 -1.907581e+02
      vertex -2.072636e+02 5.681966e+01 -1.816366e+02
      vertex -1.535065e+02 6.907472e+01 -1.432688e+02
    endloop
  endfacet
  facet normal -1.576700e-01 9.584988e-01 2.375295e-01
    outer loop
      vertex -1.517357e+02 5.838113e+01 -3.651361e+01
      vertex -1.600811e+02 7.157621e+01 -9.529911e+01
      vertex -1.928304e+02 6.901386e+01 -1.066980e+02
    endloop
  endfacet
  facet normal -1.745902e-02 9.870030e-01 1.597508e-01
    outer loop
      vertex -1.517357e+02 5.838113e+01 -3.651361e+01
      vertex -1.928304e+02 6.901386e+01 -1.066980e+02
      vertex -1.819026e+02 5.932735e+01 -4.565662e+01
    endloop
  endfacet
  facet normal -1.040265e-01 -9.938044e-01 -3.913127e-02
    outer loop
      vertex -1.603125e+02 -3.099470e+01 -8.311287e+01
      vertex -1.913433e+02 -2.734972e+01 -9.319097e+01
      vertex -2.071678e+02 -2.223623e+01 -1.809888e+02
    endloop
  endfacet
  facet normal 3.635637e-01 -8.193132e-01 -4.433366e-01
    outer loop
      vertex -1.570521e+02 -1.166409e+01 -1.594287e+02
      vertex -1.709584e+02 -2.256726e+01 -1.506831e+02
      vertex -2.071678e+02 -2.223623e+01 -1.809888e+02
    endloop
  endfacet
  facet normal 1.079865e-01 -9.842775e-01 -1.397740e-01
    outer loop
      vertex -1.603125e+02 -3.099470e+01 -8.311287e+01
      vertex -2.071678e+02 -2.223623e+01 -1.809888e+02
      vertex -1.709584e+02 -2.256726e+01 -1.506831e+02
    endloop
  endfacet
  facet normal -9.547702e-02 -9.932895e-01 -6.526924e-02
    outer loop
      vertex -1.538214e+02 -3.486312e+01 -3.373720e+01
      vertex -1.913433e+02 -2.734972e+01 -9.319097e+01
      vertex -1.603125e+02 -3.099470e+01 -8.311287e+01
    endloop
  endfacet
  facet normal -7.587503e-01 -6.451939e-01 8.956978e-02
    outer loop
      vertex -1.823063e+02 -2.946314e+01 -3.186196e+01
      vertex -1.958796e+02 -1.288973e+01 -2.745966e+01
      vertex -1.913433e+02 -2.734972e+01 -9.319097e+01
    endloop
  endfacet
  facet normal -1.866559e-01 -9.824048e-01 -6.349823e-03
    outer loop
      vertex -1.538214e+02 -3.486312e+01 -3.373720e+01
      vertex -1.823063e+02 -2.946314e+01 -3.186196e+01
      vertex -1.913433e+02 -2.734972e+01 -9.319097e+01
    endloop
  endfacet
  facet normal 5.100509e-01 -8.304016e-01 -2.242346e-01
    outer loop
      vertex -1.570521e+02 -1.166409e+01 -1.594287e+02
      vertex -1.454058e+02 -2.326212e+01 -8.998708e+01
      vertex -1.709584e+02 -2.256726e+01 -1.506831e+02
    endloop
  endfacet
  facet normal 3.889764e-01 -9.046447e-01 -1.741131e-01
    outer loop
      vertex -1.603125e+02 -3.099470e+01 -8.311287e+01
      vertex -1.709584e+02 -2.256726e+01 -1.506831e+02
      vertex -1.454058e+02 -2.326212e+01 -8.998708e+01
    endloop
  endfacet
  facet normal 7.889575e-01 -5.707242e-01 -2.276400e-01
    outer loop
      vertex -1.264612e+02 -2.411456e+00 -7.660404e+01
      vertex -1.454058e+02 -2.326212e+01 -8.998708e+01
      vertex -1.570521e+02 -1.166409e+01 -1.594287e+02
    endloop
  endfacet
  facet normal 5.565955e-01 -7.435617e-01 3.705638e-01
    outer loop
      vertex -1.264612e+02 -2.411456e+00 -7.660404e+01
      vertex -1.603125e+02 -3.099470e+01 -8.311287e+01
      vertex -1.454058e+02 -2.326212e+01 -8.998708e+01
    endloop
  endfacet
  facet normal 7.212877e-01 -6.923330e-01 2.047001e-02
    outer loop
      vertex -1.414120e+02 5.046405e+00 -1.453518e+02
      vertex -1.570521e+02 -1.166409e+01 -1.594287e+02
      vertex -1.572177e+02 -1.293720e+01 -1.966543e+02
    endloop
  endfacet
  facet normal 8.003457e-01 -5.520151e-01 -2.339363e-01
    outer loop
      vertex -1.414120e+02 5.046405e+00 -1.453518e+02
      vertex -1.264612e+02 -2.411456e+00 -7.660404e+01
      vertex -1.570521e+02 -1.166409e+01 -1.594287e+02
    endloop
  endfacet
  facet normal 3.031743e-01 -9.460940e-01 -1.139798e-01
    outer loop
      vertex -1.416645e+02 -3.074272e+01 -3.560267e+01
      vertex -1.538214e+02 -3.486312e+01 -3.373720e+01
      vertex -1.603125e+02 -3.099470e+01 -8.311287e+01
    endloop
  endfacet
  facet normal 5.720295e-01 -5.360933e-01 -6.207948e-01
    outer loop
      vertex -1.264612e+02 -2.411456e+00 -7.660404e+01
      vertex -1.377198e+02 -2.165669e+01 -7.035881e+01
      vertex -1.603125e+02 -3.099470e+01 -8.311287e+01
    endloop
  endfacet
  facet normal 4.590636e-01 -8.708830e-01 -1.755660e-01
    outer loop
      vertex -1.416645e+02 -3.074272e+01 -3.560267e+01
      vertex -1.603125e+02 -3.099470e+01 -8.311287e+01
      vertex -1.377198e+02 -2.165669e+01 -7.035881e+01
    endloop
  endfacet
  facet normal -3.369788e-02 -2.822641e-01 9.587447e-01
    outer loop
      vertex -1.475463e+02 -2.725335e+01 -2.998963e+01
      vertex -1.958796e+02 -1.288973e+01 -2.745966e+01
      vertex -1.823063e+02 -2.946314e+01 -3.186196e+01
    endloop
  endfacet
  facet normal 6.211761e-02 3.332505e-02 9.975123e-01
    outer loop
      vertex -1.470168e+02 5.227955e+01 -3.267966e+01
      vertex -1.958796e+02 -1.288973e+01 -2.745966e+01
      vertex -1.475463e+02 -2.725335e+01 -2.998963e+01
    endloop
  endfacet
  facet normal -1.151292e-02 8.841229e-02 9.960174e-01
    outer loop
      vertex -1.470168e+02 5.227955e+01 -3.267966e+01
      vertex -1.963441e+02 3.398225e+01 -3.162565e+01
      vertex -1.958796e+02 -1.288973e+01 -2.745966e+01
    endloop
  endfacet
  facet normal -2.151533e-02 -4.273631e-01 9.038240e-01
    outer loop
      vertex -1.475463e+02 -2.725335e+01 -2.998963e+01
      vertex -1.823063e+02 -2.946314e+01 -3.186196e+01
      vertex -1.538214e+02 -3.486312e+01 -3.373720e+01
    endloop
  endfacet
  facet normal 6.407386e-01 -6.920671e-01 3.324111e-01
    outer loop
      vertex -1.218937e+02 -8.097153e+00 -3.955374e+01
      vertex -1.475463e+02 -2.725335e+01 -2.998963e+01
      vertex -1.538214e+02 -3.486312e+01 -3.373720e+01
    endloop
  endfacet
  facet normal 1.325506e-01 5.692527e-02 9.895402e-01
    outer loop
      vertex -1.416645e+02 -3.074272e+01 -3.560267e+01
      vertex -1.218937e+02 -8.097153e+00 -3.955374e+01
      vertex -1.538214e+02 -3.486312e+01 -3.373720e+01
    endloop
  endfacet
  facet normal 2.901461e-01 3.041973e-02 9.564988e-01
    outer loop
      vertex -1.233280e+02 3.186723e+01 -3.921626e+01
      vertex -1.470168e+02 5.227955e+01 -3.267966e+01
      vertex -1.475463e+02 -2.725335e+01 -2.998963e+01
    endloop
  endfacet
  facet normal 3.463800e-01 4.510018e-03 9.380835e-01
    outer loop
      vertex -1.233280e+02 3.186723e+01 -3.921626e+01
      vertex -1.475463e+02 -2.725335e+01 -2.998963e+01
      vertex -1.218937e+02 -8.097153e+00 -3.955374e+01
    endloop
  endfacet
  facet normal 7.588234e-01 -3.182700e-02 -6.505183e-01
    outer loop
      vertex -1.531325e+02 4.146076e+01 -1.945504e+02
      vertex -1.572177e+02 -1.293720e+01 -1.966543e+02
      vertex -1.569966e+02 3.694500e+01 -1.988370e+02
    endloop
  endfacet
  facet normal 9.068039e-01 -5.191980e-02 -4.183432e-01
    outer loop
      vertex -1.531325e+02 4.146076e+01 -1.945504e+02
      vertex -1.403915e+02 4.333064e+01 -1.671651e+02
      vertex -1.572177e+02 -1.293720e+01 -1.966543e+02
    endloop
  endfacet
  facet normal 9.576462e-01 -1.613955e-01 -2.384644e-01
    outer loop
      vertex -1.414120e+02 5.046405e+00 -1.453518e+02
      vertex -1.572177e+02 -1.293720e+01 -1.966543e+02
      vertex -1.403915e+02 4.333064e+01 -1.671651e+02
    endloop
  endfacet
  facet normal 5.829672e-01 6.869799e-01 -4.338293e-01
    outer loop
      vertex -1.662255e+02 4.987843e+01 -1.907581e+02
      vertex -1.535065e+02 6.907472e+01 -1.432688e+02
      vertex -1.569966e+02 3.694500e+01 -1.988370e+02
    endloop
  endfacet
  facet normal 3.365075e-01 8.059055e-01 -4.871128e-01
    outer loop
      vertex -1.425718e+02 4.981489e+01 -1.675794e+02
      vertex -1.569966e+02 3.694500e+01 -1.988370e+02
      vertex -1.535065e+02 6.907472e+01 -1.432688e+02
    endloop
  endfacet
  facet normal 8.359386e-01 2.498607e-01 -4.886473e-01
    outer loop
      vertex -1.403915e+02 4.333064e+01 -1.671651e+02
      vertex -1.569966e+02 3.694500e+01 -1.988370e+02
      vertex -1.425718e+02 4.981489e+01 -1.675794e+02
    endloop
  endfacet
  facet normal -8.496319e-01 3.761906e-01 3.696028e-01
    outer loop
      vertex -1.531325e+02 4.146076e+01 -1.945504e+02
      vertex -1.569966e+02 3.694500e+01 -1.988370e+02
      vertex -1.403915e+02 4.333064e+01 -1.671651e+02
    endloop
  endfacet
  facet normal -1.455158e-01 4.432447e-01 8.845108e-01
    outer loop
      vertex -1.517357e+02 5.838113e+01 -3.651361e+01
      vertex -1.963441e+02 3.398225e+01 -3.162565e+01
      vertex -1.470168e+02 5.227955e+01 -3.267966e+01
    endloop
  endfacet
  facet normal -2.227547e-01 5.662415e-01 7.935685e-01
    outer loop
      vertex -1.517357e+02 5.838113e+01 -3.651361e+01
      vertex -1.819026e+02 5.932735e+01 -4.565662e+01
      vertex -1.963441e+02 3.398225e+01 -3.162565e+01
    endloop
  endfacet
  facet normal 4.124617e-01 6.915793e-01 5.929532e-01
    outer loop
      vertex -1.343086e+02 5.158635e+01 -4.071102e+01
      vertex -1.517357e+02 5.838113e+01 -3.651361e+01
      vertex -1.470168e+02 5.227955e+01 -3.267966e+01
    endloop
  endfacet
  facet normal 5.146481e-01 3.460460e-01 7.844677e-01
    outer loop
      vertex -1.343086e+02 5.158635e+01 -4.071102e+01
      vertex -1.470168e+02 5.227955e+01 -3.267966e+01
      vertex -1.233280e+02 3.186723e+01 -3.921626e+01
    endloop
  endfacet
  facet normal 3.967314e-01 7.979570e-01 -4.537276e-01
    outer loop
      vertex -1.440686e+02 6.179741e+01 -1.478149e+02
      vertex -1.425718e+02 4.981489e+01 -1.675794e+02
      vertex -1.535065e+02 6.907472e+01 -1.432688e+02
    endloop
  endfacet
  facet normal 4.974910e-01 8.671651e-01 2.296475e-02
    outer loop
      vertex -1.361714e+02 5.764063e+01 -8.704283e+01
      vertex -1.535065e+02 6.907472e+01 -1.432688e+02
      vertex -1.600811e+02 7.157621e+01 -9.529911e+01
    endloop
  endfacet
  facet normal 6.032213e-01 7.972170e-01 -2.385765e-02
    outer loop
      vertex -1.440686e+02 6.179741e+01 -1.478149e+02
      vertex -1.535065e+02 6.907472e+01 -1.432688e+02
      vertex -1.361714e+02 5.764063e+01 -8.704283e+01
    endloop
  endfacet
  facet normal 9.436333e-01 3.098537e-01 -1.163911e-01
    outer loop
      vertex -1.440686e+02 6.179741e+01 -1.478149e+02
      vertex -1.403915e+02 4.333064e+01 -1.671651e+02
      vertex -1.425718e+02 4.981489e+01 -1.675794e+02
    endloop
  endfacet
  facet normal 3.900920e-01 9.087073e-01 1.485906e-01
    outer loop
      vertex -1.343086e+02 5.158635e+01 -4.071102e+01
      vertex -1.600811e+02 7.157621e+01 -9.529911e+01
      vertex -1.517357e+02 5.838113e+01 -3.651361e+01
    endloop
  endfacet
  facet normal 4.765742e-01 8.739815e-01 9.504367e-02
    outer loop
      vertex -1.343086e+02 5.158635e+01 -4.071102e+01
      vertex -1.361714e+02 5.764063e+01 -8.704283e+01
      vertex -1.600811e+02 7.157621e+01 -9.529911e+01
    endloop
  endfacet
  facet normal 8.211821e-01 -5.401462e-01 -1.841252e-01
    outer loop
      vertex -1.264612e+02 -2.411456e+00 -7.660404e+01
      vertex -1.218937e+02 -8.097153e+00 -3.955374e+01
      vertex -1.377198e+02 -2.165669e+01 -7.035881e+01
    endloop
  endfacet
  facet normal 7.425264e-01 -6.638416e-01 -8.926854e-02
    outer loop
      vertex -1.416645e+02 -3.074272e+01 -3.560267e+01
      vertex -1.377198e+02 -2.165669e+01 -7.035881e+01
      vertex -1.218937e+02 -8.097153e+00 -3.955374e+01
    endloop
  endfacet
  facet normal 9.924881e-01 3.660684e-02 -1.167359e-01
    outer loop
      vertex -1.233280e+02 3.186723e+01 -3.921626e+01
      vertex -1.218937e+02 -8.097153e+00 -3.955374e+01
      vertex -1.264612e+02 -2.411456e+00 -7.660404e+01
    endloop
  endfacet
  facet normal 9.708079e-01 -9.277776e-02 -2.211883e-01
    outer loop
      vertex -1.238500e+02 3.520533e+01 -8.092146e+01
      vertex -1.264612e+02 -2.411456e+00 -7.660404e+01
      vertex -1.414120e+02 5.046405e+00 -1.453518e+02
    endloop
  endfacet
  facet normal 9.972878e-01 -7.131693e-02 -1.818907e-02
    outer loop
      vertex -1.233280e+02 3.186723e+01 -3.921626e+01
      vertex -1.264612e+02 -2.411456e+00 -7.660404e+01
      vertex -1.238500e+02 3.520533e+01 -8.092146e+01
    endloop
  endfacet
  facet normal 9.700071e-01 -1.393391e-01 -1.991754e-01
    outer loop
      vertex -1.238500e+02 3.520533e+01 -8.092146e+01
      vertex -1.414120e+02 5.046405e+00 -1.453518e+02
      vertex -1.403915e+02 4.333064e+01 -1.671651e+02
    endloop
  endfacet
  facet normal 8.836272e-01 4.506304e-01 -1.270247e-01
    outer loop
      vertex -1.361714e+02 5.764063e+01 -8.704283e+01
      vertex -1.238500e+02 3.520533e+01 -8.092146e+01
      vertex -1.403915e+02 4.333064e+01 -1.671651e+02
    endloop
  endfacet
  facet normal 9.493020e-01 2.969974e-01 -1.030447e-01
    outer loop
      vertex -1.440686e+02 6.179741e+01 -1.478149e+02
      vertex -1.361714e+02 5.764063e+01 -8.704283e+01
      vertex -1.403915e+02 4.333064e+01 -1.671651e+02
    endloop
  endfacet
  facet normal 8.724233e-01 4.879405e-01 2.813682e-02
    outer loop
      vertex -1.343086e+02 5.158635e+01 -4.071102e+01
      vertex -1.233280e+02 3.186723e+01 -3.921626e+01
      vertex -1.238500e+02 3.520533e+01 -8.092146e+01
    endloop
  endfacet
  facet normal 8.728451e-01 4.871607e-01 2.856420e-02
    outer loop
      vertex -1.343086e+02 5.158635e+01 -4.071102e+01
      vertex -1.238500e+02 3.520533e+01 -8.092146e+01
      vertex -1.361714e+02 5.764063e+01 -8.704283e+01
    endloop
  endfacet
endsolid SIM_ICUB3_L_UPPERARM
