solid SIM_ICUB3_R_UPPER_LEG
  facet normal -9.371548e-01 -3.135862e-01 -1.529853e-01
    outer loop
      vertex 2.465748e+01 -1.040867e+01 -5.986126e+02
      vertex 1.975000e+01 5.262439e+00 -6.006728e+02
      vertex 2.465748e+01 -3.453346e+00 -6.128695e+02
    endloop
  endfacet
  facet normal -9.469487e-01 -2.492208e-01 -2.029216e-01
    outer loop
      vertex 2.289652e+01 8.488819e+00 -6.193188e+02
      vertex 2.465748e+01 -3.453346e+00 -6.128695e+02
      vertex 1.975000e+01 5.262439e+00 -6.006728e+02
    endloop
  endfacet
  facet normal -2.021580e-06 -8.987498e-01 -4.384618e-01
    outer loop
      vertex 2.875000e+01 -1.040854e+01 -5.986129e+02
      vertex 2.465748e+01 -1.040867e+01 -5.986126e+02
      vertex 2.465748e+01 -3.453346e+00 -6.128695e+02
    endloop
  endfacet
  facet normal -4.615390e-01 -4.732700e-01 -7.503314e-01
    outer loop
      vertex 2.875000e+01 6.919829e+00 -6.219297e+02
      vertex 2.465748e+01 -3.453346e+00 -6.128695e+02
      vertex 2.289652e+01 8.488819e+00 -6.193188e+02
    endloop
  endfacet
  facet normal 1.463257e-04 -8.987330e-01 -4.384962e-01
    outer loop
      vertex 2.875000e+01 -1.040854e+01 -5.986129e+02
      vertex 2.465748e+01 -3.453346e+00 -6.128695e+02
      vertex 2.875000e+01 -3.452230e+00 -6.128704e+02
    endloop
  endfacet
  facet normal 9.813910e-06 -6.578361e-01 -7.531611e-01
    outer loop
      vertex 2.875000e+01 6.919829e+00 -6.219297e+02
      vertex 2.875000e+01 -3.452230e+00 -6.128704e+02
      vertex 2.465748e+01 -3.453346e+00 -6.128695e+02
    endloop
  endfacet
  facet normal -9.243245e-01 -3.173224e-01 -2.119685e-01
    outer loop
      vertex 1.412451e+01 5.515644e+00 -5.765209e+02
      vertex 1.975000e+01 5.262439e+00 -6.006728e+02
      vertex 2.465748e+01 -1.040867e+01 -5.986126e+02
    endloop
  endfacet
  facet normal -9.497789e-01 -2.392631e-01 -2.016762e-01
    outer loop
      vertex 1.357465e+01 2.848153e+01 -5.991370e+02
      vertex 2.289652e+01 8.488819e+00 -6.193188e+02
      vertex 1.975000e+01 5.262439e+00 -6.006728e+02
    endloop
  endfacet
  facet normal -9.739318e-01 -3.626131e-03 -2.268119e-01
    outer loop
      vertex 1.412823e+01 2.843590e+01 -5.769034e+02
      vertex 1.975000e+01 5.262439e+00 -6.006728e+02
      vertex 1.412451e+01 5.515644e+00 -5.765209e+02
    endloop
  endfacet
  facet normal -9.657501e-01 -2.584061e-01 2.351527e-02
    outer loop
      vertex 1.412823e+01 2.843590e+01 -5.769034e+02
      vertex 1.357465e+01 2.848153e+01 -5.991370e+02
      vertex 1.975000e+01 5.262439e+00 -6.006728e+02
    endloop
  endfacet
  facet normal 2.188112e-05 -9.894713e-01 -1.447291e-01
    outer loop
      vertex 2.875000e+01 -1.371109e+01 -5.760343e+02
      vertex 2.465748e+01 -1.040867e+01 -5.986126e+02
      vertex 2.875000e+01 -1.040854e+01 -5.986129e+02
    endloop
  endfacet
  facet normal -3.572503e-01 -9.312712e-01 -7.145756e-02
    outer loop
      vertex 2.349496e+01 -1.171610e+01 -5.757616e+02
      vertex 2.465748e+01 -1.040867e+01 -5.986126e+02
      vertex 2.875000e+01 -1.371109e+01 -5.760343e+02
    endloop
  endfacet
  facet normal -8.749018e-01 -4.789316e-01 -7.191184e-02
    outer loop
      vertex 2.349496e+01 -1.171610e+01 -5.757616e+02
      vertex 1.412451e+01 5.515644e+00 -5.765209e+02
      vertex 2.465748e+01 -1.040867e+01 -5.986126e+02
    endloop
  endfacet
  facet normal -4.562371e-01 -5.821496e-01 -6.730153e-01
    outer loop
      vertex 2.465748e+01 1.381087e+01 -6.251161e+02
      vertex 2.875000e+01 6.919829e+00 -6.219297e+02
      vertex 2.289652e+01 8.488819e+00 -6.193188e+02
    endloop
  endfacet
  facet normal -9.139009e-01 -1.200233e-01 -3.877880e-01
    outer loop
      vertex 2.049050e+01 2.848167e+01 -6.198364e+02
      vertex 2.465748e+01 1.381087e+01 -6.251161e+02
      vertex 2.289652e+01 8.488819e+00 -6.193188e+02
    endloop
  endfacet
  facet normal -9.414427e-01 -1.214414e-01 -3.145434e-01
    outer loop
      vertex 1.357465e+01 2.848153e+01 -5.991370e+02
      vertex 2.049050e+01 2.848167e+01 -6.198364e+02
      vertex 2.289652e+01 8.488819e+00 -6.193188e+02
    endloop
  endfacet
  facet normal 1.000000e+00 3.749714e-15 4.819687e-15
    outer loop
      vertex 2.875000e+01 2.617165e+00 -6.021128e+02
      vertex 2.875000e+01 -1.040854e+01 -5.986129e+02
      vertex 2.875000e+01 -3.452230e+00 -6.128704e+02
    endloop
  endfacet
  facet normal 1.000000e+00 3.828382e-15 4.775303e-15
    outer loop
      vertex 2.875000e+01 6.919829e+00 -6.219297e+02
      vertex 2.875000e+01 2.617165e+00 -6.021128e+02
      vertex 2.875000e+01 -3.452230e+00 -6.128704e+02
    endloop
  endfacet
  facet normal 1.000000e+00 4.001764e-15 4.676403e-15
    outer loop
      vertex 2.875000e+01 3.542012e+00 -5.756042e+02
      vertex 2.875000e+01 -1.371109e+01 -5.760343e+02
      vertex 2.875000e+01 -1.040854e+01 -5.986129e+02
    endloop
  endfacet
  facet normal 1.000000e+00 3.751918e-15 4.827888e-15
    outer loop
      vertex 2.875000e+01 2.617165e+00 -6.021128e+02
      vertex 2.875000e+01 3.542012e+00 -5.756042e+02
      vertex 2.875000e+01 -1.040854e+01 -5.986129e+02
    endloop
  endfacet
  facet normal 9.992332e-01 9.758294e-04 -3.914207e-02
    outer loop
      vertex 2.965000e+01 5.233965e+00 -5.525865e+02
      vertex 2.875000e+01 -1.371109e+01 -5.760343e+02
      vertex 2.875000e+01 3.542012e+00 -5.756042e+02
    endloop
  endfacet
  facet normal -3.577656e-01 -9.269430e-01 -1.130511e-01
    outer loop
      vertex 2.965000e+01 -1.693385e+01 -5.524580e+02
      vertex 2.349496e+01 -1.171610e+01 -5.757616e+02
      vertex 2.875000e+01 -1.371109e+01 -5.760343e+02
    endloop
  endfacet
  facet normal 9.992710e-01 -2.213062e-04 -3.817628e-02
    outer loop
      vertex 2.965000e+01 -1.693385e+01 -5.524580e+02
      vertex 2.875000e+01 -1.371109e+01 -5.760343e+02
      vertex 2.965000e+01 5.233965e+00 -5.525865e+02
    endloop
  endfacet
  facet normal 9.992267e-01 -3.929536e-02 1.370959e-03
    outer loop
      vertex 2.975000e+01 2.896296e+01 -5.758241e+02
      vertex 2.875000e+01 3.542012e+00 -5.756042e+02
      vertex 2.875000e+01 2.617165e+00 -6.021128e+02
    endloop
  endfacet
  facet normal 9.983992e-01 3.806316e-02 -4.183562e-02
    outer loop
      vertex 2.875000e+01 2.878327e+01 -5.526390e+02
      vertex 2.965000e+01 5.233965e+00 -5.525865e+02
      vertex 2.875000e+01 3.542012e+00 -5.756042e+02
    endloop
  endfacet
  facet normal 9.983278e-01 -3.890195e-02 4.275755e-02
    outer loop
      vertex 2.875000e+01 2.878327e+01 -5.526390e+02
      vertex 2.875000e+01 3.542012e+00 -5.756042e+02
      vertex 2.975000e+01 2.896296e+01 -5.758241e+02
    endloop
  endfacet
  facet normal 9.992541e-01 -3.773796e-02 -8.193680e-03
    outer loop
      vertex 2.975000e+01 2.878327e+01 -6.006728e+02
      vertex 2.875000e+01 2.617165e+00 -6.021128e+02
      vertex 2.875000e+01 6.919829e+00 -6.219297e+02
    endloop
  endfacet
  facet normal 9.992699e-01 -3.820469e-02 2.762731e-04
    outer loop
      vertex 2.975000e+01 2.896296e+01 -5.758241e+02
      vertex 2.875000e+01 2.617165e+00 -6.021128e+02
      vertex 2.975000e+01 2.878327e+01 -6.006728e+02
    endloop
  endfacet
  facet normal 8.377508e-05 -4.196535e-01 -9.076844e-01
    outer loop
      vertex 2.875000e+01 1.381104e+01 -6.251158e+02
      vertex 2.875000e+01 6.919829e+00 -6.219297e+02
      vertex 2.465748e+01 1.381087e+01 -6.251161e+02
    endloop
  endfacet
  facet normal 1.000000e+00 3.696020e-15 3.533912e-15
    outer loop
      vertex 2.875000e+01 2.878327e+01 -6.246897e+02
      vertex 2.875000e+01 6.919829e+00 -6.219297e+02
      vertex 2.875000e+01 1.381104e+01 -6.251158e+02
    endloop
  endfacet
  facet normal 9.991205e-01 -5.251514e-03 -4.160076e-02
    outer loop
      vertex 2.975000e+01 2.878327e+01 -6.006728e+02
      vertex 2.875000e+01 6.919829e+00 -6.219297e+02
      vertex 2.875000e+01 2.878327e+01 -6.246897e+02
    endloop
  endfacet
  facet normal -8.777910e-01 -4.784150e-01 -2.453678e-02
    outer loop
      vertex 1.349707e+01 5.442021e+00 -5.526389e+02
      vertex 1.412451e+01 5.515644e+00 -5.765209e+02
      vertex 2.349496e+01 -1.171610e+01 -5.757616e+02
    endloop
  endfacet
  facet normal -9.656480e-01 2.586892e-01 -2.457269e-02
    outer loop
      vertex 1.975000e+01 2.878327e+01 -5.526390e+02
      vertex 1.412451e+01 5.515644e+00 -5.765209e+02
      vertex 1.349707e+01 5.442021e+00 -5.526389e+02
    endloop
  endfacet
  facet normal -9.741995e-01 3.923156e-03 2.256545e-01
    outer loop
      vertex 1.975000e+01 2.878327e+01 -5.526390e+02
      vertex 1.412823e+01 2.843590e+01 -5.769034e+02
      vertex 1.412451e+01 5.515644e+00 -5.765209e+02
    endloop
  endfacet
  facet normal -8.989617e-01 -4.327877e-01 -6.754826e-02
    outer loop
      vertex 2.208648e+01 -1.252179e+01 -5.518549e+02
      vertex 1.349707e+01 5.442021e+00 -5.526389e+02
      vertex 2.349496e+01 -1.171610e+01 -5.757616e+02
    endloop
  endfacet
  facet normal -5.064954e-01 -8.602333e-01 -5.883152e-02
    outer loop
      vertex 2.965000e+01 -1.693385e+01 -5.524580e+02
      vertex 2.208648e+01 -1.252179e+01 -5.518549e+02
      vertex 2.349496e+01 -1.171610e+01 -5.757616e+02
    endloop
  endfacet
  facet normal -9.021687e-01 -4.313833e-01 -2.366623e-04
    outer loop
      vertex 1.349383e+01 5.435619e+00 -5.286218e+02
      vertex 1.349707e+01 5.442021e+00 -5.526389e+02
      vertex 2.208648e+01 -1.252179e+01 -5.518549e+02
    endloop
  endfacet
  facet normal -9.926764e-01 1.208038e-01 -1.016695e-04
    outer loop
      vertex 1.614388e+01 2.721383e+01 -5.261585e+02
      vertex 1.349707e+01 5.442021e+00 -5.526389e+02
      vertex 1.349383e+01 5.435619e+00 -5.286218e+02
    endloop
  endfacet
  facet normal -9.594832e-01 2.570373e-01 -1.154286e-01
    outer loop
      vertex 1.614388e+01 2.721383e+01 -5.261585e+02
      vertex 1.975000e+01 2.878327e+01 -5.526390e+02
      vertex 1.349707e+01 5.442021e+00 -5.526389e+02
    endloop
  endfacet
  facet normal -5.057892e-01 -8.617955e-01 -3.854705e-02
    outer loop
      vertex 2.965000e+01 -1.800000e+01 -5.286221e+02
      vertex 2.208648e+01 -1.252179e+01 -5.518549e+02
      vertex 2.965000e+01 -1.693385e+01 -5.524580e+02
    endloop
  endfacet
  facet normal -9.359822e-01 -3.424967e-01 -8.144505e-02
    outer loop
      vertex 2.006510e+01 -1.310825e+01 -5.261585e+02
      vertex 1.349383e+01 5.435619e+00 -5.286218e+02
      vertex 2.208648e+01 -1.252179e+01 -5.518549e+02
    endloop
  endfacet
  facet normal -4.653849e-01 -8.832861e-01 -5.676826e-02
    outer loop
      vertex 2.965000e+01 -1.800000e+01 -5.286221e+02
      vertex 2.006510e+01 -1.310825e+01 -5.261585e+02
      vertex 2.208648e+01 -1.252179e+01 -5.518549e+02
    endloop
  endfacet
  facet normal 1.000000e+00 3.873821e-15 4.739400e-15
    outer loop
      vertex 2.965000e+01 5.262439e+00 -5.286221e+02
      vertex 2.965000e+01 -1.693385e+01 -5.524580e+02
      vertex 2.965000e+01 5.233965e+00 -5.525865e+02
    endloop
  endfacet
  facet normal 9.781434e-01 -2.079313e-01 2.470605e-04
    outer loop
      vertex 3.465000e+01 2.878327e+01 -5.286221e+02
      vertex 2.965000e+01 5.262439e+00 -5.286221e+02
      vertex 2.965000e+01 5.233965e+00 -5.525865e+02
    endloop
  endfacet
  facet normal 9.704768e-01 3.655737e-02 -2.384079e-01
    outer loop
      vertex 3.465000e+01 2.878327e+01 -5.286221e+02
      vertex 2.965000e+01 5.233965e+00 -5.525865e+02
      vertex 2.875000e+01 2.878327e+01 -5.526390e+02
    endloop
  endfacet
  facet normal 1.000000e+00 3.818080e-15 4.791307e-15
    outer loop
      vertex 2.965000e+01 5.262439e+00 -5.286221e+02
      vertex 2.965000e+01 -1.800000e+01 -5.286221e+02
      vertex 2.965000e+01 -1.693385e+01 -5.524580e+02
    endloop
  endfacet
  facet normal -9.425735e-01 -3.339987e-01 1.115905e-04
    outer loop
      vertex 1.349417e+01 5.442330e+00 -5.056585e+02
      vertex 1.349383e+01 5.435619e+00 -5.286218e+02
      vertex 2.006510e+01 -1.310825e+01 -5.261585e+02
    endloop
  endfacet
  facet normal -9.926567e-01 1.209653e-01 -2.062604e-05
    outer loop
      vertex 1.615077e+01 2.724290e+01 -5.046036e+02
      vertex 1.349383e+01 5.435619e+00 -5.286218e+02
      vertex 1.349417e+01 5.442330e+00 -5.056585e+02
    endloop
  endfacet
  facet normal -9.926799e-01 1.207753e-01 1.544690e-04
    outer loop
      vertex 1.615077e+01 2.724290e+01 -5.046036e+02
      vertex 1.614388e+01 2.721383e+01 -5.261585e+02
      vertex 1.349383e+01 5.435619e+00 -5.286218e+02
    endloop
  endfacet
  facet normal -4.561155e-01 -8.898882e-01 -7.596574e-03
    outer loop
      vertex 2.925000e+01 -1.800000e+01 -5.046053e+02
      vertex 2.006510e+01 -1.310825e+01 -5.261585e+02
      vertex 2.965000e+01 -1.800000e+01 -5.286221e+02
    endloop
  endfacet
  facet normal -9.422255e-01 -3.349773e-01 1.108660e-03
    outer loop
      vertex 2.012506e+01 -1.320908e+01 -5.056585e+02
      vertex 1.349417e+01 5.442330e+00 -5.056585e+02
      vertex 2.006510e+01 -1.310825e+01 -5.261585e+02
    endloop
  endfacet
  facet normal -4.645860e-01 -8.855230e-01 -2.996170e-03
    outer loop
      vertex 2.925000e+01 -1.800000e+01 -5.046053e+02
      vertex 2.012506e+01 -1.320908e+01 -5.056585e+02
      vertex 2.006510e+01 -1.310825e+01 -5.261585e+02
    endloop
  endfacet
  facet normal 5.668741e-01 2.220351e-15 -8.238045e-01
    outer loop
      vertex 5.866199e+01 5.000432e+00 -5.086585e+02
      vertex 2.965000e+01 -1.800000e+01 -5.286221e+02
      vertex 2.965000e+01 5.262439e+00 -5.286221e+02
    endloop
  endfacet
  facet normal 2.158562e-01 -9.764186e-01 3.595070e-03
    outer loop
      vertex 5.865255e+01 -1.150000e+01 -5.046053e+02
      vertex 2.925000e+01 -1.800000e+01 -5.046053e+02
      vertex 2.965000e+01 -1.800000e+01 -5.286221e+02
    endloop
  endfacet
  facet normal 2.186932e-01 -9.757937e-01 -3.327527e-13
    outer loop
      vertex 5.865255e+01 -1.150000e+01 -5.056585e+02
      vertex 5.865255e+01 -1.150000e+01 -5.046053e+02
      vertex 2.965000e+01 -1.800000e+01 -5.286221e+02
    endloop
  endfacet
  facet normal 6.336800e-01 -1.387324e-01 -7.610538e-01
    outer loop
      vertex 5.866199e+01 5.000432e+00 -5.086585e+02
      vertex 5.865255e+01 -1.150000e+01 -5.056585e+02
      vertex 2.965000e+01 -1.800000e+01 -5.286221e+02
    endloop
  endfacet
  facet normal 9.691860e-03 -2.060272e-03 -9.999509e-01
    outer loop
      vertex 5.865255e+01 3.800000e+01 -5.284085e+02
      vertex 2.965000e+01 5.262439e+00 -5.286221e+02
      vertex 3.465000e+01 2.878327e+01 -5.286221e+02
    endloop
  endfacet
  facet normal 5.054981e-01 -4.429939e-01 -7.404243e-01
    outer loop
      vertex 5.865255e+01 3.800000e+01 -5.284085e+02
      vertex 5.866199e+01 5.000432e+00 -5.086585e+02
      vertex 2.965000e+01 5.262439e+00 -5.286221e+02
    endloop
  endfacet
  facet normal -9.364737e-01 -3.329325e-01 1.103312e-01
    outer loop
      vertex 1.444012e+01 4.769918e+00 -4.996585e+02
      vertex 1.349417e+01 5.442330e+00 -5.056585e+02
      vertex 2.012506e+01 -1.320908e+01 -5.056585e+02
    endloop
  endfacet
  facet normal -9.681773e-01 1.809217e-01 1.729164e-01
    outer loop
      vertex 1.846276e+01 2.629653e+01 -4.996585e+02
      vertex 1.349417e+01 5.442330e+00 -5.056585e+02
      vertex 1.444012e+01 4.769918e+00 -4.996585e+02
    endloop
  endfacet
  facet normal -8.957876e-01 8.807782e-02 4.356682e-01
    outer loop
      vertex 1.846276e+01 2.629653e+01 -4.996585e+02
      vertex 1.615077e+01 2.724290e+01 -5.046036e+02
      vertex 1.349417e+01 5.442330e+00 -5.056585e+02
    endloop
  endfacet
  facet normal -4.023953e-01 -6.179208e-01 6.754643e-01
    outer loop
      vertex 4.490030e+01 -6.168684e+00 -4.844585e+02
      vertex 2.012506e+01 -1.320908e+01 -5.056585e+02
      vertex 2.925000e+01 -1.800000e+01 -5.046053e+02
    endloop
  endfacet
  facet normal -9.455776e-01 -3.195258e-01 6.153215e-02
    outer loop
      vertex 2.007961e+01 -1.191912e+01 -4.996585e+02
      vertex 1.444012e+01 4.769918e+00 -4.996585e+02
      vertex 2.012506e+01 -1.320908e+01 -5.056585e+02
    endloop
  endfacet
  facet normal 9.686098e-02 -9.729126e-01 2.099024e-01
    outer loop
      vertex 4.490030e+01 -6.168684e+00 -4.844585e+02
      vertex 2.007961e+01 -1.191912e+01 -4.996585e+02
      vertex 2.012506e+01 -1.320908e+01 -5.056585e+02
    endloop
  endfacet
  facet normal -2.090183e-01 -7.636682e-01 6.108373e-01
    outer loop
      vertex 6.175000e+01 -1.078050e+01 -4.844585e+02
      vertex 4.490030e+01 -6.168684e+00 -4.844585e+02
      vertex 2.925000e+01 -1.800000e+01 -5.046053e+02
    endloop
  endfacet
  facet normal 2.158572e-01 -9.764235e-01 1.684251e-03
    outer loop
      vertex 6.175000e+01 -1.078050e+01 -4.844585e+02
      vertex 2.925000e+01 -1.800000e+01 -5.046053e+02
      vertex 5.865255e+01 -1.150000e+01 -5.046053e+02
    endloop
  endfacet
  facet normal -5.391608e-01 -1.821910e-01 8.222603e-01
    outer loop
      vertex 3.729051e+01 5.748664e+00 -4.844585e+02
      vertex 1.444012e+01 4.769918e+00 -4.996585e+02
      vertex 2.007961e+01 -1.191912e+01 -4.996585e+02
    endloop
  endfacet
  facet normal -5.535893e-01 1.149611e-01 8.248169e-01
    outer loop
      vertex 4.114753e+01 2.432193e+01 -4.844585e+02
      vertex 1.444012e+01 4.769918e+00 -4.996585e+02
      vertex 3.729051e+01 5.748664e+00 -4.844585e+02
    endloop
  endfacet
  facet normal -5.475625e-01 1.023221e-01 8.304851e-01
    outer loop
      vertex 4.114753e+01 2.432193e+01 -4.844585e+02
      vertex 1.846276e+01 2.629653e+01 -4.996585e+02
      vertex 1.444012e+01 4.769918e+00 -4.996585e+02
    endloop
  endfacet
  facet normal -4.507639e-01 -2.878341e-01 8.449635e-01
    outer loop
      vertex 3.729051e+01 5.748664e+00 -4.844585e+02
      vertex 2.007961e+01 -1.191912e+01 -4.996585e+02
      vertex 4.490030e+01 -6.168684e+00 -4.844585e+02
    endloop
  endfacet
  facet normal -7.891097e-01 -5.038839e-01 3.512932e-01
    outer loop
      vertex 4.045951e+01 4.759718e+00 -4.787585e+02
      vertex 3.729051e+01 5.748664e+00 -4.844585e+02
      vertex 4.490030e+01 -6.168684e+00 -4.844585e+02
    endloop
  endfacet
  facet normal -2.106863e-01 -7.697625e-01 6.025586e-01
    outer loop
      vertex 6.405014e+01 -6.948176e+00 -4.787585e+02
      vertex 4.490030e+01 -6.168684e+00 -4.844585e+02
      vertex 6.175000e+01 -1.078050e+01 -4.844585e+02
    endloop
  endfacet
  facet normal -6.184373e-01 -5.460564e-01 5.651175e-01
    outer loop
      vertex 5.016091e+01 -6.227628e+00 -4.787585e+02
      vertex 4.045951e+01 4.759718e+00 -4.787585e+02
      vertex 4.490030e+01 -6.168684e+00 -4.844585e+02
    endloop
  endfacet
  facet normal -5.177217e-02 -9.979561e-01 3.746137e-02
    outer loop
      vertex 6.405014e+01 -6.948176e+00 -4.787585e+02
      vertex 5.016091e+01 -6.227628e+00 -4.787585e+02
      vertex 4.490030e+01 -6.168684e+00 -4.844585e+02
    endloop
  endfacet
  facet normal -9.522880e-01 1.977569e-01 2.324644e-01
    outer loop
      vertex 4.155512e+01 1.958429e+01 -4.787585e+02
      vertex 4.114753e+01 2.432193e+01 -4.844585e+02
      vertex 3.729051e+01 5.748664e+00 -4.844585e+02
    endloop
  endfacet
  facet normal -8.674426e-01 6.410869e-02 4.933897e-01
    outer loop
      vertex 4.155512e+01 1.958429e+01 -4.787585e+02
      vertex 3.729051e+01 5.748664e+00 -4.844585e+02
      vertex 4.045951e+01 4.759718e+00 -4.787585e+02
    endloop
  endfacet
  facet normal -8.675438e-01 -6.916321e-02 -4.925283e-01
    outer loop
      vertex 2.465748e+01 2.794149e+01 -6.271003e+02
      vertex 2.465748e+01 1.381087e+01 -6.251161e+02
      vertex 2.049050e+01 2.848167e+01 -6.198364e+02
    endloop
  endfacet
  facet normal -9.116583e-05 -1.390605e-01 -9.902839e-01
    outer loop
      vertex 2.875000e+01 2.793822e+01 -6.271003e+02
      vertex 2.465748e+01 1.381087e+01 -6.251161e+02
      vertex 2.465748e+01 2.794149e+01 -6.271003e+02
    endloop
  endfacet
  facet normal 7.853718e-05 -1.391087e-01 -9.902771e-01
    outer loop
      vertex 2.875000e+01 2.793822e+01 -6.271003e+02
      vertex 2.875000e+01 1.381104e+01 -6.251158e+02
      vertex 2.465748e+01 1.381087e+01 -6.251161e+02
    endloop
  endfacet
  facet normal -8.470638e-01 1.817740e-01 -4.994408e-01
    outer loop
      vertex 2.424228e+01 4.809839e+01 -6.190600e+02
      vertex 2.465748e+01 2.794149e+01 -6.271003e+02
      vertex 2.049050e+01 2.848167e+01 -6.198364e+02
    endloop
  endfacet
  facet normal -9.252441e-01 2.199148e-01 -3.091291e-01
    outer loop
      vertex 1.975000e+01 5.230410e+01 -6.006728e+02
      vertex 2.049050e+01 2.848167e+01 -6.198364e+02
      vertex 1.357465e+01 2.848153e+01 -5.991370e+02
    endloop
  endfacet
  facet normal -9.425515e-01 1.911127e-01 -2.739938e-01
    outer loop
      vertex 1.975000e+01 5.230410e+01 -6.006728e+02
      vertex 2.424228e+01 4.809839e+01 -6.190600e+02
      vertex 2.049050e+01 2.848167e+01 -6.198364e+02
    endloop
  endfacet
  facet normal 2.037741e-04 2.310568e-01 -9.729402e-01
    outer loop
      vertex 2.465748e+01 4.109579e+01 -6.239764e+02
      vertex 2.875000e+01 2.793822e+01 -6.271003e+02
      vertex 2.465748e+01 2.794149e+01 -6.271003e+02
    endloop
  endfacet
  facet normal -9.915073e-01 3.004927e-02 -1.265323e-01
    outer loop
      vertex 2.465748e+01 4.109579e+01 -6.239764e+02
      vertex 2.465748e+01 2.794149e+01 -6.271003e+02
      vertex 2.424228e+01 4.809839e+01 -6.190600e+02
    endloop
  endfacet
  facet normal 1.000000e+00 3.707754e-15 3.121599e-15
    outer loop
      vertex 2.875000e+01 2.793822e+01 -6.271003e+02
      vertex 2.875000e+01 2.878327e+01 -6.246897e+02
      vertex 2.875000e+01 1.381104e+01 -6.251158e+02
    endloop
  endfacet
  facet normal 1.000000e+00 3.668930e-15 3.211431e-15
    outer loop
      vertex 2.875000e+01 5.667964e+01 -6.112030e+02
      vertex 2.875000e+01 5.230410e+01 -6.006728e+02
      vertex 2.875000e+01 2.878327e+01 -6.246897e+02
    endloop
  endfacet
  facet normal 9.982341e-01 4.244043e-02 -4.156385e-02
    outer loop
      vertex 2.975000e+01 2.878327e+01 -6.006728e+02
      vertex 2.875000e+01 2.878327e+01 -6.246897e+02
      vertex 2.875000e+01 5.230410e+01 -6.006728e+02
    endloop
  endfacet
  facet normal 1.000000e+00 3.714089e-15 3.118021e-15
    outer loop
      vertex 2.875000e+01 4.848341e+01 -6.196705e+02
      vertex 2.875000e+01 5.667964e+01 -6.112030e+02
      vertex 2.875000e+01 2.878327e+01 -6.246897e+02
    endloop
  endfacet
  facet normal 1.000000e+00 3.526104e-15 3.855867e-15
    outer loop
      vertex 2.875000e+01 4.109940e+01 -6.239746e+02
      vertex 2.875000e+01 4.848341e+01 -6.196705e+02
      vertex 2.875000e+01 2.878327e+01 -6.246897e+02
    endloop
  endfacet
  facet normal 1.000000e+00 3.565849e-15 3.171345e-15
    outer loop
      vertex 2.875000e+01 2.793822e+01 -6.271003e+02
      vertex 2.875000e+01 4.109940e+01 -6.239746e+02
      vertex 2.875000e+01 2.878327e+01 -6.246897e+02
    endloop
  endfacet
  facet normal 1.000000e+00 3.598849e-15 3.106439e-15
    outer loop
      vertex 2.875000e+01 6.227695e+01 -5.802040e+02
      vertex 2.875000e+01 5.230410e+01 -5.766559e+02
      vertex 2.875000e+01 5.230410e+01 -6.006728e+02
    endloop
  endfacet
  facet normal 9.990974e-01 4.247714e-02 3.129163e-15
    outer loop
      vertex 2.975000e+01 2.878327e+01 -6.006728e+02
      vertex 2.875000e+01 5.230410e+01 -6.006728e+02
      vertex 2.875000e+01 5.230410e+01 -5.766559e+02
    endloop
  endfacet
  facet normal 1.000000e+00 3.547134e-15 3.131636e-15
    outer loop
      vertex 2.875000e+01 6.263542e+01 -5.976269e+02
      vertex 2.875000e+01 6.227695e+01 -5.802040e+02
      vertex 2.875000e+01 5.230410e+01 -6.006728e+02
    endloop
  endfacet
  facet normal 1.000000e+00 3.539468e-15 3.157637e-15
    outer loop
      vertex 2.875000e+01 5.667964e+01 -6.112030e+02
      vertex 2.875000e+01 6.263542e+01 -5.976269e+02
      vertex 2.875000e+01 5.230410e+01 -6.006728e+02
    endloop
  endfacet
  facet normal 1.000000e+00 3.474842e-15 3.112657e-15
    outer loop
      vertex 2.875000e+01 5.581621e+01 -5.668802e+02
      vertex 2.875000e+01 4.790741e+01 -5.557683e+02
      vertex 2.875000e+01 5.230410e+01 -5.766559e+02
    endloop
  endfacet
  facet normal 9.990285e-01 4.312468e-02 9.077446e-03
    outer loop
      vertex 2.975000e+01 2.896296e+01 -5.758241e+02
      vertex 2.875000e+01 5.230410e+01 -5.766559e+02
      vertex 2.875000e+01 4.790741e+01 -5.557683e+02
    endloop
  endfacet
  facet normal 1.000000e+00 3.586756e-15 3.072449e-15
    outer loop
      vertex 2.875000e+01 6.227695e+01 -5.802040e+02
      vertex 2.875000e+01 5.581621e+01 -5.668802e+02
      vertex 2.875000e+01 5.230410e+01 -5.766559e+02
    endloop
  endfacet
  facet normal 9.990839e-01 4.279254e-02 -3.094496e-04
    outer loop
      vertex 2.975000e+01 2.896296e+01 -5.758241e+02
      vertex 2.975000e+01 2.878327e+01 -6.006728e+02
      vertex 2.875000e+01 5.230410e+01 -5.766559e+02
    endloop
  endfacet
  facet normal -2.759296e-01 7.830817e-01 5.573561e-01
    outer loop
      vertex 2.384441e+01 4.676008e+01 -5.565850e+02
      vertex 2.875000e+01 4.790741e+01 -5.557683e+02
      vertex 2.875000e+01 5.581621e+01 -5.668802e+02
    endloop
  endfacet
  facet normal 9.990439e-01 7.059860e-03 4.314465e-02
    outer loop
      vertex 2.875000e+01 2.878327e+01 -5.526390e+02
      vertex 2.975000e+01 2.896296e+01 -5.758241e+02
      vertex 2.875000e+01 4.790741e+01 -5.557683e+02
    endloop
  endfacet
  facet normal 5.473318e-01 -1.351491e-01 -8.259313e-01
    outer loop
      vertex 5.865255e+01 4.000000e+01 -5.346585e+02
      vertex 2.875000e+01 2.878327e+01 -5.526390e+02
      vertex 2.875000e+01 4.790741e+01 -5.557683e+02
    endloop
  endfacet
  facet normal -2.578111e-01 9.383222e-01 2.304015e-01
    outer loop
      vertex 3.467847e+01 4.300000e+01 -5.291489e+02
      vertex 2.875000e+01 4.790741e+01 -5.557683e+02
      vertex 2.384441e+01 4.676008e+01 -5.565850e+02
    endloop
  endfacet
  facet normal 1.179733e-01 9.809143e-01 1.545618e-01
    outer loop
      vertex 5.865255e+01 4.000000e+01 -5.284085e+02
      vertex 2.875000e+01 4.790741e+01 -5.557683e+02
      vertex 3.467847e+01 4.300000e+01 -5.291489e+02
    endloop
  endfacet
  facet normal 2.556517e-01 9.667689e-01 -9.500958e-15
    outer loop
      vertex 5.865255e+01 4.000000e+01 -5.346585e+02
      vertex 2.875000e+01 4.790741e+01 -5.557683e+02
      vertex 5.865255e+01 4.000000e+01 -5.284085e+02
    endloop
  endfacet
  facet normal 8.220633e-05 8.997949e-01 4.363130e-01
    outer loop
      vertex 2.465748e+01 6.227728e+01 -5.802039e+02
      vertex 2.875000e+01 5.581621e+01 -5.668802e+02
      vertex 2.875000e+01 6.227695e+01 -5.802040e+02
    endloop
  endfacet
  facet normal 1.392457e-08 7.508454e-01 6.604780e-01
    outer loop
      vertex 2.465748e+01 5.581621e+01 -5.668802e+02
      vertex 2.384441e+01 4.676008e+01 -5.565850e+02
      vertex 2.875000e+01 5.581621e+01 -5.668802e+02
    endloop
  endfacet
  facet normal -1.042457e-08 8.997850e-01 4.363335e-01
    outer loop
      vertex 2.465748e+01 5.581621e+01 -5.668802e+02
      vertex 2.875000e+01 5.581621e+01 -5.668802e+02
      vertex 2.465748e+01 6.227728e+01 -5.802039e+02
    endloop
  endfacet
  facet normal 1.705864e-04 9.997884e-01 2.056976e-02
    outer loop
      vertex 2.465748e+01 6.263607e+01 -5.976249e+02
      vertex 2.875000e+01 6.227695e+01 -5.802040e+02
      vertex 2.875000e+01 6.263542e+01 -5.976269e+02
    endloop
  endfacet
  facet normal 8.048023e-05 9.997880e-01 2.059092e-02
    outer loop
      vertex 2.465748e+01 6.227728e+01 -5.802039e+02
      vertex 2.875000e+01 6.227695e+01 -5.802040e+02
      vertex 2.465748e+01 6.263607e+01 -5.976249e+02
    endloop
  endfacet
  facet normal 8.113810e-05 9.157553e-01 -4.017366e-01
    outer loop
      vertex 2.465748e+01 5.667991e+01 -6.112032e+02
      vertex 2.875000e+01 6.263542e+01 -5.976269e+02
      vertex 2.875000e+01 5.667964e+01 -6.112030e+02
    endloop
  endfacet
  facet normal -4.166993e-05 9.157689e-01 -4.017056e-01
    outer loop
      vertex 2.465748e+01 5.667991e+01 -6.112032e+02
      vertex 2.465748e+01 6.263607e+01 -5.976249e+02
      vertex 2.875000e+01 6.263542e+01 -5.976269e+02
    endloop
  endfacet
  facet normal -1.537309e-01 7.099826e-01 -6.872347e-01
    outer loop
      vertex 2.424228e+01 4.809839e+01 -6.190600e+02
      vertex 2.875000e+01 5.667964e+01 -6.112030e+02
      vertex 2.875000e+01 4.848341e+01 -6.196705e+02
    endloop
  endfacet
  facet normal 8.118501e-05 6.752714e-01 -7.375693e-01
    outer loop
      vertex 2.465748e+01 5.667991e+01 -6.112032e+02
      vertex 2.875000e+01 5.667964e+01 -6.112030e+02
      vertex 2.424228e+01 4.809839e+01 -6.190600e+02
    endloop
  endfacet
  facet normal -5.314183e-05 5.035816e-01 -8.639477e-01
    outer loop
      vertex 2.465748e+01 4.109579e+01 -6.239764e+02
      vertex 2.875000e+01 4.848341e+01 -6.196705e+02
      vertex 2.875000e+01 4.109940e+01 -6.239746e+02
    endloop
  endfacet
  facet normal -1.579860e-01 5.611026e-01 -8.125295e-01
    outer loop
      vertex 2.465748e+01 4.109579e+01 -6.239764e+02
      vertex 2.424228e+01 4.809839e+01 -6.190600e+02
      vertex 2.875000e+01 4.848341e+01 -6.196705e+02
    endloop
  endfacet
  facet normal 2.363759e-04 2.310664e-01 -9.729379e-01
    outer loop
      vertex 2.465748e+01 4.109579e+01 -6.239764e+02
      vertex 2.875000e+01 4.109940e+01 -6.239746e+02
      vertex 2.875000e+01 2.793822e+01 -6.271003e+02
    endloop
  endfacet
  facet normal -9.724123e-01 2.319588e-01 2.468755e-02
    outer loop
      vertex 1.975000e+01 5.199239e+01 -5.768006e+02
      vertex 1.357465e+01 2.848153e+01 -5.991370e+02
      vertex 1.412823e+01 2.843590e+01 -5.769034e+02
    endloop
  endfacet
  facet normal -9.679490e-01 2.511256e-01 3.278996e-03
    outer loop
      vertex 1.975000e+01 5.199239e+01 -5.768006e+02
      vertex 1.975000e+01 5.230410e+01 -6.006728e+02
      vertex 1.357465e+01 2.848153e+01 -5.991370e+02
    endloop
  endfacet
  facet normal -9.411397e-01 2.613959e-01 2.143090e-01
    outer loop
      vertex 2.384441e+01 4.676008e+01 -5.565850e+02
      vertex 1.412823e+01 2.843590e+01 -5.769034e+02
      vertex 1.975000e+01 2.878327e+01 -5.526390e+02
    endloop
  endfacet
  facet normal -9.423461e-01 2.238056e-01 2.487867e-01
    outer loop
      vertex 2.384441e+01 4.676008e+01 -5.565850e+02
      vertex 1.975000e+01 5.199239e+01 -5.768006e+02
      vertex 1.412823e+01 2.843590e+01 -5.769034e+02
    endloop
  endfacet
  facet normal -8.608490e-01 5.012775e-01 -8.752111e-02
    outer loop
      vertex 2.358934e+01 4.000000e+01 -5.261585e+02
      vertex 1.975000e+01 2.878327e+01 -5.526390e+02
      vertex 1.614388e+01 2.721383e+01 -5.261585e+02
    endloop
  endfacet
  facet normal -9.720299e-01 2.308603e-01 4.314314e-02
    outer loop
      vertex 2.358934e+01 4.000000e+01 -5.261585e+02
      vertex 2.384441e+01 4.676008e+01 -5.565850e+02
      vertex 1.975000e+01 2.878327e+01 -5.526390e+02
    endloop
  endfacet
  facet normal 3.577648e-01 -9.296666e-01 -8.788869e-02
    outer loop
      vertex 5.865255e+01 3.800000e+01 -5.284085e+02
      vertex 3.465000e+01 2.878327e+01 -5.286221e+02
      vertex 2.875000e+01 2.878327e+01 -5.526390e+02
    endloop
  endfacet
  facet normal 4.368401e-02 -9.505000e-01 3.076384e-01
    outer loop
      vertex 7.035000e+01 2.658606e+01 -5.653348e+02
      vertex 5.865255e+01 3.800000e+01 -5.284085e+02
      vertex 2.875000e+01 2.878327e+01 -5.526390e+02
    endloop
  endfacet
  facet normal -8.223965e-02 9.012385e-01 -4.254477e-01
    outer loop
      vertex 5.865255e+01 4.000000e+01 -5.346585e+02
      vertex 7.035000e+01 2.658606e+01 -5.653348e+02
      vertex 2.875000e+01 2.878327e+01 -5.526390e+02
    endloop
  endfacet
  facet normal -8.638693e-01 5.037158e-01 -4.031275e-04
    outer loop
      vertex 2.358934e+01 4.000000e+01 -5.046053e+02
      vertex 1.614388e+01 2.721383e+01 -5.261585e+02
      vertex 1.615077e+01 2.724290e+01 -5.046036e+02
    endloop
  endfacet
  facet normal -8.641650e-01 5.032085e-01 1.529481e-08
    outer loop
      vertex 2.358934e+01 4.000000e+01 -5.046053e+02
      vertex 2.358934e+01 4.000000e+01 -5.261585e+02
      vertex 1.614388e+01 2.721383e+01 -5.261585e+02
    endloop
  endfacet
  facet normal -7.666579e-01 4.611882e-01 4.467003e-01
    outer loop
      vertex 2.640635e+01 3.959590e+01 -4.997559e+02
      vertex 1.615077e+01 2.724290e+01 -5.046036e+02
      vertex 1.846276e+01 2.629653e+01 -4.996585e+02
    endloop
  endfacet
  facet normal -7.588923e-01 4.425684e-01 4.777192e-01
    outer loop
      vertex 2.640635e+01 3.959590e+01 -4.997559e+02
      vertex 2.358934e+01 4.000000e+01 -5.046053e+02
      vertex 1.615077e+01 2.724290e+01 -5.046036e+02
    endloop
  endfacet
  facet normal -4.901327e-01 3.858278e-01 7.816053e-01
    outer loop
      vertex 2.925000e+01 4.000000e+01 -4.996585e+02
      vertex 1.846276e+01 2.629653e+01 -4.996585e+02
      vertex 4.114753e+01 2.432193e+01 -4.844585e+02
    endloop
  endfacet
  facet normal -3.851090e-02 3.031541e-02 9.987982e-01
    outer loop
      vertex 2.640635e+01 3.959590e+01 -4.997559e+02
      vertex 1.846276e+01 2.629653e+01 -4.996585e+02
      vertex 2.925000e+01 4.000000e+01 -4.996585e+02
    endloop
  endfacet
  facet normal -5.844812e-01 2.908486e-01 7.574885e-01
    outer loop
      vertex 5.075546e+01 2.878463e+01 -4.787585e+02
      vertex 2.925000e+01 4.000000e+01 -4.996585e+02
      vertex 4.114753e+01 2.432193e+01 -4.844585e+02
    endloop
  endfacet
  facet normal -5.960392e-01 5.960392e-01 5.380283e-01
    outer loop
      vertex 5.075546e+01 2.878463e+01 -4.787585e+02
      vertex 4.114753e+01 2.432193e+01 -4.844585e+02
      vertex 4.155512e+01 1.958429e+01 -4.787585e+02
    endloop
  endfacet
  facet normal -8.199482e-01 4.810084e-01 -3.103479e-01
    outer loop
      vertex 2.465748e+01 6.263607e+01 -5.976249e+02
      vertex 2.424228e+01 4.809839e+01 -6.190600e+02
      vertex 1.975000e+01 5.230410e+01 -6.006728e+02
    endloop
  endfacet
  facet normal -9.961250e-01 8.054037e-02 -3.532935e-02
    outer loop
      vertex 2.465748e+01 5.667991e+01 -6.112032e+02
      vertex 2.424228e+01 4.809839e+01 -6.190600e+02
      vertex 2.465748e+01 6.263607e+01 -5.976249e+02
    endloop
  endfacet
  facet normal -9.017813e-01 4.321558e-01 5.642742e-03
    outer loop
      vertex 2.465748e+01 6.227728e+01 -5.802039e+02
      vertex 1.975000e+01 5.230410e+01 -6.006728e+02
      vertex 1.975000e+01 5.199239e+01 -5.768006e+02
    endloop
  endfacet
  facet normal -9.042525e-01 4.269077e-01 8.792284e-03
    outer loop
      vertex 2.465748e+01 6.227728e+01 -5.802039e+02
      vertex 2.465748e+01 6.263607e+01 -5.976249e+02
      vertex 1.975000e+01 5.230410e+01 -6.006728e+02
    endloop
  endfacet
  facet normal -8.743865e-01 3.964923e-01 2.797180e-01
    outer loop
      vertex 2.465748e+01 5.581621e+01 -5.668802e+02
      vertex 1.975000e+01 5.199239e+01 -5.768006e+02
      vertex 2.384441e+01 4.676008e+01 -5.565850e+02
    endloop
  endfacet
  facet normal -8.454594e-01 4.805209e-01 2.330194e-01
    outer loop
      vertex 2.465748e+01 5.581621e+01 -5.668802e+02
      vertex 2.465748e+01 6.227728e+01 -5.802039e+02
      vertex 1.975000e+01 5.199239e+01 -5.768006e+02
    endloop
  endfacet
  facet normal -2.019038e-01 9.564489e-01 2.108088e-01
    outer loop
      vertex 3.467847e+01 4.300000e+01 -5.291489e+02
      vertex 2.384441e+01 4.676008e+01 -5.565850e+02
      vertex 2.358934e+01 4.000000e+01 -5.261585e+02
    endloop
  endfacet
  facet normal -2.444401e-01 9.675368e-01 6.419886e-02
    outer loop
      vertex 2.925000e+01 4.000000e+01 -5.046053e+02
      vertex 3.467847e+01 4.300000e+01 -5.291489e+02
      vertex 2.358934e+01 4.000000e+01 -5.261585e+02
    endloop
  endfacet
  facet normal -3.765687e-15 1.000000e+00 -1.219775e-14
    outer loop
      vertex 2.925000e+01 4.000000e+01 -5.046053e+02
      vertex 2.358934e+01 4.000000e+01 -5.261585e+02
      vertex 2.358934e+01 4.000000e+01 -5.046053e+02
    endloop
  endfacet
  facet normal 4.477691e-02 9.903762e-01 1.309584e-01
    outer loop
      vertex 5.865255e+01 4.000000e+01 -5.146585e+02
      vertex 3.467847e+01 4.300000e+01 -5.291489e+02
      vertex 2.925000e+01 4.000000e+01 -5.046053e+02
    endloop
  endfacet
  facet normal 1.241668e-01 9.922614e-01 -6.923083e-15
    outer loop
      vertex 5.865255e+01 4.000000e+01 -5.146585e+02
      vertex 5.865255e+01 4.000000e+01 -5.284085e+02
      vertex 3.467847e+01 4.300000e+01 -5.291489e+02
    endloop
  endfacet
  facet normal -3.765687e-15 1.000000e+00 -1.149102e-14
    outer loop
      vertex 2.925000e+01 4.000000e+01 -4.996585e+02
      vertex 2.925000e+01 4.000000e+01 -5.046053e+02
      vertex 2.358934e+01 4.000000e+01 -5.046053e+02
    endloop
  endfacet
  facet normal -1.443011e-01 9.756591e-01 1.651258e-01
    outer loop
      vertex 2.640635e+01 3.959590e+01 -4.997559e+02
      vertex 2.925000e+01 4.000000e+01 -4.996585e+02
      vertex 2.358934e+01 4.000000e+01 -5.046053e+02
    endloop
  endfacet
  facet normal 1.232038e-01 9.923814e-01 -1.076348e-14
    outer loop
      vertex 5.865000e+01 3.635000e+01 -4.916785e+02
      vertex 2.925000e+01 4.000000e+01 -5.046053e+02
      vertex 2.925000e+01 4.000000e+01 -4.996585e+02
    endloop
  endfacet
  facet normal 5.356060e-02 9.862011e-01 1.566480e-01
    outer loop
      vertex 5.865000e+01 3.635000e+01 -4.916785e+02
      vertex 5.865255e+01 4.000000e+01 -5.146585e+02
      vertex 2.925000e+01 4.000000e+01 -5.046053e+02
    endloop
  endfacet
  facet normal -2.130330e-02 8.716499e-01 4.896659e-01
    outer loop
      vertex 6.450881e+01 2.912076e+01 -4.787585e+02
      vertex 2.925000e+01 4.000000e+01 -4.996585e+02
      vertex 5.075546e+01 2.878463e+01 -4.787585e+02
    endloop
  endfacet
  facet normal -2.741167e-02 8.670014e-01 4.975511e-01
    outer loop
      vertex 5.865000e+01 3.635000e+01 -4.916785e+02
      vertex 2.925000e+01 4.000000e+01 -4.996585e+02
      vertex 6.450881e+01 2.912076e+01 -4.787585e+02
    endloop
  endfacet
  facet normal -2.158932e-01 -9.764170e-01 3.414893e-13
    outer loop
      vertex 8.805000e+01 -1.800000e+01 -5.046053e+02
      vertex 5.865255e+01 -1.150000e+01 -5.046053e+02
      vertex 5.865255e+01 -1.150000e+01 -5.056585e+02
    endloop
  endfacet
  facet normal 3.973073e-01 -9.172484e-01 -2.832601e-02
    outer loop
      vertex 7.240283e+01 -6.166207e+00 -4.844585e+02
      vertex 6.175000e+01 -1.078050e+01 -4.844585e+02
      vertex 5.865255e+01 -1.150000e+01 -5.046053e+02
    endloop
  endfacet
  facet normal -2.000456e-01 -9.047433e-01 3.760602e-01
    outer loop
      vertex 7.240283e+01 -6.166207e+00 -4.844585e+02
      vertex 5.865255e+01 -1.150000e+01 -5.046053e+02
      vertex 8.805000e+01 -1.800000e+01 -5.046053e+02
    endloop
  endfacet
  facet normal -5.613772e-01 -1.477237e-01 -8.142686e-01
    outer loop
      vertex 8.755000e+01 5.262439e+00 -5.286221e+02
      vertex 5.865255e+01 -1.150000e+01 -5.056585e+02
      vertex 5.866199e+01 5.000432e+00 -5.086585e+02
    endloop
  endfacet
  facet normal -2.160446e-01 -9.763731e-01 4.497763e-03
    outer loop
      vertex 8.755000e+01 -1.800000e+01 -5.286221e+02
      vertex 8.805000e+01 -1.800000e+01 -5.046053e+02
      vertex 5.865255e+01 -1.150000e+01 -5.056585e+02
    endloop
  endfacet
  facet normal -6.221425e-01 -2.280374e-15 -7.829040e-01
    outer loop
      vertex 8.755000e+01 5.262439e+00 -5.286221e+02
      vertex 8.755000e+01 -1.800000e+01 -5.286221e+02
      vertex 5.865255e+01 -1.150000e+01 -5.056585e+02
    endloop
  endfacet
  facet normal -2.015294e-01 -5.030502e-01 -8.404323e-01
    outer loop
      vertex 8.255000e+01 2.878327e+01 -5.286221e+02
      vertex 5.866199e+01 5.000432e+00 -5.086585e+02
      vertex 5.865255e+01 3.800000e+01 -5.284085e+02
    endloop
  endfacet
  facet normal -5.636896e-01 -1.198277e-01 -8.172487e-01
    outer loop
      vertex 8.255000e+01 2.878327e+01 -5.286221e+02
      vertex 8.755000e+01 5.262439e+00 -5.286221e+02
      vertex 5.866199e+01 5.000432e+00 -5.086585e+02
    endloop
  endfacet
  facet normal 1.979438e-01 -8.485749e-01 4.906514e-01
    outer loop
      vertex 6.713909e+01 -6.227628e+00 -4.787585e+02
      vertex 6.405014e+01 -6.948176e+00 -4.787585e+02
      vertex 6.175000e+01 -1.078050e+01 -4.844585e+02
    endloop
  endfacet
  facet normal 3.743093e-01 -8.641537e-01 3.363494e-01
    outer loop
      vertex 7.240283e+01 -6.166207e+00 -4.844585e+02
      vertex 6.713909e+01 -6.227628e+00 -4.787585e+02
      vertex 6.175000e+01 -1.078050e+01 -4.844585e+02
    endloop
  endfacet
  facet normal -6.850572e-14 -2.944670e-14 1.000000e+00
    outer loop
      vertex 4.155512e+01 1.958429e+01 -4.787585e+02
      vertex 4.045951e+01 4.759718e+00 -4.787585e+02
      vertex 5.016091e+01 -6.227628e+00 -4.787585e+02
    endloop
  endfacet
  facet normal -7.119645e-14 -3.126159e-14 1.000000e+00
    outer loop
      vertex 5.075546e+01 2.878463e+01 -4.787585e+02
      vertex 5.016091e+01 -6.227628e+00 -4.787585e+02
      vertex 6.405014e+01 -6.948176e+00 -4.787585e+02
    endloop
  endfacet
  facet normal -7.381583e-14 -3.121711e-14 1.000000e+00
    outer loop
      vertex 5.075546e+01 2.878463e+01 -4.787585e+02
      vertex 4.155512e+01 1.958429e+01 -4.787585e+02
      vertex 5.016091e+01 -6.227628e+00 -4.787585e+02
    endloop
  endfacet
  facet normal -6.951324e-14 -3.063534e-14 1.000000e+00
    outer loop
      vertex 6.450881e+01 2.912076e+01 -4.787585e+02
      vertex 5.075546e+01 2.878463e+01 -4.787585e+02
      vertex 6.405014e+01 -6.948176e+00 -4.787585e+02
    endloop
  endfacet
  facet normal -6.645340e-14 -3.067425e-14 1.000000e+00
    outer loop
      vertex 6.713909e+01 -6.227628e+00 -4.787585e+02
      vertex 6.450881e+01 2.912076e+01 -4.787585e+02
      vertex 6.405014e+01 -6.948176e+00 -4.787585e+02
    endloop
  endfacet
  facet normal -8.911190e-14 -3.236027e-14 1.000000e+00
    outer loop
      vertex 6.713909e+01 -6.227628e+00 -4.787585e+02
      vertex 6.654454e+01 2.878463e+01 -4.787585e+02
      vertex 6.450881e+01 2.912076e+01 -4.787585e+02
    endloop
  endfacet
  facet normal 1.469725e-01 8.901075e-01 4.314021e-01
    outer loop
      vertex 5.865000e+01 3.635000e+01 -4.916785e+02
      vertex 6.450881e+01 2.912076e+01 -4.787585e+02
      vertex 6.654454e+01 2.878463e+01 -4.787585e+02
    endloop
  endfacet
  facet normal -6.909074e-14 -3.202029e-14 1.000000e+00
    outer loop
      vertex 6.713909e+01 -6.227628e+00 -4.787585e+02
      vertex 7.574488e+01 1.958429e+01 -4.787585e+02
      vertex 6.654454e+01 2.878463e+01 -4.787585e+02
    endloop
  endfacet
  facet normal 5.960582e-01 5.960582e-01 5.379863e-01
    outer loop
      vertex 7.615437e+01 2.431947e+01 -4.844585e+02
      vertex 6.654454e+01 2.878463e+01 -4.787585e+02
      vertex 7.574488e+01 1.958429e+01 -4.787585e+02
    endloop
  endfacet
  facet normal 2.594375e-02 8.694844e-01 4.932787e-01
    outer loop
      vertex 8.805000e+01 4.000000e+01 -4.996585e+02
      vertex 5.865000e+01 3.635000e+01 -4.916785e+02
      vertex 6.654454e+01 2.878463e+01 -4.787585e+02
    endloop
  endfacet
  facet normal 5.844599e-01 2.908901e-01 7.574890e-01
    outer loop
      vertex 8.805000e+01 4.000000e+01 -4.996585e+02
      vertex 6.654454e+01 2.878463e+01 -4.787585e+02
      vertex 7.615437e+01 2.431947e+01 -4.844585e+02
    endloop
  endfacet
  facet normal -6.927272e-14 -3.195962e-14 1.000000e+00
    outer loop
      vertex 6.713909e+01 -6.227628e+00 -4.787585e+02
      vertex 7.684054e+01 4.759221e+00 -4.787585e+02
      vertex 7.574488e+01 1.958429e+01 -4.787585e+02
    endloop
  endfacet
  facet normal 8.674178e-01 6.410757e-02 4.934335e-01
    outer loop
      vertex 8.000979e+01 5.749867e+00 -4.844585e+02
      vertex 7.574488e+01 1.958429e+01 -4.787585e+02
      vertex 7.684054e+01 4.759221e+00 -4.787585e+02
    endloop
  endfacet
  facet normal 9.522527e-01 1.977069e-01 2.326517e-01
    outer loop
      vertex 7.615437e+01 2.431947e+01 -4.844585e+02
      vertex 7.574488e+01 1.958429e+01 -4.787585e+02
      vertex 8.000979e+01 5.749867e+00 -4.844585e+02
    endloop
  endfacet
  facet normal 6.183921e-01 -5.460439e-01 5.651790e-01
    outer loop
      vertex 7.240283e+01 -6.166207e+00 -4.844585e+02
      vertex 7.684054e+01 4.759221e+00 -4.787585e+02
      vertex 6.713909e+01 -6.227628e+00 -4.787585e+02
    endloop
  endfacet
  facet normal 7.891884e-01 -5.038003e-01 3.512363e-01
    outer loop
      vertex 8.000979e+01 5.749867e+00 -4.844585e+02
      vertex 7.684054e+01 4.759221e+00 -4.787585e+02
      vertex 7.240283e+01 -6.166207e+00 -4.844585e+02
    endloop
  endfacet
  facet normal -3.531145e-01 -9.195629e-01 1.723784e-01
    outer loop
      vertex 8.255000e+01 2.878327e+01 -5.286221e+02
      vertex 5.865255e+01 3.800000e+01 -5.284085e+02
      vertex 7.035000e+01 2.658606e+01 -5.653348e+02
    endloop
  endfacet
  facet normal -8.079076e-01 -5.870667e-01 -5.136168e-02
    outer loop
      vertex 7.035000e+01 2.715432e+01 -5.718300e+02
      vertex 7.035000e+01 2.658606e+01 -5.653348e+02
      vertex 5.865255e+01 4.000000e+01 -5.346585e+02
    endloop
  endfacet
  facet normal -1.000000e+00 -5.882272e-15 1.673273e-15
    outer loop
      vertex 7.035000e+01 1.032632e+01 -5.715376e+02
      vertex 7.035000e+01 2.658606e+01 -5.653348e+02
      vertex 7.035000e+01 2.715432e+01 -5.718300e+02
    endloop
  endfacet
  facet normal -4.720914e-01 -3.142120e-01 8.236507e-01
    outer loop
      vertex 8.405000e+01 2.847429e+01 -5.567620e+02
      vertex 7.035000e+01 2.658606e+01 -5.653348e+02
      vertex 7.035000e+01 1.032632e+01 -5.715376e+02
    endloop
  endfacet
  facet normal 1.257043e-01 -9.919118e-01 1.759177e-02
    outer loop
      vertex 8.255000e+01 2.878327e+01 -5.286221e+02
      vertex 7.035000e+01 2.658606e+01 -5.653348e+02
      vertex 8.405000e+01 2.847429e+01 -5.567620e+02
    endloop
  endfacet
  facet normal -1.241830e-01 9.922593e-01 -5.364828e-15
    outer loop
      vertex 8.262345e+01 4.300000e+01 -5.291464e+02
      vertex 5.865255e+01 4.000000e+01 -5.346585e+02
      vertex 5.865255e+01 4.000000e+01 -5.284085e+02
    endloop
  endfacet
  facet normal -3.603559e-15 1.000000e+00 -6.201100e-15
    outer loop
      vertex 8.805000e+01 4.000000e+01 -4.996585e+02
      vertex 5.865255e+01 4.000000e+01 -5.284085e+02
      vertex 5.865255e+01 4.000000e+01 -5.146585e+02
    endloop
  endfacet
  facet normal -1.184138e-01 9.821360e-01 1.462434e-01
    outer loop
      vertex 8.805000e+01 4.000000e+01 -5.046053e+02
      vertex 8.262345e+01 4.300000e+01 -5.291464e+02
      vertex 5.865255e+01 4.000000e+01 -5.284085e+02
    endloop
  endfacet
  facet normal -4.049117e-15 1.000000e+00 -5.745509e-15
    outer loop
      vertex 8.805000e+01 4.000000e+01 -4.996585e+02
      vertex 8.805000e+01 4.000000e+01 -5.046053e+02
      vertex 5.865255e+01 4.000000e+01 -5.284085e+02
    endloop
  endfacet
  facet normal -9.578751e-01 -5.888608e-02 -2.810830e-01
    outer loop
      vertex 7.035000e+01 2.715432e+01 -5.718300e+02
      vertex 5.865255e+01 4.000000e+01 -5.346585e+02
      vertex 7.035000e+01 4.417297e+01 -5.753953e+02
    endloop
  endfacet
  facet normal -3.991957e-01 9.166313e-01 -2.073063e-02
    outer loop
      vertex 8.605000e+01 5.149851e+01 -5.538116e+02
      vertex 7.035000e+01 4.417297e+01 -5.753953e+02
      vertex 5.865255e+01 4.000000e+01 -5.346585e+02
    endloop
  endfacet
  facet normal -1.855159e-01 9.366926e-01 2.969694e-01
    outer loop
      vertex 8.262345e+01 4.300000e+01 -5.291464e+02
      vertex 8.605000e+01 5.149851e+01 -5.538116e+02
      vertex 5.865255e+01 4.000000e+01 -5.346585e+02
    endloop
  endfacet
  facet normal -7.978175e-02 9.844729e-01 1.563587e-01
    outer loop
      vertex 8.805000e+01 4.000000e+01 -4.996585e+02
      vertex 5.865255e+01 4.000000e+01 -5.146585e+02
      vertex 5.865000e+01 3.635000e+01 -4.916785e+02
    endloop
  endfacet
  facet normal -1.000000e+00 -5.664073e-15 -4.369289e-15
    outer loop
      vertex 7.035000e+01 4.403914e+01 -6.034091e+02
      vertex 7.035000e+01 8.330913e+00 -6.026534e+02
      vertex 7.035000e+01 1.984141e+00 -5.911734e+02
    endloop
  endfacet
  facet normal -1.250779e-01 -8.682861e-01 -4.800362e-01
    outer loop
      vertex 8.405000e+01 5.262439e+00 -6.006728e+02
      vertex 7.035000e+01 1.984141e+00 -5.911734e+02
      vertex 7.035000e+01 8.330913e+00 -6.026534e+02
    endloop
  endfacet
  facet normal -1.000000e+00 -5.636314e-15 -4.273881e-15
    outer loop
      vertex 7.035000e+01 2.077164e+00 -5.879710e+02
      vertex 7.035000e+01 4.403914e+01 -6.034091e+02
      vertex 7.035000e+01 1.984141e+00 -5.911734e+02
    endloop
  endfacet
  facet normal -7.638712e-01 -6.450966e-01 1.873889e-02
    outer loop
      vertex 8.605000e+01 -1.620250e+01 -5.772645e+02
      vertex 7.035000e+01 2.077164e+00 -5.879710e+02
      vertex 7.035000e+01 1.984141e+00 -5.911734e+02
    endloop
  endfacet
  facet normal -7.619559e-01 -6.474893e-01 1.344844e-02
    outer loop
      vertex 8.605000e+01 -1.668083e+01 -6.002940e+02
      vertex 8.605000e+01 -1.620250e+01 -5.772645e+02
      vertex 7.035000e+01 1.984141e+00 -5.911734e+02
    endloop
  endfacet
  facet normal -5.580269e-01 -6.513931e-02 -8.272622e-01
    outer loop
      vertex 8.405000e+01 5.262439e+00 -6.006728e+02
      vertex 8.605000e+01 -1.668083e+01 -6.002940e+02
      vertex 7.035000e+01 1.984141e+00 -5.911734e+02
    endloop
  endfacet
  facet normal -1.000000e+00 -5.663415e-15 -4.854619e-15
    outer loop
      vertex 7.035000e+01 4.253674e+01 -6.074306e+02
      vertex 7.035000e+01 1.018260e+01 -6.077408e+02
      vertex 7.035000e+01 8.330913e+00 -6.026534e+02
    endloop
  endfacet
  facet normal -1.589760e-01 -9.277420e-01 -3.376705e-01
    outer loop
      vertex 8.405000e+01 5.262439e+00 -6.006728e+02
      vertex 7.035000e+01 8.330913e+00 -6.026534e+02
      vertex 7.035000e+01 1.018260e+01 -6.077408e+02
    endloop
  endfacet
  facet normal -1.000000e+00 -5.676296e-15 -4.946854e-15
    outer loop
      vertex 7.035000e+01 4.403914e+01 -6.034091e+02
      vertex 7.035000e+01 4.253674e+01 -6.074306e+02
      vertex 7.035000e+01 8.330913e+00 -6.026534e+02
    endloop
  endfacet
  facet normal -1.000000e+00 -5.676085e-15 -3.533375e-15
    outer loop
      vertex 7.035000e+01 4.253674e+01 -6.074306e+02
      vertex 7.035000e+01 2.658606e+01 -6.139822e+02
      vertex 7.035000e+01 1.018260e+01 -6.077408e+02
    endloop
  endfacet
  facet normal -4.691389e-01 -3.140564e-01 -8.253952e-01
    outer loop
      vertex 8.405000e+01 2.862246e+01 -6.225439e+02
      vertex 7.035000e+01 1.018260e+01 -6.077408e+02
      vertex 7.035000e+01 2.658606e+01 -6.139822e+02
    endloop
  endfacet
  facet normal -3.434602e-01 -9.390904e-01 1.201572e-02
    outer loop
      vertex 8.605000e+01 4.201516e+00 -6.264209e+02
      vertex 8.405000e+01 5.262439e+00 -6.006728e+02
      vertex 7.035000e+01 1.018260e+01 -6.077408e+02
    endloop
  endfacet
  facet normal -7.583474e-01 4.117476e-02 -6.505489e-01
    outer loop
      vertex 8.405000e+01 2.862246e+01 -6.225439e+02
      vertex 8.605000e+01 4.201516e+00 -6.264209e+02
      vertex 7.035000e+01 1.018260e+01 -6.077408e+02
    endloop
  endfacet
  facet normal -7.816569e-01 2.369734e-01 -5.769369e-01
    outer loop
      vertex 8.605000e+01 5.230410e+01 -6.246897e+02
      vertex 7.035000e+01 2.658606e+01 -6.139822e+02
      vertex 7.035000e+01 4.253674e+01 -6.074306e+02
    endloop
  endfacet
  facet normal -5.261958e-01 -3.255589e-02 -8.497400e-01
    outer loop
      vertex 8.605000e+01 5.230410e+01 -6.246897e+02
      vertex 8.405000e+01 2.862246e+01 -6.225439e+02
      vertex 7.035000e+01 2.658606e+01 -6.139822e+02
    endloop
  endfacet
  facet normal -4.437922e-01 8.394602e-01 -3.136161e-01
    outer loop
      vertex 8.405000e+01 5.230410e+01 -6.006728e+02
      vertex 7.035000e+01 4.253674e+01 -6.074306e+02
      vertex 7.035000e+01 4.403914e+01 -6.034091e+02
    endloop
  endfacet
  facet normal -5.643994e-01 8.241628e-01 -4.700022e-02
    outer loop
      vertex 8.605000e+01 5.230410e+01 -6.246897e+02
      vertex 7.035000e+01 4.253674e+01 -6.074306e+02
      vertex 8.405000e+01 5.230410e+01 -6.006728e+02
    endloop
  endfacet
  facet normal -1.000000e+00 -5.831671e-15 -4.537668e-15
    outer loop
      vertex 7.035000e+01 7.917662e+00 -5.757774e+02
      vertex 7.035000e+01 4.417297e+01 -5.753953e+02
      vertex 7.035000e+01 4.403914e+01 -6.034091e+02
    endloop
  endfacet
  facet normal -5.106631e-01 8.597711e-01 -4.107415e-03
    outer loop
      vertex 8.405000e+01 5.230410e+01 -5.766559e+02
      vertex 7.035000e+01 4.403914e+01 -6.034091e+02
      vertex 7.035000e+01 4.417297e+01 -5.753953e+02
    endloop
  endfacet
  facet normal -1.000000e+00 -5.642273e-15 -4.290079e-15
    outer loop
      vertex 7.035000e+01 2.077164e+00 -5.879710e+02
      vertex 7.035000e+01 7.917662e+00 -5.757774e+02
      vertex 7.035000e+01 4.403914e+01 -6.034091e+02
    endloop
  endfacet
  facet normal -5.165603e-01 8.562508e-01 -2.445201e-15
    outer loop
      vertex 8.405000e+01 5.230410e+01 -5.766559e+02
      vertex 8.405000e+01 5.230410e+01 -6.006728e+02
      vertex 7.035000e+01 4.403914e+01 -6.034091e+02
    endloop
  endfacet
  facet normal -1.000000e+00 -5.992820e-15 -4.690856e-15
    outer loop
      vertex 7.035000e+01 1.032632e+01 -5.715376e+02
      vertex 7.035000e+01 2.715432e+01 -5.718300e+02
      vertex 7.035000e+01 4.417297e+01 -5.753953e+02
    endloop
  endfacet
  facet normal -1.000000e+00 -5.843833e-15 -3.383662e-15
    outer loop
      vertex 7.035000e+01 7.917662e+00 -5.757774e+02
      vertex 7.035000e+01 1.032632e+01 -5.715376e+02
      vertex 7.035000e+01 4.417297e+01 -5.753953e+02
    endloop
  endfacet
  facet normal -5.038954e-01 8.605491e-01 7.446249e-02
    outer loop
      vertex 8.605000e+01 5.149851e+01 -5.538116e+02
      vertex 8.405000e+01 5.230410e+01 -5.766559e+02
      vertex 7.035000e+01 4.417297e+01 -5.753953e+02
    endloop
  endfacet
  facet normal -6.655033e-01 -6.489776e-01 3.686915e-01
    outer loop
      vertex 8.605000e+01 5.116101e+00 -5.523696e+02
      vertex 7.035000e+01 1.032632e+01 -5.715376e+02
      vertex 7.035000e+01 7.917662e+00 -5.757774e+02
    endloop
  endfacet
  facet normal -7.650419e-01 5.514700e-02 6.416149e-01
    outer loop
      vertex 8.405000e+01 2.847429e+01 -5.567620e+02
      vertex 7.035000e+01 1.032632e+01 -5.715376e+02
      vertex 8.605000e+01 5.116101e+00 -5.523696e+02
    endloop
  endfacet
  facet normal -1.455288e-01 -8.922798e-01 4.273852e-01
    outer loop
      vertex 8.405000e+01 5.262439e+00 -5.766559e+02
      vertex 7.035000e+01 7.917662e+00 -5.757774e+02
      vertex 7.035000e+01 2.077164e+00 -5.879710e+02
    endloop
  endfacet
  facet normal -1.896626e-01 -9.818014e-01 9.703011e-03
    outer loop
      vertex 8.605000e+01 5.116101e+00 -5.523696e+02
      vertex 7.035000e+01 7.917662e+00 -5.757774e+02
      vertex 8.405000e+01 5.262439e+00 -5.766559e+02
    endloop
  endfacet
  facet normal -6.236113e-01 -8.015149e-02 7.776148e-01
    outer loop
      vertex 8.405000e+01 5.262439e+00 -5.766559e+02
      vertex 7.035000e+01 2.077164e+00 -5.879710e+02
      vertex 8.605000e+01 -1.620250e+01 -5.772645e+02
    endloop
  endfacet
  facet normal 3.872565e-01 -9.217732e-01 1.914536e-02
    outer loop
      vertex 9.486742e+01 -1.252146e+01 -5.783882e+02
      vertex 8.605000e+01 -1.620250e+01 -5.772645e+02
      vertex 8.605000e+01 -1.668083e+01 -6.002940e+02
    endloop
  endfacet
  facet normal -9.921893e-01 -9.474778e-02 8.113690e-02
    outer loop
      vertex 8.605000e+01 5.116101e+00 -5.523696e+02
      vertex 8.405000e+01 5.262439e+00 -5.766559e+02
      vertex 8.605000e+01 -1.620250e+01 -5.772645e+02
    endloop
  endfacet
  facet normal -9.959860e-01 -6.798755e-02 5.822088e-02
    outer loop
      vertex 8.755000e+01 -1.693385e+01 -5.524580e+02
      vertex 8.605000e+01 5.116101e+00 -5.523696e+02
      vertex 8.605000e+01 -1.620250e+01 -5.772645e+02
    endloop
  endfacet
  facet normal 3.847057e-01 -9.230259e-01 -4.972067e-03
    outer loop
      vertex 9.521479e+01 -1.251960e+01 -5.518546e+02
      vertex 8.605000e+01 -1.620250e+01 -5.772645e+02
      vertex 9.486742e+01 -1.252146e+01 -5.783882e+02
    endloop
  endfacet
  facet normal 5.015823e-01 -8.633097e-01 -5.578209e-02
    outer loop
      vertex 9.521479e+01 -1.251960e+01 -5.518546e+02
      vertex 8.755000e+01 -1.693385e+01 -5.524580e+02
      vertex 8.605000e+01 -1.620250e+01 -5.772645e+02
    endloop
  endfacet
  facet normal -9.947856e-01 -9.144820e-02 -4.515241e-02
    outer loop
      vertex 8.605000e+01 -8.379708e+00 -6.171065e+02
      vertex 8.605000e+01 -1.668083e+01 -6.002940e+02
      vertex 8.405000e+01 5.262439e+00 -6.006728e+02
    endloop
  endfacet
  facet normal 4.164299e-01 -8.152128e-01 -4.025100e-01
    outer loop
      vertex 9.509809e+01 -1.255703e+01 -5.992851e+02
      vertex 8.605000e+01 -1.668083e+01 -6.002940e+02
      vertex 8.605000e+01 -8.379708e+00 -6.171065e+02
    endloop
  endfacet
  facet normal 4.141486e-01 -9.101887e-01 6.121265e-03
    outer loop
      vertex 9.486742e+01 -1.252146e+01 -5.783882e+02
      vertex 8.605000e+01 -1.668083e+01 -6.002940e+02
      vertex 9.509809e+01 -1.255703e+01 -5.992851e+02
    endloop
  endfacet
  facet normal -9.956310e-01 -5.556052e-02 -7.504680e-02
    outer loop
      vertex 8.605000e+01 -8.379708e+00 -6.171065e+02
      vertex 8.405000e+01 5.262439e+00 -6.006728e+02
      vertex 8.605000e+01 4.201516e+00 -6.264209e+02
    endloop
  endfacet
  facet normal 4.639633e-01 -8.858018e-01 -9.659100e-03
    outer loop
      vertex 9.717494e+01 -1.320908e+01 -5.056585e+02
      vertex 8.805000e+01 -1.800000e+01 -5.046053e+02
      vertex 8.755000e+01 -1.800000e+01 -5.286221e+02
    endloop
  endfacet
  facet normal 1.893217e-01 -7.753625e-01 6.024701e-01
    outer loop
      vertex 9.722235e+01 -1.191664e+01 -4.996585e+02
      vertex 7.240283e+01 -6.166207e+00 -4.844585e+02
      vertex 8.805000e+01 -1.800000e+01 -5.046053e+02
    endloop
  endfacet
  facet normal 4.734807e-01 -8.618172e-01 1.818984e-01
    outer loop
      vertex 9.722235e+01 -1.191664e+01 -4.996585e+02
      vertex 8.805000e+01 -1.800000e+01 -5.046053e+02
      vertex 9.717494e+01 -1.320908e+01 -5.056585e+02
    endloop
  endfacet
  facet normal -1.000000e+00 -3.665356e-15 -4.337328e-15
    outer loop
      vertex 8.755000e+01 -1.693385e+01 -5.524580e+02
      vertex 8.755000e+01 -1.800000e+01 -5.286221e+02
      vertex 8.755000e+01 5.262439e+00 -5.286221e+02
    endloop
  endfacet
  facet normal 4.520588e-01 -8.910972e-01 -3.985769e-02
    outer loop
      vertex 9.714525e+01 -1.324247e+01 -5.261585e+02
      vertex 8.755000e+01 -1.800000e+01 -5.286221e+02
      vertex 8.755000e+01 -1.693385e+01 -5.524580e+02
    endloop
  endfacet
  facet normal 4.440477e-01 -8.960028e-01 8.165184e-04
    outer loop
      vertex 9.717494e+01 -1.320908e+01 -5.056585e+02
      vertex 8.755000e+01 -1.800000e+01 -5.286221e+02
      vertex 9.714525e+01 -1.324247e+01 -5.261585e+02
    endloop
  endfacet
  facet normal -9.762041e-01 -2.075191e-01 6.294032e-02
    outer loop
      vertex 8.255000e+01 2.878327e+01 -5.286221e+02
      vertex 8.605000e+01 5.116101e+00 -5.523696e+02
      vertex 8.755000e+01 5.262439e+00 -5.286221e+02
    endloop
  endfacet
  facet normal -9.956754e-01 -6.798681e-02 6.331038e-02
    outer loop
      vertex 8.755000e+01 -1.693385e+01 -5.524580e+02
      vertex 8.755000e+01 5.262439e+00 -5.286221e+02
      vertex 8.605000e+01 5.116101e+00 -5.523696e+02
    endloop
  endfacet
  facet normal 5.134602e-01 -3.277815e-01 7.930434e-01
    outer loop
      vertex 1.028601e+02 4.768908e+00 -4.996585e+02
      vertex 8.000979e+01 5.749867e+00 -4.844585e+02
      vertex 7.240283e+01 -6.166207e+00 -4.844585e+02
    endloop
  endfacet
  facet normal 4.871277e-01 -1.645916e-01 8.576807e-01
    outer loop
      vertex 9.722235e+01 -1.191664e+01 -4.996585e+02
      vertex 1.028601e+02 4.768908e+00 -4.996585e+02
      vertex 7.240283e+01 -6.166207e+00 -4.844585e+02
    endloop
  endfacet
  facet normal 5.462468e-01 1.134118e-01 8.299109e-01
    outer loop
      vertex 9.883720e+01 2.629651e+01 -4.996585e+02
      vertex 7.615437e+01 2.431947e+01 -4.844585e+02
      vertex 8.000979e+01 5.749867e+00 -4.844585e+02
    endloop
  endfacet
  facet normal 5.539554e-01 1.035183e-01 8.260856e-01
    outer loop
      vertex 9.883720e+01 2.629651e+01 -4.996585e+02
      vertex 8.000979e+01 5.749867e+00 -4.844585e+02
      vertex 1.028601e+02 4.768908e+00 -4.996585e+02
    endloop
  endfacet
  facet normal -9.928276e-01 -6.542298e-02 -1.000664e-01
    outer loop
      vertex 8.605000e+01 1.147418e+01 -6.311758e+02
      vertex 8.605000e+01 4.201516e+00 -6.264209e+02
      vertex 8.405000e+01 2.862246e+01 -6.225439e+02
    endloop
  endfacet
  facet normal -1.000000e+00 0.000000e+00 0.000000e+00
    outer loop
      vertex 8.605000e+01 1.147418e+01 -6.311758e+02
      vertex 8.605000e+01 -1.104070e-01 -6.250650e+02
      vertex 8.605000e+01 4.201516e+00 -6.264209e+02
    endloop
  endfacet
  facet normal -1.000000e+00 0.000000e+00 0.000000e+00
    outer loop
      vertex 8.605000e+01 -8.379708e+00 -6.171065e+02
      vertex 8.605000e+01 4.201516e+00 -6.264209e+02
      vertex 8.605000e+01 -1.104070e-01 -6.250650e+02
    endloop
  endfacet
  facet normal -9.815053e-01 6.663036e-02 -1.794649e-01
    outer loop
      vertex 8.605000e+01 2.831320e+01 -6.335968e+02
      vertex 8.405000e+01 2.862246e+01 -6.225439e+02
      vertex 8.605000e+01 5.230410e+01 -6.246897e+02
    endloop
  endfacet
  facet normal -9.838253e-01 -2.549248e-02 -1.773072e-01
    outer loop
      vertex 8.605000e+01 2.831320e+01 -6.335968e+02
      vertex 8.605000e+01 1.147418e+01 -6.311758e+02
      vertex 8.405000e+01 2.862246e+01 -6.225439e+02
    endloop
  endfacet
  facet normal -9.941313e-01 -9.488957e-02 -5.195045e-02
    outer loop
      vertex 8.255000e+01 2.878327e+01 -5.286221e+02
      vertex 8.405000e+01 2.847429e+01 -5.567620e+02
      vertex 8.605000e+01 5.116101e+00 -5.523696e+02
    endloop
  endfacet
  facet normal 1.176392e-01 6.437356e-01 7.561518e-01
    outer loop
      vertex 9.089572e+01 3.959724e+01 -4.997583e+02
      vertex 8.805000e+01 4.000000e+01 -4.996585e+02
      vertex 7.615437e+01 2.431947e+01 -4.844585e+02
    endloop
  endfacet
  facet normal 5.102911e-01 3.106999e-01 8.019156e-01
    outer loop
      vertex 9.089572e+01 3.959724e+01 -4.997583e+02
      vertex 7.615437e+01 2.431947e+01 -4.844585e+02
      vertex 9.883720e+01 2.629651e+01 -4.996585e+02
    endloop
  endfacet
  facet normal -9.885280e-01 1.266330e-01 -8.231943e-02
    outer loop
      vertex 8.605000e+01 6.898418e+01 -5.990305e+02
      vertex 8.605000e+01 5.230410e+01 -6.246897e+02
      vertex 8.405000e+01 5.230410e+01 -6.006728e+02
    endloop
  endfacet
  facet normal -9.924916e-01 1.223127e-01 -4.686137e-15
    outer loop
      vertex 8.605000e+01 6.853285e+01 -5.784066e+02
      vertex 8.405000e+01 5.230410e+01 -6.006728e+02
      vertex 8.405000e+01 5.230410e+01 -5.766559e+02
    endloop
  endfacet
  facet normal -9.929150e-01 1.187980e-01 2.599761e-03
    outer loop
      vertex 8.605000e+01 6.853285e+01 -5.784066e+02
      vertex 8.605000e+01 6.898418e+01 -5.990305e+02
      vertex 8.405000e+01 5.230410e+01 -6.006728e+02
    endloop
  endfacet
  facet normal -1.000000e+00 -4.641780e-15 -3.452070e-15
    outer loop
      vertex 8.605000e+01 4.389814e+01 -6.298532e+02
      vertex 8.605000e+01 2.831320e+01 -6.335968e+02
      vertex 8.605000e+01 5.230410e+01 -6.246897e+02
    endloop
  endfacet
  facet normal 1.000000e+00 3.355373e-15 5.546280e-15
    outer loop
      vertex 8.605000e+01 6.187964e+01 -6.151093e+02
      vertex 8.605000e+01 4.389814e+01 -6.298532e+02
      vertex 8.605000e+01 5.230410e+01 -6.246897e+02
    endloop
  endfacet
  facet normal -1.000000e+00 -4.865489e-15 -4.036929e-15
    outer loop
      vertex 8.605000e+01 6.898418e+01 -5.990305e+02
      vertex 8.605000e+01 6.187964e+01 -6.151093e+02
      vertex 8.605000e+01 5.230410e+01 -6.246897e+02
    endloop
  endfacet
  facet normal -9.919920e-01 8.863767e-02 8.997400e-02
    outer loop
      vertex 8.605000e+01 6.148327e+01 -5.636481e+02
      vertex 8.405000e+01 5.230410e+01 -5.766559e+02
      vertex 8.605000e+01 5.149851e+01 -5.538116e+02
    endloop
  endfacet
  facet normal -9.897912e-01 1.286067e-01 6.143078e-02
    outer loop
      vertex 8.605000e+01 6.148327e+01 -5.636481e+02
      vertex 8.605000e+01 6.853285e+01 -5.784066e+02
      vertex 8.405000e+01 5.230410e+01 -5.766559e+02
    endloop
  endfacet
  facet normal 1.587155e-01 9.264693e-01 3.412684e-01
    outer loop
      vertex 9.371066e+01 4.000000e+01 -5.261585e+02
      vertex 8.605000e+01 5.149851e+01 -5.538116e+02
      vertex 8.262345e+01 4.300000e+01 -5.291464e+02
    endloop
  endfacet
  facet normal 3.694214e-01 8.898736e-01 2.676803e-01
    outer loop
      vertex 9.371066e+01 4.000000e+01 -5.261585e+02
      vertex 9.520657e+01 4.871350e+01 -5.571900e+02
      vertex 8.605000e+01 5.149851e+01 -5.538116e+02
    endloop
  endfacet
  facet normal 4.277031e-01 4.683904e-01 7.730980e-01
    outer loop
      vertex 9.264252e+01 6.127800e+01 -5.633839e+02
      vertex 8.605000e+01 5.149851e+01 -5.538116e+02
      vertex 9.520657e+01 4.871350e+01 -5.571900e+02
    endloop
  endfacet
  facet normal -6.702271e-03 7.017810e-01 7.123613e-01
    outer loop
      vertex 9.264252e+01 6.127800e+01 -5.633839e+02
      vertex 8.605000e+01 6.148327e+01 -5.636481e+02
      vertex 8.605000e+01 5.149851e+01 -5.538116e+02
    endloop
  endfacet
  facet normal -1.300906e-15 9.926110e-01 1.213402e-01
    outer loop
      vertex 9.371066e+01 4.000000e+01 -5.046053e+02
      vertex 8.262345e+01 4.300000e+01 -5.291464e+02
      vertex 8.805000e+01 4.000000e+01 -5.046053e+02
    endloop
  endfacet
  facet normal 2.611895e-01 9.652876e-01 4.622776e-09
    outer loop
      vertex 9.371066e+01 4.000000e+01 -5.046053e+02
      vertex 9.371066e+01 4.000000e+01 -5.261585e+02
      vertex 8.262345e+01 4.300000e+01 -5.291464e+02
    endloop
  endfacet
  facet normal 1.401351e-01 9.901324e-01 -4.888366e-15
    outer loop
      vertex 9.089572e+01 3.959724e+01 -4.997583e+02
      vertex 8.805000e+01 4.000000e+01 -5.046053e+02
      vertex 8.805000e+01 4.000000e+01 -4.996585e+02
    endloop
  endfacet
  facet normal -2.088874e-15 9.965653e-01 8.281052e-02
    outer loop
      vertex 9.089572e+01 3.959724e+01 -4.997583e+02
      vertex 9.371066e+01 4.000000e+01 -5.046053e+02
      vertex 8.805000e+01 4.000000e+01 -5.046053e+02
    endloop
  endfacet
  facet normal -3.859662e-03 -4.665587e-01 -8.844818e-01
    outer loop
      vertex 9.264252e+01 1.140105e+01 -6.311660e+02
      vertex 8.605000e+01 -1.104070e-01 -6.250650e+02
      vertex 8.605000e+01 1.147418e+01 -6.311758e+02
    endloop
  endfacet
  facet normal 5.811063e-03 -6.934244e-01 -7.205059e-01
    outer loop
      vertex 9.264252e+01 -8.533992e+00 -6.169048e+02
      vertex 8.605000e+01 -8.379708e+00 -6.171065e+02
      vertex 8.605000e+01 -1.104070e-01 -6.250650e+02
    endloop
  endfacet
  facet normal 8.292742e-04 -4.686593e-01 -8.833786e-01
    outer loop
      vertex 9.264252e+01 1.140105e+01 -6.311660e+02
      vertex 9.264252e+01 -1.434791e-01 -6.250412e+02
      vertex 8.605000e+01 -1.104070e-01 -6.250650e+02
    endloop
  endfacet
  facet normal -9.077491e-04 -6.961522e-01 -7.178937e-01
    outer loop
      vertex 9.264252e+01 -8.533992e+00 -6.169048e+02
      vertex 8.605000e+01 -1.104070e-01 -6.250650e+02
      vertex 9.264252e+01 -1.434791e-01 -6.250412e+02
    endloop
  endfacet
  facet normal -1.229177e-04 -1.437845e-01 -9.896090e-01
    outer loop
      vertex 9.264252e+01 2.818307e+01 -6.336043e+02
      vertex 9.264252e+01 1.140105e+01 -6.311660e+02
      vertex 8.605000e+01 1.147418e+01 -6.311758e+02
    endloop
  endfacet
  facet normal -3.932331e-03 -1.423113e-01 -9.898141e-01
    outer loop
      vertex 9.264252e+01 2.818307e+01 -6.336043e+02
      vertex 8.605000e+01 1.147418e+01 -6.311758e+02
      vertex 8.605000e+01 2.831320e+01 -6.335968e+02
    endloop
  endfacet
  facet normal -1.608124e-02 -9.752685e-01 -2.204375e-01
    outer loop
      vertex 9.509809e+01 -1.255703e+01 -5.992851e+02
      vertex 8.605000e+01 -8.379708e+00 -6.171065e+02
      vertex 9.264252e+01 -8.533992e+00 -6.169048e+02
    endloop
  endfacet
  facet normal 8.528836e-01 -2.446876e-01 -4.612132e-01
    outer loop
      vertex 9.264252e+01 1.140105e+01 -6.311660e+02
      vertex 9.721852e+01 7.602402e+00 -6.206887e+02
      vertex 9.264252e+01 -1.434791e-01 -6.250412e+02
    endloop
  endfacet
  facet normal 8.809062e-01 -3.294826e-01 -3.397726e-01
    outer loop
      vertex 9.264252e+01 -8.533992e+00 -6.169048e+02
      vertex 9.264252e+01 -1.434791e-01 -6.250412e+02
      vertex 9.721852e+01 7.602402e+00 -6.206887e+02
    endloop
  endfacet
  facet normal 8.992295e-01 -9.474984e-02 -4.270935e-01
    outer loop
      vertex 9.755000e+01 2.878327e+01 -6.246897e+02
      vertex 9.721852e+01 7.602402e+00 -6.206887e+02
      vertex 9.264252e+01 1.140105e+01 -6.311660e+02
    endloop
  endfacet
  facet normal 9.490394e-01 -2.950837e-01 -1.106788e-01
    outer loop
      vertex 9.755000e+01 1.822687e+00 -6.024368e+02
      vertex 9.264252e+01 -8.533992e+00 -6.169048e+02
      vertex 9.721852e+01 7.602402e+00 -6.206887e+02
    endloop
  endfacet
  facet normal 9.927635e-01 -1.081150e-01 -5.226646e-02
    outer loop
      vertex 1.007500e+02 2.713434e+01 -5.940132e+02
      vertex 9.755000e+01 1.822687e+00 -6.024368e+02
      vertex 9.721852e+01 7.602402e+00 -6.206887e+02
    endloop
  endfacet
  facet normal 9.937778e-01 -3.549528e-02 -1.055733e-01
    outer loop
      vertex 1.007500e+02 2.713434e+01 -5.940132e+02
      vertex 9.721852e+01 7.602402e+00 -6.206887e+02
      vertex 9.755000e+01 2.878327e+01 -6.246897e+02
    endloop
  endfacet
  facet normal 8.758872e-01 -6.937833e-02 -4.775021e-01
    outer loop
      vertex 9.264252e+01 2.818307e+01 -6.336043e+02
      vertex 9.755000e+01 2.878327e+01 -6.246897e+02
      vertex 9.264252e+01 1.140105e+01 -6.311660e+02
    endloop
  endfacet
  facet normal 9.622403e-01 -2.036579e-01 -1.806020e-01
    outer loop
      vertex 9.509809e+01 -1.255703e+01 -5.992851e+02
      vertex 9.264252e+01 -8.533992e+00 -6.169048e+02
      vertex 9.755000e+01 1.822687e+00 -6.024368e+02
    endloop
  endfacet
  facet normal 9.859753e-01 -1.667787e-01 6.121985e-03
    outer loop
      vertex 9.755000e+01 2.824463e+00 -5.751458e+02
      vertex 9.509809e+01 -1.255703e+01 -5.992851e+02
      vertex 9.755000e+01 1.822687e+00 -6.024368e+02
    endloop
  endfacet
  facet normal 9.915517e-01 -1.296247e-01 4.758164e-03
    outer loop
      vertex 1.007500e+02 2.693144e+01 -5.852559e+02
      vertex 9.755000e+01 2.824463e+00 -5.751458e+02
      vertex 9.755000e+01 1.822687e+00 -6.024368e+02
    endloop
  endfacet
  facet normal 9.922179e-01 -1.244803e-01 -2.884224e-03
    outer loop
      vertex 1.007500e+02 2.693144e+01 -5.852559e+02
      vertex 9.755000e+01 1.822687e+00 -6.024368e+02
      vertex 1.007500e+02 2.713434e+01 -5.940132e+02
    endloop
  endfacet
  facet normal 9.845984e-01 -1.744744e-01 1.116555e-02
    outer loop
      vertex 9.486742e+01 -1.252146e+01 -5.783882e+02
      vertex 9.509809e+01 -1.255703e+01 -5.992851e+02
      vertex 9.755000e+01 2.824463e+00 -5.751458e+02
    endloop
  endfacet
  facet normal 9.605187e-01 -1.143141e-01 -2.536457e-01
    outer loop
      vertex 1.038023e+02 5.419700e+00 -5.526389e+02
      vertex 9.486742e+01 -1.252146e+01 -5.783882e+02
      vertex 9.755000e+01 2.824463e+00 -5.751458e+02
    endloop
  endfacet
  facet normal 9.404343e-01 1.884357e-01 -2.829759e-01
    outer loop
      vertex 9.930877e+01 2.690588e+01 -5.532648e+02
      vertex 1.038023e+02 5.419700e+00 -5.526389e+02
      vertex 9.755000e+01 2.824463e+00 -5.751458e+02
    endloop
  endfacet
  facet normal 9.925875e-01 -1.130420e-01 4.462664e-02
    outer loop
      vertex 9.930877e+01 2.690588e+01 -5.532648e+02
      vertex 9.755000e+01 2.824463e+00 -5.751458e+02
      vertex 1.007500e+02 2.693144e+01 -5.852559e+02
    endloop
  endfacet
  facet normal 9.017175e-01 -4.321654e-01 -1.177496e-02
    outer loop
      vertex 9.521479e+01 -1.251960e+01 -5.518546e+02
      vertex 9.486742e+01 -1.252146e+01 -5.783882e+02
      vertex 1.038023e+02 5.419700e+00 -5.526389e+02
    endloop
  endfacet
  facet normal 5.017650e-01 -8.627815e-01 -6.196718e-02
    outer loop
      vertex 9.714525e+01 -1.324247e+01 -5.261585e+02
      vertex 8.755000e+01 -1.693385e+01 -5.524580e+02
      vertex 9.521479e+01 -1.251960e+01 -5.518546e+02
    endloop
  endfacet
  facet normal 9.019848e-01 -4.317678e-01 2.450807e-04
    outer loop
      vertex 1.038005e+02 5.429620e+00 -5.286224e+02
      vertex 9.521479e+01 -1.251960e+01 -5.518546e+02
      vertex 1.038023e+02 5.419700e+00 -5.526389e+02
    endloop
  endfacet
  facet normal 9.926648e-01 1.208989e-01 2.350632e-05
    outer loop
      vertex 1.011439e+02 2.724204e+01 -5.261585e+02
      vertex 1.038005e+02 5.429620e+00 -5.286224e+02
      vertex 1.038023e+02 5.419700e+00 -5.526389e+02
    endloop
  endfacet
  facet normal 9.769131e-01 2.023080e-01 -6.864655e-02
    outer loop
      vertex 1.011439e+02 2.724204e+01 -5.261585e+02
      vertex 1.038023e+02 5.419700e+00 -5.526389e+02
      vertex 9.930877e+01 2.690588e+01 -5.532648e+02
    endloop
  endfacet
  facet normal 9.355548e-01 -3.440105e-01 -7.996271e-02
    outer loop
      vertex 9.714525e+01 -1.324247e+01 -5.261585e+02
      vertex 9.521479e+01 -1.251960e+01 -5.518546e+02
      vertex 1.038005e+02 5.429620e+00 -5.286224e+02
    endloop
  endfacet
  facet normal 9.419536e-01 -3.357430e-01 -2.580548e-05
    outer loop
      vertex 1.038059e+02 5.442958e+00 -5.056585e+02
      vertex 9.714525e+01 -1.324247e+01 -5.261585e+02
      vertex 1.038005e+02 5.429620e+00 -5.286224e+02
    endloop
  endfacet
  facet normal 9.926527e-01 1.209981e-01 -3.029730e-04
    outer loop
      vertex 1.011489e+02 2.724333e+01 -5.046035e+02
      vertex 1.038059e+02 5.442958e+00 -5.056585e+02
      vertex 1.038005e+02 5.429620e+00 -5.286224e+02
    endloop
  endfacet
  facet normal 9.926613e-01 1.209280e-01 -2.383832e-04
    outer loop
      vertex 1.011489e+02 2.724333e+01 -5.046035e+02
      vertex 1.038005e+02 5.429620e+00 -5.286224e+02
      vertex 1.011439e+02 2.724204e+01 -5.261585e+02
    endloop
  endfacet
  facet normal 9.422281e-01 -3.349709e-01 -8.186545e-04
    outer loop
      vertex 9.717494e+01 -1.320908e+01 -5.056585e+02
      vertex 9.714525e+01 -1.324247e+01 -5.261585e+02
      vertex 1.038059e+02 5.442958e+00 -5.056585e+02
    endloop
  endfacet
  facet normal 9.364874e-01 -3.329301e-01 1.102224e-01
    outer loop
      vertex 1.028601e+02 4.768908e+00 -4.996585e+02
      vertex 9.717494e+01 -1.320908e+01 -5.056585e+02
      vertex 1.038059e+02 5.442958e+00 -5.056585e+02
    endloop
  endfacet
  facet normal 9.681720e-01 1.809235e-01 1.729442e-01
    outer loop
      vertex 9.883720e+01 2.629651e+01 -4.996585e+02
      vertex 1.028601e+02 4.768908e+00 -4.996585e+02
      vertex 1.038059e+02 5.442958e+00 -5.056585e+02
    endloop
  endfacet
  facet normal 8.957997e-01 8.809668e-02 4.356396e-01
    outer loop
      vertex 9.883720e+01 2.629651e+01 -4.996585e+02
      vertex 1.038059e+02 5.442958e+00 -5.056585e+02
      vertex 1.011489e+02 2.724333e+01 -5.046035e+02
    endloop
  endfacet
  facet normal 9.455981e-01 -3.195003e-01 6.134990e-02
    outer loop
      vertex 9.722235e+01 -1.191664e+01 -4.996585e+02
      vertex 9.717494e+01 -1.320908e+01 -5.056585e+02
      vertex 1.028601e+02 4.768908e+00 -4.996585e+02
    endloop
  endfacet
  facet normal 3.520168e-03 2.342144e-01 -9.721786e-01
    outer loop
      vertex 9.264252e+01 4.401007e+01 -6.297913e+02
      vertex 9.264252e+01 2.818307e+01 -6.336043e+02
      vertex 8.605000e+01 2.831320e+01 -6.335968e+02
    endloop
  endfacet
  facet normal 5.160650e-03 2.335617e-01 -9.723283e-01
    outer loop
      vertex 9.264252e+01 4.401007e+01 -6.297913e+02
      vertex 8.605000e+01 2.831320e+01 -6.335968e+02
      vertex 8.605000e+01 4.389814e+01 -6.298532e+02
    endloop
  endfacet
  facet normal 8.576221e-01 1.742754e-01 -4.838517e-01
    outer loop
      vertex 9.587111e+01 4.906189e+01 -6.203615e+02
      vertex 9.755000e+01 2.878327e+01 -6.246897e+02
      vertex 9.264252e+01 2.818307e+01 -6.336043e+02
    endloop
  endfacet
  facet normal 9.901601e-01 9.997890e-02 -9.791390e-02
    outer loop
      vertex 9.755000e+01 5.230410e+01 -6.006728e+02
      vertex 1.007500e+02 2.713434e+01 -5.940132e+02
      vertex 9.755000e+01 2.878327e+01 -6.246897e+02
    endloop
  endfacet
  facet normal 9.894378e-01 1.035647e-01 -1.014257e-01
    outer loop
      vertex 9.755000e+01 5.230410e+01 -6.006728e+02
      vertex 9.755000e+01 2.878327e+01 -6.246897e+02
      vertex 9.587111e+01 4.906189e+01 -6.203615e+02
    endloop
  endfacet
  facet normal 9.270747e-01 8.780205e-02 -3.644493e-01
    outer loop
      vertex 9.264252e+01 4.401007e+01 -6.297913e+02
      vertex 9.587111e+01 4.906189e+01 -6.203615e+02
      vertex 9.264252e+01 2.818307e+01 -6.336043e+02
    endloop
  endfacet
  facet normal 9.922570e-01 1.241683e-01 2.876996e-03
    outer loop
      vertex 9.755000e+01 5.230410e+01 -5.766559e+02
      vertex 1.007500e+02 2.693144e+01 -5.852559e+02
      vertex 1.007500e+02 2.713434e+01 -5.940132e+02
    endloop
  endfacet
  facet normal 9.920148e-01 1.261215e-01 5.170861e-15
    outer loop
      vertex 9.755000e+01 5.230410e+01 -5.766559e+02
      vertex 1.007500e+02 2.713434e+01 -5.940132e+02
      vertex 9.755000e+01 5.230410e+01 -6.006728e+02
    endloop
  endfacet
  facet normal 9.803186e-01 1.923832e-01 4.431796e-02
    outer loop
      vertex 9.520657e+01 4.871350e+01 -5.571900e+02
      vertex 9.930877e+01 2.690588e+01 -5.532648e+02
      vertex 1.007500e+02 2.693144e+01 -5.852559e+02
    endloop
  endfacet
  facet normal 9.878618e-01 7.932036e-02 1.335563e-01
    outer loop
      vertex 9.520657e+01 4.871350e+01 -5.571900e+02
      vertex 1.007500e+02 2.693144e+01 -5.852559e+02
      vertex 9.755000e+01 5.230410e+01 -5.766559e+02
    endloop
  endfacet
  facet normal 8.622366e-01 5.023687e-01 -6.460418e-02
    outer loop
      vertex 9.371066e+01 4.000000e+01 -5.261585e+02
      vertex 1.011439e+02 2.724204e+01 -5.261585e+02
      vertex 9.930877e+01 2.690588e+01 -5.532648e+02
    endloop
  endfacet
  facet normal 9.739178e-01 2.018546e-01 1.036285e-01
    outer loop
      vertex 9.371066e+01 4.000000e+01 -5.261585e+02
      vertex 9.930877e+01 2.690588e+01 -5.532648e+02
      vertex 9.520657e+01 4.871350e+01 -5.571900e+02
    endloop
  endfacet
  facet normal 8.638716e-01 5.037121e-01 -2.313087e-04
    outer loop
      vertex 9.371066e+01 4.000000e+01 -5.046053e+02
      vertex 1.011489e+02 2.724333e+01 -5.046035e+02
      vertex 1.011439e+02 2.724204e+01 -5.261585e+02
    endloop
  endfacet
  facet normal 8.640416e-01 5.034203e-01 1.529264e-08
    outer loop
      vertex 9.371066e+01 4.000000e+01 -5.046053e+02
      vertex 1.011439e+02 2.724204e+01 -5.261585e+02
      vertex 9.371066e+01 4.000000e+01 -5.261585e+02
    endloop
  endfacet
  facet normal 7.666925e-01 4.611233e-01 4.467079e-01
    outer loop
      vertex 9.089572e+01 3.959724e+01 -4.997583e+02
      vertex 9.883720e+01 2.629651e+01 -4.996585e+02
      vertex 1.011489e+02 2.724333e+01 -5.046035e+02
    endloop
  endfacet
  facet normal 7.589666e-01 4.426100e-01 4.775627e-01
    outer loop
      vertex 9.089572e+01 3.959724e+01 -4.997583e+02
      vertex 1.011489e+02 2.724333e+01 -5.046035e+02
      vertex 9.371066e+01 4.000000e+01 -5.046053e+02
    endloop
  endfacet
  facet normal -1.070564e-03 5.313608e-01 -8.471450e-01
    outer loop
      vertex 9.264252e+01 5.428519e+01 -6.233464e+02
      vertex 9.264252e+01 4.401007e+01 -6.297913e+02
      vertex 8.605000e+01 4.389814e+01 -6.298532e+02
    endloop
  endfacet
  facet normal -1.000000e+00 -3.628878e-15 -5.212716e-15
    outer loop
      vertex 8.605000e+01 5.421466e+01 -6.234042e+02
      vertex 8.605000e+01 4.389814e+01 -6.298532e+02
      vertex 8.605000e+01 6.187964e+01 -6.151093e+02
    endloop
  endfacet
  facet normal 1.763944e-03 5.300681e-01 -8.479532e-01
    outer loop
      vertex 9.264252e+01 5.428519e+01 -6.233464e+02
      vertex 8.605000e+01 4.389814e+01 -6.298532e+02
      vertex 8.605000e+01 5.421466e+01 -6.234042e+02
    endloop
  endfacet
  facet normal 7.810140e-01 3.984691e-01 -4.808737e-01
    outer loop
      vertex 9.264252e+01 6.209932e+01 -6.148019e+02
      vertex 9.587111e+01 4.906189e+01 -6.203615e+02
      vertex 9.264252e+01 4.401007e+01 -6.297913e+02
    endloop
  endfacet
  facet normal 9.486634e-01 2.890133e-01 -1.284872e-01
    outer loop
      vertex 9.275226e+01 6.880431e+01 -5.989812e+02
      vertex 9.755000e+01 5.230410e+01 -6.006728e+02
      vertex 9.587111e+01 4.906189e+01 -6.203615e+02
    endloop
  endfacet
  facet normal 9.482133e-01 2.900374e-01 -1.294985e-01
    outer loop
      vertex 9.275226e+01 6.880431e+01 -5.989812e+02
      vertex 9.587111e+01 4.906189e+01 -6.203615e+02
      vertex 9.264252e+01 6.209932e+01 -6.148019e+02
    endloop
  endfacet
  facet normal 1.000000e+00 3.985165e-15 4.671296e-15
    outer loop
      vertex 9.264252e+01 5.428519e+01 -6.233464e+02
      vertex 9.264252e+01 6.209932e+01 -6.148019e+02
      vertex 9.264252e+01 4.401007e+01 -6.297913e+02
    endloop
  endfacet
  facet normal 9.572775e-01 2.891709e-01 4.811483e-15
    outer loop
      vertex 9.264252e+01 6.854991e+01 -5.785008e+02
      vertex 9.755000e+01 5.230410e+01 -5.766559e+02
      vertex 9.755000e+01 5.230410e+01 -6.006728e+02
    endloop
  endfacet
  facet normal 9.604322e-01 2.783809e-01 8.604305e-03
    outer loop
      vertex 9.264252e+01 6.854991e+01 -5.785008e+02
      vertex 9.755000e+01 5.230410e+01 -6.006728e+02
      vertex 9.275226e+01 6.880431e+01 -5.989812e+02
    endloop
  endfacet
  facet normal 9.473747e-01 2.745163e-01 1.646873e-01
    outer loop
      vertex 9.264252e+01 6.127800e+01 -5.633839e+02
      vertex 9.520657e+01 4.871350e+01 -5.571900e+02
      vertex 9.755000e+01 5.230410e+01 -5.766559e+02
    endloop
  endfacet
  facet normal 9.425046e-01 3.011600e-01 1.448714e-01
    outer loop
      vertex 9.264252e+01 6.127800e+01 -5.633839e+02
      vertex 9.755000e+01 5.230410e+01 -5.766559e+02
      vertex 9.264252e+01 6.854991e+01 -5.785008e+02
    endloop
  endfacet
  facet normal 7.167327e-03 7.344253e-01 -6.786517e-01
    outer loop
      vertex 9.264252e+01 6.209932e+01 -6.148019e+02
      vertex 8.605000e+01 5.421466e+01 -6.234042e+02
      vertex 8.605000e+01 6.187964e+01 -6.151093e+02
    endloop
  endfacet
  facet normal -1.249153e-02 9.206837e-01 -3.901096e-01
    outer loop
      vertex 9.275226e+01 6.880431e+01 -5.989812e+02
      vertex 9.264252e+01 6.209932e+01 -6.148019e+02
      vertex 8.605000e+01 6.187964e+01 -6.151093e+02
    endloop
  endfacet
  facet normal 2.750835e-02 9.143413e-01 -4.040090e-01
    outer loop
      vertex 9.275226e+01 6.880431e+01 -5.989812e+02
      vertex 8.605000e+01 6.187964e+01 -6.151093e+02
      vertex 8.605000e+01 6.898418e+01 -5.990305e+02
    endloop
  endfacet
  facet normal -1.977666e-03 7.379393e-01 -6.748642e-01
    outer loop
      vertex 9.264252e+01 5.428519e+01 -6.233464e+02
      vertex 8.605000e+01 5.421466e+01 -6.234042e+02
      vertex 9.264252e+01 6.209932e+01 -6.148019e+02
    endloop
  endfacet
  facet normal 2.673279e-02 9.995637e-01 1.255948e-02
    outer loop
      vertex 9.264252e+01 6.854991e+01 -5.785008e+02
      vertex 9.275226e+01 6.880431e+01 -5.989812e+02
      vertex 8.605000e+01 6.898418e+01 -5.990305e+02
    endloop
  endfacet
  facet normal -2.274924e-03 9.997580e-01 2.187859e-02
    outer loop
      vertex 9.264252e+01 6.854991e+01 -5.785008e+02
      vertex 8.605000e+01 6.898418e+01 -5.990305e+02
      vertex 8.605000e+01 6.853285e+01 -5.784066e+02
    endloop
  endfacet
  facet normal 3.862939e-03 9.011488e-01 4.334928e-01
    outer loop
      vertex 9.264252e+01 6.127800e+01 -5.633839e+02
      vertex 9.264252e+01 6.854991e+01 -5.785008e+02
      vertex 8.605000e+01 6.853285e+01 -5.784066e+02
    endloop
  endfacet
  facet normal 1.081911e-02 9.022910e-01 4.309918e-01
    outer loop
      vertex 9.264252e+01 6.127800e+01 -5.633839e+02
      vertex 8.605000e+01 6.853285e+01 -5.784066e+02
      vertex 8.605000e+01 6.148327e+01 -5.636481e+02
    endloop
  endfacet
endsolid SIM_ICUB3_R_UPPER_LEG
