solid SIM_ICUB3_CHEST
  facet normal -9.976396e-01 -3.279309e-02 -6.033091e-02
    outer loop
      vertex -1.001167e+02 -4.747181e+01 -5.753871e+01
      vertex -1.015717e+02 1.081514e+01 -6.516079e+01
      vertex -9.655728e+01 -4.170031e+01 -1.195355e+02
    endloop
  endfacet
  facet normal -9.957051e-01 -9.254988e-02 -2.438976e-03
    outer loop
      vertex -1.006368e+02 2.180686e+00 -1.191808e+02
      vertex -9.655728e+01 -4.170031e+01 -1.195355e+02
      vertex -1.015717e+02 1.081514e+01 -6.516079e+01
    endloop
  endfacet
  facet normal -9.148235e-01 -3.938818e-01 -8.919117e-02
    outer loop
      vertex -9.501031e+01 -5.896294e+01 -5.916818e+01
      vertex -1.001167e+02 -4.747181e+01 -5.753871e+01
      vertex -9.655728e+01 -4.170031e+01 -1.195355e+02
    endloop
  endfacet
  facet normal -9.429494e-01 -8.506359e-02 -3.218861e-01
    outer loop
      vertex -9.840598e+01 6.520172e+00 -1.268628e+02
      vertex -9.655728e+01 -4.170031e+01 -1.195355e+02
      vertex -1.006368e+02 2.180686e+00 -1.191808e+02
    endloop
  endfacet
  facet normal -9.285496e-01 -3.625141e-01 -7.986953e-02
    outer loop
      vertex -9.019323e+01 -5.661157e+01 -1.258431e+02
      vertex -9.501031e+01 -5.896294e+01 -5.916818e+01
      vertex -9.655728e+01 -4.170031e+01 -1.195355e+02
    endloop
  endfacet
  facet normal -8.230141e-01 -1.160465e-01 -5.560404e-01
    outer loop
      vertex -9.840598e+01 6.520172e+00 -1.268628e+02
      vertex -9.019323e+01 -5.661157e+01 -1.258431e+02
      vertex -9.655728e+01 -4.170031e+01 -1.195355e+02
    endloop
  endfacet
  facet normal -9.952160e-01 -1.216680e-02 9.693805e-02
    outer loop
      vertex -9.145465e+01 7.916872e+00 3.834267e+01
      vertex -1.015717e+02 1.081514e+01 -6.516079e+01
      vertex -1.001167e+02 -4.747181e+01 -5.753871e+01
    endloop
  endfacet
  facet normal -9.995337e-01 2.229659e-02 -2.086206e-02
    outer loop
      vertex -1.012446e+02 3.376565e+01 -5.630662e+01
      vertex -1.006368e+02 2.180686e+00 -1.191808e+02
      vertex -1.015717e+02 1.081514e+01 -6.516079e+01
    endloop
  endfacet
  facet normal -9.917028e-01 8.173200e-02 9.922396e-02
    outer loop
      vertex -9.308926e+01 4.646590e+01 -9.747882e+00
      vertex -1.015717e+02 1.081514e+01 -6.516079e+01
      vertex -9.145465e+01 7.916872e+00 3.834267e+01
    endloop
  endfacet
  facet normal -9.804901e-01 -5.843041e-02 1.876832e-01
    outer loop
      vertex -9.308926e+01 4.646590e+01 -9.747882e+00
      vertex -1.012446e+02 3.376565e+01 -5.630662e+01
      vertex -1.015717e+02 1.081514e+01 -6.516079e+01
    endloop
  endfacet
  facet normal -9.067412e-01 -4.141747e-01 7.924407e-02
    outer loop
      vertex -8.692424e+01 -6.398268e+01 7.119703e+00
      vertex -1.001167e+02 -4.747181e+01 -5.753871e+01
      vertex -9.501031e+01 -5.896294e+01 -5.916818e+01
    endloop
  endfacet
  facet normal -9.875017e-01 -8.031516e-02 1.356090e-01
    outer loop
      vertex -9.319013e+01 -6.278171e+01 -1.616668e+01
      vertex -9.145465e+01 7.916872e+00 3.834267e+01
      vertex -1.001167e+02 -4.747181e+01 -5.753871e+01
    endloop
  endfacet
  facet normal 9.192441e-01 -2.934167e-01 -2.624823e-01
    outer loop
      vertex -8.692424e+01 -6.398268e+01 7.119703e+00
      vertex -9.319013e+01 -6.278171e+01 -1.616668e+01
      vertex -1.001167e+02 -4.747181e+01 -5.753871e+01
    endloop
  endfacet
  facet normal -9.428837e-01 3.198353e-01 -9.314347e-02
    outer loop
      vertex -8.048277e+01 5.869101e+01 -1.291542e+02
      vertex -9.840598e+01 6.520172e+00 -1.268628e+02
      vertex -1.006368e+02 2.180686e+00 -1.191808e+02
    endloop
  endfacet
  facet normal -9.740258e-01 1.984247e-01 -1.090938e-01
    outer loop
      vertex -9.273860e+01 4.038370e+01 -1.202136e+02
      vertex -1.006368e+02 2.180686e+00 -1.191808e+02
      vertex -1.012446e+02 3.376565e+01 -5.630662e+01
    endloop
  endfacet
  facet normal -7.004398e-01 1.258195e-01 -7.025336e-01
    outer loop
      vertex -8.048277e+01 5.869101e+01 -1.291542e+02
      vertex -1.006368e+02 2.180686e+00 -1.191808e+02
      vertex -9.273860e+01 4.038370e+01 -1.202136e+02
    endloop
  endfacet
  facet normal -7.930568e-01 -6.040556e-01 -7.859878e-02
    outer loop
      vertex -6.499651e+01 -9.013986e+01 -1.224014e+02
      vertex -9.501031e+01 -5.896294e+01 -5.916818e+01
      vertex -9.019323e+01 -5.661157e+01 -1.258431e+02
    endloop
  endfacet
  facet normal -7.683927e-01 -6.383670e-01 4.539048e-02
    outer loop
      vertex -6.801651e+01 -9.171467e+01 -6.282070e+01
      vertex -8.692424e+01 -6.398268e+01 7.119703e+00
      vertex -9.501031e+01 -5.896294e+01 -5.916818e+01
    endloop
  endfacet
  facet normal -7.735224e-01 -6.312994e-01 -5.589421e-02
    outer loop
      vertex -6.801651e+01 -9.171467e+01 -6.282070e+01
      vertex -9.501031e+01 -5.896294e+01 -5.916818e+01
      vertex -6.499651e+01 -9.013986e+01 -1.224014e+02
    endloop
  endfacet
  facet normal -9.031350e-01 -1.241269e-01 -4.110228e-01
    outer loop
      vertex -7.317419e+01 -6.292757e+01 -1.613314e+02
      vertex -9.019323e+01 -5.661157e+01 -1.258431e+02
      vertex -9.840598e+01 6.520172e+00 -1.268628e+02
    endloop
  endfacet
  facet normal -7.830114e-01 -6.037814e-01 -1.494695e-01
    outer loop
      vertex -6.499651e+01 -9.013986e+01 -1.224014e+02
      vertex -9.019323e+01 -5.661157e+01 -1.258431e+02
      vertex -5.663729e+01 -8.949864e+01 -1.687822e+02
    endloop
  endfacet
  facet normal -8.408472e-01 -4.317890e-01 -3.263958e-01
    outer loop
      vertex -7.317419e+01 -6.292757e+01 -1.613314e+02
      vertex -5.663729e+01 -8.949864e+01 -1.687822e+02
      vertex -9.019323e+01 -5.661157e+01 -1.258431e+02
    endloop
  endfacet
  facet normal -7.142327e-01 2.161358e-01 -6.657003e-01
    outer loop
      vertex -7.907394e+01 -9.248080e+00 -1.527238e+02
      vertex -9.840598e+01 6.520172e+00 -1.268628e+02
      vertex -8.048277e+01 5.869101e+01 -1.291542e+02
    endloop
  endfacet
  facet normal -7.983299e-01 8.814881e-03 -6.021559e-01
    outer loop
      vertex -7.907394e+01 -9.248080e+00 -1.527238e+02
      vertex -7.317419e+01 -6.292757e+01 -1.613314e+02
      vertex -9.840598e+01 6.520172e+00 -1.268628e+02
    endloop
  endfacet
  facet normal 9.356205e-01 -2.296630e-01 2.680843e-01
    outer loop
      vertex -8.748971e+01 1.643660e+01 3.180363e+01
      vertex -9.145465e+01 7.916872e+00 3.834267e+01
      vertex -9.319013e+01 -6.278171e+01 -1.616668e+01
    endloop
  endfacet
  facet normal -2.021669e-01 6.537571e-01 7.291983e-01
    outer loop
      vertex -8.020668e+01 5.377857e+01 3.441581e-01
      vertex -9.145465e+01 7.916872e+00 3.834267e+01
      vertex -8.748971e+01 1.643660e+01 3.180363e+01
    endloop
  endfacet
  facet normal -6.845118e-01 5.572816e-01 4.699795e-01
    outer loop
      vertex -8.020668e+01 5.377857e+01 3.441581e-01
      vertex -9.308926e+01 4.646590e+01 -9.747882e+00
      vertex -9.145465e+01 7.916872e+00 3.834267e+01
    endloop
  endfacet
  facet normal -9.632501e-01 -8.498393e-02 2.548079e-01
    outer loop
      vertex -8.748971e+01 1.643660e+01 3.180363e+01
      vertex -9.319013e+01 -6.278171e+01 -1.616668e+01
      vertex -8.692424e+01 -6.398268e+01 7.119703e+00
    endloop
  endfacet
  facet normal -9.643423e-01 7.143818e-02 -2.548342e-01
    outer loop
      vertex -9.105484e+01 1.782843e+00 4.118689e+01
      vertex -8.748971e+01 1.643660e+01 3.180363e+01
      vertex -8.692424e+01 -6.398268e+01 7.119703e+00
    endloop
  endfacet
  facet normal -7.171336e-01 -6.922575e-01 8.061600e-02
    outer loop
      vertex -6.796546e+01 -8.522153e+01 -6.609245e+00
      vertex -8.692424e+01 -6.398268e+01 7.119703e+00
      vertex -6.801651e+01 -9.171467e+01 -6.282070e+01
    endloop
  endfacet
  facet normal -5.561180e-01 -7.404286e-01 3.774894e-01
    outer loop
      vertex -6.896714e+01 -4.983118e+01 6.133166e+01
      vertex -8.692424e+01 -6.398268e+01 7.119703e+00
      vertex -6.796546e+01 -8.522153e+01 -6.609245e+00
    endloop
  endfacet
  facet normal -8.998198e-01 -2.438906e-01 3.617204e-01
    outer loop
      vertex -9.105484e+01 1.782843e+00 4.118689e+01
      vertex -8.692424e+01 -6.398268e+01 7.119703e+00
      vertex -6.896714e+01 -4.983118e+01 6.133166e+01
    endloop
  endfacet
  facet normal -6.893520e-01 5.406577e-01 4.821650e-01
    outer loop
      vertex -6.580292e+01 4.080889e+01 3.548031e+01
      vertex -8.020668e+01 5.377857e+01 3.441581e-01
      vertex -8.748971e+01 1.643660e+01 3.180363e+01
    endloop
  endfacet
  facet normal -6.658786e-01 5.104236e-01 5.441264e-01
    outer loop
      vertex -6.580292e+01 4.080889e+01 3.548031e+01
      vertex -8.748971e+01 1.643660e+01 3.180363e+01
      vertex -9.105484e+01 1.782843e+00 4.118689e+01
    endloop
  endfacet
  facet normal -7.995326e-01 5.989801e-01 -4.438836e-02
    outer loop
      vertex -8.062950e+01 6.111480e+01 -5.857823e+01
      vertex -9.273860e+01 4.038370e+01 -1.202136e+02
      vertex -1.012446e+02 3.376565e+01 -5.630662e+01
    endloop
  endfacet
  facet normal -7.926902e-01 6.042304e-01 8.091884e-02
    outer loop
      vertex -8.020668e+01 5.377857e+01 3.441581e-01
      vertex -8.062950e+01 6.111480e+01 -5.857823e+01
      vertex -1.012446e+02 3.376565e+01 -5.630662e+01
    endloop
  endfacet
  facet normal -3.731535e-01 9.095917e-01 -1.827552e-01
    outer loop
      vertex -8.020668e+01 5.377857e+01 3.441581e-01
      vertex -1.012446e+02 3.376565e+01 -5.630662e+01
      vertex -9.308926e+01 4.646590e+01 -9.747882e+00
    endloop
  endfacet
  facet normal -8.354261e-01 5.492166e-01 -2.059861e-02
    outer loop
      vertex -8.048277e+01 5.869101e+01 -1.291542e+02
      vertex -9.273860e+01 4.038370e+01 -1.202136e+02
      vertex -8.062950e+01 6.111480e+01 -5.857823e+01
    endloop
  endfacet
  facet normal -6.513365e-01 7.582943e-01 -2.739623e-02
    outer loop
      vertex -5.603339e+01 8.218888e+01 -6.003806e+01
      vertex -8.048277e+01 5.869101e+01 -1.291542e+02
      vertex -8.062950e+01 6.111480e+01 -5.857823e+01
    endloop
  endfacet
  facet normal -7.342614e-01 6.729994e-01 8.906175e-02
    outer loop
      vertex -4.279053e+01 9.621203e+01 -1.183226e+01
      vertex -8.062950e+01 6.111480e+01 -5.857823e+01
      vertex -8.020668e+01 5.377857e+01 3.441581e-01
    endloop
  endfacet
  facet normal -6.515014e-01 7.575177e-01 -4.138612e-02
    outer loop
      vertex -4.279053e+01 9.621203e+01 -1.183226e+01
      vertex -5.603339e+01 8.218888e+01 -6.003806e+01
      vertex -8.062950e+01 6.111480e+01 -5.857823e+01
    endloop
  endfacet
  facet normal -7.955308e-01 1.838034e-01 -5.773621e-01
    outer loop
      vertex -6.788010e+01 6.038630e+01 -1.459794e+02
      vertex -7.907394e+01 -9.248080e+00 -1.527238e+02
      vertex -8.048277e+01 5.869101e+01 -1.291542e+02
    endloop
  endfacet
  facet normal -7.080720e-01 5.197579e-01 -4.780018e-01
    outer loop
      vertex -6.007282e+01 7.691556e+01 -1.395712e+02
      vertex -6.788010e+01 6.038630e+01 -1.459794e+02
      vertex -8.048277e+01 5.869101e+01 -1.291542e+02
    endloop
  endfacet
  facet normal -6.702595e-01 7.419721e-01 -1.515318e-02
    outer loop
      vertex -5.603339e+01 8.218888e+01 -6.003806e+01
      vertex -6.007282e+01 7.691556e+01 -1.395712e+02
      vertex -8.048277e+01 5.869101e+01 -1.291542e+02
    endloop
  endfacet
  facet normal -3.125159e-01 8.423590e-01 4.390502e-01
    outer loop
      vertex -2.854232e+01 5.323374e+01 3.816415e+01
      vertex -8.020668e+01 5.377857e+01 3.441581e-01
      vertex -6.580292e+01 4.080889e+01 3.548031e+01
    endloop
  endfacet
  facet normal -4.049291e-01 7.200460e-01 5.635302e-01
    outer loop
      vertex -3.353480e+01 7.538391e+01 6.274573e+00
      vertex -8.020668e+01 5.377857e+01 3.441581e-01
      vertex -2.854232e+01 5.323374e+01 3.816415e+01
    endloop
  endfacet
  facet normal -3.342320e-01 5.032770e-01 7.968696e-01
    outer loop
      vertex -3.250000e+01 9.617002e+01 -6.419233e+00
      vertex -8.020668e+01 5.377857e+01 3.441581e-01
      vertex -3.353480e+01 7.538391e+01 6.274573e+00
    endloop
  endfacet
  facet normal -3.862583e-01 5.525285e-01 7.385910e-01
    outer loop
      vertex -3.250000e+01 9.617002e+01 -6.419233e+00
      vertex -4.279053e+01 9.621203e+01 -1.183226e+01
      vertex -8.020668e+01 5.377857e+01 3.441581e-01
    endloop
  endfacet
  facet normal -4.825843e-01 -8.702356e-01 -9.900724e-02
    outer loop
      vertex -2.801397e+01 -1.103038e+02 -1.254297e+02
      vertex -6.499651e+01 -9.013986e+01 -1.224014e+02
      vertex -5.663729e+01 -8.949864e+01 -1.687822e+02
    endloop
  endfacet
  facet normal -6.180501e-01 -1.693899e-01 -7.676725e-01
    outer loop
      vertex -4.048726e+01 -8.594707e+01 -1.825682e+02
      vertex -5.663729e+01 -8.949864e+01 -1.687822e+02
      vertex -7.317419e+01 -6.292757e+01 -1.613314e+02
    endloop
  endfacet
  facet normal -4.218831e-01 -8.940680e-01 -1.505224e-01
    outer loop
      vertex -2.326166e+01 -1.029407e+02 -1.824843e+02
      vertex -2.801397e+01 -1.103038e+02 -1.254297e+02
      vertex -5.663729e+01 -8.949864e+01 -1.687822e+02
    endloop
  endfacet
  facet normal -4.938941e-01 -5.041320e-01 -7.084629e-01
    outer loop
      vertex -4.048726e+01 -8.594707e+01 -1.825682e+02
      vertex -2.326166e+01 -1.029407e+02 -1.824843e+02
      vertex -5.663729e+01 -8.949864e+01 -1.687822e+02
    endloop
  endfacet
  facet normal -4.794926e-01 -8.774460e-01 -1.324088e-02
    outer loop
      vertex -2.803788e+01 -1.112653e+02 -6.084336e+01
      vertex -6.499651e+01 -9.013986e+01 -1.224014e+02
      vertex -2.801397e+01 -1.103038e+02 -1.254297e+02
    endloop
  endfacet
  facet normal -4.370154e-01 -8.982824e-01 -4.589430e-02
    outer loop
      vertex -2.803788e+01 -1.112653e+02 -6.084336e+01
      vertex -6.801651e+01 -9.171467e+01 -6.282070e+01
      vertex -6.499651e+01 -9.013986e+01 -1.224014e+02
    endloop
  endfacet
  facet normal -4.488352e-01 1.717146e-01 -8.769613e-01
    outer loop
      vertex -7.090330e+01 -1.032303e+01 -1.521934e+02
      vertex -4.048726e+01 -8.594707e+01 -1.825682e+02
      vertex -7.317419e+01 -6.292757e+01 -1.613314e+02
    endloop
  endfacet
  facet normal 8.572713e-02 1.669255e-01 -9.822356e-01
    outer loop
      vertex -7.090330e+01 -1.032303e+01 -1.521934e+02
      vertex -7.317419e+01 -6.292757e+01 -1.613314e+02
      vertex -7.907394e+01 -9.248080e+00 -1.527238e+02
    endloop
  endfacet
  facet normal -2.045272e-06 -9.917752e-01 -1.279916e-01
    outer loop
      vertex 2.801367e+01 -1.103039e+02 -1.254299e+02
      vertex -2.801397e+01 -1.103038e+02 -1.254297e+02
      vertex -2.326166e+01 -1.029407e+02 -1.824843e+02
    endloop
  endfacet
  facet normal -1.952536e-07 -9.998892e-01 -1.488627e-02
    outer loop
      vertex 2.803810e+01 -1.112653e+02 -6.084462e+01
      vertex -2.803788e+01 -1.112653e+02 -6.084336e+01
      vertex -2.801397e+01 -1.103038e+02 -1.254297e+02
    endloop
  endfacet
  facet normal -1.647132e-06 -9.998892e-01 -1.488501e-02
    outer loop
      vertex 2.803810e+01 -1.112653e+02 -6.084462e+01
      vertex -2.801397e+01 -1.103038e+02 -1.254297e+02
      vertex 2.801367e+01 -1.103039e+02 -1.254299e+02
    endloop
  endfacet
  facet normal -1.099525e-03 -6.050582e-03 -9.999811e-01
    outer loop
      vertex 4.029180e+01 -8.603691e+01 -1.826565e+02
      vertex -2.326166e+01 -1.029407e+02 -1.824843e+02
      vertex -4.048726e+01 -8.594707e+01 -1.825682e+02
    endloop
  endfacet
  facet normal 6.284610e-03 -9.910229e-01 -1.335444e-01
    outer loop
      vertex 2.393962e+01 -1.026610e+02 -1.823389e+02
      vertex 2.801367e+01 -1.103039e+02 -1.254299e+02
      vertex -2.326166e+01 -1.029407e+02 -1.824843e+02
    endloop
  endfacet
  facet normal 3.211811e-03 -2.225757e-02 -9.997471e-01
    outer loop
      vertex 4.029180e+01 -8.603691e+01 -1.826565e+02
      vertex 2.393962e+01 -1.026610e+02 -1.823389e+02
      vertex -2.326166e+01 -1.029407e+02 -1.824843e+02
    endloop
  endfacet
  facet normal -3.735084e-17 3.727147e-01 -9.279460e-01
    outer loop
      vertex 7.090330e+01 -1.032303e+01 -1.521934e+02
      vertex -4.048726e+01 -8.594707e+01 -1.825682e+02
      vertex -7.090330e+01 -1.032303e+01 -1.521934e+02
    endloop
  endfacet
  facet normal -5.983950e-04 3.734735e-01 -9.276407e-01
    outer loop
      vertex 7.090330e+01 -1.032303e+01 -1.521934e+02
      vertex 4.029180e+01 -8.603691e+01 -1.826565e+02
      vertex -4.048726e+01 -8.594707e+01 -1.825682e+02
    endloop
  endfacet
  facet normal -4.403979e-01 -8.856954e-01 1.469471e-01
    outer loop
      vertex -2.347267e+01 -1.026781e+02 4.596331e+00
      vertex -6.801651e+01 -9.171467e+01 -6.282070e+01
      vertex -2.803788e+01 -1.112653e+02 -6.084336e+01
    endloop
  endfacet
  facet normal -3.862384e-01 -9.162660e-01 1.061913e-01
    outer loop
      vertex -2.347267e+01 -1.026781e+02 4.596331e+00
      vertex -6.796546e+01 -8.522153e+01 -6.609245e+00
      vertex -6.801651e+01 -9.171467e+01 -6.282070e+01
    endloop
  endfacet
  facet normal -5.085378e-04 -9.914951e-01 1.301429e-01
    outer loop
      vertex 2.340600e+01 -1.027048e+02 4.576083e+00
      vertex -2.347267e+01 -1.026781e+02 4.596331e+00
      vertex -2.803788e+01 -1.112653e+02 -6.084336e+01
    endloop
  endfacet
  facet normal 3.064808e-06 -9.915471e-01 1.297474e-01
    outer loop
      vertex 2.340600e+01 -1.027048e+02 4.576083e+00
      vertex -2.803788e+01 -1.112653e+02 -6.084336e+01
      vertex 2.803810e+01 -1.112653e+02 -6.084462e+01
    endloop
  endfacet
  facet normal -4.215625e-01 -7.238993e-01 5.461272e-01
    outer loop
      vertex -2.138609e+01 -8.235271e+01 3.314861e+01
      vertex -6.796546e+01 -8.522153e+01 -6.609245e+00
      vertex -2.347267e+01 -1.026781e+02 4.596331e+00
    endloop
  endfacet
  facet normal -4.650993e-01 -7.879182e-01 4.035686e-01
    outer loop
      vertex -5.803535e+01 -7.345214e+01 2.781315e+01
      vertex -6.896714e+01 -4.983118e+01 6.133166e+01
      vertex -6.796546e+01 -8.522153e+01 -6.609245e+00
    endloop
  endfacet
  facet normal -2.701798e-01 -8.844941e-01 3.803590e-01
    outer loop
      vertex -2.138609e+01 -8.235271e+01 3.314861e+01
      vertex -5.803535e+01 -7.345214e+01 2.781315e+01
      vertex -6.796546e+01 -8.522153e+01 -6.609245e+00
    endloop
  endfacet
  facet normal 8.296210e-05 -8.146674e-01 5.799284e-01
    outer loop
      vertex 2.138592e+01 -8.232874e+01 3.317617e+01
      vertex -2.138609e+01 -8.235271e+01 3.314861e+01
      vertex -2.347267e+01 -1.026781e+02 4.596331e+00
    endloop
  endfacet
  facet normal -2.132837e-04 -8.144477e-01 5.802370e-01
    outer loop
      vertex 2.138592e+01 -8.232874e+01 3.317617e+01
      vertex -2.347267e+01 -1.026781e+02 4.596331e+00
      vertex 2.340600e+01 -1.027048e+02 4.576083e+00
    endloop
  endfacet
  facet normal -7.570523e-02 -8.265309e-01 5.577772e-01
    outer loop
      vertex -5.415485e+01 -5.029868e+01 6.264933e+01
      vertex -6.896714e+01 -4.983118e+01 6.133166e+01
      vertex -5.803535e+01 -7.345214e+01 2.781315e+01
    endloop
  endfacet
  facet normal -7.754192e-02 2.577108e-01 9.631056e-01
    outer loop
      vertex -3.250000e+01 7.557371e+00 4.891151e+01
      vertex -6.896714e+01 -4.983118e+01 6.133166e+01
      vertex -5.415485e+01 -5.029868e+01 6.264933e+01
    endloop
  endfacet
  facet normal -1.538627e-01 3.014229e-01 9.409944e-01
    outer loop
      vertex -3.250000e+01 7.557371e+00 4.891151e+01
      vertex -9.105484e+01 1.782843e+00 4.118689e+01
      vertex -6.896714e+01 -4.983118e+01 6.133166e+01
    endloop
  endfacet
  facet normal -2.717715e-01 -7.872519e-01 5.535112e-01
    outer loop
      vertex -5.415485e+01 -5.029868e+01 6.264933e+01
      vertex -5.803535e+01 -7.345214e+01 2.781315e+01
      vertex -2.138609e+01 -8.235271e+01 3.314861e+01
    endloop
  endfacet
  facet normal -5.842952e-04 -6.775166e-01 7.355072e-01
    outer loop
      vertex 5.420771e+01 -5.023703e+01 6.279220e+01
      vertex -5.415485e+01 -5.029868e+01 6.264933e+01
      vertex -2.138609e+01 -8.235271e+01 3.314861e+01
    endloop
  endfacet
  facet normal -9.346561e-05 -6.781409e-01 7.349319e-01
    outer loop
      vertex 5.420771e+01 -5.023703e+01 6.279220e+01
      vertex -2.138609e+01 -8.235271e+01 3.314861e+01
      vertex 2.138592e+01 -8.232874e+01 3.317617e+01
    endloop
  endfacet
  facet normal 0.000000e+00 2.310247e-01 9.729479e-01
    outer loop
      vertex 3.250000e+01 7.557371e+00 4.891151e+01
      vertex -3.250000e+01 7.557371e+00 4.891151e+01
      vertex -5.415485e+01 -5.029868e+01 6.264933e+01
    endloop
  endfacet
  facet normal -1.414760e-03 2.330299e-01 9.724685e-01
    outer loop
      vertex 3.250000e+01 7.557371e+00 4.891151e+01
      vertex -5.415485e+01 -5.029868e+01 6.264933e+01
      vertex 5.420771e+01 -5.023703e+01 6.279220e+01
    endloop
  endfacet
  facet normal 5.685018e-02 -5.965426e-02 -9.965989e-01
    outer loop
      vertex -2.943178e+01 8.024936e+01 -1.552491e+02
      vertex -7.090330e+01 -1.032303e+01 -1.521934e+02
      vertex -7.907394e+01 -9.248080e+00 -1.527238e+02
    endloop
  endfacet
  facet normal -2.996526e-01 1.395799e-01 -9.437827e-01
    outer loop
      vertex -2.943178e+01 8.024936e+01 -1.552491e+02
      vertex -7.907394e+01 -9.248080e+00 -1.527238e+02
      vertex -6.788010e+01 6.038630e+01 -1.459794e+02
    endloop
  endfacet
  facet normal -4.094313e-06 -3.371724e-02 -9.994314e-01
    outer loop
      vertex 2.943246e+01 8.025126e+01 -1.552494e+02
      vertex -7.090330e+01 -1.032303e+01 -1.521934e+02
      vertex -2.943178e+01 8.024936e+01 -1.552491e+02
    endloop
  endfacet
  facet normal 4.423151e-18 -3.372177e-02 -9.994313e-01
    outer loop
      vertex 2.943246e+01 8.025126e+01 -1.552494e+02
      vertex 7.090330e+01 -1.032303e+01 -1.521934e+02
      vertex -7.090330e+01 -1.032303e+01 -1.521934e+02
    endloop
  endfacet
  facet normal -1.501112e-01 2.387494e-01 9.594089e-01
    outer loop
      vertex -2.854232e+01 5.323374e+01 3.816415e+01
      vertex -9.105484e+01 1.782843e+00 4.118689e+01
      vertex -3.250000e+01 7.557371e+00 4.891151e+01
    endloop
  endfacet
  facet normal -1.479209e-01 2.361459e-01 9.603929e-01
    outer loop
      vertex -2.854232e+01 5.323374e+01 3.816415e+01
      vertex -6.580292e+01 4.080889e+01 3.548031e+01
      vertex -9.105484e+01 1.782843e+00 4.118689e+01
    endloop
  endfacet
  facet normal 0.000000e+00 2.290389e-01 9.734173e-01
    outer loop
      vertex 3.250000e+01 7.557371e+00 4.891151e+01
      vertex -2.854232e+01 5.323374e+01 3.816415e+01
      vertex -3.250000e+01 7.557371e+00 4.891151e+01
    endloop
  endfacet
  facet normal -4.795955e-01 6.567515e-01 -5.819499e-01
    outer loop
      vertex -1.984736e+01 9.238081e+01 -1.494571e+02
      vertex -2.943178e+01 8.024936e+01 -1.552491e+02
      vertex -6.788010e+01 6.038630e+01 -1.459794e+02
    endloop
  endfacet
  facet normal -5.626512e-01 5.161199e-01 -6.457894e-01
    outer loop
      vertex -5.112490e+01 8.211987e+01 -1.432079e+02
      vertex -6.788010e+01 6.038630e+01 -1.459794e+02
      vertex -6.007282e+01 7.691556e+01 -1.395712e+02
    endloop
  endfacet
  facet normal -2.896771e-01 3.375345e-01 -8.956325e-01
    outer loop
      vertex -1.984736e+01 9.238081e+01 -1.494571e+02
      vertex -6.788010e+01 6.038630e+01 -1.459794e+02
      vertex -5.112490e+01 8.211987e+01 -1.432079e+02
    endloop
  endfacet
  facet normal 1.460410e-03 4.299151e-01 -9.028681e-01
    outer loop
      vertex 2.019619e+01 9.232166e+01 -1.494205e+02
      vertex -2.943178e+01 8.024936e+01 -1.552491e+02
      vertex -1.984736e+01 9.238081e+01 -1.494571e+02
    endloop
  endfacet
  facet normal -1.874584e-05 4.348531e-01 -9.005014e-01
    outer loop
      vertex 2.019619e+01 9.232166e+01 -1.494205e+02
      vertex 2.943246e+01 8.025126e+01 -1.552494e+02
      vertex -2.943178e+01 8.024936e+01 -1.552491e+02
    endloop
  endfacet
  facet normal -2.523661e-01 7.757710e-01 5.783517e-01
    outer loop
      vertex -1.944492e+01 6.596266e+01 2.505993e+01
      vertex -3.353480e+01 7.538391e+01 6.274573e+00
      vertex -2.854232e+01 5.323374e+01 3.816415e+01
    endloop
  endfacet
  facet normal -2.437951e-07 2.290386e-01 9.734173e-01
    outer loop
      vertex 2.854226e+01 5.323374e+01 3.816417e+01
      vertex -2.854232e+01 5.323374e+01 3.816415e+01
      vertex 3.250000e+01 7.557371e+00 4.891151e+01
    endloop
  endfacet
  facet normal -1.248125e-07 7.173040e-01 6.967603e-01
    outer loop
      vertex -1.944492e+01 6.596266e+01 2.505993e+01
      vertex -2.854232e+01 5.323374e+01 3.816415e+01
      vertex 2.854226e+01 5.323374e+01 3.816417e+01
    endloop
  endfacet
  facet normal -5.993359e-01 4.387296e-01 6.695617e-01
    outer loop
      vertex -1.944492e+01 6.596266e+01 2.505993e+01
      vertex -3.250000e+01 9.617002e+01 -6.419233e+00
      vertex -3.353480e+01 7.538391e+01 6.274573e+00
    endloop
  endfacet
  facet normal -4.434308e-01 8.802893e-01 1.687005e-01
    outer loop
      vertex -2.237633e+01 9.227169e+01 -1.206148e+02
      vertex -5.112490e+01 8.211987e+01 -1.432079e+02
      vertex -6.007282e+01 7.691556e+01 -1.395712e+02
    endloop
  endfacet
  facet normal -3.518345e-01 9.343123e-01 -5.720988e-02
    outer loop
      vertex -1.813741e+01 9.780805e+01 -5.626782e+01
      vertex -2.237633e+01 9.227169e+01 -1.206148e+02
      vertex -6.007282e+01 7.691556e+01 -1.395712e+02
    endloop
  endfacet
  facet normal -3.771314e-01 9.251983e-01 -4.218945e-02
    outer loop
      vertex -1.813741e+01 9.780805e+01 -5.626782e+01
      vertex -6.007282e+01 7.691556e+01 -1.395712e+02
      vertex -5.603339e+01 8.218888e+01 -6.003806e+01
    endloop
  endfacet
  facet normal -3.159720e-01 9.484620e-01 -2.411708e-02
    outer loop
      vertex -1.984736e+01 9.238081e+01 -1.494571e+02
      vertex -5.112490e+01 8.211987e+01 -1.432079e+02
      vertex -2.237633e+01 9.227169e+01 -1.206148e+02
    endloop
  endfacet
  facet normal -1.418172e-06 9.999928e-01 3.783012e-03
    outer loop
      vertex 2.237585e+01 9.227175e+01 -1.206144e+02
      vertex -1.984736e+01 9.238081e+01 -1.494571e+02
      vertex -2.237633e+01 9.227169e+01 -1.206148e+02
    endloop
  endfacet
  facet normal -1.329329e-02 9.963054e-01 -8.484543e-02
    outer loop
      vertex 1.809716e+01 9.786036e+01 -6.133057e+01
      vertex -2.237633e+01 9.227169e+01 -1.206148e+02
      vertex -1.813741e+01 9.780805e+01 -5.626782e+01
    endloop
  endfacet
  facet normal -5.222089e-07 9.955861e-01 -9.385262e-02
    outer loop
      vertex 1.809716e+01 9.786036e+01 -6.133057e+01
      vertex 2.237585e+01 9.227175e+01 -1.206144e+02
      vertex -2.237633e+01 9.227169e+01 -1.206148e+02
    endloop
  endfacet
  facet normal 1.475674e-03 9.999976e-01 1.620690e-03
    outer loop
      vertex 2.019619e+01 9.232166e+01 -1.494205e+02
      vertex -1.984736e+01 9.238081e+01 -1.494571e+02
      vertex 2.237585e+01 9.227175e+01 -1.206144e+02
    endloop
  endfacet
  facet normal -3.733501e-01 9.244733e-01 -7.719311e-02
    outer loop
      vertex -3.250000e+01 9.617002e+01 -6.419233e+00
      vertex -1.813741e+01 9.780805e+01 -5.626782e+01
      vertex -5.603339e+01 8.218888e+01 -6.003806e+01
    endloop
  endfacet
  facet normal 1.712264e-01 9.324061e-01 -3.182771e-01
    outer loop
      vertex -3.250000e+01 9.617002e+01 -6.419233e+00
      vertex -5.603339e+01 8.218888e+01 -6.003806e+01
      vertex -4.279053e+01 9.621203e+01 -1.183226e+01
    endloop
  endfacet
  facet normal -3.590126e-18 9.994605e-01 3.284225e-02
    outer loop
      vertex 3.250000e+01 9.617002e+01 -6.419233e+00
      vertex -1.813741e+01 9.780805e+01 -5.626782e+01
      vertex -3.250000e+01 9.617002e+01 -6.419233e+00
    endloop
  endfacet
  facet normal 2.754906e-03 9.995447e-01 3.004651e-02
    outer loop
      vertex 3.250000e+01 9.617002e+01 -6.419233e+00
      vertex 1.809716e+01 9.786036e+01 -6.133057e+01
      vertex -1.813741e+01 9.780805e+01 -5.626782e+01
    endloop
  endfacet
  facet normal -8.017909e-17 7.215313e-01 6.923818e-01
    outer loop
      vertex 1.944496e+01 6.596276e+01 2.505976e+01
      vertex 3.250000e+01 9.617002e+01 -6.419233e+00
      vertex -3.250000e+01 9.617002e+01 -6.419233e+00
    endloop
  endfacet
  facet normal 1.123003e-06 7.215322e-01 6.923809e-01
    outer loop
      vertex 1.944496e+01 6.596276e+01 2.505976e+01
      vertex -3.250000e+01 9.617002e+01 -6.419233e+00
      vertex -1.944492e+01 6.596266e+01 2.505993e+01
    endloop
  endfacet
  facet normal 4.827183e-01 -8.627602e-01 -1.504260e-01
    outer loop
      vertex 6.499658e+01 -9.013982e+01 -1.224013e+02
      vertex 2.801367e+01 -1.103039e+02 -1.254299e+02
      vertex 2.393962e+01 -1.026610e+02 -1.823389e+02
    endloop
  endfacet
  facet normal 4.417363e-01 -8.970430e-01 -1.352109e-02
    outer loop
      vertex 6.815428e+01 -9.150699e+01 -6.108970e+01
      vertex 2.803810e+01 -1.112653e+02 -6.084462e+01
      vertex 2.801367e+01 -1.103039e+02 -1.254299e+02
    endloop
  endfacet
  facet normal 4.810217e-01 -8.755888e-01 -4.429833e-02
    outer loop
      vertex 6.815428e+01 -9.150699e+01 -6.108970e+01
      vertex 2.801367e+01 -1.103039e+02 -1.254299e+02
      vertex 6.499658e+01 -9.013982e+01 -1.224013e+02
    endloop
  endfacet
  facet normal 6.754523e-01 -6.702764e-01 -3.073984e-01
    outer loop
      vertex 7.302543e+01 -6.278778e+01 -1.614245e+02
      vertex 2.393962e+01 -1.026610e+02 -1.823389e+02
      vertex 4.029180e+01 -8.603691e+01 -1.826565e+02
    endloop
  endfacet
  facet normal 3.538918e-01 5.409979e-02 -9.337204e-01
    outer loop
      vertex 7.302543e+01 -6.278778e+01 -1.614245e+02
      vertex 5.513423e+01 -9.039244e+01 -1.698049e+02
      vertex 2.393962e+01 -1.026610e+02 -1.823389e+02
    endloop
  endfacet
  facet normal 3.914142e-01 -9.170253e-01 -7.654702e-02
    outer loop
      vertex 6.499658e+01 -9.013982e+01 -1.224013e+02
      vertex 2.393962e+01 -1.026610e+02 -1.823389e+02
      vertex 5.513423e+01 -9.039244e+01 -1.698049e+02
    endloop
  endfacet
  facet normal -1.126745e-01 4.097606e-01 -9.052075e-01
    outer loop
      vertex 7.907394e+01 -9.248080e+00 -1.527238e+02
      vertex 4.029180e+01 -8.603691e+01 -1.826565e+02
      vertex 7.090330e+01 -1.032303e+01 -1.521934e+02
    endloop
  endfacet
  facet normal 4.997808e-01 8.363856e-02 -8.621042e-01
    outer loop
      vertex 7.907394e+01 -9.248080e+00 -1.527238e+02
      vertex 7.302543e+01 -6.278778e+01 -1.614245e+02
      vertex 4.029180e+01 -8.603691e+01 -1.826565e+02
    endloop
  endfacet
  facet normal 3.929796e-01 -9.077842e-01 1.466113e-01
    outer loop
      vertex 6.796561e+01 -8.522149e+01 -6.609452e+00
      vertex 2.340600e+01 -1.027048e+02 4.576083e+00
      vertex 2.803810e+01 -1.112653e+02 -6.084462e+01
    endloop
  endfacet
  facet normal 4.399407e-01 -8.919344e-01 1.044278e-01
    outer loop
      vertex 6.796561e+01 -8.522149e+01 -6.609452e+00
      vertex 2.803810e+01 -1.112653e+02 -6.084462e+01
      vertex 6.815428e+01 -9.150699e+01 -6.108970e+01
    endloop
  endfacet
  facet normal 2.800951e-01 -7.723809e-01 5.700653e-01
    outer loop
      vertex 5.910963e+01 -7.184937e+01 2.883953e+01
      vertex 2.138592e+01 -8.232874e+01 3.317617e+01
      vertex 2.340600e+01 -1.027048e+02 4.576083e+00
    endloop
  endfacet
  facet normal 4.204990e-01 -8.092163e-01 4.103043e-01
    outer loop
      vertex 5.910963e+01 -7.184937e+01 2.883953e+01
      vertex 2.340600e+01 -1.027048e+02 4.576083e+00
      vertex 6.796561e+01 -8.522149e+01 -6.609452e+00
    endloop
  endfacet
  facet normal 8.772579e-02 -7.225509e-01 6.857291e-01
    outer loop
      vertex 6.896714e+01 -4.983118e+01 6.133166e+01
      vertex 5.420771e+01 -5.023703e+01 6.279220e+01
      vertex 2.138592e+01 -8.232874e+01 3.317617e+01
    endloop
  endfacet
  facet normal 2.857391e-01 -8.313467e-01 4.766716e-01
    outer loop
      vertex 5.910963e+01 -7.184937e+01 2.883953e+01
      vertex 6.896714e+01 -4.983118e+01 6.133166e+01
      vertex 2.138592e+01 -8.232874e+01 3.317617e+01
    endloop
  endfacet
  facet normal 1.547457e-01 2.852947e-01 9.458650e-01
    outer loop
      vertex 9.135069e+01 1.188725e+00 4.120433e+01
      vertex 3.250000e+01 7.557371e+00 4.891151e+01
      vertex 5.420771e+01 -5.023703e+01 6.279220e+01
    endloop
  endfacet
  facet normal 8.374076e-02 3.336802e-01 9.389595e-01
    outer loop
      vertex 9.135069e+01 1.188725e+00 4.120433e+01
      vertex 5.420771e+01 -5.023703e+01 6.279220e+01
      vertex 6.896714e+01 -4.983118e+01 6.133166e+01
    endloop
  endfacet
  facet normal 2.799077e-01 9.592995e-02 -9.552220e-01
    outer loop
      vertex 6.787919e+01 6.038843e+01 -1.459782e+02
      vertex 7.090330e+01 -1.032303e+01 -1.521934e+02
      vertex 2.943246e+01 8.025126e+01 -1.552494e+02
    endloop
  endfacet
  facet normal -7.556732e-02 8.409956e-02 -9.935879e-01
    outer loop
      vertex 6.787919e+01 6.038843e+01 -1.459782e+02
      vertex 7.907394e+01 -9.248080e+00 -1.527238e+02
      vertex 7.090330e+01 -1.032303e+01 -1.521934e+02
    endloop
  endfacet
  facet normal 1.494135e-01 2.387164e-01 9.595260e-01
    outer loop
      vertex 6.578220e+01 4.087212e+01 3.544071e+01
      vertex 2.854226e+01 5.323374e+01 3.816417e+01
      vertex 3.250000e+01 7.557371e+00 4.891151e+01
    endloop
  endfacet
  facet normal 1.513160e-01 2.368793e-01 9.596831e-01
    outer loop
      vertex 6.578220e+01 4.087212e+01 3.544071e+01
      vertex 3.250000e+01 7.557371e+00 4.891151e+01
      vertex 9.135069e+01 1.188725e+00 4.120433e+01
    endloop
  endfacet
  facet normal 3.477825e-01 6.099728e-01 -7.120257e-01
    outer loop
      vertex 5.164552e+01 8.183869e+01 -1.430398e+02
      vertex 2.943246e+01 8.025126e+01 -1.552494e+02
      vertex 2.019619e+01 9.232166e+01 -1.494205e+02
    endloop
  endfacet
  facet normal 4.130516e-01 4.230763e-01 -8.064706e-01
    outer loop
      vertex 5.164552e+01 8.183869e+01 -1.430398e+02
      vertex 6.787919e+01 6.038843e+01 -1.459782e+02
      vertex 2.943246e+01 8.025126e+01 -1.552494e+02
    endloop
  endfacet
  facet normal 1.152159e-06 7.173064e-01 6.967579e-01
    outer loop
      vertex 1.944496e+01 6.596276e+01 2.505976e+01
      vertex -1.944492e+01 6.596266e+01 2.505993e+01
      vertex 2.854226e+01 5.323374e+01 3.816417e+01
    endloop
  endfacet
  facet normal 2.509291e-01 7.756097e-01 5.791926e-01
    outer loop
      vertex 1.944496e+01 6.596276e+01 2.505976e+01
      vertex 2.854226e+01 5.323374e+01 3.816417e+01
      vertex 3.356349e+01 7.544148e+01 6.249892e+00
    endloop
  endfacet
  facet normal 2.950732e-01 7.618892e-01 5.765905e-01
    outer loop
      vertex 6.578220e+01 4.087212e+01 3.544071e+01
      vertex 3.356349e+01 7.544148e+01 6.249892e+00
      vertex 2.854226e+01 5.323374e+01 3.816417e+01
    endloop
  endfacet
  facet normal 3.637327e-01 9.311430e-01 -2.590941e-02
    outer loop
      vertex 5.969616e+01 7.716178e+01 -1.397167e+02
      vertex 2.019619e+01 9.232166e+01 -1.494205e+02
      vertex 2.237585e+01 9.227175e+01 -1.206144e+02
    endloop
  endfacet
  facet normal 3.828584e-01 9.219034e-01 -5.927461e-02
    outer loop
      vertex 5.603334e+01 8.218890e+01 -6.003817e+01
      vertex 2.237585e+01 9.227175e+01 -1.206144e+02
      vertex 1.809716e+01 9.786036e+01 -6.133057e+01
    endloop
  endfacet
  facet normal 3.561661e-01 9.334547e-01 -4.252105e-02
    outer loop
      vertex 5.603334e+01 8.218890e+01 -6.003817e+01
      vertex 5.969616e+01 7.716178e+01 -1.397167e+02
      vertex 2.237585e+01 9.227175e+01 -1.206144e+02
    endloop
  endfacet
  facet normal 6.065181e-02 6.454130e-01 7.614220e-01
    outer loop
      vertex 5.164552e+01 8.183869e+01 -1.430398e+02
      vertex 2.019619e+01 9.232166e+01 -1.494205e+02
      vertex 5.969616e+01 7.716178e+01 -1.397167e+02
    endloop
  endfacet
  facet normal 1.071379e-02 9.995516e-01 2.795917e-02
    outer loop
      vertex 4.283018e+01 9.621203e+01 -1.187948e+01
      vertex 1.809716e+01 9.786036e+01 -6.133057e+01
      vertex 3.250000e+01 9.617002e+01 -6.419233e+00
    endloop
  endfacet
  facet normal 3.815223e-01 9.103232e-01 -1.604753e-01
    outer loop
      vertex 4.283018e+01 9.621203e+01 -1.187948e+01
      vertex 5.603334e+01 8.218890e+01 -6.003817e+01
      vertex 1.809716e+01 9.786036e+01 -6.133057e+01
    endloop
  endfacet
  facet normal 5.973782e-01 4.403135e-01 6.702711e-01
    outer loop
      vertex 1.944496e+01 6.596276e+01 2.505976e+01
      vertex 3.356349e+01 7.544148e+01 6.249892e+00
      vertex 3.250000e+01 9.617002e+01 -6.419233e+00
    endloop
  endfacet
  facet normal 4.053274e-01 4.917911e-01 7.706175e-01
    outer loop
      vertex 4.283018e+01 9.621203e+01 -1.187948e+01
      vertex 3.250000e+01 9.617002e+01 -6.419233e+00
      vertex 3.356349e+01 7.544148e+01 6.249892e+00
    endloop
  endfacet
  facet normal 4.212062e-01 7.813841e-01 4.604610e-01
    outer loop
      vertex 8.020668e+01 5.377858e+01 3.441774e-01
      vertex 3.356349e+01 7.544148e+01 6.249892e+00
      vertex 6.578220e+01 4.087212e+01 3.544071e+01
    endloop
  endfacet
  facet normal 3.429163e-01 5.262080e-01 7.781475e-01
    outer loop
      vertex 4.283018e+01 9.621203e+01 -1.187948e+01
      vertex 3.356349e+01 7.544148e+01 6.249892e+00
      vertex 8.020668e+01 5.377858e+01 3.441774e-01
    endloop
  endfacet
  facet normal 8.352658e-01 -4.421087e-01 -3.269113e-01
    outer loop
      vertex 7.302543e+01 -6.278778e+01 -1.614245e+02
      vertex 9.014945e+01 -5.670079e+01 -1.259042e+02
      vertex 5.513423e+01 -9.039244e+01 -1.698049e+02
    endloop
  endfacet
  facet normal 7.808719e-01 -6.040539e-01 -1.592418e-01
    outer loop
      vertex 6.499658e+01 -9.013982e+01 -1.224013e+02
      vertex 5.513423e+01 -9.039244e+01 -1.698049e+02
      vertex 9.014945e+01 -5.670079e+01 -1.259042e+02
    endloop
  endfacet
  facet normal 9.019781e-01 -1.240594e-01 -4.135757e-01
    outer loop
      vertex 9.840590e+01 6.519970e+00 -1.268617e+02
      vertex 9.014945e+01 -5.670079e+01 -1.259042e+02
      vertex 7.302543e+01 -6.278778e+01 -1.614245e+02
    endloop
  endfacet
  facet normal 7.926897e-01 -6.045141e-01 -7.877645e-02
    outer loop
      vertex 9.511982e+01 -5.887917e+01 -5.917333e+01
      vertex 6.499658e+01 -9.013982e+01 -1.224013e+02
      vertex 9.014945e+01 -5.670079e+01 -1.259042e+02
    endloop
  endfacet
  facet normal 9.187718e-01 -3.863804e-01 -8.104673e-02
    outer loop
      vertex 1.002000e+02 -4.713411e+01 -5.757547e+01
      vertex 9.511982e+01 -5.887917e+01 -5.917333e+01
      vertex 9.014945e+01 -5.670079e+01 -1.259042e+02
    endloop
  endfacet
  facet normal 9.311309e-01 -1.267817e-01 -3.419381e-01
    outer loop
      vertex 1.006369e+02 2.179547e+00 -1.191771e+02
      vertex 9.014945e+01 -5.670079e+01 -1.259042e+02
      vertex 9.840590e+01 6.519970e+00 -1.268617e+02
    endloop
  endfacet
  facet normal 8.688409e-01 -9.933957e-02 -4.850227e-01
    outer loop
      vertex 1.006369e+02 2.179547e+00 -1.191771e+02
      vertex 9.682184e+01 -4.159296e+01 -1.170460e+02
      vertex 9.014945e+01 -5.670079e+01 -1.259042e+02
    endloop
  endfacet
  facet normal 9.290597e-01 -3.597246e-01 -8.629205e-02
    outer loop
      vertex 1.002000e+02 -4.713411e+01 -5.757547e+01
      vertex 9.014945e+01 -5.670079e+01 -1.259042e+02
      vertex 9.682184e+01 -4.159296e+01 -1.170460e+02
    endloop
  endfacet
  facet normal 7.987275e-01 7.538918e-03 -6.016457e-01
    outer loop
      vertex 7.907394e+01 -9.248080e+00 -1.527238e+02
      vertex 9.840590e+01 6.519970e+00 -1.268617e+02
      vertex 7.302543e+01 -6.278778e+01 -1.614245e+02
    endloop
  endfacet
  facet normal 7.712534e-01 -6.342451e-01 -5.386435e-02
    outer loop
      vertex 6.815428e+01 -9.150699e+01 -6.108970e+01
      vertex 6.499658e+01 -9.013982e+01 -1.224013e+02
      vertex 9.511982e+01 -5.887917e+01 -5.917333e+01
    endloop
  endfacet
  facet normal 7.686820e-01 -6.379807e-01 4.592023e-02
    outer loop
      vertex 8.692434e+01 -6.398205e+01 7.119322e+00
      vertex 6.815428e+01 -9.150699e+01 -6.108970e+01
      vertex 9.511982e+01 -5.887917e+01 -5.917333e+01
    endloop
  endfacet
  facet normal -1.716474e-01 -9.804024e-01 -9.668663e-02
    outer loop
      vertex 9.318927e+01 -6.278263e+01 -1.616494e+01
      vertex 8.692434e+01 -6.398205e+01 7.119322e+00
      vertex 9.511982e+01 -5.887917e+01 -5.917333e+01
    endloop
  endfacet
  facet normal 9.175557e-01 -3.975746e-01 5.102929e-03
    outer loop
      vertex 9.318927e+01 -6.278263e+01 -1.616494e+01
      vertex 9.511982e+01 -5.887917e+01 -5.917333e+01
      vertex 1.002000e+02 -4.713411e+01 -5.757547e+01
    endloop
  endfacet
  facet normal 7.164349e-01 -6.927699e-01 8.240734e-02
    outer loop
      vertex 6.796561e+01 -8.522149e+01 -6.609452e+00
      vertex 6.815428e+01 -9.150699e+01 -6.108970e+01
      vertex 8.692434e+01 -6.398205e+01 7.119322e+00
    endloop
  endfacet
  facet normal 5.561379e-01 -7.404170e-01 3.774828e-01
    outer loop
      vertex 6.896714e+01 -4.983118e+01 6.133166e+01
      vertex 6.796561e+01 -8.522149e+01 -6.609452e+00
      vertex 8.692434e+01 -6.398205e+01 7.119322e+00
    endloop
  endfacet
  facet normal 8.975447e-01 -2.506743e-01 3.627338e-01
    outer loop
      vertex 9.135069e+01 1.188725e+00 4.120433e+01
      vertex 6.896714e+01 -4.983118e+01 6.133166e+01
      vertex 8.692434e+01 -6.398205e+01 7.119322e+00
    endloop
  endfacet
  facet normal 9.597456e-01 7.620332e-02 -2.703359e-01
    outer loop
      vertex 8.749202e+01 1.643722e+01 3.180360e+01
      vertex 9.135069e+01 1.188725e+00 4.120433e+01
      vertex 8.692434e+01 -6.398205e+01 7.119322e+00
    endloop
  endfacet
  facet normal -9.092994e-01 -1.162305e-01 3.995810e-01
    outer loop
      vertex 9.145536e+01 7.914692e+00 3.834367e+01
      vertex 8.749202e+01 1.643722e+01 3.180360e+01
      vertex 8.692434e+01 -6.398205e+01 7.119322e+00
    endloop
  endfacet
  facet normal 9.540899e-01 -1.678604e-01 2.480633e-01
    outer loop
      vertex 9.318927e+01 -6.278263e+01 -1.616494e+01
      vertex 9.145536e+01 7.914692e+00 3.834367e+01
      vertex 8.692434e+01 -6.398205e+01 7.119322e+00
    endloop
  endfacet
  facet normal 4.350813e-01 -8.011607e-01 4.109085e-01
    outer loop
      vertex 5.910963e+01 -7.184937e+01 2.883953e+01
      vertex 6.796561e+01 -8.522149e+01 -6.609452e+00
      vertex 6.896714e+01 -4.983118e+01 6.133166e+01
    endloop
  endfacet
  facet normal 7.142695e-01 2.161002e-01 -6.656724e-01
    outer loop
      vertex 8.052994e+01 5.863624e+01 -1.291239e+02
      vertex 9.840590e+01 6.519970e+00 -1.268617e+02
      vertex 7.907394e+01 -9.248080e+00 -1.527238e+02
    endloop
  endfacet
  facet normal 7.810483e-01 2.429291e-01 -5.752816e-01
    outer loop
      vertex 9.261742e+01 4.061369e+01 -1.203235e+02
      vertex 9.840590e+01 6.519970e+00 -1.268617e+02
      vertex 8.052994e+01 5.863624e+01 -1.291239e+02
    endloop
  endfacet
  facet normal 9.657646e-01 1.964583e-01 -1.694190e-01
    outer loop
      vertex 9.261742e+01 4.061369e+01 -1.203235e+02
      vertex 1.006369e+02 2.179547e+00 -1.191771e+02
      vertex 9.840590e+01 6.519970e+00 -1.268617e+02
    endloop
  endfacet
  facet normal 7.952239e-01 1.838092e-01 -5.777829e-01
    outer loop
      vertex 6.787919e+01 6.038843e+01 -1.459782e+02
      vertex 8.052994e+01 5.863624e+01 -1.291239e+02
      vertex 7.907394e+01 -9.248080e+00 -1.527238e+02
    endloop
  endfacet
  facet normal 6.630866e-01 5.071924e-01 5.505197e-01
    outer loop
      vertex 6.578220e+01 4.087212e+01 3.544071e+01
      vertex 9.135069e+01 1.188725e+00 4.120433e+01
      vertex 8.749202e+01 1.643722e+01 3.180360e+01
    endloop
  endfacet
  facet normal 6.893366e-01 5.406919e-01 4.821486e-01
    outer loop
      vertex 8.020668e+01 5.377858e+01 3.441774e-01
      vertex 6.578220e+01 4.087212e+01 3.544071e+01
      vertex 8.749202e+01 1.643722e+01 3.180360e+01
    endloop
  endfacet
  facet normal 6.880731e-01 5.413463e-01 4.832180e-01
    outer loop
      vertex 9.311362e+01 4.644843e+01 -9.822600e+00
      vertex 8.020668e+01 5.377858e+01 3.441774e-01
      vertex 8.749202e+01 1.643722e+01 3.180360e+01
    endloop
  endfacet
  facet normal 5.178617e-01 6.592150e-01 5.452107e-01
    outer loop
      vertex 9.311362e+01 4.644843e+01 -9.822600e+00
      vertex 8.749202e+01 1.643722e+01 3.180360e+01
      vertex 9.145536e+01 7.914692e+00 3.834367e+01
    endloop
  endfacet
  facet normal 7.070059e-01 5.227337e-01 -4.763319e-01
    outer loop
      vertex 5.969616e+01 7.716178e+01 -1.397167e+02
      vertex 8.052994e+01 5.863624e+01 -1.291239e+02
      vertex 6.787919e+01 6.038843e+01 -1.459782e+02
    endloop
  endfacet
  facet normal 6.689779e-01 7.431072e-01 -1.613159e-02
    outer loop
      vertex 5.603334e+01 8.218890e+01 -6.003817e+01
      vertex 8.052994e+01 5.863624e+01 -1.291239e+02
      vertex 5.969616e+01 7.716178e+01 -1.397167e+02
    endloop
  endfacet
  facet normal 6.513391e-01 7.582861e-01 -2.756075e-02
    outer loop
      vertex 8.062950e+01 6.111479e+01 -5.857825e+01
      vertex 8.052994e+01 5.863624e+01 -1.291239e+02
      vertex 5.603334e+01 8.218890e+01 -6.003817e+01
    endloop
  endfacet
  facet normal 7.992432e-01 6.005966e-01 -2.222923e-02
    outer loop
      vertex 1.012439e+02 3.376577e+01 -5.631845e+01
      vertex 8.052994e+01 5.863624e+01 -1.291239e+02
      vertex 8.062950e+01 6.111479e+01 -5.857825e+01
    endloop
  endfacet
  facet normal 8.416322e-01 5.371436e-01 -5.596504e-02
    outer loop
      vertex 9.261742e+01 4.061369e+01 -1.203235e+02
      vertex 8.052994e+01 5.863624e+01 -1.291239e+02
      vertex 1.012439e+02 3.376577e+01 -5.631845e+01
    endloop
  endfacet
  facet normal 5.653861e-01 5.160341e-01 -6.434651e-01
    outer loop
      vertex 5.164552e+01 8.183869e+01 -1.430398e+02
      vertex 5.969616e+01 7.716178e+01 -1.397167e+02
      vertex 6.787919e+01 6.038843e+01 -1.459782e+02
    endloop
  endfacet
  facet normal 7.345672e-01 6.726707e-01 8.902283e-02
    outer loop
      vertex 4.283018e+01 9.621203e+01 -1.187948e+01
      vertex 8.020668e+01 5.377858e+01 3.441774e-01
      vertex 8.062950e+01 6.111479e+01 -5.857825e+01
    endloop
  endfacet
  facet normal 5.533067e-01 8.260993e-01 1.068250e-01
    outer loop
      vertex 9.311362e+01 4.644843e+01 -9.822600e+00
      vertex 8.062950e+01 6.111479e+01 -5.857825e+01
      vertex 8.020668e+01 5.377858e+01 3.441774e-01
    endloop
  endfacet
  facet normal 6.515054e-01 7.574832e-01 -4.195202e-02
    outer loop
      vertex 4.283018e+01 9.621203e+01 -1.187948e+01
      vertex 8.062950e+01 6.111479e+01 -5.857825e+01
      vertex 5.603334e+01 8.218890e+01 -6.003817e+01
    endloop
  endfacet
  facet normal 7.992812e-01 6.004766e-01 -2.402839e-02
    outer loop
      vertex 9.311362e+01 4.644843e+01 -9.822600e+00
      vertex 1.012439e+02 3.376577e+01 -5.631845e+01
      vertex 8.062950e+01 6.111479e+01 -5.857825e+01
    endloop
  endfacet
  facet normal 9.962039e-01 -8.698733e-02 -3.321612e-03
    outer loop
      vertex 1.006369e+02 2.179547e+00 -1.191771e+02
      vertex 1.015716e+02 1.082134e+01 -6.515562e+01
      vertex 9.682184e+01 -4.159296e+01 -1.170460e+02
    endloop
  endfacet
  facet normal 9.977280e-01 -3.140777e-02 -5.960189e-02
    outer loop
      vertex 1.002000e+02 -4.713411e+01 -5.757547e+01
      vertex 9.682184e+01 -4.159296e+01 -1.170460e+02
      vertex 1.015716e+02 1.082134e+01 -6.515562e+01
    endloop
  endfacet
  facet normal 9.995334e-01 2.230970e-02 -2.086341e-02
    outer loop
      vertex 1.012439e+02 3.376577e+01 -5.631845e+01
      vertex 1.015716e+02 1.082134e+01 -6.515562e+01
      vertex 1.006369e+02 2.179547e+00 -1.191771e+02
    endloop
  endfacet
  facet normal 9.952279e-01 -1.087006e-02 9.697049e-02
    outer loop
      vertex 9.145536e+01 7.914692e+00 3.834367e+01
      vertex 1.002000e+02 -4.713411e+01 -5.757547e+01
      vertex 1.015716e+02 1.082134e+01 -6.515562e+01
    endloop
  endfacet
  facet normal 9.917353e-01 8.134291e-02 9.921880e-02
    outer loop
      vertex 9.311362e+01 4.644843e+01 -9.822600e+00
      vertex 9.145536e+01 7.914692e+00 3.834367e+01
      vertex 1.015716e+02 1.082134e+01 -6.515562e+01
    endloop
  endfacet
  facet normal 9.805755e-01 -5.814604e-02 1.873252e-01
    outer loop
      vertex 9.311362e+01 4.644843e+01 -9.822600e+00
      vertex 1.015716e+02 1.082134e+01 -6.515562e+01
      vertex 1.012439e+02 3.376577e+01 -5.631845e+01
    endloop
  endfacet
  facet normal 9.736442e-01 1.998795e-01 -1.098414e-01
    outer loop
      vertex 9.261742e+01 4.061369e+01 -1.203235e+02
      vertex 1.012439e+02 3.376577e+01 -5.631845e+01
      vertex 1.006369e+02 2.179547e+00 -1.191771e+02
    endloop
  endfacet
  facet normal 9.873157e-01 -8.104781e-02 1.365248e-01
    outer loop
      vertex 9.318927e+01 -6.278263e+01 -1.616494e+01
      vertex 1.002000e+02 -4.713411e+01 -5.757547e+01
      vertex 9.145536e+01 7.914692e+00 3.834367e+01
    endloop
  endfacet
endsolid SIM_ICUB3_CHEST
