solid SIM_ICUB3_R_WRIST_1
  facet normal -8.423224e-01 -2.405888e-01 4.822966e-01
    outer loop
      vertex 2.197496e+02 5.302215e+01 -3.278239e+02
      vertex 2.186189e+02 5.909695e+01 -3.267683e+02
      vertex 2.184242e+02 4.245563e+01 -3.354097e+02
    endloop
  endfacet
  facet normal -9.602731e-01 -1.196733e-01 2.520990e-01
    outer loop
      vertex 2.164265e+02 5.893382e+01 -3.351970e+02
      vertex 2.184242e+02 4.245563e+01 -3.354097e+02
      vertex 2.186189e+02 5.909695e+01 -3.267683e+02
    endloop
  endfacet
  facet normal -7.477557e-01 -3.227677e-01 5.802435e-01
    outer loop
      vertex 2.305556e+02 3.252572e+01 -3.252997e+02
      vertex 2.197496e+02 5.302215e+01 -3.278239e+02
      vertex 2.184242e+02 4.245563e+01 -3.354097e+02
    endloop
  endfacet
  facet normal 2.640695e-02 1.609964e-02 -9.995216e-01
    outer loop
      vertex 2.240414e+02 6.606209e+01 -3.348810e+02
      vertex 2.184242e+02 4.245563e+01 -3.354097e+02
      vertex 2.164265e+02 5.893382e+01 -3.351970e+02
    endloop
  endfacet
  facet normal -7.590169e-01 -4.845978e-01 4.348084e-01
    outer loop
      vertex 2.256671e+02 2.820327e+01 -3.386507e+02
      vertex 2.305556e+02 3.252572e+01 -3.252997e+02
      vertex 2.184242e+02 4.245563e+01 -3.354097e+02
    endloop
  endfacet
  facet normal -2.639945e-01 8.433373e-02 -9.608302e-01
    outer loop
      vertex 2.240414e+02 6.606209e+01 -3.348810e+02
      vertex 2.256671e+02 2.820327e+01 -3.386507e+02
      vertex 2.184242e+02 4.245563e+01 -3.354097e+02
    endloop
  endfacet
  facet normal -4.013428e-01 -2.288131e-01 8.868870e-01
    outer loop
      vertex 2.254263e+02 6.082881e+01 -3.232409e+02
      vertex 2.186189e+02 5.909695e+01 -3.267683e+02
      vertex 2.197496e+02 5.302215e+01 -3.278239e+02
    endloop
  endfacet
  facet normal -2.714473e-01 9.610471e-01 5.200813e-02
    outer loop
      vertex 2.254263e+02 6.082881e+01 -3.232409e+02
      vertex 2.164265e+02 5.893382e+01 -3.351970e+02
      vertex 2.186189e+02 5.909695e+01 -3.267683e+02
    endloop
  endfacet
  facet normal -4.870593e-01 -1.508425e-01 8.602440e-01
    outer loop
      vertex 2.254263e+02 6.082881e+01 -3.232409e+02
      vertex 2.197496e+02 5.302215e+01 -3.278239e+02
      vertex 2.305556e+02 3.252572e+01 -3.252997e+02
    endloop
  endfacet
  facet normal -6.413105e-01 6.683852e-01 3.768050e-01
    outer loop
      vertex 2.240414e+02 6.606209e+01 -3.348810e+02
      vertex 2.164265e+02 5.893382e+01 -3.351970e+02
      vertex 2.254263e+02 6.082881e+01 -3.232409e+02
    endloop
  endfacet
  facet normal -4.428202e-01 -7.927856e-01 4.188094e-01
    outer loop
      vertex 2.342236e+02 2.515803e+01 -3.353681e+02
      vertex 2.305556e+02 3.252572e+01 -3.252997e+02
      vertex 2.256671e+02 2.820327e+01 -3.386507e+02
    endloop
  endfacet
  facet normal 1.936329e-01 -3.622374e-02 9.804051e-01
    outer loop
      vertex 2.351201e+02 5.992631e+01 -3.251888e+02
      vertex 2.254263e+02 6.082881e+01 -3.232409e+02
      vertex 2.305556e+02 3.252572e+01 -3.252997e+02
    endloop
  endfacet
  facet normal -8.281752e-01 2.636086e-01 -4.946073e-01
    outer loop
      vertex 2.299028e+02 2.864812e+01 -3.262733e+02
      vertex 2.305556e+02 3.252572e+01 -3.252997e+02
      vertex 2.342236e+02 2.515803e+01 -3.353681e+02
    endloop
  endfacet
  facet normal 1.086110e-01 -2.592469e-01 9.596847e-01
    outer loop
      vertex 2.402077e+02 3.157899e+01 -3.266478e+02
      vertex 2.305556e+02 3.252572e+01 -3.252997e+02
      vertex 2.299028e+02 2.864812e+01 -3.262733e+02
    endloop
  endfacet
  facet normal 1.357174e-01 -2.661636e-02 9.903900e-01
    outer loop
      vertex 2.351201e+02 5.992631e+01 -3.251888e+02
      vertex 2.305556e+02 3.252572e+01 -3.252997e+02
      vertex 2.402077e+02 3.157899e+01 -3.266478e+02
    endloop
  endfacet
  facet normal -6.886887e-01 4.249624e-02 -7.238107e-01
    outer loop
      vertex 2.319496e+02 3.021313e+01 -3.445103e+02
      vertex 2.256671e+02 2.820327e+01 -3.386507e+02
      vertex 2.240414e+02 6.606209e+01 -3.348810e+02
    endloop
  endfacet
  facet normal 2.042166e-01 -3.927530e-01 -8.966832e-01
    outer loop
      vertex 2.440998e+02 3.321958e+01 -3.366499e+02
      vertex 2.342236e+02 2.515803e+01 -3.353681e+02
      vertex 2.256671e+02 2.820327e+01 -3.386507e+02
    endloop
  endfacet
  facet normal 2.667968e-01 -9.627400e-01 -4.417211e-02
    outer loop
      vertex 2.319496e+02 3.021313e+01 -3.445103e+02
      vertex 2.440998e+02 3.321958e+01 -3.366499e+02
      vertex 2.256671e+02 2.820327e+01 -3.386507e+02
    endloop
  endfacet
  facet normal 1.625027e-01 9.070259e-01 3.884544e-01
    outer loop
      vertex 2.351201e+02 5.992631e+01 -3.251888e+02
      vertex 2.240414e+02 6.606209e+01 -3.348810e+02
      vertex 2.254263e+02 6.082881e+01 -3.232409e+02
    endloop
  endfacet
  facet normal -9.778977e-01 -2.057841e-01 -3.699844e-02
    outer loop
      vertex 2.252405e+02 6.185528e+01 -3.431785e+02
      vertex 2.319496e+02 3.021313e+01 -3.445103e+02
      vertex 2.240414e+02 6.606209e+01 -3.348810e+02
    endloop
  endfacet
  facet normal 2.608201e-01 8.757248e-01 -4.062992e-01
    outer loop
      vertex 2.378040e+02 6.128766e+01 -3.363369e+02
      vertex 2.252405e+02 6.185528e+01 -3.431785e+02
      vertex 2.240414e+02 6.606209e+01 -3.348810e+02
    endloop
  endfacet
  facet normal 3.397843e-01 9.202401e-01 1.941773e-01
    outer loop
      vertex 2.351201e+02 5.992631e+01 -3.251888e+02
      vertex 2.378040e+02 6.128766e+01 -3.363369e+02
      vertex 2.240414e+02 6.606209e+01 -3.348810e+02
    endloop
  endfacet
  facet normal 2.055793e-01 -8.770331e-01 4.342236e-01
    outer loop
      vertex 2.381965e+02 3.095140e+01 -3.255478e+02
      vertex 2.299028e+02 2.864812e+01 -3.262733e+02
      vertex 2.342236e+02 2.515803e+01 -3.353681e+02
    endloop
  endfacet
  facet normal 4.056507e-02 -2.051739e-01 -9.778845e-01
    outer loop
      vertex 2.440998e+02 3.321958e+01 -3.366499e+02
      vertex 2.377803e+02 2.616608e+01 -3.354321e+02
      vertex 2.342236e+02 2.515803e+01 -3.353681e+02
    endloop
  endfacet
  facet normal 2.552515e-01 -8.744238e-01 4.125889e-01
    outer loop
      vertex 2.381965e+02 3.095140e+01 -3.255478e+02
      vertex 2.342236e+02 2.515803e+01 -3.353681e+02
      vertex 2.377803e+02 2.616608e+01 -3.354321e+02
    endloop
  endfacet
  facet normal -2.714473e-01 9.610471e-01 5.200813e-02
    outer loop
      vertex 2.381965e+02 3.095140e+01 -3.255478e+02
      vertex 2.402077e+02 3.157899e+01 -3.266478e+02
      vertex 2.299028e+02 2.864812e+01 -3.262733e+02
    endloop
  endfacet
  facet normal 7.475238e-01 -6.375722e-01 1.863058e-01
    outer loop
      vertex 2.440998e+02 3.321958e+01 -3.366499e+02
      vertex 2.402077e+02 3.157899e+01 -3.266478e+02
      vertex 2.377803e+02 2.616608e+01 -3.354321e+02
    endloop
  endfacet
  facet normal 4.558717e-01 -8.084786e-01 3.722141e-01
    outer loop
      vertex 2.381965e+02 3.095140e+01 -3.255478e+02
      vertex 2.377803e+02 2.616608e+01 -3.354321e+02
      vertex 2.402077e+02 3.157899e+01 -3.266478e+02
    endloop
  endfacet
  facet normal 9.139082e-01 1.444987e-01 3.793308e-01
    outer loop
      vertex 2.351201e+02 5.992631e+01 -3.251888e+02
      vertex 2.402077e+02 3.157899e+01 -3.266478e+02
      vertex 2.440998e+02 3.321958e+01 -3.366499e+02
    endloop
  endfacet
  facet normal 2.714473e-01 -9.610471e-01 -5.200813e-02
    outer loop
      vertex 2.391425e+02 3.219819e+01 -3.436494e+02
      vertex 2.440998e+02 3.321958e+01 -3.366499e+02
      vertex 2.319496e+02 3.021313e+01 -3.445103e+02
    endloop
  endfacet
  facet normal 7.893619e-01 1.835896e-01 -5.858350e-01
    outer loop
      vertex 2.378040e+02 6.128766e+01 -3.363369e+02
      vertex 2.440998e+02 3.321958e+01 -3.366499e+02
      vertex 2.391425e+02 3.219819e+01 -3.436494e+02
    endloop
  endfacet
  facet normal 9.446223e-01 2.090636e-01 2.529450e-01
    outer loop
      vertex 2.351201e+02 5.992631e+01 -3.251888e+02
      vertex 2.440998e+02 3.321958e+01 -3.366499e+02
      vertex 2.378040e+02 6.128766e+01 -3.363369e+02
    endloop
  endfacet
  facet normal 2.795178e-01 9.945967e-02 -9.549752e-01
    outer loop
      vertex 2.316246e+02 6.354779e+01 -3.411336e+02
      vertex 2.319496e+02 3.021313e+01 -3.445103e+02
      vertex 2.252405e+02 6.185528e+01 -3.431785e+02
    endloop
  endfacet
  facet normal 9.062724e-02 1.012396e-01 -9.907256e-01
    outer loop
      vertex 2.316246e+02 6.354779e+01 -3.411336e+02
      vertex 2.391425e+02 3.219819e+01 -3.436494e+02
      vertex 2.319496e+02 3.021313e+01 -3.445103e+02
    endloop
  endfacet
  facet normal -3.832234e-01 5.410305e-01 7.486160e-01
    outer loop
      vertex 2.316246e+02 6.354779e+01 -3.411336e+02
      vertex 2.252405e+02 6.185528e+01 -3.431785e+02
      vertex 2.378040e+02 6.128766e+01 -3.363369e+02
    endloop
  endfacet
  facet normal 6.466053e-01 2.138249e-01 -7.322435e-01
    outer loop
      vertex 2.316246e+02 6.354779e+01 -3.411336e+02
      vertex 2.378040e+02 6.128766e+01 -3.363369e+02
      vertex 2.391425e+02 3.219819e+01 -3.436494e+02
    endloop
  endfacet
endsolid SIM_ICUB3_R_WRIST_1
