solid SIM_ICUB3_L_ANKLE_1
  facet normal -9.729599e-01 -2.309739e-01 7.224177e-15
    outer loop
      vertex -9.445000e+01 -2.595000e+01 -8.780822e+02
      vertex -1.036500e+02 1.280430e+01 -8.662573e+02
      vertex -9.445000e+01 -2.595000e+01 -8.866466e+02
    endloop
  endfacet
  facet normal -9.115058e-01 -4.013796e-15 -4.112872e-01
    outer loop
      vertex -9.445000e+01 5.062439e+00 -8.866466e+02
      vertex -9.445000e+01 -2.595000e+01 -8.866466e+02
      vertex -1.036500e+02 1.280430e+01 -8.662573e+02
    endloop
  endfacet
  facet normal 1.822526e-15 -1.000000e+00 3.318571e-15
    outer loop
      vertex -9.250067e+01 -2.595000e+01 -8.780822e+02
      vertex -9.445000e+01 -2.595000e+01 -8.780822e+02
      vertex -9.445000e+01 -2.595000e+01 -8.866466e+02
    endloop
  endfacet
  facet normal -1.937519e-28 -3.665846e-15 -1.000000e+00
    outer loop
      vertex -9.250067e+01 5.062439e+00 -8.866466e+02
      vertex -9.445000e+01 -2.595000e+01 -8.866466e+02
      vertex -9.445000e+01 5.062439e+00 -8.866466e+02
    endloop
  endfacet
  facet normal 3.182802e-15 -1.000000e+00 3.008962e-15
    outer loop
      vertex -8.325503e+01 -2.595000e+01 -8.937655e+02
      vertex -9.250067e+01 -2.595000e+01 -8.780822e+02
      vertex -9.445000e+01 -2.595000e+01 -8.866466e+02
    endloop
  endfacet
  facet normal -5.362934e-01 3.370955e-02 -8.433582e-01
    outer loop
      vertex -9.250067e+01 5.062439e+00 -8.866466e+02
      vertex -8.325503e+01 -2.595000e+01 -8.937655e+02
      vertex -9.445000e+01 -2.595000e+01 -8.866466e+02
    endloop
  endfacet
  facet normal -9.749268e-01 -2.051060e-01 -8.630883e-02
    outer loop
      vertex -1.036500e+02 5.062439e+00 -8.478594e+02
      vertex -1.036500e+02 1.280430e+01 -8.662573e+02
      vertex -9.445000e+01 -2.595000e+01 -8.780822e+02
    endloop
  endfacet
  facet normal -9.175159e-01 -5.187791e-02 -3.943009e-01
    outer loop
      vertex -1.036500e+02 3.350828e+01 -8.689813e+02
      vertex -9.445000e+01 5.062439e+00 -8.866466e+02
      vertex -1.036500e+02 1.280430e+01 -8.662573e+02
    endloop
  endfacet
  facet normal -1.000000e+00 -3.391424e-15 5.524637e-15
    outer loop
      vertex -1.036500e+02 3.350828e+01 -8.689813e+02
      vertex -1.036500e+02 1.280430e+01 -8.662573e+02
      vertex -1.036500e+02 5.062439e+00 -8.478594e+02
    endloop
  endfacet
  facet normal -2.468149e-14 -9.740545e-01 2.263138e-01
    outer loop
      vertex -9.250067e+01 -2.020127e+01 -8.533396e+02
      vertex -9.445000e+01 -2.595000e+01 -8.780822e+02
      vertex -9.250067e+01 -2.595000e+01 -8.780822e+02
    endloop
  endfacet
  facet normal -9.304840e-01 -3.568279e-01 8.290611e-02
    outer loop
      vertex -9.445000e+01 -2.020127e+01 -8.533396e+02
      vertex -1.036500e+02 5.062439e+00 -8.478594e+02
      vertex -9.445000e+01 -2.595000e+01 -8.780822e+02
    endloop
  endfacet
  facet normal -4.166980e-08 -9.740545e-01 2.263138e-01
    outer loop
      vertex -9.250067e+01 -2.020127e+01 -8.533396e+02
      vertex -9.445000e+01 -2.020127e+01 -8.533396e+02
      vertex -9.445000e+01 -2.595000e+01 -8.780822e+02
    endloop
  endfacet
  facet normal -1.921186e-28 -3.634942e-15 -1.000000e+00
    outer loop
      vertex -9.445000e+01 3.633854e+01 -8.866466e+02
      vertex -9.250067e+01 5.062439e+00 -8.866466e+02
      vertex -9.445000e+01 5.062439e+00 -8.866466e+02
    endloop
  endfacet
  facet normal -8.869278e-01 -4.516900e-15 -4.619081e-01
    outer loop
      vertex -1.036500e+02 3.350828e+01 -8.689813e+02
      vertex -9.445000e+01 3.633854e+01 -8.866466e+02
      vertex -9.445000e+01 5.062439e+00 -8.866466e+02
    endloop
  endfacet
  facet normal -8.576219e-01 -9.417365e-02 -5.055847e-01
    outer loop
      vertex -7.994872e+01 -4.539000e+01 -8.957530e+02
      vertex -9.250067e+01 -2.595000e+01 -8.780822e+02
      vertex -8.325503e+01 -2.595000e+01 -8.937655e+02
    endloop
  endfacet
  facet normal -9.407475e-01 -3.303094e-01 7.674475e-02
    outer loop
      vertex -8.553039e+01 -4.595000e+01 -8.787195e+02
      vertex -9.250067e+01 -2.020127e+01 -8.533396e+02
      vertex -9.250067e+01 -2.595000e+01 -8.780822e+02
    endloop
  endfacet
  facet normal -9.020977e-01 -3.046539e-01 -3.056234e-01
    outer loop
      vertex -8.553039e+01 -4.595000e+01 -8.787195e+02
      vertex -9.250067e+01 -2.595000e+01 -8.780822e+02
      vertex -7.994872e+01 -4.539000e+01 -8.957530e+02
    endloop
  endfacet
  facet normal -3.813636e-01 9.732782e-02 -9.192873e-01
    outer loop
      vertex -6.262396e+01 -1.845000e+01 -9.015302e+02
      vertex -8.325503e+01 -2.595000e+01 -8.937655e+02
      vertex -9.250067e+01 5.062439e+00 -8.866466e+02
    endloop
  endfacet
  facet normal -3.493839e-01 3.629812e-02 -9.362763e-01
    outer loop
      vertex -6.250325e+01 -2.620722e+01 -9.015193e+02
      vertex -7.994872e+01 -4.539000e+01 -8.957530e+02
      vertex -8.325503e+01 -2.595000e+01 -8.937655e+02
    endloop
  endfacet
  facet normal -3.500750e-01 -6.765584e-03 -9.366972e-01
    outer loop
      vertex -6.262396e+01 -1.845000e+01 -9.015302e+02
      vertex -6.250325e+01 -2.620722e+01 -9.015193e+02
      vertex -8.325503e+01 -2.595000e+01 -8.937655e+02
    endloop
  endfacet
  facet normal -4.090997e-29 -3.634942e-15 -1.000000e+00
    outer loop
      vertex -9.250067e+01 3.633854e+01 -8.866466e+02
      vertex -8.745000e+01 3.633854e+01 -8.866466e+02
      vertex -9.250067e+01 5.062439e+00 -8.866466e+02
    endloop
  endfacet
  facet normal -4.034084e-01 6.514497e-02 -9.126981e-01
    outer loop
      vertex -6.262396e+01 -1.845000e+01 -9.015302e+02
      vertex -9.250067e+01 5.062439e+00 -8.866466e+02
      vertex -8.745000e+01 3.633854e+01 -8.866466e+02
    endloop
  endfacet
  facet normal -1.589947e-28 -3.634942e-15 -1.000000e+00
    outer loop
      vertex -9.445000e+01 3.633854e+01 -8.866466e+02
      vertex -9.250067e+01 3.633854e+01 -8.866466e+02
      vertex -9.250067e+01 5.062439e+00 -8.866466e+02
    endloop
  endfacet
  facet normal -4.524929e-15 -3.989301e-01 -9.169813e-01
    outer loop
      vertex -6.262396e+01 7.055000e+01 -9.015302e+02
      vertex -8.745000e+01 3.633854e+01 -8.866466e+02
      vertex -9.250067e+01 3.633854e+01 -8.866466e+02
    endloop
  endfacet
  facet normal 7.974622e-01 4.655999e-01 -3.837588e-01
    outer loop
      vertex -7.435000e+01 2.835272e+01 -8.691133e+02
      vertex -6.262396e+01 -1.845000e+01 -9.015302e+02
      vertex -8.745000e+01 3.633854e+01 -8.866466e+02
    endloop
  endfacet
  facet normal 6.732249e-01 -3.387408e-01 -6.572845e-01
    outer loop
      vertex -6.187446e+01 7.055000e+01 -8.780822e+02
      vertex -7.435000e+01 2.835272e+01 -8.691133e+02
      vertex -8.745000e+01 3.633854e+01 -8.866466e+02
    endloop
  endfacet
  facet normal 8.037416e-01 -5.944236e-01 -2.569123e-02
    outer loop
      vertex -6.262396e+01 7.055000e+01 -9.015302e+02
      vertex -6.187446e+01 7.055000e+01 -8.780822e+02
      vertex -8.745000e+01 3.633854e+01 -8.866466e+02
    endloop
  endfacet
  facet normal -8.762075e-15 -2.037218e-01 -9.790288e-01
    outer loop
      vertex -8.325503e+01 7.055000e+01 -8.937655e+02
      vertex -9.250067e+01 3.633854e+01 -8.866466e+02
      vertex -9.445000e+01 3.633854e+01 -8.866466e+02
    endloop
  endfacet
  facet normal -3.505056e-01 -9.906735e-02 -9.313063e-01
    outer loop
      vertex -6.262396e+01 7.055000e+01 -9.015302e+02
      vertex -9.250067e+01 3.633854e+01 -8.866466e+02
      vertex -8.325503e+01 7.055000e+01 -8.937655e+02
    endloop
  endfacet
  facet normal -8.882057e-01 1.213444e-01 -4.431323e-01
    outer loop
      vertex -9.445000e+01 6.761465e+01 -8.780822e+02
      vertex -9.445000e+01 3.633854e+01 -8.866466e+02
      vertex -1.036500e+02 3.350828e+01 -8.689813e+02
    endloop
  endfacet
  facet normal -1.000000e+00 -2.726207e-15 4.977857e-15
    outer loop
      vertex -9.445000e+01 6.761465e+01 -8.866466e+02
      vertex -9.445000e+01 3.633854e+01 -8.866466e+02
      vertex -9.445000e+01 6.761465e+01 -8.780822e+02
    endloop
  endfacet
  facet normal -5.365984e-01 -1.472692e-15 -8.438378e-01
    outer loop
      vertex -8.325503e+01 7.055000e+01 -8.937655e+02
      vertex -9.445000e+01 3.633854e+01 -8.866466e+02
      vertex -9.445000e+01 6.761465e+01 -8.866466e+02
    endloop
  endfacet
  facet normal -9.269364e-01 -3.602855e-01 1.048012e-01
    outer loop
      vertex -1.036500e+02 1.142258e+01 -8.259945e+02
      vertex -1.036500e+02 5.062439e+00 -8.478594e+02
      vertex -9.445000e+01 -2.020127e+01 -8.533396e+02
    endloop
  endfacet
  facet normal -1.000000e+00 -3.567316e-15 5.587250e-15
    outer loop
      vertex -1.036500e+02 5.052225e+01 -8.468124e+02
      vertex -1.036500e+02 5.062439e+00 -8.478594e+02
      vertex -1.036500e+02 1.142258e+01 -8.259945e+02
    endloop
  endfacet
  facet normal -1.000000e+00 -3.560626e-15 5.296766e-15
    outer loop
      vertex -1.036500e+02 5.052225e+01 -8.468124e+02
      vertex -1.036500e+02 3.350828e+01 -8.689813e+02
      vertex -1.036500e+02 5.062439e+00 -8.478594e+02
    endloop
  endfacet
  facet normal -1.025677e-07 -7.390576e-01 6.736423e-01
    outer loop
      vertex -9.250066e+01 -5.154559e+00 -8.368318e+02
      vertex -9.445000e+01 -2.020127e+01 -8.533396e+02
      vertex -9.250067e+01 -2.020127e+01 -8.533396e+02
    endloop
  endfacet
  facet normal 5.732668e-01 6.249677e-01 -5.298873e-01
    outer loop
      vertex -1.024300e+02 3.564999e+00 -8.339421e+02
      vertex -1.036500e+02 1.142258e+01 -8.259945e+02
      vertex -9.445000e+01 -2.020127e+01 -8.533396e+02
    endloop
  endfacet
  facet normal -3.894933e-01 -6.573316e-01 6.451435e-01
    outer loop
      vertex -9.250066e+01 -5.154559e+00 -8.368318e+02
      vertex -1.024300e+02 3.564999e+00 -8.339421e+02
      vertex -9.445000e+01 -2.020127e+01 -8.533396e+02
    endloop
  endfacet
  facet normal 1.018609e-01 -7.352135e-01 6.701384e-01
    outer loop
      vertex -8.395000e+01 5.267317e-01 -8.318985e+02
      vertex -9.250066e+01 -5.154559e+00 -8.368318e+02
      vertex -9.250067e+01 -2.020127e+01 -8.533396e+02
    endloop
  endfacet
  facet normal -7.373368e-01 -5.648318e-01 3.705396e-01
    outer loop
      vertex -7.878694e+01 -4.539000e+01 -8.644471e+02
      vertex -9.250067e+01 -2.020127e+01 -8.533396e+02
      vertex -8.553039e+01 -4.595000e+01 -8.787195e+02
    endloop
  endfacet
  facet normal 1.327728e-01 -3.384999e-01 9.315520e-01
    outer loop
      vertex -6.297453e+01 -2.620936e+01 -8.597311e+02
      vertex -9.250067e+01 -2.020127e+01 -8.533396e+02
      vertex -7.878694e+01 -4.539000e+01 -8.644471e+02
    endloop
  endfacet
  facet normal 3.832968e-03 -7.197202e-01 6.942537e-01
    outer loop
      vertex -8.395000e+01 5.267317e-01 -8.318985e+02
      vertex -9.250067e+01 -2.020127e+01 -8.533396e+02
      vertex -6.297453e+01 -2.620936e+01 -8.597311e+02
    endloop
  endfacet
  facet normal -3.687953e-01 -6.886811e-01 6.242662e-01
    outer loop
      vertex -9.249620e+01 8.676525e+00 -8.224346e+02
      vertex -1.036500e+02 1.142258e+01 -8.259945e+02
      vertex -1.024300e+02 3.564999e+00 -8.339421e+02
    endloop
  endfacet
  facet normal -3.696128e-01 -4.410854e-01 8.178203e-01
    outer loop
      vertex -9.250885e+01 1.626347e+01 -8.183484e+02
      vertex -1.036500e+02 1.142258e+01 -8.259945e+02
      vertex -9.249620e+01 8.676525e+00 -8.224346e+02
    endloop
  endfacet
  facet normal -1.000000e+00 -3.457090e-15 5.794274e-15
    outer loop
      vertex -1.036500e+02 4.644779e+01 -8.320754e+02
      vertex -1.036500e+02 5.052225e+01 -8.468124e+02
      vertex -1.036500e+02 1.142258e+01 -8.259945e+02
    endloop
  endfacet
  facet normal -1.000000e+00 -3.382028e-15 6.226629e-15
    outer loop
      vertex -1.036500e+02 3.443284e+01 -8.226254e+02
      vertex -1.036500e+02 4.644779e+01 -8.320754e+02
      vertex -1.036500e+02 1.142258e+01 -8.259945e+02
    endloop
  endfacet
  facet normal -8.943451e-01 -6.481217e-02 4.426582e-01
    outer loop
      vertex -1.024300e+02 3.064037e+01 -8.207158e+02
      vertex -1.036500e+02 3.443284e+01 -8.226254e+02
      vertex -1.036500e+02 1.142258e+01 -8.259945e+02
    endloop
  endfacet
  facet normal -9.475903e-01 -2.727962e-02 3.183213e-01
    outer loop
      vertex -1.024300e+02 1.730389e+01 -8.218588e+02
      vertex -1.024300e+02 3.064037e+01 -8.207158e+02
      vertex -1.036500e+02 1.142258e+01 -8.259945e+02
    endloop
  endfacet
  facet normal -3.355737e-01 -4.942965e-01 8.019110e-01
    outer loop
      vertex -9.250885e+01 1.626347e+01 -8.183484e+02
      vertex -1.024300e+02 1.730389e+01 -8.218588e+02
      vertex -1.036500e+02 1.142258e+01 -8.259945e+02
    endloop
  endfacet
  facet normal -3.962550e-01 -6.620478e-01 6.361404e-01
    outer loop
      vertex -9.249620e+01 8.676525e+00 -8.224346e+02
      vertex -1.024300e+02 3.564999e+00 -8.339421e+02
      vertex -9.250066e+01 -5.154559e+00 -8.368318e+02
    endloop
  endfacet
  facet normal 2.390319e-01 -7.002738e-01 6.726666e-01
    outer loop
      vertex -7.435000e+01 9.773918e+00 -8.277405e+02
      vertex -9.249620e+01 8.676525e+00 -8.224346e+02
      vertex -9.250066e+01 -5.154559e+00 -8.368318e+02
    endloop
  endfacet
  facet normal -6.284883e-01 3.373173e-01 7.008706e-01
    outer loop
      vertex -8.395000e+01 5.267317e-01 -8.318985e+02
      vertex -7.435000e+01 9.773918e+00 -8.277405e+02
      vertex -9.250066e+01 -5.154559e+00 -8.368318e+02
    endloop
  endfacet
  facet normal 5.575286e-03 -4.741723e-01 8.804144e-01
    outer loop
      vertex -8.395000e+01 1.655773e+01 -8.182441e+02
      vertex -9.250885e+01 1.626347e+01 -8.183484e+02
      vertex -9.249620e+01 8.676525e+00 -8.224346e+02
    endloop
  endfacet
  facet normal 2.489978e-01 -6.511926e-01 7.169019e-01
    outer loop
      vertex -8.395000e+01 1.655773e+01 -8.182441e+02
      vertex -9.249620e+01 8.676525e+00 -8.224346e+02
      vertex -7.435000e+01 9.773918e+00 -8.277405e+02
    endloop
  endfacet
  facet normal -9.624045e-01 2.154761e-01 -1.653710e-01
    outer loop
      vertex -9.445000e+01 6.761465e+01 -8.780822e+02
      vertex -1.036500e+02 3.350828e+01 -8.689813e+02
      vertex -1.036500e+02 5.052225e+01 -8.468124e+02
    endloop
  endfacet
  facet normal -4.509582e-01 8.602707e-01 2.378465e-01
    outer loop
      vertex -9.250067e+01 5.208515e+01 -8.313261e+02
      vertex -1.036500e+02 5.052225e+01 -8.468124e+02
      vertex -1.036500e+02 4.644779e+01 -8.320754e+02
    endloop
  endfacet
  facet normal -9.545430e-01 2.653404e-01 -1.358017e-01
    outer loop
      vertex -9.445000e+01 7.705000e+01 -8.596466e+02
      vertex -9.445000e+01 6.761465e+01 -8.780822e+02
      vertex -1.036500e+02 5.052225e+01 -8.468124e+02
    endloop
  endfacet
  facet normal 1.336031e-07 4.355124e-01 9.001828e-01
    outer loop
      vertex -9.250066e+01 7.705000e+01 -8.596466e+02
      vertex -9.445000e+01 7.705000e+01 -8.596466e+02
      vertex -1.036500e+02 5.052225e+01 -8.468124e+02
    endloop
  endfacet
  facet normal -7.153207e-01 5.242031e-01 4.620903e-01
    outer loop
      vertex -9.250067e+01 6.707714e+01 -8.483332e+02
      vertex -1.036500e+02 5.052225e+01 -8.468124e+02
      vertex -9.250067e+01 5.208515e+01 -8.313261e+02
    endloop
  endfacet
  facet normal -7.153207e-01 5.242031e-01 4.620903e-01
    outer loop
      vertex -9.250067e+01 6.707714e+01 -8.483332e+02
      vertex -9.250066e+01 7.705000e+01 -8.596466e+02
      vertex -1.036500e+02 5.052225e+01 -8.468124e+02
    endloop
  endfacet
  facet normal -3.432114e-01 5.806587e-01 7.382691e-01
    outer loop
      vertex -9.250067e+01 5.208515e+01 -8.313261e+02
      vertex -1.036500e+02 4.644779e+01 -8.320754e+02
      vertex -1.036500e+02 3.443284e+01 -8.226254e+02
    endloop
  endfacet
  facet normal -3.317085e-01 3.369721e-01 8.811466e-01
    outer loop
      vertex -9.248228e+01 3.083263e+01 -8.170445e+02
      vertex -1.036500e+02 3.443284e+01 -8.226254e+02
      vertex -1.024300e+02 3.064037e+01 -8.207158e+02
    endloop
  endfacet
  facet normal -3.722358e-01 2.365783e-01 8.974805e-01
    outer loop
      vertex -9.250124e+01 3.604209e+01 -8.184256e+02
      vertex -1.036500e+02 3.443284e+01 -8.226254e+02
      vertex -9.248228e+01 3.083263e+01 -8.170445e+02
    endloop
  endfacet
  facet normal -3.584947e-01 5.850028e-01 7.274979e-01
    outer loop
      vertex -9.250067e+01 5.208515e+01 -8.313261e+02
      vertex -1.036500e+02 3.443284e+01 -8.226254e+02
      vertex -9.250124e+01 3.604209e+01 -8.184256e+02
    endloop
  endfacet
  facet normal -3.437539e-01 -8.018199e-02 9.356303e-01
    outer loop
      vertex -9.248228e+01 3.083263e+01 -8.170445e+02
      vertex -1.024300e+02 3.064037e+01 -8.207158e+02
      vertex -1.024300e+02 1.730389e+01 -8.218588e+02
    endloop
  endfacet
  facet normal -3.401493e-01 -8.320701e-02 9.366830e-01
    outer loop
      vertex -9.248228e+01 3.083263e+01 -8.170445e+02
      vertex -1.024300e+02 1.730389e+01 -8.218588e+02
      vertex -9.250885e+01 1.626347e+01 -8.183484e+02
    endloop
  endfacet
  facet normal 1.143602e-02 -8.915249e-02 9.959523e-01
    outer loop
      vertex -8.395000e+01 3.120769e+01 -8.171089e+02
      vertex -9.248228e+01 3.083263e+01 -8.170445e+02
      vertex -9.250885e+01 1.626347e+01 -8.183484e+02
    endloop
  endfacet
  facet normal -9.491391e-03 -7.725105e-02 9.969665e-01
    outer loop
      vertex -8.395000e+01 1.655773e+01 -8.182441e+02
      vertex -8.395000e+01 3.120769e+01 -8.171089e+02
      vertex -9.250885e+01 1.626347e+01 -8.183484e+02
    endloop
  endfacet
  facet normal -3.968282e-03 2.562444e-01 9.666039e-01
    outer loop
      vertex -8.395000e+01 3.120769e+01 -8.171089e+02
      vertex -9.250124e+01 3.604209e+01 -8.184256e+02
      vertex -9.248228e+01 3.083263e+01 -8.170445e+02
    endloop
  endfacet
  facet normal 1.907574e-01 6.151359e-01 7.649964e-01
    outer loop
      vertex -7.435000e+01 4.391510e+01 -8.292825e+02
      vertex -9.250067e+01 5.208515e+01 -8.313261e+02
      vertex -9.250124e+01 3.604209e+01 -8.184256e+02
    endloop
  endfacet
  facet normal 3.530949e-01 3.705853e-01 8.590638e-01
    outer loop
      vertex -7.435000e+01 4.391510e+01 -8.292825e+02
      vertex -9.250124e+01 3.604209e+01 -8.184256e+02
      vertex -7.435000e+01 2.886984e+01 -8.227922e+02
    endloop
  endfacet
  facet normal 4.164854e-01 8.347762e-01 3.601231e-01
    outer loop
      vertex -8.395000e+01 3.120769e+01 -8.171089e+02
      vertex -7.435000e+01 2.886984e+01 -8.227922e+02
      vertex -9.250124e+01 3.604209e+01 -8.184256e+02
    endloop
  endfacet
  facet normal -1.000000e+00 -2.195498e-15 4.977857e-15
    outer loop
      vertex -9.445000e+01 7.705000e+01 -8.596466e+02
      vertex -9.445000e+01 6.761465e+01 -8.866466e+02
      vertex -9.445000e+01 6.761465e+01 -8.780822e+02
    endloop
  endfacet
  facet normal -1.000000e+00 -3.012257e-15 4.977857e-15
    outer loop
      vertex -9.445000e+01 7.705000e+01 -8.780822e+02
      vertex -9.445000e+01 7.705000e+01 -8.866466e+02
      vertex -9.445000e+01 6.761465e+01 -8.866466e+02
    endloop
  endfacet
  facet normal -1.214864e-01 -1.231538e-14 -9.925931e-01
    outer loop
      vertex -7.351010e+01 9.525000e+01 -8.892095e+02
      vertex -9.445000e+01 6.761465e+01 -8.866466e+02
      vertex -9.445000e+01 7.705000e+01 -8.866466e+02
    endloop
  endfacet
  facet normal -1.000000e+00 -3.391692e-15 5.395876e-15
    outer loop
      vertex -9.445000e+01 7.705000e+01 -8.596466e+02
      vertex -9.445000e+01 7.705000e+01 -8.780822e+02
      vertex -9.445000e+01 6.761465e+01 -8.866466e+02
    endloop
  endfacet
  facet normal -5.660035e-01 3.600972e-01 -7.415997e-01
    outer loop
      vertex -7.351010e+01 9.525000e+01 -8.892095e+02
      vertex -8.325503e+01 7.055000e+01 -8.937655e+02
      vertex -9.445000e+01 6.761465e+01 -8.866466e+02
    endloop
  endfacet
  facet normal -7.208182e-01 6.931242e-01 1.314333e-15
    outer loop
      vertex -7.694925e+01 9.525000e+01 -8.795327e+02
      vertex -9.445000e+01 7.705000e+01 -8.866466e+02
      vertex -9.445000e+01 7.705000e+01 -8.780822e+02
    endloop
  endfacet
  facet normal -6.540835e-01 7.198171e-01 -2.324612e-01
    outer loop
      vertex -7.351010e+01 9.525000e+01 -8.892095e+02
      vertex -9.445000e+01 7.705000e+01 -8.866466e+02
      vertex -7.694925e+01 9.525000e+01 -8.795327e+02
    endloop
  endfacet
  facet normal 1.087059e-07 1.000000e+00 -3.083358e-15
    outer loop
      vertex -9.250066e+01 7.705000e+01 -8.596466e+02
      vertex -9.445000e+01 7.705000e+01 -8.780822e+02
      vertex -9.445000e+01 7.705000e+01 -8.596466e+02
    endloop
  endfacet
  facet normal -7.157307e-01 6.942637e-01 7.567979e-02
    outer loop
      vertex -7.694925e+01 9.525000e+01 -8.795327e+02
      vertex -9.445000e+01 7.705000e+01 -8.780822e+02
      vertex -9.250066e+01 7.705000e+01 -8.596466e+02
    endloop
  endfacet
  facet normal -3.184025e-01 2.919735e-01 -9.018710e-01
    outer loop
      vertex -6.328891e+01 9.532476e+01 -8.927939e+02
      vertex -8.325503e+01 7.055000e+01 -8.937655e+02
      vertex -7.351010e+01 9.525000e+01 -8.892095e+02
    endloop
  endfacet
  facet normal -3.354241e-01 3.052741e-01 -8.912342e-01
    outer loop
      vertex -6.328891e+01 9.532476e+01 -8.927939e+02
      vertex -6.262396e+01 7.055000e+01 -9.015302e+02
      vertex -8.325503e+01 7.055000e+01 -8.937655e+02
    endloop
  endfacet
  facet normal 2.545405e-01 7.254431e-01 6.394853e-01
    outer loop
      vertex -7.435000e+01 4.391510e+01 -8.292825e+02
      vertex -9.250067e+01 6.707714e+01 -8.483332e+02
      vertex -9.250067e+01 5.208515e+01 -8.313261e+02
    endloop
  endfacet
  facet normal -2.630562e-01 7.237315e-01 6.379766e-01
    outer loop
      vertex -6.375373e+01 9.525000e+01 -8.684398e+02
      vertex -9.250066e+01 7.705000e+01 -8.596466e+02
      vertex -9.250067e+01 6.707714e+01 -8.483332e+02
    endloop
  endfacet
  facet normal -3.764692e-01 8.109993e-01 4.478293e-01
    outer loop
      vertex -6.375373e+01 9.525000e+01 -8.684398e+02
      vertex -7.694925e+01 9.525000e+01 -8.795327e+02
      vertex -9.250066e+01 7.705000e+01 -8.596466e+02
    endloop
  endfacet
  facet normal 1.812798e-01 7.055425e-01 6.850894e-01
    outer loop
      vertex -6.292569e+01 7.055000e+01 -8.597355e+02
      vertex -9.250067e+01 6.707714e+01 -8.483332e+02
      vertex -7.435000e+01 4.391510e+01 -8.292825e+02
    endloop
  endfacet
  facet normal 3.066252e-01 3.254834e-01 8.944504e-01
    outer loop
      vertex -6.375373e+01 9.525000e+01 -8.684398e+02
      vertex -9.250067e+01 6.707714e+01 -8.483332e+02
      vertex -6.292569e+01 7.055000e+01 -8.597355e+02
    endloop
  endfacet
  facet normal -9.189380e-02 9.952331e-01 -3.265905e-02
    outer loop
      vertex -6.337647e+01 9.656936e+01 -8.775175e+02
      vertex -7.351010e+01 9.525000e+01 -8.892095e+02
      vertex -7.694925e+01 9.525000e+01 -8.795327e+02
    endloop
  endfacet
  facet normal -1.161181e-01 9.835838e-01 1.381284e-01
    outer loop
      vertex -6.375373e+01 9.525000e+01 -8.684398e+02
      vertex -6.337647e+01 9.656936e+01 -8.775175e+02
      vertex -7.694925e+01 9.525000e+01 -8.795327e+02
    endloop
  endfacet
  facet normal -3.581456e-02 9.960415e-01 -8.135505e-02
    outer loop
      vertex -6.328891e+01 9.532476e+01 -8.927939e+02
      vertex -7.351010e+01 9.525000e+01 -8.892095e+02
      vertex -6.337647e+01 9.656936e+01 -8.775175e+02
    endloop
  endfacet
  facet normal 2.518483e-01 -9.664349e-01 5.075487e-02
    outer loop
      vertex -5.998287e+01 -3.915000e+01 -8.760073e+02
      vertex -8.553039e+01 -4.595000e+01 -8.787195e+02
      vertex -7.994872e+01 -4.539000e+01 -8.957530e+02
    endloop
  endfacet
  facet normal 5.158986e-02 -9.660567e-01 2.531265e-01
    outer loop
      vertex -6.266207e+01 -4.595000e+01 -9.014134e+02
      vertex -5.998287e+01 -3.915000e+01 -8.760073e+02
      vertex -7.994872e+01 -4.539000e+01 -8.957530e+02
    endloop
  endfacet
  facet normal -3.112625e-01 -2.592499e-03 -9.503204e-01
    outer loop
      vertex -6.250325e+01 -2.620722e+01 -9.015193e+02
      vertex -6.266207e+01 -4.595000e+01 -9.014134e+02
      vertex -7.994872e+01 -4.539000e+01 -8.957530e+02
    endloop
  endfacet
  facet normal 2.752285e-01 -9.077648e-01 -3.165633e-01
    outer loop
      vertex -6.279153e+01 -4.571394e+01 -8.596267e+02
      vertex -8.553039e+01 -4.595000e+01 -8.787195e+02
      vertex -5.998287e+01 -3.915000e+01 -8.760073e+02
    endloop
  endfacet
  facet normal -3.731580e-02 -9.976893e-01 5.677685e-02
    outer loop
      vertex -6.279153e+01 -4.571394e+01 -8.596267e+02
      vertex -7.878694e+01 -4.539000e+01 -8.644471e+02
      vertex -8.553039e+01 -4.595000e+01 -8.787195e+02
    endloop
  endfacet
  facet normal -2.969238e-01 -9.141489e-01 2.759857e-01
    outer loop
      vertex -4.341713e+01 -4.541988e+01 -8.789525e+02
      vertex -5.998287e+01 -3.915000e+01 -8.760073e+02
      vertex -6.266207e+01 -4.595000e+01 -9.014134e+02
    endloop
  endfacet
  facet normal -1.576840e-01 -9.070039e-01 -3.904865e-01
    outer loop
      vertex -4.924018e+01 -4.539000e+01 -8.658513e+02
      vertex -6.279153e+01 -4.571394e+01 -8.596267e+02
      vertex -5.998287e+01 -3.915000e+01 -8.760073e+02
    endloop
  endfacet
  facet normal -3.745964e-01 -9.124940e-01 -1.644152e-01
    outer loop
      vertex -4.924018e+01 -4.539000e+01 -8.658513e+02
      vertex -5.998287e+01 -3.915000e+01 -8.760073e+02
      vertex -4.341713e+01 -4.541988e+01 -8.789525e+02
    endloop
  endfacet
  facet normal 4.689193e-01 -8.508862e-03 -8.832000e-01
    outer loop
      vertex -4.870985e+01 -2.619729e+01 -8.941960e+02
      vertex -6.266207e+01 -4.595000e+01 -9.014134e+02
      vertex -6.250325e+01 -2.620722e+01 -9.015193e+02
    endloop
  endfacet
  facet normal 4.420063e-01 1.549874e-02 -8.968780e-01
    outer loop
      vertex -4.870985e+01 -2.619729e+01 -8.941960e+02
      vertex -4.822421e+01 -4.539000e+01 -8.942884e+02
      vertex -6.266207e+01 -4.595000e+01 -9.014134e+02
    endloop
  endfacet
  facet normal 4.696376e-02 -9.987575e-01 -1.666681e-02
    outer loop
      vertex -4.341713e+01 -4.541988e+01 -8.789525e+02
      vertex -6.266207e+01 -4.595000e+01 -9.014134e+02
      vertex -4.822421e+01 -4.539000e+01 -8.942884e+02
    endloop
  endfacet
  facet normal 4.737898e-01 6.133973e-03 -8.806166e-01
    outer loop
      vertex -4.849392e+01 -1.845000e+01 -8.939279e+02
      vertex -6.250325e+01 -2.620722e+01 -9.015193e+02
      vertex -6.262396e+01 -1.845000e+01 -9.015302e+02
    endloop
  endfacet
  facet normal 4.688499e-01 1.749022e-02 -8.831047e-01
    outer loop
      vertex -4.849392e+01 -1.845000e+01 -8.939279e+02
      vertex -4.870985e+01 -2.619729e+01 -8.941960e+02
      vertex -6.250325e+01 -2.620722e+01 -9.015193e+02
    endloop
  endfacet
  facet normal -2.884995e-01 2.420316e-03 9.574770e-01
    outer loop
      vertex -6.297453e+01 -2.620936e+01 -8.597311e+02
      vertex -7.878694e+01 -4.539000e+01 -8.644471e+02
      vertex -6.279153e+01 -4.571394e+01 -8.596267e+02
    endloop
  endfacet
  facet normal 4.268069e-01 8.847144e-03 9.042995e-01
    outer loop
      vertex -4.971399e+01 -2.623790e+01 -8.659895e+02
      vertex -6.297453e+01 -2.620936e+01 -8.597311e+02
      vertex -6.279153e+01 -4.571394e+01 -8.596267e+02
    endloop
  endfacet
  facet normal 4.170173e-01 1.687186e-02 9.087419e-01
    outer loop
      vertex -4.924018e+01 -4.539000e+01 -8.658513e+02
      vertex -4.971399e+01 -2.623790e+01 -8.659895e+02
      vertex -6.279153e+01 -4.571394e+01 -8.596267e+02
    endloop
  endfacet
  facet normal 9.252332e-01 3.694048e-01 -8.650762e-02
    outer loop
      vertex -7.435000e+01 5.062439e+00 -8.478594e+02
      vertex -7.435000e+01 9.773918e+00 -8.277405e+02
      vertex -6.297453e+01 -2.620936e+01 -8.597311e+02
    endloop
  endfacet
  facet normal 2.471116e-01 -5.990198e-01 7.616503e-01
    outer loop
      vertex -8.395000e+01 5.267317e-01 -8.318985e+02
      vertex -6.297453e+01 -2.620936e+01 -8.597311e+02
      vertex -7.435000e+01 9.773918e+00 -8.277405e+02
    endloop
  endfacet
  facet normal 4.916257e-01 -1.470055e-01 8.583086e-01
    outer loop
      vertex -4.971919e+01 -1.845000e+01 -8.659946e+02
      vertex -7.435000e+01 5.062439e+00 -8.478594e+02
      vertex -6.297453e+01 -2.620936e+01 -8.597311e+02
    endloop
  endfacet
  facet normal 4.268094e-01 8.786153e-04 9.043412e-01
    outer loop
      vertex -4.971919e+01 -1.845000e+01 -8.659946e+02
      vertex -6.297453e+01 -2.620936e+01 -8.597311e+02
      vertex -4.971399e+01 -2.623790e+01 -8.659895e+02
    endloop
  endfacet
  facet normal 9.668735e-01 7.278437e-02 2.446591e-01
    outer loop
      vertex -7.435000e+01 1.004644e+01 -8.636673e+02
      vertex -6.262396e+01 -1.845000e+01 -9.015302e+02
      vertex -7.435000e+01 2.835272e+01 -8.691133e+02
    endloop
  endfacet
  facet normal 5.000608e-01 7.592294e-01 -4.165451e-01
    outer loop
      vertex -4.382599e+01 -1.845000e+01 -8.789633e+02
      vertex -6.262396e+01 -1.845000e+01 -9.015302e+02
      vertex -7.435000e+01 1.004644e+01 -8.636673e+02
    endloop
  endfacet
  facet normal -3.131258e-15 1.000000e+00 -3.059189e-15
    outer loop
      vertex -4.849392e+01 -1.845000e+01 -8.939279e+02
      vertex -6.262396e+01 -1.845000e+01 -9.015302e+02
      vertex -4.382599e+01 -1.845000e+01 -8.789633e+02
    endloop
  endfacet
  facet normal 1.000000e+00 3.485949e-15 -5.760735e-15
    outer loop
      vertex -7.435000e+01 4.391510e+01 -8.292825e+02
      vertex -7.435000e+01 9.773918e+00 -8.277405e+02
      vertex -7.435000e+01 5.062439e+00 -8.478594e+02
    endloop
  endfacet
  facet normal 1.000000e+00 3.411015e-15 -7.419789e-15
    outer loop
      vertex -7.435000e+01 4.391510e+01 -8.292825e+02
      vertex -7.435000e+01 2.886984e+01 -8.227922e+02
      vertex -7.435000e+01 9.773918e+00 -8.277405e+02
    endloop
  endfacet
  facet normal 4.557354e-01 -2.232766e-01 8.616570e-01
    outer loop
      vertex -8.395000e+01 3.120769e+01 -8.171089e+02
      vertex -7.435000e+01 9.773918e+00 -8.277405e+02
      vertex -7.435000e+01 2.886984e+01 -8.227922e+02
    endloop
  endfacet
  facet normal 6.816616e-01 -5.652464e-02 7.294810e-01
    outer loop
      vertex -8.395000e+01 1.655773e+01 -8.182441e+02
      vertex -7.435000e+01 9.773918e+00 -8.277405e+02
      vertex -8.395000e+01 3.120769e+01 -8.171089e+02
    endloop
  endfacet
  facet normal 1.000000e+00 3.546717e-15 -6.073545e-15
    outer loop
      vertex -7.435000e+01 4.374596e+01 -8.463279e+02
      vertex -7.435000e+01 5.062439e+00 -8.478594e+02
      vertex -7.435000e+01 1.004644e+01 -8.636673e+02
    endloop
  endfacet
  facet normal 7.493968e-01 6.314786e-01 1.990960e-01
    outer loop
      vertex -4.971919e+01 -1.845000e+01 -8.659946e+02
      vertex -7.435000e+01 1.004644e+01 -8.636673e+02
      vertex -7.435000e+01 5.062439e+00 -8.478594e+02
    endloop
  endfacet
  facet normal 1.000000e+00 3.538701e-15 -5.871063e-15
    outer loop
      vertex -7.435000e+01 4.374596e+01 -8.463279e+02
      vertex -7.435000e+01 4.391510e+01 -8.292825e+02
      vertex -7.435000e+01 5.062439e+00 -8.478594e+02
    endloop
  endfacet
  facet normal 1.000000e+00 3.597678e-15 -6.172588e-15
    outer loop
      vertex -7.435000e+01 4.374596e+01 -8.463279e+02
      vertex -7.435000e+01 1.004644e+01 -8.636673e+02
      vertex -7.435000e+01 2.835272e+01 -8.691133e+02
    endloop
  endfacet
  facet normal 9.333981e-01 -2.973471e-01 2.008799e-01
    outer loop
      vertex -6.292569e+01 7.055000e+01 -8.597355e+02
      vertex -7.435000e+01 4.374596e+01 -8.463279e+02
      vertex -7.435000e+01 2.835272e+01 -8.691133e+02
    endloop
  endfacet
  facet normal 9.606338e-01 -2.723104e-01 5.504257e-02
    outer loop
      vertex -6.292569e+01 7.055000e+01 -8.597355e+02
      vertex -7.435000e+01 2.835272e+01 -8.691133e+02
      vertex -6.187446e+01 7.055000e+01 -8.780822e+02
    endloop
  endfacet
  facet normal 7.272367e-01 6.015954e-01 3.304689e-01
    outer loop
      vertex -4.971919e+01 -1.845000e+01 -8.659946e+02
      vertex -4.382599e+01 -1.845000e+01 -8.789633e+02
      vertex -7.435000e+01 1.004644e+01 -8.636673e+02
    endloop
  endfacet
  facet normal 9.206184e-01 -3.904444e-01 3.874398e-03
    outer loop
      vertex -6.292569e+01 7.055000e+01 -8.597355e+02
      vertex -7.435000e+01 4.391510e+01 -8.292825e+02
      vertex -7.435000e+01 4.374596e+01 -8.463279e+02
    endloop
  endfacet
  facet normal 3.292292e-15 -1.000000e+00 2.925050e-15
    outer loop
      vertex -4.382599e+01 7.055000e+01 -8.789633e+02
      vertex -6.187446e+01 7.055000e+01 -8.780822e+02
      vertex -6.262396e+01 7.055000e+01 -9.015302e+02
    endloop
  endfacet
  facet normal 4.827659e-15 -1.000000e+00 3.374918e-15
    outer loop
      vertex -4.971919e+01 7.055000e+01 -8.659946e+02
      vertex -6.292569e+01 7.055000e+01 -8.597355e+02
      vertex -6.187446e+01 7.055000e+01 -8.780822e+02
    endloop
  endfacet
  facet normal 3.385078e-15 -1.000000e+00 4.825579e-15
    outer loop
      vertex -4.971919e+01 7.055000e+01 -8.659946e+02
      vertex -6.187446e+01 7.055000e+01 -8.780822e+02
      vertex -4.382599e+01 7.055000e+01 -8.789633e+02
    endloop
  endfacet
  facet normal 3.295000e-01 3.218417e-01 -8.876078e-01
    outer loop
      vertex -4.849392e+01 7.705000e+01 -8.939279e+02
      vertex -6.262396e+01 7.055000e+01 -9.015302e+02
      vertex -6.328891e+01 9.532476e+01 -8.927939e+02
    endloop
  endfacet
  facet normal 4.737987e-01 -9.705297e-15 -8.806332e-01
    outer loop
      vertex -4.849392e+01 7.705000e+01 -8.939279e+02
      vertex -4.849392e+01 7.055000e+01 -8.939279e+02
      vertex -6.262396e+01 7.055000e+01 -9.015302e+02
    endloop
  endfacet
  facet normal 1.764384e-15 -1.000000e+00 4.197780e-15
    outer loop
      vertex -4.382599e+01 7.055000e+01 -8.789633e+02
      vertex -6.262396e+01 7.055000e+01 -9.015302e+02
      vertex -4.849392e+01 7.055000e+01 -8.939279e+02
    endloop
  endfacet
  facet normal 2.677863e-01 3.282006e-01 9.058559e-01
    outer loop
      vertex -4.971919e+01 7.705000e+01 -8.659946e+02
      vertex -6.375373e+01 9.525000e+01 -8.684398e+02
      vertex -6.292569e+01 7.055000e+01 -8.597355e+02
    endloop
  endfacet
  facet normal 4.282747e-01 4.681654e-16 9.036486e-01
    outer loop
      vertex -4.971919e+01 7.705000e+01 -8.659946e+02
      vertex -6.292569e+01 7.055000e+01 -8.597355e+02
      vertex -4.971919e+01 7.055000e+01 -8.659946e+02
    endloop
  endfacet
  facet normal 1.058222e-01 9.911501e-01 -8.014475e-02
    outer loop
      vertex -5.255030e+01 9.525000e+01 -8.795393e+02
      vertex -6.328891e+01 9.532476e+01 -8.927939e+02
      vertex -6.337647e+01 9.656936e+01 -8.775175e+02
    endloop
  endfacet
  facet normal 7.780033e-01 6.163189e-01 1.219089e-01
    outer loop
      vertex -4.971919e+01 7.705000e+01 -8.659946e+02
      vertex -6.337647e+01 9.656936e+01 -8.775175e+02
      vertex -6.375373e+01 9.525000e+01 -8.684398e+02
    endloop
  endfacet
  facet normal 2.168199e-01 6.043036e-01 7.666853e-01
    outer loop
      vertex -4.971919e+01 7.705000e+01 -8.659946e+02
      vertex -5.255030e+01 9.525000e+01 -8.795393e+02
      vertex -6.337647e+01 9.656936e+01 -8.775175e+02
    endloop
  endfacet
  facet normal 6.471972e-01 5.563071e-01 -5.212084e-01
    outer loop
      vertex -4.849392e+01 7.705000e+01 -8.939279e+02
      vertex -6.328891e+01 9.532476e+01 -8.927939e+02
      vertex -5.255030e+01 9.525000e+01 -8.795393e+02
    endloop
  endfacet
  facet normal 9.524416e-01 2.556046e-02 -3.036474e-01
    outer loop
      vertex -4.870985e+01 -2.619729e+01 -8.941960e+02
      vertex -4.382798e+01 -2.621010e+01 -8.788843e+02
      vertex -4.822421e+01 -4.539000e+01 -8.942884e+02
    endloop
  endfacet
  facet normal 9.540126e-01 2.146532e-02 -2.989968e-01
    outer loop
      vertex -4.341713e+01 -4.541988e+01 -8.789525e+02
      vertex -4.822421e+01 -4.539000e+01 -8.942884e+02
      vertex -4.382798e+01 -2.621010e+01 -8.788843e+02
    endloop
  endfacet
  facet normal 9.527405e-01 -3.337148e-03 -3.037669e-01
    outer loop
      vertex -4.382599e+01 -1.845000e+01 -8.789633e+02
      vertex -4.382798e+01 -2.621010e+01 -8.788843e+02
      vertex -4.870985e+01 -2.619729e+01 -8.941960e+02
    endloop
  endfacet
  facet normal 9.095463e-01 1.797871e-02 4.152136e-01
    outer loop
      vertex -4.971399e+01 -2.623790e+01 -8.659895e+02
      vertex -4.341713e+01 -4.541988e+01 -8.789525e+02
      vertex -4.382798e+01 -2.621010e+01 -8.788843e+02
    endloop
  endfacet
  facet normal 9.097069e-01 8.804175e-04 4.152500e-01
    outer loop
      vertex -4.971919e+01 -1.845000e+01 -8.659946e+02
      vertex -4.971399e+01 -2.623790e+01 -8.659895e+02
      vertex -4.382798e+01 -2.621010e+01 -8.788843e+02
    endloop
  endfacet
  facet normal 9.104032e-01 3.978815e-03 4.137029e-01
    outer loop
      vertex -4.971919e+01 -1.845000e+01 -8.659946e+02
      vertex -4.382798e+01 -2.621010e+01 -8.788843e+02
      vertex -4.382599e+01 -1.845000e+01 -8.789633e+02
    endloop
  endfacet
  facet normal 9.545078e-01 -1.630128e-02 -2.977400e-01
    outer loop
      vertex -4.849392e+01 -1.845000e+01 -8.939279e+02
      vertex -4.382599e+01 -1.845000e+01 -8.789633e+02
      vertex -4.870985e+01 -2.619729e+01 -8.941960e+02
    endloop
  endfacet
  facet normal 9.135273e-01 2.552844e-02 4.059756e-01
    outer loop
      vertex -4.924018e+01 -4.539000e+01 -8.658513e+02
      vertex -4.341713e+01 -4.541988e+01 -8.789525e+02
      vertex -4.971399e+01 -2.623790e+01 -8.659895e+02
    endloop
  endfacet
  facet normal 9.624840e-01 1.631924e-14 2.713385e-01
    outer loop
      vertex -4.849392e+01 7.705000e+01 -8.939279e+02
      vertex -5.255030e+01 9.525000e+01 -8.795393e+02
      vertex -4.849392e+01 7.055000e+01 -8.939279e+02
    endloop
  endfacet
  facet normal 9.064826e-01 3.135864e-01 -2.827595e-01
    outer loop
      vertex -4.382599e+01 7.055000e+01 -8.789633e+02
      vertex -4.849392e+01 7.055000e+01 -8.939279e+02
      vertex -5.255030e+01 9.525000e+01 -8.795393e+02
    endloop
  endfacet
  facet normal 9.111677e-01 3.276598e-01 2.498251e-01
    outer loop
      vertex -4.971919e+01 7.705000e+01 -8.659946e+02
      vertex -4.382599e+01 7.055000e+01 -8.789633e+02
      vertex -5.255030e+01 9.525000e+01 -8.795393e+02
    endloop
  endfacet
  facet normal 9.104105e-01 9.952085e-16 4.137062e-01
    outer loop
      vertex -4.971919e+01 7.705000e+01 -8.659946e+02
      vertex -4.971919e+01 7.055000e+01 -8.659946e+02
      vertex -4.382599e+01 7.055000e+01 -8.789633e+02
    endloop
  endfacet
endsolid SIM_ICUB3_L_ANKLE_1
