solid SIM_ICUB3_R_ANKLE_1
  facet normal -9.540126e-01 2.146532e-02 -2.989968e-01
    outer loop
      vertex 4.351713e+01 -4.546988e+01 -8.789525e+02
      vertex 4.392798e+01 -2.626010e+01 -8.788843e+02
      vertex 4.832421e+01 -4.544000e+01 -8.942884e+02
    endloop
  endfacet
  facet normal -9.524416e-01 2.556046e-02 -3.036474e-01
    outer loop
      vertex 4.880985e+01 -2.624729e+01 -8.941960e+02
      vertex 4.832421e+01 -4.544000e+01 -8.942884e+02
      vertex 4.392798e+01 -2.626010e+01 -8.788843e+02
    endloop
  endfacet
  facet normal 3.359344e-01 -9.361842e-01 1.034759e-01
    outer loop
      vertex 6.008287e+01 -3.920000e+01 -8.760073e+02
      vertex 4.351713e+01 -4.546988e+01 -8.789525e+02
      vertex 4.832421e+01 -4.544000e+01 -8.942884e+02
    endloop
  endfacet
  facet normal -4.688615e-01 1.611209e-02 -8.831247e-01
    outer loop
      vertex 6.260325e+01 -2.625722e+01 -9.015193e+02
      vertex 4.832421e+01 -4.544000e+01 -8.942884e+02
      vertex 4.880985e+01 -2.624729e+01 -8.941960e+02
    endloop
  endfacet
  facet normal 9.440047e-02 -9.591525e-01 2.666740e-01
    outer loop
      vertex 6.276207e+01 -4.600000e+01 -9.014134e+02
      vertex 6.008287e+01 -3.920000e+01 -8.760073e+02
      vertex 4.832421e+01 -4.544000e+01 -8.942884e+02
    endloop
  endfacet
  facet normal -4.427885e-01 -8.370442e-03 -8.965870e-01
    outer loop
      vertex 6.260325e+01 -2.625722e+01 -9.015193e+02
      vertex 6.276207e+01 -4.600000e+01 -9.014134e+02
      vertex 4.832421e+01 -4.544000e+01 -8.942884e+02
    endloop
  endfacet
  facet normal -9.095463e-01 1.797871e-02 4.152136e-01
    outer loop
      vertex 4.981399e+01 -2.628790e+01 -8.659895e+02
      vertex 4.392798e+01 -2.626010e+01 -8.788843e+02
      vertex 4.351713e+01 -4.546988e+01 -8.789525e+02
    endloop
  endfacet
  facet normal -9.527405e-01 -3.337148e-03 -3.037669e-01
    outer loop
      vertex 4.392599e+01 -1.850000e+01 -8.789633e+02
      vertex 4.880985e+01 -2.624729e+01 -8.941960e+02
      vertex 4.392798e+01 -2.626010e+01 -8.788843e+02
    endloop
  endfacet
  facet normal -9.097069e-01 8.804175e-04 4.152500e-01
    outer loop
      vertex 4.981919e+01 -1.850000e+01 -8.659946e+02
      vertex 4.392798e+01 -2.626010e+01 -8.788843e+02
      vertex 4.981399e+01 -2.628790e+01 -8.659895e+02
    endloop
  endfacet
  facet normal -9.104032e-01 3.978815e-03 4.137029e-01
    outer loop
      vertex 4.981919e+01 -1.850000e+01 -8.659946e+02
      vertex 4.392599e+01 -1.850000e+01 -8.789633e+02
      vertex 4.392798e+01 -2.626010e+01 -8.788843e+02
    endloop
  endfacet
  facet normal 3.857790e-01 -8.316560e-01 -3.994031e-01
    outer loop
      vertex 6.289153e+01 -4.576394e+01 -8.596267e+02
      vertex 4.351713e+01 -4.546988e+01 -8.789525e+02
      vertex 6.008287e+01 -3.920000e+01 -8.760073e+02
    endloop
  endfacet
  facet normal -9.135273e-01 2.552844e-02 4.059756e-01
    outer loop
      vertex 4.934018e+01 -4.544000e+01 -8.658513e+02
      vertex 4.981399e+01 -2.628790e+01 -8.659895e+02
      vertex 4.351713e+01 -4.546988e+01 -8.789525e+02
    endloop
  endfacet
  facet normal -3.133396e-02 -9.993776e-01 1.620613e-02
    outer loop
      vertex 6.289153e+01 -4.576394e+01 -8.596267e+02
      vertex 4.934018e+01 -4.544000e+01 -8.658513e+02
      vertex 4.351713e+01 -4.546988e+01 -8.789525e+02
    endloop
  endfacet
  facet normal -4.689195e-01 6.054519e-03 -8.832202e-01
    outer loop
      vertex 6.272396e+01 -1.850000e+01 -9.015302e+02
      vertex 6.260325e+01 -2.625722e+01 -9.015193e+02
      vertex 4.880985e+01 -2.624729e+01 -8.941960e+02
    endloop
  endfacet
  facet normal -9.545078e-01 -1.630128e-02 -2.977400e-01
    outer loop
      vertex 4.859392e+01 -1.850000e+01 -8.939279e+02
      vertex 4.880985e+01 -2.624729e+01 -8.941960e+02
      vertex 4.392599e+01 -1.850000e+01 -8.789633e+02
    endloop
  endfacet
  facet normal -4.737281e-01 1.726419e-02 -8.805019e-01
    outer loop
      vertex 6.272396e+01 -1.850000e+01 -9.015302e+02
      vertex 4.880985e+01 -2.624729e+01 -8.941960e+02
      vertex 4.859392e+01 -1.850000e+01 -8.939279e+02
    endloop
  endfacet
  facet normal -2.275550e-01 -9.463817e-01 2.293041e-01
    outer loop
      vertex 8.563039e+01 -4.600000e+01 -8.787195e+02
      vertex 6.008287e+01 -3.920000e+01 -8.760073e+02
      vertex 6.276207e+01 -4.600000e+01 -9.014134e+02
    endloop
  endfacet
  facet normal -8.885577e-02 -9.297433e-01 -3.573262e-01
    outer loop
      vertex 7.888694e+01 -4.544000e+01 -8.644471e+02
      vertex 6.289153e+01 -4.576394e+01 -8.596267e+02
      vertex 6.008287e+01 -3.920000e+01 -8.760073e+02
    endloop
  endfacet
  facet normal -2.648914e-01 -9.603022e-01 -8.747721e-02
    outer loop
      vertex 7.888694e+01 -4.544000e+01 -8.644471e+02
      vertex 6.008287e+01 -3.920000e+01 -8.760073e+02
      vertex 8.563039e+01 -4.600000e+01 -8.787195e+02
    endloop
  endfacet
  facet normal 3.500326e-01 -2.207746e-03 -9.367349e-01
    outer loop
      vertex 8.335503e+01 -2.600000e+01 -8.937655e+02
      vertex 6.276207e+01 -4.600000e+01 -9.014134e+02
      vertex 6.260325e+01 -2.625722e+01 -9.015193e+02
    endloop
  endfacet
  facet normal 3.095791e-01 4.445410e-02 -9.498340e-01
    outer loop
      vertex 8.335503e+01 -2.600000e+01 -8.937655e+02
      vertex 8.004872e+01 -4.544000e+01 -8.957530e+02
      vertex 6.276207e+01 -4.600000e+01 -9.014134e+02
    endloop
  endfacet
  facet normal 4.823450e-02 -9.976527e-01 -4.860525e-02
    outer loop
      vertex 8.563039e+01 -4.600000e+01 -8.787195e+02
      vertex 6.276207e+01 -4.600000e+01 -9.014134e+02
      vertex 8.004872e+01 -4.544000e+01 -8.957530e+02
    endloop
  endfacet
  facet normal 4.510957e-01 -8.275357e-03 -8.924372e-01
    outer loop
      vertex 9.260067e+01 5.012439e+00 -8.866466e+02
      vertex 6.260325e+01 -2.625722e+01 -9.015193e+02
      vertex 6.272396e+01 -1.850000e+01 -9.015302e+02
    endloop
  endfacet
  facet normal 3.466655e-01 1.104668e-01 -9.314613e-01
    outer loop
      vertex 9.260067e+01 5.012439e+00 -8.866466e+02
      vertex 8.335503e+01 -2.600000e+01 -8.937655e+02
      vertex 6.260325e+01 -2.625722e+01 -9.015193e+02
    endloop
  endfacet
  facet normal -4.267758e-01 1.708048e-02 9.041962e-01
    outer loop
      vertex 6.307453e+01 -2.625936e+01 -8.597311e+02
      vertex 4.981399e+01 -2.628790e+01 -8.659895e+02
      vertex 4.934018e+01 -4.544000e+01 -8.658513e+02
    endloop
  endfacet
  facet normal -4.191158e-01 -1.849903e-01 8.888872e-01
    outer loop
      vertex 7.445000e+01 5.012439e+00 -8.478594e+02
      vertex 4.981399e+01 -2.628790e+01 -8.659895e+02
      vertex 6.307453e+01 -2.625936e+01 -8.597311e+02
    endloop
  endfacet
  facet normal -5.934782e-01 9.247180e-04 8.048496e-01
    outer loop
      vertex 7.445000e+01 5.012439e+00 -8.478594e+02
      vertex 4.981919e+01 -1.850000e+01 -8.659946e+02
      vertex 4.981399e+01 -2.628790e+01 -8.659895e+02
    endloop
  endfacet
  facet normal -4.172203e-01 8.781097e-03 9.087629e-01
    outer loop
      vertex 6.307453e+01 -2.625936e+01 -8.597311e+02
      vertex 4.934018e+01 -4.544000e+01 -8.658513e+02
      vertex 6.289153e+01 -4.576394e+01 -8.596267e+02
    endloop
  endfacet
  facet normal -2.129684e-01 7.230218e-03 9.770323e-01
    outer loop
      vertex 9.260067e+01 -2.025127e+01 -8.533396e+02
      vertex 6.307453e+01 -2.625936e+01 -8.597311e+02
      vertex 6.289153e+01 -4.576394e+01 -8.596267e+02
    endloop
  endfacet
  facet normal 2.585397e-01 -5.041282e-01 8.240218e-01
    outer loop
      vertex 7.888694e+01 -4.544000e+01 -8.644471e+02
      vertex 9.260067e+01 -2.025127e+01 -8.533396e+02
      vertex 6.289153e+01 -4.576394e+01 -8.596267e+02
    endloop
  endfacet
  facet normal -9.252332e-01 3.694048e-01 -8.650762e-02
    outer loop
      vertex 7.445000e+01 9.723918e+00 -8.277405e+02
      vertex 7.445000e+01 5.012439e+00 -8.478594e+02
      vertex 6.307453e+01 -2.625936e+01 -8.597311e+02
    endloop
  endfacet
  facet normal 4.563562e-03 -7.390499e-01 6.736353e-01
    outer loop
      vertex 9.260066e+01 -5.204559e+00 -8.368318e+02
      vertex 6.307453e+01 -2.625936e+01 -8.597311e+02
      vertex 9.260067e+01 -2.025127e+01 -8.533396e+02
    endloop
  endfacet
  facet normal -2.471116e-01 -5.990198e-01 7.616503e-01
    outer loop
      vertex 8.405000e+01 4.767317e-01 -8.318985e+02
      vertex 7.445000e+01 9.723918e+00 -8.277405e+02
      vertex 6.307453e+01 -2.625936e+01 -8.597311e+02
    endloop
  endfacet
  facet normal -5.373644e-02 -6.995878e-01 7.125232e-01
    outer loop
      vertex 9.260066e+01 -5.204559e+00 -8.368318e+02
      vertex 8.405000e+01 4.767317e-01 -8.318985e+02
      vertex 6.307453e+01 -2.625936e+01 -8.597311e+02
    endloop
  endfacet
  facet normal -6.164628e-01 7.635423e-01 -1.922935e-01
    outer loop
      vertex 7.445000e+01 9.996440e+00 -8.636673e+02
      vertex 4.859392e+01 -1.850000e+01 -8.939279e+02
      vertex 4.392599e+01 -1.850000e+01 -8.789633e+02
    endloop
  endfacet
  facet normal -7.211828e-01 6.606850e-01 2.083043e-01
    outer loop
      vertex 7.445000e+01 5.012439e+00 -8.478594e+02
      vertex 7.445000e+01 9.996440e+00 -8.636673e+02
      vertex 4.392599e+01 -1.850000e+01 -8.789633e+02
    endloop
  endfacet
  facet normal -7.686842e-01 5.358282e-01 3.493033e-01
    outer loop
      vertex 7.445000e+01 5.012439e+00 -8.478594e+02
      vertex 4.392599e+01 -1.850000e+01 -8.789633e+02
      vertex 4.981919e+01 -1.850000e+01 -8.659946e+02
    endloop
  endfacet
  facet normal -2.799984e-01 8.066973e-01 -5.204232e-01
    outer loop
      vertex 6.272396e+01 -1.850000e+01 -9.015302e+02
      vertex 4.859392e+01 -1.850000e+01 -8.939279e+02
      vertex 7.445000e+01 9.996440e+00 -8.636673e+02
    endloop
  endfacet
  facet normal -9.668735e-01 7.278437e-02 2.446591e-01
    outer loop
      vertex 7.445000e+01 2.830272e+01 -8.691133e+02
      vertex 6.272396e+01 -1.850000e+01 -9.015302e+02
      vertex 7.445000e+01 9.996440e+00 -8.636673e+02
    endloop
  endfacet
  facet normal -1.000000e+00 -4.606997e-15 -5.048406e-15
    outer loop
      vertex 7.445000e+01 2.830272e+01 -8.691133e+02
      vertex 7.445000e+01 9.996440e+00 -8.636673e+02
      vertex 7.445000e+01 5.012439e+00 -8.478594e+02
    endloop
  endfacet
  facet normal 4.459008e-01 2.278694e-14 -8.950824e-01
    outer loop
      vertex 9.260067e+01 3.628854e+01 -8.866466e+02
      vertex 9.260067e+01 5.012439e+00 -8.866466e+02
      vertex 6.272396e+01 -1.850000e+01 -9.015302e+02
    endloop
  endfacet
  facet normal -7.974622e-01 4.655999e-01 -3.837588e-01
    outer loop
      vertex 8.755000e+01 3.628854e+01 -8.866466e+02
      vertex 6.272396e+01 -1.850000e+01 -9.015302e+02
      vertex 7.445000e+01 2.830272e+01 -8.691133e+02
    endloop
  endfacet
  facet normal 2.212840e-15 2.621544e-01 -9.650259e-01
    outer loop
      vertex 9.260067e+01 3.628854e+01 -8.866466e+02
      vertex 6.272396e+01 -1.850000e+01 -9.015302e+02
      vertex 8.755000e+01 3.628854e+01 -8.866466e+02
    endloop
  endfacet
  facet normal -1.000000e+00 -4.223785e-15 -4.661602e-15
    outer loop
      vertex 7.445000e+01 4.369596e+01 -8.463279e+02
      vertex 7.445000e+01 5.012439e+00 -8.478594e+02
      vertex 7.445000e+01 9.723918e+00 -8.277405e+02
    endloop
  endfacet
  facet normal -1.000000e+00 -4.225042e-15 -4.629854e-15
    outer loop
      vertex 7.445000e+01 4.369596e+01 -8.463279e+02
      vertex 7.445000e+01 2.830272e+01 -8.691133e+02
      vertex 7.445000e+01 5.012439e+00 -8.478594e+02
    endloop
  endfacet
  facet normal -9.064826e-01 3.135864e-01 -2.827595e-01
    outer loop
      vertex 4.392599e+01 7.050000e+01 -8.789633e+02
      vertex 5.265030e+01 9.520000e+01 -8.795393e+02
      vertex 4.859392e+01 7.050000e+01 -8.939279e+02
    endloop
  endfacet
  facet normal -9.624840e-01 8.931933e-15 2.713385e-01
    outer loop
      vertex 4.859392e+01 7.700000e+01 -8.939279e+02
      vertex 4.859392e+01 7.050000e+01 -8.939279e+02
      vertex 5.265030e+01 9.520000e+01 -8.795393e+02
    endloop
  endfacet
  facet normal 3.603806e-15 -1.000000e+00 6.821911e-15
    outer loop
      vertex 6.197446e+01 7.050000e+01 -8.780822e+02
      vertex 4.392599e+01 7.050000e+01 -8.789633e+02
      vertex 4.859392e+01 7.050000e+01 -8.939279e+02
    endloop
  endfacet
  facet normal 7.657078e-02 1.633113e-14 -9.970641e-01
    outer loop
      vertex 6.337674e+01 9.527503e+01 -8.927927e+02
      vertex 4.859392e+01 7.050000e+01 -8.939279e+02
      vertex 4.859392e+01 7.700000e+01 -8.939279e+02
    endloop
  endfacet
  facet normal 4.341088e-15 -1.000000e+00 6.199333e-15
    outer loop
      vertex 6.272396e+01 7.050000e+01 -9.015302e+02
      vertex 6.197446e+01 7.050000e+01 -8.780822e+02
      vertex 4.859392e+01 7.050000e+01 -8.939279e+02
    endloop
  endfacet
  facet normal -4.508551e-01 3.074164e-01 -8.379886e-01
    outer loop
      vertex 6.337674e+01 9.527503e+01 -8.927927e+02
      vertex 6.272396e+01 7.050000e+01 -9.015302e+02
      vertex 4.859392e+01 7.050000e+01 -8.939279e+02
    endloop
  endfacet
  facet normal -9.111677e-01 3.276598e-01 2.498251e-01
    outer loop
      vertex 4.981919e+01 7.700000e+01 -8.659946e+02
      vertex 5.265030e+01 9.520000e+01 -8.795393e+02
      vertex 4.392599e+01 7.050000e+01 -8.789633e+02
    endloop
  endfacet
  facet normal 7.343086e-02 6.083856e-01 -7.902373e-01
    outer loop
      vertex 6.347647e+01 9.651936e+01 -8.775175e+02
      vertex 4.859392e+01 7.700000e+01 -8.939279e+02
      vertex 5.265030e+01 9.520000e+01 -8.795393e+02
    endloop
  endfacet
  facet normal -1.468683e-01 9.779844e-01 1.482440e-01
    outer loop
      vertex 6.385373e+01 9.520000e+01 -8.684398e+02
      vertex 6.347647e+01 9.651936e+01 -8.775175e+02
      vertex 5.265030e+01 9.520000e+01 -8.795393e+02
    endloop
  endfacet
  facet normal -5.932868e-01 5.379557e-01 5.988442e-01
    outer loop
      vertex 6.385373e+01 9.520000e+01 -8.684398e+02
      vertex 5.265030e+01 9.520000e+01 -8.795393e+02
      vertex 4.981919e+01 7.700000e+01 -8.659946e+02
    endloop
  endfacet
  facet normal 3.643204e-15 -1.000000e+00 6.014929e-15
    outer loop
      vertex 6.197446e+01 7.050000e+01 -8.780822e+02
      vertex 4.981919e+01 7.050000e+01 -8.659946e+02
      vertex 4.392599e+01 7.050000e+01 -8.789633e+02
    endloop
  endfacet
  facet normal -9.104105e-01 -8.043974e-15 4.137062e-01
    outer loop
      vertex 4.981919e+01 7.700000e+01 -8.659946e+02
      vertex 4.392599e+01 7.050000e+01 -8.789633e+02
      vertex 4.981919e+01 7.050000e+01 -8.659946e+02
    endloop
  endfacet
  facet normal -7.752396e-01 6.299713e-01 -4.625669e-02
    outer loop
      vertex 6.337674e+01 9.527503e+01 -8.927927e+02
      vertex 4.859392e+01 7.700000e+01 -8.939279e+02
      vertex 6.347647e+01 9.651936e+01 -8.775175e+02
    endloop
  endfacet
  facet normal 3.617732e-15 -1.000000e+00 5.989314e-15
    outer loop
      vertex 6.197446e+01 7.050000e+01 -8.780822e+02
      vertex 6.302569e+01 7.050000e+01 -8.597355e+02
      vertex 4.981919e+01 7.050000e+01 -8.659946e+02
    endloop
  endfacet
  facet normal -4.063617e-01 3.157748e-01 8.574126e-01
    outer loop
      vertex 6.385373e+01 9.520000e+01 -8.684398e+02
      vertex 4.981919e+01 7.050000e+01 -8.659946e+02
      vertex 6.302569e+01 7.050000e+01 -8.597355e+02
    endloop
  endfacet
  facet normal 1.716415e-01 -7.289689e-14 9.851595e-01
    outer loop
      vertex 6.385373e+01 9.520000e+01 -8.684398e+02
      vertex 4.981919e+01 7.700000e+01 -8.659946e+02
      vertex 4.981919e+01 7.050000e+01 -8.659946e+02
    endloop
  endfacet
  facet normal -9.606338e-01 -2.723104e-01 5.504257e-02
    outer loop
      vertex 7.445000e+01 2.830272e+01 -8.691133e+02
      vertex 6.302569e+01 7.050000e+01 -8.597355e+02
      vertex 6.197446e+01 7.050000e+01 -8.780822e+02
    endloop
  endfacet
  facet normal -7.615936e-02 3.336708e-01 9.396082e-01
    outer loop
      vertex 9.260067e+01 7.700000e+01 -8.596466e+02
      vertex 6.385373e+01 9.520000e+01 -8.684398e+02
      vertex 6.302569e+01 7.050000e+01 -8.597355e+02
    endloop
  endfacet
  facet normal -9.333981e-01 -2.973471e-01 2.008799e-01
    outer loop
      vertex 7.445000e+01 4.369596e+01 -8.463279e+02
      vertex 6.302569e+01 7.050000e+01 -8.597355e+02
      vertex 7.445000e+01 2.830272e+01 -8.691133e+02
    endloop
  endfacet
  facet normal -9.206184e-01 -3.904444e-01 3.874398e-03
    outer loop
      vertex 7.445000e+01 4.386510e+01 -8.292825e+02
      vertex 6.302569e+01 7.050000e+01 -8.597355e+02
      vertex 7.445000e+01 4.369596e+01 -8.463279e+02
    endloop
  endfacet
  facet normal -2.319337e-01 6.874138e-01 6.882362e-01
    outer loop
      vertex 9.260067e+01 5.203515e+01 -8.313261e+02
      vertex 6.302569e+01 7.050000e+01 -8.597355e+02
      vertex 7.445000e+01 4.386510e+01 -8.292825e+02
    endloop
  endfacet
  facet normal -1.645814e-01 7.399220e-01 6.522487e-01
    outer loop
      vertex 9.260067e+01 6.702714e+01 -8.483332e+02
      vertex 6.302569e+01 7.050000e+01 -8.597355e+02
      vertex 9.260067e+01 5.203515e+01 -8.313261e+02
    endloop
  endfacet
  facet normal -1.645814e-01 7.399220e-01 6.522487e-01
    outer loop
      vertex 9.260067e+01 6.702714e+01 -8.483332e+02
      vertex 9.260067e+01 7.700000e+01 -8.596466e+02
      vertex 6.302569e+01 7.050000e+01 -8.597355e+02
    endloop
  endfacet
  facet normal -8.037416e-01 -5.944236e-01 -2.569123e-02
    outer loop
      vertex 8.755000e+01 3.628854e+01 -8.866466e+02
      vertex 6.197446e+01 7.050000e+01 -8.780822e+02
      vertex 6.272396e+01 7.050000e+01 -9.015302e+02
    endloop
  endfacet
  facet normal -6.732249e-01 -3.387408e-01 -6.572845e-01
    outer loop
      vertex 8.755000e+01 3.628854e+01 -8.866466e+02
      vertex 7.445000e+01 2.830272e+01 -8.691133e+02
      vertex 6.197446e+01 7.050000e+01 -8.780822e+02
    endloop
  endfacet
  facet normal 3.164110e-01 3.080829e-01 -8.972007e-01
    outer loop
      vertex 7.361010e+01 9.520000e+01 -8.892095e+02
      vertex 6.272396e+01 7.050000e+01 -9.015302e+02
      vertex 6.337674e+01 9.527503e+01 -8.927927e+02
    endloop
  endfacet
  facet normal 3.482613e-01 -1.498471e-01 -9.253431e-01
    outer loop
      vertex 8.335503e+01 7.050000e+01 -8.937655e+02
      vertex 8.755000e+01 3.628854e+01 -8.866466e+02
      vertex 6.272396e+01 7.050000e+01 -9.015302e+02
    endloop
  endfacet
  facet normal 3.362903e-01 2.974934e-01 -8.935359e-01
    outer loop
      vertex 7.361010e+01 9.520000e+01 -8.892095e+02
      vertex 8.335503e+01 7.050000e+01 -8.937655e+02
      vertex 6.272396e+01 7.050000e+01 -9.015302e+02
    endloop
  endfacet
  facet normal 8.444198e-02 9.930939e-01 -8.144949e-02
    outer loop
      vertex 7.704925e+01 9.520000e+01 -8.795327e+02
      vertex 6.337674e+01 9.527503e+01 -8.927927e+02
      vertex 6.347647e+01 9.651936e+01 -8.775175e+02
    endloop
  endfacet
  facet normal 5.093911e-01 8.543486e-01 1.030013e-01
    outer loop
      vertex 9.260067e+01 7.700000e+01 -8.596466e+02
      vertex 6.347647e+01 9.651936e+01 -8.775175e+02
      vertex 6.385373e+01 9.520000e+01 -8.684398e+02
    endloop
  endfacet
  facet normal 1.646417e-01 7.883646e-01 5.927684e-01
    outer loop
      vertex 7.704925e+01 9.520000e+01 -8.795327e+02
      vertex 6.347647e+01 9.651936e+01 -8.775175e+02
      vertex 9.260067e+01 7.700000e+01 -8.596466e+02
    endloop
  endfacet
  facet normal 8.373590e-03 9.999605e-01 -2.975973e-03
    outer loop
      vertex 7.361010e+01 9.520000e+01 -8.892095e+02
      vertex 6.337674e+01 9.527503e+01 -8.927927e+02
      vertex 7.704925e+01 9.520000e+01 -8.795327e+02
    endloop
  endfacet
  facet normal 8.576219e-01 -9.417365e-02 -5.055847e-01
    outer loop
      vertex 8.335503e+01 -2.600000e+01 -8.937655e+02
      vertex 9.260067e+01 -2.600000e+01 -8.780822e+02
      vertex 8.004872e+01 -4.544000e+01 -8.957530e+02
    endloop
  endfacet
  facet normal 9.020977e-01 -3.046539e-01 -3.056234e-01
    outer loop
      vertex 8.563039e+01 -4.600000e+01 -8.787195e+02
      vertex 8.004872e+01 -4.544000e+01 -8.957530e+02
      vertex 9.260067e+01 -2.600000e+01 -8.780822e+02
    endloop
  endfacet
  facet normal 3.645052e-15 -1.000000e+00 6.006168e-15
    outer loop
      vertex 9.455000e+01 -2.600000e+01 -8.780822e+02
      vertex 9.260067e+01 -2.600000e+01 -8.780822e+02
      vertex 8.335503e+01 -2.600000e+01 -8.937655e+02
    endloop
  endfacet
  facet normal 9.407475e-01 -3.303094e-01 7.674471e-02
    outer loop
      vertex 9.260067e+01 -2.025127e+01 -8.533396e+02
      vertex 8.563039e+01 -4.600000e+01 -8.787195e+02
      vertex 9.260067e+01 -2.600000e+01 -8.780822e+02
    endloop
  endfacet
  facet normal -2.478835e-08 -9.740545e-01 2.263138e-01
    outer loop
      vertex 9.455000e+01 -2.025127e+01 -8.533396e+02
      vertex 9.260067e+01 -2.025127e+01 -8.533396e+02
      vertex 9.260067e+01 -2.600000e+01 -8.780822e+02
    endloop
  endfacet
  facet normal 1.721964e-14 -9.740545e-01 2.263138e-01
    outer loop
      vertex 9.455000e+01 -2.025127e+01 -8.533396e+02
      vertex 9.260067e+01 -2.600000e+01 -8.780822e+02
      vertex 9.455000e+01 -2.600000e+01 -8.780822e+02
    endloop
  endfacet
  facet normal 8.562878e-15 2.237313e-01 -9.746509e-01
    outer loop
      vertex 9.455000e+01 5.012439e+00 -8.866466e+02
      vertex 8.335503e+01 -2.600000e+01 -8.937655e+02
      vertex 9.260067e+01 5.012439e+00 -8.866466e+02
    endloop
  endfacet
  facet normal 5.365984e-01 2.980750e-14 -8.438378e-01
    outer loop
      vertex 9.455000e+01 5.012439e+00 -8.866466e+02
      vertex 9.455000e+01 -2.600000e+01 -8.866466e+02
      vertex 8.335503e+01 -2.600000e+01 -8.937655e+02
    endloop
  endfacet
  facet normal 3.342238e-15 -1.000000e+00 6.222321e-15
    outer loop
      vertex 9.455000e+01 -2.600000e+01 -8.780822e+02
      vertex 8.335503e+01 -2.600000e+01 -8.937655e+02
      vertex 9.455000e+01 -2.600000e+01 -8.866466e+02
    endloop
  endfacet
  facet normal 7.373367e-01 -5.648318e-01 3.705396e-01
    outer loop
      vertex 7.888694e+01 -4.544000e+01 -8.644471e+02
      vertex 8.563039e+01 -4.600000e+01 -8.787195e+02
      vertex 9.260067e+01 -2.025127e+01 -8.533396e+02
    endloop
  endfacet
  facet normal 4.126119e-01 -6.732126e-01 6.136255e-01
    outer loop
      vertex 1.025300e+02 3.514999e+00 -8.339421e+02
      vertex 9.260066e+01 -5.204559e+00 -8.368318e+02
      vertex 9.260067e+01 -2.025127e+01 -8.533396e+02
    endloop
  endfacet
  facet normal 1.138682e-07 -6.323071e-01 7.747179e-01
    outer loop
      vertex 1.025300e+02 3.514999e+00 -8.339421e+02
      vertex 9.260067e+01 -2.025127e+01 -8.533396e+02
      vertex 9.455000e+01 -2.025127e+01 -8.533396e+02
    endloop
  endfacet
  facet normal 1.112963e-27 2.907954e-14 -1.000000e+00
    outer loop
      vertex 9.455000e+01 5.012439e+00 -8.866466e+02
      vertex 9.260067e+01 5.012439e+00 -8.866466e+02
      vertex 9.260067e+01 3.628854e+01 -8.866466e+02
    endloop
  endfacet
  facet normal -2.568774e-01 -6.054122e-01 7.533194e-01
    outer loop
      vertex 9.259620e+01 8.626525e+00 -8.224346e+02
      vertex 7.445000e+01 9.723918e+00 -8.277405e+02
      vertex 8.405000e+01 4.767317e-01 -8.318985e+02
    endloop
  endfacet
  facet normal -2.751012e-01 -4.555349e-01 8.466447e-01
    outer loop
      vertex 9.260885e+01 1.621347e+01 -8.183484e+02
      vertex 7.445000e+01 9.723918e+00 -8.277405e+02
      vertex 9.259620e+01 8.626525e+00 -8.224346e+02
    endloop
  endfacet
  facet normal -1.000000e+00 -4.840037e-15 -5.787920e-15
    outer loop
      vertex 7.445000e+01 4.386510e+01 -8.292825e+02
      vertex 7.445000e+01 4.369596e+01 -8.463279e+02
      vertex 7.445000e+01 9.723918e+00 -8.277405e+02
    endloop
  endfacet
  facet normal -1.000000e+00 -4.893148e-15 -6.963809e-15
    outer loop
      vertex 7.445000e+01 2.881984e+01 -8.227922e+02
      vertex 7.445000e+01 4.386510e+01 -8.292825e+02
      vertex 7.445000e+01 9.723918e+00 -8.277405e+02
    endloop
  endfacet
  facet normal -4.557354e-01 -2.232766e-01 8.616570e-01
    outer loop
      vertex 8.405000e+01 3.115769e+01 -8.171089e+02
      vertex 7.445000e+01 2.881984e+01 -8.227922e+02
      vertex 7.445000e+01 9.723918e+00 -8.277405e+02
    endloop
  endfacet
  facet normal -6.816616e-01 -5.652464e-02 7.294810e-01
    outer loop
      vertex 8.405000e+01 1.650773e+01 -8.182441e+02
      vertex 8.405000e+01 3.115769e+01 -8.171089e+02
      vertex 7.445000e+01 9.723918e+00 -8.277405e+02
    endloop
  endfacet
  facet normal -2.038489e-02 -8.036741e-01 5.947204e-01
    outer loop
      vertex 9.260885e+01 1.621347e+01 -8.183484e+02
      vertex 8.405000e+01 1.650773e+01 -8.182441e+02
      vertex 7.445000e+01 9.723918e+00 -8.277405e+02
    endloop
  endfacet
  facet normal -7.920940e-02 -7.188879e-01 6.905984e-01
    outer loop
      vertex 9.259620e+01 8.626525e+00 -8.224346e+02
      vertex 8.405000e+01 4.767317e-01 -8.318985e+02
      vertex 9.260066e+01 -5.204559e+00 -8.368318e+02
    endloop
  endfacet
  facet normal 3.703188e-01 -6.698143e-01 6.435936e-01
    outer loop
      vertex 1.037500e+02 1.137258e+01 -8.259945e+02
      vertex 9.259620e+01 8.626525e+00 -8.224346e+02
      vertex 9.260066e+01 -5.204559e+00 -8.368318e+02
    endloop
  endfacet
  facet normal 4.185132e-01 -6.771526e-01 6.052364e-01
    outer loop
      vertex 1.025300e+02 3.514999e+00 -8.339421e+02
      vertex 1.037500e+02 1.137258e+01 -8.259945e+02
      vertex 9.260066e+01 -5.204559e+00 -8.368318e+02
    endloop
  endfacet
  facet normal 3.397225e-01 -4.464240e-01 8.278250e-01
    outer loop
      vertex 1.025300e+02 1.725389e+01 -8.218588e+02
      vertex 9.260885e+01 1.621347e+01 -8.183484e+02
      vertex 9.259620e+01 8.626525e+00 -8.224346e+02
    endloop
  endfacet
  facet normal 3.718327e-01 -4.811311e-01 7.938849e-01
    outer loop
      vertex 1.025300e+02 1.725389e+01 -8.218588e+02
      vertex 9.259620e+01 8.626525e+00 -8.224346e+02
      vertex 1.037500e+02 1.137258e+01 -8.259945e+02
    endloop
  endfacet
  facet normal -1.771406e-15 -2.037218e-01 -9.790288e-01
    outer loop
      vertex 8.335503e+01 7.050000e+01 -8.937655e+02
      vertex 9.260067e+01 3.628854e+01 -8.866466e+02
      vertex 8.755000e+01 3.628854e+01 -8.866466e+02
    endloop
  endfacet
  facet normal 5.301222e-01 -3.304074e-02 -8.472773e-01
    outer loop
      vertex 9.455000e+01 6.756465e+01 -8.866466e+02
      vertex 9.260067e+01 3.628854e+01 -8.866466e+02
      vertex 8.335503e+01 7.050000e+01 -8.937655e+02
    endloop
  endfacet
  facet normal 2.013932e-27 2.907954e-14 -1.000000e+00
    outer loop
      vertex 9.455000e+01 3.628854e+01 -8.866466e+02
      vertex 9.455000e+01 5.012439e+00 -8.866466e+02
      vertex 9.260067e+01 3.628854e+01 -8.866466e+02
    endloop
  endfacet
  facet normal 2.013932e-27 2.907954e-14 -1.000000e+00
    outer loop
      vertex 9.455000e+01 6.756465e+01 -8.866466e+02
      vertex 9.455000e+01 3.628854e+01 -8.866466e+02
      vertex 9.260067e+01 3.628854e+01 -8.866466e+02
    endloop
  endfacet
  facet normal -7.470430e-02 3.949922e-01 9.156421e-01
    outer loop
      vertex 9.260067e+01 5.203515e+01 -8.313261e+02
      vertex 7.445000e+01 4.386510e+01 -8.292825e+02
      vertex 7.445000e+01 2.881984e+01 -8.227922e+02
    endloop
  endfacet
  facet normal 4.273639e-02 8.965041e-01 -4.409693e-01
    outer loop
      vertex 9.258228e+01 3.078263e+01 -8.170445e+02
      vertex 7.445000e+01 2.881984e+01 -8.227922e+02
      vertex 8.405000e+01 3.115769e+01 -8.171089e+02
    endloop
  endfacet
  facet normal -3.169406e-01 2.441263e-01 9.164884e-01
    outer loop
      vertex 9.260124e+01 3.599209e+01 -8.184256e+02
      vertex 7.445000e+01 2.881984e+01 -8.227922e+02
      vertex 9.258228e+01 3.078263e+01 -8.170445e+02
    endloop
  endfacet
  facet normal -3.989592e-01 5.746070e-01 7.146036e-01
    outer loop
      vertex 9.260067e+01 5.203515e+01 -8.313261e+02
      vertex 7.445000e+01 2.881984e+01 -8.227922e+02
      vertex 9.260124e+01 3.599209e+01 -8.184256e+02
    endloop
  endfacet
  facet normal -1.092036e-02 -7.724992e-02 9.969520e-01
    outer loop
      vertex 9.258228e+01 3.078263e+01 -8.170445e+02
      vertex 8.405000e+01 3.115769e+01 -8.171089e+02
      vertex 8.405000e+01 1.650773e+01 -8.182441e+02
    endloop
  endfacet
  facet normal 9.071387e-03 -8.911754e-02 9.959798e-01
    outer loop
      vertex 9.258228e+01 3.078263e+01 -8.170445e+02
      vertex 8.405000e+01 1.650773e+01 -8.182441e+02
      vertex 9.260885e+01 1.621347e+01 -8.183484e+02
    endloop
  endfacet
  facet normal 3.436220e-01 -8.308811e-02 9.354252e-01
    outer loop
      vertex 1.025300e+02 3.059037e+01 -8.207158e+02
      vertex 9.258228e+01 3.078263e+01 -8.170445e+02
      vertex 9.260885e+01 1.621347e+01 -8.183484e+02
    endloop
  endfacet
  facet normal 3.399587e-01 -8.029988e-02 9.370059e-01
    outer loop
      vertex 1.025300e+02 1.725389e+01 -8.218588e+02
      vertex 1.025300e+02 3.059037e+01 -8.207158e+02
      vertex 9.260885e+01 1.621347e+01 -8.183484e+02
    endloop
  endfacet
  facet normal 3.402052e-01 2.398170e-01 9.092570e-01
    outer loop
      vertex 1.025300e+02 3.059037e+01 -8.207158e+02
      vertex 9.260124e+01 3.599209e+01 -8.184256e+02
      vertex 9.258228e+01 3.078263e+01 -8.170445e+02
    endloop
  endfacet
  facet normal 3.463699e-01 5.878639e-01 7.310567e-01
    outer loop
      vertex 1.037500e+02 4.639779e+01 -8.320754e+02
      vertex 9.260067e+01 5.203515e+01 -8.313261e+02
      vertex 9.260124e+01 3.599209e+01 -8.184256e+02
    endloop
  endfacet
  facet normal 3.595607e-01 5.768651e-01 7.334458e-01
    outer loop
      vertex 1.037500e+02 4.639779e+01 -8.320754e+02
      vertex 9.260124e+01 3.599209e+01 -8.184256e+02
      vertex 1.037500e+02 3.438284e+01 -8.226254e+02
    endloop
  endfacet
  facet normal 3.740796e-01 3.182696e-01 8.710734e-01
    outer loop
      vertex 1.025300e+02 3.059037e+01 -8.207158e+02
      vertex 1.037500e+02 3.438284e+01 -8.226254e+02
      vertex 9.260124e+01 3.599209e+01 -8.184256e+02
    endloop
  endfacet
  facet normal 3.758271e-01 3.093987e-01 -8.735138e-01
    outer loop
      vertex 9.455000e+01 7.700000e+01 -8.866466e+02
      vertex 8.335503e+01 7.050000e+01 -8.937655e+02
      vertex 7.361010e+01 9.520000e+01 -8.892095e+02
    endloop
  endfacet
  facet normal 5.365984e-01 4.228607e-14 -8.438378e-01
    outer loop
      vertex 9.455000e+01 7.700000e+01 -8.866466e+02
      vertex 9.455000e+01 6.756465e+01 -8.866466e+02
      vertex 8.335503e+01 7.050000e+01 -8.937655e+02
    endloop
  endfacet
  facet normal 3.901546e-01 6.907015e-01 6.088602e-01
    outer loop
      vertex 1.037500e+02 4.639779e+01 -8.320754e+02
      vertex 9.260067e+01 6.702714e+01 -8.483332e+02
      vertex 9.260067e+01 5.203515e+01 -8.313261e+02
    endloop
  endfacet
  facet normal -2.972015e-07 7.501515e-01 6.612660e-01
    outer loop
      vertex 9.455000e+01 7.700000e+01 -8.596466e+02
      vertex 9.260067e+01 7.700000e+01 -8.596466e+02
      vertex 9.260067e+01 6.702714e+01 -8.483332e+02
    endloop
  endfacet
  facet normal -2.971498e-07 7.376875e-01 6.751424e-01
    outer loop
      vertex 9.455000e+01 7.700000e+01 -8.596466e+02
      vertex 7.704925e+01 9.520000e+01 -8.795327e+02
      vertex 9.260067e+01 7.700000e+01 -8.596466e+02
    endloop
  endfacet
  facet normal 8.127067e-01 5.616035e-01 1.552714e-01
    outer loop
      vertex 1.037500e+02 5.047225e+01 -8.468124e+02
      vertex 9.260067e+01 6.702714e+01 -8.483332e+02
      vertex 1.037500e+02 4.639779e+01 -8.320754e+02
    endloop
  endfacet
  facet normal 6.655946e-01 4.992269e-01 5.547578e-01
    outer loop
      vertex 9.455000e+01 7.700000e+01 -8.596466e+02
      vertex 9.260067e+01 6.702714e+01 -8.483332e+02
      vertex 1.037500e+02 5.047225e+01 -8.468124e+02
    endloop
  endfacet
  facet normal 7.075890e-01 6.603613e-01 -2.514771e-01
    outer loop
      vertex 9.455000e+01 7.700000e+01 -8.780822e+02
      vertex 7.361010e+01 9.520000e+01 -8.892095e+02
      vertex 7.704925e+01 9.520000e+01 -8.795327e+02
    endloop
  endfacet
  facet normal 7.208182e-01 6.931242e-01 -3.848544e-16
    outer loop
      vertex 9.455000e+01 7.700000e+01 -8.780822e+02
      vertex 7.704925e+01 9.520000e+01 -8.795327e+02
      vertex 9.455000e+01 7.700000e+01 -8.596466e+02
    endloop
  endfacet
  facet normal 6.560019e-01 7.547592e-01 -1.743960e-15
    outer loop
      vertex 9.455000e+01 7.700000e+01 -8.866466e+02
      vertex 7.361010e+01 9.520000e+01 -8.892095e+02
      vertex 9.455000e+01 7.700000e+01 -8.780822e+02
    endloop
  endfacet
  facet normal 9.115058e-01 1.691088e-14 -4.112872e-01
    outer loop
      vertex 9.455000e+01 5.012439e+00 -8.866466e+02
      vertex 1.037500e+02 1.275430e+01 -8.662573e+02
      vertex 9.455000e+01 -2.600000e+01 -8.866466e+02
    endloop
  endfacet
  facet normal 9.729599e-01 -2.309739e-01 6.280449e-15
    outer loop
      vertex 9.455000e+01 -2.600000e+01 -8.780822e+02
      vertex 9.455000e+01 -2.600000e+01 -8.866466e+02
      vertex 1.037500e+02 1.275430e+01 -8.662573e+02
    endloop
  endfacet
  facet normal 9.175159e-01 -5.187791e-02 -3.943009e-01
    outer loop
      vertex 1.037500e+02 3.345828e+01 -8.689813e+02
      vertex 1.037500e+02 1.275430e+01 -8.662573e+02
      vertex 9.455000e+01 5.012439e+00 -8.866466e+02
    endloop
  endfacet
  facet normal 9.749268e-01 -2.051060e-01 -8.630883e-02
    outer loop
      vertex 1.037500e+02 5.012439e+00 -8.478594e+02
      vertex 9.455000e+01 -2.600000e+01 -8.780822e+02
      vertex 1.037500e+02 1.275430e+01 -8.662573e+02
    endloop
  endfacet
  facet normal 1.000000e+00 4.263947e-15 4.883942e-15
    outer loop
      vertex 1.037500e+02 5.047225e+01 -8.468124e+02
      vertex 1.037500e+02 5.012439e+00 -8.478594e+02
      vertex 1.037500e+02 1.275430e+01 -8.662573e+02
    endloop
  endfacet
  facet normal 1.000000e+00 4.113012e-15 5.176717e-15
    outer loop
      vertex 1.037500e+02 5.047225e+01 -8.468124e+02
      vertex 1.037500e+02 1.275430e+01 -8.662573e+02
      vertex 1.037500e+02 3.345828e+01 -8.689813e+02
    endloop
  endfacet
  facet normal 8.869278e-01 1.705900e-14 -4.619081e-01
    outer loop
      vertex 9.455000e+01 3.628854e+01 -8.866466e+02
      vertex 1.037500e+02 3.345828e+01 -8.689813e+02
      vertex 9.455000e+01 5.012439e+00 -8.866466e+02
    endloop
  endfacet
  facet normal 9.304840e-01 -3.568279e-01 8.290611e-02
    outer loop
      vertex 9.455000e+01 -2.025127e+01 -8.533396e+02
      vertex 9.455000e+01 -2.600000e+01 -8.780822e+02
      vertex 1.037500e+02 5.012439e+00 -8.478594e+02
    endloop
  endfacet
  facet normal 9.269364e-01 -3.602855e-01 1.048012e-01
    outer loop
      vertex 1.037500e+02 1.137258e+01 -8.259945e+02
      vertex 9.455000e+01 -2.025127e+01 -8.533396e+02
      vertex 1.037500e+02 5.012439e+00 -8.478594e+02
    endloop
  endfacet
  facet normal 1.000000e+00 4.163955e-15 5.288168e-15
    outer loop
      vertex 1.037500e+02 4.639779e+01 -8.320754e+02
      vertex 1.037500e+02 1.137258e+01 -8.259945e+02
      vertex 1.037500e+02 5.012439e+00 -8.478594e+02
    endloop
  endfacet
  facet normal 1.000000e+00 4.260466e-15 5.035120e-15
    outer loop
      vertex 1.037500e+02 5.047225e+01 -8.468124e+02
      vertex 1.037500e+02 4.639779e+01 -8.320754e+02
      vertex 1.037500e+02 5.012439e+00 -8.478594e+02
    endloop
  endfacet
  facet normal -5.732668e-01 6.249677e-01 -5.298873e-01
    outer loop
      vertex 1.025300e+02 3.514999e+00 -8.339421e+02
      vertex 9.455000e+01 -2.025127e+01 -8.533396e+02
      vertex 1.037500e+02 1.137258e+01 -8.259945e+02
    endloop
  endfacet
  facet normal 1.000000e+00 4.165297e-15 5.295900e-15
    outer loop
      vertex 1.037500e+02 4.639779e+01 -8.320754e+02
      vertex 1.037500e+02 3.438284e+01 -8.226254e+02
      vertex 1.037500e+02 1.137258e+01 -8.259945e+02
    endloop
  endfacet
  facet normal 8.943451e-01 -6.481217e-02 4.426582e-01
    outer loop
      vertex 1.025300e+02 3.059037e+01 -8.207158e+02
      vertex 1.037500e+02 1.137258e+01 -8.259945e+02
      vertex 1.037500e+02 3.438284e+01 -8.226254e+02
    endloop
  endfacet
  facet normal 9.475903e-01 -2.727962e-02 3.183213e-01
    outer loop
      vertex 1.025300e+02 1.725389e+01 -8.218588e+02
      vertex 1.037500e+02 1.137258e+01 -8.259945e+02
      vertex 1.025300e+02 3.059037e+01 -8.207158e+02
    endloop
  endfacet
  facet normal 8.882057e-01 1.213444e-01 -4.431323e-01
    outer loop
      vertex 9.455000e+01 6.756465e+01 -8.780822e+02
      vertex 1.037500e+02 3.345828e+01 -8.689813e+02
      vertex 9.455000e+01 3.628854e+01 -8.866466e+02
    endloop
  endfacet
  facet normal 9.624045e-01 2.154761e-01 -1.653710e-01
    outer loop
      vertex 9.455000e+01 6.756465e+01 -8.780822e+02
      vertex 1.037500e+02 5.047225e+01 -8.468124e+02
      vertex 1.037500e+02 3.345828e+01 -8.689813e+02
    endloop
  endfacet
  facet normal 1.000000e+00 3.634942e-15 4.977857e-15
    outer loop
      vertex 9.455000e+01 6.756465e+01 -8.780822e+02
      vertex 9.455000e+01 3.628854e+01 -8.866466e+02
      vertex 9.455000e+01 6.756465e+01 -8.866466e+02
    endloop
  endfacet
  facet normal 1.000000e+00 3.012257e-15 4.977857e-15
    outer loop
      vertex 9.455000e+01 7.700000e+01 -8.866466e+02
      vertex 9.455000e+01 6.756465e+01 -8.780822e+02
      vertex 9.455000e+01 6.756465e+01 -8.866466e+02
    endloop
  endfacet
  facet normal 9.545430e-01 2.653404e-01 -1.358017e-01
    outer loop
      vertex 9.455000e+01 7.700000e+01 -8.596466e+02
      vertex 1.037500e+02 5.047225e+01 -8.468124e+02
      vertex 9.455000e+01 6.756465e+01 -8.780822e+02
    endloop
  endfacet
  facet normal 1.000000e+00 3.012257e-15 5.395876e-15
    outer loop
      vertex 9.455000e+01 7.700000e+01 -8.780822e+02
      vertex 9.455000e+01 7.700000e+01 -8.596466e+02
      vertex 9.455000e+01 6.756465e+01 -8.780822e+02
    endloop
  endfacet
  facet normal 1.000000e+00 3.012257e-15 4.977857e-15
    outer loop
      vertex 9.455000e+01 7.700000e+01 -8.866466e+02
      vertex 9.455000e+01 7.700000e+01 -8.780822e+02
      vertex 9.455000e+01 6.756465e+01 -8.780822e+02
    endloop
  endfacet
endsolid SIM_ICUB3_R_ANKLE_1
