solid SIM_ICUB3_R_SHOULDER_2
  facet normal -9.318631e-01 -1.347608e-01 3.368541e-01
    outer loop
      vertex 1.393346e+02 -2.584974e+01 2.637376e+01
      vertex 1.391728e+02 -2.077836e+01 2.795485e+01
      vertex 1.352840e+02 -2.637604e+01 1.495759e+01
    endloop
  endfacet
  facet normal -9.241571e-01 -1.616460e-01 3.461275e-01
    outer loop
      vertex 1.339827e+02 -2.147673e+01 1.377127e+01
      vertex 1.352840e+02 -2.637604e+01 1.495759e+01
      vertex 1.391728e+02 -2.077836e+01 2.795485e+01
    endloop
  endfacet
  facet normal -5.130763e-02 -9.966204e-01 6.415100e-02
    outer loop
      vertex 1.496354e+02 -2.620720e+01 2.905876e+01
      vertex 1.393346e+02 -2.584974e+01 2.637376e+01
      vertex 1.352840e+02 -2.637604e+01 1.495759e+01
    endloop
  endfacet
  facet normal -1.587686e-01 -2.719868e-01 -9.491131e-01
    outer loop
      vertex 1.529056e+02 -2.432915e+01 1.142324e+01
      vertex 1.352840e+02 -2.637604e+01 1.495759e+01
      vertex 1.339827e+02 -2.147673e+01 1.377127e+01
    endloop
  endfacet
  facet normal -1.991765e-01 2.308404e-02 -9.796917e-01
    outer loop
      vertex 1.529056e+02 -2.432915e+01 1.142324e+01
      vertex 1.390020e+02 -2.840401e+01 1.415392e+01
      vertex 1.352840e+02 -2.637604e+01 1.495759e+01
    endloop
  endfacet
  facet normal -3.741922e-01 -8.409383e-01 3.909003e-01
    outer loop
      vertex 1.496354e+02 -2.620720e+01 2.905876e+01
      vertex 1.352840e+02 -2.637604e+01 1.495759e+01
      vertex 1.390020e+02 -2.840401e+01 1.415392e+01
    endloop
  endfacet
  facet normal -3.504186e-01 -2.889407e-01 8.909097e-01
    outer loop
      vertex 1.525451e+02 -2.245915e+01 3.266942e+01
      vertex 1.391728e+02 -2.077836e+01 2.795485e+01
      vertex 1.393346e+02 -2.584974e+01 2.637376e+01
    endloop
  endfacet
  facet normal -8.719993e-01 -3.554278e-01 3.365833e-01
    outer loop
      vertex 1.212989e+02 3.364695e+01 3.912082e+01
      vertex 1.339827e+02 -2.147673e+01 1.377127e+01
      vertex 1.391728e+02 -2.077836e+01 2.795485e+01
    endloop
  endfacet
  facet normal -3.486826e-01 -2.158229e-01 9.120531e-01
    outer loop
      vertex 1.433344e+02 3.435771e+01 4.259294e+01
      vertex 1.391728e+02 -2.077836e+01 2.795485e+01
      vertex 1.525451e+02 -2.245915e+01 3.266942e+01
    endloop
  endfacet
  facet normal -1.432714e-01 -2.438375e-01 9.591749e-01
    outer loop
      vertex 1.433344e+02 3.435771e+01 4.259294e+01
      vertex 1.212989e+02 3.364695e+01 3.912082e+01
      vertex 1.391728e+02 -2.077836e+01 2.795485e+01
    endloop
  endfacet
  facet normal -2.242310e-01 -5.802110e-01 7.829915e-01
    outer loop
      vertex 1.496354e+02 -2.620720e+01 2.905876e+01
      vertex 1.525451e+02 -2.245915e+01 3.266942e+01
      vertex 1.393346e+02 -2.584974e+01 2.637376e+01
    endloop
  endfacet
  facet normal -1.568839e-01 -9.853172e-01 -6.736013e-02
    outer loop
      vertex 1.366454e+02 -1.894233e+01 -2.950249e+01
      vertex 1.529056e+02 -2.432915e+01 1.142324e+01
      vertex 1.339827e+02 -2.147673e+01 1.377127e+01
    endloop
  endfacet
  facet normal -9.137952e-01 -3.983082e-01 -7.955511e-02
    outer loop
      vertex 1.119223e+02 2.920253e+01 1.342823e+01
      vertex 1.366454e+02 -1.894233e+01 -2.950249e+01
      vertex 1.339827e+02 -2.147673e+01 1.377127e+01
    endloop
  endfacet
  facet normal -8.511740e-01 -3.679775e-01 3.742932e-01
    outer loop
      vertex 1.212989e+02 3.364695e+01 3.912082e+01
      vertex 1.119223e+02 2.920253e+01 1.342823e+01
      vertex 1.339827e+02 -2.147673e+01 1.377127e+01
    endloop
  endfacet
  facet normal 2.961471e-01 -9.510120e-01 8.872968e-02
    outer loop
      vertex 1.529056e+02 -2.432915e+01 1.142324e+01
      vertex 1.525451e+02 -2.245915e+01 3.266942e+01
      vertex 1.390020e+02 -2.840401e+01 1.415392e+01
    endloop
  endfacet
  facet normal 8.170019e-01 -8.480862e-02 -5.703643e-01
    outer loop
      vertex 1.496354e+02 -2.620720e+01 2.905876e+01
      vertex 1.390020e+02 -2.840401e+01 1.415392e+01
      vertex 1.525451e+02 -2.245915e+01 3.266942e+01
    endloop
  endfacet
  facet normal 3.237752e-01 -9.419948e-01 8.840487e-02
    outer loop
      vertex 1.637153e+02 -1.905384e+01 2.804454e+01
      vertex 1.525451e+02 -2.245915e+01 3.266942e+01
      vertex 1.529056e+02 -2.432915e+01 1.142324e+01
    endloop
  endfacet
  facet normal 6.064061e-01 -4.039532e-02 7.941284e-01
    outer loop
      vertex 1.581750e+02 1.874880e+01 3.046652e+01
      vertex 1.433344e+02 3.435771e+01 4.259294e+01
      vertex 1.525451e+02 -2.245915e+01 3.266942e+01
    endloop
  endfacet
  facet normal 3.833209e-01 -2.995282e-03 9.236104e-01
    outer loop
      vertex 1.637153e+02 -1.905384e+01 2.804454e+01
      vertex 1.581750e+02 1.874880e+01 3.046652e+01
      vertex 1.525451e+02 -2.245915e+01 3.266942e+01
    endloop
  endfacet
  facet normal 3.939791e-01 -8.779230e-01 -2.720878e-01
    outer loop
      vertex 1.543649e+02 -8.182406e+00 -3.856307e+01
      vertex 1.529056e+02 -2.432915e+01 1.142324e+01
      vertex 1.366454e+02 -1.894233e+01 -2.950249e+01
    endloop
  endfacet
  facet normal 1.900005e-01 -9.358604e-01 -2.967578e-01
    outer loop
      vertex 1.827902e+02 -1.163586e+01 -9.472806e+00
      vertex 1.529056e+02 -2.432915e+01 1.142324e+01
      vertex 1.543649e+02 -8.182406e+00 -3.856307e+01
    endloop
  endfacet
  facet normal 4.060625e-01 -9.134799e-01 2.583911e-02
    outer loop
      vertex 1.637153e+02 -1.905384e+01 2.804454e+01
      vertex 1.529056e+02 -2.432915e+01 1.142324e+01
      vertex 1.827902e+02 -1.163586e+01 -9.472806e+00
    endloop
  endfacet
  facet normal -9.334500e-01 -2.497170e-01 -2.575123e-01
    outer loop
      vertex 1.224892e+02 3.117721e+01 -2.679021e+01
      vertex 1.366454e+02 -1.894233e+01 -2.950249e+01
      vertex 1.119223e+02 2.920253e+01 1.342823e+01
    endloop
  endfacet
  facet normal -2.857121e-01 -2.886248e-02 -9.578808e-01
    outer loop
      vertex 1.516206e+02 2.476238e+01 -3.528609e+01
      vertex 1.366454e+02 -1.894233e+01 -2.950249e+01
      vertex 1.224892e+02 3.117721e+01 -2.679021e+01
    endloop
  endfacet
  facet normal -4.774678e-01 4.749634e-02 -8.773646e-01
    outer loop
      vertex 1.516206e+02 2.476238e+01 -3.528609e+01
      vertex 1.543649e+02 -8.182406e+00 -3.856307e+01
      vertex 1.366454e+02 -1.894233e+01 -2.950249e+01
    endloop
  endfacet
  facet normal -9.579357e-01 1.506037e-01 -2.442903e-01
    outer loop
      vertex 1.148953e+02 4.263282e+01 1.005014e+01
      vertex 1.224892e+02 3.117721e+01 -2.679021e+01
      vertex 1.119223e+02 2.920253e+01 1.342823e+01
    endloop
  endfacet
  facet normal -8.927454e-01 3.662251e-01 2.624592e-01
    outer loop
      vertex 1.249535e+02 4.401042e+01 3.709097e+01
      vertex 1.119223e+02 2.920253e+01 1.342823e+01
      vertex 1.212989e+02 3.364695e+01 3.912082e+01
    endloop
  endfacet
  facet normal -9.040595e-01 2.811047e-01 3.219574e-01
    outer loop
      vertex 1.249535e+02 4.401042e+01 3.709097e+01
      vertex 1.148953e+02 4.263282e+01 1.005014e+01
      vertex 1.119223e+02 2.920253e+01 1.342823e+01
    endloop
  endfacet
  facet normal -8.319261e-02 6.370855e-01 -7.662904e-01
    outer loop
      vertex 1.528519e+02 4.770640e+01 -1.634437e+01
      vertex 1.516206e+02 2.476238e+01 -3.528609e+01
      vertex 1.224892e+02 3.117721e+01 -2.679021e+01
    endloop
  endfacet
  facet normal -9.604344e-01 -2.514268e-01 -1.197929e-01
    outer loop
      vertex 1.190464e+02 4.121376e+01 -2.025252e+01
      vertex 1.224892e+02 3.117721e+01 -2.679021e+01
      vertex 1.148953e+02 4.263282e+01 1.005014e+01
    endloop
  endfacet
  facet normal -7.476475e-03 5.439887e-01 -8.390592e-01
    outer loop
      vertex 1.528519e+02 4.770640e+01 -1.634437e+01
      vertex 1.224892e+02 3.117721e+01 -2.679021e+01
      vertex 1.190464e+02 4.121376e+01 -2.025252e+01
    endloop
  endfacet
  facet normal 2.292974e-01 1.152385e-01 -9.665106e-01
    outer loop
      vertex 1.775653e+02 1.810765e+01 -2.992436e+01
      vertex 1.543649e+02 -8.182406e+00 -3.856307e+01
      vertex 1.516206e+02 2.476238e+01 -3.528609e+01
    endloop
  endfacet
  facet normal 5.653899e-01 -2.395990e-01 -7.892570e-01
    outer loop
      vertex 1.775653e+02 1.810765e+01 -2.992436e+01
      vertex 1.840695e+02 -8.780578e+00 -1.710241e+01
      vertex 1.543649e+02 -8.182406e+00 -3.856307e+01
    endloop
  endfacet
  facet normal 2.069450e-01 -9.271745e-01 -3.122839e-01
    outer loop
      vertex 1.827902e+02 -1.163586e+01 -9.472806e+00
      vertex 1.543649e+02 -8.182406e+00 -3.856307e+01
      vertex 1.840695e+02 -8.780578e+00 -1.710241e+01
    endloop
  endfacet
  facet normal 8.674266e-02 6.314690e-01 -7.705340e-01
    outer loop
      vertex 1.678912e+02 4.849783e+01 -1.400272e+01
      vertex 1.516206e+02 2.476238e+01 -3.528609e+01
      vertex 1.528519e+02 4.770640e+01 -1.634437e+01
    endloop
  endfacet
  facet normal 2.982633e-01 5.157266e-01 -8.031594e-01
    outer loop
      vertex 1.678912e+02 4.849783e+01 -1.400272e+01
      vertex 1.775653e+02 1.810765e+01 -2.992436e+01
      vertex 1.516206e+02 2.476238e+01 -3.528609e+01
    endloop
  endfacet
  facet normal -1.579651e-01 2.970567e-01 9.417029e-01
    outer loop
      vertex 1.463557e+02 4.521178e+01 3.967586e+01
      vertex 1.212989e+02 3.364695e+01 3.912082e+01
      vertex 1.433344e+02 3.435771e+01 4.259294e+01
    endloop
  endfacet
  facet normal -1.295228e-01 2.343878e-01 9.634761e-01
    outer loop
      vertex 1.463557e+02 4.521178e+01 3.967586e+01
      vertex 1.249535e+02 4.401042e+01 3.709097e+01
      vertex 1.212989e+02 3.364695e+01 3.912082e+01
    endloop
  endfacet
  facet normal 6.918886e-01 1.452636e-03 7.220028e-01
    outer loop
      vertex 1.548310e+02 4.754653e+01 3.154934e+01
      vertex 1.463557e+02 4.521178e+01 3.967586e+01
      vertex 1.433344e+02 3.435771e+01 4.259294e+01
    endloop
  endfacet
  facet normal 6.622577e-01 4.878750e-02 7.476861e-01
    outer loop
      vertex 1.548310e+02 4.754653e+01 3.154934e+01
      vertex 1.433344e+02 3.435771e+01 4.259294e+01
      vertex 1.581750e+02 1.874880e+01 3.046652e+01
    endloop
  endfacet
  facet normal -2.763088e-01 9.575050e-01 -8.269009e-02
    outer loop
      vertex 1.550738e+02 5.407600e+01 8.299125e+00
      vertex 1.190464e+02 4.121376e+01 -2.025252e+01
      vertex 1.148953e+02 4.263282e+01 1.005014e+01
    endloop
  endfacet
  facet normal -2.608193e-01 9.455587e-01 1.946590e-01
    outer loop
      vertex 1.463557e+02 4.521178e+01 3.967586e+01
      vertex 1.550738e+02 5.407600e+01 8.299125e+00
      vertex 1.148953e+02 4.263282e+01 1.005014e+01
    endloop
  endfacet
  facet normal -5.223340e-02 9.981405e-01 -3.142146e-02
    outer loop
      vertex 1.463557e+02 4.521178e+01 3.967586e+01
      vertex 1.148953e+02 4.263282e+01 1.005014e+01
      vertex 1.249535e+02 4.401042e+01 3.709097e+01
    endloop
  endfacet
  facet normal -1.572451e-01 9.594805e-01 -2.338188e-01
    outer loop
      vertex 1.528519e+02 4.770640e+01 -1.634437e+01
      vertex 1.190464e+02 4.121376e+01 -2.025252e+01
      vertex 1.550738e+02 5.407600e+01 8.299125e+00
    endloop
  endfacet
  facet normal -6.478190e-02 9.675483e-01 -2.442409e-01
    outer loop
      vertex 1.638807e+02 5.194424e+01 -2.481630e+00
      vertex 1.528519e+02 4.770640e+01 -1.634437e+01
      vertex 1.550738e+02 5.407600e+01 8.299125e+00
    endloop
  endfacet
  facet normal -6.028555e-03 9.627540e-01 2.703118e-01
    outer loop
      vertex 1.548310e+02 4.754653e+01 3.154934e+01
      vertex 1.550738e+02 5.407600e+01 8.299125e+00
      vertex 1.463557e+02 4.521178e+01 3.967586e+01
    endloop
  endfacet
  facet normal 4.954603e-01 8.349175e-01 2.396493e-01
    outer loop
      vertex 1.548310e+02 4.754653e+01 3.154934e+01
      vertex 1.638807e+02 5.194424e+01 -2.481630e+00
      vertex 1.550738e+02 5.407600e+01 8.299125e+00
    endloop
  endfacet
  facet normal -5.493030e-03 9.575119e-01 -2.883414e-01
    outer loop
      vertex 1.678912e+02 4.849783e+01 -1.400272e+01
      vertex 1.528519e+02 4.770640e+01 -1.634437e+01
      vertex 1.638807e+02 5.194424e+01 -2.481630e+00
    endloop
  endfacet
  facet normal 8.262850e-01 -6.681915e-02 -5.592748e-01
    outer loop
      vertex 1.775653e+02 1.810765e+01 -2.992436e+01
      vertex 1.884412e+02 2.201095e+01 -1.432231e+01
      vertex 1.840695e+02 -8.780578e+00 -1.710241e+01
    endloop
  endfacet
  facet normal 9.827687e-01 -1.493633e-01 1.088862e-01
    outer loop
      vertex 1.827902e+02 -1.163586e+01 -9.472806e+00
      vertex 1.840695e+02 -8.780578e+00 -1.710241e+01
      vertex 1.884412e+02 2.201095e+01 -1.432231e+01
    endloop
  endfacet
  facet normal 5.358103e-01 6.518982e-01 -5.365968e-01
    outer loop
      vertex 1.638807e+02 5.194424e+01 -2.481630e+00
      vertex 1.884412e+02 2.201095e+01 -1.432231e+01
      vertex 1.775653e+02 1.810765e+01 -2.992436e+01
    endloop
  endfacet
  facet normal 8.291017e-01 -5.911771e-02 5.559636e-01
    outer loop
      vertex 1.581750e+02 1.874880e+01 3.046652e+01
      vertex 1.827902e+02 -1.163586e+01 -9.472806e+00
      vertex 1.884412e+02 2.201095e+01 -1.432231e+01
    endloop
  endfacet
  facet normal 8.237288e-01 7.451699e-02 5.620659e-01
    outer loop
      vertex 1.548310e+02 4.754653e+01 3.154934e+01
      vertex 1.581750e+02 1.874880e+01 3.046652e+01
      vertex 1.884412e+02 2.201095e+01 -1.432231e+01
    endloop
  endfacet
  facet normal 7.934650e-01 5.399765e-01 2.807821e-01
    outer loop
      vertex 1.548310e+02 4.754653e+01 3.154934e+01
      vertex 1.884412e+02 2.201095e+01 -1.432231e+01
      vertex 1.638807e+02 5.194424e+01 -2.481630e+00
    endloop
  endfacet
  facet normal 9.466380e-01 1.526172e-01 2.838740e-01
    outer loop
      vertex 1.678912e+02 4.849783e+01 -1.400272e+01
      vertex 1.638807e+02 5.194424e+01 -2.481630e+00
      vertex 1.775653e+02 1.810765e+01 -2.992436e+01
    endloop
  endfacet
  facet normal 8.789888e-01 9.893849e-02 4.664653e-01
    outer loop
      vertex 1.637153e+02 -1.905384e+01 2.804454e+01
      vertex 1.827902e+02 -1.163586e+01 -9.472806e+00
      vertex 1.581750e+02 1.874880e+01 3.046652e+01
    endloop
  endfacet
endsolid SIM_ICUB3_R_SHOULDER_2
