solid SIM_ICUB3_L_FOOT_FRONT
  facet normal -8.458263e-01 -5.314676e-01 -4.604390e-02
    outer loop
      vertex -1.128675e+02 5.114084e+01 -9.404466e+02
      vertex -1.146246e+02 5.393740e+01 -9.404466e+02
      vertex -1.125998e+02 5.112759e+01 -9.452105e+02
    endloop
  endfacet
  facet normal -8.090141e-01 -5.877824e-01 2.817766e-03
    outer loop
      vertex -1.143611e+02 5.355178e+01 -9.452105e+02
      vertex -1.125998e+02 5.112759e+01 -9.452105e+02
      vertex -1.146246e+02 5.393740e+01 -9.404466e+02
    endloop
  endfacet
  facet normal -3.302372e-01 -9.437636e-01 -1.592885e-02
    outer loop
      vertex -1.097500e+02 5.005000e+01 -9.404466e+02
      vertex -1.128675e+02 5.114084e+01 -9.404466e+02
      vertex -1.125998e+02 5.112759e+01 -9.452105e+02
    endloop
  endfacet
  facet normal -4.077278e-01 -2.962312e-01 -8.637159e-01
    outer loop
      vertex -1.108118e+02 5.227072e+01 -9.464466e+02
      vertex -1.125998e+02 5.112759e+01 -9.452105e+02
      vertex -1.143611e+02 5.355178e+01 -9.452105e+02
    endloop
  endfacet
  facet normal -3.063111e-01 -9.513945e-01 -3.196762e-02
    outer loop
      vertex -1.097500e+02 5.020921e+01 -9.451850e+02
      vertex -1.097500e+02 5.005000e+01 -9.404466e+02
      vertex -1.125998e+02 5.112759e+01 -9.452105e+02
    endloop
  endfacet
  facet normal -1.795091e-01 -5.791260e-01 -7.952293e-01
    outer loop
      vertex -1.108118e+02 5.227072e+01 -9.464466e+02
      vertex -1.097500e+02 5.020921e+01 -9.451850e+02
      vertex -1.125998e+02 5.112759e+01 -9.452105e+02
    endloop
  endfacet
  facet normal 0.000000e+00 0.000000e+00 1.000000e+00
    outer loop
      vertex -1.524516e+01 5.288058e+01 -9.404466e+02
      vertex -1.146246e+02 5.393740e+01 -9.404466e+02
      vertex -1.128675e+02 5.114084e+01 -9.404466e+02
    endloop
  endfacet
  facet normal -9.984742e-01 -8.597579e-03 -5.454734e-02
    outer loop
      vertex -1.147500e+02 6.849583e+01 -9.404466e+02
      vertex -1.143611e+02 5.355178e+01 -9.452105e+02
      vertex -1.146246e+02 5.393740e+01 -9.404466e+02
    endloop
  endfacet
  facet normal 0.000000e+00 0.000000e+00 1.000000e+00
    outer loop
      vertex -1.475000e+01 6.849583e+01 -9.404466e+02
      vertex -1.147500e+02 6.849583e+01 -9.404466e+02
      vertex -1.146246e+02 5.393740e+01 -9.404466e+02
    endloop
  endfacet
  facet normal 0.000000e+00 0.000000e+00 1.000000e+00
    outer loop
      vertex -1.524516e+01 5.288058e+01 -9.404466e+02
      vertex -1.475000e+01 6.849583e+01 -9.404466e+02
      vertex -1.146246e+02 5.393740e+01 -9.404466e+02
    endloop
  endfacet
  facet normal 0.000000e+00 0.000000e+00 1.000000e+00
    outer loop
      vertex -1.858766e+01 5.019276e+01 -9.404466e+02
      vertex -1.128675e+02 5.114084e+01 -9.404466e+02
      vertex -1.097500e+02 5.005000e+01 -9.404466e+02
    endloop
  endfacet
  facet normal 0.000000e+00 0.000000e+00 1.000000e+00
    outer loop
      vertex -1.858766e+01 5.019276e+01 -9.404466e+02
      vertex -1.524516e+01 5.288058e+01 -9.404466e+02
      vertex -1.128675e+02 5.114084e+01 -9.404466e+02
    endloop
  endfacet
  facet normal -3.307810e-01 -5.880608e-03 -9.436892e-01
    outer loop
      vertex -1.111003e+02 6.849583e+01 -9.464466e+02
      vertex -1.108118e+02 5.227072e+01 -9.464466e+02
      vertex -1.143611e+02 5.355178e+01 -9.452105e+02
    endloop
  endfacet
  facet normal -9.972846e-01 -2.492553e-03 -7.360125e-02
    outer loop
      vertex -1.143680e+02 6.849583e+01 -9.456222e+02
      vertex -1.143611e+02 5.355178e+01 -9.452105e+02
      vertex -1.147500e+02 6.849583e+01 -9.404466e+02
    endloop
  endfacet
  facet normal -2.445404e-01 -2.681391e-02 -9.692683e-01
    outer loop
      vertex -1.111003e+02 6.849583e+01 -9.464466e+02
      vertex -1.143611e+02 5.355178e+01 -9.452105e+02
      vertex -1.143680e+02 6.849583e+01 -9.456222e+02
    endloop
  endfacet
  facet normal 4.423116e-16 -9.994360e-01 -3.358186e-02
    outer loop
      vertex -2.947380e+01 5.020921e+01 -9.451850e+02
      vertex -1.097500e+02 5.005000e+01 -9.404466e+02
      vertex -1.097500e+02 5.020921e+01 -9.451850e+02
    endloop
  endfacet
  facet normal 0.000000e+00 0.000000e+00 1.000000e+00
    outer loop
      vertex -2.947380e+01 5.005000e+01 -9.404466e+02
      vertex -1.858766e+01 5.019276e+01 -9.404466e+02
      vertex -1.097500e+02 5.005000e+01 -9.404466e+02
    endloop
  endfacet
  facet normal 3.627085e-15 -9.994360e-01 -3.358186e-02
    outer loop
      vertex -2.947380e+01 5.020921e+01 -9.451850e+02
      vertex -2.947380e+01 5.005000e+01 -9.404466e+02
      vertex -1.097500e+02 5.005000e+01 -9.404466e+02
    endloop
  endfacet
  facet normal -7.221474e-03 -5.246790e-01 -8.512695e-01
    outer loop
      vertex -9.477500e+01 5.205000e+01 -9.464466e+02
      vertex -1.097500e+02 5.020921e+01 -9.451850e+02
      vertex -1.108118e+02 5.227072e+01 -9.464466e+02
    endloop
  endfacet
  facet normal 2.503712e-16 -5.653298e-01 -8.248650e-01
    outer loop
      vertex -2.947380e+01 5.205000e+01 -9.464466e+02
      vertex -2.947380e+01 5.020921e+01 -9.451850e+02
      vertex -1.097500e+02 5.020921e+01 -9.451850e+02
    endloop
  endfacet
  facet normal 8.053610e-17 -5.653298e-01 -8.248650e-01
    outer loop
      vertex -2.947380e+01 5.205000e+01 -9.464466e+02
      vertex -1.097500e+02 5.020921e+01 -9.451850e+02
      vertex -9.477500e+01 5.205000e+01 -9.464466e+02
    endloop
  endfacet
  facet normal -4.193326e-15 -7.454873e-17 -1.000000e+00
    outer loop
      vertex -2.947380e+01 5.205000e+01 -9.464466e+02
      vertex -1.108118e+02 5.227072e+01 -9.464466e+02
      vertex -1.111003e+02 6.849583e+01 -9.464466e+02
    endloop
  endfacet
  facet normal -3.481922e-15 2.620809e-13 -1.000000e+00
    outer loop
      vertex -2.947380e+01 5.205000e+01 -9.464466e+02
      vertex -9.477500e+01 5.205000e+01 -9.464466e+02
      vertex -1.108118e+02 5.227072e+01 -9.464466e+02
    endloop
  endfacet
  facet normal 0.000000e+00 0.000000e+00 1.000000e+00
    outer loop
      vertex -9.477500e+01 1.192667e+02 -9.404466e+02
      vertex -1.147500e+02 1.531139e+02 -9.404466e+02
      vertex -1.147500e+02 6.849583e+01 -9.404466e+02
    endloop
  endfacet
  facet normal -9.972877e-01 -3.684582e-15 -7.360148e-02
    outer loop
      vertex -1.143680e+02 6.849583e+01 -9.456222e+02
      vertex -1.147500e+02 6.849583e+01 -9.404466e+02
      vertex -1.147500e+02 1.531139e+02 -9.404466e+02
    endloop
  endfacet
  facet normal 0.000000e+00 0.000000e+00 1.000000e+00
    outer loop
      vertex -2.947380e+01 8.541944e+01 -9.404466e+02
      vertex -1.147500e+02 6.849583e+01 -9.404466e+02
      vertex -1.475000e+01 6.849583e+01 -9.404466e+02
    endloop
  endfacet
  facet normal 0.000000e+00 0.000000e+00 1.000000e+00
    outer loop
      vertex -9.477500e+01 8.541944e+01 -9.404466e+02
      vertex -9.477500e+01 1.192667e+02 -9.404466e+02
      vertex -1.147500e+02 6.849583e+01 -9.404466e+02
    endloop
  endfacet
  facet normal 0.000000e+00 0.000000e+00 1.000000e+00
    outer loop
      vertex -6.212440e+01 8.541944e+01 -9.404466e+02
      vertex -9.477500e+01 8.541944e+01 -9.404466e+02
      vertex -1.147500e+02 6.849583e+01 -9.404466e+02
    endloop
  endfacet
  facet normal 0.000000e+00 0.000000e+00 1.000000e+00
    outer loop
      vertex -2.947380e+01 8.541944e+01 -9.404466e+02
      vertex -6.212440e+01 8.541944e+01 -9.404466e+02
      vertex -1.147500e+02 6.849583e+01 -9.404466e+02
    endloop
  endfacet
  facet normal 0.000000e+00 0.000000e+00 1.000000e+00
    outer loop
      vertex -1.663255e+01 1.659592e+02 -9.404466e+02
      vertex -1.142548e+02 1.642194e+02 -9.404466e+02
      vertex -1.147500e+02 1.531139e+02 -9.404466e+02
    endloop
  endfacet
  facet normal -9.963033e-01 4.442156e-02 -7.352883e-02
    outer loop
      vertex -1.143680e+02 1.531139e+02 -9.456222e+02
      vertex -1.147500e+02 1.531139e+02 -9.404466e+02
      vertex -1.142548e+02 1.642194e+02 -9.404466e+02
    endloop
  endfacet
  facet normal 0.000000e+00 0.000000e+00 1.000000e+00
    outer loop
      vertex -1.475000e+01 1.531139e+02 -9.404466e+02
      vertex -1.663255e+01 1.659592e+02 -9.404466e+02
      vertex -1.147500e+02 1.531139e+02 -9.404466e+02
    endloop
  endfacet
  facet normal 0.000000e+00 0.000000e+00 1.000000e+00
    outer loop
      vertex -7.844970e+01 1.361903e+02 -9.404466e+02
      vertex -1.475000e+01 1.531139e+02 -9.404466e+02
      vertex -1.147500e+02 1.531139e+02 -9.404466e+02
    endloop
  endfacet
  facet normal 0.000000e+00 0.000000e+00 1.000000e+00
    outer loop
      vertex -9.477500e+01 1.192667e+02 -9.404466e+02
      vertex -7.844970e+01 1.361903e+02 -9.404466e+02
      vertex -1.147500e+02 1.531139e+02 -9.404466e+02
    endloop
  endfacet
  facet normal -9.972877e-01 -4.719884e-15 -7.360148e-02
    outer loop
      vertex -1.143680e+02 1.531139e+02 -9.456222e+02
      vertex -1.143680e+02 6.849583e+01 -9.456222e+02
      vertex -1.147500e+02 1.531139e+02 -9.404466e+02
    endloop
  endfacet
  facet normal 0.000000e+00 0.000000e+00 1.000000e+00
    outer loop
      vertex -1.663255e+01 1.659592e+02 -9.404466e+02
      vertex -1.107510e+02 1.669372e+02 -9.404466e+02
      vertex -1.142548e+02 1.642194e+02 -9.404466e+02
    endloop
  endfacet
  facet normal -6.099942e-01 7.864220e-01 -9.719873e-02
    outer loop
      vertex -1.143611e+02 1.635482e+02 -9.452105e+02
      vertex -1.142548e+02 1.642194e+02 -9.404466e+02
      vertex -1.107510e+02 1.669372e+02 -9.404466e+02
    endloop
  endfacet
  facet normal -9.997508e-01 -2.128500e-04 2.232127e-02
    outer loop
      vertex -1.143611e+02 1.635482e+02 -9.452105e+02
      vertex -1.143680e+02 1.531139e+02 -9.456222e+02
      vertex -1.142548e+02 1.642194e+02 -9.404466e+02
    endloop
  endfacet
  facet normal 0.000000e+00 0.000000e+00 1.000000e+00
    outer loop
      vertex -2.947380e+01 1.670500e+02 -9.404466e+02
      vertex -9.477500e+01 1.670500e+02 -9.404466e+02
      vertex -1.107510e+02 1.669372e+02 -9.404466e+02
    endloop
  endfacet
  facet normal -6.949072e-03 9.843493e-01 -1.760912e-01
    outer loop
      vertex -1.103610e+02 1.659134e+02 -9.461853e+02
      vertex -1.107510e+02 1.669372e+02 -9.404466e+02
      vertex -9.477500e+01 1.670500e+02 -9.404466e+02
    endloop
  endfacet
  facet normal 0.000000e+00 0.000000e+00 1.000000e+00
    outer loop
      vertex -1.663255e+01 1.659592e+02 -9.404466e+02
      vertex -2.947380e+01 1.670500e+02 -9.404466e+02
      vertex -1.107510e+02 1.669372e+02 -9.404466e+02
    endloop
  endfacet
  facet normal -5.330812e-01 8.259087e-01 -1.835736e-01
    outer loop
      vertex -1.103610e+02 1.659134e+02 -9.461853e+02
      vertex -1.143611e+02 1.635482e+02 -9.452105e+02
      vertex -1.107510e+02 1.669372e+02 -9.404466e+02
    endloop
  endfacet
  facet normal -3.875669e-15 9.894035e-01 -1.451918e-01
    outer loop
      vertex -9.477500e+01 1.662256e+02 -9.460646e+02
      vertex -9.477500e+01 1.670500e+02 -9.404466e+02
      vertex -2.947380e+01 1.670500e+02 -9.404466e+02
    endloop
  endfacet
  facet normal -1.869133e-02 9.892307e-01 -1.451664e-01
    outer loop
      vertex -9.477500e+01 1.662256e+02 -9.460646e+02
      vertex -1.103610e+02 1.659134e+02 -9.461853e+02
      vertex -9.477500e+01 1.670500e+02 -9.404466e+02
    endloop
  endfacet
  facet normal 8.375291e-02 9.859273e-01 -1.446817e-01
    outer loop
      vertex -2.947380e+01 1.662256e+02 -9.460646e+02
      vertex -2.947380e+01 1.670500e+02 -9.404466e+02
      vertex -1.663255e+01 1.659592e+02 -9.404466e+02
    endloop
  endfacet
  facet normal -4.456119e-15 9.894035e-01 -1.451918e-01
    outer loop
      vertex -2.947380e+01 1.662256e+02 -9.460646e+02
      vertex -9.477500e+01 1.662256e+02 -9.460646e+02
      vertex -2.947380e+01 1.670500e+02 -9.404466e+02
    endloop
  endfacet
  facet normal 9.639013e-01 1.412654e-01 -2.256952e-01
    outer loop
      vertex -1.613197e+01 1.531139e+02 -9.463487e+02
      vertex -1.663255e+01 1.659592e+02 -9.404466e+02
      vertex -1.475000e+01 1.531139e+02 -9.404466e+02
    endloop
  endfacet
  facet normal 4.996624e-02 9.965042e-01 -6.695326e-02
    outer loop
      vertex -1.715506e+01 1.656216e+02 -9.458603e+02
      vertex -2.947380e+01 1.662256e+02 -9.460646e+02
      vertex -1.663255e+01 1.659592e+02 -9.404466e+02
    endloop
  endfacet
  facet normal 9.912492e-01 8.502471e-02 -1.009744e-01
    outer loop
      vertex -1.715506e+01 1.656216e+02 -9.458603e+02
      vertex -1.663255e+01 1.659592e+02 -9.404466e+02
      vertex -1.613197e+01 1.531139e+02 -9.463487e+02
    endloop
  endfacet
  facet normal 0.000000e+00 0.000000e+00 1.000000e+00
    outer loop
      vertex -2.947380e+01 8.541944e+01 -9.404466e+02
      vertex -1.475000e+01 6.849583e+01 -9.404466e+02
      vertex -1.475000e+01 1.531139e+02 -9.404466e+02
    endloop
  endfacet
  facet normal 9.736655e-01 3.594734e-15 -2.279814e-01
    outer loop
      vertex -1.613197e+01 1.531139e+02 -9.463487e+02
      vertex -1.475000e+01 1.531139e+02 -9.404466e+02
      vertex -1.475000e+01 6.849583e+01 -9.404466e+02
    endloop
  endfacet
  facet normal 0.000000e+00 0.000000e+00 1.000000e+00
    outer loop
      vertex -4.579910e+01 1.361903e+02 -9.404466e+02
      vertex -4.478414e+01 1.198159e+02 -9.404466e+02
      vertex -1.475000e+01 1.531139e+02 -9.404466e+02
    endloop
  endfacet
  facet normal 0.000000e+00 0.000000e+00 1.000000e+00
    outer loop
      vertex -2.947380e+01 1.192667e+02 -9.404466e+02
      vertex -1.475000e+01 1.531139e+02 -9.404466e+02
      vertex -4.478414e+01 1.198159e+02 -9.404466e+02
    endloop
  endfacet
  facet normal 0.000000e+00 0.000000e+00 1.000000e+00
    outer loop
      vertex -7.844970e+01 1.361903e+02 -9.404466e+02
      vertex -4.579910e+01 1.361903e+02 -9.404466e+02
      vertex -1.475000e+01 1.531139e+02 -9.404466e+02
    endloop
  endfacet
  facet normal 0.000000e+00 0.000000e+00 1.000000e+00
    outer loop
      vertex -2.947380e+01 1.023431e+02 -9.404466e+02
      vertex -2.947380e+01 8.541944e+01 -9.404466e+02
      vertex -1.475000e+01 1.531139e+02 -9.404466e+02
    endloop
  endfacet
  facet normal 0.000000e+00 0.000000e+00 1.000000e+00
    outer loop
      vertex -2.947380e+01 1.192667e+02 -9.404466e+02
      vertex -2.947380e+01 1.023431e+02 -9.404466e+02
      vertex -1.475000e+01 1.531139e+02 -9.404466e+02
    endloop
  endfacet
  facet normal 9.774474e-01 -3.099459e-02 -2.088923e-01
    outer loop
      vertex -1.648251e+01 5.327099e+01 -9.462944e+02
      vertex -1.475000e+01 6.849583e+01 -9.404466e+02
      vertex -1.524516e+01 5.288058e+01 -9.404466e+02
    endloop
  endfacet
  facet normal 9.734028e-01 -2.322594e-02 -2.279199e-01
    outer loop
      vertex -1.613197e+01 6.849583e+01 -9.463487e+02
      vertex -1.475000e+01 6.849583e+01 -9.404466e+02
      vertex -1.648251e+01 5.327099e+01 -9.462944e+02
    endloop
  endfacet
  facet normal 9.736655e-01 3.515648e-15 -2.279814e-01
    outer loop
      vertex -1.613197e+01 1.531139e+02 -9.463487e+02
      vertex -1.475000e+01 6.849583e+01 -9.404466e+02
      vertex -1.613197e+01 6.849583e+01 -9.463487e+02
    endloop
  endfacet
  facet normal 6.266522e-01 -7.792892e-01 3.913114e-03
    outer loop
      vertex -1.825177e+01 5.043894e+01 -9.452105e+02
      vertex -1.524516e+01 5.288058e+01 -9.404466e+02
      vertex -1.858766e+01 5.019276e+01 -9.404466e+02
    endloop
  endfacet
  facet normal 7.925401e-01 -5.739665e-01 -2.060164e-01
    outer loop
      vertex -1.648251e+01 5.327099e+01 -9.462944e+02
      vertex -1.524516e+01 5.288058e+01 -9.404466e+02
      vertex -1.825177e+01 5.043894e+01 -9.452105e+02
    endloop
  endfacet
  facet normal 1.310540e-02 -9.993501e-01 -3.357897e-02
    outer loop
      vertex -2.947380e+01 5.020921e+01 -9.451850e+02
      vertex -1.858766e+01 5.019276e+01 -9.404466e+02
      vertex -2.947380e+01 5.005000e+01 -9.404466e+02
    endloop
  endfacet
  facet normal 2.032681e-02 -9.985340e-01 -5.016683e-02
    outer loop
      vertex -1.825177e+01 5.043894e+01 -9.452105e+02
      vertex -1.858766e+01 5.019276e+01 -9.404466e+02
      vertex -2.947380e+01 5.020921e+01 -9.451850e+02
    endloop
  endfacet
  facet normal 2.568072e-01 1.591807e-02 9.663315e-01
    outer loop
      vertex -6.139160e+01 1.267069e+02 -9.361466e+02
      vertex -4.478414e+01 1.198159e+02 -9.404466e+02
      vertex -4.579910e+01 1.361903e+02 -9.404466e+02
    endloop
  endfacet
  facet normal 8.555992e-03 2.384883e-01 9.711077e-01
    outer loop
      vertex -4.579910e+01 1.023431e+02 -9.361466e+02
      vertex -2.947380e+01 1.192667e+02 -9.404466e+02
      vertex -4.478414e+01 1.198159e+02 -9.404466e+02
    endloop
  endfacet
  facet normal 2.882583e-01 1.004945e-01 9.522647e-01
    outer loop
      vertex -5.081377e+01 9.636544e+01 -9.361466e+02
      vertex -4.478414e+01 1.198159e+02 -9.404466e+02
      vertex -6.139160e+01 1.267069e+02 -9.361466e+02
    endloop
  endfacet
  facet normal -2.914739e-01 2.445199e-01 9.247989e-01
    outer loop
      vertex -4.579910e+01 1.023431e+02 -9.361466e+02
      vertex -4.478414e+01 1.198159e+02 -9.404466e+02
      vertex -5.081377e+01 9.636544e+01 -9.361466e+02
    endloop
  endfacet
  facet normal 2.278129e-15 5.234187e-01 8.520756e-01
    outer loop
      vertex -6.143496e+01 1.291903e+02 -9.361466e+02
      vertex -4.579910e+01 1.361903e+02 -9.404466e+02
      vertex -7.844970e+01 1.361903e+02 -9.404466e+02
    endloop
  endfacet
  facet normal 2.632482e-01 4.595928e-03 9.647172e-01
    outer loop
      vertex -6.143496e+01 1.291903e+02 -9.361466e+02
      vertex -6.139160e+01 1.267069e+02 -9.361466e+02
      vertex -4.579910e+01 1.361903e+02 -9.404466e+02
    endloop
  endfacet
  facet normal 1.207721e-01 -1.165023e-01 9.858201e-01
    outer loop
      vertex -7.844970e+01 1.192667e+02 -9.424466e+02
      vertex -7.844970e+01 1.361903e+02 -9.404466e+02
      vertex -9.477500e+01 1.192667e+02 -9.404466e+02
    endloop
  endfacet
  facet normal -4.872841e-01 -1.024851e-01 8.672088e-01
    outer loop
      vertex -6.921021e+01 1.286452e+02 -9.361466e+02
      vertex -7.844970e+01 1.361903e+02 -9.404466e+02
      vertex -7.844970e+01 1.192667e+02 -9.424466e+02
    endloop
  endfacet
  facet normal -3.256424e-02 4.644808e-01 8.849843e-01
    outer loop
      vertex -6.143496e+01 1.291903e+02 -9.361466e+02
      vertex -7.844970e+01 1.361903e+02 -9.404466e+02
      vertex -6.921021e+01 1.286452e+02 -9.361466e+02
    endloop
  endfacet
  facet normal -3.864315e-01 8.112220e-16 9.223181e-01
    outer loop
      vertex -8.451194e+01 1.018122e+02 -9.361466e+02
      vertex -9.477500e+01 1.192667e+02 -9.404466e+02
      vertex -9.477500e+01 8.541944e+01 -9.404466e+02
    endloop
  endfacet
  facet normal -1.995888e-01 1.221591e-01 9.722353e-01
    outer loop
      vertex -6.905475e+01 1.270668e+02 -9.361466e+02
      vertex -9.477500e+01 1.192667e+02 -9.404466e+02
      vertex -8.451194e+01 1.018122e+02 -9.361466e+02
    endloop
  endfacet
  facet normal -8.824176e-02 6.880411e-01 -7.202866e-01
    outer loop
      vertex -7.844970e+01 1.192667e+02 -9.424466e+02
      vertex -9.477500e+01 1.192667e+02 -9.404466e+02
      vertex -6.905475e+01 1.270668e+02 -9.361466e+02
    endloop
  endfacet
  facet normal 0.000000e+00 0.000000e+00 1.000000e+00
    outer loop
      vertex -6.212440e+01 8.541944e+01 -9.404466e+02
      vertex -7.686082e+01 8.597542e+01 -9.404466e+02
      vertex -9.477500e+01 8.541944e+01 -9.404466e+02
    endloop
  endfacet
  facet normal 1.366084e-02 -4.401723e-01 8.978094e-01
    outer loop
      vertex -7.959721e+01 9.466110e+01 -9.361466e+02
      vertex -9.477500e+01 8.541944e+01 -9.404466e+02
      vertex -7.686082e+01 8.597542e+01 -9.404466e+02
    endloop
  endfacet
  facet normal 1.901647e-02 -2.648036e-01 9.641148e-01
    outer loop
      vertex -8.202950e+01 1.019905e+02 -9.361466e+02
      vertex -8.451194e+01 1.018122e+02 -9.361466e+02
      vertex -9.477500e+01 8.541944e+01 -9.404466e+02
    endloop
  endfacet
  facet normal -2.287381e-01 -7.590792e-02 9.705240e-01
    outer loop
      vertex -7.959721e+01 9.466110e+01 -9.361466e+02
      vertex -8.202950e+01 1.019905e+02 -9.361466e+02
      vertex -9.477500e+01 8.541944e+01 -9.404466e+02
    endloop
  endfacet
  facet normal 4.427722e-03 1.173602e-01 9.930795e-01
    outer loop
      vertex -6.212440e+01 1.023431e+02 -9.424466e+02
      vertex -7.686082e+01 8.597542e+01 -9.404466e+02
      vertex -6.212440e+01 8.541944e+01 -9.404466e+02
    endloop
  endfacet
  facet normal 9.516647e-01 3.071389e-01 0.000000e+00
    outer loop
      vertex -8.202950e+01 1.019905e+02 -9.365299e+02
      vertex -8.202950e+01 1.019905e+02 -9.361466e+02
      vertex -7.686082e+01 8.597542e+01 -9.404466e+02
    endloop
  endfacet
  facet normal 9.486109e-01 3.148014e-01 -3.220917e-02
    outer loop
      vertex -7.959721e+01 9.466110e+01 -9.361466e+02
      vertex -7.686082e+01 8.597542e+01 -9.404466e+02
      vertex -8.202950e+01 1.019905e+02 -9.361466e+02
    endloop
  endfacet
  facet normal 2.843923e-01 -1.401614e-01 9.484070e-01
    outer loop
      vertex -6.212440e+01 1.023431e+02 -9.424466e+02
      vertex -8.202950e+01 1.019905e+02 -9.365299e+02
      vertex -7.686082e+01 8.597542e+01 -9.404466e+02
    endloop
  endfacet
  facet normal 0.000000e+00 0.000000e+00 1.000000e+00
    outer loop
      vertex -2.947380e+01 8.541944e+01 -9.404466e+02
      vertex -4.352682e+01 8.903576e+01 -9.404466e+02
      vertex -6.212440e+01 8.541944e+01 -9.404466e+02
    endloop
  endfacet
  facet normal 1.034142e-01 -5.318268e-01 8.405152e-01
    outer loop
      vertex -4.918057e+01 9.473223e+01 -9.361466e+02
      vertex -6.212440e+01 8.541944e+01 -9.404466e+02
      vertex -4.352682e+01 8.903576e+01 -9.404466e+02
    endloop
  endfacet
  facet normal -4.408287e-01 1.053426e-01 8.913882e-01
    outer loop
      vertex -5.081377e+01 9.636544e+01 -9.361466e+02
      vertex -6.212440e+01 1.023431e+02 -9.424466e+02
      vertex -6.212440e+01 8.541944e+01 -9.404466e+02
    endloop
  endfacet
  facet normal 7.163605e-01 -6.009609e-01 -3.545049e-01
    outer loop
      vertex -4.579910e+01 1.023431e+02 -9.361466e+02
      vertex -5.081377e+01 9.636544e+01 -9.361466e+02
      vertex -6.212440e+01 8.541944e+01 -9.404466e+02
    endloop
  endfacet
  facet normal -4.306708e-01 1.913461e-01 8.819917e-01
    outer loop
      vertex -4.579910e+01 1.023431e+02 -9.361466e+02
      vertex -6.212440e+01 8.541944e+01 -9.404466e+02
      vertex -4.918057e+01 9.473223e+01 -9.361466e+02
    endloop
  endfacet
  facet normal -1.802035e-01 -7.002720e-01 6.907574e-01
    outer loop
      vertex -4.918057e+01 9.473223e+01 -9.361466e+02
      vertex -4.352682e+01 8.903576e+01 -9.404466e+02
      vertex -2.947380e+01 8.541944e+01 -9.404466e+02
    endloop
  endfacet
  facet normal 2.131832e-01 1.415437e-15 9.770122e-01
    outer loop
      vertex -4.918057e+01 9.473223e+01 -9.361466e+02
      vertex -2.947380e+01 8.541944e+01 -9.404466e+02
      vertex -2.947380e+01 1.023431e+02 -9.404466e+02
    endloop
  endfacet
  facet normal 2.547076e-01 0.000000e+00 9.670181e-01
    outer loop
      vertex -4.579910e+01 1.023431e+02 -9.361466e+02
      vertex -2.947380e+01 1.023431e+02 -9.404466e+02
      vertex -2.947380e+01 1.192667e+02 -9.404466e+02
    endloop
  endfacet
  facet normal 2.530921e-01 -1.124483e-01 9.608849e-01
    outer loop
      vertex -4.579910e+01 1.023431e+02 -9.361466e+02
      vertex -4.918057e+01 9.473223e+01 -9.361466e+02
      vertex -2.947380e+01 1.023431e+02 -9.404466e+02
    endloop
  endfacet
  facet normal -2.446284e-01 -3.714663e-15 -9.696169e-01
    outer loop
      vertex -1.143680e+02 1.531139e+02 -9.456222e+02
      vertex -1.111003e+02 6.849583e+01 -9.464466e+02
      vertex -1.143680e+02 6.849583e+01 -9.456222e+02
    endloop
  endfacet
  facet normal -2.446284e-01 -6.801126e-15 -9.696169e-01
    outer loop
      vertex -1.111003e+02 1.531139e+02 -9.464466e+02
      vertex -1.111003e+02 6.849583e+01 -9.464466e+02
      vertex -1.143680e+02 1.531139e+02 -9.456222e+02
    endloop
  endfacet
  facet normal -4.642563e-15 -6.717647e-15 -1.000000e+00
    outer loop
      vertex -6.212440e+01 8.541944e+01 -9.464466e+02
      vertex -1.111003e+02 6.849583e+01 -9.464466e+02
      vertex -1.111003e+02 1.531139e+02 -9.464466e+02
    endloop
  endfacet
  facet normal -5.204254e-15 -5.092144e-15 -1.000000e+00
    outer loop
      vertex -6.212440e+01 8.541944e+01 -9.464466e+02
      vertex -2.947380e+01 5.205000e+01 -9.464466e+02
      vertex -1.111003e+02 6.849583e+01 -9.464466e+02
    endloop
  endfacet
  facet normal -2.444877e-01 3.390592e-02 -9.690594e-01
    outer loop
      vertex -1.103610e+02 1.659134e+02 -9.461853e+02
      vertex -1.111003e+02 1.531139e+02 -9.464466e+02
      vertex -1.143680e+02 1.531139e+02 -9.456222e+02
    endloop
  endfacet
  facet normal -2.578838e-01 3.825989e-02 -9.654181e-01
    outer loop
      vertex -1.103610e+02 1.659134e+02 -9.461853e+02
      vertex -1.143680e+02 1.531139e+02 -9.456222e+02
      vertex -1.143611e+02 1.635482e+02 -9.452105e+02
    endloop
  endfacet
  facet normal 7.338142e-03 1.998844e-02 -9.997733e-01
    outer loop
      vertex -9.477500e+01 1.662256e+02 -9.460646e+02
      vertex -1.111003e+02 1.531139e+02 -9.464466e+02
      vertex -1.103610e+02 1.659134e+02 -9.461853e+02
    endloop
  endfacet
  facet normal 4.642563e-15 3.898387e-30 -1.000000e+00
    outer loop
      vertex -6.212440e+01 1.023431e+02 -9.464466e+02
      vertex -6.212440e+01 8.541944e+01 -9.464466e+02
      vertex -1.111003e+02 1.531139e+02 -9.464466e+02
    endloop
  endfacet
  facet normal -1.160641e-15 -5.598039e-15 -1.000000e+00
    outer loop
      vertex -4.579910e+01 1.192667e+02 -9.464466e+02
      vertex -6.212440e+01 1.023431e+02 -9.464466e+02
      vertex -1.111003e+02 1.531139e+02 -9.464466e+02
    endloop
  endfacet
  facet normal -6.963844e-15 -1.679412e-14 -1.000000e+00
    outer loop
      vertex -2.947380e+01 1.192667e+02 -9.464466e+02
      vertex -4.579910e+01 1.192667e+02 -9.464466e+02
      vertex -1.111003e+02 1.531139e+02 -9.464466e+02
    endloop
  endfacet
  facet normal 0.000000e+00 0.000000e+00 -1.000000e+00
    outer loop
      vertex -2.947380e+01 1.531139e+02 -9.464466e+02
      vertex -2.947380e+01 1.192667e+02 -9.464466e+02
      vertex -1.111003e+02 1.531139e+02 -9.464466e+02
    endloop
  endfacet
  facet normal -2.073798e-17 2.911938e-02 -9.995759e-01
    outer loop
      vertex -2.947380e+01 1.662256e+02 -9.460646e+02
      vertex -2.947380e+01 1.531139e+02 -9.464466e+02
      vertex -1.111003e+02 1.531139e+02 -9.464466e+02
    endloop
  endfacet
  facet normal -7.062282e-15 2.911938e-02 -9.995759e-01
    outer loop
      vertex -2.947380e+01 1.662256e+02 -9.460646e+02
      vertex -1.111003e+02 1.531139e+02 -9.464466e+02
      vertex -9.477500e+01 1.662256e+02 -9.460646e+02
    endloop
  endfacet
  facet normal 6.267540e-02 -5.642184e-01 -8.232432e-01
    outer loop
      vertex -1.648251e+01 5.327099e+01 -9.462944e+02
      vertex -2.947380e+01 5.020921e+01 -9.451850e+02
      vertex -2.947380e+01 5.205000e+01 -9.464466e+02
    endloop
  endfacet
  facet normal 5.254174e-03 -3.602822e-01 -9.328286e-01
    outer loop
      vertex -1.648251e+01 5.327099e+01 -9.462944e+02
      vertex -1.825177e+01 5.043894e+01 -9.452105e+02
      vertex -2.947380e+01 5.020921e+01 -9.451850e+02
    endloop
  endfacet
  facet normal -3.808780e-15 -4.520976e-15 -1.000000e+00
    outer loop
      vertex -4.352682e+01 8.903576e+01 -9.464466e+02
      vertex -2.947380e+01 1.023431e+02 -9.464466e+02
      vertex -2.947380e+01 5.205000e+01 -9.464466e+02
    endloop
  endfacet
  facet normal 7.336647e-03 -4.518856e-15 -9.999731e-01
    outer loop
      vertex -1.613197e+01 6.849583e+01 -9.463487e+02
      vertex -2.947380e+01 5.205000e+01 -9.464466e+02
      vertex -2.947380e+01 1.023431e+02 -9.464466e+02
    endloop
  endfacet
  facet normal -5.135838e-15 -5.025201e-15 -1.000000e+00
    outer loop
      vertex -6.212440e+01 8.541944e+01 -9.464466e+02
      vertex -4.352682e+01 8.903576e+01 -9.464466e+02
      vertex -2.947380e+01 5.205000e+01 -9.464466e+02
    endloop
  endfacet
  facet normal 1.207940e-02 -3.847920e-03 -9.999196e-01
    outer loop
      vertex -1.613197e+01 6.849583e+01 -9.463487e+02
      vertex -1.648251e+01 5.327099e+01 -9.462944e+02
      vertex -2.947380e+01 5.205000e+01 -9.464466e+02
    endloop
  endfacet
  facet normal -1.850553e-02 1.954256e-02 -9.996378e-01
    outer loop
      vertex -4.549216e+01 1.025203e+02 -9.461466e+02
      vertex -2.947380e+01 1.023431e+02 -9.464466e+02
      vertex -4.352682e+01 8.903576e+01 -9.464466e+02
    endloop
  endfacet
  facet normal -1.872523e-02 0.000000e+00 -9.998247e-01
    outer loop
      vertex -4.549216e+01 1.025203e+02 -9.461466e+02
      vertex -2.947380e+01 1.192667e+02 -9.464466e+02
      vertex -2.947380e+01 1.023431e+02 -9.464466e+02
    endloop
  endfacet
  facet normal 7.336647e-03 0.000000e+00 -9.999731e-01
    outer loop
      vertex -1.613197e+01 6.849583e+01 -9.463487e+02
      vertex -2.947380e+01 1.023431e+02 -9.464466e+02
      vertex -2.947380e+01 1.192667e+02 -9.464466e+02
    endloop
  endfacet
  facet normal -4.205848e-03 2.162936e-02 -9.997572e-01
    outer loop
      vertex -4.549216e+01 1.025203e+02 -9.461466e+02
      vertex -4.352682e+01 8.903576e+01 -9.464466e+02
      vertex -6.212440e+01 8.541944e+01 -9.464466e+02
    endloop
  endfacet
  facet normal 1.803432e-02 1.577451e-17 -9.998374e-01
    outer loop
      vertex -4.549216e+01 1.025203e+02 -9.461466e+02
      vertex -6.212440e+01 8.541944e+01 -9.464466e+02
      vertex -6.212440e+01 1.023431e+02 -9.464466e+02
    endloop
  endfacet
  facet normal 1.821873e-02 -1.757463e-02 -9.996796e-01
    outer loop
      vertex -4.549216e+01 1.025203e+02 -9.461466e+02
      vertex -6.212440e+01 1.023431e+02 -9.464466e+02
      vertex -4.579910e+01 1.192667e+02 -9.464466e+02
    endloop
  endfacet
  facet normal -6.964224e-15 -1.791143e-02 -9.998396e-01
    outer loop
      vertex -4.549216e+01 1.025203e+02 -9.461466e+02
      vertex -4.579910e+01 1.192667e+02 -9.464466e+02
      vertex -2.947380e+01 1.192667e+02 -9.464466e+02
    endloop
  endfacet
  facet normal 7.336647e-03 2.950130e-18 -9.999731e-01
    outer loop
      vertex -1.613197e+01 6.849583e+01 -9.463487e+02
      vertex -2.947380e+01 1.192667e+02 -9.464466e+02
      vertex -2.947380e+01 1.531139e+02 -9.464466e+02
    endloop
  endfacet
  facet normal 1.800833e-02 2.911466e-02 -9.994138e-01
    outer loop
      vertex -1.715506e+01 1.656216e+02 -9.458603e+02
      vertex -2.947380e+01 1.531139e+02 -9.464466e+02
      vertex -2.947380e+01 1.662256e+02 -9.460646e+02
    endloop
  endfacet
  facet normal 7.336647e-03 2.649069e-17 -9.999731e-01
    outer loop
      vertex -1.613197e+01 1.531139e+02 -9.463487e+02
      vertex -1.613197e+01 6.849583e+01 -9.463487e+02
      vertex -2.947380e+01 1.531139e+02 -9.464466e+02
    endloop
  endfacet
  facet normal 7.330887e-03 3.962017e-02 -9.991879e-01
    outer loop
      vertex -1.715506e+01 1.656216e+02 -9.458603e+02
      vertex -1.613197e+01 1.531139e+02 -9.463487e+02
      vertex -2.947380e+01 1.531139e+02 -9.464466e+02
    endloop
  endfacet
  facet normal -6.762796e-16 9.417168e-15 1.000000e+00
    outer loop
      vertex -6.905475e+01 1.270668e+02 -9.361466e+02
      vertex -8.451194e+01 1.018122e+02 -9.361466e+02
      vertex -8.202950e+01 1.019905e+02 -9.361466e+02
    endloop
  endfacet
  facet normal 8.881566e-01 -4.595409e-01 0.000000e+00
    outer loop
      vertex -6.905475e+01 1.270668e+02 -9.361466e+02
      vertex -8.202950e+01 1.019905e+02 -9.361466e+02
      vertex -8.202950e+01 1.019905e+02 -9.365299e+02
    endloop
  endfacet
  facet normal 7.060560e-01 -3.559628e-01 -6.121891e-01
    outer loop
      vertex -7.844970e+01 1.192667e+02 -9.424466e+02
      vertex -6.905475e+01 1.270668e+02 -9.361466e+02
      vertex -8.202950e+01 1.019905e+02 -9.365299e+02
    endloop
  endfacet
  facet normal 6.870226e-15 3.240026e-01 9.460562e-01
    outer loop
      vertex -6.212440e+01 1.192667e+02 -9.424466e+02
      vertex -7.844970e+01 1.192667e+02 -9.424466e+02
      vertex -8.202950e+01 1.019905e+02 -9.365299e+02
    endloop
  endfacet
  facet normal 2.849245e-01 6.199947e-15 9.585500e-01
    outer loop
      vertex -6.212440e+01 1.192667e+02 -9.424466e+02
      vertex -8.202950e+01 1.019905e+02 -9.365299e+02
      vertex -6.212440e+01 1.023431e+02 -9.424466e+02
    endloop
  endfacet
  facet normal 4.776883e-15 -6.462080e-01 7.631613e-01
    outer loop
      vertex -6.139160e+01 1.267069e+02 -9.361466e+02
      vertex -7.844970e+01 1.192667e+02 -9.424466e+02
      vertex -6.212440e+01 1.192667e+02 -9.424466e+02
    endloop
  endfacet
  facet normal -5.261604e-01 -5.182228e-02 8.488049e-01
    outer loop
      vertex -6.905475e+01 1.270668e+02 -9.361466e+02
      vertex -6.921021e+01 1.286452e+02 -9.361466e+02
      vertex -7.844970e+01 1.192667e+02 -9.424466e+02
    endloop
  endfacet
  facet normal -2.851576e-02 -6.070630e-01 7.941419e-01
    outer loop
      vertex -6.139160e+01 1.267069e+02 -9.361466e+02
      vertex -6.905475e+01 1.270668e+02 -9.361466e+02
      vertex -7.844970e+01 1.192667e+02 -9.424466e+02
    endloop
  endfacet
  facet normal -9.933031e-01 1.613552e-15 1.155378e-01
    outer loop
      vertex -6.139160e+01 1.267069e+02 -9.361466e+02
      vertex -6.212440e+01 1.192667e+02 -9.424466e+02
      vertex -6.212440e+01 1.023431e+02 -9.424466e+02
    endloop
  endfacet
  facet normal -5.533018e-01 -1.928957e-01 8.103384e-01
    outer loop
      vertex -5.081377e+01 9.636544e+01 -9.361466e+02
      vertex -6.139160e+01 1.267069e+02 -9.361466e+02
      vertex -6.212440e+01 1.023431e+02 -9.424466e+02
    endloop
  endfacet
  facet normal 0.000000e+00 0.000000e+00 1.000000e+00
    outer loop
      vertex -6.143496e+01 1.291903e+02 -9.361466e+02
      vertex -6.921021e+01 1.286452e+02 -9.361466e+02
      vertex -6.905475e+01 1.270668e+02 -9.361466e+02
    endloop
  endfacet
  facet normal 0.000000e+00 0.000000e+00 1.000000e+00
    outer loop
      vertex -6.143496e+01 1.291903e+02 -9.361466e+02
      vertex -6.905475e+01 1.270668e+02 -9.361466e+02
      vertex -6.139160e+01 1.267069e+02 -9.361466e+02
    endloop
  endfacet
endsolid SIM_ICUB3_L_FOOT_FRONT
