solid SIM_ICUB3_R_HAND
  facet normal -9.888260e-01 6.217136e-03 -1.489448e-01
    outer loop
      vertex 1.904804e+02 1.232568e+02 -4.082073e+02
      vertex 1.912365e+02 1.352157e+02 -4.127275e+02
      vertex 1.919760e+02 1.289724e+02 -4.178973e+02
    endloop
  endfacet
  facet normal -9.683695e-01 8.079225e-02 -2.360785e-01
    outer loop
      vertex 1.922960e+02 1.337881e+02 -4.175618e+02
      vertex 1.919760e+02 1.289724e+02 -4.178973e+02
      vertex 1.912365e+02 1.352157e+02 -4.127275e+02
    endloop
  endfacet
  facet normal -5.393386e-01 -6.862559e-01 -4.880233e-01
    outer loop
      vertex 1.942016e+02 1.170807e+02 -4.036348e+02
      vertex 1.904804e+02 1.232568e+02 -4.082073e+02
      vertex 1.919760e+02 1.289724e+02 -4.178973e+02
    endloop
  endfacet
  facet normal -4.356526e-01 9.133090e-02 -8.954694e-01
    outer loop
      vertex 1.964729e+02 1.347370e+02 -4.194972e+02
      vertex 1.919760e+02 1.289724e+02 -4.178973e+02
      vertex 1.922960e+02 1.337881e+02 -4.175618e+02
    endloop
  endfacet
  facet normal -4.343892e-01 -7.239886e-01 -5.358606e-01
    outer loop
      vertex 1.958189e+02 1.284324e+02 -4.202829e+02
      vertex 1.942016e+02 1.170807e+02 -4.036348e+02
      vertex 1.919760e+02 1.289724e+02 -4.178973e+02
    endloop
  endfacet
  facet normal -5.046468e-01 1.581281e-01 -8.487209e-01
    outer loop
      vertex 1.964729e+02 1.347370e+02 -4.194972e+02
      vertex 1.958189e+02 1.284324e+02 -4.202829e+02
      vertex 1.919760e+02 1.289724e+02 -4.178973e+02
    endloop
  endfacet
  facet normal -3.954285e-01 3.465172e-01 8.506245e-01
    outer loop
      vertex 1.956126e+02 1.378925e+02 -4.117836e+02
      vertex 1.912365e+02 1.352157e+02 -4.127275e+02
      vertex 1.904804e+02 1.232568e+02 -4.082073e+02
    endloop
  endfacet
  facet normal -4.357623e-01 8.327915e-01 -3.414228e-01
    outer loop
      vertex 1.956126e+02 1.378925e+02 -4.117836e+02
      vertex 1.922960e+02 1.337881e+02 -4.175618e+02
      vertex 1.912365e+02 1.352157e+02 -4.127275e+02
    endloop
  endfacet
  facet normal -4.316969e-01 3.540998e-01 8.296090e-01
    outer loop
      vertex 1.956126e+02 1.378925e+02 -4.117836e+02
      vertex 1.904804e+02 1.232568e+02 -4.082073e+02
      vertex 1.942016e+02 1.170807e+02 -4.036348e+02
    endloop
  endfacet
  facet normal -3.709821e-01 8.442690e-01 -3.867585e-01
    outer loop
      vertex 1.964729e+02 1.347370e+02 -4.194972e+02
      vertex 1.922960e+02 1.337881e+02 -4.175618e+02
      vertex 1.956126e+02 1.378925e+02 -4.117836e+02
    endloop
  endfacet
  facet normal -8.670026e-01 -3.684647e-01 -3.354701e-01
    outer loop
      vertex 2.286631e+02 7.793379e+01 -4.497014e+02
      vertex 1.942016e+02 1.170807e+02 -4.036348e+02
      vertex 1.958189e+02 1.284324e+02 -4.202829e+02
    endloop
  endfacet
  facet normal 4.076710e-02 3.618941e-01 9.313274e-01
    outer loop
      vertex 2.012044e+02 1.351735e+02 -4.109718e+02
      vertex 1.956126e+02 1.378925e+02 -4.117836e+02
      vertex 1.942016e+02 1.170807e+02 -4.036348e+02
    endloop
  endfacet
  facet normal -8.614449e-01 -2.193256e-01 -4.580491e-01
    outer loop
      vertex 1.999158e+02 7.284423e+01 -3.932000e+02
      vertex 1.942016e+02 1.170807e+02 -4.036348e+02
      vertex 2.286631e+02 7.793379e+01 -4.497014e+02
    endloop
  endfacet
  facet normal -9.431352e-01 -4.411258e-02 3.294695e-01
    outer loop
      vertex 2.107912e+02 7.303226e+01 -3.620432e+02
      vertex 1.942016e+02 1.170807e+02 -4.036348e+02
      vertex 1.999158e+02 7.284423e+01 -3.932000e+02
    endloop
  endfacet
  facet normal -1.238726e-01 6.561893e-01 7.443596e-01
    outer loop
      vertex 2.347928e+02 7.802755e+01 -3.624526e+02
      vertex 1.942016e+02 1.170807e+02 -4.036348e+02
      vertex 2.107912e+02 7.303226e+01 -3.620432e+02
    endloop
  endfacet
  facet normal 5.349834e-01 8.098555e-01 2.406797e-01
    outer loop
      vertex 2.384878e+02 8.697128e+01 -4.007602e+02
      vertex 1.942016e+02 1.170807e+02 -4.036348e+02
      vertex 2.347928e+02 7.802755e+01 -3.624526e+02
    endloop
  endfacet
  facet normal 1.560203e-01 3.187395e-01 9.349133e-01
    outer loop
      vertex 2.012044e+02 1.351735e+02 -4.109718e+02
      vertex 1.942016e+02 1.170807e+02 -4.036348e+02
      vertex 2.384878e+02 8.697128e+01 -4.007602e+02
    endloop
  endfacet
  facet normal 3.430195e-01 8.104882e-02 -9.358252e-01
    outer loop
      vertex 2.014813e+02 1.341072e+02 -4.177159e+02
      vertex 1.958189e+02 1.284324e+02 -4.202829e+02
      vertex 1.964729e+02 1.347370e+02 -4.194972e+02
    endloop
  endfacet
  facet normal -8.687262e-01 -3.798509e-01 -3.178492e-01
    outer loop
      vertex 2.375101e+02 8.284721e+01 -4.797534e+02
      vertex 2.286631e+02 7.793379e+01 -4.497014e+02
      vertex 1.958189e+02 1.284324e+02 -4.202829e+02
    endloop
  endfacet
  facet normal -7.312817e-01 1.869466e-01 -6.559559e-01
    outer loop
      vertex 2.379390e+02 8.679752e+01 -4.791058e+02
      vertex 2.375101e+02 8.284721e+01 -4.797534e+02
      vertex 1.958189e+02 1.284324e+02 -4.202829e+02
    endloop
  endfacet
  facet normal 3.727563e-01 8.620968e-01 -3.432809e-01
    outer loop
      vertex 2.430250e+02 9.005497e+01 -4.654026e+02
      vertex 2.379390e+02 8.679752e+01 -4.791058e+02
      vertex 1.958189e+02 1.284324e+02 -4.202829e+02
    endloop
  endfacet
  facet normal -2.484258e-01 5.939963e-01 -7.651490e-01
    outer loop
      vertex 2.014813e+02 1.341072e+02 -4.177159e+02
      vertex 2.430250e+02 9.005497e+01 -4.654026e+02
      vertex 1.958189e+02 1.284324e+02 -4.202829e+02
    endloop
  endfacet
  facet normal 4.521563e-01 8.420730e-01 -2.940539e-01
    outer loop
      vertex 2.012044e+02 1.351735e+02 -4.109718e+02
      vertex 1.964729e+02 1.347370e+02 -4.194972e+02
      vertex 1.956126e+02 1.378925e+02 -4.117836e+02
    endloop
  endfacet
  facet normal 1.746147e-01 9.736383e-01 -1.467589e-01
    outer loop
      vertex 2.014813e+02 1.341072e+02 -4.177159e+02
      vertex 1.964729e+02 1.347370e+02 -4.194972e+02
      vertex 2.012044e+02 1.351735e+02 -4.109718e+02
    endloop
  endfacet
  facet normal -9.035612e-01 -2.379565e-01 -3.563058e-01
    outer loop
      vertex 2.254786e+02 1.417300e+01 -3.963951e+02
      vertex 2.217986e+02 2.156596e+01 -3.920004e+02
      vertex 2.409648e+02 2.430024e+01 -4.424303e+02
    endloop
  endfacet
  facet normal -7.665331e-01 -5.559538e-01 -3.214690e-01
    outer loop
      vertex 2.395750e+02 2.884859e+01 -4.469823e+02
      vertex 2.409648e+02 2.430024e+01 -4.424303e+02
      vertex 2.217986e+02 2.156596e+01 -3.920004e+02
    endloop
  endfacet
  facet normal 2.837882e-03 -9.768427e-01 -2.139401e-01
    outer loop
      vertex 2.373017e+02 1.492310e+01 -3.996632e+02
      vertex 2.254786e+02 1.417300e+01 -3.963951e+02
      vertex 2.409648e+02 2.430024e+01 -4.424303e+02
    endloop
  endfacet
  facet normal -6.881258e-01 -6.074436e-01 -3.968567e-01
    outer loop
      vertex 2.509606e+02 2.350371e+01 -4.585432e+02
      vertex 2.409648e+02 2.430024e+01 -4.424303e+02
      vertex 2.395750e+02 2.884859e+01 -4.469823e+02
    endloop
  endfacet
  facet normal -4.371597e-01 -8.699543e-01 -2.281905e-01
    outer loop
      vertex 2.373017e+02 1.492310e+01 -3.996632e+02
      vertex 2.409648e+02 2.430024e+01 -4.424303e+02
      vertex 2.509606e+02 2.350371e+01 -4.585432e+02
    endloop
  endfacet
  facet normal -9.182594e-01 -3.629157e-01 -1.584044e-01
    outer loop
      vertex 2.091844e+02 3.010686e+01 -3.384449e+02
      vertex 2.217986e+02 2.156596e+01 -3.920004e+02
      vertex 2.254786e+02 1.417300e+01 -3.963951e+02
    endloop
  endfacet
  facet normal -8.654933e-01 -3.770596e-01 -3.297687e-01
    outer loop
      vertex 1.999158e+02 7.284423e+01 -3.932000e+02
      vertex 2.395750e+02 2.884859e+01 -4.469823e+02
      vertex 2.217986e+02 2.156596e+01 -3.920004e+02
    endloop
  endfacet
  facet normal -9.651313e-01 -1.683147e-01 -2.004788e-01
    outer loop
      vertex 2.063367e+02 6.222048e+01 -3.516971e+02
      vertex 2.217986e+02 2.156596e+01 -3.920004e+02
      vertex 2.091844e+02 3.010686e+01 -3.384449e+02
    endloop
  endfacet
  facet normal -9.192933e-01 -3.913199e-01 4.205521e-02
    outer loop
      vertex 2.063367e+02 6.222048e+01 -3.516971e+02
      vertex 1.999158e+02 7.284423e+01 -3.932000e+02
      vertex 2.217986e+02 2.156596e+01 -3.920004e+02
    endloop
  endfacet
  facet normal 8.948306e-02 -9.913323e-01 9.619277e-02
    outer loop
      vertex 2.388600e+02 1.931254e+01 -3.558767e+02
      vertex 2.254786e+02 1.417300e+01 -3.963951e+02
      vertex 2.373017e+02 1.492310e+01 -3.996632e+02
    endloop
  endfacet
  facet normal -9.074827e-01 -3.935486e-01 -1.469515e-01
    outer loop
      vertex 2.181202e+02 1.688766e+01 -3.582242e+02
      vertex 2.091844e+02 3.010686e+01 -3.384449e+02
      vertex 2.254786e+02 1.417300e+01 -3.963951e+02
    endloop
  endfacet
  facet normal 1.055073e-01 -9.902675e-01 9.076564e-02
    outer loop
      vertex 2.388600e+02 1.931254e+01 -3.558767e+02
      vertex 2.181202e+02 1.688766e+01 -3.582242e+02
      vertex 2.254786e+02 1.417300e+01 -3.963951e+02
    endloop
  endfacet
  facet normal -7.096312e-01 -5.445182e-01 -4.471280e-01
    outer loop
      vertex 2.472315e+02 4.652308e+01 -4.806582e+02
      vertex 2.509606e+02 2.350371e+01 -4.585432e+02
      vertex 2.395750e+02 2.884859e+01 -4.469823e+02
    endloop
  endfacet
  facet normal -9.189844e-01 -2.223333e-01 -3.256310e-01
    outer loop
      vertex 2.286631e+02 7.793379e+01 -4.497014e+02
      vertex 2.472315e+02 4.652308e+01 -4.806582e+02
      vertex 2.395750e+02 2.884859e+01 -4.469823e+02
    endloop
  endfacet
  facet normal -8.619951e-01 -2.170037e-01 -4.581199e-01
    outer loop
      vertex 1.999158e+02 7.284423e+01 -3.932000e+02
      vertex 2.286631e+02 7.793379e+01 -4.497014e+02
      vertex 2.395750e+02 2.884859e+01 -4.469823e+02
    endloop
  endfacet
  facet normal 2.855892e-01 -9.555674e-01 -7.300467e-02
    outer loop
      vertex 2.499852e+02 1.870811e+01 -3.995887e+02
      vertex 2.373017e+02 1.492310e+01 -3.996632e+02
      vertex 2.509606e+02 2.350371e+01 -4.585432e+02
    endloop
  endfacet
  facet normal 7.291577e-01 -6.829623e-01 -4.349085e-02
    outer loop
      vertex 2.604373e+02 2.984082e+01 -3.991741e+02
      vertex 2.499852e+02 1.870811e+01 -3.995887e+02
      vertex 2.509606e+02 2.350371e+01 -4.585432e+02
    endloop
  endfacet
  facet normal -8.868580e-01 -3.866625e-01 -2.529330e-01
    outer loop
      vertex 2.526286e+02 3.104222e+01 -4.759161e+02
      vertex 2.509606e+02 2.350371e+01 -4.585432e+02
      vertex 2.472315e+02 4.652308e+01 -4.806582e+02
    endloop
  endfacet
  facet normal 3.040445e-01 -8.842428e-01 -3.545020e-01
    outer loop
      vertex 2.592434e+02 2.983104e+01 -4.672217e+02
      vertex 2.509606e+02 2.350371e+01 -4.585432e+02
      vertex 2.526286e+02 3.104222e+01 -4.759161e+02
    endloop
  endfacet
  facet normal 6.001040e-01 -7.998542e-01 -1.041363e-02
    outer loop
      vertex 2.604373e+02 2.984082e+01 -3.991741e+02
      vertex 2.509606e+02 2.350371e+01 -4.585432e+02
      vertex 2.592434e+02 2.983104e+01 -4.672217e+02
    endloop
  endfacet
  facet normal 2.831722e-01 -9.513022e-01 1.218100e-01
    outer loop
      vertex 2.448149e+02 2.285984e+01 -3.551455e+02
      vertex 2.373017e+02 1.492310e+01 -3.996632e+02
      vertex 2.499852e+02 1.870811e+01 -3.995887e+02
    endloop
  endfacet
  facet normal 5.043702e-01 -8.607789e-01 6.834021e-02
    outer loop
      vertex 2.388600e+02 1.931254e+01 -3.558767e+02
      vertex 2.373017e+02 1.492310e+01 -3.996632e+02
      vertex 2.448149e+02 2.285984e+01 -3.551455e+02
    endloop
  endfacet
  facet normal 7.640363e-01 -6.280730e-01 1.475563e-01
    outer loop
      vertex 2.545101e+02 3.195767e+01 -3.666220e+02
      vertex 2.448149e+02 2.285984e+01 -3.551455e+02
      vertex 2.499852e+02 1.870811e+01 -3.995887e+02
    endloop
  endfacet
  facet normal 7.146504e-01 -6.774484e-01 1.741793e-01
    outer loop
      vertex 2.545101e+02 3.195767e+01 -3.666220e+02
      vertex 2.499852e+02 1.870811e+01 -3.995887e+02
      vertex 2.604373e+02 2.984082e+01 -3.991741e+02
    endloop
  endfacet
  facet normal 1.117992e-01 -8.021263e-01 5.865955e-01
    outer loop
      vertex 2.448149e+02 2.285984e+01 -3.551455e+02
      vertex 2.091844e+02 3.010686e+01 -3.384449e+02
      vertex 2.181202e+02 1.688766e+01 -3.582242e+02
    endloop
  endfacet
  facet normal 6.552716e-02 -8.567377e-01 5.115728e-01
    outer loop
      vertex 2.233562e+02 3.681782e+01 -3.290212e+02
      vertex 2.091844e+02 3.010686e+01 -3.384449e+02
      vertex 2.448149e+02 2.285984e+01 -3.551455e+02
    endloop
  endfacet
  facet normal -9.937858e-01 -4.636543e-02 1.011933e-01
    outer loop
      vertex 2.093117e+02 4.524781e+01 -3.302579e+02
      vertex 2.063367e+02 6.222048e+01 -3.516971e+02
      vertex 2.091844e+02 3.010686e+01 -3.384449e+02
    endloop
  endfacet
  facet normal -8.773410e-01 2.339267e-01 -4.189882e-01
    outer loop
      vertex 2.072005e+02 3.693154e+01 -3.304803e+02
      vertex 2.093117e+02 4.524781e+01 -3.302579e+02
      vertex 2.091844e+02 3.010686e+01 -3.384449e+02
    endloop
  endfacet
  facet normal -6.321406e-02 -7.655616e-01 6.402495e-01
    outer loop
      vertex 2.233562e+02 3.681782e+01 -3.290212e+02
      vertex 2.072005e+02 3.693154e+01 -3.304803e+02
      vertex 2.091844e+02 3.010686e+01 -3.384449e+02
    endloop
  endfacet
  facet normal -1.101486e-01 -1.993147e-02 9.937153e-01
    outer loop
      vertex 2.388600e+02 1.931254e+01 -3.558767e+02
      vertex 2.448149e+02 2.285984e+01 -3.551455e+02
      vertex 2.181202e+02 1.688766e+01 -3.582242e+02
    endloop
  endfacet
  facet normal 7.702707e-01 8.306064e-02 6.322847e-01
    outer loop
      vertex 2.406092e+02 6.534803e+01 -3.556035e+02
      vertex 2.209176e+02 4.596579e+01 -3.290684e+02
      vertex 2.448149e+02 2.285984e+01 -3.551455e+02
    endloop
  endfacet
  facet normal 8.080768e-01 2.182276e-01 5.471641e-01
    outer loop
      vertex 2.233562e+02 3.681782e+01 -3.290212e+02
      vertex 2.448149e+02 2.285984e+01 -3.551455e+02
      vertex 2.209176e+02 4.596579e+01 -3.290684e+02
    endloop
  endfacet
  facet normal 7.800116e-01 8.389362e-02 6.201160e-01
    outer loop
      vertex 2.529386e+02 5.320839e+01 -3.694697e+02
      vertex 2.406092e+02 6.534803e+01 -3.556035e+02
      vertex 2.448149e+02 2.285984e+01 -3.551455e+02
    endloop
  endfacet
  facet normal 6.957965e-01 1.457009e-01 7.033054e-01
    outer loop
      vertex 2.545101e+02 3.195767e+01 -3.666220e+02
      vertex 2.529386e+02 5.320839e+01 -3.694697e+02
      vertex 2.448149e+02 2.285984e+01 -3.551455e+02
    endloop
  endfacet
  facet normal -9.203312e-01 -2.385887e-01 -3.099451e-01
    outer loop
      vertex 2.375101e+02 8.284721e+01 -4.797534e+02
      vertex 2.472315e+02 4.652308e+01 -4.806582e+02
      vertex 2.286631e+02 7.793379e+01 -4.497014e+02
    endloop
  endfacet
  facet normal -7.367127e-01 -1.809372e-01 -6.515490e-01
    outer loop
      vertex 2.490394e+02 6.697675e+01 -4.883824e+02
      vertex 2.472315e+02 4.652308e+01 -4.806582e+02
      vertex 2.375101e+02 8.284721e+01 -4.797534e+02
    endloop
  endfacet
  facet normal -1.516218e-01 -3.374490e-01 -9.290528e-01
    outer loop
      vertex 2.490394e+02 6.697675e+01 -4.883824e+02
      vertex 2.526286e+02 3.104222e+01 -4.759161e+02
      vertex 2.472315e+02 4.652308e+01 -4.806582e+02
    endloop
  endfacet
  facet normal -2.575823e-01 3.103997e-01 -9.150428e-01
    outer loop
      vertex 2.451941e+02 8.858803e+01 -4.799690e+02
      vertex 2.490394e+02 6.697675e+01 -4.883824e+02
      vertex 2.375101e+02 8.284721e+01 -4.797534e+02
    endloop
  endfacet
  facet normal -1.591408e-01 1.765220e-01 -9.713466e-01
    outer loop
      vertex 2.451941e+02 8.858803e+01 -4.799690e+02
      vertex 2.375101e+02 8.284721e+01 -4.797534e+02
      vertex 2.379390e+02 8.679752e+01 -4.791058e+02
    endloop
  endfacet
  facet normal 3.206130e-01 -2.817107e-01 -9.043486e-01
    outer loop
      vertex 2.561032e+02 6.692211e+01 -4.858611e+02
      vertex 2.526286e+02 3.104222e+01 -4.759161e+02
      vertex 2.490394e+02 6.697675e+01 -4.883824e+02
    endloop
  endfacet
  facet normal 3.136017e-01 -2.817122e-01 -9.068033e-01
    outer loop
      vertex 2.561032e+02 6.692211e+01 -4.858611e+02
      vertex 2.590114e+02 3.221692e+01 -4.740736e+02
      vertex 2.526286e+02 3.104222e+01 -4.759161e+02
    endloop
  endfacet
  facet normal 2.611639e-01 -9.088297e-01 -3.253029e-01
    outer loop
      vertex 2.592434e+02 2.983104e+01 -4.672217e+02
      vertex 2.526286e+02 3.104222e+01 -4.759161e+02
      vertex 2.590114e+02 3.221692e+01 -4.740736e+02
    endloop
  endfacet
  facet normal 2.153320e-01 3.873079e-01 -8.964512e-01
    outer loop
      vertex 2.552658e+02 7.095646e+01 -4.851674e+02
      vertex 2.490394e+02 6.697675e+01 -4.883824e+02
      vertex 2.451941e+02 8.858803e+01 -4.799690e+02
    endloop
  endfacet
  facet normal 3.290169e-01 2.259571e-01 -9.168922e-01
    outer loop
      vertex 2.552658e+02 7.095646e+01 -4.851674e+02
      vertex 2.561032e+02 6.692211e+01 -4.858611e+02
      vertex 2.490394e+02 6.697675e+01 -4.883824e+02
    endloop
  endfacet
  facet normal -7.740787e-01 5.741584e-01 2.667288e-01
    outer loop
      vertex 2.107912e+02 7.303226e+01 -3.620432e+02
      vertex 1.999158e+02 7.284423e+01 -3.932000e+02
      vertex 2.063367e+02 6.222048e+01 -3.516971e+02
    endloop
  endfacet
  facet normal -1.119208e-01 7.715040e-01 6.263029e-01
    outer loop
      vertex 2.209176e+02 4.596579e+01 -3.290684e+02
      vertex 2.063367e+02 6.222048e+01 -3.516971e+02
      vertex 2.093117e+02 4.524781e+01 -3.302579e+02
    endloop
  endfacet
  facet normal -7.078560e-03 8.099938e-01 5.863957e-01
    outer loop
      vertex 2.406092e+02 6.534803e+01 -3.556035e+02
      vertex 2.063367e+02 6.222048e+01 -3.516971e+02
      vertex 2.209176e+02 4.596579e+01 -3.290684e+02
    endloop
  endfacet
  facet normal 5.389437e-02 4.935953e-01 8.680202e-01
    outer loop
      vertex 2.347928e+02 7.802755e+01 -3.624526e+02
      vertex 2.063367e+02 6.222048e+01 -3.516971e+02
      vertex 2.406092e+02 6.534803e+01 -3.556035e+02
    endloop
  endfacet
  facet normal -1.368252e-01 7.137194e-01 6.869377e-01
    outer loop
      vertex 2.347928e+02 7.802755e+01 -3.624526e+02
      vertex 2.107912e+02 7.303226e+01 -3.620432e+02
      vertex 2.063367e+02 6.222048e+01 -3.516971e+02
    endloop
  endfacet
  facet normal -1.019172e-01 -7.318834e-04 9.947926e-01
    outer loop
      vertex 2.209176e+02 4.596579e+01 -3.290684e+02
      vertex 2.093117e+02 4.524781e+01 -3.302579e+02
      vertex 2.072005e+02 3.693154e+01 -3.304803e+02
    endloop
  endfacet
  facet normal -9.006592e-02 -1.887686e-02 9.957569e-01
    outer loop
      vertex 2.233562e+02 3.681782e+01 -3.290212e+02
      vertex 2.209176e+02 4.596579e+01 -3.290684e+02
      vertex 2.072005e+02 3.693154e+01 -3.304803e+02
    endloop
  endfacet
  facet normal 6.255096e-01 5.729825e-01 5.295553e-01
    outer loop
      vertex 2.450076e+02 7.527348e+01 -3.715383e+02
      vertex 2.347928e+02 7.802755e+01 -3.624526e+02
      vertex 2.406092e+02 6.534803e+01 -3.556035e+02
    endloop
  endfacet
  facet normal 8.306495e-01 3.399100e-01 4.410018e-01
    outer loop
      vertex 2.450076e+02 7.527348e+01 -3.715383e+02
      vertex 2.406092e+02 6.534803e+01 -3.556035e+02
      vertex 2.529386e+02 5.320839e+01 -3.694697e+02
    endloop
  endfacet
  facet normal -2.524519e-01 9.582723e-01 -1.340980e-01
    outer loop
      vertex 2.451941e+02 8.858803e+01 -4.799690e+02
      vertex 2.379390e+02 8.679752e+01 -4.791058e+02
      vertex 2.430250e+02 9.005497e+01 -4.654026e+02
    endloop
  endfacet
  facet normal 1.655801e-01 9.833877e-01 -7.437713e-02
    outer loop
      vertex 2.475421e+02 8.854466e+01 -4.753152e+02
      vertex 2.451941e+02 8.858803e+01 -4.799690e+02
      vertex 2.430250e+02 9.005497e+01 -4.654026e+02
    endloop
  endfacet
  facet normal 7.794555e-01 6.207568e-01 8.432126e-02
    outer loop
      vertex 2.012044e+02 1.351735e+02 -4.109718e+02
      vertex 2.384878e+02 8.697128e+01 -4.007602e+02
      vertex 2.430250e+02 9.005497e+01 -4.654026e+02
    endloop
  endfacet
  facet normal 6.244137e-01 7.768943e-01 8.088749e-02
    outer loop
      vertex 2.485038e+02 7.841588e+01 -3.959072e+02
      vertex 2.430250e+02 9.005497e+01 -4.654026e+02
      vertex 2.384878e+02 8.697128e+01 -4.007602e+02
    endloop
  endfacet
  facet normal 6.753758e-01 7.322017e-01 -8.802431e-02
    outer loop
      vertex 2.014813e+02 1.341072e+02 -4.177159e+02
      vertex 2.012044e+02 1.351735e+02 -4.109718e+02
      vertex 2.430250e+02 9.005497e+01 -4.654026e+02
    endloop
  endfacet
  facet normal 5.107471e-01 8.535759e-01 1.026913e-01
    outer loop
      vertex 2.485038e+02 7.841588e+01 -3.959072e+02
      vertex 2.475421e+02 8.854466e+01 -4.753152e+02
      vertex 2.430250e+02 9.005497e+01 -4.654026e+02
    endloop
  endfacet
  facet normal 7.530555e-01 5.407014e-01 -3.748992e-01
    outer loop
      vertex 2.552658e+02 7.095646e+01 -4.851674e+02
      vertex 2.451941e+02 8.858803e+01 -4.799690e+02
      vertex 2.475421e+02 8.854466e+01 -4.753152e+02
    endloop
  endfacet
  facet normal 4.488110e-01 8.596706e-01 2.439984e-01
    outer loop
      vertex 2.450076e+02 7.527348e+01 -3.715383e+02
      vertex 2.384878e+02 8.697128e+01 -4.007602e+02
      vertex 2.347928e+02 7.802755e+01 -3.624526e+02
    endloop
  endfacet
  facet normal 5.846181e-01 7.897668e-01 1.857150e-01
    outer loop
      vertex 2.450076e+02 7.527348e+01 -3.715383e+02
      vertex 2.485038e+02 7.841588e+01 -3.959072e+02
      vertex 2.384878e+02 8.697128e+01 -4.007602e+02
    endloop
  endfacet
  facet normal 9.957037e-01 9.033977e-02 2.031880e-02
    outer loop
      vertex 2.561032e+02 6.692211e+01 -4.858611e+02
      vertex 2.570910e+02 5.324102e+01 -4.734441e+02
      vertex 2.590114e+02 3.221692e+01 -4.740736e+02
    endloop
  endfacet
  facet normal 9.958468e-01 9.102199e-02 -2.027150e-03
    outer loop
      vertex 2.592434e+02 2.983104e+01 -4.672217e+02
      vertex 2.590114e+02 3.221692e+01 -4.740736e+02
      vertex 2.570910e+02 5.324102e+01 -4.734441e+02
    endloop
  endfacet
  facet normal 9.391473e-01 2.655701e-01 2.178873e-01
    outer loop
      vertex 2.475421e+02 8.854466e+01 -4.753152e+02
      vertex 2.570910e+02 5.324102e+01 -4.734441e+02
      vertex 2.561032e+02 6.692211e+01 -4.858611e+02
    endloop
  endfacet
  facet normal 9.960544e-01 8.720679e-02 -1.645260e-02
    outer loop
      vertex 2.582793e+02 5.416762e+01 -3.965918e+02
      vertex 2.592434e+02 2.983104e+01 -4.672217e+02
      vertex 2.570910e+02 5.324102e+01 -4.734441e+02
    endloop
  endfacet
  facet normal 9.271179e-01 3.742957e-01 -1.884807e-02
    outer loop
      vertex 2.485038e+02 7.841588e+01 -3.959072e+02
      vertex 2.582793e+02 5.416762e+01 -3.965918e+02
      vertex 2.570910e+02 5.324102e+01 -4.734441e+02
    endloop
  endfacet
  facet normal 9.647926e-01 2.621113e-01 2.174876e-02
    outer loop
      vertex 2.485038e+02 7.841588e+01 -3.959072e+02
      vertex 2.570910e+02 5.324102e+01 -4.734441e+02
      vertex 2.475421e+02 8.854466e+01 -4.753152e+02
    endloop
  endfacet
  facet normal 8.553286e-01 8.979226e-02 5.102453e-01
    outer loop
      vertex 2.552658e+02 7.095646e+01 -4.851674e+02
      vertex 2.475421e+02 8.854466e+01 -4.753152e+02
      vertex 2.561032e+02 6.692211e+01 -4.858611e+02
    endloop
  endfacet
  facet normal 9.957713e-01 9.018749e-02 -1.748350e-02
    outer loop
      vertex 2.604373e+02 2.984082e+01 -3.991741e+02
      vertex 2.592434e+02 2.983104e+01 -4.672217e+02
      vertex 2.582793e+02 5.416762e+01 -3.965918e+02
    endloop
  endfacet
  facet normal 9.785667e-01 6.610188e-02 1.950326e-01
    outer loop
      vertex 2.529386e+02 5.320839e+01 -3.694697e+02
      vertex 2.604373e+02 2.984082e+01 -3.991741e+02
      vertex 2.582793e+02 5.416762e+01 -3.965918e+02
    endloop
  endfacet
  facet normal 9.174718e-01 3.478638e-01 1.929671e-01
    outer loop
      vertex 2.450076e+02 7.527348e+01 -3.715383e+02
      vertex 2.529386e+02 5.320839e+01 -3.694697e+02
      vertex 2.582793e+02 5.416762e+01 -3.965918e+02
    endloop
  endfacet
  facet normal 9.143771e-01 3.636005e-01 1.780707e-01
    outer loop
      vertex 2.450076e+02 7.527348e+01 -3.715383e+02
      vertex 2.582793e+02 5.416762e+01 -3.965918e+02
      vertex 2.485038e+02 7.841588e+01 -3.959072e+02
    endloop
  endfacet
  facet normal 9.803960e-01 9.559061e-02 1.722965e-01
    outer loop
      vertex 2.545101e+02 3.195767e+01 -3.666220e+02
      vertex 2.604373e+02 2.984082e+01 -3.991741e+02
      vertex 2.529386e+02 5.320839e+01 -3.694697e+02
    endloop
  endfacet
endsolid SIM_ICUB3_R_HAND
