solid SIM_ICUB3_R_SHOULDER_1
  facet normal -9.351131e-01 -2.505628e-01 -2.505628e-01
    outer loop
      vertex 5.756706e+01 -2.137501e+01 1.143244e+01
      vertex 5.760392e+01 2.651628e+00 -1.273176e+01
      vertex 6.296576e+01 -7.000897e+00 -2.308987e+01
    endloop
  endfacet
  facet normal -5.182140e-01 4.752012e-01 -7.110823e-01
    outer loop
      vertex 7.704712e+01 1.788763e+01 -1.671944e+01
      vertex 6.296576e+01 -7.000897e+00 -2.308987e+01
      vertex 5.760392e+01 2.651628e+00 -1.273176e+01
    endloop
  endfacet
  facet normal -9.351131e-01 -2.505628e-01 -2.505628e-01
    outer loop
      vertex 6.652762e+01 -2.007726e+01 -2.330657e+01
      vertex 5.756706e+01 -2.137501e+01 1.143244e+01
      vertex 6.296576e+01 -7.000897e+00 -2.308987e+01
    endloop
  endfacet
  facet normal 2.735025e-01 9.036874e-02 -9.576168e-01
    outer loop
      vertex 7.704712e+01 1.788763e+01 -1.671944e+01
      vertex 6.652762e+01 -2.007726e+01 -2.330657e+01
      vertex 6.296576e+01 -7.000897e+00 -2.308987e+01
    endloop
  endfacet
  facet normal -9.351131e-01 -2.505628e-01 -2.505628e-01
    outer loop
      vertex 5.756706e+01 -2.137501e+01 1.143244e+01
      vertex 5.402195e+01 1.603084e+00 1.684876e+00
      vertex 5.760392e+01 2.651628e+00 -1.273176e+01
    endloop
  endfacet
  facet normal -6.755024e-01 7.283566e-01 -1.148614e-01
    outer loop
      vertex 7.257177e+01 2.008069e+01 9.762766e+00
      vertex 5.760392e+01 2.651628e+00 -1.273176e+01
      vertex 5.402195e+01 1.603084e+00 1.684876e+00
    endloop
  endfacet
  facet normal -6.291723e-01 7.586370e-01 -1.691512e-01
    outer loop
      vertex 7.704712e+01 1.788763e+01 -1.671944e+01
      vertex 5.760392e+01 2.651628e+00 -1.273176e+01
      vertex 7.257177e+01 2.008069e+01 9.762766e+00
    endloop
  endfacet
  facet normal -9.351131e-01 -2.505628e-01 -2.505628e-01
    outer loop
      vertex 5.756706e+01 -2.137501e+01 1.143244e+01
      vertex 5.431198e+01 -9.803031e+00 1.200861e+01
      vertex 5.402195e+01 1.603084e+00 1.684876e+00
    endloop
  endfacet
  facet normal -9.122081e-01 2.619567e-01 3.150478e-01
    outer loop
      vertex 5.826298e+01 5.923793e-01 1.480497e+01
      vertex 5.402195e+01 1.603084e+00 1.684876e+00
      vertex 5.431198e+01 -9.803031e+00 1.200861e+01
    endloop
  endfacet
  facet normal -7.219036e-01 5.304548e-01 4.443793e-01
    outer loop
      vertex 7.447201e+01 8.966307e+00 2.611696e+01
      vertex 7.257177e+01 2.008069e+01 9.762766e+00
      vertex 5.402195e+01 1.603084e+00 1.684876e+00
    endloop
  endfacet
  facet normal -5.748253e-01 7.804444e-01 2.459317e-01
    outer loop
      vertex 7.447201e+01 8.966307e+00 2.611696e+01
      vertex 5.402195e+01 1.603084e+00 1.684876e+00
      vertex 5.826298e+01 5.923793e-01 1.480497e+01
    endloop
  endfacet
  facet normal -6.826221e-01 -2.266071e-01 6.947491e-01
    outer loop
      vertex 7.553062e+01 -1.300998e+01 3.181087e+01
      vertex 5.431198e+01 -9.803031e+00 1.200861e+01
      vertex 5.756706e+01 -2.137501e+01 1.143244e+01
    endloop
  endfacet
  facet normal -7.785864e-01 1.308202e-01 6.137502e-01
    outer loop
      vertex 6.031311e+01 -1.243670e+01 2.018285e+01
      vertex 5.826298e+01 5.923793e-01 1.480497e+01
      vertex 5.431198e+01 -9.803031e+00 1.200861e+01
    endloop
  endfacet
  facet normal 3.669179e-01 -7.725080e-01 -5.182689e-01
    outer loop
      vertex 7.553062e+01 -1.300998e+01 3.181087e+01
      vertex 6.031311e+01 -1.243670e+01 2.018285e+01
      vertex 5.431198e+01 -9.803031e+00 1.200861e+01
    endloop
  endfacet
  facet normal -7.541920e-01 -6.195241e-01 -2.176794e-01
    outer loop
      vertex 7.563177e+01 -3.389226e+01 -1.553163e+01
      vertex 5.756706e+01 -2.137501e+01 1.143244e+01
      vertex 6.652762e+01 -2.007726e+01 -2.330657e+01
    endloop
  endfacet
  facet normal -4.133456e-01 -6.545293e-01 6.330377e-01
    outer loop
      vertex 7.108810e+01 -3.678971e+01 4.323048e+00
      vertex 7.553062e+01 -1.300998e+01 3.181087e+01
      vertex 5.756706e+01 -2.137501e+01 1.143244e+01
    endloop
  endfacet
  facet normal -7.821952e-01 -5.654865e-01 -2.615257e-01
    outer loop
      vertex 7.108810e+01 -3.678971e+01 4.323048e+00
      vertex 5.756706e+01 -2.137501e+01 1.143244e+01
      vertex 7.563177e+01 -3.389226e+01 -1.553163e+01
    endloop
  endfacet
  facet normal 8.955564e-02 1.461242e-01 -9.852043e-01
    outer loop
      vertex 1.161367e+02 2.601731e+01 -1.196038e+01
      vertex 6.652762e+01 -2.007726e+01 -2.330657e+01
      vertex 7.704712e+01 1.788763e+01 -1.671944e+01
    endloop
  endfacet
  facet normal 1.528871e-01 -4.062528e-01 -9.008797e-01
    outer loop
      vertex 9.693054e+01 -1.442919e+01 -2.069394e+01
      vertex 7.563177e+01 -3.389226e+01 -1.553163e+01
      vertex 6.652762e+01 -2.007726e+01 -2.330657e+01
    endloop
  endfacet
  facet normal 4.929067e-02 1.883891e-01 -9.808568e-01
    outer loop
      vertex 1.161367e+02 2.601731e+01 -1.196038e+01
      vertex 9.693054e+01 -1.442919e+01 -2.069394e+01
      vertex 6.652762e+01 -2.007726e+01 -2.330657e+01
    endloop
  endfacet
  facet normal -3.641237e-01 9.210979e-01 -1.378132e-01
    outer loop
      vertex 1.097203e+02 3.489637e+01 1.063376e+01
      vertex 7.704712e+01 1.788763e+01 -1.671944e+01
      vertex 7.257177e+01 2.008069e+01 9.762766e+00
    endloop
  endfacet
  facet normal -4.810714e-01 6.980897e-01 5.303218e-01
    outer loop
      vertex 1.339605e+02 3.298431e+01 4.846467e+01
      vertex 7.257177e+01 2.008069e+01 9.762766e+00
      vertex 7.447201e+01 8.966307e+00 2.611696e+01
    endloop
  endfacet
  facet normal -3.615763e-01 8.903430e-01 2.766802e-01
    outer loop
      vertex 1.339605e+02 3.298431e+01 4.846467e+01
      vertex 1.097203e+02 3.489637e+01 1.063376e+01
      vertex 7.257177e+01 2.008069e+01 9.762766e+00
    endloop
  endfacet
  facet normal -1.404264e-01 9.072670e-01 -3.964176e-01
    outer loop
      vertex 1.161367e+02 2.601731e+01 -1.196038e+01
      vertex 7.704712e+01 1.788763e+01 -1.671944e+01
      vertex 1.097203e+02 3.489637e+01 1.063376e+01
    endloop
  endfacet
  facet normal -6.300690e-01 2.094975e-01 7.477459e-01
    outer loop
      vertex 7.447201e+01 8.966307e+00 2.611696e+01
      vertex 5.826298e+01 5.923793e-01 1.480497e+01
      vertex 6.031311e+01 -1.243670e+01 2.018285e+01
    endloop
  endfacet
  facet normal -5.936269e-01 1.749223e-01 7.854994e-01
    outer loop
      vertex 7.447201e+01 8.966307e+00 2.611696e+01
      vertex 6.031311e+01 -1.243670e+01 2.018285e+01
      vertex 7.553062e+01 -1.300998e+01 3.181087e+01
    endloop
  endfacet
  facet normal -4.167592e-01 2.091273e-01 8.846341e-01
    outer loop
      vertex 1.339605e+02 3.298431e+01 4.846467e+01
      vertex 7.447201e+01 8.966307e+00 2.611696e+01
      vertex 7.553062e+01 -1.300998e+01 3.181087e+01
    endloop
  endfacet
  facet normal -7.148790e-01 -4.675116e-01 5.199817e-01
    outer loop
      vertex 8.198959e+01 -3.037886e+01 2.507453e+01
      vertex 7.553062e+01 -1.300998e+01 3.181087e+01
      vertex 7.108810e+01 -3.678971e+01 4.323048e+00
    endloop
  endfacet
  facet normal -1.513781e-01 -4.058574e-01 9.013126e-01
    outer loop
      vertex 1.304487e+02 -1.404013e+01 4.057066e+01
      vertex 7.553062e+01 -1.300998e+01 3.181087e+01
      vertex 8.198959e+01 -3.037886e+01 2.507453e+01
    endloop
  endfacet
  facet normal -1.584651e-01 -1.519410e-01 9.756038e-01
    outer loop
      vertex 1.339605e+02 3.298431e+01 4.846467e+01
      vertex 7.553062e+01 -1.300998e+01 3.181087e+01
      vertex 1.304487e+02 -1.404013e+01 4.057066e+01
    endloop
  endfacet
  facet normal -5.601009e-02 -9.860544e-01 -1.567152e-01
    outer loop
      vertex 9.845066e+01 -3.857198e+01 5.757723e+00
      vertex 7.108810e+01 -3.678971e+01 4.323048e+00
      vertex 7.563177e+01 -3.389226e+01 -1.553163e+01
    endloop
  endfacet
  facet normal -8.013011e-02 -9.880974e-01 -1.313114e-01
    outer loop
      vertex 9.150983e+01 -3.485869e+01 -1.794869e+01
      vertex 9.845066e+01 -3.857198e+01 5.757723e+00
      vertex 7.563177e+01 -3.389226e+01 -1.553163e+01
    endloop
  endfacet
  facet normal -1.552790e-01 -9.098104e-02 -9.836721e-01
    outer loop
      vertex 9.693054e+01 -1.442919e+01 -2.069394e+01
      vertex 9.150983e+01 -3.485869e+01 -1.794869e+01
      vertex 7.563177e+01 -3.389226e+01 -1.553163e+01
    endloop
  endfacet
  facet normal -8.238495e-02 -8.614661e-01 5.010877e-01
    outer loop
      vertex 1.307928e+02 -2.314666e+01 3.759425e+01
      vertex 7.108810e+01 -3.678971e+01 4.323048e+00
      vertex 9.845066e+01 -3.857198e+01 5.757723e+00
    endloop
  endfacet
  facet normal 7.675120e-02 -9.632862e-01 2.572721e-01
    outer loop
      vertex 1.307928e+02 -2.314666e+01 3.759425e+01
      vertex 8.198959e+01 -3.037886e+01 2.507453e+01
      vertex 7.108810e+01 -3.678971e+01 4.323048e+00
    endloop
  endfacet
  facet normal 3.331649e-01 -9.117189e-01 -2.403535e-01
    outer loop
      vertex 1.476714e+02 -2.284272e+01 1.431996e+01
      vertex 9.845066e+01 -3.857198e+01 5.757723e+00
      vertex 9.150983e+01 -3.485869e+01 -1.794869e+01
    endloop
  endfacet
  facet normal -7.247197e-02 -8.666928e-01 4.935498e-01
    outer loop
      vertex 1.392507e+02 -2.102642e+01 4.255941e+01
      vertex 1.307928e+02 -2.314666e+01 3.759425e+01
      vertex 9.845066e+01 -3.857198e+01 5.757723e+00
    endloop
  endfacet
  facet normal 2.783935e-01 -9.495974e-01 1.440897e-01
    outer loop
      vertex 1.392507e+02 -2.102642e+01 4.255941e+01
      vertex 9.845066e+01 -3.857198e+01 5.757723e+00
      vertex 1.476714e+02 -2.284272e+01 1.431996e+01
    endloop
  endfacet
  facet normal 1.168290e-01 -1.626534e-01 -9.797422e-01
    outer loop
      vertex 1.552899e+02 -9.241005e+00 -1.459623e+01
      vertex 9.150983e+01 -3.485869e+01 -1.794869e+01
      vertex 9.693054e+01 -1.442919e+01 -2.069394e+01
    endloop
  endfacet
  facet normal 3.352040e-01 -7.620547e-01 -5.539953e-01
    outer loop
      vertex 1.552899e+02 -9.241005e+00 -1.459623e+01
      vertex 1.320580e+02 -2.783753e+01 -3.072396e+00
      vertex 9.150983e+01 -3.485869e+01 -1.794869e+01
    endloop
  endfacet
  facet normal 9.870744e-02 -9.764555e-01 1.918112e-01
    outer loop
      vertex 1.476714e+02 -2.284272e+01 1.431996e+01
      vertex 9.150983e+01 -3.485869e+01 -1.794869e+01
      vertex 1.320580e+02 -2.783753e+01 -3.072396e+00
    endloop
  endfacet
  facet normal 8.800043e-03 2.070617e-01 -9.782883e-01
    outer loop
      vertex 1.502461e+02 3.243972e+01 -1.029421e+01
      vertex 9.693054e+01 -1.442919e+01 -2.069394e+01
      vertex 1.161367e+02 2.601731e+01 -1.196038e+01
    endloop
  endfacet
  facet normal 9.327361e-02 1.133822e-01 -9.891635e-01
    outer loop
      vertex 1.502461e+02 3.243972e+01 -1.029421e+01
      vertex 1.552899e+02 -9.241005e+00 -1.459623e+01
      vertex 9.693054e+01 -1.442919e+01 -2.069394e+01
    endloop
  endfacet
  facet normal -1.925698e-01 -3.114216e-01 9.305555e-01
    outer loop
      vertex 1.304487e+02 -1.404013e+01 4.057066e+01
      vertex 8.198959e+01 -3.037886e+01 2.507453e+01
      vertex 1.307928e+02 -2.314666e+01 3.759425e+01
    endloop
  endfacet
  facet normal -1.614768e-01 -3.121002e-01 9.362258e-01
    outer loop
      vertex 1.569105e+02 -1.205153e+01 4.579761e+01
      vertex 1.304487e+02 -1.404013e+01 4.057066e+01
      vertex 1.307928e+02 -2.314666e+01 3.759425e+01
    endloop
  endfacet
  facet normal -4.662672e-01 7.458016e-01 4.757886e-01
    outer loop
      vertex 1.392507e+02 -2.102642e+01 4.255941e+01
      vertex 1.569105e+02 -1.205153e+01 4.579761e+01
      vertex 1.307928e+02 -2.314666e+01 3.759425e+01
    endloop
  endfacet
  facet normal 1.579856e-01 -1.749382e-01 9.718216e-01
    outer loop
      vertex 1.532331e+02 3.029931e+01 4.484825e+01
      vertex 1.339605e+02 3.298431e+01 4.846467e+01
      vertex 1.304487e+02 -1.404013e+01 4.057066e+01
    endloop
  endfacet
  facet normal -1.941525e-01 5.131040e-03 9.809579e-01
    outer loop
      vertex 1.532331e+02 3.029931e+01 4.484825e+01
      vertex 1.304487e+02 -1.404013e+01 4.057066e+01
      vertex 1.569105e+02 -1.205153e+01 4.579761e+01
    endloop
  endfacet
  facet normal -9.667965e-01 -9.104323e-02 -2.387794e-01
    outer loop
      vertex 1.113382e+02 3.572492e+01 3.767309e+00
      vertex 1.161367e+02 2.601731e+01 -1.196038e+01
      vertex 1.097203e+02 3.489637e+01 1.063376e+01
    endloop
  endfacet
  facet normal -7.935356e-02 9.917198e-01 1.009698e-01
    outer loop
      vertex 1.113382e+02 3.572492e+01 3.767309e+00
      vertex 1.097203e+02 3.489637e+01 1.063376e+01
      vertex 1.339605e+02 3.298431e+01 4.846467e+01
    endloop
  endfacet
  facet normal -1.237495e-01 8.070284e-01 -5.774004e-01
    outer loop
      vertex 1.539362e+02 3.635057e+01 -5.618909e+00
      vertex 1.502461e+02 3.243972e+01 -1.029421e+01
      vertex 1.161367e+02 2.601731e+01 -1.196038e+01
    endloop
  endfacet
  facet normal -4.536356e-01 6.898486e-01 -5.642017e-01
    outer loop
      vertex 1.259627e+02 3.390120e+01 -1.022117e+01
      vertex 1.161367e+02 2.601731e+01 -1.196038e+01
      vertex 1.113382e+02 3.572492e+01 3.767309e+00
    endloop
  endfacet
  facet normal 1.608470e-01 1.722853e-02 -9.868290e-01
    outer loop
      vertex 1.539362e+02 3.635057e+01 -5.618909e+00
      vertex 1.161367e+02 2.601731e+01 -1.196038e+01
      vertex 1.259627e+02 3.390120e+01 -1.022117e+01
    endloop
  endfacet
  facet normal 2.202890e-01 7.634323e-01 6.071605e-01
    outer loop
      vertex 1.534474e+02 3.706778e+01 3.625998e+01
      vertex 1.339605e+02 3.298431e+01 4.846467e+01
      vertex 1.532331e+02 3.029931e+01 4.484825e+01
    endloop
  endfacet
  facet normal -1.278593e-01 9.838787e-01 1.250389e-01
    outer loop
      vertex 1.534474e+02 3.706778e+01 3.625998e+01
      vertex 1.113382e+02 3.572492e+01 3.767309e+00
      vertex 1.339605e+02 3.298431e+01 4.846467e+01
    endloop
  endfacet
  facet normal 4.684924e-01 -8.074447e-01 -3.585357e-01
    outer loop
      vertex 1.552899e+02 -9.241005e+00 -1.459623e+01
      vertex 1.598129e+02 -1.881489e+01 1.287495e+01
      vertex 1.320580e+02 -2.783753e+01 -3.072396e+00
    endloop
  endfacet
  facet normal 3.138762e-01 -9.494202e-01 -9.113539e-03
    outer loop
      vertex 1.476714e+02 -2.284272e+01 1.431996e+01
      vertex 1.320580e+02 -2.783753e+01 -3.072396e+00
      vertex 1.598129e+02 -1.881489e+01 1.287495e+01
    endloop
  endfacet
  facet normal 5.843828e-01 -7.315577e-01 -3.511695e-01
    outer loop
      vertex 1.793420e+02 -4.025531e+00 1.456419e+01
      vertex 1.598129e+02 -1.881489e+01 1.287495e+01
      vertex 1.552899e+02 -9.241005e+00 -1.459623e+01
    endloop
  endfacet
  facet normal 3.305610e-01 -9.183115e-01 2.177920e-01
    outer loop
      vertex 1.569105e+02 -1.205153e+01 4.579761e+01
      vertex 1.476714e+02 -2.284272e+01 1.431996e+01
      vertex 1.598129e+02 -1.881489e+01 1.287495e+01
    endloop
  endfacet
  facet normal 4.187892e-01 -8.815248e-01 2.180129e-01
    outer loop
      vertex 1.724663e+02 -7.119858e+00 3.585691e+01
      vertex 1.569105e+02 -1.205153e+01 4.579761e+01
      vertex 1.598129e+02 -1.881489e+01 1.287495e+01
    endloop
  endfacet
  facet normal 5.976804e-01 -7.980256e-01 7.702814e-02
    outer loop
      vertex 1.724663e+02 -7.119858e+00 3.585691e+01
      vertex 1.598129e+02 -1.881489e+01 1.287495e+01
      vertex 1.793420e+02 -4.025531e+00 1.456419e+01
    endloop
  endfacet
  facet normal 5.553384e-01 1.515982e-01 -8.176902e-01
    outer loop
      vertex 1.652489e+02 2.100600e+01 -2.224751e+00
      vertex 1.552899e+02 -9.241005e+00 -1.459623e+01
      vertex 1.502461e+02 3.243972e+01 -1.029421e+01
    endloop
  endfacet
  facet normal 4.580578e-01 2.031424e-01 -8.653995e-01
    outer loop
      vertex 1.652489e+02 2.100600e+01 -2.224751e+00
      vertex 1.712632e+02 -5.237726e+00 -5.201769e+00
      vertex 1.552899e+02 -9.241005e+00 -1.459623e+01
    endloop
  endfacet
  facet normal 2.714473e-01 -9.610471e-01 -5.200813e-02
    outer loop
      vertex 1.793420e+02 -4.025531e+00 1.456419e+01
      vertex 1.552899e+02 -9.241005e+00 -1.459623e+01
      vertex 1.712632e+02 -5.237726e+00 -5.201769e+00
    endloop
  endfacet
  facet normal 4.187464e-01 -8.896606e-01 1.820862e-01
    outer loop
      vertex 1.392507e+02 -2.102642e+01 4.255941e+01
      vertex 1.476714e+02 -2.284272e+01 1.431996e+01
      vertex 1.569105e+02 -1.205153e+01 4.579761e+01
    endloop
  endfacet
  facet normal 6.572348e-01 7.388213e-02 7.500559e-01
    outer loop
      vertex 1.657749e+02 2.557028e+01 3.432437e+01
      vertex 1.532331e+02 3.029931e+01 4.484825e+01
      vertex 1.569105e+02 -1.205153e+01 4.579761e+01
    endloop
  endfacet
  facet normal 5.005147e-01 1.424836e-01 8.539224e-01
    outer loop
      vertex 1.724663e+02 -7.119858e+00 3.585691e+01
      vertex 1.657749e+02 2.557028e+01 3.432437e+01
      vertex 1.569105e+02 -1.205153e+01 4.579761e+01
    endloop
  endfacet
  facet normal 7.992246e-01 -5.839313e-01 -1.423527e-01
    outer loop
      vertex 1.539362e+02 3.635057e+01 -5.618909e+00
      vertex 1.600126e+02 4.019584e+01 1.272302e+01
      vertex 1.502461e+02 3.243972e+01 -1.029421e+01
    endloop
  endfacet
  facet normal 3.102838e-01 8.532395e-01 -4.191734e-01
    outer loop
      vertex 1.648313e+02 3.815492e+01 1.213558e+01
      vertex 1.502461e+02 3.243972e+01 -1.029421e+01
      vertex 1.600126e+02 4.019584e+01 1.272302e+01
    endloop
  endfacet
  facet normal 7.827091e-01 2.460925e-01 -5.716687e-01
    outer loop
      vertex 1.711012e+02 2.491160e+01 1.501920e+01
      vertex 1.502461e+02 3.243972e+01 -1.029421e+01
      vertex 1.648313e+02 3.815492e+01 1.213558e+01
    endloop
  endfacet
  facet normal 6.809668e-01 6.297617e-01 -3.737437e-01
    outer loop
      vertex 1.652489e+02 2.100600e+01 -2.224751e+00
      vertex 1.502461e+02 3.243972e+01 -1.029421e+01
      vertex 1.711012e+02 2.491160e+01 1.501920e+01
    endloop
  endfacet
  facet normal 7.879180e-01 4.739295e-01 3.931617e-01
    outer loop
      vertex 1.534474e+02 3.706778e+01 3.625998e+01
      vertex 1.532331e+02 3.029931e+01 4.484825e+01
      vertex 1.648313e+02 3.815492e+01 1.213558e+01
    endloop
  endfacet
  facet normal 5.880543e-01 7.140205e-01 3.799563e-01
    outer loop
      vertex 1.657749e+02 2.557028e+01 3.432437e+01
      vertex 1.648313e+02 3.815492e+01 1.213558e+01
      vertex 1.532331e+02 3.029931e+01 4.484825e+01
    endloop
  endfacet
  facet normal -5.583111e-02 9.809139e-01 -1.862547e-01
    outer loop
      vertex 1.600126e+02 4.019584e+01 1.272302e+01
      vertex 1.259627e+02 3.390120e+01 -1.022117e+01
      vertex 1.113382e+02 3.572492e+01 3.767309e+00
    endloop
  endfacet
  facet normal -1.093966e-01 9.888632e-01 1.009059e-01
    outer loop
      vertex 1.534474e+02 3.706778e+01 3.625998e+01
      vertex 1.600126e+02 4.019584e+01 1.272302e+01
      vertex 1.113382e+02 3.572492e+01 3.767309e+00
    endloop
  endfacet
  facet normal -5.504791e-02 9.807456e-01 -1.873709e-01
    outer loop
      vertex 1.539362e+02 3.635057e+01 -5.618909e+00
      vertex 1.259627e+02 3.390120e+01 -1.022117e+01
      vertex 1.600126e+02 4.019584e+01 1.272302e+01
    endloop
  endfacet
  facet normal 4.031917e-01 8.856960e-01 2.301719e-01
    outer loop
      vertex 1.534474e+02 3.706778e+01 3.625998e+01
      vertex 1.648313e+02 3.815492e+01 1.213558e+01
      vertex 1.600126e+02 4.019584e+01 1.272302e+01
    endloop
  endfacet
  facet normal 8.616410e-01 4.563117e-01 2.221585e-01
    outer loop
      vertex 1.657749e+02 2.557028e+01 3.432437e+01
      vertex 1.711012e+02 2.491160e+01 1.501920e+01
      vertex 1.648313e+02 3.815492e+01 1.213558e+01
    endloop
  endfacet
  facet normal 8.992008e-01 2.470363e-01 -3.611246e-01
    outer loop
      vertex 1.652489e+02 2.100600e+01 -2.224751e+00
      vertex 1.711012e+02 2.491160e+01 1.501920e+01
      vertex 1.712632e+02 -5.237726e+00 -5.201769e+00
    endloop
  endfacet
  facet normal 8.884225e-01 2.589674e-01 -3.790003e-01
    outer loop
      vertex 1.793420e+02 -4.025531e+00 1.456419e+01
      vertex 1.712632e+02 -5.237726e+00 -5.201769e+00
      vertex 1.711012e+02 2.491160e+01 1.501920e+01
    endloop
  endfacet
  facet normal 9.326411e-01 2.616949e-01 2.483876e-01
    outer loop
      vertex 1.657749e+02 2.557028e+01 3.432437e+01
      vertex 1.793420e+02 -4.025531e+00 1.456419e+01
      vertex 1.711012e+02 2.491160e+01 1.501920e+01
    endloop
  endfacet
  facet normal 9.225028e-01 2.041848e-01 3.275625e-01
    outer loop
      vertex 1.724663e+02 -7.119858e+00 3.585691e+01
      vertex 1.793420e+02 -4.025531e+00 1.456419e+01
      vertex 1.657749e+02 2.557028e+01 3.432437e+01
    endloop
  endfacet
endsolid SIM_ICUB3_R_SHOULDER_1
