solid SIM_ICUB3_L_HAND
  facet normal -9.963514e-01 -8.528303e-02 -3.260792e-03
    outer loop
      vertex -2.572413e+02 2.760207e+01 -4.688245e+02
      vertex -2.590529e+02 4.916082e+01 -4.791158e+02
      vertex -2.574535e+02 3.028417e+01 -4.741194e+02
    endloop
  endfacet
  facet normal -4.535160e-01 -2.637619e-01 -8.513242e-01
    outer loop
      vertex -2.547743e+02 6.646806e+01 -4.867573e+02
      vertex -2.574535e+02 3.028417e+01 -4.741194e+02
      vertex -2.590529e+02 4.916082e+01 -4.791158e+02
    endloop
  endfacet
  facet normal 3.022662e-01 -8.454133e-01 -4.403539e-01
    outer loop
      vertex -2.465404e+02 2.435540e+01 -4.552461e+02
      vertex -2.572413e+02 2.760207e+01 -4.688245e+02
      vertex -2.574535e+02 3.028417e+01 -4.741194e+02
    endloop
  endfacet
  facet normal -1.465632e-01 -3.164858e-01 -9.372065e-01
    outer loop
      vertex -2.470195e+02 6.652453e+01 -4.879891e+02
      vertex -2.574535e+02 3.028417e+01 -4.741194e+02
      vertex -2.547743e+02 6.646806e+01 -4.867573e+02
    endloop
  endfacet
  facet normal -1.399818e-01 -3.185040e-01 -9.375288e-01
    outer loop
      vertex -2.470195e+02 6.652453e+01 -4.879891e+02
      vertex -2.505602e+02 3.022795e+01 -4.751295e+02
      vertex -2.574535e+02 3.028417e+01 -4.741194e+02
    endloop
  endfacet
  facet normal -4.798362e-02 -9.605342e-01 -2.739921e-01
    outer loop
      vertex -2.465404e+02 2.435540e+01 -4.552461e+02
      vertex -2.574535e+02 3.028417e+01 -4.741194e+02
      vertex -2.505602e+02 3.022795e+01 -4.751295e+02
    endloop
  endfacet
  facet normal -9.957726e-01 -9.067543e-02 -1.465891e-02
    outer loop
      vertex -2.600937e+02 4.693029e+01 -3.946188e+02
      vertex -2.590529e+02 4.916082e+01 -4.791158e+02
      vertex -2.572413e+02 2.760207e+01 -4.688245e+02
    endloop
  endfacet
  facet normal -9.579768e-01 2.741237e-01 8.447911e-02
    outer loop
      vertex -2.474252e+02 8.908924e+01 -4.768222e+02
      vertex -2.547743e+02 6.646806e+01 -4.867573e+02
      vertex -2.590529e+02 4.916082e+01 -4.791158e+02
    endloop
  endfacet
  facet normal -9.243574e-01 3.815254e-01 -1.314245e-03
    outer loop
      vertex -2.453199e+02 8.271875e+01 -3.961952e+02
      vertex -2.590529e+02 4.916082e+01 -4.791158e+02
      vertex -2.600937e+02 4.693029e+01 -3.946188e+02
    endloop
  endfacet
  facet normal -9.597792e-01 2.768054e-01 4.693230e-02
    outer loop
      vertex -2.453199e+02 8.271875e+01 -3.961952e+02
      vertex -2.474252e+02 8.908924e+01 -4.768222e+02
      vertex -2.590529e+02 4.916082e+01 -4.791158e+02
    endloop
  endfacet
  facet normal -1.121339e-01 -9.828157e-01 -1.466264e-01
    outer loop
      vertex -2.275244e+02 1.351905e+01 -3.971543e+02
      vertex -2.572413e+02 2.760207e+01 -4.688245e+02
      vertex -2.465404e+02 2.435540e+01 -4.552461e+02
    endloop
  endfacet
  facet normal -9.839971e-01 -1.779798e-01 8.533752e-03
    outer loop
      vertex -2.556727e+02 2.220335e+01 -4.005528e+02
      vertex -2.600937e+02 4.693029e+01 -3.946188e+02
      vertex -2.572413e+02 2.760207e+01 -4.688245e+02
    endloop
  endfacet
  facet normal -2.864908e-01 -9.555963e-01 -6.898353e-02
    outer loop
      vertex -2.275244e+02 1.351905e+01 -3.971543e+02
      vertex -2.556727e+02 2.220335e+01 -4.005528e+02
      vertex -2.572413e+02 2.760207e+01 -4.688245e+02
    endloop
  endfacet
  facet normal -1.488163e-01 3.618294e-01 -9.202897e-01
    outer loop
      vertex -2.403991e+02 8.723656e+01 -4.809163e+02
      vertex -2.470195e+02 6.652453e+01 -4.879891e+02
      vertex -2.547743e+02 6.646806e+01 -4.867573e+02
    endloop
  endfacet
  facet normal -8.793855e-01 3.994675e-01 -2.590498e-01
    outer loop
      vertex -2.471540e+02 8.770884e+01 -4.798714e+02
      vertex -2.547743e+02 6.646806e+01 -4.867573e+02
      vertex -2.474252e+02 8.908924e+01 -4.768222e+02
    endloop
  endfacet
  facet normal -1.199046e-01 3.448236e-01 -9.309778e-01
    outer loop
      vertex -2.403991e+02 8.723656e+01 -4.809163e+02
      vertex -2.547743e+02 6.646806e+01 -4.867573e+02
      vertex -2.471540e+02 8.770884e+01 -4.798714e+02
    endloop
  endfacet
  facet normal 8.986040e-01 -2.217861e-01 -3.785785e-01
    outer loop
      vertex -2.470195e+02 6.652453e+01 -4.879891e+02
      vertex -2.410983e+02 5.157232e+01 -4.651748e+02
      vertex -2.505602e+02 3.022795e+01 -4.751295e+02
    endloop
  endfacet
  facet normal 9.206478e-01 -2.824132e-01 -2.695374e-01
    outer loop
      vertex -2.465404e+02 2.435540e+01 -4.552461e+02
      vertex -2.505602e+02 3.022795e+01 -4.751295e+02
      vertex -2.410983e+02 5.157232e+01 -4.651748e+02
    endloop
  endfacet
  facet normal 9.415556e-01 -1.119203e-01 -3.177213e-01
    outer loop
      vertex -2.389264e+02 8.995882e+01 -4.722605e+02
      vertex -2.410983e+02 5.157232e+01 -4.651748e+02
      vertex -2.470195e+02 6.652453e+01 -4.879891e+02
    endloop
  endfacet
  facet normal 9.229309e-01 -2.806634e-01 -2.634894e-01
    outer loop
      vertex -2.287053e+02 7.831448e+01 -4.502506e+02
      vertex -2.465404e+02 2.435540e+01 -4.552461e+02
      vertex -2.410983e+02 5.157232e+01 -4.651748e+02
    endloop
  endfacet
  facet normal 8.002101e-01 -1.523455e-01 -5.800471e-01
    outer loop
      vertex -1.925617e+02 1.315205e+02 -4.192134e+02
      vertex -2.410983e+02 5.157232e+01 -4.651748e+02
      vertex -2.389264e+02 8.995882e+01 -4.722605e+02
    endloop
  endfacet
  facet normal -1.039397e-01 -4.475223e-01 8.882119e-01
    outer loop
      vertex -1.925617e+02 1.315205e+02 -4.192134e+02
      vertex -2.287053e+02 7.831448e+01 -4.502506e+02
      vertex -2.410983e+02 5.157232e+01 -4.651748e+02
    endloop
  endfacet
  facet normal 9.569760e-01 -2.804073e-01 -7.462386e-02
    outer loop
      vertex -2.403991e+02 8.723656e+01 -4.809163e+02
      vertex -2.389264e+02 8.995882e+01 -4.722605e+02
      vertex -2.470195e+02 6.652453e+01 -4.879891e+02
    endloop
  endfacet
  facet normal 8.924097e-01 -2.894858e-01 -3.461257e-01
    outer loop
      vertex -2.205349e+02 1.769873e+01 -3.826292e+02
      vertex -2.275244e+02 1.351905e+01 -3.971543e+02
      vertex -2.465404e+02 2.435540e+01 -4.552461e+02
    endloop
  endfacet
  facet normal 8.322418e-01 -2.283087e-01 -5.052215e-01
    outer loop
      vertex -2.287053e+02 7.831448e+01 -4.502506e+02
      vertex -2.394826e+02 2.726217e+01 -4.449335e+02
      vertex -2.465404e+02 2.435540e+01 -4.552461e+02
    endloop
  endfacet
  facet normal 7.152104e-01 -6.247054e-01 -3.133963e-01
    outer loop
      vertex -2.205349e+02 1.769873e+01 -3.826292e+02
      vertex -2.465404e+02 2.435540e+01 -4.552461e+02
      vertex -2.394826e+02 2.726217e+01 -4.449335e+02
    endloop
  endfacet
  facet normal -9.345710e-01 -2.318547e-01 2.698527e-01
    outer loop
      vertex -2.487593e+02 4.369702e+01 -3.581427e+02
      vertex -2.600937e+02 4.693029e+01 -3.946188e+02
      vertex -2.556727e+02 2.220335e+01 -4.005528e+02
    endloop
  endfacet
  facet normal -9.056078e-01 2.922891e-01 3.073134e-01
    outer loop
      vertex -2.404548e+02 7.548071e+01 -3.639005e+02
      vertex -2.600937e+02 4.693029e+01 -3.946188e+02
      vertex -2.487593e+02 4.369702e+01 -3.581427e+02
    endloop
  endfacet
  facet normal -8.981080e-01 3.804628e-01 2.205674e-01
    outer loop
      vertex -2.404548e+02 7.548071e+01 -3.639005e+02
      vertex -2.453199e+02 8.271875e+01 -3.961952e+02
      vertex -2.600937e+02 4.693029e+01 -3.946188e+02
    endloop
  endfacet
  facet normal -3.071343e-01 -9.416673e-01 1.375908e-01
    outer loop
      vertex -2.224727e+02 1.825830e+01 -3.534425e+02
      vertex -2.556727e+02 2.220335e+01 -4.005528e+02
      vertex -2.275244e+02 1.351905e+01 -3.971543e+02
    endloop
  endfacet
  facet normal -9.636711e-01 -1.394789e-01 2.277799e-01
    outer loop
      vertex -2.451347e+02 2.355285e+01 -3.551433e+02
      vertex -2.487593e+02 4.369702e+01 -3.581427e+02
      vertex -2.556727e+02 2.220335e+01 -4.005528e+02
    endloop
  endfacet
  facet normal -2.326102e-01 -9.690408e-01 8.277923e-02
    outer loop
      vertex -2.224727e+02 1.825830e+01 -3.534425e+02
      vertex -2.451347e+02 2.355285e+01 -3.551433e+02
      vertex -2.556727e+02 2.220335e+01 -4.005528e+02
    endloop
  endfacet
  facet normal 6.681351e-01 -7.440320e-01 3.453451e-03
    outer loop
      vertex -2.089399e+02 3.048296e+01 -3.378706e+02
      vertex -2.224727e+02 1.825830e+01 -3.534425e+02
      vertex -2.275244e+02 1.351905e+01 -3.971543e+02
    endloop
  endfacet
  facet normal 9.215599e-03 -9.621333e-01 2.724236e-01
    outer loop
      vertex -2.089399e+02 3.048296e+01 -3.378706e+02
      vertex -2.275244e+02 1.351905e+01 -3.971543e+02
      vertex -2.205349e+02 1.769873e+01 -3.826292e+02
    endloop
  endfacet
  facet normal -6.836322e-01 -1.435763e-02 7.296854e-01
    outer loop
      vertex -2.173785e+02 4.876885e+01 -3.286427e+02
      vertex -2.487593e+02 4.369702e+01 -3.581427e+02
      vertex -2.451347e+02 2.355285e+01 -3.551433e+02
    endloop
  endfacet
  facet normal -6.648762e-01 3.826964e-01 6.414696e-01
    outer loop
      vertex -2.260842e+02 7.390652e+01 -3.526630e+02
      vertex -2.487593e+02 4.369702e+01 -3.581427e+02
      vertex -2.173785e+02 4.876885e+01 -3.286427e+02
    endloop
  endfacet
  facet normal -5.700439e-01 2.883166e-01 7.693656e-01
    outer loop
      vertex -2.260842e+02 7.390652e+01 -3.526630e+02
      vertex -2.404548e+02 7.548071e+01 -3.639005e+02
      vertex -2.487593e+02 4.369702e+01 -3.581427e+02
    endloop
  endfacet
  facet normal -1.980209e-01 -5.981352e-01 7.765450e-01
    outer loop
      vertex -2.173785e+02 4.876885e+01 -3.286427e+02
      vertex -2.451347e+02 2.355285e+01 -3.551433e+02
      vertex -2.224727e+02 1.825830e+01 -3.534425e+02
    endloop
  endfacet
  facet normal 4.200382e-01 -6.136065e-01 6.686217e-01
    outer loop
      vertex -2.041854e+02 4.895296e+01 -3.367618e+02
      vertex -2.173785e+02 4.876885e+01 -3.286427e+02
      vertex -2.224727e+02 1.825830e+01 -3.534425e+02
    endloop
  endfacet
  facet normal -8.067826e-01 1.737766e-01 5.647155e-01
    outer loop
      vertex -2.089399e+02 3.048296e+01 -3.378706e+02
      vertex -2.041854e+02 4.895296e+01 -3.367618e+02
      vertex -2.224727e+02 1.825830e+01 -3.534425e+02
    endloop
  endfacet
  facet normal 2.201553e-01 7.126829e-01 6.660441e-01
    outer loop
      vertex -1.966606e+02 1.054769e+02 -3.961697e+02
      vertex -2.260842e+02 7.390652e+01 -3.526630e+02
      vertex -2.173785e+02 4.876885e+01 -3.286427e+02
    endloop
  endfacet
  facet normal 3.964335e-01 6.395143e-01 6.586820e-01
    outer loop
      vertex -1.966606e+02 1.054769e+02 -3.961697e+02
      vertex -2.173785e+02 4.876885e+01 -3.286427e+02
      vertex -2.041854e+02 4.895296e+01 -3.367618e+02
    endloop
  endfacet
  facet normal 1.219370e-01 9.082291e-01 -4.003139e-01
    outer loop
      vertex -2.389264e+02 8.995882e+01 -4.722605e+02
      vertex -2.471540e+02 8.770884e+01 -4.798714e+02
      vertex -2.474252e+02 8.908924e+01 -4.768222e+02
    endloop
  endfacet
  facet normal 1.887949e-01 8.382627e-01 -5.115390e-01
    outer loop
      vertex -2.060685e+02 1.225840e+02 -4.066704e+02
      vertex -2.389264e+02 8.995882e+01 -4.722605e+02
      vertex -2.474252e+02 8.908924e+01 -4.768222e+02
    endloop
  endfacet
  facet normal -7.007612e-01 7.095101e-01 7.435776e-02
    outer loop
      vertex -2.060685e+02 1.225840e+02 -4.066704e+02
      vertex -2.474252e+02 8.908924e+01 -4.768222e+02
      vertex -2.453199e+02 8.271875e+01 -3.961952e+02
    endloop
  endfacet
  facet normal 1.974219e-02 9.527830e-01 -3.030096e-01
    outer loop
      vertex -2.403991e+02 8.723656e+01 -4.809163e+02
      vertex -2.471540e+02 8.770884e+01 -4.798714e+02
      vertex -2.389264e+02 8.995882e+01 -4.722605e+02
    endloop
  endfacet
  facet normal -8.389176e-01 5.196578e-01 1.617806e-01
    outer loop
      vertex -1.975773e+02 1.380783e+02 -4.124084e+02
      vertex -2.389264e+02 8.995882e+01 -4.722605e+02
      vertex -2.060685e+02 1.225840e+02 -4.066704e+02
    endloop
  endfacet
  facet normal 5.449628e-01 3.591046e-01 -7.576671e-01
    outer loop
      vertex -1.936437e+02 1.353028e+02 -4.181990e+02
      vertex -1.925617e+02 1.315205e+02 -4.192134e+02
      vertex -2.389264e+02 8.995882e+01 -4.722605e+02
    endloop
  endfacet
  facet normal -6.720087e-01 7.302800e-01 -1.228636e-01
    outer loop
      vertex -1.988563e+02 1.358248e+02 -4.188065e+02
      vertex -2.389264e+02 8.995882e+01 -4.722605e+02
      vertex -1.975773e+02 1.380783e+02 -4.124084e+02
    endloop
  endfacet
  facet normal 1.515741e-01 6.911374e-01 -7.066502e-01
    outer loop
      vertex -1.936437e+02 1.353028e+02 -4.181990e+02
      vertex -2.389264e+02 8.995882e+01 -4.722605e+02
      vertex -1.988563e+02 1.358248e+02 -4.188065e+02
    endloop
  endfacet
  facet normal -5.965357e-01 6.935028e-01 4.039791e-01
    outer loop
      vertex -2.260842e+02 7.390652e+01 -3.526630e+02
      vertex -2.060685e+02 1.225840e+02 -4.066704e+02
      vertex -2.453199e+02 8.271875e+01 -3.961952e+02
    endloop
  endfacet
  facet normal -7.232257e-02 9.708566e-01 2.284882e-01
    outer loop
      vertex -2.260842e+02 7.390652e+01 -3.526630e+02
      vertex -2.453199e+02 8.271875e+01 -3.961952e+02
      vertex -2.404548e+02 7.548071e+01 -3.639005e+02
    endloop
  endfacet
  facet normal 3.583347e-01 6.235555e-01 6.948200e-01
    outer loop
      vertex -1.966606e+02 1.054769e+02 -3.961697e+02
      vertex -2.060685e+02 1.225840e+02 -4.066704e+02
      vertex -2.260842e+02 7.390652e+01 -3.526630e+02
    endloop
  endfacet
  facet normal 4.282387e-02 5.396500e-01 8.407996e-01
    outer loop
      vertex -1.966606e+02 1.054769e+02 -3.961697e+02
      vertex -1.900679e+02 1.280887e+02 -4.110184e+02
      vertex -2.060685e+02 1.225840e+02 -4.066704e+02
    endloop
  endfacet
  facet normal 1.601814e-01 2.816575e-01 9.460502e-01
    outer loop
      vertex -1.924591e+02 1.369444e+02 -4.132501e+02
      vertex -2.060685e+02 1.225840e+02 -4.066704e+02
      vertex -1.900679e+02 1.280887e+02 -4.110184e+02
    endloop
  endfacet
  facet normal 2.085656e-01 2.370811e-01 9.488377e-01
    outer loop
      vertex -1.924591e+02 1.369444e+02 -4.132501e+02
      vertex -1.975773e+02 1.380783e+02 -4.124084e+02
      vertex -2.060685e+02 1.225840e+02 -4.066704e+02
    endloop
  endfacet
  facet normal 8.651805e-01 -2.291011e-01 -4.460665e-01
    outer loop
      vertex -2.287053e+02 7.831448e+01 -4.502506e+02
      vertex -1.989047e+02 6.829833e+01 -3.873057e+02
      vertex -2.394826e+02 2.726217e+01 -4.449335e+02
    endloop
  endfacet
  facet normal 8.593148e-01 -3.971252e-01 -3.222881e-01
    outer loop
      vertex -2.205349e+02 1.769873e+01 -3.826292e+02
      vertex -2.394826e+02 2.726217e+01 -4.449335e+02
      vertex -1.989047e+02 6.829833e+01 -3.873057e+02
    endloop
  endfacet
  facet normal 8.422592e-01 -3.016676e-01 -4.467618e-01
    outer loop
      vertex -1.900679e+02 1.280887e+02 -4.110184e+02
      vertex -1.989047e+02 6.829833e+01 -3.873057e+02
      vertex -2.287053e+02 7.831448e+01 -4.502506e+02
    endloop
  endfacet
  facet normal 9.161704e-01 -3.968341e-01 -5.616557e-02
    outer loop
      vertex -2.041854e+02 4.895296e+01 -3.367618e+02
      vertex -2.205349e+02 1.769873e+01 -3.826292e+02
      vertex -1.989047e+02 6.829833e+01 -3.873057e+02
    endloop
  endfacet
  facet normal 9.952636e-01 -3.882325e-02 8.912449e-02
    outer loop
      vertex -1.966606e+02 1.054769e+02 -3.961697e+02
      vertex -2.041854e+02 4.895296e+01 -3.367618e+02
      vertex -1.989047e+02 6.829833e+01 -3.873057e+02
    endloop
  endfacet
  facet normal 8.734827e-01 6.239631e-02 4.828403e-01
    outer loop
      vertex -1.966606e+02 1.054769e+02 -3.961697e+02
      vertex -1.989047e+02 6.829833e+01 -3.873057e+02
      vertex -1.900679e+02 1.280887e+02 -4.110184e+02
    endloop
  endfacet
  facet normal 8.492446e-01 -3.424869e-01 -4.018537e-01
    outer loop
      vertex -1.925617e+02 1.315205e+02 -4.192134e+02
      vertex -1.900679e+02 1.280887e+02 -4.110184e+02
      vertex -2.287053e+02 7.831448e+01 -4.502506e+02
    endloop
  endfacet
  facet normal 9.551178e-01 -2.350381e-01 -1.802970e-01
    outer loop
      vertex -2.089399e+02 3.048296e+01 -3.378706e+02
      vertex -2.205349e+02 1.769873e+01 -3.826292e+02
      vertex -2.041854e+02 4.895296e+01 -3.367618e+02
    endloop
  endfacet
  facet normal 9.567620e-01 2.068037e-01 -2.045449e-01
    outer loop
      vertex -1.924591e+02 1.369444e+02 -4.132501e+02
      vertex -1.900679e+02 1.280887e+02 -4.110184e+02
      vertex -1.925617e+02 1.315205e+02 -4.192134e+02
    endloop
  endfacet
  facet normal 8.830463e-01 3.395095e-01 -3.239791e-01
    outer loop
      vertex -1.936437e+02 1.353028e+02 -4.181990e+02
      vertex -1.924591e+02 1.369444e+02 -4.132501e+02
      vertex -1.925617e+02 1.315205e+02 -4.192134e+02
    endloop
  endfacet
  facet normal 1.462976e-01 9.235344e-01 -3.545155e-01
    outer loop
      vertex -1.924591e+02 1.369444e+02 -4.132501e+02
      vertex -1.988563e+02 1.358248e+02 -4.188065e+02
      vertex -1.975773e+02 1.380783e+02 -4.124084e+02
    endloop
  endfacet
  facet normal 1.329121e-01 9.307794e-01 -3.405645e-01
    outer loop
      vertex -1.936437e+02 1.353028e+02 -4.181990e+02
      vertex -1.988563e+02 1.358248e+02 -4.188065e+02
      vertex -1.924591e+02 1.369444e+02 -4.132501e+02
    endloop
  endfacet
endsolid SIM_ICUB3_L_HAND
