solid SIM_ICUB3_R_FOOT_FRONT
  facet normal -9.985932e-01 -5.302490e-02 -2.020490e-04
    outer loop
      vertex 1.594084e+01 5.188255e+01 -9.404466e+02
      vertex 1.485000e+01 7.242589e+01 -9.404466e+02
      vertex 1.592759e+01 5.215021e+01 -9.452105e+02
    endloop
  endfacet
  facet normal -9.977823e-01 -4.064416e-02 -5.271227e-02
    outer loop
      vertex 1.511371e+01 7.242589e+01 -9.454383e+02
      vertex 1.592759e+01 5.215021e+01 -9.452105e+02
      vertex 1.485000e+01 7.242589e+01 -9.404466e+02
    endloop
  endfacet
  facet normal -1.220166e-01 -9.909842e-01 -5.533784e-02
    outer loop
      vertex 3.123041e+01 5.000000e+01 -9.404466e+02
      vertex 1.594084e+01 5.188255e+01 -9.404466e+02
      vertex 1.592759e+01 5.215021e+01 -9.452105e+02
    endloop
  endfacet
  facet normal -6.243590e-02 -1.371651e-02 -9.979547e-01
    outer loop
      vertex 3.123041e+01 7.242589e+01 -9.464466e+02
      vertex 1.592759e+01 5.215021e+01 -9.452105e+02
      vertex 1.511371e+01 7.242589e+01 -9.454383e+02
    endloop
  endfacet
  facet normal -1.164196e-01 -9.905063e-01 -7.310100e-02
    outer loop
      vertex 3.123041e+01 5.038197e+01 -9.456222e+02
      vertex 3.123041e+01 5.000000e+01 -9.404466e+02
      vertex 1.592759e+01 5.215021e+01 -9.452105e+02
    endloop
  endfacet
  facet normal -3.118513e-02 -3.735509e-02 -9.988153e-01
    outer loop
      vertex 3.123041e+01 7.242589e+01 -9.464466e+02
      vertex 3.123041e+01 5.038197e+01 -9.456222e+02
      vertex 1.592759e+01 5.215021e+01 -9.452105e+02
    endloop
  endfacet
  facet normal -6.940416e-15 -3.357253e-14 1.000000e+00
    outer loop
      vertex 3.123041e+01 7.242589e+01 -9.404466e+02
      vertex 1.485000e+01 7.242589e+01 -9.404466e+02
      vertex 1.594084e+01 5.188255e+01 -9.404466e+02
    endloop
  endfacet
  facet normal -9.986074e-01 -2.862271e-15 -5.275586e-02
    outer loop
      vertex 1.485000e+01 1.372028e+02 -9.404466e+02
      vertex 1.511371e+01 7.242589e+01 -9.454383e+02
      vertex 1.485000e+01 7.242589e+01 -9.404466e+02
    endloop
  endfacet
  facet normal -6.940416e-15 -2.983588e-14 1.000000e+00
    outer loop
      vertex 3.123041e+01 1.372028e+02 -9.404466e+02
      vertex 1.485000e+01 1.372028e+02 -9.404466e+02
      vertex 1.485000e+01 7.242589e+01 -9.404466e+02
    endloop
  endfacet
  facet normal -1.388083e-14 -2.808083e-14 1.000000e+00
    outer loop
      vertex 3.123041e+01 1.048143e+02 -9.404466e+02
      vertex 3.123041e+01 1.372028e+02 -9.404466e+02
      vertex 1.485000e+01 7.242589e+01 -9.404466e+02
    endloop
  endfacet
  facet normal -6.940416e-15 -3.159094e-14 1.000000e+00
    outer loop
      vertex 3.123041e+01 7.242589e+01 -9.404466e+02
      vertex 3.123041e+01 1.048143e+02 -9.404466e+02
      vertex 1.485000e+01 7.242589e+01 -9.404466e+02
    endloop
  endfacet
  facet normal -1.061828e-14 -2.584892e-14 1.000000e+00
    outer loop
      vertex 1.133624e+02 5.144665e+01 -9.404466e+02
      vertex 1.594084e+01 5.188255e+01 -9.404466e+02
      vertex 3.123041e+01 5.000000e+01 -9.404466e+02
    endloop
  endfacet
  facet normal -1.093830e-14 -3.059708e-14 1.000000e+00
    outer loop
      vertex 6.241081e+01 7.242589e+01 -9.404466e+02
      vertex 3.123041e+01 7.242589e+01 -9.404466e+02
      vertex 1.594084e+01 5.188255e+01 -9.404466e+02
    endloop
  endfacet
  facet normal -1.093830e-14 -3.059708e-14 1.000000e+00
    outer loop
      vertex 9.359122e+01 7.242589e+01 -9.404466e+02
      vertex 6.241081e+01 7.242589e+01 -9.404466e+02
      vertex 1.594084e+01 5.188255e+01 -9.404466e+02
    endloop
  endfacet
  facet normal -1.069552e-14 -3.151474e-14 1.000000e+00
    outer loop
      vertex 1.148500e+02 7.242589e+01 -9.404466e+02
      vertex 9.359122e+01 7.242589e+01 -9.404466e+02
      vertex 1.594084e+01 5.188255e+01 -9.404466e+02
    endloop
  endfacet
  facet normal -1.064472e-14 -3.175930e-14 1.000000e+00
    outer loop
      vertex 1.133624e+02 5.144665e+01 -9.404466e+02
      vertex 1.148500e+02 7.242589e+01 -9.404466e+02
      vertex 1.594084e+01 5.188255e+01 -9.404466e+02
    endloop
  endfacet
  facet normal -6.244177e-02 3.320036e-15 -9.980486e-01
    outer loop
      vertex 1.511371e+01 1.372028e+02 -9.454383e+02
      vertex 3.123041e+01 7.242589e+01 -9.464466e+02
      vertex 1.511371e+01 7.242589e+01 -9.454383e+02
    endloop
  endfacet
  facet normal -9.986074e-01 -2.744963e-15 -5.275586e-02
    outer loop
      vertex 1.511371e+01 1.372028e+02 -9.454383e+02
      vertex 1.511371e+01 7.242589e+01 -9.454383e+02
      vertex 1.485000e+01 1.372028e+02 -9.404466e+02
    endloop
  endfacet
  facet normal 4.586357e-15 -9.972877e-01 -7.360148e-02
    outer loop
      vertex 9.359122e+01 5.038197e+01 -9.456222e+02
      vertex 3.123041e+01 5.000000e+01 -9.404466e+02
      vertex 3.123041e+01 5.038197e+01 -9.456222e+02
    endloop
  endfacet
  facet normal -1.093830e-14 -7.680158e-15 1.000000e+00
    outer loop
      vertex 9.359122e+01 5.000000e+01 -9.404466e+02
      vertex 1.133624e+02 5.144665e+01 -9.404466e+02
      vertex 3.123041e+01 5.000000e+01 -9.404466e+02
    endloop
  endfacet
  facet normal 5.236355e-15 -9.972877e-01 -7.360148e-02
    outer loop
      vertex 9.359122e+01 5.038197e+01 -9.456222e+02
      vertex 9.359122e+01 5.000000e+01 -9.404466e+02
      vertex 3.123041e+01 5.000000e+01 -9.404466e+02
    endloop
  endfacet
  facet normal 3.703168e-15 -3.737327e-02 -9.993014e-01
    outer loop
      vertex 9.359122e+01 7.242589e+01 -9.464466e+02
      vertex 3.123041e+01 5.038197e+01 -9.456222e+02
      vertex 3.123041e+01 7.242589e+01 -9.464466e+02
    endloop
  endfacet
  facet normal 3.806742e-15 -3.737327e-02 -9.993014e-01
    outer loop
      vertex 9.359122e+01 7.242589e+01 -9.464466e+02
      vertex 9.359122e+01 5.038197e+01 -9.456222e+02
      vertex 3.123041e+01 5.038197e+01 -9.456222e+02
    endloop
  endfacet
  facet normal -6.244177e-02 1.746833e-14 -9.980486e-01
    outer loop
      vertex 3.123041e+01 1.372028e+02 -9.464466e+02
      vertex 3.123041e+01 7.242589e+01 -9.464466e+02
      vertex 1.511371e+01 1.372028e+02 -9.454383e+02
    endloop
  endfacet
  facet normal 3.646099e-15 1.755052e-14 -1.000000e+00
    outer loop
      vertex 9.359122e+01 7.242589e+01 -9.464466e+02
      vertex 3.123041e+01 7.242589e+01 -9.464466e+02
      vertex 3.123041e+01 1.372028e+02 -9.464466e+02
    endloop
  endfacet
  facet normal -1.003957e-14 -2.975958e-14 1.000000e+00
    outer loop
      vertex 6.241081e+01 1.670000e+02 -9.404466e+02
      vertex 1.519610e+01 1.638273e+02 -9.404466e+02
      vertex 1.485000e+01 1.372028e+02 -9.404466e+02
    endloop
  endfacet
  facet normal -9.985233e-01 1.298026e-02 -5.275142e-02
    outer loop
      vertex 1.511371e+01 1.372028e+02 -9.454383e+02
      vertex 1.485000e+01 1.372028e+02 -9.404466e+02
      vertex 1.519610e+01 1.638273e+02 -9.404466e+02
    endloop
  endfacet
  facet normal -6.940416e-15 -3.470629e-14 1.000000e+00
    outer loop
      vertex 3.123041e+01 1.372028e+02 -9.404466e+02
      vertex 6.241081e+01 1.670000e+02 -9.404466e+02
      vertex 1.485000e+01 1.372028e+02 -9.404466e+02
    endloop
  endfacet
  facet normal -1.093830e-14 -1.638518e-14 1.000000e+00
    outer loop
      vertex 6.241081e+01 1.670000e+02 -9.404466e+02
      vertex 3.123041e+01 1.670000e+02 -9.404466e+02
      vertex 1.519610e+01 1.638273e+02 -9.404466e+02
    endloop
  endfacet
  facet normal -1.936407e-01 9.786194e-01 -6.933477e-02
    outer loop
      vertex 1.523894e+01 1.634982e+02 -9.452105e+02
      vertex 1.519610e+01 1.638273e+02 -9.404466e+02
      vertex 3.123041e+01 1.670000e+02 -9.404466e+02
    endloop
  endfacet
  facet normal -9.999448e-01 4.842839e-03 -9.324803e-03
    outer loop
      vertex 1.523894e+01 1.634982e+02 -9.452105e+02
      vertex 1.511371e+01 1.372028e+02 -9.454383e+02
      vertex 1.519610e+01 1.638273e+02 -9.404466e+02
    endloop
  endfacet
  facet normal -2.609307e-15 9.851211e-01 -1.718619e-01
    outer loop
      vertex 3.123041e+01 1.660000e+02 -9.461787e+02
      vertex 3.123041e+01 1.670000e+02 -9.404466e+02
      vertex 6.241081e+01 1.670000e+02 -9.404466e+02
    endloop
  endfacet
  facet normal -1.623388e-01 9.720535e-01 -1.695821e-01
    outer loop
      vertex 3.123041e+01 1.660000e+02 -9.461787e+02
      vertex 1.523894e+01 1.634982e+02 -9.452105e+02
      vertex 3.123041e+01 1.670000e+02 -9.404466e+02
    endloop
  endfacet
  facet normal -1.094273e-01 1.145070e-01 9.873772e-01
    outer loop
      vertex 6.159275e+01 1.291399e+02 -9.361466e+02
      vertex 6.241081e+01 1.670000e+02 -9.404466e+02
      vertex 3.123041e+01 1.372028e+02 -9.404466e+02
    endloop
  endfacet
  facet normal -3.863185e-15 9.851211e-01 -1.718619e-01
    outer loop
      vertex 9.359122e+01 1.670000e+02 -9.404466e+02
      vertex 3.123041e+01 1.660000e+02 -9.461787e+02
      vertex 6.241081e+01 1.670000e+02 -9.404466e+02
    endloop
  endfacet
  facet normal -4.137138e-15 1.128506e-01 9.936120e-01
    outer loop
      vertex 9.359122e+01 1.670000e+02 -9.404466e+02
      vertex 6.241081e+01 1.670000e+02 -9.404466e+02
      vertex 6.159275e+01 1.291399e+02 -9.361466e+02
    endloop
  endfacet
  facet normal -1.402236e-01 -3.041906e-14 9.901199e-01
    outer loop
      vertex 6.159275e+01 1.291399e+02 -9.361466e+02
      vertex 3.123041e+01 1.372028e+02 -9.404466e+02
      vertex 3.123041e+01 1.048143e+02 -9.404466e+02
    endloop
  endfacet
  facet normal -2.146272e-01 -3.444887e-14 9.766961e-01
    outer loop
      vertex 5.079826e+01 9.653155e+01 -9.361466e+02
      vertex 3.123041e+01 1.048143e+02 -9.404466e+02
      vertex 3.123041e+01 7.242589e+01 -9.404466e+02
    endloop
  endfacet
  facet normal -1.888872e-01 6.252810e-02 9.800060e-01
    outer loop
      vertex 6.159275e+01 1.291399e+02 -9.361466e+02
      vertex 3.123041e+01 1.048143e+02 -9.404466e+02
      vertex 5.079826e+01 9.653155e+01 -9.361466e+02
    endloop
  endfacet
  facet normal -7.407994e-15 -1.756093e-01 9.844599e-01
    outer loop
      vertex 5.079826e+01 9.653155e+01 -9.361466e+02
      vertex 3.123041e+01 7.242589e+01 -9.404466e+02
      vertex 6.241081e+01 7.242589e+01 -9.404466e+02
    endloop
  endfacet
  facet normal -1.277421e-14 -1.434778e-01 9.896535e-01
    outer loop
      vertex 8.456935e+01 1.020856e+02 -9.361466e+02
      vertex 6.241081e+01 7.242589e+01 -9.404466e+02
      vertex 9.359122e+01 7.242589e+01 -9.404466e+02
    endloop
  endfacet
  facet normal 2.680977e-02 -1.630151e-01 9.862593e-01
    outer loop
      vertex 8.456935e+01 1.020856e+02 -9.361466e+02
      vertex 5.079826e+01 9.653155e+01 -9.361466e+02
      vertex 6.241081e+01 7.242589e+01 -9.404466e+02
    endloop
  endfacet
  facet normal -1.069552e-14 -3.159094e-14 1.000000e+00
    outer loop
      vertex 1.148500e+02 7.242589e+01 -9.404466e+02
      vertex 1.148500e+02 1.048143e+02 -9.404466e+02
      vertex 9.359122e+01 7.242589e+01 -9.404466e+02
    endloop
  endfacet
  facet normal 1.485311e-01 -9.749120e-02 9.840904e-01
    outer loop
      vertex 8.456935e+01 1.020856e+02 -9.361466e+02
      vertex 9.359122e+01 7.242589e+01 -9.404466e+02
      vertex 1.148500e+02 1.048143e+02 -9.404466e+02
    endloop
  endfacet
  facet normal 9.972877e-01 6.700258e-15 -7.360148e-02
    outer loop
      vertex 1.144680e+02 1.372028e+02 -9.456222e+02
      vertex 1.148500e+02 1.048143e+02 -9.404466e+02
      vertex 1.148500e+02 7.242589e+01 -9.404466e+02
    endloop
  endfacet
  facet normal 1.405944e-01 -1.334577e-14 9.900673e-01
    outer loop
      vertex 1.148500e+02 1.372028e+02 -9.404466e+02
      vertex 8.456935e+01 1.020856e+02 -9.361466e+02
      vertex 1.148500e+02 1.048143e+02 -9.404466e+02
    endloop
  endfacet
  facet normal 9.972877e-01 4.972352e-15 -7.360148e-02
    outer loop
      vertex 1.144680e+02 1.372028e+02 -9.456222e+02
      vertex 1.148500e+02 1.372028e+02 -9.404466e+02
      vertex 1.148500e+02 1.048143e+02 -9.404466e+02
    endloop
  endfacet
  facet normal 9.969555e-01 -7.069181e-02 -3.289884e-02
    outer loop
      vertex 1.132156e+02 5.159341e+01 -9.452105e+02
      vertex 1.148500e+02 7.242589e+01 -9.404466e+02
      vertex 1.133624e+02 5.144665e+01 -9.404466e+02
    endloop
  endfacet
  facet normal 9.954125e-01 -6.129464e-02 -7.346309e-02
    outer loop
      vertex 1.144680e+02 7.242589e+01 -9.456222e+02
      vertex 1.148500e+02 7.242589e+01 -9.404466e+02
      vertex 1.132156e+02 5.159341e+01 -9.452105e+02
    endloop
  endfacet
  facet normal 9.972877e-01 6.700869e-15 -7.360148e-02
    outer loop
      vertex 1.144680e+02 1.372028e+02 -9.456222e+02
      vertex 1.148500e+02 7.242589e+01 -9.404466e+02
      vertex 1.144680e+02 7.242589e+01 -9.456222e+02
    endloop
  endfacet
  facet normal 7.277777e-02 -9.946431e-01 -7.340630e-02
    outer loop
      vertex 9.359122e+01 5.038197e+01 -9.456222e+02
      vertex 1.133624e+02 5.144665e+01 -9.404466e+02
      vertex 9.359122e+01 5.000000e+01 -9.404466e+02
    endloop
  endfacet
  facet normal 6.226374e-02 -9.975256e-01 -3.264870e-02
    outer loop
      vertex 1.132156e+02 5.159341e+01 -9.452105e+02
      vertex 1.133624e+02 5.144665e+01 -9.404466e+02
      vertex 9.359122e+01 5.038197e+01 -9.456222e+02
    endloop
  endfacet
  facet normal -6.243908e-02 9.286138e-03 -9.980056e-01
    outer loop
      vertex 3.123041e+01 1.660000e+02 -9.461787e+02
      vertex 3.123041e+01 1.372028e+02 -9.464466e+02
      vertex 1.511371e+01 1.372028e+02 -9.454383e+02
    endloop
  endfacet
  facet normal -6.182099e-02 8.939145e-03 -9.980472e-01
    outer loop
      vertex 3.123041e+01 1.660000e+02 -9.461787e+02
      vertex 1.511371e+01 1.372028e+02 -9.454383e+02
      vertex 1.523894e+01 1.634982e+02 -9.452105e+02
    endloop
  endfacet
  facet normal 3.603535e-15 9.304293e-03 -9.999567e-01
    outer loop
      vertex 9.359122e+01 1.660000e+02 -9.461787e+02
      vertex 3.123041e+01 1.372028e+02 -9.464466e+02
      vertex 3.123041e+01 1.660000e+02 -9.461787e+02
    endloop
  endfacet
  facet normal 1.823049e-14 3.159094e-14 -1.000000e+00
    outer loop
      vertex 9.359122e+01 1.372028e+02 -9.464466e+02
      vertex 9.359122e+01 7.242589e+01 -9.464466e+02
      vertex 3.123041e+01 1.372028e+02 -9.464466e+02
    endloop
  endfacet
  facet normal 1.822109e-14 9.304293e-03 -9.999567e-01
    outer loop
      vertex 9.359122e+01 1.660000e+02 -9.461787e+02
      vertex 9.359122e+01 1.372028e+02 -9.464466e+02
      vertex 3.123041e+01 1.372028e+02 -9.464466e+02
    endloop
  endfacet
  facet normal -3.862558e-15 9.851211e-01 -1.718619e-01
    outer loop
      vertex 9.359122e+01 1.670000e+02 -9.404466e+02
      vertex 9.359122e+01 1.660000e+02 -9.461787e+02
      vertex 3.123041e+01 1.660000e+02 -9.461787e+02
    endloop
  endfacet
  facet normal 3.943191e-02 -3.734420e-02 -9.985242e-01
    outer loop
      vertex 1.144680e+02 7.242589e+01 -9.456222e+02
      vertex 9.359122e+01 5.038197e+01 -9.456222e+02
      vertex 9.359122e+01 7.242589e+01 -9.464466e+02
    endloop
  endfacet
  facet normal 2.226874e-02 -2.108973e-02 -9.995296e-01
    outer loop
      vertex 1.144680e+02 7.242589e+01 -9.456222e+02
      vertex 1.132156e+02 5.159341e+01 -9.452105e+02
      vertex 9.359122e+01 5.038197e+01 -9.456222e+02
    endloop
  endfacet
  facet normal 3.945944e-02 3.162659e-14 -9.992212e-01
    outer loop
      vertex 1.144680e+02 7.242589e+01 -9.456222e+02
      vertex 9.359122e+01 7.242589e+01 -9.464466e+02
      vertex 9.359122e+01 1.372028e+02 -9.464466e+02
    endloop
  endfacet
  facet normal 4.711890e-02 9.293958e-03 -9.988461e-01
    outer loop
      vertex 1.141113e+02 1.641596e+02 -9.452278e+02
      vertex 9.359122e+01 1.372028e+02 -9.464466e+02
      vertex 9.359122e+01 1.660000e+02 -9.461787e+02
    endloop
  endfacet
  facet normal 3.945944e-02 3.173947e-14 -9.992212e-01
    outer loop
      vertex 1.144680e+02 1.372028e+02 -9.456222e+02
      vertex 1.144680e+02 7.242589e+01 -9.456222e+02
      vertex 9.359122e+01 1.372028e+02 -9.464466e+02
    endloop
  endfacet
  facet normal 3.945492e-02 1.513974e-02 -9.991066e-01
    outer loop
      vertex 1.141113e+02 1.641596e+02 -9.452278e+02
      vertex 1.144680e+02 1.372028e+02 -9.456222e+02
      vertex 9.359122e+01 1.372028e+02 -9.464466e+02
    endloop
  endfacet
  facet normal 1.448929e-01 -4.796449e-02 9.882841e-01
    outer loop
      vertex 9.359122e+01 1.372028e+02 -9.404466e+02
      vertex 6.159275e+01 1.291399e+02 -9.361466e+02
      vertex 5.079826e+01 9.653155e+01 -9.361466e+02
    endloop
  endfacet
  facet normal -2.085199e-02 1.267891e-01 9.917105e-01
    outer loop
      vertex 9.359122e+01 1.372028e+02 -9.404466e+02
      vertex 5.079826e+01 9.653155e+01 -9.361466e+02
      vertex 8.456935e+01 1.020856e+02 -9.361466e+02
    endloop
  endfacet
  facet normal 1.331843e-01 -3.244431e-14 9.910913e-01
    outer loop
      vertex 9.359122e+01 1.372028e+02 -9.404466e+02
      vertex 9.359122e+01 1.670000e+02 -9.404466e+02
      vertex 6.159275e+01 1.291399e+02 -9.361466e+02
    endloop
  endfacet
  facet normal 1.331008e-01 9.763559e-01 -1.703327e-01
    outer loop
      vertex 1.143548e+02 1.641694e+02 -9.404466e+02
      vertex 9.359122e+01 1.660000e+02 -9.461787e+02
      vertex 9.359122e+01 1.670000e+02 -9.404466e+02
    endloop
  endfacet
  facet normal 8.963369e-02 9.959528e-01 -6.620225e-03
    outer loop
      vertex 1.141113e+02 1.641596e+02 -9.452278e+02
      vertex 9.359122e+01 1.660000e+02 -9.461787e+02
      vertex 1.143548e+02 1.641694e+02 -9.404466e+02
    endloop
  endfacet
  facet normal -4.681119e-15 -3.433818e-14 1.000000e+00
    outer loop
      vertex 1.143548e+02 1.641694e+02 -9.404466e+02
      vertex 9.359122e+01 1.670000e+02 -9.404466e+02
      vertex 9.359122e+01 1.372028e+02 -9.404466e+02
    endloop
  endfacet
  facet normal -6.933022e-15 1.215394e-01 9.925866e-01
    outer loop
      vertex 1.148500e+02 1.372028e+02 -9.404466e+02
      vertex 9.359122e+01 1.372028e+02 -9.404466e+02
      vertex 8.456935e+01 1.020856e+02 -9.361466e+02
    endloop
  endfacet
  facet normal -5.347759e-15 -3.382488e-14 1.000000e+00
    outer loop
      vertex 1.143548e+02 1.641694e+02 -9.404466e+02
      vertex 9.359122e+01 1.372028e+02 -9.404466e+02
      vertex 1.148500e+02 1.372028e+02 -9.404466e+02
    endloop
  endfacet
  facet normal 9.971206e-01 1.830892e-02 -7.358914e-02
    outer loop
      vertex 1.143548e+02 1.641694e+02 -9.404466e+02
      vertex 1.148500e+02 1.372028e+02 -9.404466e+02
      vertex 1.144680e+02 1.372028e+02 -9.456222e+02
    endloop
  endfacet
  facet normal 9.986068e-01 1.395837e-02 -5.088871e-02
    outer loop
      vertex 1.141113e+02 1.641596e+02 -9.452278e+02
      vertex 1.143548e+02 1.641694e+02 -9.404466e+02
      vertex 1.144680e+02 1.372028e+02 -9.456222e+02
    endloop
  endfacet
endsolid SIM_ICUB3_R_FOOT_FRONT
