solid SIM_ICUB3_L_FOREARM
  facet normal -9.015036e-01 -2.739771e-01 -3.350043e-01
    outer loop
      vertex -2.519839e+02 1.262954e+01 -2.973137e+02
      vertex -2.579647e+02 4.321341e+01 -3.062317e+02
      vertex -2.403109e+02 2.737882e+01 -3.407885e+02
    endloop
  endfacet
  facet normal -8.721682e-01 8.064593e-02 -4.825131e-01
    outer loop
      vertex -2.404469e+02 3.024390e+01 -3.400637e+02
      vertex -2.403109e+02 2.737882e+01 -3.407885e+02
      vertex -2.579647e+02 4.321341e+01 -3.062317e+02
    endloop
  endfacet
  facet normal -6.204015e-01 -6.768476e-01 -3.962061e-01
    outer loop
      vertex -2.275735e+02 -3.088277e+00 -3.086858e+02
      vertex -2.519839e+02 1.262954e+01 -2.973137e+02
      vertex -2.403109e+02 2.737882e+01 -3.407885e+02
    endloop
  endfacet
  facet normal -4.293832e-01 2.022680e-01 -8.801805e-01
    outer loop
      vertex -2.244836e+02 6.191667e+01 -3.405727e+02
      vertex -2.403109e+02 2.737882e+01 -3.407885e+02
      vertex -2.404469e+02 3.024390e+01 -3.400637e+02
    endloop
  endfacet
  facet normal -2.674935e-01 -7.496715e-01 -6.053429e-01
    outer loop
      vertex -2.325846e+02 2.546085e+01 -3.418274e+02
      vertex -2.275735e+02 -3.088277e+00 -3.086858e+02
      vertex -2.403109e+02 2.737882e+01 -3.407885e+02
    endloop
  endfacet
  facet normal -1.182798e-01 6.039508e-02 -9.911419e-01
    outer loop
      vertex -2.244836e+02 6.191667e+01 -3.405727e+02
      vertex -2.325846e+02 2.546085e+01 -3.418274e+02
      vertex -2.403109e+02 2.737882e+01 -3.407885e+02
    endloop
  endfacet
  facet normal -9.821854e-01 -1.668798e-01 8.638820e-02
    outer loop
      vertex -2.531081e+02 4.223749e+01 -2.529001e+02
      vertex -2.579647e+02 4.321341e+01 -3.062317e+02
      vertex -2.519839e+02 1.262954e+01 -2.973137e+02
    endloop
  endfacet
  facet normal -7.397612e-01 4.041539e-01 -5.379712e-01
    outer loop
      vertex -2.464422e+02 6.935054e+01 -3.024405e+02
      vertex -2.404469e+02 3.024390e+01 -3.400637e+02
      vertex -2.579647e+02 4.321341e+01 -3.062317e+02
    endloop
  endfacet
  facet normal -8.960382e-01 4.348511e-01 8.955432e-02
    outer loop
      vertex -2.402025e+02 7.018252e+01 -2.594663e+02
      vertex -2.579647e+02 4.321341e+01 -3.062317e+02
      vertex -2.531081e+02 4.223749e+01 -2.529001e+02
    endloop
  endfacet
  facet normal -9.143975e-01 3.849329e-01 1.253148e-01
    outer loop
      vertex -2.402025e+02 7.018252e+01 -2.594663e+02
      vertex -2.464422e+02 6.935054e+01 -3.024405e+02
      vertex -2.579647e+02 4.321341e+01 -3.062317e+02
    endloop
  endfacet
  facet normal -5.658095e-01 -8.206149e-01 -8.031699e-02
    outer loop
      vertex -2.165094e+02 -1.718309e+01 -2.426196e+02
      vertex -2.519839e+02 1.262954e+01 -2.973137e+02
      vertex -2.275735e+02 -3.088277e+00 -3.086858e+02
    endloop
  endfacet
  facet normal -9.915533e-01 -1.180938e-01 5.362834e-02
    outer loop
      vertex -2.482966e+02 4.914940e+00 -2.461251e+02
      vertex -2.531081e+02 4.223749e+01 -2.529001e+02
      vertex -2.519839e+02 1.262954e+01 -2.973137e+02
    endloop
  endfacet
  facet normal -5.625972e-01 -8.225103e-01 -8.343360e-02
    outer loop
      vertex -2.165094e+02 -1.718309e+01 -2.426196e+02
      vertex -2.482966e+02 4.914940e+00 -2.461251e+02
      vertex -2.519839e+02 1.262954e+01 -2.973137e+02
    endloop
  endfacet
  facet normal -7.060196e-01 3.459091e-01 -6.179670e-01
    outer loop
      vertex -2.204610e+02 7.049822e+01 -3.403649e+02
      vertex -2.244836e+02 6.191667e+01 -3.405727e+02
      vertex -2.404469e+02 3.024390e+01 -3.400637e+02
    endloop
  endfacet
  facet normal -8.790336e-01 2.536254e-01 -4.037006e-01
    outer loop
      vertex -2.290911e+02 7.281040e+01 -3.380479e+02
      vertex -2.404469e+02 3.024390e+01 -3.400637e+02
      vertex -2.464422e+02 6.935054e+01 -3.024405e+02
    endloop
  endfacet
  facet normal -2.308586e-01 1.073840e-01 -9.670434e-01
    outer loop
      vertex -2.204610e+02 7.049822e+01 -3.403649e+02
      vertex -2.404469e+02 3.024390e+01 -3.400637e+02
      vertex -2.290911e+02 7.281040e+01 -3.380479e+02
    endloop
  endfacet
  facet normal 3.936658e-01 -6.662004e-01 -6.334069e-01
    outer loop
      vertex -1.881276e+02 8.765308e+00 -2.966372e+02
      vertex -2.275735e+02 -3.088277e+00 -3.086858e+02
      vertex -2.325846e+02 2.546085e+01 -3.418274e+02
    endloop
  endfacet
  facet normal 3.028963e-01 -9.204336e-01 -2.470948e-01
    outer loop
      vertex -1.708218e+02 -4.651400e+00 -2.332952e+02
      vertex -2.165094e+02 -1.718309e+01 -2.426196e+02
      vertex -2.275735e+02 -3.088277e+00 -3.086858e+02
    endloop
  endfacet
  facet normal 3.547437e-01 -8.903073e-01 -2.854993e-01
    outer loop
      vertex -1.708218e+02 -4.651400e+00 -2.332952e+02
      vertex -2.275735e+02 -3.088277e+00 -3.086858e+02
      vertex -1.881276e+02 8.765308e+00 -2.966372e+02
    endloop
  endfacet
  facet normal 3.964666e-01 -5.656436e-02 -9.163049e-01
    outer loop
      vertex -1.940552e+02 4.234364e+01 -3.261987e+02
      vertex -2.325846e+02 2.546085e+01 -3.418274e+02
      vertex -2.244836e+02 6.191667e+01 -3.405727e+02
    endloop
  endfacet
  facet normal 4.453691e-01 -2.108886e-01 -8.701565e-01
    outer loop
      vertex -1.940552e+02 4.234364e+01 -3.261987e+02
      vertex -1.952037e+02 1.904174e+01 -3.211392e+02
      vertex -2.325846e+02 2.546085e+01 -3.418274e+02
    endloop
  endfacet
  facet normal 6.565588e-02 -9.132814e-01 -4.020030e-01
    outer loop
      vertex -1.881276e+02 8.765308e+00 -2.966372e+02
      vertex -2.325846e+02 2.546085e+01 -3.418274e+02
      vertex -1.952037e+02 1.904174e+01 -3.211392e+02
    endloop
  endfacet
  facet normal 4.673890e-01 -1.982227e-01 -8.615424e-01
    outer loop
      vertex -2.191815e+02 7.009422e+01 -3.395778e+02
      vertex -2.244836e+02 6.191667e+01 -3.405727e+02
      vertex -2.204610e+02 7.049822e+01 -3.403649e+02
    endloop
  endfacet
  facet normal 3.595581e-01 -1.205504e-01 -9.253030e-01
    outer loop
      vertex -2.191815e+02 7.009422e+01 -3.395778e+02
      vertex -1.940552e+02 4.234364e+01 -3.261987e+02
      vertex -2.244836e+02 6.191667e+01 -3.405727e+02
    endloop
  endfacet
  facet normal -9.769901e-01 -9.092965e-02 1.929302e-01
    outer loop
      vertex -2.410193e+02 3.402527e+01 -1.955532e+02
      vertex -2.531081e+02 4.223749e+01 -2.529001e+02
      vertex -2.482966e+02 4.914940e+00 -2.461251e+02
    endloop
  endfacet
  facet normal -8.900241e-01 3.858373e-01 2.428718e-01
    outer loop
      vertex -2.327077e+02 6.314913e+01 -2.113624e+02
      vertex -2.531081e+02 4.223749e+01 -2.529001e+02
      vertex -2.410193e+02 3.402527e+01 -1.955532e+02
    endloop
  endfacet
  facet normal -8.704175e-01 4.492769e-01 2.013046e-01
    outer loop
      vertex -2.327077e+02 6.314913e+01 -2.113624e+02
      vertex -2.402025e+02 7.018252e+01 -2.594663e+02
      vertex -2.531081e+02 4.223749e+01 -2.529001e+02
    endloop
  endfacet
  facet normal -5.751168e-01 -8.133263e-01 8.798314e-02
    outer loop
      vertex -2.169506e+02 -1.148461e+01 -1.928262e+02
      vertex -2.482966e+02 4.914940e+00 -2.461251e+02
      vertex -2.165094e+02 -1.718309e+01 -2.426196e+02
    endloop
  endfacet
  facet normal -9.889458e-01 -9.804569e-03 1.479532e-01
    outer loop
      vertex -2.405959e+02 3.083732e-01 -1.949575e+02
      vertex -2.410193e+02 3.402527e+01 -1.955532e+02
      vertex -2.482966e+02 4.914940e+00 -2.461251e+02
    endloop
  endfacet
  facet normal -4.452936e-01 -8.952815e-01 -1.358481e-02
    outer loop
      vertex -2.169506e+02 -1.148461e+01 -1.928262e+02
      vertex -2.405959e+02 3.083732e-01 -1.949575e+02
      vertex -2.482966e+02 4.914940e+00 -2.461251e+02
    endloop
  endfacet
  facet normal 1.057100e-01 -9.878422e-01 1.139881e-01
    outer loop
      vertex -1.724799e+02 -8.282366e+00 -2.063162e+02
      vertex -2.169506e+02 -1.148461e+01 -1.928262e+02
      vertex -2.165094e+02 -1.718309e+01 -2.426196e+02
    endloop
  endfacet
  facet normal 2.838503e-01 -9.524523e-01 -1.107410e-01
    outer loop
      vertex -1.724799e+02 -8.282366e+00 -2.063162e+02
      vertex -2.165094e+02 -1.718309e+01 -2.426196e+02
      vertex -1.708218e+02 -4.651400e+00 -2.332952e+02
    endloop
  endfacet
  facet normal -2.916761e-01 1.323380e-02 9.564256e-01
    outer loop
      vertex -2.060355e+02 3.797906e+01 -1.849391e+02
      vertex -2.410193e+02 3.402527e+01 -1.955532e+02
      vertex -2.405959e+02 3.083732e-01 -1.949575e+02
    endloop
  endfacet
  facet normal -2.943301e-01 5.936489e-01 7.489665e-01
    outer loop
      vertex -2.236391e+02 7.312866e+01 -2.197174e+02
      vertex -2.410193e+02 3.402527e+01 -1.955532e+02
      vertex -2.060355e+02 3.797906e+01 -1.849391e+02
    endloop
  endfacet
  facet normal 4.006485e-01 3.461538e-01 8.483268e-01
    outer loop
      vertex -2.236391e+02 7.312866e+01 -2.197174e+02
      vertex -2.327077e+02 6.314913e+01 -2.113624e+02
      vertex -2.410193e+02 3.402527e+01 -1.955532e+02
    endloop
  endfacet
  facet normal -1.499346e-01 -1.233330e-01 9.809733e-01
    outer loop
      vertex -2.060355e+02 3.797906e+01 -1.849391e+02
      vertex -2.405959e+02 3.083732e-01 -1.949575e+02
      vertex -2.169506e+02 -1.148461e+01 -1.928262e+02
    endloop
  endfacet
  facet normal 1.833309e-01 -1.941192e-01 9.636947e-01
    outer loop
      vertex -1.803056e+02 3.512357e+01 -1.904091e+02
      vertex -2.060355e+02 3.797906e+01 -1.849391e+02
      vertex -2.169506e+02 -1.148461e+01 -1.928262e+02
    endloop
  endfacet
  facet normal 2.970611e-01 -2.808886e-01 9.126096e-01
    outer loop
      vertex -1.724799e+02 -8.282366e+00 -2.063162e+02
      vertex -1.803056e+02 3.512357e+01 -1.904091e+02
      vertex -2.169506e+02 -1.148461e+01 -1.928262e+02
    endloop
  endfacet
  facet normal 2.806599e-01 7.424312e-01 6.082976e-01
    outer loop
      vertex -1.769299e+02 7.130034e+01 -2.390369e+02
      vertex -2.236391e+02 7.312866e+01 -2.197174e+02
      vertex -2.060355e+02 3.797906e+01 -1.849391e+02
    endloop
  endfacet
  facet normal 2.122340e-01 7.769320e-01 5.927338e-01
    outer loop
      vertex -1.769299e+02 7.130034e+01 -2.390369e+02
      vertex -2.060355e+02 3.797906e+01 -1.849391e+02
      vertex -1.803056e+02 3.512357e+01 -1.904091e+02
    endloop
  endfacet
  facet normal -3.445901e-01 9.355894e-01 -7.700714e-02
    outer loop
      vertex -2.194946e+02 7.938453e+01 -3.011183e+02
      vertex -2.290911e+02 7.281040e+01 -3.380479e+02
      vertex -2.464422e+02 6.935054e+01 -3.024405e+02
    endloop
  endfacet
  facet normal -3.488778e-01 9.371669e-01 -1.594584e-03
    outer loop
      vertex -2.117991e+02 8.234036e+01 -2.476246e+02
      vertex -2.194946e+02 7.938453e+01 -3.011183e+02
      vertex -2.464422e+02 6.935054e+01 -3.024405e+02
    endloop
  endfacet
  facet normal -4.077562e-01 9.121452e-01 4.154547e-02
    outer loop
      vertex -2.117991e+02 8.234036e+01 -2.476246e+02
      vertex -2.464422e+02 6.935054e+01 -3.024405e+02
      vertex -2.402025e+02 7.018252e+01 -2.594663e+02
    endloop
  endfacet
  facet normal 1.965590e-01 9.552318e-01 -2.211260e-01
    outer loop
      vertex -2.204610e+02 7.049822e+01 -3.403649e+02
      vertex -2.290911e+02 7.281040e+01 -3.380479e+02
      vertex -2.194946e+02 7.938453e+01 -3.011183e+02
    endloop
  endfacet
  facet normal 2.764551e-01 9.358122e-01 -2.186963e-01
    outer loop
      vertex -1.915790e+02 7.118050e+01 -3.009355e+02
      vertex -2.204610e+02 7.049822e+01 -3.403649e+02
      vertex -2.194946e+02 7.938453e+01 -3.011183e+02
    endloop
  endfacet
  facet normal 2.649027e-01 9.599572e-01 -9.115183e-02
    outer loop
      vertex -1.790557e+02 7.393085e+01 -2.410308e+02
      vertex -2.194946e+02 7.938453e+01 -3.011183e+02
      vertex -2.117991e+02 8.234036e+01 -2.476246e+02
    endloop
  endfacet
  facet normal 2.810936e-01 9.541831e-01 -1.025724e-01
    outer loop
      vertex -1.790557e+02 7.393085e+01 -2.410308e+02
      vertex -1.915790e+02 7.118050e+01 -3.009355e+02
      vertex -2.194946e+02 7.938453e+01 -3.011183e+02
    endloop
  endfacet
  facet normal 4.759955e-01 8.012488e-01 -3.625310e-01
    outer loop
      vertex -2.191815e+02 7.009422e+01 -3.395778e+02
      vertex -2.204610e+02 7.049822e+01 -3.403649e+02
      vertex -1.915790e+02 7.118050e+01 -3.009355e+02
    endloop
  endfacet
  facet normal -4.304262e-01 8.955266e-01 1.129842e-01
    outer loop
      vertex -2.236391e+02 7.312866e+01 -2.197174e+02
      vertex -2.117991e+02 8.234036e+01 -2.476246e+02
      vertex -2.402025e+02 7.018252e+01 -2.594663e+02
    endloop
  endfacet
  facet normal -6.311528e-01 7.473584e-01 2.076093e-01
    outer loop
      vertex -2.236391e+02 7.312866e+01 -2.197174e+02
      vertex -2.402025e+02 7.018252e+01 -2.594663e+02
      vertex -2.327077e+02 6.314913e+01 -2.113624e+02
    endloop
  endfacet
  facet normal 1.927186e-01 9.045454e-01 3.803381e-01
    outer loop
      vertex -1.769299e+02 7.130034e+01 -2.390369e+02
      vertex -2.117991e+02 8.234036e+01 -2.476246e+02
      vertex -2.236391e+02 7.312866e+01 -2.197174e+02
    endloop
  endfacet
  facet normal -6.757971e-03 6.005897e-01 7.995289e-01
    outer loop
      vertex -1.769299e+02 7.130034e+01 -2.390369e+02
      vertex -1.790557e+02 7.393085e+01 -2.410308e+02
      vertex -2.117991e+02 8.234036e+01 -2.476246e+02
    endloop
  endfacet
  facet normal 8.384881e-01 -1.547731e-01 -5.224777e-01
    outer loop
      vertex -1.940552e+02 4.234364e+01 -3.261987e+02
      vertex -1.812778e+02 4.597412e+01 -3.067686e+02
      vertex -1.952037e+02 1.904174e+01 -3.211392e+02
    endloop
  endfacet
  facet normal 8.913305e-01 -2.643656e-01 -3.682945e-01
    outer loop
      vertex -1.881276e+02 8.765308e+00 -2.966372e+02
      vertex -1.952037e+02 1.904174e+01 -3.211392e+02
      vertex -1.812778e+02 4.597412e+01 -3.067686e+02
    endloop
  endfacet
  facet normal 7.194185e-01 4.217231e-01 -5.518937e-01
    outer loop
      vertex -1.915790e+02 7.118050e+01 -3.009355e+02
      vertex -1.812778e+02 4.597412e+01 -3.067686e+02
      vertex -1.940552e+02 4.234364e+01 -3.261987e+02
    endloop
  endfacet
  facet normal 9.284681e-01 -2.465546e-01 -2.777728e-01
    outer loop
      vertex -1.611914e+02 4.533547e+01 -2.390618e+02
      vertex -1.881276e+02 8.765308e+00 -2.966372e+02
      vertex -1.812778e+02 4.597412e+01 -3.067686e+02
    endloop
  endfacet
  facet normal 8.303651e-01 5.021155e-01 -2.416068e-01
    outer loop
      vertex -1.790557e+02 7.393085e+01 -2.410308e+02
      vertex -1.611914e+02 4.533547e+01 -2.390618e+02
      vertex -1.812778e+02 4.597412e+01 -3.067686e+02
    endloop
  endfacet
  facet normal 8.886066e-01 4.105013e-01 -2.046141e-01
    outer loop
      vertex -1.790557e+02 7.393085e+01 -2.410308e+02
      vertex -1.812778e+02 4.597412e+01 -3.067686e+02
      vertex -1.915790e+02 7.118050e+01 -3.009355e+02
    endloop
  endfacet
  facet normal 7.373857e-01 4.081784e-01 -5.381940e-01
    outer loop
      vertex -2.191815e+02 7.009422e+01 -3.395778e+02
      vertex -1.915790e+02 7.118050e+01 -3.009355e+02
      vertex -1.940552e+02 4.234364e+01 -3.261987e+02
    endloop
  endfacet
  facet normal 9.299149e-01 -2.136883e-01 -2.993253e-01
    outer loop
      vertex -1.708218e+02 -4.651400e+00 -2.332952e+02
      vertex -1.881276e+02 8.765308e+00 -2.966372e+02
      vertex -1.611914e+02 4.533547e+01 -2.390618e+02
    endloop
  endfacet
  facet normal 9.311904e-01 -1.406034e-01 3.363260e-01
    outer loop
      vertex -1.803056e+02 3.512357e+01 -1.904091e+02
      vertex -1.708218e+02 -4.651400e+00 -2.332952e+02
      vertex -1.611914e+02 4.533547e+01 -2.390618e+02
    endloop
  endfacet
  facet normal 7.815363e-01 4.733348e-01 4.063930e-01
    outer loop
      vertex -1.769299e+02 7.130034e+01 -2.390369e+02
      vertex -1.803056e+02 3.512357e+01 -1.904091e+02
      vertex -1.611914e+02 4.533547e+01 -2.390618e+02
    endloop
  endfacet
  facet normal 8.337520e-01 5.055886e-01 -2.218959e-01
    outer loop
      vertex -1.769299e+02 7.130034e+01 -2.390369e+02
      vertex -1.611914e+02 4.533547e+01 -2.390618e+02
      vertex -1.790557e+02 7.393085e+01 -2.410308e+02
    endloop
  endfacet
  facet normal 9.856739e-01 1.481999e-01 8.052212e-02
    outer loop
      vertex -1.724799e+02 -8.282366e+00 -2.063162e+02
      vertex -1.708218e+02 -4.651400e+00 -2.332952e+02
      vertex -1.803056e+02 3.512357e+01 -1.904091e+02
    endloop
  endfacet
endsolid SIM_ICUB3_L_FOREARM
