solid SIM_ICUB3_L_UPPER_LEG
  facet normal -8.719709e-01 -3.609164e-01 -3.307658e-01
    outer loop
      vertex -9.254252e+01 -1.020618e+01 -6.145882e+02
      vertex -9.745000e+01 4.998590e+00 -6.182417e+02
      vertex -9.254252e+01 -1.991040e+00 -6.235522e+02
    endloop
  endfacet
  facet normal -8.567962e-01 -2.658896e-01 -4.418178e-01
    outer loop
      vertex -9.254252e+01 9.265262e+00 -6.303263e+02
      vertex -9.254252e+01 -1.991040e+00 -6.235522e+02
      vertex -9.745000e+01 4.998590e+00 -6.182417e+02
    endloop
  endfacet
  facet normal 4.601916e-03 -7.372219e-01 -6.756350e-01
    outer loop
      vertex -8.595000e+01 -1.025527e+01 -6.144897e+02
      vertex -9.254252e+01 -1.020618e+01 -6.145882e+02
      vertex -9.254252e+01 -1.991040e+00 -6.235522e+02
    endloop
  endfacet
  facet normal -4.785585e-03 -5.156285e-01 -8.567989e-01
    outer loop
      vertex -8.595000e+01 9.005363e+00 -6.302067e+02
      vertex -9.254252e+01 -1.991040e+00 -6.235522e+02
      vertex -9.254252e+01 9.265262e+00 -6.303263e+02
    endloop
  endfacet
  facet normal 2.576384e-03 -7.379624e-01 -6.748369e-01
    outer loop
      vertex -8.595000e+01 -1.025527e+01 -6.144897e+02
      vertex -9.254252e+01 -1.991040e+00 -6.235522e+02
      vertex -8.595000e+01 -1.884713e+00 -6.236433e+02
    endloop
  endfacet
  facet normal -3.510385e-03 -5.161916e-01 -8.564660e-01
    outer loop
      vertex -8.595000e+01 9.005363e+00 -6.302067e+02
      vertex -8.595000e+01 -1.884713e+00 -6.236433e+02
      vertex -9.254252e+01 -1.991040e+00 -6.235522e+02
    endloop
  endfacet
  facet normal -9.429491e-01 -3.233780e-01 -7.920690e-02
    outer loop
      vertex -9.745000e+01 1.411351e-01 -5.984102e+02
      vertex -9.745000e+01 4.998590e+00 -6.182417e+02
      vertex -9.254252e+01 -1.020618e+01 -6.145882e+02
    endloop
  endfacet
  facet normal -9.184403e-01 -5.362634e-02 -3.919078e-01
    outer loop
      vertex -9.745000e+01 2.587314e+01 -6.210981e+02
      vertex -9.254252e+01 9.265262e+00 -6.303263e+02
      vertex -9.745000e+01 4.998590e+00 -6.182417e+02
    endloop
  endfacet
  facet normal -9.916393e-01 -1.253358e-01 -3.069924e-02
    outer loop
      vertex -1.008500e+02 2.595079e+01 -5.939573e+02
      vertex -9.745000e+01 4.998590e+00 -6.182417e+02
      vertex -9.745000e+01 1.411351e-01 -5.984102e+02
    endloop
  endfacet
  facet normal -9.921071e-01 -1.699963e-02 -1.242354e-01
    outer loop
      vertex -1.008500e+02 2.595079e+01 -5.939573e+02
      vertex -9.745000e+01 2.587314e+01 -6.210981e+02
      vertex -9.745000e+01 4.998590e+00 -6.182417e+02
    endloop
  endfacet
  facet normal -1.304746e-03 -9.270890e-01 -3.748390e-01
    outer loop
      vertex -8.595000e+01 -1.732032e+01 -5.970157e+02
      vertex -9.254252e+01 -1.020618e+01 -6.145882e+02
      vertex -8.595000e+01 -1.025527e+01 -6.144897e+02
    endloop
  endfacet
  facet normal -9.637786e-01 -2.189144e-01 -1.523396e-01
    outer loop
      vertex -9.456908e+01 -1.385014e+01 -5.965307e+02
      vertex -9.745000e+01 1.411351e-01 -5.984102e+02
      vertex -9.254252e+01 -1.020618e+01 -6.145882e+02
    endloop
  endfacet
  facet normal -3.748259e-01 -8.997201e-01 -2.236277e-01
    outer loop
      vertex -8.595000e+01 -1.732032e+01 -5.970157e+02
      vertex -9.456908e+01 -1.385014e+01 -5.965307e+02
      vertex -9.254252e+01 -1.020618e+01 -6.145882e+02
    endloop
  endfacet
  facet normal 9.953491e-03 -1.984750e-01 -9.800554e-01
    outer loop
      vertex -8.595000e+01 2.605000e+01 -6.336585e+02
      vertex -8.595000e+01 9.005363e+00 -6.302067e+02
      vertex -9.254252e+01 9.265262e+00 -6.303263e+02
    endloop
  endfacet
  facet normal -9.285648e-01 -7.206546e-02 -3.641072e-01
    outer loop
      vertex -9.254252e+01 2.610084e+01 -6.336585e+02
      vertex -9.254252e+01 9.265262e+00 -6.303263e+02
      vertex -9.745000e+01 2.587314e+01 -6.210981e+02
    endloop
  endfacet
  facet normal -1.501854e-03 -1.941571e-01 -9.809693e-01
    outer loop
      vertex -8.595000e+01 2.605000e+01 -6.336585e+02
      vertex -9.254252e+01 9.265262e+00 -6.303263e+02
      vertex -9.254252e+01 2.610084e+01 -6.336585e+02
    endloop
  endfacet
  facet normal 1.000000e+00 4.928394e-15 -3.255660e-15
    outer loop
      vertex -8.595000e+01 7.096890e-01 -6.240808e+02
      vertex -8.595000e+01 -1.025527e+01 -6.144897e+02
      vertex -8.595000e+01 -1.884713e+00 -6.236433e+02
    endloop
  endfacet
  facet normal 1.000000e+00 5.070580e-15 -2.412647e-15
    outer loop
      vertex -8.595000e+01 9.005363e+00 -6.302067e+02
      vertex -8.595000e+01 7.096890e-01 -6.240808e+02
      vertex -8.595000e+01 -1.884713e+00 -6.236433e+02
    endloop
  endfacet
  facet normal 9.957101e-01 -6.091875e-02 -6.964467e-02
    outer loop
      vertex -8.395000e+01 2.999341e+00 -5.974896e+02
      vertex -8.595000e+01 -1.025527e+01 -6.144897e+02
      vertex -8.595000e+01 7.096890e-01 -6.240808e+02
    endloop
  endfacet
  facet normal 9.943054e-01 -9.879795e-02 -3.994581e-02
    outer loop
      vertex -8.595000e+01 -1.732032e+01 -5.970157e+02
      vertex -8.595000e+01 -1.025527e+01 -6.144897e+02
      vertex -8.395000e+01 2.999341e+00 -5.974896e+02
    endloop
  endfacet
  facet normal 9.934195e-01 -6.803609e-02 -9.213485e-02
    outer loop
      vertex -8.395000e+01 2.587314e+01 -6.210981e+02
      vertex -8.595000e+01 7.096890e-01 -6.240808e+02
      vertex -8.595000e+01 9.005363e+00 -6.302067e+02
    endloop
  endfacet
  facet normal 6.176643e-02 -9.947975e-01 8.101193e-02
    outer loop
      vertex -7.025000e+01 4.221365e+00 -5.929290e+02
      vertex -8.395000e+01 2.999341e+00 -5.974896e+02
      vertex -8.595000e+01 7.096890e-01 -6.240808e+02
    endloop
  endfacet
  facet normal 4.565266e-01 6.886072e-02 -8.870409e-01
    outer loop
      vertex -7.025000e+01 2.605000e+01 -6.140335e+02
      vertex -8.595000e+01 7.096890e-01 -6.240808e+02
      vertex -8.395000e+01 2.587314e+01 -6.210981e+02
    endloop
  endfacet
  facet normal 7.659095e-01 -2.376596e-01 -5.974116e-01
    outer loop
      vertex -7.025000e+01 9.685888e+00 -6.075236e+02
      vertex -8.595000e+01 7.096890e-01 -6.240808e+02
      vertex -7.025000e+01 2.605000e+01 -6.140335e+02
    endloop
  endfacet
  facet normal 6.711022e-01 -6.942937e-01 -2.599577e-01
    outer loop
      vertex -7.025000e+01 4.221365e+00 -5.929290e+02
      vertex -8.595000e+01 7.096890e-01 -6.240808e+02
      vertex -7.025000e+01 9.685888e+00 -6.075236e+02
    endloop
  endfacet
  facet normal 9.869858e-01 -3.191780e-02 -1.576078e-01
    outer loop
      vertex -8.595000e+01 2.605000e+01 -6.336585e+02
      vertex -8.395000e+01 2.587314e+01 -6.210981e+02
      vertex -8.595000e+01 9.005363e+00 -6.302067e+02
    endloop
  endfacet
  facet normal -9.752446e-01 -2.100824e-01 -6.901779e-02
    outer loop
      vertex -1.004500e+02 4.346839e+00 -5.688209e+02
      vertex -9.745000e+01 1.411351e-01 -5.984102e+02
      vertex -9.456908e+01 -1.385014e+01 -5.965307e+02
    endloop
  endfacet
  facet normal -9.929807e-01 -7.706644e-02 -8.972236e-02
    outer loop
      vertex -1.006500e+02 2.594576e+01 -5.851597e+02
      vertex -9.745000e+01 1.411351e-01 -5.984102e+02
      vertex -1.004500e+02 4.346839e+00 -5.688209e+02
    endloop
  endfacet
  facet normal -9.906760e-01 -1.343777e-01 2.244469e-02
    outer loop
      vertex -1.006500e+02 2.594576e+01 -5.851597e+02
      vertex -1.008500e+02 2.595079e+01 -5.939573e+02
      vertex -9.745000e+01 1.411351e-01 -5.984102e+02
    endloop
  endfacet
  facet normal -3.687747e-01 -9.264665e-01 7.526694e-02
    outer loop
      vertex -8.595000e+01 -1.556490e+01 -5.754082e+02
      vertex -9.456908e+01 -1.385014e+01 -5.965307e+02
      vertex -8.595000e+01 -1.732032e+01 -5.970157e+02
    endloop
  endfacet
  facet normal -9.298141e-01 -3.655423e-01 4.271424e-02
    outer loop
      vertex -9.372939e+01 -1.356231e+01 -5.757888e+02
      vertex -1.004500e+02 4.346839e+00 -5.688209e+02
      vertex -9.456908e+01 -1.385014e+01 -5.965307e+02
    endloop
  endfacet
  facet normal -2.503076e-01 -9.678795e-01 2.356434e-02
    outer loop
      vertex -8.595000e+01 -1.556490e+01 -5.754082e+02
      vertex -9.372939e+01 -1.356231e+01 -5.757888e+02
      vertex -9.456908e+01 -1.385014e+01 -5.965307e+02
    endloop
  endfacet
  facet normal 3.196950e-01 -5.352898e-02 -9.460073e-01
    outer loop
      vertex -7.025000e+01 4.221365e+00 -5.929290e+02
      vertex -8.595000e+01 -1.732032e+01 -5.970157e+02
      vertex -8.395000e+01 2.999341e+00 -5.974896e+02
    endloop
  endfacet
  facet normal 7.634289e-01 -6.437709e-01 5.230050e-02
    outer loop
      vertex -7.025000e+01 1.816905e+00 -5.906266e+02
      vertex -8.595000e+01 -1.556490e+01 -5.754082e+02
      vertex -8.595000e+01 -1.732032e+01 -5.970157e+02
    endloop
  endfacet
  facet normal 7.508806e-01 -4.567587e-01 -4.770218e-01
    outer loop
      vertex -7.025000e+01 4.221365e+00 -5.929290e+02
      vertex -7.025000e+01 1.816905e+00 -5.906266e+02
      vertex -8.595000e+01 -1.732032e+01 -5.970157e+02
    endloop
  endfacet
  facet normal -9.427975e-01 -2.894508e-01 -1.653817e-01
    outer loop
      vertex -1.033845e+02 3.308026e+00 -5.502738e+02
      vertex -1.004500e+02 4.346839e+00 -5.688209e+02
      vertex -9.372939e+01 -1.356231e+01 -5.757888e+02
    endloop
  endfacet
  facet normal -9.859906e-01 6.829538e-02 -1.521785e-01
    outer loop
      vertex -1.025779e+02 2.078810e+01 -5.476553e+02
      vertex -1.004500e+02 4.346839e+00 -5.688209e+02
      vertex -1.033845e+02 3.308026e+00 -5.502738e+02
    endloop
  endfacet
  facet normal -9.968429e-01 -5.356589e-02 -5.860876e-02
    outer loop
      vertex -1.025779e+02 2.078810e+01 -5.476553e+02
      vertex -1.006500e+02 2.594576e+01 -5.851597e+02
      vertex -1.004500e+02 4.346839e+00 -5.688209e+02
    endloop
  endfacet
  facet normal -2.449815e-01 -9.664173e-01 -7.759962e-02
    outer loop
      vertex -8.745000e+01 -1.723195e+01 -5.499114e+02
      vertex -9.372939e+01 -1.356231e+01 -5.757888e+02
      vertex -8.595000e+01 -1.556490e+01 -5.754082e+02
    endloop
  endfacet
  facet normal -8.872877e-01 -4.601382e-01 -3.151888e-02
    outer loop
      vertex -9.453878e+01 -1.380618e+01 -5.494432e+02
      vertex -1.033845e+02 3.308026e+00 -5.502738e+02
      vertex -9.372939e+01 -1.356231e+01 -5.757888e+02
    endloop
  endfacet
  facet normal -4.361798e-01 -8.995972e-01 -2.172781e-02
    outer loop
      vertex -8.745000e+01 -1.723195e+01 -5.499114e+02
      vertex -9.453878e+01 -1.380618e+01 -5.494432e+02
      vertex -9.372939e+01 -1.356231e+01 -5.757888e+02
    endloop
  endfacet
  facet normal 9.890450e-01 -1.142430e-01 9.347951e-02
    outer loop
      vertex -8.395000e+01 2.999341e+00 -5.738811e+02
      vertex -8.595000e+01 3.857020e+00 -5.516723e+02
      vertex -8.595000e+01 -1.556490e+01 -5.754082e+02
    endloop
  endfacet
  facet normal 9.963201e-01 -6.633359e-02 5.427754e-02
    outer loop
      vertex -8.745000e+01 -1.723195e+01 -5.499114e+02
      vertex -8.595000e+01 -1.556490e+01 -5.754082e+02
      vertex -8.595000e+01 3.857020e+00 -5.516723e+02
    endloop
  endfacet
  facet normal 7.049027e-02 -8.931609e-02 9.935058e-01
    outer loop
      vertex -7.025000e+01 7.848661e+00 -5.744172e+02
      vertex -8.395000e+01 2.999341e+00 -5.738811e+02
      vertex -8.595000e+01 -1.556490e+01 -5.754082e+02
    endloop
  endfacet
  facet normal 8.088716e-01 -5.510690e-01 2.050605e-01
    outer loop
      vertex -7.025000e+01 7.848661e+00 -5.744172e+02
      vertex -8.595000e+01 -1.556490e+01 -5.754082e+02
      vertex -7.025000e+01 1.816905e+00 -5.906266e+02
    endloop
  endfacet
  facet normal -8.883540e-01 -4.591593e-01 7.335267e-06
    outer loop
      vertex -1.033740e+02 3.288026e+00 -5.266643e+02
      vertex -1.033845e+02 3.308026e+00 -5.502738e+02
      vertex -9.453878e+01 -1.380618e+01 -5.494432e+02
    endloop
  endfacet
  facet normal -9.977523e-01 6.700838e-02 5.018542e-04
    outer loop
      vertex -1.019310e+02 2.477205e+01 -5.263517e+02
      vertex -1.033845e+02 3.308026e+00 -5.502738e+02
      vertex -1.033740e+02 3.288026e+00 -5.266643e+02
    endloop
  endfacet
  facet normal -9.988362e-01 4.274582e-02 2.233727e-02
    outer loop
      vertex -1.019310e+02 2.477205e+01 -5.263517e+02
      vertex -1.025779e+02 2.078810e+01 -5.476553e+02
      vertex -1.033845e+02 3.308026e+00 -5.502738e+02
    endloop
  endfacet
  facet normal -4.364384e-01 -8.993053e-01 -2.777737e-02
    outer loop
      vertex -8.745000e+01 -1.795000e+01 -5.266642e+02
      vertex -9.453878e+01 -1.380618e+01 -5.494432e+02
      vertex -8.745000e+01 -1.723195e+01 -5.499114e+02
    endloop
  endfacet
  facet normal -9.255883e-01 -3.696267e-01 -8.162361e-02
    outer loop
      vertex -9.649843e+01 -1.404090e+01 -5.261585e+02
      vertex -1.033740e+02 3.288026e+00 -5.266643e+02
      vertex -9.453878e+01 -1.380618e+01 -5.494432e+02
    endloop
  endfacet
  facet normal -3.982423e-01 -9.162834e-01 -4.275251e-02
    outer loop
      vertex -8.745000e+01 -1.795000e+01 -5.266642e+02
      vertex -9.649843e+01 -1.404090e+01 -5.261585e+02
      vertex -9.453878e+01 -1.380618e+01 -5.494432e+02
    endloop
  endfacet
  facet normal 4.476295e-01 -8.910915e-01 7.472376e-02
    outer loop
      vertex -7.025000e+01 1.007016e+01 -5.716299e+02
      vertex -8.595000e+01 3.857020e+00 -5.516723e+02
      vertex -8.395000e+01 2.999341e+00 -5.738811e+02
    endloop
  endfacet
  facet normal 9.961588e-01 -6.605432e-02 5.748481e-02
    outer loop
      vertex -8.745000e+01 2.999341e+00 -5.266642e+02
      vertex -8.745000e+01 -1.723195e+01 -5.499114e+02
      vertex -8.595000e+01 3.857020e+00 -5.516723e+02
    endloop
  endfacet
  facet normal 9.793282e-01 -1.954696e-01 5.203686e-02
    outer loop
      vertex -8.245000e+01 2.805000e+01 -5.266642e+02
      vertex -8.745000e+01 2.999341e+00 -5.266642e+02
      vertex -8.595000e+01 3.857020e+00 -5.516723e+02
    endloop
  endfacet
  facet normal 9.839685e-01 3.780948e-02 -1.742882e-01
    outer loop
      vertex -8.595000e+01 2.578364e+01 -5.469156e+02
      vertex -8.245000e+01 2.805000e+01 -5.266642e+02
      vertex -8.595000e+01 3.857020e+00 -5.516723e+02
    endloop
  endfacet
  facet normal 7.537369e-01 -1.393248e-01 6.422378e-01
    outer loop
      vertex -7.025000e+01 2.605000e+01 -5.652835e+02
      vertex -8.595000e+01 2.578364e+01 -5.469156e+02
      vertex -8.595000e+01 3.857020e+00 -5.516723e+02
    endloop
  endfacet
  facet normal 7.987339e-01 -2.220869e-01 5.591972e-01
    outer loop
      vertex -7.025000e+01 2.605000e+01 -5.652835e+02
      vertex -8.595000e+01 3.857020e+00 -5.516723e+02
      vertex -7.025000e+01 1.007016e+01 -5.716299e+02
    endloop
  endfacet
  facet normal 2.883946e-01 -7.487820e-01 5.967865e-01
    outer loop
      vertex -7.025000e+01 1.007016e+01 -5.716299e+02
      vertex -8.395000e+01 2.999341e+00 -5.738811e+02
      vertex -7.025000e+01 7.848661e+00 -5.744172e+02
    endloop
  endfacet
  facet normal 1.000000e+00 3.391719e-15 -4.174280e-15
    outer loop
      vertex -8.745000e+01 -1.795000e+01 -5.266642e+02
      vertex -8.745000e+01 -1.723195e+01 -5.499114e+02
      vertex -8.745000e+01 2.999341e+00 -5.266642e+02
    endloop
  endfacet
  facet normal -9.295019e-01 -3.688167e-01 -6.739266e-04
    outer loop
      vertex -1.033741e+02 3.245197e+00 -5.030561e+02
      vertex -1.033740e+02 3.288026e+00 -5.266643e+02
      vertex -9.649843e+01 -1.404090e+01 -5.261585e+02
    endloop
  endfacet
  facet normal -9.976916e-01 6.790798e-02 1.180145e-04
    outer loop
      vertex -1.019028e+02 2.486123e+01 -5.030536e+02
      vertex -1.033740e+02 3.288026e+00 -5.266643e+02
      vertex -1.033741e+02 3.245197e+00 -5.030561e+02
    endloop
  endfacet
  facet normal -9.977524e-01 6.700187e-02 9.497205e-04
    outer loop
      vertex -1.019028e+02 2.486123e+01 -5.030536e+02
      vertex -1.019310e+02 2.477205e+01 -5.263517e+02
      vertex -1.033740e+02 3.288026e+00 -5.266643e+02
    endloop
  endfacet
  facet normal -3.969742e-01 -9.177913e-01 -8.407444e-03
    outer loop
      vertex -8.795000e+01 -1.795000e+01 -5.030557e+02
      vertex -9.649843e+01 -1.404090e+01 -5.261585e+02
      vertex -8.745000e+01 -1.795000e+01 -5.266642e+02
    endloop
  endfacet
  facet normal -9.333861e-01 -3.587517e-01 -9.360999e-03
    outer loop
      vertex -9.728045e+01 -1.260902e+01 -5.030584e+02
      vertex -1.033741e+02 3.245197e+00 -5.030561e+02
      vertex -9.649843e+01 -1.404090e+01 -5.261585e+02
    endloop
  endfacet
  facet normal -4.964596e-01 -8.672730e-01 3.695183e-02
    outer loop
      vertex -8.795000e+01 -1.795000e+01 -5.030557e+02
      vertex -9.728045e+01 -1.260902e+01 -5.030584e+02
      vertex -9.649843e+01 -1.404090e+01 -5.261585e+02
    endloop
  endfacet
  facet normal 5.288325e-01 1.753237e-15 -8.487262e-01
    outer loop
      vertex -5.855255e+01 2.999341e+00 -5.086585e+02
      vertex -8.745000e+01 -1.795000e+01 -5.266642e+02
      vertex -8.745000e+01 2.999341e+00 -5.266642e+02
    endloop
  endfacet
  facet normal -5.190825e-15 1.036065e-15 -1.000000e+00
    outer loop
      vertex -5.855255e+01 3.805000e+01 -5.266642e+02
      vertex -8.745000e+01 2.999341e+00 -5.266642e+02
      vertex -8.245000e+01 2.805000e+01 -5.266642e+02
    endloop
  endfacet
  facet normal 4.847613e-01 -3.996606e-01 -7.779961e-01
    outer loop
      vertex -5.855255e+01 3.805000e+01 -5.266642e+02
      vertex -5.855255e+01 2.999341e+00 -5.086585e+02
      vertex -8.745000e+01 2.999341e+00 -5.266642e+02
    endloop
  endfacet
  facet normal 1.227317e-01 -9.924365e-01 2.599312e-03
    outer loop
      vertex -5.855000e+01 -1.430000e+01 -4.976385e+02
      vertex -8.795000e+01 -1.795000e+01 -5.030557e+02
      vertex -8.745000e+01 -1.795000e+01 -5.266642e+02
    endloop
  endfacet
  facet normal 4.144728e-01 -8.574844e-01 -3.048486e-01
    outer loop
      vertex -5.855255e+01 -1.145000e+01 -5.056585e+02
      vertex -5.855000e+01 -1.430000e+01 -4.976385e+02
      vertex -8.745000e+01 -1.795000e+01 -5.266642e+02
    endloop
  endfacet
  facet normal 6.037953e-01 -1.620478e-01 -7.804945e-01
    outer loop
      vertex -5.855255e+01 2.999341e+00 -5.086585e+02
      vertex -5.855255e+01 -1.145000e+01 -5.056585e+02
      vertex -8.745000e+01 -1.795000e+01 -5.266642e+02
    endloop
  endfacet
  facet normal -9.196863e-01 -3.535128e-01 1.708971e-01
    outer loop
      vertex -1.027814e+02 3.345704e+00 -4.996585e+02
      vertex -1.033741e+02 3.245197e+00 -5.030561e+02
      vertex -9.728045e+01 -1.260902e+01 -5.030584e+02
    endloop
  endfacet
  facet normal -9.821850e-01 8.236202e-02 1.689059e-01
    outer loop
      vertex -1.012630e+02 2.145335e+01 -4.996585e+02
      vertex -1.033741e+02 3.245197e+00 -5.030561e+02
      vertex -1.027814e+02 3.345704e+00 -4.996585e+02
    endloop
  endfacet
  facet normal -9.664874e-01 6.575532e-02 2.481500e-01
    outer loop
      vertex -1.012630e+02 2.145335e+01 -4.996585e+02
      vertex -1.019028e+02 2.486123e+01 -5.030536e+02
      vertex -1.033741e+02 3.245197e+00 -5.030561e+02
    endloop
  endfacet
  facet normal -3.575488e-01 -6.242705e-01 6.945827e-01
    outer loop
      vertex -7.182399e+01 -6.494266e+00 -4.844585e+02
      vertex -9.728045e+01 -1.260902e+01 -5.030584e+02
      vertex -8.795000e+01 -1.795000e+01 -5.030557e+02
    endloop
  endfacet
  facet normal -9.213046e-01 -3.525896e-01 1.639463e-01
    outer loop
      vertex -9.682462e+01 -1.221920e+01 -4.996585e+02
      vertex -1.027814e+02 3.345704e+00 -4.996585e+02
      vertex -9.728045e+01 -1.260902e+01 -5.030584e+02
    endloop
  endfacet
  facet normal 1.701807e-01 -9.813221e-01 8.969604e-02
    outer loop
      vertex -7.182399e+01 -6.494266e+00 -4.844585e+02
      vertex -9.682462e+01 -1.221920e+01 -4.996585e+02
      vertex -9.728045e+01 -1.260902e+01 -5.030584e+02
    endloop
  endfacet
  facet normal -2.854333e-01 -6.855137e-01 6.697752e-01
    outer loop
      vertex -6.165000e+01 -1.073050e+01 -4.844585e+02
      vertex -7.182399e+01 -6.494266e+00 -4.844585e+02
      vertex -8.795000e+01 -1.795000e+01 -5.030557e+02
    endloop
  endfacet
  facet normal 6.823203e-02 -9.588129e-01 2.757212e-01
    outer loop
      vertex -6.165000e+01 -1.073050e+01 -4.844585e+02
      vertex -8.795000e+01 -1.795000e+01 -5.030557e+02
      vertex -5.855000e+01 -1.430000e+01 -4.976385e+02
    endloop
  endfacet
  facet normal -5.928061e-01 -2.268709e-01 7.727293e-01
    outer loop
      vertex -7.670792e+01 4.056656e+00 -4.794472e+02
      vertex -1.027814e+02 3.345704e+00 -4.996585e+02
      vertex -9.682462e+01 -1.221920e+01 -4.996585e+02
    endloop
  endfacet
  facet normal -6.044404e-01 1.927654e-01 7.729769e-01
    outer loop
      vertex -7.713258e+01 2.281984e+01 -4.844585e+02
      vertex -1.027814e+02 3.345704e+00 -4.996585e+02
      vertex -7.670792e+01 4.056656e+00 -4.794472e+02
    endloop
  endfacet
  facet normal -5.342636e-01 4.480116e-02 8.441299e-01
    outer loop
      vertex -7.713258e+01 2.281984e+01 -4.844585e+02
      vertex -1.012630e+02 2.145335e+01 -4.996585e+02
      vertex -1.027814e+02 3.345704e+00 -4.996585e+02
    endloop
  endfacet
  facet normal -3.491345e-01 -5.289846e-01 7.734858e-01
    outer loop
      vertex -7.670792e+01 4.056656e+00 -4.794472e+02
      vertex -9.682462e+01 -1.221920e+01 -4.996585e+02
      vertex -7.182399e+01 -6.494266e+00 -4.844585e+02
    endloop
  endfacet
  facet normal -9.074917e-01 -4.200699e-01 1.083397e-15
    outer loop
      vertex -7.670792e+01 4.056656e+00 -4.787585e+02
      vertex -7.670792e+01 4.056656e+00 -4.794472e+02
      vertex -7.182399e+01 -6.494266e+00 -4.844585e+02
    endloop
  endfacet
  facet normal -3.512376e-01 -8.435535e-01 4.062630e-01
    outer loop
      vertex -6.409891e+01 -6.965651e+00 -4.787585e+02
      vertex -7.182399e+01 -6.494266e+00 -4.844585e+02
      vertex -6.165000e+01 -1.073050e+01 -4.844585e+02
    endloop
  endfacet
  facet normal -6.108213e-01 -5.761450e-01 5.430970e-01
    outer loop
      vertex -6.693501e+01 -6.304448e+00 -4.787585e+02
      vertex -7.670792e+01 4.056656e+00 -4.787585e+02
      vertex -7.182399e+01 -6.494266e+00 -4.844585e+02
    endloop
  endfacet
  facet normal -2.214078e-01 -9.496856e-01 2.215307e-01
    outer loop
      vertex -6.409891e+01 -6.965651e+00 -4.787585e+02
      vertex -6.693501e+01 -6.304448e+00 -4.787585e+02
      vertex -7.182399e+01 -6.494266e+00 -4.844585e+02
    endloop
  endfacet
  facet normal -9.715744e-01 4.031369e-02 2.332767e-01
    outer loop
      vertex -7.590445e+01 1.943501e+01 -4.787585e+02
      vertex -7.713258e+01 2.281984e+01 -4.844585e+02
      vertex -7.670792e+01 4.056656e+00 -4.794472e+02
    endloop
  endfacet
  facet normal -9.986379e-01 5.217549e-02 -1.674804e-16
    outer loop
      vertex -7.590445e+01 1.943501e+01 -4.787585e+02
      vertex -7.670792e+01 4.056656e+00 -4.794472e+02
      vertex -7.670792e+01 4.056656e+00 -4.787585e+02
    endloop
  endfacet
  facet normal -9.307418e-01 4.558059e-02 -3.628251e-01
    outer loop
      vertex -9.745000e+01 4.677954e+01 -6.184717e+02
      vertex -9.254252e+01 2.610084e+01 -6.336585e+02
      vertex -9.745000e+01 2.587314e+01 -6.210981e+02
    endloop
  endfacet
  facet normal -9.865131e-01 1.069736e-01 -1.238892e-01
    outer loop
      vertex -9.745000e+01 5.188132e+01 -5.986410e+02
      vertex -9.745000e+01 2.587314e+01 -6.210981e+02
      vertex -1.008500e+02 2.595079e+01 -5.939573e+02
    endloop
  endfacet
  facet normal -1.000000e+00 -3.977361e-15 4.606297e-15
    outer loop
      vertex -9.745000e+01 5.188132e+01 -5.986410e+02
      vertex -9.745000e+01 4.677954e+01 -6.184717e+02
      vertex -9.745000e+01 2.587314e+01 -6.210981e+02
    endloop
  endfacet
  facet normal 1.498397e-03 1.948865e-01 -9.808247e-01
    outer loop
      vertex -8.595000e+01 4.279272e+01 -6.303318e+02
      vertex -8.595000e+01 2.605000e+01 -6.336585e+02
      vertex -9.254252e+01 2.610084e+01 -6.336585e+02
    endloop
  endfacet
  facet normal -9.117076e-01 7.963766e-02 -4.030473e-01
    outer loop
      vertex -9.254252e+01 4.273745e+01 -6.303712e+02
      vertex -9.254252e+01 2.610084e+01 -6.336585e+02
      vertex -9.745000e+01 4.677954e+01 -6.184717e+02
    endloop
  endfacet
  facet normal 4.250268e-03 1.938394e-01 -9.810241e-01
    outer loop
      vertex -8.595000e+01 4.279272e+01 -6.303318e+02
      vertex -9.254252e+01 2.610084e+01 -6.336585e+02
      vertex -9.254252e+01 4.273745e+01 -6.303712e+02
    endloop
  endfacet
  facet normal 9.860141e-01 5.815877e-02 -1.561848e-01
    outer loop
      vertex -8.595000e+01 5.099462e+01 -6.243698e+02
      vertex -8.395000e+01 2.587314e+01 -6.210981e+02
      vertex -8.595000e+01 2.605000e+01 -6.336585e+02
    endloop
  endfacet
  facet normal 7.229065e-01 -3.233472e-02 -6.901889e-01
    outer loop
      vertex -7.025000e+01 4.241411e+01 -6.075236e+02
      vertex -8.395000e+01 2.587314e+01 -6.210981e+02
      vertex -8.595000e+01 5.099462e+01 -6.243698e+02
    endloop
  endfacet
  facet normal 4.285930e-01 3.339691e-01 -8.395074e-01
    outer loop
      vertex -7.025000e+01 2.605000e+01 -6.140335e+02
      vertex -8.395000e+01 2.587314e+01 -6.210981e+02
      vertex -7.025000e+01 4.241411e+01 -6.075236e+02
    endloop
  endfacet
  facet normal 1.000000e+00 2.852429e-15 -1.540518e-15
    outer loop
      vertex -8.595000e+01 4.279272e+01 -6.303318e+02
      vertex -8.595000e+01 5.099462e+01 -6.243698e+02
      vertex -8.595000e+01 2.605000e+01 -6.336585e+02
    endloop
  endfacet
  facet normal -9.916571e-01 1.269043e-01 2.261626e-02
    outer loop
      vertex -9.745000e+01 4.893731e+01 -5.738591e+02
      vertex -1.008500e+02 2.595079e+01 -5.939573e+02
      vertex -1.006500e+02 2.594576e+01 -5.851597e+02
    endloop
  endfacet
  facet normal -9.910185e-01 1.327913e-01 1.577518e-02
    outer loop
      vertex -9.745000e+01 4.893731e+01 -5.738591e+02
      vertex -9.745000e+01 5.188132e+01 -5.986410e+02
      vertex -1.008500e+02 2.595079e+01 -5.939573e+02
    endloop
  endfacet
  facet normal -9.588013e-01 2.838927e-01 -1.024547e-02
    outer loop
      vertex -9.526960e+01 4.521465e+01 -5.547498e+02
      vertex -1.006500e+02 2.594576e+01 -5.851597e+02
      vertex -1.025779e+02 2.078810e+01 -5.476553e+02
    endloop
  endfacet
  facet normal -9.890040e-01 7.500423e-02 1.274580e-01
    outer loop
      vertex -9.526960e+01 4.521465e+01 -5.547498e+02
      vertex -9.745000e+01 4.893731e+01 -5.738591e+02
      vertex -1.006500e+02 2.594576e+01 -5.851597e+02
    endloop
  endfacet
  facet normal -8.779554e-01 4.746962e-01 -6.211194e-02
    outer loop
      vertex -9.384044e+01 3.976088e+01 -5.261585e+02
      vertex -1.025779e+02 2.078810e+01 -5.476553e+02
      vertex -1.019310e+02 2.477205e+01 -5.263517e+02
    endloop
  endfacet
  facet normal -9.435878e-01 3.133772e-01 1.069426e-01
    outer loop
      vertex -9.384044e+01 3.976088e+01 -5.261585e+02
      vertex -9.526960e+01 4.521465e+01 -5.547498e+02
      vertex -1.025779e+02 2.078810e+01 -5.476553e+02
    endloop
  endfacet
  facet normal -8.805075e-01 4.740317e-01 -7.500395e-04
    outer loop
      vertex -9.395061e+01 3.963239e+01 -5.030333e+02
      vertex -1.019310e+02 2.477205e+01 -5.263517e+02
      vertex -1.019028e+02 2.486123e+01 -5.030536e+02
    endloop
  endfacet
  facet normal -8.799800e-01 4.750082e-01 -1.552912e-03
    outer loop
      vertex -9.395061e+01 3.963239e+01 -5.030333e+02
      vertex -9.384044e+01 3.976088e+01 -5.261585e+02
      vertex -1.019310e+02 2.477205e+01 -5.263517e+02
    endloop
  endfacet
  facet normal 3.857631e-01 -9.218757e-01 3.649780e-02
    outer loop
      vertex -5.855255e+01 3.805000e+01 -5.266642e+02
      vertex -8.245000e+01 2.805000e+01 -5.266642e+02
      vertex -8.595000e+01 2.578364e+01 -5.469156e+02
    endloop
  endfacet
  facet normal 2.643041e-01 -9.407891e-01 2.122717e-01
    outer loop
      vertex -5.855255e+01 3.805000e+01 -5.266642e+02
      vertex -8.595000e+01 2.578364e+01 -5.469156e+02
      vertex -7.025000e+01 2.605000e+01 -5.652835e+02
    endloop
  endfacet
  facet normal -8.217447e-01 3.172880e-01 4.733540e-01
    outer loop
      vertex -9.604159e+01 3.497624e+01 -4.996585e+02
      vertex -1.019028e+02 2.486123e+01 -5.030536e+02
      vertex -1.012630e+02 2.145335e+01 -4.996585e+02
    endloop
  endfacet
  facet normal -8.754544e-01 4.711628e-01 1.076349e-01
    outer loop
      vertex -9.604159e+01 3.497624e+01 -4.996585e+02
      vertex -9.395061e+01 3.963239e+01 -5.030333e+02
      vertex -1.019028e+02 2.486123e+01 -5.030536e+02
    endloop
  endfacet
  facet normal -4.208036e-01 6.737261e-01 6.074681e-01
    outer loop
      vertex -7.172126e+01 3.270965e+01 -4.916785e+02
      vertex -1.012630e+02 2.145335e+01 -4.996585e+02
      vertex -7.713258e+01 2.281984e+01 -4.844585e+02
    endloop
  endfacet
  facet normal -2.999096e-01 1.157996e-01 9.469132e-01
    outer loop
      vertex -7.172126e+01 3.270965e+01 -4.916785e+02
      vertex -9.604159e+01 3.497624e+01 -4.996585e+02
      vertex -1.012630e+02 2.145335e+01 -4.996585e+02
    endloop
  endfacet
  facet normal -6.086168e-01 6.573890e-01 4.443257e-01
    outer loop
      vertex -6.657729e+01 2.873942e+01 -4.787585e+02
      vertex -7.172126e+01 3.270965e+01 -4.916785e+02
      vertex -7.713258e+01 2.281984e+01 -4.844585e+02
    endloop
  endfacet
  facet normal -6.128861e-01 6.143841e-01 4.968931e-01
    outer loop
      vertex -6.657729e+01 2.873942e+01 -4.787585e+02
      vertex -7.713258e+01 2.281984e+01 -4.844585e+02
      vertex -7.590445e+01 1.943501e+01 -4.787585e+02
    endloop
  endfacet
  facet normal -8.072633e-01 3.710519e-01 -4.589624e-01
    outer loop
      vertex -9.254252e+01 6.236381e+01 -6.145042e+02
      vertex -9.254252e+01 4.273745e+01 -6.303712e+02
      vertex -9.745000e+01 4.677954e+01 -6.184717e+02
    endloop
  endfacet
  facet normal -9.780981e-01 2.015805e-01 -5.186009e-02
    outer loop
      vertex -9.471913e+01 6.569846e+01 -5.964388e+02
      vertex -9.745000e+01 4.677954e+01 -6.184717e+02
      vertex -9.745000e+01 5.188132e+01 -5.986410e+02
    endloop
  endfacet
  facet normal -9.258406e-01 3.357226e-01 -1.735208e-01
    outer loop
      vertex -9.471913e+01 6.569846e+01 -5.964388e+02
      vertex -9.254252e+01 6.236381e+01 -6.145042e+02
      vertex -9.745000e+01 4.677954e+01 -6.184717e+02
    endloop
  endfacet
  facet normal 8.761371e-04 5.099603e-01 -8.601975e-01
    outer loop
      vertex -8.595000e+01 5.378019e+01 -6.238179e+02
      vertex -8.595000e+01 4.279272e+01 -6.303318e+02
      vertex -9.254252e+01 4.273745e+01 -6.303712e+02
    endloop
  endfacet
  facet normal -1.000000e+00 -2.828480e-15 2.602992e-15
    outer loop
      vertex -9.254252e+01 5.383747e+01 -6.237691e+02
      vertex -9.254252e+01 4.273745e+01 -6.303712e+02
      vertex -9.254252e+01 6.236381e+01 -6.145042e+02
    endloop
  endfacet
  facet normal -1.925543e-03 5.111964e-01 -8.594618e-01
    outer loop
      vertex -8.595000e+01 5.378019e+01 -6.238179e+02
      vertex -9.254252e+01 4.273745e+01 -6.303712e+02
      vertex -9.254252e+01 5.383747e+01 -6.237691e+02
    endloop
  endfacet
  facet normal -1.000000e+00 -1.093427e-14 1.265878e-14
    outer loop
      vertex -8.595000e+01 6.224186e+01 -6.146548e+02
      vertex -8.595000e+01 5.099462e+01 -6.243698e+02
      vertex -8.595000e+01 4.279272e+01 -6.303318e+02
    endloop
  endfacet
  facet normal 1.000000e+00 4.312566e-15 -4.992725e-15
    outer loop
      vertex -8.595000e+01 6.940855e+01 -5.970792e+02
      vertex -8.595000e+01 5.099462e+01 -6.243698e+02
      vertex -8.595000e+01 6.224186e+01 -6.146548e+02
    endloop
  endfacet
  facet normal 9.930684e-01 9.743292e-02 -6.574129e-02
    outer loop
      vertex -8.395000e+01 4.874695e+01 -5.974896e+02
      vertex -8.595000e+01 5.099462e+01 -6.243698e+02
      vertex -8.595000e+01 6.940855e+01 -5.970792e+02
    endloop
  endfacet
  facet normal 4.169394e-02 9.959085e-01 8.017397e-02
    outer loop
      vertex -7.025000e+01 4.780768e+01 -5.929467e+02
      vertex -8.595000e+01 5.099462e+01 -6.243698e+02
      vertex -8.395000e+01 4.874695e+01 -5.974896e+02
    endloop
  endfacet
  facet normal 6.627013e-01 7.023475e-01 -2.598747e-01
    outer loop
      vertex -7.025000e+01 4.241411e+01 -6.075236e+02
      vertex -8.595000e+01 5.099462e+01 -6.243698e+02
      vertex -7.025000e+01 4.780768e+01 -5.929467e+02
    endloop
  endfacet
  facet normal 1.000000e+00 2.857999e-15 -2.639205e-15
    outer loop
      vertex -8.595000e+01 5.378019e+01 -6.238179e+02
      vertex -8.595000e+01 6.224186e+01 -6.146548e+02
      vertex -8.595000e+01 4.279272e+01 -6.303318e+02
    endloop
  endfacet
  facet normal -9.762939e-01 2.149376e-01 2.553390e-02
    outer loop
      vertex -9.386563e+01 6.548322e+01 -5.760890e+02
      vertex -9.745000e+01 5.188132e+01 -5.986410e+02
      vertex -9.745000e+01 4.893731e+01 -5.738591e+02
    endloop
  endfacet
  facet normal -9.813949e-01 1.870910e-01 4.313988e-02
    outer loop
      vertex -9.386563e+01 6.548322e+01 -5.760890e+02
      vertex -9.471913e+01 6.569846e+01 -5.964388e+02
      vertex -9.745000e+01 5.188132e+01 -5.986410e+02
    endloop
  endfacet
  facet normal -9.546024e-01 2.524631e-01 1.581032e-01
    outer loop
      vertex -9.254252e+01 5.944932e+01 -5.610144e+02
      vertex -9.745000e+01 4.893731e+01 -5.738591e+02
      vertex -9.526960e+01 4.521465e+01 -5.547498e+02
    endloop
  endfacet
  facet normal -9.568039e-01 2.310559e-01 1.764637e-01
    outer loop
      vertex -9.254252e+01 5.944932e+01 -5.610144e+02
      vertex -9.386563e+01 6.548322e+01 -5.760890e+02
      vertex -9.745000e+01 4.893731e+01 -5.738591e+02
    endloop
  endfacet
  facet normal -2.471098e-01 9.494779e-01 1.934642e-01
    outer loop
      vertex -8.311711e+01 4.305000e+01 -5.286039e+02
      vertex -9.526960e+01 4.521465e+01 -5.547498e+02
      vertex -9.384044e+01 3.976088e+01 -5.261585e+02
    endloop
  endfacet
  facet normal -3.569495e-01 9.025970e-01 2.406359e-01
    outer loop
      vertex -8.595000e+01 4.804792e+01 -5.515527e+02
      vertex -9.526960e+01 4.521465e+01 -5.547498e+02
      vertex -8.311711e+01 4.305000e+01 -5.286039e+02
    endloop
  endfacet
  facet normal -4.164771e-01 5.791656e-01 7.007953e-01
    outer loop
      vertex -8.595000e+01 5.926648e+01 -5.608242e+02
      vertex -9.526960e+01 4.521465e+01 -5.547498e+02
      vertex -8.595000e+01 4.804792e+01 -5.515527e+02
    endloop
  endfacet
  facet normal -1.512959e-02 4.051915e-01 9.141066e-01
    outer loop
      vertex -8.595000e+01 5.926648e+01 -5.608242e+02
      vertex -9.254252e+01 5.944932e+01 -5.610144e+02
      vertex -9.526960e+01 4.521465e+01 -5.547498e+02
    endloop
  endfacet
  facet normal -2.803000e-01 9.580680e-01 5.947756e-02
    outer loop
      vertex -8.795000e+01 4.005000e+01 -5.030557e+02
      vertex -8.311711e+01 4.305000e+01 -5.286039e+02
      vertex -9.384044e+01 3.976088e+01 -5.261585e+02
    endloop
  endfacet
  facet normal -6.940705e-02 9.975748e-01 5.212436e-03
    outer loop
      vertex -8.795000e+01 4.005000e+01 -5.030557e+02
      vertex -9.384044e+01 3.976088e+01 -5.261585e+02
      vertex -9.395061e+01 3.963239e+01 -5.030333e+02
    endloop
  endfacet
  facet normal 1.032551e-01 9.744477e-01 1.994746e-01
    outer loop
      vertex -5.855255e+01 4.005000e+01 -5.266642e+02
      vertex -8.595000e+01 4.804792e+01 -5.515527e+02
      vertex -8.311711e+01 4.305000e+01 -5.286039e+02
    endloop
  endfacet
  facet normal 9.768496e-02 9.861177e-01 1.342738e-01
    outer loop
      vertex -5.855000e+01 3.640000e+01 -4.976385e+02
      vertex -8.311711e+01 4.305000e+01 -5.286039e+02
      vertex -8.795000e+01 4.005000e+01 -5.030557e+02
    endloop
  endfacet
  facet normal 1.106380e-01 9.860959e-01 1.239924e-01
    outer loop
      vertex -5.855000e+01 3.640000e+01 -4.976385e+02
      vertex -5.855255e+01 4.005000e+01 -5.266642e+02
      vertex -8.311711e+01 4.305000e+01 -5.286039e+02
    endloop
  endfacet
  facet normal 9.929601e-01 7.545711e-02 9.130375e-02
    outer loop
      vertex -8.595000e+01 5.926648e+01 -5.608242e+02
      vertex -8.595000e+01 4.804792e+01 -5.515527e+02
      vertex -8.395000e+01 4.874695e+01 -5.738811e+02
    endloop
  endfacet
  facet normal 2.497886e-01 9.668683e-01 5.264329e-02
    outer loop
      vertex -5.855255e+01 4.005000e+01 -5.346585e+02
      vertex -8.395000e+01 4.874695e+01 -5.738811e+02
      vertex -8.595000e+01 4.804792e+01 -5.515527e+02
    endloop
  endfacet
  facet normal 2.802261e-01 9.599340e-01 -2.273459e-15
    outer loop
      vertex -5.855255e+01 4.005000e+01 -5.266642e+02
      vertex -5.855255e+01 4.005000e+01 -5.346585e+02
      vertex -8.595000e+01 4.804792e+01 -5.515527e+02
    endloop
  endfacet
  facet normal -5.363113e-02 8.024899e-01 5.942505e-01
    outer loop
      vertex -7.172126e+01 3.270965e+01 -4.916785e+02
      vertex -8.795000e+01 4.005000e+01 -5.030557e+02
      vertex -9.395061e+01 3.963239e+01 -5.030333e+02
    endloop
  endfacet
  facet normal -1.883435e-01 6.304119e-01 7.530655e-01
    outer loop
      vertex -7.172126e+01 3.270965e+01 -4.916785e+02
      vertex -9.395061e+01 3.963239e+01 -5.030333e+02
      vertex -9.604159e+01 3.497624e+01 -4.996585e+02
    endloop
  endfacet
  facet normal -5.821959e-01 -2.771528e-02 8.125760e-01
    outer loop
      vertex -6.165000e+01 3.283050e+01 -4.844585e+02
      vertex -8.795000e+01 4.005000e+01 -5.030557e+02
      vertex -7.172126e+01 3.270965e+01 -4.916785e+02
    endloop
  endfacet
  facet normal 6.823203e-02 9.588129e-01 2.757212e-01
    outer loop
      vertex -6.165000e+01 3.283050e+01 -4.844585e+02
      vertex -5.855000e+01 3.640000e+01 -4.976385e+02
      vertex -8.795000e+01 4.005000e+01 -5.030557e+02
    endloop
  endfacet
  facet normal -1.824240e-01 9.171074e-01 3.544509e-01
    outer loop
      vertex -6.440881e+01 2.917076e+01 -4.787585e+02
      vertex -7.172126e+01 3.270965e+01 -4.916785e+02
      vertex -6.657729e+01 2.873942e+01 -4.787585e+02
    endloop
  endfacet
  facet normal -3.022127e-01 8.619223e-01 4.071331e-01
    outer loop
      vertex -6.165000e+01 3.283050e+01 -4.844585e+02
      vertex -7.172126e+01 3.270965e+01 -4.916785e+02
      vertex -6.440881e+01 2.917076e+01 -4.787585e+02
    endloop
  endfacet
  facet normal -1.861176e-03 7.358273e-01 -6.771667e-01
    outer loop
      vertex -8.595000e+01 6.224186e+01 -6.146548e+02
      vertex -9.254252e+01 5.383747e+01 -6.237691e+02
      vertex -9.254252e+01 6.236381e+01 -6.145042e+02
    endloop
  endfacet
  facet normal 8.501354e-03 9.259438e-01 -3.775657e-01
    outer loop
      vertex -8.595000e+01 6.940855e+01 -5.970792e+02
      vertex -8.595000e+01 6.224186e+01 -6.146548e+02
      vertex -9.254252e+01 6.236381e+01 -6.145042e+02
    endloop
  endfacet
  facet normal -3.938669e-01 8.942605e-01 -2.125256e-01
    outer loop
      vertex -8.595000e+01 6.940855e+01 -5.970792e+02
      vertex -9.254252e+01 6.236381e+01 -6.145042e+02
      vertex -9.471913e+01 6.569846e+01 -5.964388e+02
    endloop
  endfacet
  facet normal 1.357206e-03 7.346679e-01 -6.784256e-01
    outer loop
      vertex -8.595000e+01 5.378019e+01 -6.238179e+02
      vertex -9.254252e+01 5.383747e+01 -6.237691e+02
      vertex -8.595000e+01 6.224186e+01 -6.146548e+02
    endloop
  endfacet
  facet normal -3.838679e-01 9.203097e-01 7.533646e-02
    outer loop
      vertex -8.595000e+01 6.762545e+01 -5.752968e+02
      vertex -8.595000e+01 6.940855e+01 -5.970792e+02
      vertex -9.471913e+01 6.569846e+01 -5.964388e+02
    endloop
  endfacet
  facet normal -2.631555e-01 9.645196e-01 2.123882e-02
    outer loop
      vertex -8.595000e+01 6.762545e+01 -5.752968e+02
      vertex -9.471913e+01 6.569846e+01 -5.964388e+02
      vertex -9.386563e+01 6.548322e+01 -5.760890e+02
    endloop
  endfacet
  facet normal 4.416355e-01 6.053165e-02 -8.951503e-01
    outer loop
      vertex -7.025000e+01 5.028310e+01 -5.906266e+02
      vertex -8.395000e+01 4.874695e+01 -5.974896e+02
      vertex -8.595000e+01 6.940855e+01 -5.970792e+02
    endloop
  endfacet
  facet normal 7.630547e-01 6.441791e-01 5.273244e-02
    outer loop
      vertex -7.025000e+01 5.028310e+01 -5.906266e+02
      vertex -8.595000e+01 6.940855e+01 -5.970792e+02
      vertex -8.595000e+01 6.762545e+01 -5.752968e+02
    endloop
  endfacet
  facet normal 2.774849e-01 6.569895e-01 -7.009756e-01
    outer loop
      vertex -7.025000e+01 5.028310e+01 -5.906266e+02
      vertex -7.025000e+01 4.780768e+01 -5.929467e+02
      vertex -8.395000e+01 4.874695e+01 -5.974896e+02
    endloop
  endfacet
  facet normal -2.735557e-01 8.329119e-01 4.810665e-01
    outer loop
      vertex -8.595000e+01 5.926648e+01 -5.608242e+02
      vertex -8.595000e+01 6.762545e+01 -5.752968e+02
      vertex -9.386563e+01 6.548322e+01 -5.760890e+02
    endloop
  endfacet
  facet normal 1.507392e-02 9.287407e-01 3.704234e-01
    outer loop
      vertex -8.595000e+01 5.926648e+01 -5.608242e+02
      vertex -9.386563e+01 6.548322e+01 -5.760890e+02
      vertex -9.254252e+01 5.944932e+01 -5.610144e+02
    endloop
  endfacet
  facet normal 9.919223e-01 1.098423e-01 6.344181e-02
    outer loop
      vertex -8.595000e+01 5.926648e+01 -5.608242e+02
      vertex -8.395000e+01 4.874695e+01 -5.738811e+02
      vertex -8.595000e+01 6.762545e+01 -5.752968e+02
    endloop
  endfacet
  facet normal 6.566953e-02 8.153350e-02 9.945048e-01
    outer loop
      vertex -7.025000e+01 4.425134e+01 -5.744172e+02
      vertex -8.595000e+01 6.762545e+01 -5.752968e+02
      vertex -8.395000e+01 4.874695e+01 -5.738811e+02
    endloop
  endfacet
  facet normal 8.234962e-01 5.571528e-01 1.069334e-01
    outer loop
      vertex -7.025000e+01 4.780768e+01 -5.929467e+02
      vertex -8.595000e+01 6.762545e+01 -5.752968e+02
      vertex -7.025000e+01 4.425134e+01 -5.744172e+02
    endloop
  endfacet
  facet normal -4.291502e-02 -6.832141e-01 7.289560e-01
    outer loop
      vertex -7.025000e+01 5.028310e+01 -5.906266e+02
      vertex -8.595000e+01 6.762545e+01 -5.752968e+02
      vertex -7.025000e+01 4.780768e+01 -5.929467e+02
    endloop
  endfacet
  facet normal 3.120803e-01 9.500171e-01 8.571664e-03
    outer loop
      vertex -5.855255e+01 4.005000e+01 -5.346585e+02
      vertex -7.025000e+01 4.425134e+01 -5.744172e+02
      vertex -8.395000e+01 4.874695e+01 -5.738811e+02
    endloop
  endfacet
  facet normal 1.000000e+00 7.026829e-15 -5.244892e-15
    outer loop
      vertex -7.025000e+01 4.425134e+01 -5.744172e+02
      vertex -7.025000e+01 7.848661e+00 -5.744172e+02
      vertex -7.025000e+01 1.816905e+00 -5.906266e+02
    endloop
  endfacet
  facet normal 1.000000e+00 6.961663e-15 -5.074294e-15
    outer loop
      vertex -7.025000e+01 4.221365e+00 -5.929290e+02
      vertex -7.025000e+01 4.425134e+01 -5.744172e+02
      vertex -7.025000e+01 1.816905e+00 -5.906266e+02
    endloop
  endfacet
  facet normal 1.000000e+00 7.027766e-15 -5.601198e-15
    outer loop
      vertex -7.025000e+01 2.592821e+01 -5.720299e+02
      vertex -7.025000e+01 1.007016e+01 -5.716299e+02
      vertex -7.025000e+01 7.848661e+00 -5.744172e+02
    endloop
  endfacet
  facet normal 1.000000e+00 7.026829e-15 -5.594099e-15
    outer loop
      vertex -7.025000e+01 4.425134e+01 -5.744172e+02
      vertex -7.025000e+01 2.592821e+01 -5.720299e+02
      vertex -7.025000e+01 7.848661e+00 -5.744172e+02
    endloop
  endfacet
  facet normal 1.000000e+00 7.006465e-15 -6.445808e-15
    outer loop
      vertex -7.025000e+01 2.592821e+01 -5.720299e+02
      vertex -7.025000e+01 2.605000e+01 -5.652835e+02
      vertex -7.025000e+01 1.007016e+01 -5.716299e+02
    endloop
  endfacet
  facet normal 7.544339e-01 -6.562692e-01 1.184696e-02
    outer loop
      vertex -5.855255e+01 4.005000e+01 -5.346585e+02
      vertex -7.025000e+01 2.605000e+01 -5.652835e+02
      vertex -7.025000e+01 2.592821e+01 -5.720299e+02
    endloop
  endfacet
  facet normal -3.566651e-01 -8.560870e-01 3.740389e-01
    outer loop
      vertex -3.455000e+01 2.805000e+01 -5.266642e+02
      vertex -5.855255e+01 3.805000e+01 -5.266642e+02
      vertex -7.025000e+01 2.605000e+01 -5.652835e+02
    endloop
  endfacet
  facet normal -3.360091e-01 8.985219e-01 -2.824116e-01
    outer loop
      vertex -2.865000e+01 4.562660e+01 -5.524936e+02
      vertex -7.025000e+01 2.605000e+01 -5.652835e+02
      vertex -5.855255e+01 4.005000e+01 -5.346585e+02
    endloop
  endfacet
  facet normal -4.869270e-02 -9.941416e-01 9.649613e-02
    outer loop
      vertex -2.955000e+01 2.581491e+01 -5.471679e+02
      vertex -3.455000e+01 2.805000e+01 -5.266642e+02
      vertex -7.025000e+01 2.605000e+01 -5.652835e+02
    endloop
  endfacet
  facet normal 3.919216e-01 -2.553918e-01 -8.838396e-01
    outer loop
      vertex -2.865000e+01 4.562660e+01 -5.524936e+02
      vertex -2.955000e+01 2.581491e+01 -5.471679e+02
      vertex -7.025000e+01 2.605000e+01 -5.652835e+02
    endloop
  endfacet
  facet normal 9.576047e-01 -3.722058e-02 -2.856709e-01
    outer loop
      vertex -5.855255e+01 4.005000e+01 -5.346585e+02
      vertex -7.025000e+01 2.592821e+01 -5.720299e+02
      vertex -7.025000e+01 4.425134e+01 -5.744172e+02
    endloop
  endfacet
  facet normal 1.000000e+00 6.844862e-15 -4.821724e-15
    outer loop
      vertex -7.025000e+01 4.221365e+00 -5.929290e+02
      vertex -7.025000e+01 4.780768e+01 -5.929467e+02
      vertex -7.025000e+01 4.425134e+01 -5.744172e+02
    endloop
  endfacet
  facet normal 1.000000e+00 6.947327e-15 -5.495246e-15
    outer loop
      vertex -7.025000e+01 9.685888e+00 -6.075236e+02
      vertex -7.025000e+01 4.241411e+01 -6.075236e+02
      vertex -7.025000e+01 4.780768e+01 -5.929467e+02
    endloop
  endfacet
  facet normal 1.000000e+00 6.844697e-15 -5.226846e-15
    outer loop
      vertex -7.025000e+01 4.221365e+00 -5.929290e+02
      vertex -7.025000e+01 9.685888e+00 -6.075236e+02
      vertex -7.025000e+01 4.780768e+01 -5.929467e+02
    endloop
  endfacet
  facet normal 1.000000e+00 6.947327e-15 -4.365922e-15
    outer loop
      vertex -7.025000e+01 9.685888e+00 -6.075236e+02
      vertex -7.025000e+01 2.605000e+01 -6.140335e+02
      vertex -7.025000e+01 4.241411e+01 -6.075236e+02
    endloop
  endfacet
  facet normal -1.758890e-01 -9.276000e-01 -3.295776e-01
    outer loop
      vertex -2.915000e+01 -1.795000e+01 -5.030557e+02
      vertex -5.855000e+01 -1.430000e+01 -4.976385e+02
      vertex -5.855255e+01 -1.145000e+01 -5.056585e+02
    endloop
  endfacet
  facet normal 2.384773e-01 -9.217685e-01 3.057311e-01
    outer loop
      vertex -4.527601e+01 -6.494266e+00 -4.844585e+02
      vertex -6.165000e+01 -1.073050e+01 -4.844585e+02
      vertex -5.855000e+01 -1.430000e+01 -4.976385e+02
    endloop
  endfacet
  facet normal -1.084155e-02 -8.555483e-01 5.176095e-01
    outer loop
      vertex -4.527601e+01 -6.494266e+00 -4.844585e+02
      vertex -5.855000e+01 -1.430000e+01 -4.976385e+02
      vertex -2.915000e+01 -1.795000e+01 -5.030557e+02
    endloop
  endfacet
  facet normal -5.194311e-01 -1.737109e-01 -8.366695e-01
    outer loop
      vertex -2.955000e+01 2.999341e+00 -5.266642e+02
      vertex -5.855255e+01 -1.145000e+01 -5.056585e+02
      vertex -5.855255e+01 2.999341e+00 -5.086585e+02
    endloop
  endfacet
  facet normal -2.161652e-01 -9.763499e-01 3.662498e-03
    outer loop
      vertex -2.955000e+01 -1.795000e+01 -5.266642e+02
      vertex -2.915000e+01 -1.795000e+01 -5.030557e+02
      vertex -5.855255e+01 -1.145000e+01 -5.056585e+02
    endloop
  endfacet
  facet normal -5.865805e-01 -2.387419e-15 -8.098909e-01
    outer loop
      vertex -2.955000e+01 2.999341e+00 -5.266642e+02
      vertex -2.955000e+01 -1.795000e+01 -5.266642e+02
      vertex -5.855255e+01 -1.145000e+01 -5.056585e+02
    endloop
  endfacet
  facet normal -1.870127e-01 -4.488780e-01 -8.738048e-01
    outer loop
      vertex -3.455000e+01 2.805000e+01 -5.266642e+02
      vertex -5.855255e+01 2.999341e+00 -5.086585e+02
      vertex -5.855255e+01 3.805000e+01 -5.266642e+02
    endloop
  endfacet
  facet normal -5.245512e-01 -1.046981e-01 -8.449168e-01
    outer loop
      vertex -3.455000e+01 2.805000e+01 -5.266642e+02
      vertex -2.955000e+01 2.999341e+00 -5.266642e+02
      vertex -5.855255e+01 2.999341e+00 -5.086585e+02
    endloop
  endfacet
  facet normal 3.919364e-02 -8.259505e-01 5.623786e-01
    outer loop
      vertex -5.016499e+01 -6.304448e+00 -4.787585e+02
      vertex -6.409891e+01 -6.965651e+00 -4.787585e+02
      vertex -6.165000e+01 -1.073050e+01 -4.844585e+02
    endloop
  endfacet
  facet normal 2.431585e-01 -9.398624e-01 2.398594e-01
    outer loop
      vertex -4.527601e+01 -6.494266e+00 -4.844585e+02
      vertex -5.016499e+01 -6.304448e+00 -4.787585e+02
      vertex -6.165000e+01 -1.073050e+01 -4.844585e+02
    endloop
  endfacet
  facet normal 0.000000e+00 0.000000e+00 1.000000e+00
    outer loop
      vertex -7.590445e+01 1.943501e+01 -4.787585e+02
      vertex -7.670792e+01 4.056656e+00 -4.787585e+02
      vertex -6.693501e+01 -6.304448e+00 -4.787585e+02
    endloop
  endfacet
  facet normal 0.000000e+00 0.000000e+00 1.000000e+00
    outer loop
      vertex -6.657729e+01 2.873942e+01 -4.787585e+02
      vertex -6.693501e+01 -6.304448e+00 -4.787585e+02
      vertex -6.409891e+01 -6.965651e+00 -4.787585e+02
    endloop
  endfacet
  facet normal 0.000000e+00 0.000000e+00 1.000000e+00
    outer loop
      vertex -6.657729e+01 2.873942e+01 -4.787585e+02
      vertex -7.590445e+01 1.943501e+01 -4.787585e+02
      vertex -6.693501e+01 -6.304448e+00 -4.787585e+02
    endloop
  endfacet
  facet normal 0.000000e+00 0.000000e+00 1.000000e+00
    outer loop
      vertex -6.440881e+01 2.917076e+01 -4.787585e+02
      vertex -6.657729e+01 2.873942e+01 -4.787585e+02
      vertex -6.409891e+01 -6.965651e+00 -4.787585e+02
    endloop
  endfacet
  facet normal 0.000000e+00 0.000000e+00 1.000000e+00
    outer loop
      vertex -5.052271e+01 2.873942e+01 -4.787585e+02
      vertex -6.440881e+01 2.917076e+01 -4.787585e+02
      vertex -6.409891e+01 -6.965651e+00 -4.787585e+02
    endloop
  endfacet
  facet normal 0.000000e+00 0.000000e+00 1.000000e+00
    outer loop
      vertex -5.016499e+01 -6.304448e+00 -4.787585e+02
      vertex -5.052271e+01 2.873942e+01 -4.787585e+02
      vertex -6.409891e+01 -6.965651e+00 -4.787585e+02
    endloop
  endfacet
  facet normal 2.595096e-02 8.354431e-01 5.489640e-01
    outer loop
      vertex -6.165000e+01 3.283050e+01 -4.844585e+02
      vertex -6.440881e+01 2.917076e+01 -4.787585e+02
      vertex -5.052271e+01 2.873942e+01 -4.787585e+02
    endloop
  endfacet
  facet normal 0.000000e+00 0.000000e+00 1.000000e+00
    outer loop
      vertex -5.016499e+01 -6.304448e+00 -4.787585e+02
      vertex -4.119555e+01 1.943501e+01 -4.787585e+02
      vertex -5.052271e+01 2.873942e+01 -4.787585e+02
    endloop
  endfacet
  facet normal 6.128591e-01 6.143570e-01 4.969599e-01
    outer loop
      vertex -3.996892e+01 2.282216e+01 -4.844585e+02
      vertex -5.052271e+01 2.873942e+01 -4.787585e+02
      vertex -4.119555e+01 1.943501e+01 -4.787585e+02
    endloop
  endfacet
  facet normal 1.612766e-01 9.235178e-01 3.480011e-01
    outer loop
      vertex -4.537874e+01 3.270965e+01 -4.916785e+02
      vertex -6.165000e+01 3.283050e+01 -4.844585e+02
      vertex -5.052271e+01 2.873942e+01 -4.787585e+02
    endloop
  endfacet
  facet normal 6.085783e-01 6.574271e-01 4.443221e-01
    outer loop
      vertex -4.537874e+01 3.270965e+01 -4.916785e+02
      vertex -5.052271e+01 2.873942e+01 -4.787585e+02
      vertex -3.996892e+01 2.282216e+01 -4.844585e+02
    endloop
  endfacet
  facet normal 0.000000e+00 0.000000e+00 1.000000e+00
    outer loop
      vertex -5.016499e+01 -6.304448e+00 -4.787585e+02
      vertex -4.039208e+01 4.056656e+00 -4.787585e+02
      vertex -4.119555e+01 1.943501e+01 -4.787585e+02
    endloop
  endfacet
  facet normal 9.986379e-01 5.217549e-02 -3.364128e-16
    outer loop
      vertex -4.039208e+01 4.056656e+00 -4.794472e+02
      vertex -4.119555e+01 1.943501e+01 -4.787585e+02
      vertex -4.039208e+01 4.056656e+00 -4.787585e+02
    endloop
  endfacet
  facet normal 9.716269e-01 4.032633e-02 2.330557e-01
    outer loop
      vertex -3.996892e+01 2.282216e+01 -4.844585e+02
      vertex -4.119555e+01 1.943501e+01 -4.787585e+02
      vertex -4.039208e+01 4.056656e+00 -4.794472e+02
    endloop
  endfacet
  facet normal 6.108213e-01 -5.761450e-01 5.430970e-01
    outer loop
      vertex -4.527601e+01 -6.494266e+00 -4.844585e+02
      vertex -4.039208e+01 4.056656e+00 -4.787585e+02
      vertex -5.016499e+01 -6.304448e+00 -4.787585e+02
    endloop
  endfacet
  facet normal 9.074917e-01 -4.200699e-01 2.708492e-15
    outer loop
      vertex -4.039208e+01 4.056656e+00 -4.794472e+02
      vertex -4.039208e+01 4.056656e+00 -4.787585e+02
      vertex -4.527601e+01 -6.494266e+00 -4.844585e+02
    endloop
  endfacet
  facet normal -1.212190e-01 9.926258e-01 -5.315220e-15
    outer loop
      vertex -3.398646e+01 4.305000e+01 -5.286063e+02
      vertex -5.855255e+01 4.005000e+01 -5.346585e+02
      vertex -5.855255e+01 4.005000e+01 -5.266642e+02
    endloop
  endfacet
  facet normal -1.391601e-01 9.873940e-01 7.541630e-02
    outer loop
      vertex -2.865000e+01 4.562660e+01 -5.524936e+02
      vertex -5.855255e+01 4.005000e+01 -5.346585e+02
      vertex -3.398646e+01 4.305000e+01 -5.286063e+02
    endloop
  endfacet
  facet normal -9.968905e-02 9.872424e-01 1.241551e-01
    outer loop
      vertex -2.915000e+01 4.005000e+01 -5.030557e+02
      vertex -5.855255e+01 4.005000e+01 -5.266642e+02
      vertex -5.855000e+01 3.640000e+01 -4.976385e+02
    endloop
  endfacet
  facet normal -1.094615e-01 9.845981e-01 1.363259e-01
    outer loop
      vertex -2.915000e+01 4.005000e+01 -5.030557e+02
      vertex -3.398646e+01 4.305000e+01 -5.286063e+02
      vertex -5.855255e+01 4.005000e+01 -5.266642e+02
    endloop
  endfacet
  facet normal 1.350488e-01 9.479126e-01 2.884848e-01
    outer loop
      vertex -4.537874e+01 3.270965e+01 -4.916785e+02
      vertex -5.855000e+01 3.640000e+01 -4.976385e+02
      vertex -6.165000e+01 3.283050e+01 -4.844585e+02
    endloop
  endfacet
  facet normal -6.034097e-03 8.441735e-01 5.360361e-01
    outer loop
      vertex -4.537874e+01 3.270965e+01 -4.916785e+02
      vertex -2.915000e+01 4.005000e+01 -5.030557e+02
      vertex -5.855000e+01 3.640000e+01 -4.976385e+02
    endloop
  endfacet
  facet normal 4.967714e-01 -8.678406e-01 -8.416823e-03
    outer loop
      vertex -1.981955e+01 -1.260902e+01 -5.030583e+02
      vertex -2.915000e+01 -1.795000e+01 -5.030557e+02
      vertex -2.955000e+01 -1.795000e+01 -5.266642e+02
    endloop
  endfacet
  facet normal 2.248214e-01 -7.304521e-01 6.448992e-01
    outer loop
      vertex -2.027538e+01 -1.221920e+01 -4.996585e+02
      vertex -4.527601e+01 -6.494266e+00 -4.844585e+02
      vertex -2.915000e+01 -1.795000e+01 -5.030557e+02
    endloop
  endfacet
  facet normal 4.901087e-01 -8.561185e-01 1.638736e-01
    outer loop
      vertex -2.027538e+01 -1.221920e+01 -4.996585e+02
      vertex -2.915000e+01 -1.795000e+01 -5.030557e+02
      vertex -1.981955e+01 -1.260902e+01 -5.030583e+02
    endloop
  endfacet
  facet normal -1.000000e+00 -4.070063e-15 4.364056e-15
    outer loop
      vertex -2.955000e+01 2.999341e+00 -5.502727e+02
      vertex -2.955000e+01 -1.795000e+01 -5.266642e+02
      vertex -2.955000e+01 2.999341e+00 -5.266642e+02
    endloop
  endfacet
  facet normal -1.000000e+00 -3.602376e-15 4.779065e-15
    outer loop
      vertex -2.955000e+01 -1.723195e+01 -5.499114e+02
      vertex -2.955000e+01 -1.795000e+01 -5.266642e+02
      vertex -2.955000e+01 2.999341e+00 -5.502727e+02
    endloop
  endfacet
  facet normal 3.904886e-01 -9.201689e-01 -2.842180e-02
    outer loop
      vertex -2.070809e+01 -1.421341e+01 -5.261585e+02
      vertex -2.955000e+01 -1.795000e+01 -5.266642e+02
      vertex -2.955000e+01 -1.723195e+01 -5.499114e+02
    endloop
  endfacet
  facet normal 3.864132e-01 -9.210177e-01 4.910485e-02
    outer loop
      vertex -1.981955e+01 -1.260902e+01 -5.030583e+02
      vertex -2.955000e+01 -1.795000e+01 -5.266642e+02
      vertex -2.070809e+01 -1.421341e+01 -5.261585e+02
    endloop
  endfacet
  facet normal -9.806569e-01 -1.957347e-01 4.279641e-15
    outer loop
      vertex -2.955000e+01 2.999341e+00 -5.502727e+02
      vertex -2.955000e+01 2.999341e+00 -5.266642e+02
      vertex -3.455000e+01 2.805000e+01 -5.266642e+02
    endloop
  endfacet
  facet normal 5.024110e-01 -5.495887e-01 6.674844e-01
    outer loop
      vertex -1.431869e+01 3.344974e+00 -4.996585e+02
      vertex -4.039208e+01 4.056656e+00 -4.794472e+02
      vertex -4.527601e+01 -6.494266e+00 -4.844585e+02
    endloop
  endfacet
  facet normal 4.796438e-01 -1.835683e-01 8.580469e-01
    outer loop
      vertex -2.027538e+01 -1.221920e+01 -4.996585e+02
      vertex -1.431869e+01 3.344974e+00 -4.996585e+02
      vertex -4.527601e+01 -6.494266e+00 -4.844585e+02
    endloop
  endfacet
  facet normal 5.297483e-01 2.076568e-01 8.223414e-01
    outer loop
      vertex -1.583702e+01 2.145335e+01 -4.996585e+02
      vertex -3.996892e+01 2.282216e+01 -4.844585e+02
      vertex -4.039208e+01 4.056656e+00 -4.794472e+02
    endloop
  endfacet
  facet normal 6.127209e-01 5.137458e-02 7.886277e-01
    outer loop
      vertex -1.583702e+01 2.145335e+01 -4.996585e+02
      vertex -4.039208e+01 4.056656e+00 -4.794472e+02
      vertex -1.431869e+01 3.344974e+00 -4.996585e+02
    endloop
  endfacet
  facet normal -9.701856e-01 3.267955e-02 -2.401499e-01
    outer loop
      vertex -2.955000e+01 2.999341e+00 -5.502727e+02
      vertex -3.455000e+01 2.805000e+01 -5.266642e+02
      vertex -2.955000e+01 2.581491e+01 -5.471679e+02
    endloop
  endfacet
  facet normal 1.839015e-01 6.433096e-01 7.431911e-01
    outer loop
      vertex -2.105841e+01 3.497624e+01 -4.996585e+02
      vertex -4.537874e+01 3.270965e+01 -4.916785e+02
      vertex -3.996892e+01 2.282216e+01 -4.844585e+02
    endloop
  endfacet
  facet normal 5.299661e-01 2.046279e-01 8.229601e-01
    outer loop
      vertex -2.105841e+01 3.497624e+01 -4.996585e+02
      vertex -3.996892e+01 2.282216e+01 -4.844585e+02
      vertex -1.583702e+01 2.145335e+01 -4.996585e+02
    endloop
  endfacet
  facet normal -9.984109e-01 5.150344e-02 2.287050e-02
    outer loop
      vertex -3.015000e+01 2.586074e+01 -5.734641e+02
      vertex -2.955000e+01 2.581491e+01 -5.471679e+02
      vertex -2.865000e+01 4.562660e+01 -5.524936e+02
    endloop
  endfacet
  facet normal -9.992607e-01 5.183787e-03 -3.809372e-02
    outer loop
      vertex -2.955000e+01 2.999341e+00 -5.502727e+02
      vertex -2.955000e+01 2.581491e+01 -5.471679e+02
      vertex -2.865000e+01 2.999341e+00 -5.738811e+02
    endloop
  endfacet
  facet normal -9.975714e-01 -6.586654e-02 2.264679e-02
    outer loop
      vertex -3.015000e+01 2.586074e+01 -5.734641e+02
      vertex -2.865000e+01 2.999341e+00 -5.738811e+02
      vertex -2.955000e+01 2.581491e+01 -5.471679e+02
    endloop
  endfacet
  facet normal 2.573192e-01 9.529423e-01 1.602742e-01
    outer loop
      vertex -2.323861e+01 3.973611e+01 -5.261585e+02
      vertex -2.865000e+01 4.562660e+01 -5.524936e+02
      vertex -3.398646e+01 4.305000e+01 -5.286063e+02
    endloop
  endfacet
  facet normal 5.794270e-02 9.927200e-01 1.055916e-01
    outer loop
      vertex -2.320532e+01 3.970212e+01 -5.030472e+02
      vertex -3.398646e+01 4.305000e+01 -5.286063e+02
      vertex -2.915000e+01 4.005000e+01 -5.030557e+02
    endloop
  endfacet
  facet normal 2.944383e-01 9.556700e-01 9.817494e-04
    outer loop
      vertex -2.320532e+01 3.970212e+01 -5.030472e+02
      vertex -2.323861e+01 3.973611e+01 -5.261585e+02
      vertex -3.398646e+01 4.305000e+01 -5.286063e+02
    endloop
  endfacet
  facet normal -1.000000e+00 -5.131457e-15 4.566899e-15
    outer loop
      vertex -2.865000e+01 4.874695e+01 -5.738811e+02
      vertex -2.865000e+01 4.562660e+01 -5.524936e+02
      vertex -2.865000e+01 5.331784e+01 -5.632997e+02
    endloop
  endfacet
  facet normal -2.083917e-08 8.147105e-01 5.798679e-01
    outer loop
      vertex -2.455748e+01 5.331784e+01 -5.632997e+02
      vertex -2.865000e+01 5.331784e+01 -5.632997e+02
      vertex -2.865000e+01 4.562660e+01 -5.524936e+02
    endloop
  endfacet
  facet normal -9.978020e-01 6.557193e-02 9.566654e-03
    outer loop
      vertex -3.015000e+01 2.586074e+01 -5.734641e+02
      vertex -2.865000e+01 4.562660e+01 -5.524936e+02
      vertex -2.865000e+01 4.874695e+01 -5.738811e+02
    endloop
  endfacet
  facet normal 3.794765e-01 9.164422e-01 1.270089e-01
    outer loop
      vertex -2.323861e+01 3.973611e+01 -5.261585e+02
      vertex -2.306605e+01 4.352201e+01 -5.539915e+02
      vertex -2.865000e+01 4.562660e+01 -5.524936e+02
    endloop
  endfacet
  facet normal 4.163849e-01 6.587943e-01 6.265890e-01
    outer loop
      vertex -2.455748e+01 5.331784e+01 -5.632997e+02
      vertex -2.865000e+01 4.562660e+01 -5.524936e+02
      vertex -2.306605e+01 4.352201e+01 -5.539915e+02
    endloop
  endfacet
  facet normal 1.584338e-01 7.112349e-01 6.848676e-01
    outer loop
      vertex -2.105841e+01 3.497624e+01 -4.996585e+02
      vertex -2.915000e+01 4.005000e+01 -5.030557e+02
      vertex -4.537874e+01 3.270965e+01 -4.916785e+02
    endloop
  endfacet
  facet normal 3.351204e-02 5.924079e-01 8.049409e-01
    outer loop
      vertex -2.105841e+01 3.497624e+01 -4.996585e+02
      vertex -2.320532e+01 3.970212e+01 -5.030472e+02
      vertex -2.915000e+01 4.005000e+01 -5.030557e+02
    endloop
  endfacet
  facet normal -1.000000e+00 -3.773600e-15 4.246954e-15
    outer loop
      vertex -2.865000e+01 9.764098e-01 -5.982255e+02
      vertex -2.865000e+01 3.889373e+00 -6.198967e+02
      vertex -2.865000e+01 -4.831519e+00 -6.109149e+02
    endloop
  endfacet
  facet normal 5.441614e-01 -6.019256e-01 -5.844432e-01
    outer loop
      vertex -2.204989e+01 6.471632e+00 -6.164110e+02
      vertex -2.865000e+01 -4.831519e+00 -6.109149e+02
      vertex -2.865000e+01 3.889373e+00 -6.198967e+02
    endloop
  endfacet
  facet normal -1.000000e+00 -3.711473e-15 4.218519e-15
    outer loop
      vertex -2.865000e+01 -1.089425e+01 -5.960368e+02
      vertex -2.865000e+01 9.764098e-01 -5.982255e+02
      vertex -2.865000e+01 -4.831519e+00 -6.109149e+02
    endloop
  endfacet
  facet normal -3.027868e-04 -9.260643e-01 -3.773657e-01
    outer loop
      vertex -2.455748e+01 -1.089419e+01 -5.960402e+02
      vertex -2.865000e+01 -1.089425e+01 -5.960368e+02
      vertex -2.865000e+01 -4.831519e+00 -6.109149e+02
    endloop
  endfacet
  facet normal -3.711660e-04 -4.371118e-01 -8.994071e-01
    outer loop
      vertex -2.204989e+01 6.471632e+00 -6.164110e+02
      vertex -2.455748e+01 -4.830140e+00 -6.109173e+02
      vertex -2.865000e+01 -4.831519e+00 -6.109149e+02
    endloop
  endfacet
  facet normal 9.432161e-05 -9.260261e-01 -3.774594e-01
    outer loop
      vertex -2.455748e+01 -1.089419e+01 -5.960402e+02
      vertex -2.865000e+01 -4.831519e+00 -6.109149e+02
      vertex -2.455748e+01 -4.830140e+00 -6.109173e+02
    endloop
  endfacet
  facet normal -9.991893e-01 -3.989854e-02 -5.363030e-03
    outer loop
      vertex -2.962466e+01 2.559436e+01 -5.997825e+02
      vertex -2.865000e+01 3.889373e+00 -6.198967e+02
      vertex -2.865000e+01 9.764098e-01 -5.982255e+02
    endloop
  endfacet
  facet normal 5.463435e-01 -4.122988e-01 -7.290531e-01
    outer loop
      vertex -2.865000e+01 1.155530e+01 -6.242320e+02
      vertex -2.204989e+01 6.471632e+00 -6.164110e+02
      vertex -2.865000e+01 3.889373e+00 -6.198967e+02
    endloop
  endfacet
  facet normal -1.000000e+00 -3.792545e-15 4.766609e-15
    outer loop
      vertex -2.865000e+01 4.062565e+01 -6.242075e+02
      vertex -2.865000e+01 1.155530e+01 -6.242320e+02
      vertex -2.865000e+01 3.889373e+00 -6.198967e+02
    endloop
  endfacet
  facet normal -1.000000e+00 -3.851073e-15 4.267842e-15
    outer loop
      vertex -2.865000e+01 4.800046e+01 -6.200502e+02
      vertex -2.865000e+01 4.062565e+01 -6.242075e+02
      vertex -2.865000e+01 3.889373e+00 -6.198967e+02
    endloop
  endfacet
  facet normal -1.000000e+00 -3.857020e-15 2.559226e-15
    outer loop
      vertex -2.865000e+01 2.593190e+01 -6.186049e+02
      vertex -2.865000e+01 4.800046e+01 -6.200502e+02
      vertex -2.865000e+01 3.889373e+00 -6.198967e+02
    endloop
  endfacet
  facet normal -9.986602e-01 3.027463e-03 -5.165846e-02
    outer loop
      vertex -2.962466e+01 2.559436e+01 -5.997825e+02
      vertex -2.865000e+01 2.593190e+01 -6.186049e+02
      vertex -2.865000e+01 3.889373e+00 -6.198967e+02
    endloop
  endfacet
  facet normal -1.000000e+00 -3.705997e-15 4.248217e-15
    outer loop
      vertex -2.865000e+01 -1.089425e+01 -5.960368e+02
      vertex -2.865000e+01 2.999341e+00 -5.738811e+02
      vertex -2.865000e+01 9.764098e-01 -5.982255e+02
    endloop
  endfacet
  facet normal -9.978331e-01 -6.556999e-02 5.448630e-03
    outer loop
      vertex -3.015000e+01 2.586074e+01 -5.734641e+02
      vertex -2.865000e+01 9.764098e-01 -5.982255e+02
      vertex -2.865000e+01 2.999341e+00 -5.738811e+02
    endloop
  endfacet
  facet normal -9.989771e-01 -4.078600e-02 -1.952769e-02
    outer loop
      vertex -3.015000e+01 2.586074e+01 -5.734641e+02
      vertex -2.962466e+01 2.559436e+01 -5.997825e+02
      vertex -2.865000e+01 9.764098e-01 -5.982255e+02
    endloop
  endfacet
  facet normal -9.985324e-01 4.588229e-02 -2.877228e-02
    outer loop
      vertex -2.955000e+01 -1.431764e+01 -5.702618e+02
      vertex -2.865000e+01 2.999341e+00 -5.738811e+02
      vertex -2.865000e+01 -1.089425e+01 -5.960368e+02
    endloop
  endfacet
  facet normal -9.983095e-01 4.393005e-02 -3.805746e-02
    outer loop
      vertex -2.955000e+01 2.999341e+00 -5.502727e+02
      vertex -2.865000e+01 2.999341e+00 -5.738811e+02
      vertex -2.955000e+01 -1.431764e+01 -5.702618e+02
    endloop
  endfacet
  facet normal -6.290244e-05 -9.958054e-01 -9.149599e-02
    outer loop
      vertex -2.394702e+01 -1.301638e+01 -5.729437e+02
      vertex -2.865000e+01 -1.089425e+01 -5.960368e+02
      vertex -2.455748e+01 -1.089419e+01 -5.960402e+02
    endloop
  endfacet
  facet normal 1.677628e-01 -9.779930e-01 -1.240373e-01
    outer loop
      vertex -2.394702e+01 -1.301638e+01 -5.729437e+02
      vertex -2.955000e+01 -1.431764e+01 -5.702618e+02
      vertex -2.865000e+01 -1.089425e+01 -5.960368e+02
    endloop
  endfacet
  facet normal 9.404095e-01 -2.927474e-01 -1.729996e-01
    outer loop
      vertex -2.204989e+01 6.471632e+00 -6.164110e+02
      vertex -1.965000e+01 2.999341e+00 -5.974896e+02
      vertex -2.455748e+01 -4.830140e+00 -6.109173e+02
    endloop
  endfacet
  facet normal 9.289959e-01 -3.427130e-01 -1.396940e-01
    outer loop
      vertex -2.455748e+01 -1.089419e+01 -5.960402e+02
      vertex -2.455748e+01 -4.830140e+00 -6.109173e+02
      vertex -1.965000e+01 2.999341e+00 -5.974896e+02
    endloop
  endfacet
  facet normal 9.499894e-01 -2.627833e-01 -1.687159e-01
    outer loop
      vertex -1.327924e+01 2.598102e+01 -5.974128e+02
      vertex -1.965000e+01 2.999341e+00 -5.974896e+02
      vertex -2.204989e+01 6.471632e+00 -6.164110e+02
    endloop
  endfacet
  facet normal 9.164083e-01 -3.448820e-01 -2.031064e-01
    outer loop
      vertex -1.407548e+01 3.732596e+00 -5.735827e+02
      vertex -2.455748e+01 -1.089419e+01 -5.960402e+02
      vertex -1.965000e+01 2.999341e+00 -5.974896e+02
    endloop
  endfacet
  facet normal 9.738744e-01 -1.402642e-02 -2.266538e-01
    outer loop
      vertex -1.388179e+01 2.556362e+01 -5.741014e+02
      vertex -1.407548e+01 3.732596e+00 -5.735827e+02
      vertex -1.965000e+01 2.999341e+00 -5.974896e+02
    endloop
  endfacet
  facet normal 9.634464e-01 -2.671446e-01 2.011960e-02
    outer loop
      vertex -1.388179e+01 2.556362e+01 -5.741014e+02
      vertex -1.965000e+01 2.999341e+00 -5.974896e+02
      vertex -1.327924e+01 2.598102e+01 -5.974128e+02
    endloop
  endfacet
  facet normal 4.363471e-04 -8.382739e-01 -5.452492e-01
    outer loop
      vertex -2.455748e+01 1.155836e+01 -6.242334e+02
      vertex -2.204989e+01 6.471632e+00 -6.164110e+02
      vertex -2.865000e+01 1.155530e+01 -6.242320e+02
    endloop
  endfacet
  facet normal 9.059584e-01 -1.576364e-01 -3.929251e-01
    outer loop
      vertex -1.965000e+01 2.584933e+01 -6.186517e+02
      vertex -2.204989e+01 6.471632e+00 -6.164110e+02
      vertex -2.455748e+01 1.155836e+01 -6.242334e+02
    endloop
  endfacet
  facet normal 9.472469e-01 -1.500625e-01 -2.832041e-01
    outer loop
      vertex -1.327924e+01 2.598102e+01 -5.974128e+02
      vertex -2.204989e+01 6.471632e+00 -6.164110e+02
      vertex -1.965000e+01 2.584933e+01 -6.186517e+02
    endloop
  endfacet
  facet normal 8.582642e-01 -5.084932e-01 -6.940653e-02
    outer loop
      vertex -2.394702e+01 -1.301638e+01 -5.729437e+02
      vertex -2.455748e+01 -1.089419e+01 -5.960402e+02
      vertex -1.407548e+01 3.732596e+00 -5.735827e+02
    endloop
  endfacet
  facet normal 2.054826e-01 -9.776232e-01 -4.505339e-02
    outer loop
      vertex -2.256249e+01 -1.380837e+01 -5.494435e+02
      vertex -2.955000e+01 -1.431764e+01 -5.702618e+02
      vertex -2.394702e+01 -1.301638e+01 -5.729437e+02
    endloop
  endfacet
  facet normal -1.000000e+00 -3.612782e-15 4.196216e-15
    outer loop
      vertex -2.955000e+01 -1.723195e+01 -5.499114e+02
      vertex -2.955000e+01 2.999341e+00 -5.502727e+02
      vertex -2.955000e+01 -1.431764e+01 -5.702618e+02
    endloop
  endfacet
  facet normal 4.432677e-01 -8.873366e-01 -1.270727e-01
    outer loop
      vertex -2.256249e+01 -1.380837e+01 -5.494435e+02
      vertex -2.955000e+01 -1.723195e+01 -5.499114e+02
      vertex -2.955000e+01 -1.431764e+01 -5.702618e+02
    endloop
  endfacet
  facet normal 8.608923e-01 -5.082696e-01 -2.294504e-02
    outer loop
      vertex -1.371972e+01 3.282855e+00 -5.502724e+02
      vertex -2.394702e+01 -1.301638e+01 -5.729437e+02
      vertex -1.407548e+01 3.732596e+00 -5.735827e+02
    endloop
  endfacet
  facet normal 9.987698e-01 4.747212e-02 -1.432701e-02
    outer loop
      vertex -1.456421e+01 2.105000e+01 -5.502727e+02
      vertex -1.371972e+01 3.282855e+00 -5.502724e+02
      vertex -1.407548e+01 3.732596e+00 -5.735827e+02
    endloop
  endfacet
  facet normal 9.995997e-01 -8.225448e-03 2.706906e-02
    outer loop
      vertex -1.456421e+01 2.105000e+01 -5.502727e+02
      vertex -1.407548e+01 3.732596e+00 -5.735827e+02
      vertex -1.388179e+01 2.556362e+01 -5.741014e+02
    endloop
  endfacet
  facet normal 8.847862e-01 -4.610582e-01 -6.766588e-02
    outer loop
      vertex -2.256249e+01 -1.380837e+01 -5.494435e+02
      vertex -2.394702e+01 -1.301638e+01 -5.729437e+02
      vertex -1.371972e+01 3.282855e+00 -5.502724e+02
    endloop
  endfacet
  facet normal 4.421575e-01 -8.954982e-01 -5.079042e-02
    outer loop
      vertex -2.070809e+01 -1.421341e+01 -5.261585e+02
      vertex -2.955000e+01 -1.723195e+01 -5.499114e+02
      vertex -2.256249e+01 -1.380837e+01 -5.494435e+02
    endloop
  endfacet
  facet normal 8.881718e-01 -4.595114e-01 3.468164e-04
    outer loop
      vertex -1.371454e+01 3.310692e+00 -5.266643e+02
      vertex -2.256249e+01 -1.380837e+01 -5.494435e+02
      vertex -1.371972e+01 3.282855e+00 -5.502724e+02
    endloop
  endfacet
  facet normal 9.976183e-01 6.897622e-02 -3.003757e-04
    outer loop
      vertex -1.520528e+01 2.487388e+01 -5.261585e+02
      vertex -1.371454e+01 3.310692e+00 -5.266643e+02
      vertex -1.371972e+01 3.282855e+00 -5.502724e+02
    endloop
  endfacet
  facet normal 9.986916e-01 4.746899e-02 1.902285e-02
    outer loop
      vertex -1.520528e+01 2.487388e+01 -5.261585e+02
      vertex -1.371972e+01 3.282855e+00 -5.502724e+02
      vertex -1.456421e+01 2.105000e+01 -5.502727e+02
    endloop
  endfacet
  facet normal 9.249858e-01 -3.714578e-01 -8.012679e-02
    outer loop
      vertex -2.070809e+01 -1.421341e+01 -5.261585e+02
      vertex -2.256249e+01 -1.380837e+01 -5.494435e+02
      vertex -1.371454e+01 3.310692e+00 -5.266643e+02
    endloop
  endfacet
  facet normal 9.287644e-01 -3.706701e-01 -5.892106e-04
    outer loop
      vertex -1.372598e+01 3.244504e+00 -5.030561e+02
      vertex -2.070809e+01 -1.421341e+01 -5.261585e+02
      vertex -1.371454e+01 3.310692e+00 -5.266643e+02
    endloop
  endfacet
  facet normal 9.976910e-01 6.791398e-02 6.738099e-04
    outer loop
      vertex -1.519755e+01 2.486268e+01 -5.030536e+02
      vertex -1.372598e+01 3.244504e+00 -5.030561e+02
      vertex -1.371454e+01 3.310692e+00 -5.266643e+02
    endloop
  endfacet
  facet normal 9.976183e-01 6.897622e-02 -3.003757e-04
    outer loop
      vertex -1.519755e+01 2.486268e+01 -5.030536e+02
      vertex -1.371454e+01 3.310692e+00 -5.266643e+02
      vertex -1.520528e+01 2.487388e+01 -5.261585e+02
    endloop
  endfacet
  facet normal 9.333673e-01 -3.587544e-01 -1.098467e-02
    outer loop
      vertex -1.981955e+01 -1.260902e+01 -5.030583e+02
      vertex -2.070809e+01 -1.421341e+01 -5.261585e+02
      vertex -1.372598e+01 3.244504e+00 -5.030561e+02
    endloop
  endfacet
  facet normal 9.196836e-01 -3.535204e-01 1.708959e-01
    outer loop
      vertex -1.431869e+01 3.344974e+00 -4.996585e+02
      vertex -1.981955e+01 -1.260902e+01 -5.030583e+02
      vertex -1.372598e+01 3.244504e+00 -5.030561e+02
    endloop
  endfacet
  facet normal 9.821850e-01 8.235290e-02 1.689102e-01
    outer loop
      vertex -1.583702e+01 2.145335e+01 -4.996585e+02
      vertex -1.431869e+01 3.344974e+00 -4.996585e+02
      vertex -1.372598e+01 3.244504e+00 -5.030561e+02
    endloop
  endfacet
  facet normal 9.665044e-01 6.576245e-02 2.480817e-01
    outer loop
      vertex -1.583702e+01 2.145335e+01 -4.996585e+02
      vertex -1.372598e+01 3.244504e+00 -5.030561e+02
      vertex -1.519755e+01 2.486268e+01 -5.030536e+02
    endloop
  endfacet
  facet normal 9.213002e-01 -3.525981e-01 1.639525e-01
    outer loop
      vertex -2.027538e+01 -1.221920e+01 -4.996585e+02
      vertex -1.981955e+01 -1.260902e+01 -5.030583e+02
      vertex -1.431869e+01 3.344974e+00 -4.996585e+02
    endloop
  endfacet
  facet normal -1.000000e+00 -3.792160e-15 4.309589e-15
    outer loop
      vertex -2.865000e+01 4.062565e+01 -6.242075e+02
      vertex -2.865000e+01 2.604051e+01 -6.271490e+02
      vertex -2.865000e+01 1.155530e+01 -6.242320e+02
    endloop
  endfacet
  facet normal -1.420162e-04 -1.974190e-01 -9.803192e-01
    outer loop
      vertex -2.455748e+01 2.603786e+01 -6.271491e+02
      vertex -2.865000e+01 1.155530e+01 -6.242320e+02
      vertex -2.865000e+01 2.604051e+01 -6.271490e+02
    endloop
  endfacet
  facet normal -1.926638e-04 -1.974053e-01 -9.803220e-01
    outer loop
      vertex -2.455748e+01 2.603786e+01 -6.271491e+02
      vertex -2.455748e+01 1.155836e+01 -6.242334e+02
      vertex -2.865000e+01 1.155530e+01 -6.242320e+02
    endloop
  endfacet
  facet normal -8.398519e-05 1.976971e-01 -9.802632e-01
    outer loop
      vertex -2.455748e+01 4.062572e+01 -6.242079e+02
      vertex -2.865000e+01 2.604051e+01 -6.271490e+02
      vertex -2.865000e+01 4.062565e+01 -6.242075e+02
    endloop
  endfacet
  facet normal 1.133702e-04 1.976439e-01 -9.802739e-01
    outer loop
      vertex -2.455748e+01 4.062572e+01 -6.242079e+02
      vertex -2.455748e+01 2.603786e+01 -6.271491e+02
      vertex -2.865000e+01 2.604051e+01 -6.271490e+02
    endloop
  endfacet
  facet normal 5.554886e-01 4.083347e-01 -7.243585e-01
    outer loop
      vertex -2.195912e+01 4.539330e+01 -6.163889e+02
      vertex -2.865000e+01 4.062565e+01 -6.242075e+02
      vertex -2.865000e+01 4.800046e+01 -6.200502e+02
    endloop
  endfacet
  facet normal -5.726204e-05 8.538090e-01 -5.205864e-01
    outer loop
      vertex -2.455748e+01 4.062572e+01 -6.242079e+02
      vertex -2.865000e+01 4.062565e+01 -6.242075e+02
      vertex -2.195912e+01 4.539330e+01 -6.163889e+02
    endloop
  endfacet
  facet normal -1.000000e+00 -3.759512e-15 4.048041e-15
    outer loop
      vertex -2.865000e+01 2.593190e+01 -6.186049e+02
      vertex -2.865000e+01 5.700966e+01 -6.108055e+02
      vertex -2.865000e+01 4.800046e+01 -6.200502e+02
    endloop
  endfacet
  facet normal -8.197859e-05 7.161697e-01 -6.979261e-01
    outer loop
      vertex -2.455748e+01 5.700994e+01 -6.108057e+02
      vertex -2.865000e+01 4.800046e+01 -6.200502e+02
      vertex -2.865000e+01 5.700966e+01 -6.108055e+02
    endloop
  endfacet
  facet normal 5.573939e-01 4.576214e-01 -6.927444e-01
    outer loop
      vertex -2.455748e+01 5.700994e+01 -6.108057e+02
      vertex -2.195912e+01 4.539330e+01 -6.163889e+02
      vertex -2.865000e+01 4.800046e+01 -6.200502e+02
    endloop
  endfacet
  facet normal -1.000000e+00 -3.766186e-15 3.908971e-15
    outer loop
      vertex -2.865000e+01 5.108225e+01 -5.983392e+02
      vertex -2.865000e+01 6.301188e+01 -5.959339e+02
      vertex -2.865000e+01 5.700966e+01 -6.108055e+02
    endloop
  endfacet
  facet normal -8.061378e-05 9.273200e-01 -3.742694e-01
    outer loop
      vertex -2.455748e+01 5.700994e+01 -6.108057e+02
      vertex -2.865000e+01 5.700966e+01 -6.108055e+02
      vertex -2.865000e+01 6.301188e+01 -5.959339e+02
    endloop
  endfacet
  facet normal -1.000000e+00 -3.729043e-15 3.926632e-15
    outer loop
      vertex -2.865000e+01 2.593190e+01 -6.186049e+02
      vertex -2.865000e+01 5.108225e+01 -5.983392e+02
      vertex -2.865000e+01 5.700966e+01 -6.108055e+02
    endloop
  endfacet
  facet normal -1.000000e+00 -3.864851e-15 3.944027e-15
    outer loop
      vertex -2.865000e+01 4.874695e+01 -5.738811e+02
      vertex -2.865000e+01 6.154330e+01 -5.775558e+02
      vertex -2.865000e+01 6.301188e+01 -5.959339e+02
    endloop
  endfacet
  facet normal -1.248604e-15 9.968225e-01 7.965529e-02
    outer loop
      vertex -2.455748e+01 6.154330e+01 -5.775558e+02
      vertex -2.865000e+01 6.301188e+01 -5.959339e+02
      vertex -2.865000e+01 6.154330e+01 -5.775558e+02
    endloop
  endfacet
  facet normal -1.000000e+00 -3.783822e-15 3.996441e-15
    outer loop
      vertex -2.865000e+01 5.108225e+01 -5.983392e+02
      vertex -2.865000e+01 4.874695e+01 -5.738811e+02
      vertex -2.865000e+01 6.301188e+01 -5.959339e+02
    endloop
  endfacet
  facet normal -8.112790e-05 9.273200e-01 -3.742695e-01
    outer loop
      vertex -2.455748e+01 5.700994e+01 -6.108057e+02
      vertex -2.865000e+01 6.301188e+01 -5.959339e+02
      vertex -2.455748e+01 6.301222e+01 -5.959340e+02
    endloop
  endfacet
  facet normal -8.013617e-05 9.968210e-01 7.967303e-02
    outer loop
      vertex -2.455748e+01 6.154330e+01 -5.775558e+02
      vertex -2.455748e+01 6.301222e+01 -5.959340e+02
      vertex -2.865000e+01 6.301188e+01 -5.959339e+02
    endloop
  endfacet
  facet normal -1.000000e+00 -3.845503e-15 4.011402e-15
    outer loop
      vertex -2.865000e+01 4.874695e+01 -5.738811e+02
      vertex -2.865000e+01 5.331784e+01 -5.632997e+02
      vertex -2.865000e+01 6.154330e+01 -5.775558e+02
    endloop
  endfacet
  facet normal 1.087524e-14 8.661642e-01 4.997596e-01
    outer loop
      vertex -2.455748e+01 6.154330e+01 -5.775558e+02
      vertex -2.865000e+01 6.154330e+01 -5.775558e+02
      vertex -2.865000e+01 5.331784e+01 -5.632997e+02
    endloop
  endfacet
  facet normal -1.288268e-08 8.661642e-01 4.997595e-01
    outer loop
      vertex -2.455748e+01 5.331784e+01 -5.632997e+02
      vertex -2.455748e+01 6.154330e+01 -5.775558e+02
      vertex -2.865000e+01 5.331784e+01 -5.632997e+02
    endloop
  endfacet
  facet normal -9.992709e-01 3.800673e-02 3.628962e-03
    outer loop
      vertex -2.962466e+01 2.559436e+01 -5.997825e+02
      vertex -2.865000e+01 4.874695e+01 -5.738811e+02
      vertex -2.865000e+01 5.108225e+01 -5.983392e+02
    endloop
  endfacet
  facet normal -9.976723e-01 6.501423e-02 -2.057251e-02
    outer loop
      vertex -3.015000e+01 2.586074e+01 -5.734641e+02
      vertex -2.865000e+01 4.874695e+01 -5.738811e+02
      vertex -2.962466e+01 2.559436e+01 -5.997825e+02
    endloop
  endfacet
  facet normal -9.978583e-01 4.104265e-02 -5.093521e-02
    outer loop
      vertex -2.962466e+01 2.559436e+01 -5.997825e+02
      vertex -2.865000e+01 5.108225e+01 -5.983392e+02
      vertex -2.865000e+01 2.593190e+01 -6.186049e+02
    endloop
  endfacet
  facet normal 8.606047e-01 -1.005333e-01 -4.992521e-01
    outer loop
      vertex -2.455748e+01 2.603786e+01 -6.271491e+02
      vertex -1.965000e+01 2.584933e+01 -6.186517e+02
      vertex -2.455748e+01 1.155836e+01 -6.242334e+02
    endloop
  endfacet
  facet normal 8.565865e-01 1.580760e-01 -4.911940e-01
    outer loop
      vertex -2.195912e+01 4.539330e+01 -6.163889e+02
      vertex -1.965000e+01 2.584933e+01 -6.186517e+02
      vertex -2.455748e+01 2.603786e+01 -6.271491e+02
    endloop
  endfacet
  facet normal 9.249923e-01 2.579065e-01 -2.790582e-01
    outer loop
      vertex -1.965000e+01 4.874695e+01 -5.974896e+02
      vertex -1.327924e+01 2.598102e+01 -5.974128e+02
      vertex -1.965000e+01 2.584933e+01 -6.186517e+02
    endloop
  endfacet
  facet normal 9.807676e-01 1.324734e-01 -1.433379e-01
    outer loop
      vertex -1.965000e+01 4.874695e+01 -5.974896e+02
      vertex -1.965000e+01 2.584933e+01 -6.186517e+02
      vertex -2.195912e+01 4.539330e+01 -6.163889e+02
    endloop
  endfacet
  facet normal 9.327496e-01 7.125553e-02 -3.534131e-01
    outer loop
      vertex -2.455748e+01 4.062572e+01 -6.242079e+02
      vertex -2.195912e+01 4.539330e+01 -6.163889e+02
      vertex -2.455748e+01 2.603786e+01 -6.271491e+02
    endloop
  endfacet
  facet normal 9.700601e-01 2.410801e-01 2.939062e-02
    outer loop
      vertex -1.965000e+01 4.874695e+01 -5.738811e+02
      vertex -1.388179e+01 2.556362e+01 -5.741014e+02
      vertex -1.327924e+01 2.598102e+01 -5.974128e+02
    endloop
  endfacet
  facet normal 9.630046e-01 2.694849e-01 -3.895475e-15
    outer loop
      vertex -1.965000e+01 4.874695e+01 -5.738811e+02
      vertex -1.327924e+01 2.598102e+01 -5.974128e+02
      vertex -1.965000e+01 4.874695e+01 -5.974896e+02
    endloop
  endfacet
  facet normal 9.256421e-01 3.660600e-01 9.584771e-02
    outer loop
      vertex -2.306605e+01 4.352201e+01 -5.539915e+02
      vertex -1.456421e+01 2.105000e+01 -5.502727e+02
      vertex -1.388179e+01 2.556362e+01 -5.741014e+02
    endloop
  endfacet
  facet normal 9.462917e-01 2.333187e-01 2.238178e-01
    outer loop
      vertex -2.306605e+01 4.352201e+01 -5.539915e+02
      vertex -1.388179e+01 2.556362e+01 -5.741014e+02
      vertex -1.965000e+01 4.874695e+01 -5.738811e+02
    endloop
  endfacet
  facet normal 8.785267e-01 4.748607e-01 -5.194490e-02
    outer loop
      vertex -2.323861e+01 3.973611e+01 -5.261585e+02
      vertex -1.520528e+01 2.487388e+01 -5.261585e+02
      vertex -1.456421e+01 2.105000e+01 -5.502727e+02
    endloop
  endfacet
  facet normal 9.308489e-01 3.612551e-01 5.490967e-02
    outer loop
      vertex -2.323861e+01 3.973611e+01 -5.261585e+02
      vertex -1.456421e+01 2.105000e+01 -5.502727e+02
      vertex -2.306605e+01 4.352201e+01 -5.539915e+02
    endloop
  endfacet
  facet normal 8.800424e-01 4.748951e-01 -6.434931e-05
    outer loop
      vertex -2.320532e+01 3.970212e+01 -5.030472e+02
      vertex -1.519755e+01 2.486268e+01 -5.030536e+02
      vertex -1.520528e+01 2.487388e+01 -5.261585e+02
    endloop
  endfacet
  facet normal 8.797142e-01 4.755025e-01 -5.676671e-04
    outer loop
      vertex -2.320532e+01 3.970212e+01 -5.030472e+02
      vertex -1.520528e+01 2.487388e+01 -5.261585e+02
      vertex -2.323861e+01 3.973611e+01 -5.261585e+02
    endloop
  endfacet
  facet normal 8.217273e-01 3.172813e-01 4.733887e-01
    outer loop
      vertex -2.105841e+01 3.497624e+01 -4.996585e+02
      vertex -1.583702e+01 2.145335e+01 -4.996585e+02
      vertex -1.519755e+01 2.486268e+01 -5.030536e+02
    endloop
  endfacet
  facet normal 8.752788e-01 4.722798e-01 1.041093e-01
    outer loop
      vertex -2.105841e+01 3.497624e+01 -4.996585e+02
      vertex -1.519755e+01 2.486268e+01 -5.030536e+02
      vertex -2.320532e+01 3.970212e+01 -5.030472e+02
    endloop
  endfacet
  facet normal 9.254141e-01 3.372126e-01 -1.729055e-01
    outer loop
      vertex -2.455748e+01 6.301222e+01 -5.959340e+02
      vertex -1.965000e+01 4.874695e+01 -5.974896e+02
      vertex -2.195912e+01 4.539330e+01 -6.163889e+02
    endloop
  endfacet
  facet normal 9.580223e-01 2.658569e-01 -1.073007e-01
    outer loop
      vertex -2.455748e+01 5.700994e+01 -6.108057e+02
      vertex -2.455748e+01 6.301222e+01 -5.959340e+02
      vertex -2.195912e+01 4.539330e+01 -6.163889e+02
    endloop
  endfacet
  facet normal 9.336922e-01 3.580765e-01 -3.733264e-15
    outer loop
      vertex -2.455748e+01 6.154330e+01 -5.775558e+02
      vertex -1.965000e+01 4.874695e+01 -5.738811e+02
      vertex -1.965000e+01 4.874695e+01 -5.974896e+02
    endloop
  endfacet
  facet normal 9.461566e-01 3.226802e-01 2.579090e-02
    outer loop
      vertex -2.455748e+01 6.154330e+01 -5.775558e+02
      vertex -1.965000e+01 4.874695e+01 -5.974896e+02
      vertex -2.455748e+01 6.301222e+01 -5.959340e+02
    endloop
  endfacet
  facet normal 8.921618e-01 3.750558e-01 2.517547e-01
    outer loop
      vertex -2.455748e+01 5.331784e+01 -5.632997e+02
      vertex -2.306605e+01 4.352201e+01 -5.539915e+02
      vertex -1.965000e+01 4.874695e+01 -5.738811e+02
    endloop
  endfacet
  facet normal 8.833197e-01 4.060327e-01 2.342728e-01
    outer loop
      vertex -2.455748e+01 5.331784e+01 -5.632997e+02
      vertex -1.965000e+01 4.874695e+01 -5.738811e+02
      vertex -2.455748e+01 6.154330e+01 -5.775558e+02
    endloop
  endfacet
endsolid SIM_ICUB3_L_UPPER_LEG
