solid SIM_ICUB3_R_HIP_1
  facet normal -6.526323e-01 -6.357213e-01 -4.122250e-01
    outer loop
      vertex 3.705000e+01 -1.505585e+01 -3.337076e+02
      vertex 1.689000e+01 5.415863e+00 -3.333612e+02
      vertex 4.005000e+01 -9.448164e+00 -3.471051e+02
    endloop
  endfacet
  facet normal -6.365109e-01 -3.620943e-01 -6.809858e-01
    outer loop
      vertex 3.705000e+01 7.632020e+00 -3.533830e+02
      vertex 4.005000e+01 -9.448164e+00 -3.471051e+02
      vertex 1.689000e+01 5.415863e+00 -3.333612e+02
    endloop
  endfacet
  facet normal -7.121240e-01 -5.764460e-01 -4.007362e-01
    outer loop
      vertex 4.055000e+01 -2.083026e+01 -3.316209e+02
      vertex 3.705000e+01 -1.505585e+01 -3.337076e+02
      vertex 4.005000e+01 -9.448164e+00 -3.471051e+02
    endloop
  endfacet
  facet normal -7.255546e-01 -3.460638e-01 -5.948196e-01
    outer loop
      vertex 4.055000e+01 7.735566e+00 -3.577125e+02
      vertex 4.005000e+01 -9.448164e+00 -3.471051e+02
      vertex 3.705000e+01 7.632020e+00 -3.533830e+02
    endloop
  endfacet
  facet normal -7.680766e-01 -5.275434e-01 -3.629824e-01
    outer loop
      vertex 5.088707e+01 -1.996841e+01 -3.547469e+02
      vertex 4.055000e+01 -2.083026e+01 -3.316209e+02
      vertex 4.005000e+01 -9.448164e+00 -3.471051e+02
    endloop
  endfacet
  facet normal -7.390742e-01 -3.381338e-01 -5.826104e-01
    outer loop
      vertex 4.055000e+01 7.735566e+00 -3.577125e+02
      vertex 5.088707e+01 -1.996841e+01 -3.547469e+02
      vertex 4.005000e+01 -9.448164e+00 -3.471051e+02
    endloop
  endfacet
  facet normal -7.124583e-01 -7.016961e-01 5.079283e-03
    outer loop
      vertex 1.560067e+01 6.964724e+00 -3.002396e+02
      vertex 1.689000e+01 5.415863e+00 -3.333612e+02
      vertex 3.705000e+01 -1.505585e+01 -3.337076e+02
    endloop
  endfacet
  facet normal -6.995037e-01 -6.568080e-02 -7.116043e-01
    outer loop
      vertex 1.435000e+01 3.642469e+01 -3.337265e+02
      vertex 3.705000e+01 7.632020e+00 -3.533830e+02
      vertex 1.689000e+01 5.415863e+00 -3.333612e+02
    endloop
  endfacet
  facet normal -9.980630e-01 4.675495e-02 -4.103826e-02
    outer loop
      vertex 1.705000e+01 3.642469e+01 -3.019241e+02
      vertex 1.689000e+01 5.415863e+00 -3.333612e+02
      vertex 1.560067e+01 6.964724e+00 -3.002396e+02
    endloop
  endfacet
  facet normal -9.931928e-01 -8.036123e-02 8.432118e-02
    outer loop
      vertex 1.705000e+01 3.642469e+01 -3.019241e+02
      vertex 1.435000e+01 3.642469e+01 -3.337265e+02
      vertex 1.689000e+01 5.415863e+00 -3.333612e+02
    endloop
  endfacet
  facet normal -8.479626e-01 -5.285236e-01 -4.027678e-02
    outer loop
      vertex 4.055000e+01 -2.302998e+01 -3.027556e+02
      vertex 3.705000e+01 -1.505585e+01 -3.337076e+02
      vertex 4.055000e+01 -2.083026e+01 -3.316209e+02
    endloop
  endfacet
  facet normal -5.959558e-01 4.402252e-01 -6.715940e-01
    outer loop
      vertex 1.689000e+01 -3.051485e+00 -3.079493e+02
      vertex 1.560067e+01 6.964724e+00 -3.002396e+02
      vertex 3.705000e+01 -1.505585e+01 -3.337076e+02
    endloop
  endfacet
  facet normal -6.232436e-01 -7.714366e-01 -1.282690e-01
    outer loop
      vertex 4.055000e+01 -2.302998e+01 -3.027556e+02
      vertex 1.689000e+01 -3.051485e+00 -3.079493e+02
      vertex 3.705000e+01 -1.505585e+01 -3.337076e+02
    endloop
  endfacet
  facet normal -7.726069e-01 -9.993361e-02 -6.269704e-01
    outer loop
      vertex 3.867800e+01 3.761361e+01 -3.601679e+02
      vertex 4.055000e+01 7.735566e+00 -3.577125e+02
      vertex 3.705000e+01 7.632020e+00 -3.533830e+02
    endloop
  endfacet
  facet normal -7.665371e-01 -1.843666e-01 -6.151665e-01
    outer loop
      vertex 3.372726e+01 3.543910e+01 -3.575765e+02
      vertex 3.705000e+01 7.632020e+00 -3.533830e+02
      vertex 1.435000e+01 3.642469e+01 -3.337265e+02
    endloop
  endfacet
  facet normal -3.917280e-01 -1.827968e-01 -9.017397e-01
    outer loop
      vertex 3.867800e+01 3.761361e+01 -3.601679e+02
      vertex 3.705000e+01 7.632020e+00 -3.533830e+02
      vertex 3.372726e+01 3.543910e+01 -3.575765e+02
    endloop
  endfacet
  facet normal -8.760476e-01 -2.670384e-01 -4.015359e-01
    outer loop
      vertex 5.129172e+01 -2.530000e+01 -3.520840e+02
      vertex 4.055000e+01 -2.083026e+01 -3.316209e+02
      vertex 5.088707e+01 -1.996841e+01 -3.547469e+02
    endloop
  endfacet
  facet normal -8.784866e-01 -4.763857e-01 -3.630355e-02
    outer loop
      vertex 5.448511e+01 -4.710000e+01 -3.241087e+02
      vertex 4.055000e+01 -2.302998e+01 -3.027556e+02
      vertex 4.055000e+01 -2.083026e+01 -3.316209e+02
    endloop
  endfacet
  facet normal -8.010115e-01 -5.130984e-01 -3.084003e-01
    outer loop
      vertex 5.448511e+01 -4.710000e+01 -3.241087e+02
      vertex 4.055000e+01 -2.083026e+01 -3.316209e+02
      vertex 5.129172e+01 -2.530000e+01 -3.520840e+02
    endloop
  endfacet
  facet normal 9.785700e-04 -1.060770e-01 -9.943574e-01
    outer loop
      vertex 6.399934e+01 7.610961e+00 -3.576761e+02
      vertex 5.088707e+01 -1.996841e+01 -3.547469e+02
      vertex 4.055000e+01 7.735566e+00 -3.577125e+02
    endloop
  endfacet
  facet normal -1.270725e-01 -4.509034e-01 -8.834810e-01
    outer loop
      vertex 6.400000e+01 -2.081192e+01 -3.562024e+02
      vertex 5.129172e+01 -2.530000e+01 -3.520840e+02
      vertex 5.088707e+01 -1.996841e+01 -3.547469e+02
    endloop
  endfacet
  facet normal -1.134462e-01 -5.144723e-02 -9.922112e-01
    outer loop
      vertex 6.399934e+01 7.610961e+00 -3.576761e+02
      vertex 6.400000e+01 -2.081192e+01 -3.562024e+02
      vertex 5.088707e+01 -1.996841e+01 -3.547469e+02
    endloop
  endfacet
  facet normal 7.098867e-02 -7.728118e-02 -9.944789e-01
    outer loop
      vertex 6.399865e+01 3.420609e+01 -3.580957e+02
      vertex 4.055000e+01 7.735566e+00 -3.577125e+02
      vertex 3.867800e+01 3.761361e+01 -3.601679e+02
    endloop
  endfacet
  facet normal 1.466978e-03 -1.577419e-02 -9.998745e-01
    outer loop
      vertex 6.399865e+01 3.420609e+01 -3.580957e+02
      vertex 6.399934e+01 7.610961e+00 -3.576761e+02
      vertex 4.055000e+01 7.735566e+00 -3.577125e+02
    endloop
  endfacet
  facet normal -8.832364e-01 -3.520909e-01 3.097185e-01
    outer loop
      vertex 1.689000e+01 1.258700e+01 -2.901713e+02
      vertex 1.560067e+01 6.964724e+00 -3.002396e+02
      vertex 1.689000e+01 -3.051485e+00 -3.079493e+02
    endloop
  endfacet
  facet normal -9.917338e-01 -2.312523e-03 1.282915e-01
    outer loop
      vertex 1.689000e+01 2.975150e+01 -2.898619e+02
      vertex 1.560067e+01 6.964724e+00 -3.002396e+02
      vertex 1.689000e+01 1.258700e+01 -2.901713e+02
    endloop
  endfacet
  facet normal -9.986479e-01 4.995291e-02 1.438896e-02
    outer loop
      vertex 1.689000e+01 2.975150e+01 -2.898619e+02
      vertex 1.705000e+01 3.642469e+01 -3.019241e+02
      vertex 1.560067e+01 6.964724e+00 -3.002396e+02
    endloop
  endfacet
  facet normal -6.566037e-01 -7.409278e-01 1.410587e-01
    outer loop
      vertex 4.936876e+01 -2.530000e+01 -2.736294e+02
      vertex 1.689000e+01 -3.051485e+00 -3.079493e+02
      vertex 4.055000e+01 -2.302998e+01 -3.027556e+02
    endloop
  endfacet
  facet normal -7.056577e-01 -5.320113e-01 4.679863e-01
    outer loop
      vertex 4.005000e+01 -1.196797e+01 -2.831636e+02
      vertex 1.689000e+01 1.258700e+01 -2.901713e+02
      vertex 1.689000e+01 -3.051485e+00 -3.079493e+02
    endloop
  endfacet
  facet normal -7.357655e-01 -3.045389e-02 6.765513e-01
    outer loop
      vertex 4.936876e+01 -2.530000e+01 -2.736294e+02
      vertex 4.005000e+01 -1.196797e+01 -2.831636e+02
      vertex 1.689000e+01 -3.051485e+00 -3.079493e+02
    endloop
  endfacet
  facet normal -7.499253e-01 -6.372946e-01 1.773913e-01
    outer loop
      vertex 5.931949e+01 -4.710000e+01 -3.098810e+02
      vertex 4.936876e+01 -2.530000e+01 -2.736294e+02
      vertex 4.055000e+01 -2.302998e+01 -3.027556e+02
    endloop
  endfacet
  facet normal -7.272946e-01 -6.402906e-01 2.471246e-01
    outer loop
      vertex 5.931949e+01 -4.710000e+01 -3.098810e+02
      vertex 4.055000e+01 -2.302998e+01 -3.027556e+02
      vertex 5.448511e+01 -4.710000e+01 -3.241087e+02
    endloop
  endfacet
  facet normal -6.457363e-01 -4.287343e-01 6.318319e-01
    outer loop
      vertex 4.005000e+01 5.524681e+00 -2.712938e+02
      vertex 1.689000e+01 1.258700e+01 -2.901713e+02
      vertex 4.005000e+01 -1.196797e+01 -2.831636e+02
    endloop
  endfacet
  facet normal -6.341510e-01 -1.313993e-02 7.730976e-01
    outer loop
      vertex 4.005000e+01 3.622160e+01 -2.707721e+02
      vertex 1.689000e+01 1.258700e+01 -2.901713e+02
      vertex 4.005000e+01 5.524681e+00 -2.712938e+02
    endloop
  endfacet
  facet normal -6.336584e-01 -1.394252e-02 7.734873e-01
    outer loop
      vertex 4.005000e+01 3.622160e+01 -2.707721e+02
      vertex 1.689000e+01 2.975150e+01 -2.898619e+02
      vertex 1.689000e+01 1.258700e+01 -2.901713e+02
    endloop
  endfacet
  facet normal -8.551876e-01 -2.910326e-01 4.288989e-01
    outer loop
      vertex 4.005000e+01 5.524681e+00 -2.712938e+02
      vertex 4.005000e+01 -1.196797e+01 -2.831636e+02
      vertex 4.936876e+01 -2.530000e+01 -2.736294e+02
    endloop
  endfacet
  facet normal -6.028223e-01 -2.398982e-01 7.609561e-01
    outer loop
      vertex 4.055000e+01 1.184987e+01 -2.689037e+02
      vertex 4.005000e+01 5.524681e+00 -2.712938e+02
      vertex 4.936876e+01 -2.530000e+01 -2.736294e+02
    endloop
  endfacet
  facet normal -1.170012e-01 -8.649519e-01 4.880255e-01
    outer loop
      vertex 6.400000e+01 -2.530000e+01 -2.701216e+02
      vertex 4.936876e+01 -2.530000e+01 -2.736294e+02
      vertex 5.931949e+01 -4.710000e+01 -3.098810e+02
    endloop
  endfacet
  facet normal -1.860350e-15 -1.000000e+00 3.708464e-15
    outer loop
      vertex 5.275390e+01 -2.530000e+01 -2.700152e+02
      vertex 4.936876e+01 -2.530000e+01 -2.736294e+02
      vertex 6.400000e+01 -2.530000e+01 -2.701216e+02
    endloop
  endfacet
  facet normal -7.063310e-01 -2.518273e-01 6.615735e-01
    outer loop
      vertex 5.275390e+01 -2.530000e+01 -2.700152e+02
      vertex 4.055000e+01 1.184987e+01 -2.689037e+02
      vertex 4.936876e+01 -2.530000e+01 -2.736294e+02
    endloop
  endfacet
  facet normal -9.717631e-01 -4.009886e-03 2.359246e-01
    outer loop
      vertex 4.055000e+01 3.087513e+01 -2.688035e+02
      vertex 4.005000e+01 3.622160e+01 -2.707721e+02
      vertex 4.005000e+01 5.524681e+00 -2.712938e+02
    endloop
  endfacet
  facet normal -9.782285e-01 -1.092741e-03 2.075277e-01
    outer loop
      vertex 4.055000e+01 3.087513e+01 -2.688035e+02
      vertex 4.005000e+01 5.524681e+00 -2.712938e+02
      vertex 4.055000e+01 1.184987e+01 -2.689037e+02
    endloop
  endfacet
  facet normal -6.439805e-01 5.365127e-01 -5.453835e-01
    outer loop
      vertex 3.281076e+01 6.134602e+01 -3.310087e+02
      vertex 3.372726e+01 3.543910e+01 -3.575765e+02
      vertex 1.435000e+01 3.642469e+01 -3.337265e+02
    endloop
  endfacet
  facet normal -9.959536e-01 3.044413e-02 8.455556e-02
    outer loop
      vertex 1.689000e+01 4.608117e+01 -3.072855e+02
      vertex 1.435000e+01 3.642469e+01 -3.337265e+02
      vertex 1.705000e+01 3.642469e+01 -3.019241e+02
    endloop
  endfacet
  facet normal -7.877447e-01 5.991409e-01 -1.431381e-01
    outer loop
      vertex 1.689000e+01 4.608117e+01 -3.072855e+02
      vertex 3.281076e+01 6.134602e+01 -3.310087e+02
      vertex 1.435000e+01 3.642469e+01 -3.337265e+02
    endloop
  endfacet
  facet normal -5.588223e-01 4.203354e-01 -7.148677e-01
    outer loop
      vertex 3.868537e+01 5.424467e+01 -3.503948e+02
      vertex 3.867800e+01 3.761361e+01 -3.601679e+02
      vertex 3.372726e+01 3.543910e+01 -3.575765e+02
    endloop
  endfacet
  facet normal -9.834536e-01 1.115736e-01 -1.427245e-01
    outer loop
      vertex 3.466723e+01 5.333125e+01 -3.500664e+02
      vertex 3.372726e+01 3.543910e+01 -3.575765e+02
      vertex 3.281076e+01 6.134602e+01 -3.310087e+02
    endloop
  endfacet
  facet normal -1.625703e-01 3.891311e-01 -9.067237e-01
    outer loop
      vertex 3.868537e+01 5.424467e+01 -3.503948e+02
      vertex 3.372726e+01 3.543910e+01 -3.575765e+02
      vertex 3.466723e+01 5.333125e+01 -3.500664e+02
    endloop
  endfacet
  facet normal 1.125705e-01 5.033840e-01 -8.566986e-01
    outer loop
      vertex 6.400127e+01 5.197740e+01 -3.484005e+02
      vertex 3.867800e+01 3.761361e+01 -3.601679e+02
      vertex 3.868537e+01 5.424467e+01 -3.503948e+02
    endloop
  endfacet
  facet normal 1.350450e-01 4.745162e-01 -8.698260e-01
    outer loop
      vertex 6.400127e+01 5.197740e+01 -3.484005e+02
      vertex 6.399865e+01 3.420609e+01 -3.580957e+02
      vertex 3.867800e+01 3.761361e+01 -3.601679e+02
    endloop
  endfacet
  facet normal -7.395568e-01 5.930771e-01 3.183006e-01
    outer loop
      vertex 4.005000e+01 5.483084e+01 -2.827801e+02
      vertex 1.705000e+01 3.642469e+01 -3.019241e+02
      vertex 1.689000e+01 2.975150e+01 -2.898619e+02
    endloop
  endfacet
  facet normal -7.433404e-01 3.152429e-01 5.899720e-01
    outer loop
      vertex 4.005000e+01 5.483084e+01 -2.827801e+02
      vertex 1.689000e+01 4.608117e+01 -3.072855e+02
      vertex 1.705000e+01 3.642469e+01 -3.019241e+02
    endloop
  endfacet
  facet normal -6.458823e-01 4.078638e-01 6.453550e-01
    outer loop
      vertex 4.055000e+01 5.478418e+01 -2.820032e+02
      vertex 1.689000e+01 2.975150e+01 -2.898619e+02
      vertex 4.005000e+01 3.622160e+01 -2.707721e+02
    endloop
  endfacet
  facet normal -7.063092e-01 5.151493e-01 4.855394e-01
    outer loop
      vertex 4.055000e+01 5.478418e+01 -2.820032e+02
      vertex 4.005000e+01 5.483084e+01 -2.827801e+02
      vertex 1.689000e+01 2.975150e+01 -2.898619e+02
    endloop
  endfacet
  facet normal 2.087379e-03 5.176214e-01 8.556072e-01
    outer loop
      vertex 6.400104e+01 5.491324e+01 -2.821385e+02
      vertex 4.055000e+01 5.478418e+01 -2.820032e+02
      vertex 4.005000e+01 3.622160e+01 -2.707721e+02
    endloop
  endfacet
  facet normal 8.155837e-04 3.455953e-01 9.383833e-01
    outer loop
      vertex 6.399836e+01 3.077032e+01 -2.687853e+02
      vertex 4.005000e+01 3.622160e+01 -2.707721e+02
      vertex 4.055000e+01 3.087513e+01 -2.688035e+02
    endloop
  endfacet
  facet normal -2.046678e-02 2.617680e-01 9.649138e-01
    outer loop
      vertex 6.399999e+01 3.636429e+01 -2.703028e+02
      vertex 4.005000e+01 3.622160e+01 -2.707721e+02
      vertex 6.399836e+01 3.077032e+01 -2.687853e+02
    endloop
  endfacet
  facet normal -1.971928e-02 5.378009e-01 8.428412e-01
    outer loop
      vertex 6.400104e+01 5.491324e+01 -2.821385e+02
      vertex 4.005000e+01 3.622160e+01 -2.707721e+02
      vertex 6.399999e+01 3.636429e+01 -2.703028e+02
    endloop
  endfacet
  facet normal -6.819971e-01 6.480541e-01 -3.389777e-01
    outer loop
      vertex 4.005000e+01 6.773534e+01 -3.333585e+02
      vertex 3.466723e+01 5.333125e+01 -3.500664e+02
      vertex 3.281076e+01 6.134602e+01 -3.310087e+02
    endloop
  endfacet
  facet normal -6.517455e-01 7.567942e-01 4.990325e-02
    outer loop
      vertex 4.044365e+01 6.603063e+01 -3.023650e+02
      vertex 4.005000e+01 6.773534e+01 -3.333585e+02
      vertex 3.281076e+01 6.134602e+01 -3.310087e+02
    endloop
  endfacet
  facet normal -6.515465e-01 7.569709e-01 4.982132e-02
    outer loop
      vertex 4.044365e+01 6.603063e+01 -3.023650e+02
      vertex 3.281076e+01 6.134602e+01 -3.310087e+02
      vertex 1.689000e+01 4.608117e+01 -3.072855e+02
    endloop
  endfacet
  facet normal -2.241898e-01 7.726699e-01 -5.939025e-01
    outer loop
      vertex 3.868537e+01 5.424467e+01 -3.503948e+02
      vertex 3.466723e+01 5.333125e+01 -3.500664e+02
      vertex 4.005000e+01 6.773534e+01 -3.333585e+02
    endloop
  endfacet
  facet normal -9.926719e-01 -4.245810e-02 1.131362e-01
    outer loop
      vertex 4.005000e+01 7.040000e+01 -3.323585e+02
      vertex 3.868537e+01 5.424467e+01 -3.503948e+02
      vertex 4.005000e+01 6.773534e+01 -3.333585e+02
    endloop
  endfacet
  facet normal -9.976912e-01 -6.731832e-02 8.969021e-03
    outer loop
      vertex 4.005000e+01 7.040000e+01 -3.133585e+02
      vertex 4.005000e+01 6.773534e+01 -3.333585e+02
      vertex 4.044365e+01 6.603063e+01 -3.023650e+02
    endloop
  endfacet
  facet normal -1.000000e+00 5.192740e-15 3.739698e-16
    outer loop
      vertex 4.005000e+01 7.040000e+01 -3.133585e+02
      vertex 4.005000e+01 7.040000e+01 -3.323585e+02
      vertex 4.005000e+01 6.773534e+01 -3.333585e+02
    endloop
  endfacet
  facet normal 1.087511e-01 4.230319e-01 -8.995650e-01
    outer loop
      vertex 7.065481e+01 7.550000e+01 -3.365343e+02
      vertex 6.400127e+01 5.197740e+01 -3.484005e+02
      vertex 3.868537e+01 5.424467e+01 -3.503948e+02
    endloop
  endfacet
  facet normal 2.125442e-01 7.198140e-01 -6.608273e-01
    outer loop
      vertex 4.043413e+01 6.901587e+01 -3.337426e+02
      vertex 3.868537e+01 5.424467e+01 -3.503948e+02
      vertex 4.005000e+01 7.040000e+01 -3.323585e+02
    endloop
  endfacet
  facet normal -2.177109e-01 7.413880e-01 -6.347801e-01
    outer loop
      vertex 7.065481e+01 7.550000e+01 -3.365343e+02
      vertex 3.868537e+01 5.424467e+01 -3.503948e+02
      vertex 4.043413e+01 6.901587e+01 -3.337426e+02
    endloop
  endfacet
  facet normal -6.438781e-01 6.683285e-01 3.725022e-01
    outer loop
      vertex 4.055000e+01 5.478418e+01 -2.820032e+02
      vertex 4.044365e+01 6.603063e+01 -3.023650e+02
      vertex 1.689000e+01 4.608117e+01 -3.072855e+02
    endloop
  endfacet
  facet normal 7.080983e-01 -5.117863e-01 -4.864889e-01
    outer loop
      vertex 4.055000e+01 5.478418e+01 -2.820032e+02
      vertex 1.689000e+01 4.608117e+01 -3.072855e+02
      vertex 4.005000e+01 5.483084e+01 -2.827801e+02
    endloop
  endfacet
  facet normal -2.028032e-03 8.753463e-01 4.834923e-01
    outer loop
      vertex 6.400104e+01 5.491324e+01 -2.821385e+02
      vertex 4.044365e+01 6.603063e+01 -3.023650e+02
      vertex 4.055000e+01 5.478418e+01 -2.820032e+02
    endloop
  endfacet
  facet normal -5.831108e-03 8.734498e-01 4.868793e-01
    outer loop
      vertex 6.400000e+01 6.610000e+01 -3.022073e+02
      vertex 4.044365e+01 6.603063e+01 -3.023650e+02
      vertex 6.400104e+01 5.491324e+01 -2.821385e+02
    endloop
  endfacet
  facet normal -7.009882e-03 6.465734e-01 7.628195e-01
    outer loop
      vertex 6.779869e+01 7.550000e+01 -3.101399e+02
      vertex 4.044365e+01 6.603063e+01 -3.023650e+02
      vertex 6.400000e+01 6.610000e+01 -3.022073e+02
    endloop
  endfacet
  facet normal -2.091832e-01 9.061383e-01 3.676353e-01
    outer loop
      vertex 6.779869e+01 7.550000e+01 -3.101399e+02
      vertex 4.005000e+01 7.040000e+01 -3.133585e+02
      vertex 4.044365e+01 6.603063e+01 -3.023650e+02
    endloop
  endfacet
  facet normal -5.076646e-01 -7.067218e-01 -4.927686e-01
    outer loop
      vertex 6.387556e+01 -4.710000e+01 -3.337830e+02
      vertex 5.448511e+01 -4.710000e+01 -3.241087e+02
      vertex 5.129172e+01 -2.530000e+01 -3.520840e+02
    endloop
  endfacet
  facet normal -4.843223e-01 -7.094114e-01 -5.120227e-01
    outer loop
      vertex 7.277141e+01 -4.710000e+01 -3.421976e+02
      vertex 6.387556e+01 -4.710000e+01 -3.337830e+02
      vertex 5.129172e+01 -2.530000e+01 -3.520840e+02
    endloop
  endfacet
  facet normal -1.049107e-01 -4.946305e-01 -8.627482e-01
    outer loop
      vertex 6.400000e+01 -2.081192e+01 -3.562024e+02
      vertex 7.277141e+01 -4.710000e+01 -3.421976e+02
      vertex 5.129172e+01 -2.530000e+01 -3.520840e+02
    endloop
  endfacet
  facet normal -2.959360e-15 -1.000000e+00 3.003183e-15
    outer loop
      vertex 5.931949e+01 -4.710000e+01 -3.098810e+02
      vertex 5.448511e+01 -4.710000e+01 -3.241087e+02
      vertex 6.387556e+01 -4.710000e+01 -3.337830e+02
    endloop
  endfacet
  facet normal -1.714409e-15 -1.000000e+00 3.254041e-15
    outer loop
      vertex 6.227599e+01 -4.710000e+01 -3.084229e+02
      vertex 6.387556e+01 -4.710000e+01 -3.337830e+02
      vertex 7.277141e+01 -4.710000e+01 -3.421976e+02
    endloop
  endfacet
  facet normal -1.608147e-15 -1.000000e+00 3.260744e-15
    outer loop
      vertex 6.227599e+01 -4.710000e+01 -3.084229e+02
      vertex 5.931949e+01 -4.710000e+01 -3.098810e+02
      vertex 6.387556e+01 -4.710000e+01 -3.337830e+02
    endloop
  endfacet
  facet normal -2.377015e-15 -4.701844e-01 -8.825682e-01
    outer loop
      vertex 8.932200e+01 -2.081192e+01 -3.562024e+02
      vertex 7.277141e+01 -4.710000e+01 -3.421976e+02
      vertex 6.400000e+01 -2.081192e+01 -3.562024e+02
    endloop
  endfacet
  facet normal -6.812294e-15 -1.000000e+00 1.669883e-15
    outer loop
      vertex 7.490017e+01 -4.710000e+01 -3.420234e+02
      vertex 6.227599e+01 -4.710000e+01 -3.084229e+02
      vertex 7.277141e+01 -4.710000e+01 -3.421976e+02
    endloop
  endfacet
  facet normal 7.047276e-02 -5.032138e-01 -8.612836e-01
    outer loop
      vertex 8.932200e+01 -2.081192e+01 -3.562024e+02
      vertex 7.490017e+01 -4.710000e+01 -3.420234e+02
      vertex 7.277141e+01 -4.710000e+01 -3.421976e+02
    endloop
  endfacet
  facet normal 6.546547e-04 -5.177885e-02 -9.986584e-01
    outer loop
      vertex 8.932043e+01 7.566546e+00 -3.576572e+02
      vertex 6.400000e+01 -2.081192e+01 -3.562024e+02
      vertex 6.399934e+01 7.610961e+00 -3.576761e+02
    endloop
  endfacet
  facet normal -2.281106e-15 -5.119629e-02 -9.986886e-01
    outer loop
      vertex 8.932043e+01 7.566546e+00 -3.576572e+02
      vertex 8.932200e+01 -2.081192e+01 -3.562024e+02
      vertex 6.400000e+01 -2.081192e+01 -3.562024e+02
    endloop
  endfacet
  facet normal -2.408060e-01 -8.388128e-01 4.882679e-01
    outer loop
      vertex 6.400000e+01 -2.530000e+01 -2.701216e+02
      vertex 5.931949e+01 -4.710000e+01 -3.098810e+02
      vertex 6.227599e+01 -4.710000e+01 -3.084229e+02
    endloop
  endfacet
  facet normal -2.904310e-15 -1.000000e+00 3.138167e-15
    outer loop
      vertex 7.490017e+01 -4.710000e+01 -3.420234e+02
      vertex 8.662752e+01 -4.710000e+01 -3.085280e+02
      vertex 6.227599e+01 -4.710000e+01 -3.084229e+02
    endloop
  endfacet
  facet normal 2.130223e-03 -8.697306e-01 4.935221e-01
    outer loop
      vertex 8.932200e+01 -2.530000e+01 -2.701216e+02
      vertex 6.227599e+01 -4.710000e+01 -3.084229e+02
      vertex 8.662752e+01 -4.710000e+01 -3.085280e+02
    endloop
  endfacet
  facet normal -4.550613e-15 -8.690867e-01 4.946598e-01
    outer loop
      vertex 8.932200e+01 -2.530000e+01 -2.701216e+02
      vertex 6.400000e+01 -2.530000e+01 -2.701216e+02
      vertex 6.227599e+01 -4.710000e+01 -3.084229e+02
    endloop
  endfacet
  facet normal -1.572783e-15 -1.000000e+00 3.245270e-15
    outer loop
      vertex 8.804926e+01 -4.710000e+01 -3.341126e+02
      vertex 8.803800e+01 -4.710000e+01 -3.100339e+02
      vertex 8.662752e+01 -4.710000e+01 -3.085280e+02
    endloop
  endfacet
  facet normal 5.967069e-01 -5.758269e-01 5.588956e-01
    outer loop
      vertex 1.098869e+02 -1.854670e+01 -3.039426e+02
      vertex 8.662752e+01 -4.710000e+01 -3.085280e+02
      vertex 8.803800e+01 -4.710000e+01 -3.100339e+02
    endloop
  endfacet
  facet normal -2.985928e-15 -1.000000e+00 3.166742e-15
    outer loop
      vertex 7.490017e+01 -4.710000e+01 -3.420234e+02
      vertex 8.804926e+01 -4.710000e+01 -3.341126e+02
      vertex 8.662752e+01 -4.710000e+01 -3.085280e+02
    endloop
  endfacet
  facet normal 9.924480e-01 -1.226664e-01 -2.217366e-15
    outer loop
      vertex 8.932200e+01 -2.530000e+01 -2.701216e+02
      vertex 8.662752e+01 -4.710000e+01 -3.085280e+02
      vertex 8.932200e+01 -2.530000e+01 -3.019241e+02
    endloop
  endfacet
  facet normal 1.920686e-01 -3.061908e-01 9.323931e-01
    outer loop
      vertex 1.098869e+02 -1.854670e+01 -3.039426e+02
      vertex 8.932200e+01 -2.530000e+01 -3.019241e+02
      vertex 8.662752e+01 -4.710000e+01 -3.085280e+02
    endloop
  endfacet
  facet normal -2.435945e-15 -1.000000e+00 3.244867e-15
    outer loop
      vertex 8.804926e+01 -4.710000e+01 -3.341126e+02
      vertex 9.293090e+01 -4.710000e+01 -3.238787e+02
      vertex 8.803800e+01 -4.710000e+01 -3.100339e+02
    endloop
  endfacet
  facet normal 7.389207e-01 -6.211287e-01 2.611424e-01
    outer loop
      vertex 1.098869e+02 -1.854670e+01 -3.039426e+02
      vertex 8.803800e+01 -4.710000e+01 -3.100339e+02
      vertex 9.293090e+01 -4.710000e+01 -3.238787e+02
    endloop
  endfacet
  facet normal 3.273203e-15 1.000000e+00 -3.644245e-15
    outer loop
      vertex 7.490017e+01 -4.710000e+01 -3.420234e+02
      vertex 9.293090e+01 -4.710000e+01 -3.238787e+02
      vertex 8.804926e+01 -4.710000e+01 -3.341126e+02
    endloop
  endfacet
  facet normal 4.987950e-01 -7.110010e-01 -4.956624e-01
    outer loop
      vertex 9.658390e+01 -2.530000e+01 -3.514735e+02
      vertex 9.293090e+01 -4.710000e+01 -3.238787e+02
      vertex 7.490017e+01 -4.710000e+01 -3.420234e+02
    endloop
  endfacet
  facet normal 8.230561e-01 -4.935879e-01 -2.809798e-01
    outer loop
      vertex 1.087851e+02 -1.719812e+01 -3.299658e+02
      vertex 9.293090e+01 -4.710000e+01 -3.238787e+02
      vertex 9.658390e+01 -2.530000e+01 -3.514735e+02
    endloop
  endfacet
  facet normal 8.765406e-01 -4.773377e-01 -6.184937e-02
    outer loop
      vertex 1.098869e+02 -1.854670e+01 -3.039426e+02
      vertex 9.293090e+01 -4.710000e+01 -3.238787e+02
      vertex 1.087851e+02 -1.719812e+01 -3.299658e+02
    endloop
  endfacet
  facet normal 2.972003e-01 -5.744241e-01 -7.626985e-01
    outer loop
      vertex 9.707172e+01 -1.959748e+01 -3.540972e+02
      vertex 7.490017e+01 -4.710000e+01 -3.420234e+02
      vertex 8.932200e+01 -2.081192e+01 -3.562024e+02
    endloop
  endfacet
  facet normal 2.655110e-02 -4.197055e-01 -9.072719e-01
    outer loop
      vertex 9.707172e+01 -1.959748e+01 -3.540972e+02
      vertex 9.658390e+01 -2.530000e+01 -3.514735e+02
      vertex 7.490017e+01 -4.710000e+01 -3.420234e+02
    endloop
  endfacet
  facet normal -1.955129e-15 -1.000000e+00 -6.308898e-15
    outer loop
      vertex 6.400000e+01 -2.530000e+01 -2.695585e+02
      vertex 5.275390e+01 -2.530000e+01 -2.700152e+02
      vertex 6.400000e+01 -2.530000e+01 -2.701216e+02
    endloop
  endfacet
  facet normal -1.403015e-15 -1.000000e+00 -6.308898e-15
    outer loop
      vertex 8.932200e+01 -2.530000e+01 -2.701216e+02
      vertex 6.400000e+01 -2.530000e+01 -2.695585e+02
      vertex 6.400000e+01 -2.530000e+01 -2.701216e+02
    endloop
  endfacet
  facet normal 1.662077e-04 -1.577424e-02 -9.998756e-01
    outer loop
      vertex 8.932065e+01 3.420483e+01 -3.580914e+02
      vertex 6.399934e+01 7.610961e+00 -3.576761e+02
      vertex 6.399865e+01 3.420609e+01 -3.580957e+02
    endloop
  endfacet
  facet normal 7.177910e-04 -1.629930e-02 -9.998669e-01
    outer loop
      vertex 8.932065e+01 3.420483e+01 -3.580914e+02
      vertex 8.932043e+01 7.566546e+00 -3.576572e+02
      vertex 6.399934e+01 7.610961e+00 -3.576761e+02
    endloop
  endfacet
  facet normal 2.133287e-02 -2.289768e-02 9.995102e-01
    outer loop
      vertex 6.400000e+01 5.114043e+00 -2.695585e+02
      vertex 4.055000e+01 1.184987e+01 -2.689037e+02
      vertex 5.275390e+01 -2.530000e+01 -2.700152e+02
    endloop
  endfacet
  facet normal 1.925508e-02 -3.011676e-02 9.993609e-01
    outer loop
      vertex 6.399836e+01 3.077032e+01 -2.687853e+02
      vertex 4.055000e+01 1.184987e+01 -2.689037e+02
      vertex 6.400000e+01 5.114043e+00 -2.695585e+02
    endloop
  endfacet
  facet normal -8.005706e-04 -5.265446e-03 9.999858e-01
    outer loop
      vertex 6.399836e+01 3.077032e+01 -2.687853e+02
      vertex 4.055000e+01 3.087513e+01 -2.688035e+02
      vertex 4.055000e+01 1.184987e+01 -2.689037e+02
    endloop
  endfacet
  facet normal -4.057816e-02 -2.922925e-08 9.991764e-01
    outer loop
      vertex 6.400000e+01 5.114043e+00 -2.695585e+02
      vertex 5.275390e+01 -2.530000e+01 -2.700152e+02
      vertex 6.400000e+01 -2.530000e+01 -2.695585e+02
    endloop
  endfacet
  facet normal -1.262713e-15 -1.000000e+00 -1.593266e-28
    outer loop
      vertex 8.932200e+01 -2.530000e+01 -2.701216e+02
      vertex 8.932200e+01 -2.530000e+01 -2.695585e+02
      vertex 6.400000e+01 -2.530000e+01 -2.695585e+02
    endloop
  endfacet
  facet normal -3.959411e-23 -2.925334e-08 1.000000e+00
    outer loop
      vertex 8.932200e+01 5.114043e+00 -2.695585e+02
      vertex 6.400000e+01 -2.530000e+01 -2.695585e+02
      vertex 8.932200e+01 -2.530000e+01 -2.695585e+02
    endloop
  endfacet
  facet normal 2.462572e-23 -2.925334e-08 1.000000e+00
    outer loop
      vertex 8.932200e+01 5.114043e+00 -2.695585e+02
      vertex 6.400000e+01 5.114043e+00 -2.695585e+02
      vertex 6.400000e+01 -2.530000e+01 -2.695585e+02
    endloop
  endfacet
  facet normal -1.190118e-15 -1.000000e+00 6.207681e-17
    outer loop
      vertex 9.804554e+01 -2.530000e+01 -2.740062e+02
      vertex 9.525040e+01 -2.530000e+01 -2.703628e+02
      vertex 8.932200e+01 -2.530000e+01 -2.695585e+02
    endloop
  endfacet
  facet normal 1.341542e-01 -6.432823e-02 9.888703e-01
    outer loop
      vertex 1.021500e+02 1.199352e+01 -2.688728e+02
      vertex 8.932200e+01 -2.530000e+01 -2.695585e+02
      vertex 9.525040e+01 -2.530000e+01 -2.703628e+02
    endloop
  endfacet
  facet normal -1.221768e-15 -1.000000e+00 -1.541602e-28
    outer loop
      vertex 8.932200e+01 -2.530000e+01 -2.701216e+02
      vertex 9.804554e+01 -2.530000e+01 -2.740062e+02
      vertex 8.932200e+01 -2.530000e+01 -2.695585e+02
    endloop
  endfacet
  facet normal -5.337929e-02 -2.921163e-08 9.985743e-01
    outer loop
      vertex 1.021500e+02 1.199352e+01 -2.688728e+02
      vertex 8.932200e+01 5.114043e+00 -2.695585e+02
      vertex 8.932200e+01 -2.530000e+01 -2.695585e+02
    endloop
  endfacet
  facet normal 7.820447e-01 -1.686551e-01 5.999680e-01
    outer loop
      vertex 1.021500e+02 1.199352e+01 -2.688728e+02
      vertex 9.525040e+01 -2.530000e+01 -2.703628e+02
      vertex 9.804554e+01 -2.530000e+01 -2.740062e+02
    endloop
  endfacet
  facet normal -1.221768e-15 -1.000000e+00 2.729720e-30
    outer loop
      vertex 8.932200e+01 -2.530000e+01 -2.701216e+02
      vertex 8.932200e+01 -2.530000e+01 -3.019241e+02
      vertex 9.804554e+01 -2.530000e+01 -2.740062e+02
    endloop
  endfacet
  facet normal 3.022243e-01 -9.485475e-01 -9.443636e-02
    outer loop
      vertex 1.098869e+02 -1.854670e+01 -3.039426e+02
      vertex 9.804554e+01 -2.530000e+01 -2.740062e+02
      vertex 8.932200e+01 -2.530000e+01 -3.019241e+02
    endloop
  endfacet
  facet normal 8.976472e-01 -3.420542e-01 2.779002e-01
    outer loop
      vertex 1.109992e+02 7.237213e+00 -2.757994e+02
      vertex 9.804554e+01 -2.530000e+01 -2.740062e+02
      vertex 1.098869e+02 -1.854670e+01 -3.039426e+02
    endloop
  endfacet
  facet normal 5.477572e-01 -1.729593e-01 8.185641e-01
    outer loop
      vertex 1.021500e+02 1.199352e+01 -2.688728e+02
      vertex 9.804554e+01 -2.530000e+01 -2.740062e+02
      vertex 1.109992e+02 7.237213e+00 -2.757994e+02
    endloop
  endfacet
  facet normal 5.181620e-05 -3.012357e-02 9.995462e-01
    outer loop
      vertex 8.932036e+01 3.077008e+01 -2.687866e+02
      vertex 6.399836e+01 3.077032e+01 -2.687853e+02
      vertex 6.400000e+01 5.114043e+00 -2.695585e+02
    endloop
  endfacet
  facet normal 2.733041e-17 -3.007248e-02 9.995477e-01
    outer loop
      vertex 8.932036e+01 3.077008e+01 -2.687866e+02
      vertex 6.400000e+01 5.114043e+00 -2.695585e+02
      vertex 8.932200e+01 5.114043e+00 -2.695585e+02
    endloop
  endfacet
  facet normal 2.605774e-04 4.789186e-01 -8.778593e-01
    outer loop
      vertex 8.932319e+01 5.200250e+01 -3.483793e+02
      vertex 6.399865e+01 3.420609e+01 -3.580957e+02
      vertex 6.400127e+01 5.197740e+01 -3.484005e+02
    endloop
  endfacet
  facet normal 1.704848e-04 4.790174e-01 -8.778054e-01
    outer loop
      vertex 8.932319e+01 5.200250e+01 -3.483793e+02
      vertex 8.932065e+01 3.420483e+01 -3.580914e+02
      vertex 6.399865e+01 3.420609e+01 -3.580957e+02
    endloop
  endfacet
  facet normal 5.284601e-05 2.618173e-01 9.651175e-01
    outer loop
      vertex 8.932036e+01 3.077008e+01 -2.687866e+02
      vertex 6.399999e+01 3.636429e+01 -2.703028e+02
      vertex 6.399836e+01 3.077032e+01 -2.687853e+02
    endloop
  endfacet
  facet normal 7.100544e-04 5.379045e-01 8.430055e-01
    outer loop
      vertex 8.932244e+01 5.496670e+01 -2.821940e+02
      vertex 6.400104e+01 5.491324e+01 -2.821385e+02
      vertex 6.399999e+01 3.636429e+01 -2.703028e+02
    endloop
  endfacet
  facet normal 5.284601e-05 2.618173e-01 9.651175e-01
    outer loop
      vertex 8.932036e+01 3.077008e+01 -2.687866e+02
      vertex 8.932199e+01 3.636388e+01 -2.703041e+02
      vertex 6.399999e+01 3.636429e+01 -2.703028e+02
    endloop
  endfacet
  facet normal 5.115737e-05 5.385416e-01 8.425989e-01
    outer loop
      vertex 8.932244e+01 5.496670e+01 -2.821940e+02
      vertex 6.399999e+01 3.636429e+01 -2.703028e+02
      vertex 8.932199e+01 3.636388e+01 -2.703041e+02
    endloop
  endfacet
  facet normal 5.922171e-02 4.362009e-01 -8.978984e-01
    outer loop
      vertex 7.841076e+01 7.550000e+01 -3.360228e+02
      vertex 6.400127e+01 5.197740e+01 -3.484005e+02
      vertex 7.065481e+01 7.550000e+01 -3.365343e+02
    endloop
  endfacet
  facet normal 2.798486e-04 4.655356e-01 -8.850291e-01
    outer loop
      vertex 7.841076e+01 7.550000e+01 -3.360228e+02
      vertex 8.932319e+01 5.200250e+01 -3.483793e+02
      vertex 6.400127e+01 5.197740e+01 -3.484005e+02
    endloop
  endfacet
  facet normal -7.781104e-04 8.734645e-01 4.868872e-01
    outer loop
      vertex 8.932244e+01 5.496670e+01 -2.821940e+02
      vertex 6.400000e+01 6.610000e+01 -3.022073e+02
      vertex 6.400104e+01 5.491324e+01 -2.821385e+02
    endloop
  endfacet
  facet normal 8.419824e-02 6.225542e-01 7.780340e-01
    outer loop
      vertex 8.208676e+01 7.550000e+01 -3.116862e+02
      vertex 6.779869e+01 7.550000e+01 -3.101399e+02
      vertex 6.400000e+01 6.610000e+01 -3.022073e+02
    endloop
  endfacet
  facet normal 1.091289e-15 8.738833e-01 4.861357e-01
    outer loop
      vertex 8.932200e+01 6.610000e+01 -3.022073e+02
      vertex 6.400000e+01 6.610000e+01 -3.022073e+02
      vertex 8.932244e+01 5.496670e+01 -2.821940e+02
    endloop
  endfacet
  facet normal 1.597500e-15 7.100547e-01 7.041465e-01
    outer loop
      vertex 8.208676e+01 7.550000e+01 -3.116862e+02
      vertex 6.400000e+01 6.610000e+01 -3.022073e+02
      vertex 8.932200e+01 6.610000e+01 -3.022073e+02
    endloop
  endfacet
  facet normal -1.698303e-01 6.728704e-01 -7.200022e-01
    outer loop
      vertex 6.435472e+01 7.550000e+01 -3.333252e+02
      vertex 4.043413e+01 6.901587e+01 -3.337426e+02
      vertex 4.005000e+01 7.040000e+01 -3.323585e+02
    endloop
  endfacet
  facet normal -2.041137e-01 9.784776e-01 3.031929e-02
    outer loop
      vertex 6.779869e+01 7.550000e+01 -3.101399e+02
      vertex 6.435472e+01 7.550000e+01 -3.333252e+02
      vertex 4.005000e+01 7.040000e+01 -3.323585e+02
    endloop
  endfacet
  facet normal -1.807648e-01 9.835264e-01 -9.325960e-09
    outer loop
      vertex 6.779869e+01 7.550000e+01 -3.101399e+02
      vertex 4.005000e+01 7.040000e+01 -3.323585e+02
      vertex 4.005000e+01 7.040000e+01 -3.133585e+02
    endloop
  endfacet
  facet normal -2.269683e-01 8.659924e-01 -4.455812e-01
    outer loop
      vertex 7.065481e+01 7.550000e+01 -3.365343e+02
      vertex 4.043413e+01 6.901587e+01 -3.337426e+02
      vertex 6.435472e+01 7.550000e+01 -3.333252e+02
    endloop
  endfacet
  facet normal 4.020169e-15 1.000000e+00 -5.392501e-15
    outer loop
      vertex 7.841076e+01 7.550000e+01 -3.360228e+02
      vertex 7.065481e+01 7.550000e+01 -3.365343e+02
      vertex 6.435472e+01 7.550000e+01 -3.333252e+02
    endloop
  endfacet
  facet normal 3.598480e-15 1.000000e+00 -7.276709e-15
    outer loop
      vertex 8.513672e+01 7.550000e+01 -3.308598e+02
      vertex 6.435472e+01 7.550000e+01 -3.333252e+02
      vertex 6.779869e+01 7.550000e+01 -3.101399e+02
    endloop
  endfacet
  facet normal 3.621432e-15 1.000000e+00 -7.470180e-15
    outer loop
      vertex 7.841076e+01 7.550000e+01 -3.360228e+02
      vertex 6.435472e+01 7.550000e+01 -3.333252e+02
      vertex 8.513672e+01 7.550000e+01 -3.308598e+02
    endloop
  endfacet
  facet normal 5.337578e-15 1.000000e+00 -5.821459e-15
    outer loop
      vertex 8.208676e+01 7.550000e+01 -3.116862e+02
      vertex 8.513672e+01 7.550000e+01 -3.308598e+02
      vertex 6.779869e+01 7.550000e+01 -3.101399e+02
    endloop
  endfacet
  facet normal 1.721144e-01 -5.042277e-02 -9.837856e-01
    outer loop
      vertex 1.077052e+02 8.607087e+00 -3.544941e+02
      vertex 8.932200e+01 -2.081192e+01 -3.562024e+02
      vertex 8.932043e+01 7.566546e+00 -3.576572e+02
    endloop
  endfacet
  facet normal 2.774974e-01 -1.180357e-01 -9.534478e-01
    outer loop
      vertex 1.077052e+02 8.607087e+00 -3.544941e+02
      vertex 9.707172e+01 -1.959748e+01 -3.540972e+02
      vertex 8.932200e+01 -2.081192e+01 -3.562024e+02
    endloop
  endfacet
  facet normal 1.758547e-01 -1.604675e-02 -9.842853e-01
    outer loop
      vertex 1.079051e+02 3.329690e+01 -3.547563e+02
      vertex 8.932043e+01 7.566546e+00 -3.576572e+02
      vertex 8.932065e+01 3.420483e+01 -3.580914e+02
    endloop
  endfacet
  facet normal 1.701980e-01 -1.184226e-02 -9.853387e-01
    outer loop
      vertex 1.079051e+02 3.329690e+01 -3.547563e+02
      vertex 1.077052e+02 8.607087e+00 -3.544941e+02
      vertex 8.932043e+01 7.566546e+00 -3.576572e+02
    endloop
  endfacet
  facet normal 5.144536e-05 -3.007248e-02 9.995477e-01
    outer loop
      vertex 1.021500e+02 3.076993e+01 -2.687873e+02
      vertex 8.932036e+01 3.077008e+01 -2.687866e+02
      vertex 8.932200e+01 5.114043e+00 -2.695585e+02
    endloop
  endfacet
  facet normal -5.094677e-02 -4.547527e-03 9.986910e-01
    outer loop
      vertex 1.021500e+02 3.076993e+01 -2.687873e+02
      vertex 8.932200e+01 5.114043e+00 -2.695585e+02
      vertex 1.021500e+02 1.199352e+01 -2.688728e+02
    endloop
  endfacet
  facet normal 5.307662e-04 4.790173e-01 -8.778053e-01
    outer loop
      vertex 1.021500e+02 5.202576e+01 -3.483588e+02
      vertex 8.932065e+01 3.420483e+01 -3.580914e+02
      vertex 8.932319e+01 5.200250e+01 -3.483793e+02
    endloop
  endfacet
  facet normal 1.816430e-01 3.673938e-01 -9.121555e-01
    outer loop
      vertex 1.021500e+02 5.202576e+01 -3.483588e+02
      vertex 1.079051e+02 3.329690e+01 -3.547563e+02
      vertex 8.932065e+01 3.420483e+01 -3.580914e+02
    endloop
  endfacet
  facet normal 5.298848e-05 2.618173e-01 9.651175e-01
    outer loop
      vertex 1.021500e+02 3.076993e+01 -2.687873e+02
      vertex 8.932199e+01 3.636388e+01 -2.703041e+02
      vertex 8.932036e+01 3.077008e+01 -2.687866e+02
    endloop
  endfacet
  facet normal 4.817125e-02 5.379156e-01 8.416213e-01
    outer loop
      vertex 1.035136e+02 5.405120e+01 -2.824211e+02
      vertex 8.932244e+01 5.496670e+01 -2.821940e+02
      vertex 8.932199e+01 3.636388e+01 -2.703041e+02
    endloop
  endfacet
  facet normal 2.178646e-01 6.874551e-01 6.927774e-01
    outer loop
      vertex 1.021500e+02 3.076993e+01 -2.687873e+02
      vertex 1.112545e+02 3.463188e+01 -2.754827e+02
      vertex 8.932199e+01 3.636388e+01 -2.703041e+02
    endloop
  endfacet
  facet normal 2.401357e-01 4.100901e-01 8.798642e-01
    outer loop
      vertex 1.035136e+02 5.405120e+01 -2.824211e+02
      vertex 8.932199e+01 3.636388e+01 -2.703041e+02
      vertex 1.112545e+02 3.463188e+01 -2.754827e+02
    endloop
  endfacet
  facet normal 4.988561e-01 5.734179e-01 -6.498727e-01
    outer loop
      vertex 7.841076e+01 7.550000e+01 -3.360228e+02
      vertex 8.513672e+01 7.550000e+01 -3.308598e+02
      vertex 8.932319e+01 5.200250e+01 -3.483793e+02
    endloop
  endfacet
  facet normal 9.021871e-01 3.493647e-01 -2.529877e-01
    outer loop
      vertex 8.932091e+01 6.385758e+01 -3.320161e+02
      vertex 8.932319e+01 5.200250e+01 -3.483793e+02
      vertex 8.513672e+01 7.550000e+01 -3.308598e+02
    endloop
  endfacet
  facet normal 2.083318e-01 7.920495e-01 -5.738078e-01
    outer loop
      vertex 1.094756e+02 5.984013e+01 -3.302440e+02
      vertex 8.932319e+01 5.200250e+01 -3.483793e+02
      vertex 8.932091e+01 6.385758e+01 -3.320161e+02
    endloop
  endfacet
  facet normal -1.034897e-03 9.183607e-01 -3.957430e-01
    outer loop
      vertex 1.021500e+02 5.202576e+01 -3.483588e+02
      vertex 8.932319e+01 5.200250e+01 -3.483793e+02
      vertex 1.094756e+02 5.984013e+01 -3.302440e+02
    endloop
  endfacet
  facet normal 6.402446e-02 8.720910e-01 4.851372e-01
    outer loop
      vertex 1.035136e+02 5.405120e+01 -2.824211e+02
      vertex 8.932200e+01 6.610000e+01 -3.022073e+02
      vertex 8.932244e+01 5.496670e+01 -2.821940e+02
    endloop
  endfacet
  facet normal 8.125255e-01 5.812810e-01 -4.375749e-02
    outer loop
      vertex 8.208676e+01 7.550000e+01 -3.116862e+02
      vertex 8.932200e+01 6.610000e+01 -3.022073e+02
      vertex 8.932091e+01 6.385758e+01 -3.320161e+02
    endloop
  endfacet
  facet normal 2.171142e-01 9.733952e-01 -7.323325e-02
    outer loop
      vertex 1.105951e+02 6.124494e+01 -3.036712e+02
      vertex 8.932091e+01 6.385758e+01 -3.320161e+02
      vertex 8.932200e+01 6.610000e+01 -3.022073e+02
    endloop
  endfacet
  facet normal 2.305876e-01 8.957510e-01 3.800783e-01
    outer loop
      vertex 1.035136e+02 5.405120e+01 -2.824211e+02
      vertex 1.105951e+02 6.124494e+01 -3.036712e+02
      vertex 8.932200e+01 6.610000e+01 -3.022073e+02
    endloop
  endfacet
  facet normal 9.352085e-01 3.213319e-01 1.487642e-01
    outer loop
      vertex 8.208676e+01 7.550000e+01 -3.116862e+02
      vertex 8.932091e+01 6.385758e+01 -3.320161e+02
      vertex 8.513672e+01 7.550000e+01 -3.308598e+02
    endloop
  endfacet
  facet normal 2.002140e-01 9.779051e-01 -6.013315e-02
    outer loop
      vertex 1.105951e+02 6.124494e+01 -3.036712e+02
      vertex 1.094756e+02 5.984013e+01 -3.302440e+02
      vertex 8.932091e+01 6.385758e+01 -3.320161e+02
    endloop
  endfacet
  facet normal 8.786811e-01 -2.595294e-01 -4.007043e-01
    outer loop
      vertex 9.707172e+01 -1.959748e+01 -3.540972e+02
      vertex 1.087851e+02 -1.719812e+01 -3.299658e+02
      vertex 9.658390e+01 -2.530000e+01 -3.514735e+02
    endloop
  endfacet
  facet normal 8.886206e-01 -2.033094e-01 -4.111188e-01
    outer loop
      vertex 1.121500e+02 5.114042e+00 -3.337265e+02
      vertex 1.087851e+02 -1.719812e+01 -3.299658e+02
      vertex 9.707172e+01 -1.959748e+01 -3.540972e+02
    endloop
  endfacet
  facet normal 9.947350e-01 -9.114922e-02 -4.684059e-02
    outer loop
      vertex 1.121500e+02 5.114042e+00 -3.019241e+02
      vertex 1.098869e+02 -1.854670e+01 -3.039426e+02
      vertex 1.087851e+02 -1.719812e+01 -3.299658e+02
    endloop
  endfacet
  facet normal 9.888182e-01 -1.491257e-01 -1.325554e-15
    outer loop
      vertex 1.121500e+02 5.114042e+00 -3.019241e+02
      vertex 1.087851e+02 -1.719812e+01 -3.299658e+02
      vertex 1.121500e+02 5.114042e+00 -3.337265e+02
    endloop
  endfacet
  facet normal 9.044527e-01 -3.445298e-01 -2.515245e-01
    outer loop
      vertex 1.077052e+02 8.607087e+00 -3.544941e+02
      vertex 1.121500e+02 5.114042e+00 -3.337265e+02
      vertex 9.707172e+01 -1.959748e+01 -3.540972e+02
    endloop
  endfacet
  facet normal 9.936885e-01 -9.946907e-02 5.185584e-02
    outer loop
      vertex 1.109992e+02 7.237213e+00 -2.757994e+02
      vertex 1.098869e+02 -1.854670e+01 -3.039426e+02
      vertex 1.121500e+02 5.114042e+00 -3.019241e+02
    endloop
  endfacet
  facet normal 9.778546e-01 -3.106708e-15 -2.092854e-01
    outer loop
      vertex 1.121500e+02 3.642469e+01 -3.337265e+02
      vertex 1.121500e+02 5.114042e+00 -3.337265e+02
      vertex 1.077052e+02 8.607087e+00 -3.544941e+02
    endloop
  endfacet
  facet normal 9.994904e-01 -3.192174e-02 -1.340831e-15
    outer loop
      vertex 1.131500e+02 3.642469e+01 -3.019241e+02
      vertex 1.121500e+02 5.114042e+00 -3.019241e+02
      vertex 1.121500e+02 5.114042e+00 -3.337265e+02
    endloop
  endfacet
  facet normal 9.995060e-01 -3.173825e-15 -3.142858e-02
    outer loop
      vertex 1.131500e+02 3.642469e+01 -3.019241e+02
      vertex 1.121500e+02 5.114042e+00 -3.337265e+02
      vertex 1.121500e+02 3.642469e+01 -3.337265e+02
    endloop
  endfacet
  facet normal 9.804692e-01 -1.002480e-02 -1.964171e-01
    outer loop
      vertex 1.079051e+02 3.329690e+01 -3.547563e+02
      vertex 1.121500e+02 3.642469e+01 -3.337265e+02
      vertex 1.077052e+02 8.607087e+00 -3.544941e+02
    endloop
  endfacet
  facet normal 9.989475e-01 -9.826656e-03 4.480221e-02
    outer loop
      vertex 1.112545e+02 3.463188e+01 -2.754827e+02
      vertex 1.109992e+02 7.237213e+00 -2.757994e+02
      vertex 1.121500e+02 5.114042e+00 -3.019241e+02
    endloop
  endfacet
  facet normal 9.970861e-01 -3.184495e-02 6.931933e-02
    outer loop
      vertex 1.112545e+02 3.463188e+01 -2.754827e+02
      vertex 1.121500e+02 5.114042e+00 -3.019241e+02
      vertex 1.131500e+02 3.642469e+01 -3.019241e+02
    endloop
  endfacet
  facet normal 6.151697e-01 -3.589593e-03 7.883866e-01
    outer loop
      vertex 1.021500e+02 3.076993e+01 -2.687873e+02
      vertex 1.021500e+02 1.199352e+01 -2.688728e+02
      vertex 1.109992e+02 7.237213e+00 -2.757994e+02
    endloop
  endfacet
  facet normal 5.964577e-01 -1.483365e-02 8.025074e-01
    outer loop
      vertex 1.021500e+02 3.076993e+01 -2.687873e+02
      vertex 1.109992e+02 7.237213e+00 -2.757994e+02
      vertex 1.112545e+02 3.463188e+01 -2.754827e+02
    endloop
  endfacet
  facet normal 9.659076e-01 1.424707e-01 -2.161587e-01
    outer loop
      vertex 1.094756e+02 5.984013e+01 -3.302440e+02
      vertex 1.121500e+02 3.642469e+01 -3.337265e+02
      vertex 1.079051e+02 3.329690e+01 -3.547563e+02
    endloop
  endfacet
  facet normal 9.944791e-01 1.001675e-01 -3.127051e-02
    outer loop
      vertex 1.105951e+02 6.124494e+01 -3.036712e+02
      vertex 1.131500e+02 3.642469e+01 -3.019241e+02
      vertex 1.121500e+02 3.642469e+01 -3.337265e+02
    endloop
  endfacet
  facet normal 9.915563e-01 1.204107e-01 -4.813892e-02
    outer loop
      vertex 1.105951e+02 6.124494e+01 -3.036712e+02
      vertex 1.121500e+02 3.642469e+01 -3.337265e+02
      vertex 1.094756e+02 5.984013e+01 -3.302440e+02
    endloop
  endfacet
  facet normal 7.739428e-01 4.043067e-01 -4.873896e-01
    outer loop
      vertex 1.021500e+02 5.202576e+01 -3.483588e+02
      vertex 1.094756e+02 5.984013e+01 -3.302440e+02
      vertex 1.079051e+02 3.329690e+01 -3.547563e+02
    endloop
  endfacet
  facet normal 9.131544e-01 3.970074e-01 9.238005e-02
    outer loop
      vertex 1.035136e+02 5.405120e+01 -2.824211e+02
      vertex 1.112545e+02 3.463188e+01 -2.754827e+02
      vertex 1.131500e+02 3.642469e+01 -3.019241e+02
    endloop
  endfacet
  facet normal 9.288961e-01 1.202731e-01 3.502662e-01
    outer loop
      vertex 1.035136e+02 5.405120e+01 -2.824211e+02
      vertex 1.131500e+02 3.642469e+01 -3.019241e+02
      vertex 1.105951e+02 6.124494e+01 -3.036712e+02
    endloop
  endfacet
endsolid SIM_ICUB3_R_HIP_1
